<svg width="457" height="457" viewBox="0 0 457 457" fill="none" xmlns="http://www.w3.org/2000/svg">
<path d="M73.431 225.566C-12.1651 274.986 -12.1651 355.116 73.431 404.536C159.027 453.956 297.818 453.956 383.414 404.536C469.01 355.116 469.019 274.986 383.414 225.566C297.809 176.146 159.036 176.146 73.431 225.566Z" fill="#FAFAFA"/>
<path d="M417.442 185.048C412.323 186.154 404.49 193.019 401.163 206.399C398.615 216.154 398.216 226.345 399.993 236.269C401.026 237.018 402.041 237.768 403.046 238.536L403.832 239.13C404.886 239.94 405.919 240.754 406.931 241.57L407.662 242.173C407.881 239.532 408.247 236.26 408.859 232.284C409.079 230.913 409.316 229.606 409.563 228.363C413.338 210.083 421.582 205.796 425.375 197.735C429.644 188.695 423.182 183.796 417.442 185.048Z" fill="#E0E0E0"/>
<path d="M418.803 190.258C410.806 197.57 401.776 216.764 403.832 239.13L403.074 238.554C401.246 216.207 410.312 197.04 418.328 189.737C418.362 189.703 418.403 189.675 418.448 189.657C418.492 189.638 418.54 189.628 418.589 189.628C418.637 189.628 418.685 189.638 418.73 189.657C418.775 189.675 418.815 189.703 418.849 189.737C418.881 189.774 418.905 189.817 418.92 189.864C418.935 189.91 418.94 189.959 418.936 190.007C418.932 190.056 418.918 190.103 418.895 190.146C418.872 190.189 418.841 190.227 418.803 190.258Z" fill="white"/>
<path d="M419.242 231.726C415.91 235.896 413.426 240.678 411.93 245.802C411.254 245.217 410.578 244.623 409.892 244.047L409.198 243.462C408.686 243.023 408.174 242.594 407.644 242.173L406.913 241.57C407.206 236.292 408.164 231.071 409.764 226.032C411.592 221.069 414.462 215.558 416.976 212.889C423.218 206.272 430.476 205.65 433.035 211.061C435.594 216.472 425.842 223.016 419.242 231.726Z" fill="#F0F0F0"/>
<path d="M425.448 215.384C420.266 218.528 411.464 232.284 409.91 244.047L409.216 243.462C410.962 231.498 419.718 218.007 425.074 214.753C425.115 214.729 425.161 214.713 425.209 214.706C425.256 214.699 425.305 214.701 425.352 214.713C425.398 214.725 425.442 214.746 425.481 214.775C425.519 214.804 425.552 214.84 425.576 214.881C425.601 214.923 425.617 214.969 425.624 215.016C425.631 215.064 425.628 215.113 425.617 215.159C425.605 215.206 425.584 215.25 425.555 215.288C425.526 215.327 425.49 215.359 425.448 215.384Z" fill="white"/>
<path d="M63.8517 231.461C62.6818 232.229 61.521 233.006 60.3877 233.783C58.9618 234.77 57.5665 235.76 56.2015 236.753C56.2334 227.202 54.3919 217.737 50.7815 208.895C49.4796 205.711 47.8533 202.669 45.9282 199.819C37.3549 187.498 38.8538 181.475 44.0362 179.711C49.2186 177.947 62.8372 185.707 65.0582 206.409C66.027 215.558 64.8937 225.374 63.8517 231.461Z" fill="#F0F0F0"/>
<path d="M58.7973 233.244H58.7334C58.6141 233.219 58.509 233.149 58.4407 233.049C58.3724 232.948 58.3462 232.824 58.3678 232.704C62.0238 213.611 55.3333 192.168 47.0707 183.239C47.0279 183.196 46.9939 183.146 46.9707 183.09C46.9475 183.034 46.9355 182.975 46.9355 182.914C46.9355 182.854 46.9475 182.794 46.9707 182.738C46.9939 182.683 47.0279 182.632 47.0707 182.59C47.1577 182.505 47.2741 182.458 47.3952 182.458C47.5163 182.458 47.6327 182.505 47.7197 182.59C56.1285 191.675 62.9286 213.474 59.2452 232.86C59.2279 232.966 59.1735 233.063 59.0915 233.134C59.0095 233.204 58.9053 233.243 58.7973 233.244Z" fill="white"/>
<path d="M61.0917 230.593C60.9651 231.677 60.7293 232.746 60.3879 233.783C58.962 234.77 57.5667 235.76 56.2018 236.753C53.935 238.411 51.7536 240.093 49.6575 241.799L48.7435 242.53C45.4288 245.254 42.3242 248.038 39.4299 250.884C38.4427 251.387 35.8196 249.129 35.0884 248.59C33.8322 247.637 32.841 246.378 32.2093 244.934C31.51 243.293 31.3344 241.477 31.7066 239.733C31.9101 238.802 32.1758 237.886 32.5017 236.991C32.8034 236.077 33.105 235.245 33.4157 234.368C33.7752 233.524 33.9557 232.616 33.9459 231.699C33.7996 229.871 32.255 228.509 30.8383 227.339C29.2753 226.041 27.6667 224.35 27.7855 222.157C27.9888 220.461 28.7471 218.88 29.9425 217.66C31.0576 216.389 32.3646 215.274 33.3792 213.922C34.1731 212.984 34.6244 211.804 34.6588 210.576C34.5933 209.819 34.3757 209.082 34.019 208.41C33.2019 207.005 32.496 205.538 31.9076 204.023C31.4506 202.46 31.6243 200.559 32.8765 199.517C33.4321 199.146 34.0562 198.889 34.7122 198.762C35.3682 198.635 36.0429 198.64 36.697 198.777C37.934 198.991 39.1097 199.471 40.1428 200.184C43.5246 202.296 45.3069 206.518 48.9172 208.191C49.5295 208.466 50.1659 208.683 50.8183 208.84C51.65 209.068 52.5092 209.242 53.3318 209.507C54.0842 209.69 54.79 210.029 55.4039 210.501C56.0177 210.974 56.5261 211.569 56.8964 212.249C58.112 214.991 55.434 218.236 56.2383 221.161C56.741 222.989 58.0663 224.076 59.3094 225.401C59.614 225.722 59.8951 226.064 60.1502 226.425C60.3338 226.672 60.4987 226.931 60.6438 227.202C61.1508 228.256 61.3077 229.444 61.0917 230.593Z" fill="#E0E0E0"/>
<path d="M49.6572 241.799L48.7432 242.53C49.3464 226.133 42.6834 208.538 37.3822 203.045C37.3416 203.005 37.3093 202.957 37.2873 202.905C37.2652 202.852 37.2539 202.796 37.2539 202.739C37.2539 202.682 37.2652 202.625 37.2873 202.573C37.3093 202.52 37.3416 202.473 37.3822 202.433C37.4641 202.353 37.574 202.308 37.6884 202.308C37.8028 202.308 37.9126 202.353 37.9946 202.433C43.3506 207.953 50.0228 225.392 49.6572 241.799Z" fill="white"/>
<path d="M47.2808 224.734C47.2386 224.743 47.1951 224.743 47.1529 224.734C43.1199 223.41 38.9551 222.527 34.7316 222.102C34.6751 222.097 34.6201 222.082 34.5697 222.056C34.5193 222.03 34.4746 221.994 34.4381 221.951C34.4015 221.907 34.3739 221.857 34.3569 221.803C34.3398 221.749 34.3336 221.692 34.3386 221.636C34.3419 221.578 34.357 221.522 34.3832 221.47C34.4093 221.418 34.4458 221.372 34.4904 221.336C34.5351 221.299 34.5868 221.271 34.6425 221.255C34.6981 221.239 34.7565 221.235 34.8139 221.243C39.1136 221.669 43.353 222.571 47.4545 223.93C47.5468 223.97 47.6224 224.041 47.6687 224.13C47.715 224.22 47.7292 224.322 47.7088 224.421C47.6885 224.519 47.6348 224.608 47.5569 224.672C47.479 224.735 47.3815 224.77 47.2808 224.771V224.734Z" fill="white"/>
<path d="M214.04 229.478L87.744 302.406C85.7149 303.576 85.7149 305.477 87.744 306.656L261.258 406.556C262.398 407.133 263.658 407.434 264.937 407.434C266.215 407.434 267.475 407.133 268.615 406.556L394.912 333.61C396.95 332.44 396.95 330.539 394.912 329.36L221.398 229.478C220.258 228.901 218.997 228.601 217.719 228.601C216.441 228.601 215.181 228.901 214.04 229.478Z" fill="#E0E0E0"/>
<path d="M147.785 310.422C170.635 323.784 170.635 345.455 147.785 358.818C124.935 372.181 87.7897 372.181 64.9032 358.818C42.0166 345.455 42.0532 323.784 64.9032 310.422C87.7532 297.059 124.898 297.05 147.785 310.422Z" fill="#E0E0E0"/>
<path d="M44.1186 361.798C61.1282 374.265 79.0974 376.952 98.3919 377.848C111.188 378.433 123.984 377.564 136.67 376.285C142.346 375.709 148.004 375.032 153.652 374.338C159.758 373.579 165.854 372.793 172.015 372.985C176.512 373.122 181.31 373.607 185.514 375.663C189.582 377.647 192.315 381.787 190.724 386.403C189.954 388.384 188.766 390.177 187.242 391.658C182.434 396.731 176.493 400.204 173.057 406.593C171.887 408.787 170.954 412.324 172.207 414.472C175.278 419.718 185.917 419.709 190.733 419.517C204.142 418.968 212.24 416.885 221.288 413.567C235.19 408.457 246.186 400.771 256.212 393.029C259.192 390.726 262.354 388.633 265.352 386.293C265.855 385.891 266.102 387.079 265.736 387.399C260.938 391.631 255.618 395.131 250.737 399.208C246.192 402.984 241.259 406.268 236.022 409.006C225.602 414.49 219.305 417.497 206.875 420.129C203.776 420.787 196.409 421.738 193.247 421.957C187.971 422.433 182.658 422.286 177.416 421.519C174.254 421.007 169.958 419.078 168.752 415.578C167.381 411.611 168.752 407.708 170.9 404.271C173.07 401.032 175.72 398.141 178.76 395.698C180.807 393.87 184.162 391.073 185.77 388.88C191.848 380.553 183.028 376.824 175.899 376.02C170.361 375.5 164.783 375.589 159.264 376.285C153.78 376.952 148.013 377.93 142.556 378.542C130.087 380.1 117.53 380.86 104.964 380.818C98.8124 380.745 91.0068 380.233 84.7276 379.539C64.5557 377.327 48.2316 369.155 41.3949 360.92C40.6363 360.006 39.4755 358.124 40.0605 357.813C41.2551 359.293 42.6168 360.63 44.1186 361.798Z" fill="#035397"/>
<path d="M394.775 356.816C390.978 356.966 387.291 358.124 384.09 360.171C381.707 361.857 379.876 364.21 378.825 366.934C376.906 371.578 376.997 376.449 374.667 381.047C372.336 385.644 366.02 389.446 357.465 390.351C353.882 390.707 350.265 390.482 346.753 389.684C351.506 386.147 354.531 381.76 352.356 377.29C351.562 375.771 350.411 374.467 349.002 373.491C347.593 372.516 345.968 371.896 344.267 371.687C339.697 371.047 334.944 373.57 332.65 375.581C327.239 380.343 331.992 386.476 339.213 389.602C339.88 389.894 340.584 390.15 341.296 390.397C336.078 393.425 330.391 395.563 324.47 396.722C316.794 398.38 308.864 398.492 301.144 397.051C293.173 395.335 285.758 391.653 279.574 386.339C278.176 385.196 276.759 384.072 275.278 382.966C274.712 382.546 272.427 382.637 272.938 383.341C277.024 388.989 284.537 394.309 293.759 397.444C301.565 400.067 310.805 400.579 319.543 399.509C327.495 398.609 335.211 396.245 342.302 392.536C343.024 392.143 343.728 391.722 344.422 391.293C351.335 392.902 358.548 392.672 365.344 390.625C373.515 388.066 377.71 383.487 379.365 378.359C380.955 373.415 380.653 368.177 384.163 363.489C386.256 360.674 390.031 358.434 395.469 358.05C399.686 357.622 403.924 358.637 407.488 360.929C408.899 361.876 409.999 363.218 410.651 364.787C410.715 364.951 411.4 365.161 411.4 364.887C411.3 359.942 403.074 356.268 394.775 356.816ZM336.004 384.236C333.902 381.988 332.97 379.237 335.09 376.879C336.322 375.656 337.807 374.72 339.441 374.137C340.306 373.736 341.234 373.489 342.183 373.406C343.161 373.43 344.118 373.694 344.971 374.173C348.161 375.837 349.541 378.451 349.413 380.882C349.267 383.624 347.228 386.174 344.404 388.359C344.185 388.532 343.938 388.688 343.709 388.861C340.807 387.951 338.165 386.359 336.004 384.218V384.236Z" fill="#455A64"/>
<path d="M221.718 230.739L99.6258 295.058L97.1123 299.006V302.187C97.1364 303.01 97.3827 303.812 97.8252 304.507C98.2676 305.202 98.8898 305.765 99.6258 306.135L260.554 399.071C261.845 399.755 263.283 400.113 264.744 400.113C266.205 400.113 267.644 399.755 268.935 399.071L388.349 330.128V326.947L221.718 230.739Z" fill="#263238"/>
<path d="M264.749 396.932C263.284 396.954 261.838 396.595 260.554 395.89L99.626 302.954C98.8754 302.603 98.2405 302.045 97.7957 301.346C97.351 300.646 97.1147 299.835 97.1147 299.006C97.1147 298.177 97.351 297.366 97.7957 296.666C98.2405 295.967 98.8754 295.409 99.626 295.057L216.344 227.641L388.349 326.947L268.935 395.89C267.654 396.594 266.211 396.953 264.749 396.932Z" fill="#035397"/>
<path d="M216.344 218.309L100.905 284.958L99.7173 286.612V299.006C99.7501 299.363 99.8775 299.704 100.086 299.995C100.295 300.286 100.578 300.515 100.905 300.66L261.879 393.596C262.766 394.051 263.748 394.288 264.745 394.288C265.741 394.288 266.723 394.051 267.61 393.596L383.057 326.947V314.562L216.344 218.309Z" fill="#EBEBEB"/>
<path d="M383.066 314.562L381.622 315.394L362.858 326.243L359.366 328.263L267.619 381.211C266.731 381.662 265.749 381.896 264.754 381.896C263.758 381.896 262.776 381.662 261.888 381.211L100.896 288.266C99.3243 287.352 99.3243 285.863 100.896 284.949L102.432 284.035L216.344 218.309L381.631 313.73L381.979 313.941L383.066 314.562Z" fill="#F0F0F0"/>
<path d="M264.74 381.897V394.29C263.745 394.313 262.762 394.073 261.888 393.596L100.896 300.651C100.57 300.506 100.289 300.276 100.081 299.985C99.874 299.694 99.7483 299.353 99.7173 298.997V286.612C99.7529 286.967 99.8804 287.306 100.087 287.596C100.294 287.886 100.573 288.117 100.896 288.266L261.888 381.211C262.762 381.686 263.746 381.922 264.74 381.897Z" fill="#E0E0E0"/>
<path d="M383.066 312.908L362.273 324.909L359.019 326.737L267.619 379.511C266.731 379.962 265.75 380.196 264.754 380.196C263.758 380.196 262.776 379.962 261.888 379.511L117.723 296.328C116.425 295.615 115.219 294.911 114.067 294.235C108.199 290.661 104.671 287.471 102.405 284.062L102.13 283.642C101.948 283.385 101.824 283.092 101.765 282.782C101.666 282.131 101.821 281.466 102.196 280.924C102.572 280.382 103.14 280.004 103.785 279.867C107.563 278.766 111.208 277.248 114.652 275.342L114.798 275.26L216.344 216.618L383.066 312.908Z" fill="white"/>
<path opacity="0.1" d="M361.542 311.455C360.071 312.314 360.071 313.703 361.542 314.562C362.371 314.986 363.289 315.207 364.22 315.207C365.151 315.207 366.069 314.986 366.898 314.562C368.379 313.703 368.379 312.314 366.898 311.455C366.069 311.031 365.151 310.81 364.22 310.81C363.289 310.81 362.371 311.031 361.542 311.455Z" fill="black"/>
<path d="M378.744 301.419C376.705 300.24 374.174 300.423 371.541 301.922C367.511 304.261 364.01 309.48 362.493 314.946C363.13 315.151 363.8 315.231 364.467 315.184C365.865 310.312 368.964 305.724 372.538 303.64C373.527 303.03 374.657 302.684 375.819 302.635C376.497 302.631 377.165 302.804 377.756 303.137C379.475 304.134 380.498 306.556 380.498 309.773C380.5 310.304 380.469 310.835 380.407 311.363L382.281 312.442C382.415 311.558 382.482 310.666 382.482 309.773C382.454 305.824 381.138 302.781 378.744 301.419Z" fill="#263238"/>
<path d="M382.052 313.502C382.033 313.656 382.002 313.809 381.961 313.959L381.613 313.749L382.052 313.502Z" fill="#263238"/>
<path opacity="0.1" d="M345.419 302.141C343.947 303 343.947 304.389 345.419 305.239C346.246 305.663 347.162 305.884 348.092 305.884C349.022 305.884 349.938 305.663 350.765 305.239C352.255 304.389 352.255 303 350.765 302.141C349.938 301.717 349.022 301.497 348.092 301.497C347.162 301.497 346.246 301.717 345.419 302.141Z" fill="black"/>
<path d="M362.62 292.105C360.573 290.926 358.05 291.109 355.409 292.608C351.378 294.948 347.878 300.167 346.36 305.632C346.998 305.833 347.667 305.913 348.335 305.87C349.733 300.998 352.831 296.401 356.405 294.326C357.394 293.713 358.524 293.367 359.686 293.321C360.365 293.317 361.033 293.49 361.624 293.824C363.342 294.811 364.366 297.242 364.366 300.45C364.368 300.982 364.337 301.513 364.275 302.04L366.148 303.128C366.283 302.242 366.35 301.347 366.35 300.45C366.322 296.511 364.969 293.467 362.62 292.105Z" fill="#263238"/>
<path opacity="0.1" d="M329.278 292.827C327.806 293.677 327.806 295.067 329.278 295.926C330.107 296.349 331.025 296.57 331.956 296.57C332.887 296.57 333.805 296.349 334.634 295.926C336.115 295.067 336.115 293.677 334.634 292.827C333.805 292.404 332.887 292.183 331.956 292.183C331.025 292.183 330.107 292.404 329.278 292.827Z" fill="black"/>
<path d="M346.479 282.782C344.441 281.603 341.909 281.795 339.277 283.285C335.237 285.634 331.746 290.844 330.219 296.319C330.858 296.514 331.527 296.594 332.193 296.556C333.601 291.685 336.699 287.087 340.273 285.013C341.261 284.396 342.391 284.046 343.554 283.998C344.234 283.993 344.904 284.169 345.492 284.51C347.21 285.497 348.234 287.919 348.234 291.136C348.236 291.668 348.205 292.199 348.143 292.727L350.026 293.814C350.155 292.928 350.222 292.033 350.227 291.136C350.19 287.197 348.837 284.144 346.479 282.782Z" fill="#263238"/>
<path opacity="0.1" d="M313.146 283.514C311.674 284.364 311.674 285.753 313.146 286.612C313.975 287.036 314.893 287.257 315.824 287.257C316.755 287.257 317.673 287.036 318.502 286.612C319.982 285.753 319.982 284.364 318.502 283.514C317.673 283.09 316.755 282.869 315.824 282.869C314.893 282.869 313.975 283.09 313.146 283.514Z" fill="black"/>
<path d="M330.347 273.469C328.309 272.29 325.777 272.482 323.145 273.981C319.105 276.32 315.613 281.539 314.087 287.005C314.726 287.2 315.394 287.281 316.061 287.243C317.469 282.371 320.567 277.774 324.141 275.699C325.129 275.085 326.26 274.738 327.422 274.694C328.098 274.688 328.763 274.862 329.351 275.196C331.078 276.183 332.093 278.605 332.093 281.823C332.094 282.354 332.064 282.885 332.001 283.413L333.884 284.501C334.014 283.614 334.081 282.719 334.085 281.823C334.058 277.856 332.696 274.84 330.347 273.469Z" fill="#263238"/>
<path opacity="0.1" d="M297.05 274.2C295.578 275.059 295.578 276.448 297.05 277.308C297.877 277.731 298.794 277.952 299.723 277.952C300.653 277.952 301.569 277.731 302.397 277.308C303.887 276.448 303.887 275.059 302.397 274.2C301.568 273.782 300.652 273.564 299.723 273.564C298.795 273.564 297.879 273.782 297.05 274.2Z" fill="black"/>
<path d="M314.215 264.146C312.177 262.967 309.645 263.159 307.013 264.649C302.973 266.998 299.481 272.207 297.955 277.682C298.594 277.877 299.262 277.958 299.929 277.92C301.337 273.048 304.426 268.451 308.009 266.376C308.996 265.759 310.127 265.41 311.29 265.362C311.968 265.355 312.634 265.532 313.219 265.873C314.946 266.861 315.961 269.283 315.961 272.5C315.962 273.031 315.932 273.563 315.869 274.09L317.752 275.178C317.879 274.291 317.943 273.396 317.944 272.5C317.917 268.57 316.573 265.517 314.215 264.146Z" fill="#263238"/>
<path opacity="0.1" d="M280.872 264.877C279.401 265.736 279.401 267.126 280.872 267.985C281.701 268.408 282.619 268.629 283.55 268.629C284.481 268.629 285.399 268.408 286.228 267.985C287.709 267.126 287.709 265.736 286.228 264.877C285.399 264.454 284.481 264.233 283.55 264.233C282.619 264.233 281.701 264.454 280.872 264.877Z" fill="black"/>
<path d="M298.074 254.841C296.035 253.662 293.504 253.845 290.871 255.344C286.841 257.693 283.34 262.903 281.823 268.369C282.457 268.571 283.123 268.655 283.788 268.615C285.195 263.744 288.294 259.146 291.868 257.063C292.857 256.452 293.987 256.106 295.149 256.057C295.828 256.053 296.495 256.227 297.087 256.56C298.805 257.556 299.829 259.978 299.829 263.195C299.83 263.727 299.799 264.258 299.737 264.786L301.565 265.873C301.699 264.987 301.766 264.092 301.766 263.195C301.785 259.247 300.432 256.203 298.074 254.841Z" fill="#263238"/>
<path opacity="0.1" d="M264.74 255.564C263.278 256.423 263.278 257.812 264.74 258.671C265.569 259.095 266.487 259.316 267.418 259.316C268.349 259.316 269.267 259.095 270.096 258.671C271.577 257.812 271.577 256.423 270.096 255.564C269.267 255.14 268.349 254.919 267.418 254.919C266.487 254.919 265.569 255.14 264.74 255.564Z" fill="black"/>
<path d="M281.941 245.528C279.903 244.349 277.371 244.532 274.739 246.031C270.708 248.37 267.208 253.589 265.69 259.055C266.324 259.26 266.991 259.34 267.656 259.293C269.063 254.421 272.162 249.833 275.735 247.749C276.726 247.14 277.855 246.794 279.017 246.743C279.695 246.74 280.363 246.913 280.954 247.246C282.673 248.242 283.696 250.664 283.696 253.882C283.698 254.413 283.667 254.944 283.605 255.472L285.479 256.56C285.613 255.673 285.68 254.778 285.68 253.882C285.652 249.933 284.299 246.89 281.941 245.528Z" fill="#263238"/>
<path opacity="0.1" d="M248.608 246.25C247.137 247.109 247.137 248.498 248.608 249.357C249.437 249.781 250.355 250.002 251.286 250.002C252.217 250.002 253.135 249.781 253.964 249.357C255.445 248.498 255.445 247.109 253.964 246.25C253.135 245.826 252.217 245.605 251.286 245.605C250.355 245.605 249.437 245.826 248.608 246.25Z" fill="black"/>
<path d="M265.809 236.214C263.771 235.035 261.239 235.218 258.607 236.717C254.567 239.057 251.076 244.276 249.549 249.741C250.186 249.945 250.856 250.026 251.524 249.979C252.931 245.107 256.02 240.519 259.603 238.435C260.593 237.825 261.723 237.479 262.885 237.43C263.56 237.426 264.225 237.599 264.813 237.932C266.541 238.929 267.555 241.351 267.555 244.568C267.557 245.1 267.526 245.631 267.464 246.158L269.347 247.246C269.476 246.359 269.543 245.464 269.548 244.568C269.52 240.62 268.168 237.576 265.809 236.214Z" fill="#263238"/>
<path opacity="0.1" d="M232.476 236.936C231.004 237.786 231.004 239.185 232.476 240.035C233.305 240.458 234.223 240.679 235.154 240.679C236.085 240.679 237.003 240.458 237.832 240.035C239.312 239.185 239.312 237.786 237.832 236.936C237.003 236.513 236.085 236.292 235.154 236.292C234.223 236.292 233.305 236.513 232.476 236.936Z" fill="black"/>
<path d="M249.677 226.901C247.639 225.721 245.107 225.904 242.475 227.403C238.435 229.743 234.943 234.962 233.417 240.428C234.055 240.627 234.724 240.707 235.391 240.665C236.799 235.794 239.897 231.196 243.471 229.122C244.459 228.507 245.59 228.161 246.752 228.116C247.428 228.111 248.093 228.284 248.681 228.619C250.408 229.606 251.423 232.037 251.423 235.254C251.424 235.783 251.394 236.311 251.331 236.836L253.214 237.923C253.344 237.04 253.411 236.148 253.415 235.254C253.388 231.306 252.035 228.262 249.677 226.901Z" fill="#263238"/>
<path opacity="0.1" d="M216.344 227.586C214.872 228.445 214.872 229.834 216.344 230.684C217.171 231.108 218.088 231.329 219.017 231.329C219.947 231.329 220.863 231.108 221.691 230.684C223.181 229.834 223.181 228.445 221.691 227.586C220.863 227.162 219.947 226.942 219.017 226.942C218.088 226.942 217.171 227.162 216.344 227.586Z" fill="black"/>
<path d="M233.545 217.587C231.498 216.408 228.975 216.591 226.343 218.09C222.303 220.429 218.812 225.648 217.285 231.114C217.923 231.313 218.592 231.393 219.259 231.352C220.658 226.48 223.756 221.883 227.33 219.808C228.321 219.194 229.455 218.847 230.62 218.802C231.296 218.8 231.961 218.973 232.549 219.305C234.267 220.301 235.291 222.724 235.291 225.941C235.292 226.469 235.262 226.997 235.2 227.522L237.073 228.61C237.207 227.726 237.275 226.834 237.274 225.941C237.247 221.992 235.894 218.949 233.545 217.587Z" fill="#263238"/>
<path d="M263.625 373.579C262.87 373.587 262.127 373.398 261.468 373.031L251.679 367.428C251.379 367.292 251.121 367.078 250.933 366.807C250.744 366.537 250.633 366.221 250.609 365.892C250.619 365.624 250.701 365.363 250.848 365.137C250.994 364.912 251.199 364.731 251.441 364.613L344.038 311.126C344.65 310.842 345.319 310.706 345.993 310.73C346.666 310.754 347.324 310.936 347.914 311.263L357.703 316.92C358.005 317.055 358.264 317.269 358.454 317.539C358.644 317.81 358.757 318.126 358.781 318.456C358.77 318.725 358.686 318.987 358.538 319.212C358.39 319.437 358.183 319.618 357.94 319.735L265.343 373.177C264.815 373.458 264.223 373.597 263.625 373.579ZM345.748 311.72C345.329 311.706 344.913 311.801 344.541 311.994L251.944 365.435C251.816 365.509 251.606 365.655 251.606 365.847C251.606 366.039 251.761 366.276 252.181 366.523L261.97 372.172C262.408 372.412 262.895 372.55 263.394 372.573C263.893 372.597 264.391 372.507 264.849 372.309L357.447 318.867C357.566 318.794 357.776 318.648 357.776 318.456C357.776 318.264 357.63 318.026 357.2 317.78L347.411 312.131C346.899 311.858 346.328 311.717 345.748 311.72Z" fill="#E0E0E0"/>
<path d="M353.839 315.528L257.678 370.793L258.176 371.66L354.337 316.395L353.839 315.528Z" fill="#E0E0E0"/>
<path d="M242.813 361.56C242.06 361.566 241.318 361.381 240.656 361.021L113.272 287.471C112.97 287.337 112.71 287.123 112.521 286.852C112.331 286.582 112.218 286.265 112.193 285.936C112.205 285.666 112.289 285.405 112.437 285.18C112.585 284.954 112.791 284.773 113.034 284.656L205.65 231.242C206.261 230.955 206.931 230.818 207.605 230.844C208.28 230.869 208.938 231.056 209.525 231.388L336.909 304.929C337.211 305.063 337.471 305.277 337.661 305.547C337.851 305.818 337.964 306.135 337.988 306.464C337.977 306.734 337.893 306.995 337.744 307.22C337.596 307.446 337.39 307.627 337.147 307.744L244.531 361.158C244.003 361.439 243.411 361.578 242.813 361.56ZM207.341 231.772C206.919 231.76 206.501 231.854 206.125 232.046L113.528 285.524C113.409 285.598 113.199 285.744 113.199 285.936C113.199 286.128 113.345 286.365 113.775 286.612L241.159 360.116C241.594 360.359 242.08 360.498 242.578 360.522C243.076 360.545 243.572 360.453 244.029 360.253L336.635 306.811C336.754 306.738 336.964 306.592 336.964 306.4C336.964 306.208 336.809 305.98 336.388 305.733L209.004 232.22C208.492 231.947 207.921 231.806 207.341 231.809V231.772Z" fill="#E0E0E0"/>
<path d="M331.602 302.13L235.88 357.395L236.378 358.257L332.1 302.992L331.602 302.13Z" fill="#E0E0E0"/>
<path d="M325.049 298.336L229.327 353.601L229.825 354.464L325.547 299.199L325.049 298.336Z" fill="#E0E0E0"/>
<path d="M318.484 294.54L222.762 349.805L223.26 350.667L318.982 295.402L318.484 294.54Z" fill="#E0E0E0"/>
<path d="M311.931 290.764L216.209 346.029L216.707 346.892L312.429 291.627L311.931 290.764Z" fill="#E0E0E0"/>
<path d="M305.359 287.023L209.627 342.271L210.125 343.134L305.857 287.886L305.359 287.023Z" fill="#E0E0E0"/>
<path d="M298.809 283.196L203.087 338.461L203.586 339.324L299.307 284.059L298.809 283.196Z" fill="#E0E0E0"/>
<path d="M292.242 279.422L196.521 334.687L197.019 335.55L292.74 280.285L292.242 279.422Z" fill="#E0E0E0"/>
<path d="M285.691 275.624L189.969 330.889L190.467 331.752L286.189 276.487L285.691 275.624Z" fill="#E0E0E0"/>
<path d="M279.138 271.84L183.417 327.105L183.915 327.968L279.636 272.703L279.138 271.84Z" fill="#E0E0E0"/>
<path d="M272.564 268.061L176.842 323.326L177.34 324.189L273.062 268.924L272.564 268.061Z" fill="#E0E0E0"/>
<path d="M266.009 264.298L170.277 319.546L170.775 320.409L266.507 265.161L266.009 264.298Z" fill="#E0E0E0"/>
<path d="M259.46 260.479L163.738 315.744L164.236 316.607L259.958 261.342L259.46 260.479Z" fill="#E0E0E0"/>
<path d="M252.906 256.686L157.185 311.951L157.683 312.813L253.405 257.548L252.906 256.686Z" fill="#E0E0E0"/>
<path d="M246.332 252.916L150.61 308.181L151.108 309.044L246.83 253.779L246.332 252.916Z" fill="#E0E0E0"/>
<path d="M239.78 249.118L144.059 304.383L144.557 305.246L240.279 249.981L239.78 249.118Z" fill="#E0E0E0"/>
<path d="M233.228 245.334L137.506 300.599L138.004 301.462L233.726 246.197L233.228 245.334Z" fill="#E0E0E0"/>
<path d="M226.667 241.545L130.945 296.81L131.443 297.673L227.165 242.408L226.667 241.545Z" fill="#E0E0E0"/>
<path d="M220.098 237.792L124.367 293.041L124.865 293.903L220.596 238.655L220.098 237.792Z" fill="#E0E0E0"/>
<path d="M213.549 233.973L117.827 289.238L118.325 290.101L214.047 234.836L213.549 233.973Z" fill="#E0E0E0"/>
<path d="M333.61 309.682C333.52 309.68 333.432 309.654 333.354 309.608L202.351 233.984C202.292 233.953 202.24 233.91 202.199 233.858C202.157 233.806 202.127 233.745 202.11 233.681C202.093 233.617 202.089 233.55 202.099 233.484C202.109 233.418 202.133 233.355 202.168 233.299C202.2 233.242 202.243 233.192 202.295 233.152C202.346 233.113 202.405 233.083 202.468 233.066C202.531 233.049 202.597 233.045 202.661 233.053C202.726 233.062 202.788 233.083 202.844 233.116L333.848 308.749C333.905 308.781 333.954 308.825 333.994 308.876C334.034 308.928 334.063 308.986 334.08 309.049C334.097 309.112 334.102 309.178 334.093 309.242C334.085 309.307 334.063 309.369 334.031 309.426C333.99 309.502 333.929 309.566 333.855 309.611C333.782 309.656 333.697 309.68 333.61 309.682Z" fill="#035397"/>
<path d="M270.26 208.931C266.723 206.436 267.043 202.935 270.973 201.126C273.168 200.252 275.538 199.91 277.89 200.126C280.243 200.342 282.511 201.11 284.51 202.369C288.047 204.873 287.718 208.365 283.788 210.183C281.593 211.053 279.225 211.393 276.874 211.176C274.524 210.958 272.258 210.189 270.26 208.931Z" fill="#263238"/>
<path d="M286.255 208.291L284.711 208.145C284.33 207.262 283.694 206.514 282.883 205.997C281.263 204.979 279.426 204.356 277.52 204.18C275.614 204.004 273.694 204.279 271.915 204.983C271.03 205.349 270.273 205.969 269.739 206.765L268.195 206.628L269.712 209.608C270.107 210.3 270.658 210.892 271.321 211.335C272.942 212.35 274.779 212.97 276.684 213.146C278.589 213.322 280.508 213.049 282.289 212.35C283.018 212.031 283.665 211.549 284.181 210.942L286.255 208.291Z" fill="#263238"/>
<path d="M267.254 206.116C262.025 202.405 262.519 197.232 268.341 194.572C274.163 191.913 283.121 192.744 288.349 196.464C293.577 200.184 293.074 205.348 287.252 208.008C281.43 210.668 272.472 209.827 267.254 206.116Z" fill="#455A64"/>
<path d="M267.052 204.206C261.642 200.358 262.153 195.002 268.195 192.232C274.236 189.463 283.523 190.35 288.934 194.197C294.344 198.045 293.842 203.411 287.8 206.171C281.759 208.931 272.472 208.063 267.052 204.206Z" fill="#37474F"/>
<path d="M266.989 202.104C261.441 198.155 261.962 192.653 268.159 189.82C274.356 186.986 283.87 187.891 289.427 191.839C294.984 195.788 294.454 201.281 288.257 204.114C282.061 206.948 272.546 206.043 266.989 202.104Z" fill="#455A64"/>
<path d="M266.888 199.992C261.203 195.943 261.733 190.313 268.086 187.407C274.438 184.5 284.19 185.423 289.875 189.472C295.56 193.521 295.03 199.151 288.687 202.058C282.344 204.964 272.619 204.032 266.888 199.992Z" fill="#37474F"/>
<path d="M266.888 197.881C261.066 193.731 261.614 187.964 268.113 184.994C274.612 182.023 284.565 182.964 290.433 187.105C296.301 191.245 295.707 197.022 289.208 199.992C282.71 202.963 272.692 201.994 266.888 197.881Z" fill="#455A64"/>
<path d="M266.797 195.77C260.837 191.529 261.395 185.624 268.049 182.581C274.703 179.537 284.93 180.506 290.899 184.747C296.867 188.988 296.301 194.883 289.647 197.936C282.993 200.989 272.756 200.011 266.797 195.77Z" fill="#37474F"/>
<path d="M296.539 183.504C296.767 181.009 295.35 178.358 292.234 176.146C285.991 171.704 275.288 170.662 268.333 173.879C264.85 175.47 262.958 177.81 262.73 180.277C262.638 181.246 262.273 185.048 262.181 186.017C261.944 188.522 263.36 191.172 266.486 193.384C272.729 197.826 283.432 198.868 290.397 195.651C293.87 194.06 295.762 191.721 295.99 189.253C296.082 188.284 296.447 184.482 296.539 183.504Z" fill="#035397"/>
<path d="M290.57 66.5117C283.892 65.8768 277.155 66.5635 270.743 68.5328C264.331 70.502 258.37 73.7152 253.2 77.9888C248.03 82.2623 243.753 87.5125 240.613 93.4395C237.472 99.3665 235.531 105.854 234.898 112.532C231.068 152.885 263.735 162.747 262.19 179.007C261.952 181.603 263.415 184.354 266.65 186.657C273.131 191.227 284.236 192.315 291.456 189.006C295.112 187.352 297.023 184.92 297.269 182.334C298.814 166.065 332.751 162.518 336.571 122.165C337.849 108.685 333.72 95.2501 325.094 84.8136C316.467 74.3771 304.049 67.794 290.57 66.5117Z" fill="#035397"/>
<g style="mix-blend-mode:screen" opacity="0.9">
<path d="M290.57 66.5117C283.892 65.8768 277.155 66.5635 270.743 68.5328C264.331 70.502 258.37 73.7152 253.2 77.9888C248.03 82.2623 243.753 87.5125 240.613 93.4395C237.472 99.3665 235.531 105.854 234.898 112.532C231.068 152.885 263.735 162.747 262.19 179.007C261.952 181.603 263.415 184.354 266.65 186.657C273.131 191.227 284.236 192.315 291.456 189.006C295.112 187.352 297.023 184.92 297.269 182.334C298.814 166.065 332.751 162.518 336.571 122.165C337.849 108.685 333.72 95.2501 325.094 84.8136C316.467 74.3771 304.049 67.794 290.57 66.5117Z" fill="white"/>
</g>
<path d="M268.807 185.761C263.387 181.913 263.899 176.557 269.941 173.788C275.982 171.018 285.268 171.905 290.679 175.753C296.09 179.601 295.587 184.966 289.546 187.736C283.504 190.505 274.2 189.618 268.807 185.761Z" fill="#035397"/>
<path opacity="0.55" d="M268.807 185.761C263.387 181.913 263.899 176.557 269.941 173.788C275.982 171.018 285.268 171.905 290.679 175.753C296.09 179.601 295.587 184.966 289.546 187.736C283.504 190.505 274.2 189.618 268.807 185.761Z" fill="white"/>
<path opacity="0.25" d="M292.206 186.072C291.401 186.748 290.506 187.308 289.546 187.736C283.504 190.478 274.218 189.618 268.807 185.77C267.948 185.17 267.176 184.453 266.513 183.641C267.313 182.963 268.206 182.403 269.164 181.977C275.205 179.235 284.501 180.085 289.912 183.942C290.773 184.54 291.546 185.257 292.206 186.072Z" fill="#035397"/>
<path d="M292.206 186.072C291.401 186.748 290.506 187.308 289.546 187.736C283.504 190.478 274.218 189.618 268.807 185.77C267.948 185.17 267.176 184.453 266.513 183.641C267.313 182.963 268.206 182.403 269.164 181.977C275.205 179.235 284.501 180.085 289.912 183.942C290.773 184.54 291.546 185.257 292.206 186.072Z" fill="#035397"/>
<path opacity="0.35" d="M292.206 186.072C291.401 186.748 290.506 187.308 289.546 187.736C283.504 190.478 274.218 189.618 268.807 185.77C267.948 185.17 267.176 184.453 266.513 183.641C267.313 182.963 268.206 182.403 269.164 181.977C275.205 179.235 284.501 180.085 289.912 183.942C290.773 184.54 291.546 185.257 292.206 186.072Z" fill="white"/>
<path opacity="0.35" d="M327.998 97.0302C325.256 91.9026 320.686 87.488 314.489 89.4805C313.823 89.6999 313.19 90.0073 312.606 90.3945C311.554 91.1468 310.713 92.1578 310.166 93.3298C309.618 94.5018 309.382 95.7952 309.48 97.085C309.736 102.075 314.178 105.585 316.555 109.671C319.168 114.149 320.968 119.053 321.874 124.158C322.082 126.003 322.48 127.823 323.062 129.587C323.462 130.494 324.185 131.22 325.091 131.624C325.996 132.028 327.019 132.08 327.961 131.771C330.036 130.912 331.297 128.536 331.754 126.625C334.524 115.255 332.961 106.435 327.998 97.0302ZM325.384 134.852C324.48 134.732 323.563 134.911 322.771 135.362C321.979 135.812 321.356 136.509 320.997 137.347C320.692 138.073 320.544 138.855 320.561 139.642C320.579 140.43 320.761 141.205 321.097 141.917C321.49 142.682 322.169 143.262 322.987 143.531C323.805 143.8 324.695 143.735 325.466 143.352C326.247 142.947 326.915 142.354 327.41 141.626C327.904 140.898 328.21 140.059 328.299 139.184C328.455 137.347 327.44 135.272 325.384 134.852Z" fill="white"/>
<path d="M285.168 186.392L284.583 186.337C286.292 168.249 288.422 157.007 291.694 148.763C292.527 146.633 293.559 144.585 294.774 142.648C290.692 140.844 287.038 138.197 284.053 134.879C280.502 137.58 276.418 139.496 272.071 140.5C272.907 142.628 273.535 144.832 273.944 147.081C275.617 155.791 275.589 167.235 273.88 185.323L273.286 185.268C274.995 167.235 275.023 155.846 273.368 147.191C272.952 144.94 272.315 142.736 271.467 140.61C270.896 140.717 270.319 140.79 269.74 140.829C263.735 141.259 260.454 139.23 259.384 137.173C259.019 136.479 258.873 135.691 258.966 134.912C259.059 134.133 259.386 133.401 259.905 132.813C260.412 132.213 261.086 131.778 261.842 131.564C262.598 131.351 263.401 131.369 264.146 131.616C266.678 132.247 269.694 134.778 271.897 139.943C276.19 138.984 280.227 137.114 283.733 134.459C283.165 133.783 282.663 133.055 282.234 132.283C279.867 127.823 280.406 124.194 281.64 122.293C282.045 121.655 282.619 121.142 283.298 120.81C283.977 120.478 284.734 120.34 285.486 120.412C286.239 120.484 286.956 120.763 287.56 121.218C288.163 121.672 288.63 122.285 288.906 122.988C289.82 125.09 289.619 128.746 286.448 132.685C285.881 133.355 285.251 133.967 284.565 134.513C287.509 137.787 291.121 140.389 295.158 142.145C298.293 137.493 301.73 135.574 304.298 135.427C305.069 135.335 305.849 135.472 306.542 135.822C307.235 136.172 307.809 136.718 308.192 137.392C308.591 138.069 308.775 138.851 308.719 139.634C308.664 140.418 308.371 141.166 307.881 141.78C306.446 143.608 302.836 144.96 297.023 143.416C296.474 143.269 295.926 143.087 295.368 142.876C294.133 144.803 293.095 146.848 292.27 148.982C289.025 157.208 286.905 168.359 285.168 186.392ZM295.688 142.374C296.182 142.557 296.675 142.712 297.16 142.84C302.699 144.311 306.081 143.068 307.397 141.405C307.818 140.885 308.069 140.247 308.113 139.58C308.157 138.912 307.993 138.247 307.643 137.676C307.316 137.1 306.825 136.635 306.232 136.339C305.64 136.043 304.973 135.929 304.317 136.012C302.013 136.186 298.741 138.014 295.716 142.374H295.688ZM263.278 132.073C262.741 132 262.194 132.065 261.689 132.262C261.183 132.459 260.736 132.78 260.39 133.197C259.94 133.693 259.655 134.316 259.573 134.98C259.491 135.645 259.617 136.318 259.933 136.908C260.911 138.782 264.009 140.646 269.722 140.244C270.236 140.206 270.749 140.142 271.257 140.052C269.109 135.162 266.239 132.74 263.945 132.192C263.726 132.137 263.503 132.097 263.278 132.073ZM285.406 120.968C284.759 120.902 284.106 121.019 283.522 121.307C282.939 121.595 282.448 122.041 282.106 122.595C280.635 124.807 280.882 128.49 282.737 131.982C283.143 132.721 283.62 133.419 284.163 134.066C284.833 133.52 285.445 132.907 285.991 132.238C288.468 129.157 289.4 125.593 288.367 123.143C288.129 122.538 287.725 122.013 287.201 121.628C286.677 121.243 286.054 121.014 285.406 120.968Z" fill="#455A64"/>
<path d="M290.268 55.1325C290.067 55.1186 289.869 55.0649 289.688 54.9746C289.507 54.8843 289.346 54.7591 289.214 54.6063C289.081 54.4534 288.98 54.2758 288.916 54.0838C288.853 53.8918 288.828 53.689 288.843 53.4873L289.903 38.2418C289.917 38.0401 289.971 37.8433 290.062 37.6625C290.152 37.4817 290.277 37.3205 290.43 37.1881C290.583 37.0557 290.76 36.9547 290.952 36.8908C291.144 36.827 291.346 36.8015 291.548 36.8159C291.75 36.8303 291.946 36.8843 292.127 36.9748C292.308 37.0653 292.469 37.1905 292.602 37.3432C292.734 37.496 292.835 37.6733 292.899 37.8652C292.963 38.057 292.988 38.2595 292.974 38.4611L291.914 53.7066C291.883 54.1134 291.693 54.4915 291.385 54.7587C291.077 55.0258 290.675 55.1602 290.268 55.1325Z" fill="#F0F0F0"/>
<path d="M321.893 66.1371C321.621 66.1155 321.36 66.0242 321.134 65.872C320.966 65.7598 320.823 65.6155 320.711 65.4475C320.6 65.2794 320.522 65.091 320.484 64.8929C320.446 64.6949 320.447 64.4913 320.488 64.2938C320.529 64.0963 320.609 63.9089 320.723 63.7424L329.269 51.0743C329.367 50.8793 329.507 50.7076 329.677 50.5707C329.847 50.4338 330.045 50.3349 330.257 50.2806C330.469 50.2262 330.689 50.2177 330.905 50.2556C331.12 50.2935 331.325 50.3769 331.505 50.5003C331.686 50.6236 331.838 50.7841 331.951 50.9709C332.064 51.1578 332.137 51.3667 332.163 51.5837C332.189 51.8007 332.169 52.0208 332.103 52.2293C332.037 52.4378 331.928 52.6299 331.782 52.7926L323.236 65.4607C323.088 65.678 322.887 65.854 322.652 65.9723C322.417 66.0906 322.155 66.1473 321.893 66.1371Z" fill="#F0F0F0"/>
<path d="M343.774 91.4731C343.435 91.4511 343.113 91.3175 342.859 91.0933C342.604 90.8691 342.431 90.5668 342.366 90.2338C342.301 89.9007 342.349 89.5556 342.501 89.2523C342.653 88.949 342.901 88.7047 343.207 88.5574L356.917 81.8578C357.273 81.7284 357.664 81.7352 358.016 81.8769C358.367 82.0185 358.654 82.2851 358.82 82.6253C358.987 82.9655 359.022 83.3554 358.919 83.7198C358.816 84.0843 358.581 84.3977 358.261 84.5998L344.551 91.2903C344.313 91.4203 344.044 91.4835 343.774 91.4731Z" fill="#F0F0F0"/>
<path d="M365.298 125.428L350.062 124.359C349.857 124.35 349.655 124.3 349.47 124.212C349.284 124.124 349.118 124 348.981 123.847C348.845 123.694 348.74 123.514 348.674 123.32C348.608 123.126 348.581 122.92 348.596 122.715C348.61 122.51 348.666 122.31 348.759 122.127C348.853 121.944 348.982 121.782 349.139 121.65C349.296 121.517 349.478 121.418 349.674 121.357C349.871 121.297 350.077 121.276 350.281 121.297L365.527 122.357C365.934 122.386 366.313 122.576 366.581 122.884C366.848 123.193 366.982 123.595 366.953 124.002C366.924 124.41 366.734 124.789 366.425 125.056C366.117 125.323 365.715 125.457 365.308 125.428H365.298Z" fill="#F0F0F0"/>
<path d="M351.716 164.52C351.449 164.5 351.191 164.412 350.967 164.264L338.299 155.718C337.961 155.49 337.727 155.137 337.649 154.737C337.571 154.337 337.655 153.922 337.883 153.584C338.111 153.246 338.464 153.012 338.864 152.934C339.264 152.856 339.679 152.94 340.017 153.168L352.685 161.714C352.966 161.903 353.177 162.179 353.285 162.501C353.393 162.822 353.391 163.17 353.28 163.49C353.17 163.81 352.957 164.085 352.674 164.271C352.391 164.457 352.054 164.545 351.716 164.52Z" fill="#F0F0F0"/>
<path d="M213.584 154.466C213.245 154.444 212.923 154.31 212.669 154.086C212.414 153.862 212.241 153.56 212.176 153.227C212.111 152.894 212.159 152.549 212.311 152.245C212.463 151.942 212.711 151.698 213.017 151.55L226.727 144.851C226.909 144.736 227.114 144.661 227.327 144.63C227.54 144.599 227.758 144.614 227.965 144.672C228.172 144.731 228.365 144.833 228.53 144.971C228.696 145.109 228.83 145.28 228.925 145.474C229.02 145.667 229.073 145.879 229.081 146.094C229.088 146.309 229.051 146.524 228.97 146.724C228.89 146.924 228.768 147.104 228.613 147.254C228.458 147.404 228.273 147.519 228.071 147.593L214.361 154.292C214.121 154.417 213.853 154.477 213.584 154.466Z" fill="#F0F0F0"/>
<path d="M221.033 114.917L205.787 113.848C205.582 113.839 205.381 113.789 205.195 113.701C205.009 113.613 204.843 113.489 204.707 113.336C204.57 113.183 204.465 113.003 204.399 112.809C204.333 112.615 204.306 112.409 204.321 112.204C204.335 111.999 204.391 111.799 204.484 111.616C204.578 111.433 204.707 111.271 204.864 111.139C205.021 111.006 205.203 110.907 205.399 110.846C205.596 110.786 205.802 110.765 206.007 110.786L221.252 111.846C221.659 111.875 222.038 112.065 222.306 112.373C222.573 112.682 222.707 113.084 222.678 113.491C222.649 113.899 222.459 114.278 222.151 114.545C221.842 114.812 221.44 114.946 221.033 114.917Z" fill="#F0F0F0"/>
<path d="M232.037 83.2928C231.769 83.2745 231.511 83.1863 231.288 83.0369L218.62 74.491C218.452 74.3782 218.309 74.2335 218.197 74.0651C218.086 73.8968 218.008 73.7082 217.97 73.51C217.931 73.3118 217.932 73.108 217.972 72.9101C218.012 72.7123 218.091 72.5242 218.204 72.3568C218.317 72.1894 218.461 72.0458 218.63 71.9343C218.798 71.8227 218.987 71.7455 219.185 71.7068C219.383 71.6682 219.587 71.669 219.785 71.7092C219.983 71.7494 220.171 71.8281 220.338 71.9409L233.006 80.4868C233.287 80.6757 233.498 80.9523 233.606 81.2735C233.713 81.5946 233.712 81.9424 233.601 82.2626C233.491 82.5827 233.277 82.8574 232.994 83.0437C232.712 83.2301 232.375 83.3176 232.037 83.2928Z" fill="#F0F0F0"/>
<path d="M257.383 61.4116C257.113 61.393 256.853 61.3038 256.628 61.153C256.403 61.0022 256.222 60.7951 256.103 60.5524L249.403 46.8424C249.274 46.4864 249.281 46.095 249.422 45.7437C249.564 45.3923 249.831 45.1057 250.171 44.939C250.511 44.7723 250.901 44.7372 251.265 44.8406C251.63 44.9439 251.943 45.1784 252.145 45.4989L258.845 59.2089C258.934 59.3906 258.986 59.5881 258.998 59.79C259.01 59.9919 258.982 60.1941 258.916 60.3852C258.85 60.5763 258.746 60.7524 258.612 60.9035C258.477 61.0545 258.314 61.1775 258.132 61.2654C257.9 61.3792 257.641 61.4296 257.383 61.4116Z" fill="#F0F0F0"/>
<path d="M97.4777 337.778C98.1449 334.935 95.3298 333.144 93.9953 331.508C91.9388 328.985 91.2533 323.108 91.3264 320.11C91.3264 316.363 90.8969 313.712 93.2276 310.312C95.9696 306.3 99.8266 301.611 112.677 290.131L96.8836 274.2C93.5749 279.392 85.2209 297.589 85.2209 297.589L84.6725 298.713C83.2863 300.573 81.5997 302.189 79.6821 303.494L78.7681 303.942C77.26 304.965 73.4212 306.062 73.4852 309.654C73.5491 313.246 74.9476 314.124 76.5745 317.057C77.8487 318.941 78.489 321.183 78.4025 323.455C78.4573 326.344 78.3385 329.561 78.3111 332.148C78.3111 334.323 80.2945 337.476 84.4806 338.893C90.6135 340.995 96.8196 340.566 97.4777 337.778Z" fill="#FFBDA7"/>
<path d="M71.2922 309.782C69.477 312.224 67.9439 314.864 66.7222 317.652L70.9266 323.538L74.4546 317.597C72.8918 315.228 71.8167 312.571 71.2922 309.782Z" fill="#263238"/>
<path d="M70.9448 323.556L76.7213 323.154C76.9897 321.939 76.7837 320.667 76.1455 319.598C75.7134 318.841 75.1466 318.169 74.4729 317.615L70.9448 323.556Z" fill="black"/>
<path d="M72.4712 308.448C72.025 308.774 71.6463 309.184 71.3561 309.654C71.1589 311.753 71.5916 313.862 72.5991 315.714C73.7965 317.542 75.7524 319.37 76.2551 321.947C76.7578 324.525 75.725 330.365 76.7396 333.921C77.7541 337.476 81.1907 341.553 88.6764 342.512C94.0233 343.198 96.0432 342.183 97.8164 341.068C98.4653 338.756 98.4014 338.153 95.4766 336.206C92.5518 334.259 72.4712 308.448 72.4712 308.448Z" fill="#263238"/>
<path d="M82.4428 299.052C80.039 301.903 79.1799 303 76.9588 304.28C74.2808 305.834 73.7324 306.455 72.4528 308.448C71.9136 311.537 72.5351 312.807 75.3685 316.756C77.3153 319.452 77.946 321.225 77.8911 324.936C77.8271 329.424 76.3008 333.519 81.7665 338.107C86.0257 341.69 95.3485 341.927 97.8712 339.441C100.037 333.318 94.2791 333.637 92.9721 327.139C92.2501 323.547 92.1861 318.118 93.3103 314.526C93.8052 312.908 94.4382 311.337 95.2023 309.828C96.1163 308.301 96.8932 307.186 96.1711 306.391L94.8093 308.064C93.4565 308.356 90.1753 307.652 88.0091 305.907C82.7993 301.721 84.6182 298.741 84.6182 298.741L85.1666 297.617C84.6547 296.986 83.8047 297.434 82.4428 299.052Z" fill="#37474F"/>
<path d="M140.372 156.047C141.688 164.895 145.948 175.991 148.315 196.93C150.536 216.581 151.523 226.827 150.143 236.589C149.649 240.071 147.849 244.148 144.43 249.303C133.709 265.435 112.614 290.835 112.614 290.835C112.614 290.835 107.825 290.753 102.03 286.137C100.369 284.775 98.9966 283.096 97.9936 281.196C96.9907 279.297 96.3773 277.217 96.1895 275.077C96.1895 275.077 96.747 271.421 105.595 256.523C111.043 247.013 114.443 236.468 115.575 225.566L109.808 162.5C123.518 163.706 133.965 161.193 140.372 156.047Z" fill="#263238"/>
<path d="M102.003 286.137C100.342 284.775 98.9692 283.096 97.9663 281.197C96.9633 279.297 96.3499 277.217 96.1621 275.077C96.1621 275.077 96.7196 271.421 105.567 256.523C111.016 247.013 114.416 236.468 115.548 225.566L111.133 177.316C121.882 175.653 136.872 175.79 136.872 175.79C137.155 182.699 135.629 191.254 125.675 196.409C125.675 196.409 127.503 230.374 127.741 240.281C127.914 247.868 125.712 267.171 124.651 275.927C117.952 284.409 112.587 290.871 112.587 290.871C112.587 290.871 107.797 290.753 102.003 286.137Z" fill="black"/>
<path d="M120.209 322.477L120.273 320.951L121.772 289.93L99.9458 295.414L104.799 320.284L104.964 321.573C104.964 321.573 105.192 327.898 114.945 328.254C119.935 328.409 120.209 322.477 120.209 322.477Z" fill="#FFBDA7"/>
<path d="M108.419 350.757L115.996 347.951L116.234 340.748L108.529 343.655L108.419 350.757Z" fill="black"/>
<path d="M101.052 334.615C100.741 337.266 102.88 347.411 102.88 347.411L108.364 350.747L108.474 343.646C108.474 343.646 110 344.953 111.618 348.709C113.144 352.256 115.274 355.665 118.838 357.456C122.403 359.248 128.664 359.988 133.947 359.284C137.703 358.8 140.016 357.191 140.646 356.241C140.832 355.761 140.907 355.245 140.866 354.732L101.052 334.615Z" fill="#263238"/>
<path d="M120.273 320.951C121.315 320.869 121.187 321.865 122.513 327.806C123.427 332.257 125.556 339.926 133.645 344.98C136.981 347.064 141.597 348.38 140.957 354.751C138.645 357.849 130.583 358.663 125.757 357.813C116.005 356.094 114.552 352.246 112.111 346.507C110.165 341.937 108.455 341.425 105.841 339.578C104.114 338.363 101.774 336.608 101.089 334.615C100.961 330.246 102.615 327.395 103.2 325.192C103.785 322.989 103.438 320.567 104.836 320.247L105 321.536C105 321.536 106.308 325.046 113.089 325.192C119.871 325.338 120.246 322.496 120.246 322.496L120.273 320.951Z" fill="#37474F"/>
<path d="M140.372 156.047C140.372 156.047 142.118 167.472 138.398 177.883C135.163 186.931 128.947 192.031 122.412 194.152C122.412 194.152 124.588 234.779 125.154 240.437C125.721 246.094 124.387 266.586 123.153 280.077C121.919 293.568 121.562 298.183 121.562 298.183C121.562 298.183 118.683 301.218 110.594 301.373C102.505 301.529 99.9644 298.202 99.9644 298.202C99.9644 298.202 94.8643 282.609 94.6541 270.37C94.5261 263.36 96.0708 259.878 94.7363 252.922C93.4019 245.966 83.5581 215.018 81.8946 200.349C80.2312 185.679 82.7264 172.783 93.1643 157.756C104.397 165.087 130.145 163.25 140.372 156.047Z" fill="#263238"/>
<path d="M97.7982 160.023C92.1406 167.829 83.9877 183.933 89.7733 206.984C91.4185 213.547 93.0424 219.881 94.6449 225.986C98.3649 240.318 101.299 251.642 101.692 255.957C101.834 258.4 101.714 260.851 101.335 263.269C100.527 268.952 100.527 274.722 101.335 280.406C102.35 287.791 103.821 295.542 104.882 300.797C104.544 300.706 104.224 300.615 103.968 300.514C102.907 295.268 101.491 287.718 100.495 280.525C99.6751 274.765 99.6751 268.919 100.495 263.159C100.863 260.808 100.98 258.424 100.842 256.048C100.458 251.798 97.524 240.51 93.8223 226.215C92.232 220.091 90.5867 213.757 88.9415 207.204C83.1194 183.979 91.2448 167.692 96.9848 159.676C97.2041 159.804 97.4783 159.95 97.7982 160.023Z" fill="black"/>
<path d="M176.475 147.876C179.802 149.942 182.462 149.704 185.103 150.326C188.457 151.102 191.099 152.757 195.642 154.85C196.428 155.206 197.195 155.581 197.972 155.947C198.341 156.143 198.723 156.314 199.115 156.459C199.48 156.577 199.791 156.696 199.782 157.19C199.743 157.541 199.577 157.866 199.316 158.104C198.882 158.494 198.373 158.79 197.819 158.972C197.265 159.155 196.679 159.22 196.099 159.164C194.942 159.037 193.799 158.814 192.68 158.497C191.812 158.305 192.223 159.228 192.479 159.639C193.75 161.65 200.148 163.213 202.231 164.264C203.145 164.739 204.434 164.73 204.617 165.982C204.64 166.404 204.701 166.824 204.8 167.235C204.99 167.64 205.23 168.021 205.513 168.368C205.912 168.892 206.116 169.538 206.089 170.196C206.065 170.529 205.945 170.848 205.742 171.113C205.538 171.378 205.262 171.577 204.946 171.686C204.434 171.823 203.868 171.686 203.392 171.887C203.179 172.013 202.974 172.154 202.78 172.307C201.866 172.92 200.659 172.6 199.553 172.563C198.639 172.563 197.725 172.828 196.811 172.837C195.796 172.889 194.778 172.858 193.768 172.746C191.472 172.355 189.219 171.743 187.041 170.918C184.185 169.651 181.605 167.838 179.445 165.58C177.755 163.592 175.588 162.064 173.148 161.138C169.044 159.31 153.214 153.232 147.629 149.21C145.6 147.748 144.585 146.176 138.123 139.531C128.526 129.669 125.519 125.574 125.519 125.574L118.591 102.56C126.571 102.807 130.035 102.139 136.03 108.611C144.43 117.668 157.052 133.289 157.052 133.289C157.052 133.289 173.66 146.13 176.475 147.876Z" fill="#FFBDA7"/>
<path d="M189.993 159.036C186.922 161.239 182.05 160.023 180.03 158.835C180.03 158.835 182.699 161.33 185.277 161.33C188.11 161.321 189.198 160.334 189.993 159.036Z" fill="#F0997A"/>
<path d="M217.112 283.943L246.36 314.105C246.544 314.3 246.785 314.432 247.049 314.482C247.312 314.532 247.585 314.497 247.827 314.382C248.07 314.268 248.27 314.079 248.398 313.844C248.527 313.609 248.578 313.339 248.544 313.072L243.682 271.028L217.112 283.943Z" fill="#FFA8A7"/>
<path d="M248.544 313.109C248.578 313.375 248.527 313.645 248.398 313.88C248.269 314.116 248.069 314.304 247.827 314.419C247.584 314.533 247.312 314.568 247.048 314.519C246.785 314.469 246.544 314.337 246.359 314.142L240.647 308.246C241.947 308.317 243.242 308.027 244.388 307.41C245.535 306.792 246.489 305.87 247.145 304.746L247.502 304.124L248.544 313.109Z" fill="#455A64"/>
<path d="M160.672 95.5404L162.336 99.0593L164.356 103.3L243.691 271.102C242.384 275.672 238.965 279.254 234.925 281.676C228.783 285.378 221.215 286.374 217.13 283.934L137.85 116.215L134.011 108.099C136.789 113.217 163.387 100.714 160.672 95.5404Z" fill="#455A64"/>
<path d="M167.052 108.912L170.708 116.773C171.85 119.021 167.682 122.768 162.326 125.913C155.206 130.108 145.49 132.21 143.964 129.24L141.222 123.454L140.308 121.361C141.844 124.331 151.559 122.275 158.67 118.043C163.807 115.018 167.81 111.407 167.125 109.159C167.119 109.072 167.094 108.988 167.052 108.912Z" fill="#EBEBEB"/>
<path d="M167.956 110.886C170.634 116.087 143.909 128.554 141.231 123.344L137.502 115.493C140.18 120.694 166.896 108.181 164.218 103.026L167.956 110.886Z" fill="#035397"/>
<path d="M160.672 95.5404L164.328 103.3C166.997 108.391 141.314 120.666 137.822 116.215C137.745 116.134 137.68 116.041 137.63 115.941L133.974 108.099C136.789 113.217 163.387 100.714 160.672 95.5404Z" fill="#EBEBEB"/>
<path opacity="0.1" d="M137.85 116.215L134.011 108.099C135.263 110.411 141.542 109.625 147.721 107.011L231.178 283.605L246.396 314.142L217.148 283.98L137.85 116.215Z" fill="black"/>
<path d="M118.116 74.5093C118.116 74.427 118.006 74.3447 117.96 74.2533C116.361 70.835 121.031 65.2596 128.398 61.8047C135.765 58.3497 143.022 58.3132 144.64 61.7133L160.662 95.5313C161.823 97.7431 157.719 101.481 152.436 104.671C145.335 108.894 135.601 111.069 134.019 108.126L118.335 75.0302C118.262 74.884 118.198 74.7378 118.134 74.5824C118.07 74.427 118.125 74.5367 118.116 74.5093Z" fill="#F28F8F"/>
<path opacity="0.1" d="M126.836 62.5907L147.693 107.011C141.588 109.552 135.263 110.42 133.983 108.099L118.336 75.0302C118.263 74.884 118.199 74.7378 118.135 74.5824C118.071 74.427 118.135 74.5824 118.135 74.5093C118.135 74.4361 118.025 74.3447 117.979 74.2533C116.471 71.0909 120.392 66.0639 126.836 62.5907Z" fill="black"/>
<path d="M117.96 74.2533C119.569 77.6717 126.835 77.6351 134.211 74.1802C141.587 70.7253 146.24 65.1408 144.649 61.7224C143.059 58.304 135.765 58.3406 128.398 61.8047C121.031 65.2687 116.361 70.835 117.96 74.2533Z" fill="#FFA8A7"/>
<path d="M82.4521 138.261C82.4521 138.261 86.7571 136.177 87.9361 126.827C88.4663 122.577 87.0221 117.038 85.1941 110.649L97.4143 105.329C97.4143 105.329 101.454 104.214 110.366 102.587H118.592C118.592 102.587 133.49 108.876 139.55 116.818C142.849 121.151 146.277 130.391 140.464 137.411C140.912 143.699 140.994 156.513 140.994 156.513C140.994 156.513 137.575 162.71 121.151 164.584C97.588 167.326 90.9889 158.689 90.9889 158.689C90.5959 151.971 84.9382 144.741 82.4521 138.261Z" fill="#035397"/>
<path opacity="0.2" d="M82.4521 138.261C82.4521 138.261 86.7571 136.177 87.9361 126.827C88.4663 122.577 87.0221 117.038 85.1941 110.649L97.4143 105.329C97.4143 105.329 101.454 104.214 110.366 102.587H118.592C118.592 102.587 133.49 108.876 139.55 116.818C142.849 121.151 146.277 130.391 140.464 137.411C140.912 143.699 140.994 156.513 140.994 156.513C140.994 156.513 137.575 162.71 121.151 164.584C97.588 167.326 90.9889 158.689 90.9889 158.689C90.5959 151.971 84.9382 144.741 82.4521 138.261Z" fill="white"/>
<path d="M123.006 139.632C123.006 139.632 119.597 145.39 110.484 145.171C101.372 144.951 98.6479 138.48 98.6479 138.48C98.6479 138.48 99.3517 147.209 110.247 147.428C120.977 147.638 123.006 139.632 123.006 139.632Z" fill="#035397"/>
<path d="M89.6907 58.3497C90.9944 56.7789 92.7649 55.6647 94.7451 55.169C96.6463 54.7029 97.807 54.7303 99.6168 53.99C101.426 53.2496 102.816 52.0888 104.534 51.3668C108.309 49.7764 112.851 50.7635 116.096 53.2588C117.531 54.3647 118.838 55.7997 120.666 56.0647C121.558 56.1331 122.453 56.1331 123.344 56.0647C124.76 56.1421 126.135 56.5691 127.345 57.3076C128.556 58.0461 129.565 59.073 130.281 60.2966C131.404 62.211 132.079 64.3545 132.256 66.5666C132.475 68.7511 131.716 70.7893 131.854 72.9646C132.097 74.5441 132.817 76.0114 133.919 77.169C135.263 78.5785 136.296 80.2535 136.954 82.0863C137.52 83.6568 137.687 85.3436 137.438 86.9945C137.301 87.8159 136.96 88.5896 136.446 89.2445C135.931 89.8994 135.261 90.4143 134.495 90.7419C134.784 89.9652 134.877 89.1293 134.765 88.3082C134.653 87.4871 134.341 86.7062 133.855 86.0348C134.006 86.7744 134.009 87.5365 133.863 88.2771C133.717 89.0176 133.425 89.7218 133.005 90.3489C132.155 91.598 131.076 92.6742 129.824 93.5205C127.085 95.64 123.753 96.8539 120.291 96.9937C116.635 96.9937 112.979 95.7598 109.433 96.7012C108.45 97.001 107.483 97.3519 106.536 97.7523C104.89 98.3815 103.184 98.8409 101.445 99.1233C99.7813 99.3975 98.0904 99.2695 96.4452 99.5072C93.7232 99.9042 90.9522 99.2506 88.6945 97.6792C87.2498 96.5507 86.0786 95.1106 85.2683 93.4662C84.458 91.8219 84.0295 90.0158 84.0148 88.1827C83.4053 88.9801 83.0231 89.9276 82.9088 90.9247C82.1055 89.9579 81.5447 88.8132 81.2728 87.5859C81.001 86.3587 81.026 85.0843 81.3459 83.8686C81.8486 81.9766 83.0551 80.2857 83.1739 78.3389C83.2927 76.648 82.5981 75.0211 82.4153 73.3393C82.2561 71.3707 82.7787 69.4071 83.8953 67.778C85.0119 66.1488 86.6547 64.9531 88.5482 64.3913C88.3271 63.3589 88.3142 62.2928 88.5104 61.2553C88.7066 60.2179 89.1078 59.2301 89.6907 58.3497Z" fill="#263238"/>
<path d="M89.7362 79.518C92.0395 78.5492 94.0411 79.3535 95.3756 81.7573C96.5272 83.8503 98.7939 83.0186 98.1176 79.7282C103.19 74.555 96.9842 71.5753 101.152 66.6032C103.748 63.5047 109.533 64.1171 111.901 65.9268C112.492 64.8031 113.446 63.912 114.607 63.3978C115.768 62.8836 117.069 62.7763 118.299 63.0934C120.748 63.8612 122.329 65.2505 123.609 68.5774C124.934 72.0323 123.7 72.7361 124.377 75.1856C125.124 76.8519 125.62 78.62 125.848 80.432C126.433 91.9941 124.13 94.992 121.635 96.9845C119.926 98.3464 117.714 99.1142 113.902 99.2787L114.259 104.315C117.433 108.162 119.432 112.843 120.017 117.796C109.049 114.981 103.291 111.261 96.8471 106.408L95.7503 89.6451C95.2568 90.9796 92.6153 92.5151 89.8367 90.3946C86.327 87.744 85.6689 81.2363 89.7362 79.518Z" fill="#FFBDA7"/>
<path d="M122.476 73.8238L118.719 72.4345C118.796 72.1847 118.923 71.9534 119.093 71.7547C119.263 71.556 119.471 71.3943 119.706 71.2795C119.941 71.1647 120.197 71.0993 120.458 71.0873C120.719 71.0753 120.979 71.117 121.224 71.2098C121.725 71.4052 122.134 71.784 122.366 72.2694C122.599 72.7549 122.638 73.3105 122.476 73.8238Z" fill="#263238"/>
<path d="M107.788 72.8824L104.342 74.948C104.193 74.7295 104.092 74.4828 104.043 74.2232C103.994 73.9636 104 73.6968 104.059 73.4395C104.118 73.1821 104.23 72.9397 104.387 72.7275C104.544 72.5152 104.744 72.3377 104.972 72.206C105.44 71.9388 105.991 71.86 106.514 71.9857C107.037 72.1114 107.493 72.4321 107.788 72.8824Z" fill="#263238"/>
<path d="M109.826 86.6563L115.429 88.3929C115.305 88.7824 115.102 89.1419 114.833 89.4486C114.563 89.7553 114.232 90.0026 113.862 90.1745C113.491 90.3464 113.089 90.4394 112.68 90.4474C112.272 90.4554 111.866 90.3782 111.489 90.2209C111.143 90.1006 110.824 89.912 110.552 89.6662C110.28 89.4205 110.059 89.1226 109.904 88.7902C109.749 88.4578 109.662 88.0977 109.649 87.7312C109.635 87.3647 109.696 86.9992 109.826 86.6563Z" fill="#B16668"/>
<path d="M113.107 90.3763C113.014 89.6188 112.642 88.9231 112.065 88.4246C111.487 87.9262 110.744 87.6607 109.981 87.68C109.887 87.6705 109.792 87.6705 109.698 87.68C109.687 88.2408 109.86 88.7897 110.19 89.2433C110.52 89.6969 110.989 90.0305 111.526 90.1935C112.03 90.3819 112.573 90.4446 113.107 90.3763Z" fill="#F28F8F"/>
<path d="M113.245 74.7927L114.469 85.13L120.127 83.0004L113.245 74.7927Z" fill="#F0997A"/>
<path d="M107.34 79.5728C108.264 79.5728 109.013 78.824 109.013 77.9002C109.013 76.9765 108.264 76.2276 107.34 76.2276C106.416 76.2276 105.667 76.9765 105.667 77.9002C105.667 78.824 106.416 79.5728 107.34 79.5728Z" fill="#263238"/>
<path d="M120.373 78.8416C121.297 78.8416 122.046 78.0928 122.046 77.169C122.046 76.2453 121.297 75.4964 120.373 75.4964C119.45 75.4964 118.701 76.2453 118.701 77.169C118.701 78.0928 119.45 78.8416 120.373 78.8416Z" fill="#263238"/>
<path d="M113.902 99.2695C110.182 99.169 103.848 99.169 100.686 95.1017C100.686 95.1017 101.17 97.5695 105.009 99.3792C107.751 100.65 114.012 101.015 114.012 101.015L113.902 99.2695Z" fill="#F0997A"/>
<path d="M168.532 155.965C168.203 156.605 167.427 156.879 167.161 157.482C167.092 157.814 167.092 158.156 167.161 158.488C167.183 158.951 167.105 159.414 166.931 159.845C166.758 160.276 166.493 160.664 166.156 160.983C165.926 161.155 165.72 161.358 165.544 161.586C165.406 161.849 165.313 162.133 165.27 162.427C164.904 163.712 164.162 164.857 163.14 165.717C162.71 166.083 162.226 166.449 161.787 166.778C160.606 167.641 159.299 168.316 157.912 168.779C154.592 169.66 151.174 170.115 147.739 170.132C144.083 170.132 140.729 169.218 134.998 169.547C126.626 169.995 109.196 170.333 103.483 170.223C97.7706 170.114 95.3119 169.638 91.8113 162.509C89.0053 156.815 88.1096 155.078 82.4611 142.2C75.0394 125.218 75.0577 115.301 85.2031 110.649C90.6871 112.267 94.4345 118.875 97.2131 125.94C100.458 134.093 107.953 151.898 107.953 151.898C107.953 151.898 133.773 154.567 138.261 154.356C142.474 154.146 146.322 152.336 150.243 150.975C151.413 150.563 152.528 150.061 153.68 149.649L155.398 153.305C155.093 153.742 154.73 154.135 154.32 154.475C153.808 154.914 152.601 155.837 153.406 156.513C154.21 157.19 155.572 156.833 156.861 156.44C157.692 156.184 158.451 155.874 158.935 155.718C160.916 154.957 162.951 154.346 165.023 153.89C165.535 153.753 166.069 153.718 166.595 153.789C167.121 153.859 167.627 154.034 168.085 154.302C168.228 154.376 168.355 154.48 168.456 154.606C168.558 154.733 168.632 154.879 168.674 155.035C168.716 155.191 168.725 155.355 168.701 155.515C168.676 155.675 168.619 155.828 168.532 155.965Z" fill="#FFBDA7"/>
<path d="M155.38 153.305C155.043 153.91 154.615 154.459 154.109 154.932C153.643 155.38 153.195 156.029 153.598 156.193C154.512 156.797 156.056 156.193 157.107 155.874C159.694 155.042 162.299 154.046 165.032 153.918C162.436 154.749 159.977 155.883 157.382 156.742C156.375 157.144 155.291 157.313 154.21 157.235C153.296 157.162 152.382 156.267 153.031 155.362C153.68 154.457 154.694 154.137 155.38 153.305Z" fill="#F0997A"/>
<path d="M107.934 151.898C115.575 152.3 123.554 153.04 131.168 153.57C133.106 153.717 135.034 153.872 136.963 153.936C140.82 154.1 144.522 152.748 148.132 151.495L153.661 149.667C148.269 151.825 142.904 154.868 136.944 154.786C127.231 154.328 117.548 153.37 107.934 151.916V151.898Z" fill="#F0997A"/>
<path d="M239.185 316.546C231.535 312.378 222.376 311.583 213.785 312.99C205.193 314.398 197.077 317.871 189.335 321.847C186.337 323.391 182.937 325.055 179.747 324.013C176.557 322.971 174.583 319.16 174.885 315.705C175.186 312.25 177.197 309.161 179.592 306.656C188.375 297.47 202.817 294.107 214.881 298.11C225.52 301.629 233.353 308.594 239.185 316.546Z" fill="#035397"/>
<path opacity="0.6" d="M239.185 316.546C231.535 312.378 222.376 311.583 213.785 312.99C205.193 314.398 197.077 317.871 189.335 321.847C186.337 323.391 182.937 325.055 179.747 324.013C176.557 322.971 174.583 319.16 174.885 315.705C175.186 312.25 177.197 309.161 179.592 306.656C188.375 297.47 202.817 294.107 214.881 298.11C225.52 301.629 233.353 308.594 239.185 316.546Z" fill="white"/>
<path d="M189.252 290.999C190.91 290.671 192.602 290.551 194.289 290.643C195.056 290.689 195.788 290.853 196.555 290.963C197.372 291.072 198.179 291.246 198.968 291.484C198.681 291.042 198.336 290.639 197.945 290.286C196.837 289.157 195.561 288.207 194.161 287.471C189.699 285.074 184.787 283.63 179.738 283.23C176.393 282.97 173.027 283.198 169.748 283.907C165.425 284.821 160.992 286.868 158.78 290.734C157.765 292.562 157.336 294.829 158.304 296.657C158.711 297.35 159.261 297.949 159.916 298.413C160.571 298.878 161.318 299.199 162.107 299.353C163.683 299.652 165.305 299.621 166.869 299.262C170.781 298.503 174.437 296.812 178.047 295.131C181.657 293.449 185.341 291.758 189.252 290.999Z" fill="#035397"/>
<path opacity="0.35" d="M189.252 290.999C190.91 290.671 192.602 290.551 194.289 290.643C195.056 290.689 195.788 290.853 196.555 290.963C197.372 291.072 198.179 291.246 198.968 291.484C198.681 291.042 198.336 290.639 197.945 290.286C196.837 289.157 195.561 288.207 194.161 287.471C189.699 285.074 184.787 283.63 179.738 283.23C176.393 282.97 173.027 283.198 169.748 283.907C165.425 284.821 160.992 286.868 158.78 290.734C157.765 292.562 157.336 294.829 158.304 296.657C158.711 297.35 159.261 297.949 159.916 298.413C160.571 298.878 161.318 299.199 162.107 299.353C163.683 299.652 165.305 299.621 166.869 299.262C170.781 298.503 174.437 296.812 178.047 295.131C181.657 293.449 185.341 291.758 189.252 290.999Z" fill="white"/>
<path d="M186.556 275.343C193.357 281.658 201.098 285.497 209.617 288.778C204.727 283.587 201.573 277.244 199.087 270.626C196.601 264.009 195.852 256.916 194.627 249.942C193.942 246.003 192.662 242.036 189.993 239.066C187.324 236.095 183.038 234.331 179.226 235.52C175.89 236.571 173.495 239.697 172.6 243.078C171.849 246.51 171.981 250.076 172.984 253.443C175.159 261.962 180.122 269.356 186.556 275.343Z" fill="#035397"/>
<g opacity="0.2">
<path d="M186.556 275.343C193.357 281.658 201.098 285.497 209.617 288.778C204.727 283.587 201.573 277.244 199.087 270.626C196.601 264.009 195.852 256.916 194.627 249.942C193.942 246.003 192.662 242.036 189.993 239.066C187.324 236.095 183.038 234.331 179.226 235.52C175.89 236.571 173.495 239.697 172.6 243.078C171.849 246.51 171.981 250.076 172.984 253.443C175.159 261.962 180.122 269.356 186.556 275.343Z" fill="white"/>
</g>
<path d="M178.641 233.198C176.823 233.896 175.187 234.999 173.86 236.425C172.533 237.851 171.548 239.56 170.982 241.424C170.79 242.091 170.506 242.905 169.821 243.005C169.135 243.106 168.541 242.183 168.432 241.397C167.609 235.264 174.181 233.289 178.641 233.198Z" fill="#035397"/>
<path d="M272.582 286.164C264.429 292.114 256.45 300.386 253.635 310.376C250.811 294.153 255.966 276.22 264.996 262.729C273.697 249.723 289.857 237.695 306.281 244.385C310.468 246.085 313.996 249.869 314.407 254.439C314.772 258.424 312.698 262.309 309.837 265.069C306.976 267.829 303.302 269.639 299.701 271.376C290.387 275.809 280.909 280.077 272.582 286.164Z" fill="#035397"/>
<path opacity="0.35" d="M272.582 286.164C264.429 292.114 256.45 300.386 253.635 310.376C250.811 294.153 255.966 276.22 264.996 262.729C273.697 249.723 289.857 237.695 306.281 244.385C310.468 246.085 313.996 249.869 314.407 254.439C314.772 258.424 312.698 262.309 309.837 265.069C306.976 267.829 303.302 269.639 299.701 271.376C290.387 275.809 280.909 280.077 272.582 286.164Z" fill="white"/>
<path d="M241.46 226.526C241.872 233.399 245.171 241.616 246.99 246.945C249.732 254.942 252.291 263.561 250.107 271.732C255.883 264.283 261.358 255.774 263.917 246.634C266.595 237.028 266.294 226.078 258.964 218.473C254.183 213.52 244.257 213.154 241.972 220.85C241.478 222.699 241.305 224.618 241.46 226.526Z" fill="#035397"/>
<path opacity="0.6" d="M241.46 226.526C241.872 233.399 245.171 241.616 246.99 246.945C249.732 254.942 252.291 263.561 250.107 271.732C255.883 264.283 261.358 255.774 263.917 246.634C266.595 237.028 266.294 226.078 258.964 218.473C254.183 213.52 244.257 213.154 241.972 220.85C241.478 222.699 241.305 224.618 241.46 226.526Z" fill="white"/>
<path d="M301.803 234.724C299.35 234.245 296.811 234.483 294.491 235.41C291.878 236.503 289.702 238.431 288.303 240.894C290.761 239.486 294.618 238.271 301.026 239.185C307.168 240.053 310.824 242.95 312.122 244.532C312.012 241.47 309.572 238.225 306.948 236.653C305.36 235.711 303.618 235.058 301.803 234.724Z" fill="#035397"/>
<path d="M349.431 253.178L350.949 247.785C350.281 244.696 362.895 251.981 363.562 255.097L359.494 266.065C359.353 266.395 359.114 266.673 358.809 266.861C357.895 267.409 351.899 270.827 351.607 271.001C351.379 271.14 351.124 271.225 350.859 271.251C350.594 271.276 350.326 271.242 350.076 271.149C349.827 271.057 349.601 270.91 349.417 270.718C349.232 270.526 349.093 270.294 349.011 270.041L343.746 251.981C343.417 250.436 346.324 251.414 349.431 253.178Z" fill="#37474F"/>
<path d="M335.026 178.084L382.966 205.751C383.438 206.057 383.831 206.471 384.112 206.959C384.393 207.447 384.555 207.994 384.584 208.557V265.38C384.547 265.933 384.38 266.469 384.098 266.945C383.815 267.422 383.424 267.825 382.957 268.122L377.272 271.458C376.766 271.709 376.209 271.84 375.645 271.84C375.08 271.84 374.523 271.709 374.018 271.458L326.06 243.791C325.588 243.485 325.195 243.07 324.914 242.583C324.633 242.095 324.471 241.547 324.442 240.985V184.098C324.474 183.536 324.637 182.99 324.92 182.504C325.203 182.018 325.597 181.606 326.069 181.301L331.773 178.066C332.28 177.817 332.837 177.69 333.402 177.693C333.966 177.696 334.522 177.83 335.026 178.084Z" fill="#37474F"/>
<path d="M326.06 183.156L374.018 210.823C374.49 211.131 374.883 211.545 375.166 212.032C375.449 212.52 375.613 213.067 375.645 213.629V270.462C375.645 271.495 374.914 271.915 374.018 271.376L355.665 260.792L352.292 270.142C352.15 270.469 351.911 270.746 351.608 270.934C351.305 271.122 350.951 271.214 350.594 271.196C350.238 271.178 349.895 271.052 349.612 270.834C349.329 270.616 349.119 270.317 349.011 269.977L344.578 254.385L326.106 243.727C325.634 243.421 325.241 243.006 324.96 242.519C324.679 242.031 324.517 241.484 324.488 240.921V184.098C324.47 183.065 325.165 182.645 326.06 183.156Z" fill="#FAFAFA"/>
<path d="M325.384 183.714C325.501 183.723 325.614 183.761 325.713 183.824L373.671 211.49C374.025 211.725 374.32 212.038 374.533 212.406C374.745 212.774 374.87 213.187 374.895 213.611V270.444C374.895 270.69 374.831 270.791 374.786 270.809C374.667 270.799 374.554 270.758 374.457 270.69L356.058 260.124L355.244 259.649L354.925 260.563L351.561 269.886C351.486 270.073 351.355 270.232 351.186 270.341C351.017 270.45 350.819 270.503 350.618 270.494C350.417 270.485 350.224 270.414 350.065 270.29C349.907 270.166 349.791 269.996 349.733 269.804L345.254 254.193L345.163 253.882L344.889 253.726L326.417 243.069C326.065 242.832 325.772 242.518 325.56 242.15C325.348 241.783 325.222 241.372 325.192 240.949V184.098C325.192 183.851 325.256 183.741 325.274 183.732M325.274 182.937C324.744 182.937 324.36 183.367 324.36 184.098V240.921C324.389 241.484 324.551 242.031 324.832 242.519C325.113 243.006 325.506 243.421 325.978 243.727L344.578 254.385L349.057 269.996C349.167 270.353 349.391 270.665 349.695 270.884C349.998 271.103 350.364 271.218 350.738 271.211C351.079 271.216 351.414 271.118 351.699 270.931C351.984 270.743 352.207 270.475 352.338 270.16L355.711 260.81L374.064 271.394C374.283 271.526 374.531 271.601 374.786 271.613C375.325 271.613 375.7 271.193 375.7 270.462V213.629C375.668 213.067 375.504 212.52 375.221 212.032C374.938 211.545 374.545 211.131 374.073 210.823L326.115 183.156C325.898 183.022 325.649 182.947 325.393 182.937H325.274Z" fill="#37474F"/>
<path d="M324.47 183.805C324.598 182.983 325.265 182.69 326.079 183.156L374.027 210.823C374.505 211.125 374.898 211.543 375.17 212.039L384.109 206.902C383.833 206.424 383.44 206.025 382.966 205.741L335.009 178.075C334.503 177.823 333.946 177.693 333.382 177.693C332.817 177.693 332.26 177.823 331.755 178.075L326.051 181.31C325.629 181.593 325.27 181.961 324.998 182.391C324.725 182.821 324.546 183.302 324.47 183.805Z" fill="#455A64"/>
<path d="M336.188 201.254V215.11L337.449 215.814V211.445C337.449 209.087 339.368 208.282 341.726 209.617L347.613 213.008V238.006C347.613 240.748 345.94 241.982 343.874 240.793L340.218 238.664V240.172L360.217 251.716V250.253L356.561 248.124C354.495 246.935 352.822 243.755 352.822 241.022V216.024L358.708 219.424C361.076 220.786 362.986 223.802 362.986 226.16V230.529L364.247 231.279V217.422L336.188 201.254Z" fill="#455A64"/>
</svg>
