<svg width="1076" height="291" viewBox="0 0 1076 291" fill="none" xmlns="http://www.w3.org/2000/svg">
<path d="M543.866 286V284.845H545.486V286H543.866ZM538.211 286C536.711 286 535.581 285.735 534.821 285.205C534.071 284.665 533.696 283.84 533.696 282.73C533.696 282.49 533.711 282.235 533.741 281.965C533.781 281.685 533.826 281.415 533.876 281.155C533.926 280.885 533.971 280.655 534.011 280.465C534.051 280.265 534.076 280.13 534.086 280.06L535.331 280.3C535.301 280.45 535.256 280.665 535.196 280.945C535.146 281.225 535.096 281.52 535.046 281.83C535.006 282.14 534.986 282.44 534.986 282.73C534.986 283.23 535.091 283.64 535.301 283.96C535.511 284.27 535.851 284.495 536.321 284.635C536.801 284.775 537.436 284.845 538.226 284.845H542.591V278.5H543.866V286H538.211ZM545.486 286V284.845C545.616 284.845 545.696 284.895 545.726 284.995C545.766 285.095 545.786 285.235 545.786 285.415C545.786 285.585 545.766 285.725 545.726 285.835C545.696 285.945 545.616 286 545.486 286ZM537.116 278.665V277.27H538.406V278.665H537.116ZM539.171 278.665V277.27H540.461V278.665H539.171ZM545.939 286V284.845H548.174L547.559 285.355V278.5H548.834V286H545.939ZM545.939 286C545.809 286 545.729 285.945 545.699 285.835C545.659 285.725 545.639 285.585 545.639 285.415C545.639 285.235 545.659 285.095 545.699 284.995C545.729 284.895 545.809 284.845 545.939 284.845V286ZM547.559 277.15V275.755H548.849V277.15H547.559ZM556.731 286V278.5H558.021V285.355L557.391 284.845H559.671V286H556.731ZM553.506 281.14V279.97H556.731V281.14H553.506ZM550.686 289.375C550.556 289.375 550.421 289.365 550.281 289.345C550.131 289.335 549.986 289.325 549.846 289.315L549.966 288.16C550.106 288.17 550.241 288.18 550.371 288.19C550.491 288.21 550.596 288.22 550.686 288.22C551.146 288.22 551.516 288.045 551.796 287.695C552.076 287.345 552.216 286.86 552.216 286.24V278.5H553.506V286.24C553.506 286.86 553.386 287.405 553.146 287.875C552.906 288.355 552.571 288.725 552.141 288.985C551.721 289.245 551.236 289.375 550.686 289.375ZM559.671 286V284.845C559.801 284.845 559.881 284.895 559.911 284.995C559.951 285.095 559.971 285.235 559.971 285.415C559.971 285.585 559.951 285.725 559.911 285.835C559.881 285.945 559.801 286 559.671 286ZM555.591 277.21V275.815H556.881V277.21H555.591ZM557.646 277.21V275.815H558.936V277.21H557.646ZM560.125 286V284.845H562.36L561.745 285.355V278.5H563.02V286H560.125ZM560.125 286C559.995 286 559.915 285.945 559.885 285.835C559.845 285.725 559.825 285.585 559.825 285.415C559.825 285.235 559.845 285.095 559.885 284.995C559.915 284.895 559.995 284.845 560.125 284.845V286ZM561.745 277.15V275.755H563.035V277.15H561.745ZM565.277 286V284.845H572.657L571.952 285.565V275.26H573.242V286H565.277ZM567.632 284.845V277.39H568.907V284.845H567.632ZM567.542 290.095C567.382 289.895 567.257 289.695 567.167 289.495C567.077 289.305 567.032 289.105 567.032 288.895C567.032 288.595 567.107 288.325 567.257 288.085C567.407 287.855 567.607 287.67 567.857 287.53C568.107 287.4 568.377 287.335 568.667 287.335C568.827 287.335 568.987 287.355 569.147 287.395C569.317 287.445 569.462 287.51 569.582 287.59L569.177 288.31C569.097 288.26 569.017 288.225 568.937 288.205C568.867 288.195 568.792 288.19 568.712 288.19C568.482 288.19 568.297 288.255 568.157 288.385C568.027 288.515 567.962 288.685 567.962 288.895C567.962 289.015 567.987 289.135 568.037 289.255C568.097 289.375 568.182 289.505 568.292 289.645L567.542 290.095ZM566.747 290.11V289.27H569.792V290.11H566.747ZM576.308 286V275.26H577.583V286H576.308ZM589.449 286V278.5H590.739V285.355L590.109 284.845H592.344V286H589.449ZM586.224 281.14V279.97H589.449V281.14H586.224ZM583.404 289.375C583.274 289.375 583.139 289.365 582.999 289.345C582.849 289.335 582.704 289.325 582.564 289.315L582.684 288.16C582.824 288.17 582.959 288.18 583.089 288.19C583.209 288.21 583.314 288.22 583.404 288.22C583.864 288.22 584.234 288.045 584.514 287.695C584.794 287.345 584.934 286.86 584.934 286.24V278.5H586.224V286.24C586.224 286.86 586.104 287.405 585.864 287.875C585.624 288.355 585.289 288.725 584.859 288.985C584.439 289.245 583.954 289.375 583.404 289.375ZM592.344 286V284.845C592.474 284.845 592.554 284.895 592.584 284.995C592.624 285.095 592.644 285.235 592.644 285.415C592.644 285.585 592.624 285.725 592.584 285.835C592.554 285.945 592.474 286 592.344 286ZM589.449 288.775V287.38H590.739V288.775H589.449ZM595.995 285.925C595.455 285.465 595.045 284.94 594.765 284.35C594.485 283.76 594.345 283.135 594.345 282.475C594.345 281.905 594.445 281.38 594.645 280.9C594.855 280.41 595.135 279.985 595.485 279.625C595.845 279.265 596.265 278.99 596.745 278.8C597.225 278.6 597.74 278.5 598.29 278.5C598.59 278.5 598.905 278.53 599.235 278.59C599.565 278.65 599.885 278.735 600.195 278.845L599.775 279.925C599.525 279.845 599.275 279.78 599.025 279.73C598.775 279.68 598.54 279.655 598.32 279.655C597.8 279.655 597.335 279.775 596.925 280.015C596.515 280.255 596.195 280.59 595.965 281.02C595.745 281.44 595.635 281.925 595.635 282.475C595.635 283.515 596.04 284.38 596.85 285.07L595.995 285.925ZM592.8 286V284.845H600.375V286H592.8ZM592.8 286C592.67 286 592.59 285.945 592.56 285.835C592.52 285.725 592.5 285.585 592.5 285.415C592.5 285.235 592.52 285.095 592.56 284.995C592.59 284.895 592.67 284.845 592.8 284.845V286ZM610.958 286C609.458 286 608.328 285.735 607.568 285.205C606.818 284.665 606.443 283.84 606.443 282.73C606.443 282.49 606.458 282.235 606.488 281.965C606.528 281.685 606.573 281.415 606.623 281.155C606.673 280.885 606.718 280.655 606.758 280.465C606.798 280.265 606.823 280.13 606.833 280.06L608.078 280.3C608.048 280.45 608.003 280.665 607.943 280.945C607.893 281.225 607.843 281.52 607.793 281.83C607.753 282.14 607.733 282.44 607.733 282.73C607.733 283.23 607.838 283.64 608.048 283.96C608.258 284.27 608.598 284.495 609.068 284.635C609.548 284.775 610.183 284.845 610.973 284.845H615.338V278.5H616.613V286H610.958ZM609.863 278.665V277.27H611.153V278.665H609.863ZM611.918 278.665V277.27H613.208V278.665H611.918ZM620.947 286V284.845H622.762V286H620.947ZM619.672 286V275.26H620.947V286H619.672ZM622.762 286V284.845C622.892 284.845 622.972 284.895 623.002 284.995C623.042 285.095 623.062 285.235 623.062 285.415C623.062 285.585 623.042 285.725 623.002 285.835C622.972 285.945 622.892 286 622.762 286ZM623.208 286V284.845H625.383C625.953 284.845 626.503 284.75 627.033 284.56C627.563 284.37 628.048 284.115 628.488 283.795C628.938 283.475 629.328 283.125 629.658 282.745C629.988 282.355 630.243 281.96 630.423 281.56C630.603 281.15 630.693 280.77 630.693 280.42V279.505L631.368 280.54C630.798 280.25 630.233 280.03 629.673 279.88C629.123 279.73 628.583 279.655 628.053 279.655C627.533 279.655 626.993 279.73 626.433 279.88C625.873 280.03 625.313 280.25 624.753 280.54L625.428 279.505V280.42C625.428 280.77 625.518 281.15 625.698 281.56C625.888 281.96 626.143 282.355 626.463 282.745C626.793 283.125 627.178 283.475 627.618 283.795C628.058 284.115 628.543 284.37 629.073 284.56C629.603 284.75 630.158 284.845 630.738 284.845H632.808V286H630.813C630.033 286 629.303 285.875 628.623 285.625C627.943 285.375 627.328 285.045 626.778 284.635C626.228 284.215 625.753 283.76 625.353 283.27C624.963 282.77 624.663 282.275 624.453 281.785C624.243 281.285 624.138 280.83 624.138 280.42V279.52C624.568 279.29 625.008 279.1 625.458 278.95C625.908 278.8 626.353 278.69 626.793 278.62C627.233 278.54 627.653 278.5 628.053 278.5C628.463 278.5 628.888 278.54 629.328 278.62C629.768 278.69 630.208 278.8 630.648 278.95C631.098 279.1 631.538 279.29 631.968 279.52V280.42C631.968 280.83 631.863 281.285 631.653 281.785C631.443 282.275 631.138 282.77 630.738 283.27C630.348 283.76 629.878 284.215 629.328 284.635C628.778 285.045 628.163 285.375 627.483 285.625C626.803 285.875 626.073 286 625.293 286H623.208ZM623.208 286C623.078 286 622.998 285.945 622.968 285.835C622.928 285.725 622.908 285.585 622.908 285.415C622.908 285.235 622.928 285.095 622.968 284.995C622.998 284.895 623.078 284.845 623.208 284.845V286ZM632.808 286V284.845C632.938 284.845 633.018 284.895 633.048 284.995C633.088 285.095 633.108 285.235 633.108 285.415C633.108 285.585 633.088 285.725 633.048 285.835C633.018 285.945 632.938 286 632.808 286ZM636.268 286V284.845H637.918V286H636.268ZM637.918 286V284.845C638.048 284.845 638.128 284.895 638.158 284.995C638.198 285.095 638.218 285.235 638.218 285.415C638.218 285.585 638.198 285.725 638.158 285.835C638.128 285.945 638.048 286 637.918 286ZM633.253 286V284.845H635.608L634.978 285.355V278.5H636.268V286H633.253ZM633.253 286C633.123 286 633.043 285.945 633.013 285.835C632.973 285.725 632.953 285.585 632.953 285.415C632.953 285.235 632.973 285.095 633.013 284.995C633.043 284.895 633.123 284.845 633.253 284.845V286ZM633.853 288.76V287.365H635.143V288.76H633.853ZM635.908 288.76V287.365H637.198V288.76H635.908ZM641.256 286V284.845H642.876V286H641.256ZM638.361 286V284.845H640.596L639.981 285.355V278.5H641.256V286H638.361ZM638.361 286C638.231 286 638.151 285.945 638.121 285.835C638.081 285.725 638.061 285.585 638.061 285.415C638.061 285.235 638.081 285.095 638.121 284.995C638.151 284.895 638.231 284.845 638.361 284.845V286ZM642.876 286V284.845C643.006 284.845 643.086 284.895 643.116 284.995C643.156 285.095 643.176 285.235 643.176 285.415C643.176 285.585 643.156 285.725 643.116 285.835C643.086 285.945 643.006 286 642.876 286ZM639.981 288.775V287.38H641.271V288.775H639.981ZM651.873 286V284.845H653.493V286H651.873ZM643.323 286V284.845H651.468L650.598 285.475V282.325C650.598 281.645 650.518 281.11 650.358 280.72C650.208 280.33 649.943 280.055 649.563 279.895C649.193 279.735 648.688 279.655 648.048 279.655C647.628 279.655 647.213 279.685 646.803 279.745C646.393 279.795 646.073 279.87 645.843 279.97L646.623 279.19C646.563 279.43 646.503 279.735 646.443 280.105C646.383 280.465 646.333 280.855 646.293 281.275C646.253 281.685 646.233 282.095 646.233 282.505C646.233 282.925 646.253 283.34 646.293 283.75C646.333 284.16 646.378 284.515 646.428 284.815C646.478 285.105 646.518 285.31 646.548 285.43L645.333 285.775C645.293 285.645 645.243 285.42 645.183 285.1C645.123 284.78 645.068 284.395 645.018 283.945C644.978 283.495 644.958 283.015 644.958 282.505C644.958 282.015 644.983 281.54 645.033 281.08C645.083 280.61 645.138 280.185 645.198 279.805C645.268 279.425 645.333 279.12 645.393 278.89C645.613 278.8 645.963 278.71 646.443 278.62C646.933 278.53 647.468 278.485 648.048 278.485C648.898 278.485 649.608 278.61 650.178 278.86C650.748 279.11 651.173 279.515 651.453 280.075C651.733 280.635 651.873 281.385 651.873 282.325V286H643.323ZM643.323 286C643.193 286 643.113 285.945 643.083 285.835C643.043 285.725 643.023 285.585 643.023 285.415C643.023 285.235 643.043 285.095 643.083 284.995C643.113 284.895 643.193 284.845 643.323 284.845V286ZM653.493 286V284.845C653.623 284.845 653.703 284.895 653.733 284.995C653.773 285.095 653.793 285.235 653.793 285.415C653.793 285.585 653.773 285.725 653.733 285.835C653.703 285.945 653.623 286 653.493 286ZM655.739 286V275.26H657.029V286H655.739ZM653.939 286V284.845H655.739V286H653.939ZM653.939 286C653.809 286 653.729 285.945 653.699 285.835C653.659 285.725 653.639 285.585 653.639 285.415C653.639 285.235 653.659 285.095 653.699 284.995C653.729 284.895 653.809 284.845 653.939 284.845V286ZM660.033 286V275.26H661.308V286H660.033Z" fill="#222B45"/>
<rect x="674.662" y="274" width="20.0217" height="12.7863" rx="6" fill="#0095FF"/>
<path d="M260.337 286V284.845H261.957V286H260.337ZM254.682 286C253.182 286 252.052 285.735 251.292 285.205C250.542 284.665 250.167 283.84 250.167 282.73C250.167 282.49 250.182 282.235 250.212 281.965C250.252 281.685 250.297 281.415 250.347 281.155C250.397 280.885 250.442 280.655 250.482 280.465C250.522 280.265 250.547 280.13 250.557 280.06L251.802 280.3C251.772 280.45 251.727 280.665 251.667 280.945C251.617 281.225 251.567 281.52 251.517 281.83C251.477 282.14 251.457 282.44 251.457 282.73C251.457 283.23 251.562 283.64 251.772 283.96C251.982 284.27 252.322 284.495 252.792 284.635C253.272 284.775 253.907 284.845 254.697 284.845H259.062V278.5H260.337V286H254.682ZM261.957 286V284.845C262.087 284.845 262.167 284.895 262.197 284.995C262.237 285.095 262.257 285.235 262.257 285.415C262.257 285.585 262.237 285.725 262.197 285.835C262.167 285.945 262.087 286 261.957 286ZM253.587 278.665V277.27H254.877V278.665H253.587ZM255.642 278.665V277.27H256.932V278.665H255.642ZM262.409 286V284.845H264.644L264.029 285.355V278.5H265.304V286H262.409ZM262.409 286C262.279 286 262.199 285.945 262.169 285.835C262.129 285.725 262.109 285.585 262.109 285.415C262.109 285.235 262.129 285.095 262.169 284.995C262.199 284.895 262.279 284.845 262.409 284.845V286ZM264.029 277.15V275.755H265.319V277.15H264.029ZM273.201 286V278.5H274.491V285.355L273.861 284.845H276.141V286H273.201ZM269.976 281.14V279.97H273.201V281.14H269.976ZM267.156 289.375C267.026 289.375 266.891 289.365 266.751 289.345C266.601 289.335 266.456 289.325 266.316 289.315L266.436 288.16C266.576 288.17 266.711 288.18 266.841 288.19C266.961 288.21 267.066 288.22 267.156 288.22C267.616 288.22 267.986 288.045 268.266 287.695C268.546 287.345 268.686 286.86 268.686 286.24V278.5H269.976V286.24C269.976 286.86 269.856 287.405 269.616 287.875C269.376 288.355 269.041 288.725 268.611 288.985C268.191 289.245 267.706 289.375 267.156 289.375ZM276.141 286V284.845C276.271 284.845 276.351 284.895 276.381 284.995C276.421 285.095 276.441 285.235 276.441 285.415C276.441 285.585 276.421 285.725 276.381 285.835C276.351 285.945 276.271 286 276.141 286ZM272.061 277.21V275.815H273.351V277.21H272.061ZM274.116 277.21V275.815H275.406V277.21H274.116ZM276.595 286V284.845H278.83L278.215 285.355V278.5H279.49V286H276.595ZM276.595 286C276.465 286 276.385 285.945 276.355 285.835C276.315 285.725 276.295 285.585 276.295 285.415C276.295 285.235 276.315 285.095 276.355 284.995C276.385 284.895 276.465 284.845 276.595 284.845V286ZM278.215 277.15V275.755H279.505V277.15H278.215ZM281.747 286V284.845H289.127L288.422 285.565V275.26H289.712V286H281.747ZM284.102 284.845V277.39H285.377V284.845H284.102ZM284.012 290.095C283.852 289.895 283.727 289.695 283.637 289.495C283.547 289.305 283.502 289.105 283.502 288.895C283.502 288.595 283.577 288.325 283.727 288.085C283.877 287.855 284.077 287.67 284.327 287.53C284.577 287.4 284.847 287.335 285.137 287.335C285.297 287.335 285.457 287.355 285.617 287.395C285.787 287.445 285.932 287.51 286.052 287.59L285.647 288.31C285.567 288.26 285.487 288.225 285.407 288.205C285.337 288.195 285.262 288.19 285.182 288.19C284.952 288.19 284.767 288.255 284.627 288.385C284.497 288.515 284.432 288.685 284.432 288.895C284.432 289.015 284.457 289.135 284.507 289.255C284.567 289.375 284.652 289.505 284.762 289.645L284.012 290.095ZM283.217 290.11V289.27H286.262V290.11H283.217ZM294.053 286V284.845H295.868V286H294.053ZM292.778 286V275.26H294.053V286H292.778ZM295.868 286V284.845C295.998 284.845 296.078 284.895 296.108 284.995C296.148 285.095 296.168 285.235 296.168 285.415C296.168 285.585 296.148 285.725 296.108 285.835C296.078 285.945 295.998 286 295.868 286ZM296.315 286V284.845H298.55L297.935 285.355V278.5H299.21V286H296.315ZM296.315 286C296.185 286 296.105 285.945 296.075 285.835C296.035 285.725 296.015 285.585 296.015 285.415C296.015 285.235 296.035 285.095 296.075 284.995C296.105 284.895 296.185 284.845 296.315 284.845V286ZM297.935 288.775V287.38H299.225V288.775H297.935ZM309.472 289.72C308.672 289.72 307.947 289.57 307.297 289.27C306.657 288.98 306.147 288.57 305.767 288.04C305.397 287.52 305.212 286.925 305.212 286.255C305.212 286.045 305.227 285.77 305.257 285.43C305.297 285.08 305.342 284.695 305.392 284.275C305.452 283.855 305.517 283.43 305.587 283C305.657 282.56 305.722 282.145 305.782 281.755L307.042 281.95C306.932 282.63 306.837 283.265 306.757 283.855C306.677 284.435 306.612 284.93 306.562 285.34C306.522 285.75 306.502 286.055 306.502 286.255C306.502 286.705 306.622 287.1 306.862 287.44C307.112 287.79 307.462 288.065 307.912 288.265C308.362 288.465 308.882 288.565 309.472 288.565C310.062 288.565 310.567 288.47 310.987 288.28C311.407 288.1 311.727 287.84 311.947 287.5C312.167 287.17 312.277 286.785 312.277 286.345V275.26H313.552V286.345C313.552 287.045 313.367 287.645 312.997 288.145C312.637 288.655 312.147 289.045 311.527 289.315C310.917 289.585 310.232 289.72 309.472 289.72ZM317.826 286V284.845H319.641V286H317.826ZM316.551 286V275.26H317.826V286H316.551ZM319.641 286V284.845C319.771 284.845 319.851 284.895 319.881 284.995C319.921 285.095 319.941 285.235 319.941 285.415C319.941 285.585 319.921 285.725 319.881 285.835C319.851 285.945 319.771 286 319.641 286ZM331.322 286V284.845H332.942V286H331.322ZM320.087 286V284.845H331.202L330.047 285.88V282.415C330.047 281.795 329.957 281.285 329.777 280.885C329.607 280.475 329.352 280.17 329.012 279.97C328.682 279.76 328.267 279.655 327.767 279.655C327.327 279.655 326.917 279.73 326.537 279.88C326.167 280.03 325.817 280.225 325.487 280.465C325.167 280.705 324.867 280.97 324.587 281.26C324.317 281.54 324.067 281.825 323.837 282.115C323.607 282.405 323.402 282.67 323.222 282.91L322.832 281.785C323.102 281.455 323.367 281.13 323.627 280.81C323.897 280.49 324.172 280.19 324.452 279.91C324.732 279.63 325.037 279.385 325.367 279.175C325.697 278.965 326.062 278.8 326.462 278.68C326.862 278.56 327.312 278.5 327.812 278.5C328.512 278.5 329.087 278.62 329.537 278.86C329.997 279.09 330.357 279.405 330.617 279.805C330.877 280.195 331.057 280.62 331.157 281.08C331.267 281.53 331.322 281.975 331.322 282.415V286H320.087ZM322.187 284.845V278.5H323.477V284.845H322.187ZM320.087 286C319.957 286 319.877 285.945 319.847 285.835C319.807 285.725 319.787 285.585 319.787 285.415C319.787 285.235 319.807 285.095 319.847 284.995C319.877 284.895 319.957 284.845 320.087 284.845V286ZM332.942 286V284.845C333.072 284.845 333.152 284.895 333.182 284.995C333.222 285.095 333.242 285.235 333.242 285.415C333.242 285.585 333.222 285.725 333.182 285.835C333.152 285.945 333.072 286 332.942 286ZM333.399 286V284.845H335.754L335.124 285.355V278.5H336.414V286H333.399ZM333.399 286C333.269 286 333.189 285.945 333.159 285.835C333.119 285.725 333.099 285.585 333.099 285.415C333.099 285.235 333.119 285.095 333.159 284.995C333.189 284.895 333.269 284.845 333.399 284.845V286ZM333.999 277.21V275.815H335.289V277.21H333.999ZM336.054 277.21V275.815H337.344V277.21H336.054ZM339.492 286V275.26H340.767V286H339.492ZM351.254 289.72C350.454 289.72 349.729 289.57 349.079 289.27C348.439 288.98 347.929 288.57 347.549 288.04C347.179 287.52 346.994 286.925 346.994 286.255C346.994 286.045 347.009 285.77 347.039 285.43C347.079 285.08 347.124 284.695 347.174 284.275C347.234 283.855 347.299 283.43 347.369 283C347.439 282.56 347.504 282.145 347.564 281.755L348.824 281.95C348.714 282.63 348.619 283.265 348.539 283.855C348.459 284.435 348.394 284.93 348.344 285.34C348.304 285.75 348.284 286.055 348.284 286.255C348.284 286.705 348.404 287.1 348.644 287.44C348.894 287.79 349.244 288.065 349.694 288.265C350.144 288.465 350.664 288.565 351.254 288.565C351.844 288.565 352.349 288.47 352.769 288.28C353.189 288.1 353.509 287.84 353.729 287.5C353.949 287.17 354.059 286.785 354.059 286.345V278.5H355.334V286.345C355.334 287.045 355.149 287.645 354.779 288.145C354.419 288.655 353.929 289.045 353.309 289.315C352.699 289.585 352.014 289.72 351.254 289.72ZM350.549 278.425V277.03H351.839V278.425H350.549ZM360.433 289.375C360.073 289.375 359.693 289.345 359.293 289.285C358.903 289.235 358.473 289.16 358.003 289.06L358.198 288.025C358.728 288.095 359.168 288.145 359.518 288.175C359.878 288.205 360.183 288.22 360.433 288.22C361.243 288.22 361.833 288.065 362.203 287.755C362.573 287.445 362.758 286.995 362.758 286.405V279.265L363.343 279.655H360.898C360.348 279.655 359.918 279.725 359.608 279.865C359.308 279.995 359.098 280.245 358.978 280.615C358.858 280.985 358.798 281.53 358.798 282.25C358.798 282.97 358.853 283.515 358.963 283.885C359.083 284.255 359.298 284.51 359.608 284.65C359.918 284.78 360.348 284.845 360.898 284.845H362.758V286H360.898C360.038 286 359.358 285.87 358.858 285.61C358.368 285.34 358.018 284.93 357.808 284.38C357.608 283.82 357.508 283.11 357.508 282.25C357.508 281.4 357.608 280.695 357.808 280.135C358.018 279.575 358.368 279.165 358.858 278.905C359.358 278.635 360.038 278.5 360.898 278.5H364.048V286.39C364.048 287.02 363.903 287.56 363.613 288.01C363.323 288.46 362.908 288.8 362.368 289.03C361.828 289.26 361.183 289.375 360.433 289.375ZM366.205 286V284.845H371.785L370.765 285.745V282.58C370.765 281.84 370.68 281.26 370.51 280.84C370.35 280.41 370.08 280.105 369.7 279.925C369.32 279.745 368.81 279.655 368.17 279.655H366.955V278.5H368.17C368.99 278.5 369.69 278.63 370.27 278.89C370.85 279.14 371.29 279.565 371.59 280.165C371.9 280.755 372.055 281.56 372.055 282.58V286H366.205ZM382.196 286C380.696 286 379.566 285.735 378.806 285.205C378.056 284.665 377.681 283.84 377.681 282.73C377.681 282.49 377.696 282.235 377.726 281.965C377.766 281.685 377.811 281.415 377.861 281.155C377.911 280.885 377.956 280.655 377.996 280.465C378.036 280.265 378.061 280.13 378.071 280.06L379.316 280.3C379.286 280.45 379.241 280.665 379.181 280.945C379.131 281.225 379.081 281.52 379.031 281.83C378.991 282.14 378.971 282.44 378.971 282.73C378.971 283.23 379.076 283.64 379.286 283.96C379.496 284.27 379.836 284.495 380.306 284.635C380.786 284.775 381.421 284.845 382.211 284.845H386.576V278.5H387.851V286H382.196ZM381.101 278.665V277.27H382.391V278.665H381.101ZM383.156 278.665V277.27H384.446V278.665H383.156ZM392.184 286V284.845H393.999V286H392.184ZM390.909 286V275.26H392.184V286H390.909ZM393.999 286V284.845C394.129 284.845 394.209 284.895 394.239 284.995C394.279 285.095 394.299 285.235 394.299 285.415C394.299 285.585 394.279 285.725 394.239 285.835C394.209 285.945 394.129 286 393.999 286ZM394.446 286V284.845H396.621C397.191 284.845 397.741 284.75 398.271 284.56C398.801 284.37 399.286 284.115 399.726 283.795C400.176 283.475 400.566 283.125 400.896 282.745C401.226 282.355 401.481 281.96 401.661 281.56C401.841 281.15 401.931 280.77 401.931 280.42V279.505L402.606 280.54C402.036 280.25 401.471 280.03 400.911 279.88C400.361 279.73 399.821 279.655 399.291 279.655C398.771 279.655 398.231 279.73 397.671 279.88C397.111 280.03 396.551 280.25 395.991 280.54L396.666 279.505V280.42C396.666 280.77 396.756 281.15 396.936 281.56C397.126 281.96 397.381 282.355 397.701 282.745C398.031 283.125 398.416 283.475 398.856 283.795C399.296 284.115 399.781 284.37 400.311 284.56C400.841 284.75 401.396 284.845 401.976 284.845H404.046V286H402.051C401.271 286 400.541 285.875 399.861 285.625C399.181 285.375 398.566 285.045 398.016 284.635C397.466 284.215 396.991 283.76 396.591 283.27C396.201 282.77 395.901 282.275 395.691 281.785C395.481 281.285 395.376 280.83 395.376 280.42V279.52C395.806 279.29 396.246 279.1 396.696 278.95C397.146 278.8 397.591 278.69 398.031 278.62C398.471 278.54 398.891 278.5 399.291 278.5C399.701 278.5 400.126 278.54 400.566 278.62C401.006 278.69 401.446 278.8 401.886 278.95C402.336 279.1 402.776 279.29 403.206 279.52V280.42C403.206 280.83 403.101 281.285 402.891 281.785C402.681 282.275 402.376 282.77 401.976 283.27C401.586 283.76 401.116 284.215 400.566 284.635C400.016 285.045 399.401 285.375 398.721 285.625C398.041 285.875 397.311 286 396.531 286H394.446ZM394.446 286C394.316 286 394.236 285.945 394.206 285.835C394.166 285.725 394.146 285.585 394.146 285.415C394.146 285.235 394.166 285.095 394.206 284.995C394.236 284.895 394.316 284.845 394.446 284.845V286ZM404.046 286V284.845C404.176 284.845 404.256 284.895 404.286 284.995C404.326 285.095 404.346 285.235 404.346 285.415C404.346 285.585 404.326 285.725 404.286 285.835C404.256 285.945 404.176 286 404.046 286ZM407.505 286V284.845H409.155V286H407.505ZM409.155 286V284.845C409.285 284.845 409.365 284.895 409.395 284.995C409.435 285.095 409.455 285.235 409.455 285.415C409.455 285.585 409.435 285.725 409.395 285.835C409.365 285.945 409.285 286 409.155 286ZM404.49 286V284.845H406.845L406.215 285.355V278.5H407.505V286H404.49ZM404.49 286C404.36 286 404.28 285.945 404.25 285.835C404.21 285.725 404.19 285.585 404.19 285.415C404.19 285.235 404.21 285.095 404.25 284.995C404.28 284.895 404.36 284.845 404.49 284.845V286ZM405.09 288.76V287.365H406.38V288.76H405.09ZM407.145 288.76V287.365H408.435V288.76H407.145ZM412.494 286V284.845H414.114V286H412.494ZM409.599 286V284.845H411.834L411.219 285.355V278.5H412.494V286H409.599ZM409.599 286C409.469 286 409.389 285.945 409.359 285.835C409.319 285.725 409.299 285.585 409.299 285.415C409.299 285.235 409.319 285.095 409.359 284.995C409.389 284.895 409.469 284.845 409.599 284.845V286ZM414.114 286V284.845C414.244 284.845 414.324 284.895 414.354 284.995C414.394 285.095 414.414 285.235 414.414 285.415C414.414 285.585 414.394 285.725 414.354 285.835C414.324 285.945 414.244 286 414.114 286ZM411.219 288.775V287.38H412.509V288.775H411.219ZM423.11 286V284.845H424.73V286H423.11ZM414.56 286V284.845H422.705L421.835 285.475V282.325C421.835 281.645 421.755 281.11 421.595 280.72C421.445 280.33 421.18 280.055 420.8 279.895C420.43 279.735 419.925 279.655 419.285 279.655C418.865 279.655 418.45 279.685 418.04 279.745C417.63 279.795 417.31 279.87 417.08 279.97L417.86 279.19C417.8 279.43 417.74 279.735 417.68 280.105C417.62 280.465 417.57 280.855 417.53 281.275C417.49 281.685 417.47 282.095 417.47 282.505C417.47 282.925 417.49 283.34 417.53 283.75C417.57 284.16 417.615 284.515 417.665 284.815C417.715 285.105 417.755 285.31 417.785 285.43L416.57 285.775C416.53 285.645 416.48 285.42 416.42 285.1C416.36 284.78 416.305 284.395 416.255 283.945C416.215 283.495 416.195 283.015 416.195 282.505C416.195 282.015 416.22 281.54 416.27 281.08C416.32 280.61 416.375 280.185 416.435 279.805C416.505 279.425 416.57 279.12 416.63 278.89C416.85 278.8 417.2 278.71 417.68 278.62C418.17 278.53 418.705 278.485 419.285 278.485C420.135 278.485 420.845 278.61 421.415 278.86C421.985 279.11 422.41 279.515 422.69 280.075C422.97 280.635 423.11 281.385 423.11 282.325V286H414.56ZM414.56 286C414.43 286 414.35 285.945 414.32 285.835C414.28 285.725 414.26 285.585 414.26 285.415C414.26 285.235 414.28 285.095 414.32 284.995C414.35 284.895 414.43 284.845 414.56 284.845V286ZM424.73 286V284.845C424.86 284.845 424.94 284.895 424.97 284.995C425.01 285.095 425.03 285.235 425.03 285.415C425.03 285.585 425.01 285.725 424.97 285.835C424.94 285.945 424.86 286 424.73 286ZM426.976 286V275.26H428.266V286H426.976ZM425.176 286V284.845H426.976V286H425.176ZM425.176 286C425.046 286 424.966 285.945 424.936 285.835C424.896 285.725 424.876 285.585 424.876 285.415C424.876 285.235 424.896 285.095 424.936 284.995C424.966 284.895 425.046 284.845 425.176 284.845V286ZM431.27 286V275.26H432.545V286H431.27Z" fill="#222B45"/>
<rect x="445.324" y="274" width="20.0217" height="12.7863" rx="6" fill="#00E096"/>
<path d="M0.964844 161.145H1002.05" stroke="#EFF1F3" stroke-linecap="round"/>
<path d="M0.964844 197.179H1002.05" stroke="#EFF1F3" stroke-linecap="round"/>
<path d="M0.964844 123.949H1002.05" stroke="#EFF1F3" stroke-linecap="round"/>
<path d="M0.964844 86.7521H1002.05" stroke="#EFF1F3" stroke-linecap="round"/>
<path d="M0.964844 49.5553H1002.05" stroke="#EFF1F3" stroke-linecap="round"/>
<path d="M0.964844 12.359H1002.05" stroke="#EFF1F3" stroke-linecap="round"/>
<path d="M1044.33 15.4785V14.3235H1045.95V15.4785H1044.33ZM1035.4 15.4785C1033.9 15.4785 1032.77 15.2135 1032.01 14.6835C1031.26 14.1435 1030.89 13.3185 1030.89 12.2085C1030.89 11.9685 1030.9 11.7135 1030.93 11.4435C1030.97 11.1635 1031.02 10.8935 1031.07 10.6335C1031.12 10.3635 1031.16 10.1335 1031.2 9.94352C1031.24 9.74352 1031.27 9.60852 1031.28 9.53852L1032.52 9.77852C1032.49 9.92852 1032.45 10.1435 1032.39 10.4235C1032.34 10.7035 1032.29 10.9985 1032.24 11.3085C1032.2 11.6185 1032.18 11.9185 1032.18 12.2085C1032.18 12.7085 1032.28 13.1185 1032.49 13.4385C1032.7 13.7485 1033.04 13.9735 1033.51 14.1135C1033.99 14.2535 1034.63 14.3235 1035.42 14.3235H1043.8L1043.05 14.9685V8.63852L1043.65 9.13352H1041.19C1040.63 9.13352 1040.2 9.20352 1039.89 9.34352C1039.58 9.47352 1039.36 9.72852 1039.24 10.1085C1039.13 10.4785 1039.08 11.0185 1039.08 11.7285C1039.08 12.4485 1039.13 12.9935 1039.24 13.3635C1039.36 13.7335 1039.58 13.9885 1039.89 14.1285C1040.2 14.2585 1040.63 14.3235 1041.19 14.3235V15.1935C1040.32 15.1935 1039.64 15.0835 1039.14 14.8635C1038.65 14.6435 1038.3 14.2835 1038.09 13.7835C1037.89 13.2735 1037.79 12.5885 1037.79 11.7285C1037.79 10.8685 1037.89 10.1635 1038.09 9.61352C1038.3 9.05352 1038.65 8.64352 1039.14 8.38352C1039.64 8.11352 1040.32 7.97852 1041.19 7.97852H1044.33V15.4785H1035.4ZM1045.95 15.4785V14.3235C1046.08 14.3235 1046.16 14.3735 1046.19 14.4735C1046.23 14.5735 1046.25 14.7135 1046.25 14.8935C1046.25 15.0635 1046.23 15.2035 1046.19 15.3135C1046.16 15.4235 1046.08 15.4785 1045.95 15.4785ZM1040.77 6.62852V5.23352H1042.06V6.62852H1040.77ZM1047.74 15.4785V4.73852H1049.03V15.4785H1047.74ZM1045.94 15.4785V14.3235H1047.74V15.4785H1045.94ZM1045.94 15.4785C1045.81 15.4785 1045.73 15.4235 1045.7 15.3135C1045.66 15.2035 1045.64 15.0635 1045.64 14.8935C1045.64 14.7135 1045.66 14.5735 1045.7 14.4735C1045.73 14.3735 1045.81 14.3235 1045.94 14.3235V15.4785ZM1051.59 15.4785V4.73852H1052.86V15.4785H1051.59ZM1051.5 3.71852C1051.34 3.51852 1051.21 3.32352 1051.12 3.13352C1051.03 2.93352 1050.99 2.72851 1050.99 2.51852C1050.99 2.21851 1051.06 1.95351 1051.21 1.72351C1051.36 1.48351 1051.56 1.29851 1051.81 1.16851C1052.06 1.02851 1052.33 0.958515 1052.62 0.958515C1052.78 0.958515 1052.94 0.983515 1053.1 1.03351C1053.27 1.07351 1053.42 1.13351 1053.54 1.21352L1053.13 1.93351C1053.05 1.88351 1052.97 1.85351 1052.89 1.84352C1052.82 1.82351 1052.75 1.81351 1052.67 1.81351C1052.44 1.81351 1052.25 1.87851 1052.11 2.00851C1051.98 2.13851 1051.92 2.30852 1051.92 2.51852C1051.92 2.63851 1051.94 2.75851 1051.99 2.87852C1052.05 2.99851 1052.14 3.12851 1052.25 3.26852L1051.5 3.71852ZM1050.7 3.73351V2.89351H1053.75V3.73351H1050.7ZM1058.61 15.4785V14.3835L1061.37 11.4885C1061.79 11.0485 1062.15 10.6585 1062.45 10.3185C1062.75 9.97852 1062.98 9.64352 1063.14 9.31352C1063.3 8.98352 1063.38 8.62852 1063.38 8.24852C1063.38 7.61852 1063.2 7.18852 1062.85 6.95852C1062.51 6.71852 1061.99 6.59852 1061.29 6.59852C1061.03 6.59852 1060.74 6.61852 1060.42 6.65852C1060.11 6.68852 1059.81 6.72852 1059.51 6.77851C1059.22 6.81852 1058.97 6.86352 1058.77 6.91352L1058.67 5.83352C1058.89 5.77352 1059.15 5.71351 1059.46 5.65352C1059.77 5.59352 1060.11 5.54352 1060.48 5.50352C1060.85 5.45352 1061.21 5.42852 1061.56 5.42852C1062.61 5.42852 1063.4 5.64352 1063.93 6.07352C1064.47 6.49352 1064.74 7.16852 1064.74 8.09852C1064.74 8.58852 1064.66 9.03352 1064.5 9.43352C1064.35 9.82352 1064.12 10.2035 1063.81 10.5735C1063.51 10.9435 1063.12 11.3585 1062.64 11.8185L1060.14 14.3385H1064.97V15.4785H1058.61ZM1070.2 15.6135C1069.83 15.6135 1069.43 15.5885 1069.01 15.5385C1068.6 15.4885 1068.21 15.4335 1067.83 15.3735C1067.45 15.3035 1067.13 15.2385 1066.88 15.1785L1067.02 14.1285C1067.27 14.1685 1067.57 14.2185 1067.92 14.2785C1068.28 14.3285 1068.64 14.3735 1069.01 14.4135C1069.39 14.4435 1069.74 14.4585 1070.06 14.4585C1070.72 14.4585 1071.24 14.2735 1071.62 13.9035C1072 13.5335 1072.19 12.9935 1072.19 12.2835C1072.19 11.8035 1072.11 11.4285 1071.94 11.1585C1071.78 10.8785 1071.55 10.6835 1071.25 10.5735C1070.96 10.4535 1070.61 10.3935 1070.21 10.3935C1069.92 10.3935 1069.63 10.4235 1069.33 10.4835C1069.04 10.5435 1068.77 10.6185 1068.53 10.7085C1068.29 10.7885 1068.09 10.8735 1067.93 10.9635L1067.05 10.7985L1067.32 5.57852H1073.15V6.76352H1068.38L1068.13 9.79352C1068.3 9.71352 1068.5 9.63352 1068.74 9.55352C1068.99 9.46352 1069.26 9.38852 1069.54 9.32852C1069.82 9.25852 1070.1 9.22352 1070.38 9.22352C1071.03 9.22352 1071.59 9.32352 1072.06 9.52352C1072.53 9.71352 1072.89 10.0235 1073.15 10.4535C1073.41 10.8835 1073.54 11.4535 1073.54 12.1635C1073.54 12.9335 1073.41 13.5735 1073.14 14.0835C1072.88 14.5935 1072.5 14.9785 1072 15.2385C1071.5 15.4885 1070.9 15.6135 1070.2 15.6135Z" fill="#7B91B0"/>
<path d="M1044.33 53V51.845H1045.95V53H1044.33ZM1035.4 53C1033.9 53 1032.77 52.735 1032.01 52.205C1031.26 51.665 1030.89 50.84 1030.89 49.73C1030.89 49.49 1030.9 49.235 1030.93 48.965C1030.97 48.685 1031.02 48.415 1031.07 48.155C1031.12 47.885 1031.16 47.655 1031.2 47.465C1031.24 47.265 1031.27 47.13 1031.28 47.06L1032.52 47.3C1032.49 47.45 1032.45 47.665 1032.39 47.945C1032.34 48.225 1032.29 48.52 1032.24 48.83C1032.2 49.14 1032.18 49.44 1032.18 49.73C1032.18 50.23 1032.28 50.64 1032.49 50.96C1032.7 51.27 1033.04 51.495 1033.51 51.635C1033.99 51.775 1034.63 51.845 1035.42 51.845H1043.8L1043.05 52.49V46.16L1043.65 46.655H1041.19C1040.63 46.655 1040.2 46.725 1039.89 46.865C1039.58 46.995 1039.36 47.25 1039.24 47.63C1039.13 48 1039.08 48.54 1039.08 49.25C1039.08 49.97 1039.13 50.515 1039.24 50.885C1039.36 51.255 1039.58 51.51 1039.89 51.65C1040.2 51.78 1040.63 51.845 1041.19 51.845V52.715C1040.32 52.715 1039.64 52.605 1039.14 52.385C1038.65 52.165 1038.3 51.805 1038.09 51.305C1037.89 50.795 1037.79 50.11 1037.79 49.25C1037.79 48.39 1037.89 47.685 1038.09 47.135C1038.3 46.575 1038.65 46.165 1039.14 45.905C1039.64 45.635 1040.32 45.5 1041.19 45.5H1044.33V53H1035.4ZM1045.95 53V51.845C1046.08 51.845 1046.16 51.895 1046.19 51.995C1046.23 52.095 1046.25 52.235 1046.25 52.415C1046.25 52.585 1046.23 52.725 1046.19 52.835C1046.16 52.945 1046.08 53 1045.95 53ZM1040.77 44.15V42.755H1042.06V44.15H1040.77ZM1047.74 53V42.26H1049.03V53H1047.74ZM1045.94 53V51.845H1047.74V53H1045.94ZM1045.94 53C1045.81 53 1045.73 52.945 1045.7 52.835C1045.66 52.725 1045.64 52.585 1045.64 52.415C1045.64 52.235 1045.66 52.095 1045.7 51.995C1045.73 51.895 1045.81 51.845 1045.94 51.845V53ZM1051.59 53V42.26H1052.86V53H1051.59ZM1051.5 41.24C1051.34 41.04 1051.21 40.845 1051.12 40.655C1051.03 40.455 1050.99 40.25 1050.99 40.04C1050.99 39.74 1051.06 39.475 1051.21 39.245C1051.36 39.005 1051.56 38.82 1051.81 38.69C1052.06 38.55 1052.33 38.48 1052.62 38.48C1052.78 38.48 1052.94 38.505 1053.1 38.555C1053.27 38.595 1053.42 38.655 1053.54 38.735L1053.13 39.455C1053.05 39.405 1052.97 39.375 1052.89 39.365C1052.82 39.345 1052.75 39.335 1052.67 39.335C1052.44 39.335 1052.25 39.4 1052.11 39.53C1051.98 39.66 1051.92 39.83 1051.92 40.04C1051.92 40.16 1051.94 40.28 1051.99 40.4C1052.05 40.52 1052.14 40.65 1052.25 40.79L1051.5 41.24ZM1050.7 41.255V40.415H1053.75V41.255H1050.7ZM1058.61 53V51.905L1061.37 49.01C1061.79 48.57 1062.15 48.18 1062.45 47.84C1062.75 47.5 1062.98 47.165 1063.14 46.835C1063.3 46.505 1063.38 46.15 1063.38 45.77C1063.38 45.14 1063.2 44.71 1062.85 44.48C1062.51 44.24 1061.99 44.12 1061.29 44.12C1061.03 44.12 1060.74 44.14 1060.42 44.18C1060.11 44.21 1059.81 44.25 1059.51 44.3C1059.22 44.34 1058.97 44.385 1058.77 44.435L1058.67 43.355C1058.89 43.295 1059.15 43.235 1059.46 43.175C1059.77 43.115 1060.11 43.065 1060.48 43.025C1060.85 42.975 1061.21 42.95 1061.56 42.95C1062.61 42.95 1063.4 43.165 1063.93 43.595C1064.47 44.015 1064.74 44.69 1064.74 45.62C1064.74 46.11 1064.66 46.555 1064.5 46.955C1064.35 47.345 1064.12 47.725 1063.81 48.095C1063.51 48.465 1063.12 48.88 1062.64 49.34L1060.14 51.86H1064.97V53H1058.61ZM1070.17 53.15C1069.59 53.15 1069.07 53.07 1068.62 52.91C1068.17 52.75 1067.79 52.48 1067.47 52.1C1067.16 51.72 1066.92 51.21 1066.76 50.57C1066.6 49.93 1066.52 49.135 1066.52 48.185C1066.52 47.185 1066.6 46.345 1066.75 45.665C1066.91 44.985 1067.14 44.445 1067.45 44.045C1067.77 43.645 1068.16 43.36 1068.61 43.19C1069.06 43.02 1069.57 42.935 1070.15 42.935C1070.75 42.935 1071.28 43.02 1071.73 43.19C1072.18 43.36 1072.55 43.645 1072.85 44.045C1073.16 44.445 1073.4 44.985 1073.56 45.665C1073.72 46.335 1073.8 47.175 1073.8 48.185C1073.8 49.445 1073.65 50.435 1073.36 51.155C1073.07 51.875 1072.66 52.39 1072.12 52.7C1071.59 53 1070.94 53.15 1070.17 53.15ZM1070.17 51.995C1070.54 51.995 1070.86 51.94 1071.14 51.83C1071.43 51.71 1071.67 51.51 1071.86 51.23C1072.05 50.94 1072.19 50.55 1072.28 50.06C1072.38 49.56 1072.43 48.935 1072.43 48.185C1072.43 47.375 1072.39 46.71 1072.3 46.19C1072.21 45.66 1072.07 45.24 1071.88 44.93C1071.7 44.62 1071.46 44.405 1071.17 44.285C1070.89 44.155 1070.56 44.09 1070.17 44.09C1069.78 44.09 1069.44 44.155 1069.15 44.285C1068.87 44.405 1068.63 44.62 1068.44 44.93C1068.25 45.23 1068.11 45.645 1068.01 46.175C1067.92 46.705 1067.87 47.38 1067.87 48.2C1067.87 48.95 1067.92 49.575 1068.02 50.075C1068.12 50.565 1068.27 50.95 1068.47 51.23C1068.67 51.51 1068.91 51.71 1069.19 51.83C1069.47 51.94 1069.8 51.995 1070.17 51.995Z" fill="#7B91B0"/>
<path d="M1045 127V125.845H1046.62V127H1045ZM1036.07 127C1034.57 127 1033.44 126.735 1032.68 126.205C1031.93 125.665 1031.56 124.84 1031.56 123.73C1031.56 123.49 1031.57 123.235 1031.6 122.965C1031.64 122.685 1031.69 122.415 1031.74 122.155C1031.79 121.885 1031.83 121.655 1031.87 121.465C1031.91 121.265 1031.94 121.13 1031.95 121.06L1033.19 121.3C1033.16 121.45 1033.12 121.665 1033.06 121.945C1033.01 122.225 1032.96 122.52 1032.91 122.83C1032.87 123.14 1032.85 123.44 1032.85 123.73C1032.85 124.23 1032.95 124.64 1033.16 124.96C1033.37 125.27 1033.71 125.495 1034.18 125.635C1034.66 125.775 1035.3 125.845 1036.09 125.845H1044.47L1043.72 126.49V120.16L1044.32 120.655H1041.86C1041.3 120.655 1040.87 120.725 1040.56 120.865C1040.25 120.995 1040.03 121.25 1039.91 121.63C1039.8 122 1039.75 122.54 1039.75 123.25C1039.75 123.97 1039.8 124.515 1039.91 124.885C1040.03 125.255 1040.25 125.51 1040.56 125.65C1040.87 125.78 1041.3 125.845 1041.86 125.845V126.715C1040.99 126.715 1040.31 126.605 1039.81 126.385C1039.32 126.165 1038.97 125.805 1038.76 125.305C1038.56 124.795 1038.46 124.11 1038.46 123.25C1038.46 122.39 1038.56 121.685 1038.76 121.135C1038.97 120.575 1039.32 120.165 1039.81 119.905C1040.31 119.635 1040.99 119.5 1041.86 119.5H1045V127H1036.07ZM1046.62 127V125.845C1046.75 125.845 1046.83 125.895 1046.86 125.995C1046.9 126.095 1046.92 126.235 1046.92 126.415C1046.92 126.585 1046.9 126.725 1046.86 126.835C1046.83 126.945 1046.75 127 1046.62 127ZM1041.44 118.15V116.755H1042.73V118.15H1041.44ZM1048.41 127V116.26H1049.7V127H1048.41ZM1046.61 127V125.845H1048.41V127H1046.61ZM1046.61 127C1046.48 127 1046.4 126.945 1046.37 126.835C1046.33 126.725 1046.31 126.585 1046.31 126.415C1046.31 126.235 1046.33 126.095 1046.37 125.995C1046.4 125.895 1046.48 125.845 1046.61 125.845V127ZM1052.25 127V116.26H1053.53V127H1052.25ZM1052.16 115.24C1052 115.04 1051.88 114.845 1051.79 114.655C1051.7 114.455 1051.65 114.25 1051.65 114.04C1051.65 113.74 1051.73 113.475 1051.88 113.245C1052.03 113.005 1052.23 112.82 1052.48 112.69C1052.73 112.55 1053 112.48 1053.29 112.48C1053.45 112.48 1053.61 112.505 1053.77 112.555C1053.94 112.595 1054.08 112.655 1054.2 112.735L1053.8 113.455C1053.72 113.405 1053.64 113.375 1053.56 113.365C1053.49 113.345 1053.41 113.335 1053.33 113.335C1053.1 113.335 1052.92 113.4 1052.78 113.53C1052.65 113.66 1052.58 113.83 1052.58 114.04C1052.58 114.16 1052.61 114.28 1052.66 114.4C1052.72 114.52 1052.8 114.65 1052.91 114.79L1052.16 115.24ZM1051.37 115.255V114.415H1054.41V115.255H1051.37ZM1062.85 127V118.555L1060.36 120.19L1059.79 119.2L1062.95 117.1H1064.17V127H1062.85ZM1070.83 127.15C1070.25 127.15 1069.74 127.07 1069.29 126.91C1068.84 126.75 1068.45 126.48 1068.13 126.1C1067.82 125.72 1067.59 125.21 1067.43 124.57C1067.27 123.93 1067.19 123.135 1067.19 122.185C1067.19 121.185 1067.26 120.345 1067.41 119.665C1067.57 118.985 1067.81 118.445 1068.12 118.045C1068.44 117.645 1068.82 117.36 1069.27 117.19C1069.72 117.02 1070.24 116.935 1070.82 116.935C1071.42 116.935 1071.94 117.02 1072.39 117.19C1072.84 117.36 1073.22 117.645 1073.52 118.045C1073.83 118.445 1074.06 118.985 1074.22 119.665C1074.38 120.335 1074.46 121.175 1074.46 122.185C1074.46 123.445 1074.32 124.435 1074.03 125.155C1073.74 125.875 1073.32 126.39 1072.78 126.7C1072.25 127 1071.6 127.15 1070.83 127.15ZM1070.83 125.995C1071.2 125.995 1071.53 125.94 1071.81 125.83C1072.1 125.71 1072.34 125.51 1072.53 125.23C1072.72 124.94 1072.86 124.55 1072.95 124.06C1073.05 123.56 1073.1 122.935 1073.1 122.185C1073.1 121.375 1073.05 120.71 1072.96 120.19C1072.87 119.66 1072.73 119.24 1072.54 118.93C1072.36 118.62 1072.13 118.405 1071.84 118.285C1071.56 118.155 1071.22 118.09 1070.83 118.09C1070.44 118.09 1070.1 118.155 1069.81 118.285C1069.53 118.405 1069.3 118.62 1069.11 118.93C1068.92 119.23 1068.77 119.645 1068.67 120.175C1068.58 120.705 1068.54 121.38 1068.54 122.2C1068.54 122.95 1068.59 123.575 1068.69 124.075C1068.79 124.565 1068.94 124.95 1069.14 125.23C1069.34 125.51 1069.58 125.71 1069.86 125.83C1070.14 125.94 1070.46 125.995 1070.83 125.995Z" fill="#7B91B0"/>
<path d="M1045 90V88.845H1046.62V90H1045ZM1036.07 90C1034.57 90 1033.44 89.735 1032.68 89.205C1031.93 88.665 1031.56 87.84 1031.56 86.73C1031.56 86.49 1031.57 86.235 1031.6 85.965C1031.64 85.685 1031.69 85.415 1031.74 85.155C1031.79 84.885 1031.83 84.655 1031.87 84.465C1031.91 84.265 1031.94 84.13 1031.95 84.06L1033.19 84.3C1033.16 84.45 1033.12 84.665 1033.06 84.945C1033.01 85.225 1032.96 85.52 1032.91 85.83C1032.87 86.14 1032.85 86.44 1032.85 86.73C1032.85 87.23 1032.95 87.64 1033.16 87.96C1033.37 88.27 1033.71 88.495 1034.18 88.635C1034.66 88.775 1035.3 88.845 1036.09 88.845H1044.47L1043.72 89.49V83.16L1044.32 83.655H1041.86C1041.3 83.655 1040.87 83.725 1040.56 83.865C1040.25 83.995 1040.03 84.25 1039.91 84.63C1039.8 85 1039.75 85.54 1039.75 86.25C1039.75 86.97 1039.8 87.515 1039.91 87.885C1040.03 88.255 1040.25 88.51 1040.56 88.65C1040.87 88.78 1041.3 88.845 1041.86 88.845V89.715C1040.99 89.715 1040.31 89.605 1039.81 89.385C1039.32 89.165 1038.97 88.805 1038.76 88.305C1038.56 87.795 1038.46 87.11 1038.46 86.25C1038.46 85.39 1038.56 84.685 1038.76 84.135C1038.97 83.575 1039.32 83.165 1039.81 82.905C1040.31 82.635 1040.99 82.5 1041.86 82.5H1045V90H1036.07ZM1046.62 90V88.845C1046.75 88.845 1046.83 88.895 1046.86 88.995C1046.9 89.095 1046.92 89.235 1046.92 89.415C1046.92 89.585 1046.9 89.725 1046.86 89.835C1046.83 89.945 1046.75 90 1046.62 90ZM1041.44 81.15V79.755H1042.73V81.15H1041.44ZM1048.41 90V79.26H1049.7V90H1048.41ZM1046.61 90V88.845H1048.41V90H1046.61ZM1046.61 90C1046.48 90 1046.4 89.945 1046.37 89.835C1046.33 89.725 1046.31 89.585 1046.31 89.415C1046.31 89.235 1046.33 89.095 1046.37 88.995C1046.4 88.895 1046.48 88.845 1046.61 88.845V90ZM1052.25 90V79.26H1053.53V90H1052.25ZM1052.16 78.24C1052 78.04 1051.88 77.845 1051.79 77.655C1051.7 77.455 1051.65 77.25 1051.65 77.04C1051.65 76.74 1051.73 76.475 1051.88 76.245C1052.03 76.005 1052.23 75.82 1052.48 75.69C1052.73 75.55 1053 75.48 1053.29 75.48C1053.45 75.48 1053.61 75.505 1053.77 75.555C1053.94 75.595 1054.08 75.655 1054.2 75.735L1053.8 76.455C1053.72 76.405 1053.64 76.375 1053.56 76.365C1053.49 76.345 1053.41 76.335 1053.33 76.335C1053.1 76.335 1052.92 76.4 1052.78 76.53C1052.65 76.66 1052.58 76.83 1052.58 77.04C1052.58 77.16 1052.61 77.28 1052.66 77.4C1052.72 77.52 1052.8 77.65 1052.91 77.79L1052.16 78.24ZM1051.37 78.255V77.415H1054.41V78.255H1051.37ZM1062.85 90V81.555L1060.36 83.19L1059.79 82.2L1062.95 80.1H1064.17V90H1062.85ZM1070.86 90.135C1070.49 90.135 1070.1 90.11 1069.68 90.06C1069.27 90.01 1068.87 89.955 1068.49 89.895C1068.11 89.825 1067.8 89.76 1067.55 89.7L1067.68 88.65C1067.93 88.69 1068.23 88.74 1068.58 88.8C1068.94 88.85 1069.31 88.895 1069.68 88.935C1070.06 88.965 1070.41 88.98 1070.73 88.98C1071.39 88.98 1071.91 88.795 1072.29 88.425C1072.67 88.055 1072.86 87.515 1072.86 86.805C1072.86 86.325 1072.77 85.95 1072.6 85.68C1072.44 85.4 1072.21 85.205 1071.91 85.095C1071.62 84.975 1071.28 84.915 1070.88 84.915C1070.59 84.915 1070.29 84.945 1069.99 85.005C1069.7 85.065 1069.44 85.14 1069.2 85.23C1068.96 85.31 1068.76 85.395 1068.6 85.485L1067.71 85.32L1067.98 80.1H1073.82V81.285H1069.05L1068.79 84.315C1068.96 84.235 1069.17 84.155 1069.41 84.075C1069.66 83.985 1069.92 83.91 1070.2 83.85C1070.48 83.78 1070.76 83.745 1071.04 83.745C1071.69 83.745 1072.25 83.845 1072.72 84.045C1073.19 84.235 1073.56 84.545 1073.82 84.975C1074.08 85.405 1074.21 85.975 1074.21 86.685C1074.21 87.455 1074.07 88.095 1073.8 88.605C1073.54 89.115 1073.16 89.5 1072.66 89.76C1072.16 90.01 1071.56 90.135 1070.86 90.135Z" fill="#7B91B0"/>
<path d="M1043 164V162.845H1044.62V164H1043ZM1039.39 167.375C1039.03 167.375 1038.65 167.345 1038.25 167.285C1037.86 167.235 1037.43 167.16 1036.96 167.06L1037.15 166.025C1037.68 166.095 1038.12 166.145 1038.47 166.175C1038.83 166.205 1039.14 166.22 1039.39 166.22C1040.2 166.22 1040.79 166.065 1041.16 165.755C1041.53 165.445 1041.71 164.995 1041.71 164.405V157.265L1042.3 157.655H1039.85C1039.3 157.655 1038.87 157.725 1038.56 157.865C1038.26 157.995 1038.05 158.245 1037.93 158.615C1037.81 158.985 1037.75 159.53 1037.75 160.25C1037.75 160.97 1037.81 161.515 1037.92 161.885C1038.04 162.255 1038.25 162.51 1038.56 162.65C1038.87 162.78 1039.3 162.845 1039.85 162.845H1041.71V164H1039.85C1038.99 164 1038.31 163.87 1037.81 163.61C1037.32 163.34 1036.97 162.93 1036.76 162.38C1036.56 161.82 1036.46 161.11 1036.46 160.25C1036.46 159.4 1036.56 158.695 1036.76 158.135C1036.97 157.575 1037.32 157.165 1037.81 156.905C1038.31 156.635 1038.99 156.5 1039.85 156.5H1043V164.39C1043 165.02 1042.86 165.56 1042.57 166.01C1042.28 166.46 1041.86 166.8 1041.32 167.03C1040.78 167.26 1040.14 167.375 1039.39 167.375ZM1044.62 164V162.845C1044.75 162.845 1044.83 162.895 1044.86 162.995C1044.9 163.095 1044.92 163.235 1044.92 163.415C1044.92 163.585 1044.9 163.725 1044.86 163.835C1044.83 163.945 1044.75 164 1044.62 164ZM1047.71 164V162.845H1049.32V164H1047.71ZM1046.42 164V153.26H1047.71V164H1046.42ZM1044.62 164V162.845H1046.42V164H1044.62ZM1044.62 164C1044.49 164 1044.41 163.945 1044.38 163.835C1044.34 163.725 1044.32 163.585 1044.32 163.415C1044.32 163.235 1044.34 163.095 1044.38 162.995C1044.41 162.895 1044.49 162.845 1044.62 162.845V164ZM1049.32 164V162.845C1049.45 162.845 1049.53 162.895 1049.56 162.995C1049.6 163.095 1049.62 163.235 1049.62 163.415C1049.62 163.585 1049.6 163.725 1049.56 163.835C1049.53 163.945 1049.45 164 1049.32 164ZM1052.34 164V162.845H1053.99V164H1052.34ZM1053.99 164V162.845C1054.12 162.845 1054.2 162.895 1054.23 162.995C1054.27 163.095 1054.29 163.235 1054.29 163.415C1054.29 163.585 1054.27 163.725 1054.23 163.835C1054.2 163.945 1054.12 164 1053.99 164ZM1049.33 164V162.845H1051.68L1051.05 163.355V156.5H1052.34V164H1049.33ZM1049.33 164C1049.2 164 1049.12 163.945 1049.09 163.835C1049.05 163.725 1049.03 163.585 1049.03 163.415C1049.03 163.235 1049.05 163.095 1049.09 162.995C1049.12 162.895 1049.2 162.845 1049.33 162.845V164ZM1049.93 166.76V165.365H1051.22V166.76H1049.93ZM1051.98 166.76V165.365H1053.27V166.76H1051.98ZM1053.98 164V162.845H1061.48L1061.03 163.235V160.655C1061.03 160.115 1060.96 159.675 1060.82 159.335C1060.68 158.985 1060.47 158.725 1060.19 158.555C1059.92 158.385 1059.58 158.3 1059.16 158.3H1055.89L1054.97 156.935L1055.63 155.66C1055.75 155.45 1055.87 155.235 1055.99 155.015C1056.12 154.785 1056.28 154.52 1056.47 154.22C1056.66 153.92 1056.9 153.555 1057.19 153.125L1058.26 153.77C1057.98 154.2 1057.75 154.56 1057.57 154.85C1057.39 155.13 1057.24 155.375 1057.12 155.585C1057 155.785 1056.88 155.99 1056.77 156.2L1056.04 157.595L1055.74 157.13H1059.16C1059.79 157.13 1060.31 157.24 1060.72 157.46C1061.13 157.67 1061.45 157.955 1061.68 158.315C1061.92 158.665 1062.08 159.045 1062.17 159.455C1062.27 159.865 1062.32 160.265 1062.32 160.655V164H1053.98ZM1053.98 164C1053.85 164 1053.77 163.945 1053.74 163.835C1053.7 163.725 1053.68 163.585 1053.68 163.415C1053.68 163.235 1053.7 163.095 1053.74 162.995C1053.77 162.895 1053.85 162.845 1053.98 162.845V164ZM1070.96 164.135C1070.59 164.135 1070.19 164.11 1069.77 164.06C1069.36 164.01 1068.97 163.955 1068.59 163.895C1068.21 163.825 1067.89 163.76 1067.64 163.7L1067.78 162.65C1068.03 162.69 1068.33 162.74 1068.68 162.8C1069.04 162.85 1069.4 162.895 1069.77 162.935C1070.15 162.965 1070.5 162.98 1070.82 162.98C1071.48 162.98 1072 162.795 1072.38 162.425C1072.76 162.055 1072.95 161.515 1072.95 160.805C1072.95 160.325 1072.87 159.95 1072.7 159.68C1072.54 159.4 1072.31 159.205 1072.01 159.095C1071.72 158.975 1071.37 158.915 1070.97 158.915C1070.68 158.915 1070.39 158.945 1070.09 159.005C1069.8 159.065 1069.53 159.14 1069.29 159.23C1069.05 159.31 1068.85 159.395 1068.69 159.485L1067.81 159.32L1068.08 154.1H1073.91V155.285H1069.14L1068.89 158.315C1069.06 158.235 1069.26 158.155 1069.5 158.075C1069.75 157.985 1070.02 157.91 1070.3 157.85C1070.58 157.78 1070.86 157.745 1071.14 157.745C1071.79 157.745 1072.35 157.845 1072.82 158.045C1073.29 158.235 1073.65 158.545 1073.91 158.975C1074.17 159.405 1074.3 159.975 1074.3 160.685C1074.3 161.455 1074.17 162.095 1073.9 162.605C1073.64 163.115 1073.26 163.5 1072.76 163.76C1072.26 164.01 1071.66 164.135 1070.96 164.135Z" fill="#7B91B0"/>
<path d="M1071.07 201.15C1070.49 201.15 1069.97 201.07 1069.52 200.91C1069.07 200.75 1068.69 200.48 1068.37 200.1C1068.06 199.72 1067.82 199.21 1067.66 198.57C1067.5 197.93 1067.42 197.135 1067.42 196.185C1067.42 195.185 1067.5 194.345 1067.65 193.665C1067.81 192.985 1068.04 192.445 1068.35 192.045C1068.67 191.645 1069.06 191.36 1069.51 191.19C1069.96 191.02 1070.47 190.935 1071.05 190.935C1071.65 190.935 1072.18 191.02 1072.63 191.19C1073.08 191.36 1073.45 191.645 1073.75 192.045C1074.06 192.445 1074.3 192.985 1074.46 193.665C1074.62 194.335 1074.7 195.175 1074.7 196.185C1074.7 197.445 1074.55 198.435 1074.26 199.155C1073.97 199.875 1073.56 200.39 1073.02 200.7C1072.49 201 1071.84 201.15 1071.07 201.15ZM1071.07 199.995C1071.44 199.995 1071.76 199.94 1072.04 199.83C1072.33 199.71 1072.57 199.51 1072.76 199.23C1072.95 198.94 1073.09 198.55 1073.18 198.06C1073.28 197.56 1073.33 196.935 1073.33 196.185C1073.33 195.375 1073.29 194.71 1073.2 194.19C1073.11 193.66 1072.97 193.24 1072.78 192.93C1072.6 192.62 1072.36 192.405 1072.07 192.285C1071.79 192.155 1071.46 192.09 1071.07 192.09C1070.68 192.09 1070.34 192.155 1070.05 192.285C1069.77 192.405 1069.53 192.62 1069.34 192.93C1069.15 193.23 1069.01 193.645 1068.91 194.175C1068.82 194.705 1068.77 195.38 1068.77 196.2C1068.77 196.95 1068.82 197.575 1068.92 198.075C1069.02 198.565 1069.17 198.95 1069.37 199.23C1069.57 199.51 1069.81 199.71 1070.09 199.83C1070.37 199.94 1070.7 199.995 1071.07 199.995Z" fill="#7B91B0"/>
<path d="M926.086 229V222H927.276V228.398L926.702 227.922H928.83V229H926.086ZM923.062 224.464V223.372H926.086V224.464H923.062ZM919.254 232.472C918.507 232.472 917.83 232.332 917.224 232.052C916.626 231.781 916.15 231.399 915.796 230.904C915.45 230.419 915.278 229.863 915.278 229.238C915.278 229.042 915.292 228.785 915.32 228.468C915.357 228.141 915.399 227.782 915.446 227.39C915.502 226.998 915.562 226.601 915.628 226.2C915.693 225.789 915.754 225.402 915.81 225.038L916.986 225.22C916.883 225.855 916.794 226.447 916.72 226.998C916.645 227.539 916.584 228.001 916.538 228.384C916.5 228.767 916.482 229.051 916.482 229.238C916.482 229.658 916.594 230.027 916.818 230.344C917.051 230.671 917.378 230.927 917.798 231.114C918.218 231.301 918.703 231.394 919.254 231.394C919.804 231.394 920.276 231.305 920.668 231.128C921.06 230.96 921.358 230.717 921.564 230.4C921.769 230.092 921.872 229.733 921.872 229.322V222H923.062V229.322C923.062 229.975 922.889 230.535 922.544 231.002C922.208 231.478 921.75 231.842 921.172 232.094C920.602 232.346 919.963 232.472 919.254 232.472ZM918.596 221.93V220.614H919.8V221.93H918.596ZM928.83 229V227.922C928.942 227.922 929.016 227.969 929.054 228.062C929.091 228.155 929.11 228.286 929.11 228.454C929.11 228.613 929.091 228.743 929.054 228.846C929.016 228.949 928.942 229 928.83 229ZM925.064 231.576V230.274H926.268V231.576H925.064ZM926.982 231.576V230.274H928.186V231.576H926.982ZM931.529 229V227.922H933.041V229H931.529ZM928.827 229V227.922H930.913L930.339 228.398V222H931.529V229H928.827ZM928.827 229C928.706 229 928.631 228.949 928.603 228.846C928.566 228.743 928.547 228.613 928.547 228.454C928.547 228.286 928.566 228.155 928.603 228.062C928.631 227.969 928.706 227.922 928.827 227.922V229ZM933.041 229V227.922C933.162 227.922 933.237 227.969 933.265 228.062C933.302 228.155 933.321 228.286 933.321 228.454C933.321 228.613 933.302 228.743 933.265 228.846C933.237 228.949 933.162 229 933.041 229ZM930.339 220.74V219.438H931.543V220.74H930.339ZM933.038 229V227.922H935.236L934.648 228.398V222H935.852V229H933.038ZM933.038 229C932.917 229 932.842 228.949 932.814 228.846C932.777 228.743 932.758 228.613 932.758 228.454C932.758 228.286 932.777 228.155 932.814 228.062C932.842 227.969 932.917 227.922 933.038 227.922V229ZM934.69 218.85V217.632H935.782V218.85H934.69ZM933.64 220.74V219.438H934.83V220.74H933.64ZM935.642 220.74V219.438H936.832V220.74H935.642ZM937.535 229V227.922H944.423L943.765 228.594V218.976H944.969V229H937.535ZM939.733 227.922V220.964H940.923V227.922H939.733ZM939.649 232.822C939.5 232.635 939.383 232.449 939.299 232.262C939.215 232.085 939.173 231.898 939.173 231.702C939.173 231.422 939.243 231.17 939.383 230.946C939.523 230.731 939.71 230.559 939.943 230.428C940.177 230.307 940.429 230.246 940.699 230.246C940.849 230.246 940.998 230.265 941.147 230.302C941.306 230.349 941.441 230.409 941.553 230.484L941.175 231.156C941.101 231.109 941.026 231.077 940.951 231.058C940.886 231.049 940.816 231.044 940.741 231.044C940.527 231.044 940.354 231.105 940.223 231.226C940.102 231.347 940.041 231.506 940.041 231.702C940.041 231.814 940.065 231.926 940.111 232.038C940.167 232.15 940.247 232.271 940.349 232.402L939.649 232.822ZM938.907 232.836V232.052H941.749V232.836H938.907ZM947.411 229V218.976H948.601V229H947.411Z" fill="#7B91B0"/>
<path d="M766.978 229.149C766.605 228.729 766.325 228.309 766.138 227.889C765.961 227.469 765.872 227.016 765.872 226.531C765.872 226.064 765.956 225.635 766.124 225.243C766.301 224.842 766.539 224.496 766.838 224.207C767.146 223.918 767.501 223.694 767.902 223.535C768.303 223.376 768.737 223.297 769.204 223.297C769.549 223.297 769.885 223.344 770.212 223.437C770.539 223.53 770.837 223.661 771.108 223.829L770.464 224.739C770.091 224.496 769.675 224.375 769.218 224.375C768.798 224.375 768.425 224.468 768.098 224.655C767.781 224.842 767.529 225.098 767.342 225.425C767.155 225.742 767.062 226.111 767.062 226.531C767.062 226.867 767.127 227.189 767.258 227.497C767.389 227.805 767.594 228.118 767.874 228.435L766.978 229.149ZM765.2 229.359V228.281H771.766V229.359H765.2ZM774.844 229.359V228.281H776.538V229.359H774.844ZM773.654 229.359V219.335H774.844V229.359H773.654ZM776.538 229.359V228.281C776.659 228.281 776.734 228.328 776.762 228.421C776.799 228.514 776.818 228.645 776.818 228.813C776.818 228.972 776.799 229.102 776.762 229.205C776.734 229.308 776.659 229.359 776.538 229.359ZM776.535 229.359V228.281H778.733L778.145 228.757V222.359H779.349V229.359H776.535ZM776.535 229.359C776.413 229.359 776.339 229.308 776.311 229.205C776.273 229.102 776.255 228.972 776.255 228.813C776.255 228.645 776.273 228.514 776.311 228.421C776.339 228.328 776.413 228.281 776.535 228.281V229.359ZM778.187 219.209V217.991H779.279V219.209H778.187ZM777.137 221.099V219.797H778.327V221.099H777.137ZM779.139 221.099V219.797H780.329V221.099H779.139ZM788.466 229.359V228.281H789.964V229.359H788.466ZM781.032 229.359V228.281H787.92L787.262 228.953V219.335H788.466V229.359H781.032ZM783.23 228.281V221.323H784.42V228.281H783.23ZM789.964 229.359V228.281C790.085 228.281 790.16 228.328 790.188 228.421C790.225 228.514 790.244 228.645 790.244 228.813C790.244 228.972 790.225 229.102 790.188 229.205C790.16 229.308 790.085 229.359 789.964 229.359ZM792.774 229.359V228.281H794.314V229.359H792.774ZM794.314 229.359V228.281C794.436 228.281 794.51 228.328 794.538 228.421C794.576 228.514 794.594 228.645 794.594 228.813C794.594 228.972 794.576 229.102 794.538 229.205C794.51 229.308 794.436 229.359 794.314 229.359ZM789.96 229.359V228.281H792.158L791.57 228.757V222.359H792.774V229.359H789.96ZM789.96 229.359C789.839 229.359 789.764 229.308 789.736 229.205C789.699 229.102 789.68 228.972 789.68 228.813C789.68 228.645 789.699 228.514 789.736 228.421C789.764 228.328 789.839 228.281 789.96 228.281V229.359ZM791.612 219.209V217.991H792.704V219.209H791.612ZM790.562 221.099V219.797H791.752V221.099H790.562ZM792.564 221.099V219.797H793.754V221.099H792.564ZM795.988 229.359V219.335H797.192V229.359H795.988ZM794.308 229.359V228.281H795.988V229.359H794.308ZM794.308 229.359C794.187 229.359 794.112 229.308 794.084 229.205C794.047 229.102 794.028 228.972 794.028 228.813C794.028 228.645 794.047 228.514 794.084 228.421C794.112 228.328 794.187 228.281 794.308 228.281V229.359ZM799.576 229.359V219.335H800.766V229.359H799.576Z" fill="#7B91B0"/>
<path d="M625.414 229.149C625.041 228.729 624.761 228.309 624.574 227.889C624.397 227.469 624.308 227.016 624.308 226.531C624.308 226.064 624.392 225.635 624.56 225.243C624.737 224.842 624.975 224.496 625.274 224.207C625.582 223.918 625.937 223.694 626.338 223.535C626.739 223.376 627.173 223.297 627.64 223.297C627.985 223.297 628.321 223.344 628.648 223.437C628.975 223.53 629.273 223.661 629.544 223.829L628.9 224.739C628.527 224.496 628.111 224.375 627.654 224.375C627.234 224.375 626.861 224.468 626.534 224.655C626.217 224.842 625.965 225.098 625.778 225.425C625.591 225.742 625.498 226.111 625.498 226.531C625.498 226.867 625.563 227.189 625.694 227.497C625.825 227.805 626.03 228.118 626.31 228.435L625.414 229.149ZM623.636 229.359V228.281H630.202V229.359H623.636ZM633.28 229.359V228.281H634.974V229.359H633.28ZM632.09 229.359V219.335H633.28V229.359H632.09ZM634.974 229.359V228.281C635.095 228.281 635.17 228.328 635.198 228.421C635.235 228.514 635.254 228.645 635.254 228.813C635.254 228.972 635.235 229.102 635.198 229.205C635.17 229.308 635.095 229.359 634.974 229.359ZM634.971 229.359V228.281H637.001C637.533 228.281 638.046 228.192 638.541 228.015C639.035 227.838 639.488 227.6 639.899 227.301C640.319 227.002 640.683 226.676 640.991 226.321C641.299 225.957 641.537 225.588 641.705 225.215C641.873 224.832 641.957 224.478 641.957 224.151V223.297L642.587 224.263C642.055 223.992 641.527 223.787 641.005 223.647C640.491 223.507 639.987 223.437 639.493 223.437C639.007 223.437 638.503 223.507 637.981 223.647C637.458 223.787 636.935 223.992 636.413 224.263L637.043 223.297V224.151C637.043 224.478 637.127 224.832 637.295 225.215C637.472 225.588 637.71 225.957 638.009 226.321C638.317 226.676 638.676 227.002 639.087 227.301C639.497 227.6 639.95 227.838 640.445 228.015C640.939 228.192 641.457 228.281 641.999 228.281H643.931V229.359H642.069C641.341 229.359 640.659 229.242 640.025 229.009C639.39 228.776 638.816 228.468 638.303 228.085C637.789 227.693 637.346 227.268 636.973 226.811C636.609 226.344 636.329 225.882 636.133 225.425C635.937 224.958 635.839 224.534 635.839 224.151V223.311C636.24 223.096 636.651 222.919 637.071 222.779C637.491 222.639 637.906 222.536 638.317 222.471C638.727 222.396 639.119 222.359 639.493 222.359C639.875 222.359 640.272 222.396 640.683 222.471C641.093 222.536 641.504 222.639 641.915 222.779C642.335 222.919 642.745 223.096 643.147 223.311V224.151C643.147 224.534 643.049 224.958 642.853 225.425C642.657 225.882 642.372 226.344 641.999 226.811C641.635 227.268 641.196 227.693 640.683 228.085C640.169 228.468 639.595 228.776 638.961 229.009C638.326 229.242 637.645 229.359 636.917 229.359H634.971ZM634.971 229.359C634.849 229.359 634.775 229.308 634.747 229.205C634.709 229.102 634.691 228.972 634.691 228.813C634.691 228.645 634.709 228.514 634.747 228.421C634.775 228.328 634.849 228.281 634.971 228.281V229.359ZM643.931 229.359V228.281C644.052 228.281 644.127 228.328 644.155 228.421C644.192 228.514 644.211 228.645 644.211 228.813C644.211 228.972 644.192 229.102 644.155 229.205C644.127 229.308 644.052 229.359 643.931 229.359ZM643.926 229.359V228.281H646.012L645.438 228.757V222.359H646.628V229.359H643.926ZM643.926 229.359C643.804 229.359 643.73 229.308 643.702 229.205C643.664 229.102 643.646 228.972 643.646 228.813C643.646 228.645 643.664 228.514 643.702 228.421C643.73 228.328 643.804 228.281 643.926 228.281V229.359ZM645.438 231.949V230.647H646.642V231.949H645.438ZM647.936 232.509C647.814 232.509 647.688 232.5 647.558 232.481C647.418 232.472 647.282 232.462 647.152 232.453L647.264 231.375C647.394 231.384 647.52 231.394 647.642 231.403C647.754 231.422 647.852 231.431 647.936 231.431C648.365 231.431 648.71 231.268 648.972 230.941C649.233 230.614 649.364 230.162 649.364 229.583V222.359H650.568V229.583C650.568 230.162 650.456 230.67 650.232 231.109C650.008 231.557 649.695 231.902 649.294 232.145C648.902 232.388 648.449 232.509 647.936 232.509ZM652.115 229.359V228.281H659.003L658.345 228.953V219.335H659.549V229.359H652.115ZM654.313 228.281V221.323H655.503V228.281H654.313ZM654.229 220.357C654.079 220.17 653.963 219.988 653.879 219.811C653.795 219.624 653.753 219.433 653.753 219.237C653.753 218.957 653.823 218.71 653.963 218.495C654.103 218.271 654.289 218.098 654.523 217.977C654.756 217.846 655.008 217.781 655.279 217.781C655.428 217.781 655.577 217.804 655.727 217.851C655.885 217.888 656.021 217.944 656.133 218.019L655.755 218.691C655.68 218.644 655.605 218.616 655.531 218.607C655.465 218.588 655.395 218.579 655.321 218.579C655.106 218.579 654.933 218.64 654.803 218.761C654.681 218.882 654.621 219.041 654.621 219.237C654.621 219.349 654.644 219.461 654.691 219.573C654.747 219.685 654.826 219.806 654.929 219.937L654.229 220.357ZM653.487 220.371V219.587H656.329V220.371H653.487ZM661.99 229.359V219.335H663.18V229.359H661.99Z" fill="#7B91B0"/>
<path d="M489.842 229.359V228.281H491.354V229.359H489.842ZM478.278 232.831C477.532 232.831 476.855 232.691 476.248 232.411C475.651 232.14 475.175 231.758 474.82 231.263C474.475 230.778 474.302 230.222 474.302 229.597C474.302 229.401 474.316 229.144 474.344 228.827C474.382 228.5 474.424 228.141 474.47 227.749C474.526 227.357 474.587 226.96 474.652 226.559C474.718 226.148 474.778 225.761 474.834 225.397L476.01 225.579C475.908 226.214 475.819 226.806 475.744 227.357C475.67 227.898 475.609 228.36 475.562 228.743C475.525 229.126 475.506 229.41 475.506 229.597C475.506 230.017 475.618 230.386 475.842 230.703C476.076 231.03 476.402 231.286 476.822 231.473C477.242 231.66 477.728 231.753 478.278 231.753C478.829 231.753 479.3 231.664 479.692 231.487C480.084 231.319 480.383 231.076 480.588 230.759C480.794 230.451 480.896 230.092 480.896 229.681V223.759H482.086V229.681C482.086 230.334 481.914 230.894 481.568 231.361C481.232 231.837 480.775 232.201 480.196 232.453C479.627 232.705 478.988 232.831 478.278 232.831ZM482.086 229.359V228.281H483.598C483.916 228.281 484.158 228.234 484.326 228.141C484.494 228.048 484.611 227.861 484.676 227.581C484.742 227.301 484.774 226.89 484.774 226.349V223.059H485.964V226.349C485.964 227.086 485.88 227.679 485.712 228.127C485.554 228.566 485.302 228.883 484.956 229.079C484.611 229.266 484.158 229.359 483.598 229.359H482.086ZM486.636 229.359C486.31 229.359 485.988 229.298 485.67 229.177C485.362 229.046 485.064 228.85 484.774 228.589L485.544 227.777C485.759 227.954 485.95 228.085 486.118 228.169C486.296 228.244 486.468 228.281 486.636 228.281H489.156L488.652 228.785V225.467C488.652 225.308 488.634 225.075 488.596 224.767C488.559 224.459 488.508 224.114 488.442 223.731C488.386 223.339 488.321 222.947 488.246 222.555L489.422 222.359C489.488 222.686 489.553 223.05 489.618 223.451C489.684 223.852 489.735 224.235 489.772 224.599C489.819 224.963 489.842 225.252 489.842 225.467V229.359H486.636ZM491.354 229.359V228.281C491.476 228.281 491.55 228.328 491.578 228.421C491.616 228.514 491.634 228.645 491.634 228.813C491.634 228.972 491.616 229.102 491.578 229.205C491.55 229.308 491.476 229.359 491.354 229.359ZM494.166 229.359V228.281H495.706V229.359H494.166ZM495.706 229.359V228.281C495.827 228.281 495.902 228.328 495.93 228.421C495.967 228.514 495.986 228.645 495.986 228.813C495.986 228.972 495.967 229.102 495.93 229.205C495.902 229.308 495.827 229.359 495.706 229.359ZM491.352 229.359V228.281H493.55L492.962 228.757V222.359H494.166V229.359H491.352ZM491.352 229.359C491.23 229.359 491.156 229.308 491.128 229.205C491.09 229.102 491.072 228.972 491.072 228.813C491.072 228.645 491.09 228.514 491.128 228.421C491.156 228.328 491.23 228.281 491.352 228.281V229.359ZM491.912 231.935V230.633H493.116V231.935H491.912ZM493.83 231.935V230.633H495.034V231.935H493.83ZM503.679 229.359V228.281H505.191V229.359H503.679ZM495.699 229.359V228.281H503.301L502.489 228.869V225.929C502.489 225.294 502.415 224.795 502.265 224.431C502.125 224.067 501.878 223.81 501.523 223.661C501.178 223.512 500.707 223.437 500.109 223.437C499.717 223.437 499.33 223.465 498.947 223.521C498.565 223.568 498.266 223.638 498.051 223.731L498.779 223.003C498.723 223.227 498.667 223.512 498.611 223.857C498.555 224.193 498.509 224.557 498.471 224.949C498.434 225.332 498.415 225.714 498.415 226.097C498.415 226.489 498.434 226.876 498.471 227.259C498.509 227.642 498.551 227.973 498.597 228.253C498.644 228.524 498.681 228.715 498.709 228.827L497.575 229.149C497.538 229.028 497.491 228.818 497.435 228.519C497.379 228.22 497.328 227.861 497.281 227.441C497.244 227.021 497.225 226.573 497.225 226.097C497.225 225.64 497.249 225.196 497.295 224.767C497.342 224.328 497.393 223.932 497.449 223.577C497.515 223.222 497.575 222.938 497.631 222.723C497.837 222.639 498.163 222.555 498.611 222.471C499.069 222.387 499.568 222.345 500.109 222.345C500.903 222.345 501.565 222.462 502.097 222.695C502.629 222.928 503.026 223.306 503.287 223.829C503.549 224.352 503.679 225.052 503.679 225.929V229.359H495.699ZM495.699 229.359C495.578 229.359 495.503 229.308 495.475 229.205C495.438 229.102 495.419 228.972 495.419 228.813C495.419 228.645 495.438 228.514 495.475 228.421C495.503 228.328 495.578 228.281 495.699 228.281V229.359ZM505.191 229.359V228.281C505.313 228.281 505.387 228.328 505.415 228.421C505.453 228.514 505.471 228.645 505.471 228.813C505.471 228.972 505.453 229.102 505.415 229.205C505.387 229.308 505.313 229.359 505.191 229.359ZM512.16 229.359V228.281H513.672V229.359H512.16ZM505.188 229.359V228.281H511.334L510.97 228.603V225.257C510.97 224.65 510.778 224.198 510.396 223.899C510.022 223.6 509.453 223.451 508.688 223.451C508.445 223.451 508.1 223.474 507.652 223.521C507.213 223.558 506.746 223.61 506.252 223.675L506.112 222.709C506.494 222.616 506.91 222.536 507.358 222.471C507.815 222.396 508.258 222.359 508.688 222.359C509.397 222.359 510.013 222.471 510.536 222.695C511.058 222.919 511.46 223.246 511.74 223.675C512.02 224.104 512.16 224.632 512.16 225.257V229.359H505.188ZM505.188 229.359C505.066 229.359 504.992 229.308 504.964 229.205C504.926 229.102 504.908 228.972 504.908 228.813C504.908 228.645 504.926 228.514 504.964 228.421C504.992 228.328 505.066 228.281 505.188 228.281V229.359ZM513.672 229.359V228.281C513.793 228.281 513.868 228.328 513.896 228.421C513.933 228.514 513.952 228.645 513.952 228.813C513.952 228.972 513.933 229.102 513.896 229.205C513.868 229.308 513.793 229.359 513.672 229.359ZM508.086 221.379V220.077H509.29V221.379H508.086ZM515.358 229.359V219.335H516.562V229.359H515.358ZM513.678 229.359V228.281H515.358V229.359H513.678ZM513.678 229.359C513.556 229.359 513.482 229.308 513.454 229.205C513.416 229.102 513.398 228.972 513.398 228.813C513.398 228.645 513.416 228.514 513.454 228.421C513.482 228.328 513.556 228.281 513.678 228.281V229.359ZM518.945 229.359V219.335H520.135V229.359H518.945Z" fill="#7B91B0"/>
<path d="M341.478 229.359C340.676 229.359 340.041 229.238 339.574 228.995C339.117 228.743 338.79 228.36 338.594 227.847C338.408 227.324 338.314 226.662 338.314 225.859C338.314 225.066 338.408 224.408 338.594 223.885C338.79 223.362 339.117 222.98 339.574 222.737C340.041 222.485 340.676 222.359 341.478 222.359H344.418V228.757H343.214V222.975L343.76 223.437H341.478C340.965 223.437 340.564 223.502 340.274 223.633C339.994 223.754 339.798 223.988 339.686 224.333C339.574 224.678 339.518 225.187 339.518 225.859C339.518 226.531 339.57 227.04 339.672 227.385C339.784 227.73 339.985 227.968 340.274 228.099C340.564 228.22 340.965 228.281 341.478 228.281H345.93V229.359H341.478ZM345.93 229.359V228.281C346.052 228.281 346.126 228.328 346.154 228.421C346.192 228.514 346.21 228.645 346.21 228.813C346.21 228.972 346.192 229.102 346.154 229.205C346.126 229.308 346.052 229.359 345.93 229.359ZM340.078 221.155V219.853H341.282V221.155H340.078ZM341.996 221.155V219.853H343.2V221.155H341.996ZM345.93 229.359V228.281H347.96C348.492 228.281 349.005 228.192 349.5 228.015C349.995 227.838 350.447 227.6 350.858 227.301C351.278 227.002 351.642 226.676 351.95 226.321C352.258 225.957 352.496 225.588 352.664 225.215C352.832 224.832 352.916 224.478 352.916 224.151V223.297L353.546 224.263C353.014 223.992 352.487 223.787 351.964 223.647C351.451 223.507 350.947 223.437 350.452 223.437C349.967 223.437 349.463 223.507 348.94 223.647C348.417 223.787 347.895 223.992 347.372 224.263L348.002 223.297V224.151C348.002 224.478 348.086 224.832 348.254 225.215C348.431 225.588 348.669 225.957 348.968 226.321C349.276 226.676 349.635 227.002 350.046 227.301C350.457 227.6 350.909 227.838 351.404 228.015C351.899 228.192 352.417 228.281 352.958 228.281H354.89V229.359H353.028C352.3 229.359 351.619 229.242 350.984 229.009C350.349 228.776 349.775 228.468 349.262 228.085C348.749 227.693 348.305 227.268 347.932 226.811C347.568 226.344 347.288 225.882 347.092 225.425C346.896 224.958 346.798 224.534 346.798 224.151V223.311C347.199 223.096 347.61 222.919 348.03 222.779C348.45 222.639 348.865 222.536 349.276 222.471C349.687 222.396 350.079 222.359 350.452 222.359C350.835 222.359 351.231 222.396 351.642 222.471C352.053 222.536 352.463 222.639 352.874 222.779C353.294 222.919 353.705 223.096 354.106 223.311V224.151C354.106 224.534 354.008 224.958 353.812 225.425C353.616 225.882 353.331 226.344 352.958 226.811C352.594 227.268 352.155 227.693 351.642 228.085C351.129 228.468 350.555 228.776 349.92 229.009C349.285 229.242 348.604 229.359 347.876 229.359H345.93ZM345.93 229.359C345.809 229.359 345.734 229.308 345.706 229.205C345.669 229.102 345.65 228.972 345.65 228.813C345.65 228.645 345.669 228.514 345.706 228.421C345.734 228.328 345.809 228.281 345.93 228.281V229.359ZM354.89 229.359V228.281C355.011 228.281 355.086 228.328 355.114 228.421C355.151 228.514 355.17 228.645 355.17 228.813C355.17 228.972 355.151 229.102 355.114 229.205C355.086 229.308 355.011 229.359 354.89 229.359ZM362.865 229.359V228.281H364.377V229.359H362.865ZM354.885 229.359V228.281H362.487L361.675 228.869V225.929C361.675 225.294 361.6 224.795 361.451 224.431C361.311 224.067 361.064 223.81 360.709 223.661C360.364 223.512 359.892 223.437 359.295 223.437C358.903 223.437 358.516 223.465 358.133 223.521C357.75 223.568 357.452 223.638 357.237 223.731L357.965 223.003C357.909 223.227 357.853 223.512 357.797 223.857C357.741 224.193 357.694 224.557 357.657 224.949C357.62 225.332 357.601 225.714 357.601 226.097C357.601 226.489 357.62 226.876 357.657 227.259C357.694 227.642 357.736 227.973 357.783 228.253C357.83 228.524 357.867 228.715 357.895 228.827L356.761 229.149C356.724 229.028 356.677 228.818 356.621 228.519C356.565 228.22 356.514 227.861 356.467 227.441C356.43 227.021 356.411 226.573 356.411 226.097C356.411 225.64 356.434 225.196 356.481 224.767C356.528 224.328 356.579 223.932 356.635 223.577C356.7 223.222 356.761 222.938 356.817 222.723C357.022 222.639 357.349 222.555 357.797 222.471C358.254 222.387 358.754 222.345 359.295 222.345C360.088 222.345 360.751 222.462 361.283 222.695C361.815 222.928 362.212 223.306 362.473 223.829C362.734 224.352 362.865 225.052 362.865 225.929V229.359H354.885ZM354.885 229.359C354.764 229.359 354.689 229.308 354.661 229.205C354.624 229.102 354.605 228.972 354.605 228.813C354.605 228.645 354.624 228.514 354.661 228.421C354.689 228.328 354.764 228.281 354.885 228.281V229.359ZM364.377 229.359V228.281C364.498 228.281 364.573 228.328 364.601 228.421C364.638 228.514 364.657 228.645 364.657 228.813C364.657 228.972 364.638 229.102 364.601 229.205C364.573 229.308 364.498 229.359 364.377 229.359ZM371.345 229.359V228.281H372.857V229.359H371.345ZM364.373 229.359V228.281H370.519L370.155 228.603V225.257C370.155 224.65 369.964 224.198 369.581 223.899C369.208 223.6 368.639 223.451 367.873 223.451C367.631 223.451 367.285 223.474 366.837 223.521C366.399 223.558 365.932 223.61 365.437 223.675L365.297 222.709C365.68 222.616 366.095 222.536 366.543 222.471C367.001 222.396 367.444 222.359 367.873 222.359C368.583 222.359 369.199 222.471 369.721 222.695C370.244 222.919 370.645 223.246 370.925 223.675C371.205 224.104 371.345 224.632 371.345 225.257V229.359H364.373ZM364.373 229.359C364.252 229.359 364.177 229.308 364.149 229.205C364.112 229.102 364.093 228.972 364.093 228.813C364.093 228.645 364.112 228.514 364.149 228.421C364.177 228.328 364.252 228.281 364.373 228.281V229.359ZM372.857 229.359V228.281C372.979 228.281 373.053 228.328 373.081 228.421C373.119 228.514 373.137 228.645 373.137 228.813C373.137 228.972 373.119 229.102 373.081 229.205C373.053 229.308 372.979 229.359 372.857 229.359ZM367.299 231.949V230.647H368.503V231.949H367.299ZM374.544 229.359V219.335H375.748V229.359H374.544ZM372.864 229.359V228.281H374.544V229.359H372.864ZM372.864 229.359C372.742 229.359 372.668 229.308 372.64 229.205C372.602 229.102 372.584 228.972 372.584 228.813C372.584 228.645 372.602 228.514 372.64 228.421C372.668 228.328 372.742 228.281 372.864 228.281V229.359ZM378.131 229.359V219.335H379.321V229.359H378.131Z" fill="#7B91B0"/>
<path d="M208.798 229.359V228.281H210.31V229.359H208.798ZM203.52 229.359C202.12 229.359 201.065 229.112 200.356 228.617C199.656 228.113 199.306 227.343 199.306 226.307C199.306 226.083 199.32 225.845 199.348 225.593C199.385 225.332 199.427 225.08 199.474 224.837C199.521 224.585 199.563 224.37 199.6 224.193C199.637 224.006 199.661 223.88 199.67 223.815L200.832 224.039C200.804 224.179 200.762 224.38 200.706 224.641C200.659 224.902 200.613 225.178 200.566 225.467C200.529 225.756 200.51 226.036 200.51 226.307C200.51 226.774 200.608 227.156 200.804 227.455C201 227.744 201.317 227.954 201.756 228.085C202.204 228.216 202.797 228.281 203.534 228.281H207.608V222.359H208.798V229.359H203.52ZM210.31 229.359V228.281C210.431 228.281 210.506 228.328 210.534 228.421C210.571 228.514 210.59 228.645 210.59 228.813C210.59 228.972 210.571 229.102 210.534 229.205C210.506 229.308 210.431 229.359 210.31 229.359ZM202.498 222.513V221.211H203.702V222.513H202.498ZM204.416 222.513V221.211H205.62V222.513H204.416ZM213.014 229.359V228.281H214.526V229.359H213.014ZM210.312 229.359V228.281H212.398L211.824 228.757V222.359H213.014V229.359H210.312ZM210.312 229.359C210.191 229.359 210.116 229.308 210.088 229.205C210.051 229.102 210.032 228.972 210.032 228.813C210.032 228.645 210.051 228.514 210.088 228.421C210.116 228.328 210.191 228.281 210.312 228.281V229.359ZM214.526 229.359V228.281C214.648 228.281 214.722 228.328 214.75 228.421C214.788 228.514 214.806 228.645 214.806 228.813C214.806 228.972 214.788 229.102 214.75 229.205C214.722 229.308 214.648 229.359 214.526 229.359ZM211.824 231.949V230.647H213.028V231.949H211.824ZM225.219 229.359V228.281H226.731V229.359H225.219ZM222.013 229.359C221.687 229.359 221.365 229.298 221.047 229.177C220.73 229.046 220.431 228.85 220.151 228.589L220.921 227.777C221.136 227.954 221.327 228.085 221.495 228.169C221.663 228.244 221.836 228.281 222.013 228.281H224.519L224.015 228.785V225.467C224.015 225.308 223.997 225.075 223.959 224.767C223.931 224.459 223.885 224.114 223.819 223.731C223.763 223.339 223.693 222.947 223.609 222.555L224.785 222.359C224.851 222.686 224.916 223.05 224.981 223.451C225.047 223.852 225.103 224.235 225.149 224.599C225.196 224.963 225.219 225.252 225.219 225.467V229.359H222.013ZM214.523 229.359V228.281H216.567L216.273 228.575V223.759H217.449V229.359H214.523ZM217.449 229.359V228.281H218.975C219.293 228.281 219.531 228.234 219.689 228.141C219.857 228.048 219.974 227.861 220.039 227.581C220.105 227.301 220.137 226.89 220.137 226.349V223.059H221.327V226.349C221.327 227.086 221.248 227.679 221.089 228.127C220.931 228.566 220.679 228.883 220.333 229.079C219.988 229.266 219.535 229.359 218.975 229.359H217.449ZM214.523 229.359C214.402 229.359 214.327 229.308 214.299 229.205C214.262 229.102 214.243 228.972 214.243 228.813C214.243 228.645 214.262 228.514 214.299 228.421C214.327 228.328 214.402 228.281 214.523 228.281V229.359ZM226.731 229.359V228.281C226.853 228.281 226.927 228.328 226.955 228.421C226.993 228.514 227.011 228.645 227.011 228.813C227.011 228.972 226.993 229.102 226.955 229.205C226.927 229.308 226.853 229.359 226.731 229.359ZM228.412 229.359V219.335H229.616V229.359H228.412ZM226.732 229.359V228.281H228.412V229.359H226.732ZM226.732 229.359C226.611 229.359 226.536 229.308 226.508 229.205C226.471 229.102 226.452 228.972 226.452 228.813C226.452 228.645 226.471 228.514 226.508 228.421C226.536 228.328 226.611 228.281 226.732 228.281V229.359ZM232 229.359V219.335H233.19V229.359H232Z" fill="#7B91B0"/>
<path d="M58.1297 229.359V228.281H59.6277V229.359H58.1297ZM52.6697 229.359V228.281H57.8777L56.9257 229.121V226.167C56.9257 225.476 56.8463 224.935 56.6877 224.543C56.5383 224.142 56.2863 223.857 55.9317 223.689C55.577 223.521 55.101 223.437 54.5037 223.437H53.3697V222.359H54.5037C55.269 222.359 55.9223 222.48 56.4637 222.723C57.005 222.956 57.4157 223.353 57.6957 223.913C57.985 224.464 58.1297 225.215 58.1297 226.167V229.359H52.6697ZM59.6277 229.359V228.281C59.749 228.281 59.8237 228.328 59.8517 228.421C59.889 228.514 59.9077 228.645 59.9077 228.813C59.9077 228.972 59.889 229.102 59.8517 229.205C59.8237 229.308 59.749 229.359 59.6277 229.359ZM59.6292 229.359V228.281H65.7752L65.4112 228.603V225.257C65.4112 224.65 65.2199 224.198 64.8372 223.899C64.4639 223.6 63.8945 223.451 63.1292 223.451C62.8865 223.451 62.5412 223.474 62.0932 223.521C61.6545 223.558 61.1879 223.61 60.6932 223.675L60.5532 222.709C60.9359 222.616 61.3512 222.536 61.7992 222.471C62.2565 222.396 62.6999 222.359 63.1292 222.359C63.8385 222.359 64.4545 222.471 64.9772 222.695C65.4999 222.919 65.9012 223.246 66.1812 223.675C66.4612 224.104 66.6012 224.632 66.6012 225.257V229.359H59.6292ZM59.6292 229.359C59.5079 229.359 59.4332 229.308 59.4052 229.205C59.3679 229.102 59.3492 228.972 59.3492 228.813C59.3492 228.645 59.3679 228.514 59.4052 228.421C59.4332 228.328 59.5079 228.281 59.6292 228.281V229.359ZM67.9958 229.359V228.281H74.8838L74.2258 228.953V219.335H75.4298V229.359H67.9958ZM70.1938 228.281V221.323H71.3838V228.281H70.1938ZM70.1098 220.357C69.9605 220.17 69.8438 219.988 69.7598 219.811C69.6758 219.624 69.6338 219.433 69.6338 219.237C69.6338 218.957 69.7038 218.71 69.8438 218.495C69.9838 218.271 70.1705 218.098 70.4038 217.977C70.6372 217.846 70.8892 217.781 71.1598 217.781C71.3092 217.781 71.4585 217.804 71.6078 217.851C71.7665 217.888 71.9018 217.944 72.0138 218.019L71.6358 218.691C71.5612 218.644 71.4865 218.616 71.4118 218.607C71.3465 218.588 71.2765 218.579 71.2018 218.579C70.9872 218.579 70.8145 218.64 70.6838 218.761C70.5625 218.882 70.5018 219.041 70.5018 219.237C70.5018 219.349 70.5252 219.461 70.5718 219.573C70.6278 219.685 70.7072 219.806 70.8098 219.937L70.1098 220.357ZM69.3678 220.371V219.587H72.2098V220.371H69.3678ZM77.8713 229.359V219.335H79.0613V229.359H77.8713Z" fill="#7B91B0"/>
<rect x="907.402" y="94.3076" width="21.8419" height="102.291" rx="2" fill="#0095FF"/>
<rect x="936.525" y="103.607" width="21.8419" height="92.9914" rx="2" fill="#00E096"/>
<rect x="758.15" y="71.0596" width="21.8419" height="125.538" rx="2" fill="#0095FF"/>
<rect x="787.271" y="109.418" width="21.8419" height="87.1795" rx="2" fill="#00E096"/>
<rect x="616.178" y="154.752" width="21.8419" height="41.8462" rx="2" fill="#0095FF"/>
<rect x="645.299" y="29.2136" width="21.8419" height="167.385" rx="2" fill="#00E096"/>
<rect x="472.385" y="80.3589" width="21.8419" height="116.239" rx="2" fill="#0095FF"/>
<rect x="501.506" y="150.103" width="21.8419" height="46.4957" rx="2" fill="#00E096"/>
<rect x="332.234" y="108.256" width="21.8419" height="88.3419" rx="2" fill="#0095FF"/>
<rect x="361.355" y="114.068" width="21.8419" height="82.5299" rx="2" fill="#00E096"/>
<rect x="192.082" y="73.3845" width="21.8419" height="123.214" rx="2" fill="#0095FF"/>
<rect x="221.205" y="97.7949" width="21.8419" height="98.8034" rx="2" fill="#00E096"/>
<rect x="42.8281" y="40.8374" width="21.8419" height="155.761" rx="2" fill="#0095FF"/>
<rect x="71.9512" y="115.23" width="21.8419" height="81.3675" rx="2" fill="#00E096"/>
</svg>
