<svg width="521" height="169" viewBox="0 0 521 169" fill="none" xmlns="http://www.w3.org/2000/svg">
<path d="M486.884 165.678V164.677H488.548V165.678H486.884ZM484.713 168.603C484.6 168.603 484.483 168.594 484.362 168.577C484.232 168.568 484.106 168.56 483.985 168.551L484.089 167.55C484.21 167.559 484.327 167.567 484.44 167.576C484.544 167.593 484.635 167.602 484.713 167.602C485.112 167.602 485.432 167.45 485.675 167.147C485.918 166.844 486.039 166.423 486.039 165.886V159.178H487.157V165.886C487.157 166.423 487.053 166.896 486.845 167.303C486.637 167.719 486.347 168.04 485.974 168.265C485.61 168.49 485.19 168.603 484.713 168.603ZM488.548 165.678V164.677C488.661 164.677 488.73 164.72 488.756 164.807C488.791 164.894 488.808 165.015 488.808 165.171C488.808 165.318 488.791 165.44 488.756 165.535C488.73 165.63 488.661 165.678 488.548 165.678ZM488.543 165.678V164.677H490.584L490.038 165.119V159.178H491.156V165.678H488.543ZM488.543 165.678C488.431 165.678 488.361 165.63 488.335 165.535C488.301 165.44 488.283 165.318 488.283 165.171C488.283 165.015 488.301 164.894 488.335 164.807C488.361 164.72 488.431 164.677 488.543 164.677V165.678ZM489.063 168.07V166.861H490.181V168.07H489.063ZM490.844 168.07V166.861H491.962V168.07H490.844ZM494.539 165.678V164.677H496.112V165.678H494.539ZM493.434 165.678V156.37H494.539V165.678H493.434ZM496.112 165.678V164.677C496.225 164.677 496.294 164.72 496.32 164.807C496.355 164.894 496.372 165.015 496.372 165.171C496.372 165.318 496.355 165.44 496.32 165.535C496.294 165.63 496.225 165.678 496.112 165.678ZM498.619 165.678V164.677H500.023V165.678H498.619ZM496.11 165.678V164.677H498.047L497.514 165.119V159.178H498.619V165.678H496.11ZM496.11 165.678C495.997 165.678 495.928 165.63 495.902 165.535C495.867 165.44 495.85 165.318 495.85 165.171C495.85 165.015 495.867 164.894 495.902 164.807C495.928 164.72 495.997 164.677 496.11 164.677V165.678ZM500.023 165.678V164.677C500.135 164.677 500.205 164.72 500.231 164.807C500.265 164.894 500.283 165.015 500.283 165.171C500.283 165.318 500.265 165.44 500.231 165.535C500.205 165.63 500.135 165.678 500.023 165.678ZM497.514 158.008V156.799H498.632V158.008H497.514ZM500.02 165.678V164.677H502.061L501.515 165.119V159.178H502.633V165.678H500.02ZM500.02 165.678C499.907 165.678 499.838 165.63 499.812 165.535C499.777 165.44 499.76 165.318 499.76 165.171C499.76 165.015 499.777 164.894 499.812 164.807C499.838 164.72 499.907 164.677 500.02 164.677V165.678ZM500.54 168.07V166.861H501.658V168.07H500.54ZM502.321 168.07V166.861H503.439V168.07H502.321Z" fill="#7B91B0"/>
<rect x="495.199" y="33.8042" width="24.8455" height="110.236" rx="4" fill="#FFCF00"/>
<rect x="464.143" y="59.0876" width="24.8455" height="84.9522" rx="4" fill="#4AB58E"/>
<path d="M405.848 165.678V164.677H407.512V165.678H405.848ZM403.677 168.603C403.564 168.603 403.447 168.594 403.326 168.577C403.196 168.568 403.07 168.559 402.949 168.551L403.053 167.55C403.174 167.558 403.291 167.567 403.404 167.576C403.508 167.593 403.599 167.602 403.677 167.602C404.075 167.602 404.396 167.45 404.639 167.147C404.881 166.843 405.003 166.423 405.003 165.886V159.178H406.121V165.886C406.121 166.423 406.017 166.895 405.809 167.303C405.601 167.719 405.31 168.039 404.938 168.265C404.574 168.49 404.153 168.603 403.677 168.603ZM407.512 165.678V164.677C407.624 164.677 407.694 164.72 407.72 164.807C407.754 164.893 407.772 165.015 407.772 165.171C407.772 165.318 407.754 165.439 407.72 165.535C407.694 165.63 407.624 165.678 407.512 165.678ZM407.507 165.678V164.677H409.548L409.002 165.119V159.178H410.12V165.678H407.507ZM407.507 165.678C407.394 165.678 407.325 165.63 407.299 165.535C407.264 165.439 407.247 165.318 407.247 165.171C407.247 165.015 407.264 164.893 407.299 164.807C407.325 164.72 407.394 164.677 407.507 164.677V165.678ZM408.027 168.07V166.861H409.145V168.07H408.027ZM409.808 168.07V166.861H410.926V168.07H409.808ZM412.398 165.678V156.37H413.503V165.678H412.398ZM420.151 165.678V159.178H421.269V165.119L420.723 164.677H422.66V165.678H420.151ZM417.356 161.466V160.452H420.151V161.466H417.356ZM414.912 168.603C414.799 168.603 414.682 168.594 414.561 168.577C414.431 168.568 414.305 168.559 414.184 168.551L414.288 167.55C414.409 167.558 414.526 167.567 414.639 167.576C414.743 167.593 414.834 167.602 414.912 167.602C415.311 167.602 415.631 167.45 415.874 167.147C416.117 166.843 416.238 166.423 416.238 165.886V159.178H417.356V165.886C417.356 166.423 417.252 166.895 417.044 167.303C416.836 167.719 416.546 168.039 416.173 168.265C415.809 168.49 415.389 168.603 414.912 168.603ZM422.66 165.678V164.677C422.773 164.677 422.842 164.72 422.868 164.807C422.903 164.893 422.92 165.015 422.92 165.171C422.92 165.318 422.903 165.439 422.868 165.535C422.842 165.63 422.773 165.678 422.66 165.678ZM420.151 168.083V166.874H421.269V168.083H420.151ZM422.665 165.678V164.677H429.165L428.502 165.236V159.75L429.022 160.179H426.89C426.405 160.179 426.028 160.239 425.759 160.361C425.499 160.473 425.317 160.694 425.213 161.024C425.118 161.344 425.07 161.812 425.07 162.428C425.07 163.052 425.118 163.524 425.213 163.845C425.317 164.165 425.499 164.386 425.759 164.508C426.028 164.62 426.405 164.677 426.89 164.677V165.431C426.145 165.431 425.555 165.335 425.122 165.145C424.697 164.954 424.394 164.642 424.212 164.209C424.039 163.767 423.952 163.173 423.952 162.428C423.952 161.682 424.039 161.071 424.212 160.595C424.394 160.109 424.697 159.754 425.122 159.529C425.555 159.295 426.145 159.178 426.89 159.178H429.62V165.678H422.665ZM422.665 165.678C422.552 165.678 422.483 165.63 422.457 165.535C422.422 165.439 422.405 165.318 422.405 165.171C422.405 165.015 422.422 164.893 422.457 164.807C422.483 164.72 422.552 164.677 422.665 164.677V165.678ZM426.526 158.008V156.799H427.644V158.008H426.526Z" fill="#7B91B0"/>
<rect x="417.332" y="43.9175" width="24.8455" height="100.122" rx="4" fill="#FFCF00"/>
<rect x="386.275" y="70.2122" width="24.8455" height="73.8275" rx="4" fill="#4AB58E"/>
<path d="M327.652 168.902C326.959 168.902 326.33 168.772 325.767 168.512C325.212 168.261 324.77 167.905 324.441 167.446C324.12 166.995 323.96 166.48 323.96 165.899C323.96 165.717 323.973 165.479 323.999 165.184C324.034 164.881 324.073 164.547 324.116 164.183C324.168 163.819 324.224 163.451 324.285 163.078C324.346 162.697 324.402 162.337 324.454 161.999L325.546 162.168C325.451 162.757 325.368 163.308 325.299 163.819C325.23 164.322 325.173 164.751 325.13 165.106C325.095 165.461 325.078 165.726 325.078 165.899C325.078 166.289 325.182 166.631 325.39 166.926C325.607 167.229 325.91 167.468 326.3 167.641C326.69 167.814 327.141 167.901 327.652 167.901C328.163 167.901 328.601 167.819 328.965 167.654C329.329 167.498 329.606 167.273 329.797 166.978C329.988 166.692 330.083 166.358 330.083 165.977V160.478H331.188V165.977C331.188 166.584 331.028 167.104 330.707 167.537C330.395 167.979 329.97 168.317 329.433 168.551C328.904 168.785 328.311 168.902 327.652 168.902ZM331.188 165.678V164.677H332.592C332.887 164.677 333.112 164.634 333.268 164.547C333.424 164.46 333.532 164.287 333.593 164.027C333.654 163.767 333.684 163.386 333.684 162.883V159.828H334.789V162.883C334.789 163.568 334.711 164.118 334.555 164.534C334.408 164.941 334.174 165.236 333.853 165.418C333.532 165.591 333.112 165.678 332.592 165.678H331.188ZM335.413 165.678C335.11 165.678 334.811 165.622 334.516 165.509C334.23 165.388 333.953 165.206 333.684 164.963L334.399 164.209C334.598 164.374 334.776 164.495 334.932 164.573C335.097 164.642 335.257 164.677 335.413 164.677H337.753L337.285 165.145V162.064C337.285 161.917 337.268 161.7 337.233 161.414C337.198 161.128 337.151 160.807 337.09 160.452C337.038 160.088 336.977 159.724 336.908 159.36L338 159.178C338.061 159.481 338.121 159.819 338.182 160.192C338.243 160.565 338.29 160.92 338.325 161.258C338.368 161.596 338.39 161.865 338.39 162.064V165.678H335.413ZM339.478 168.603C339.366 168.603 339.249 168.594 339.127 168.577C338.997 168.568 338.872 168.56 338.75 168.551L338.854 167.55C338.976 167.559 339.093 167.567 339.205 167.576C339.309 167.593 339.4 167.602 339.478 167.602C339.877 167.602 340.198 167.45 340.44 167.147C340.683 166.844 340.804 166.423 340.804 165.886V159.178H341.922V165.886C341.922 166.423 341.818 166.896 341.61 167.303C341.402 167.719 341.112 168.04 340.739 168.265C340.375 168.49 339.955 168.603 339.478 168.603ZM345.179 165.678V164.677H346.752V165.678H345.179ZM344.074 165.678V156.37H345.179V165.678H344.074ZM346.752 165.678V164.677C346.864 164.677 346.934 164.72 346.96 164.807C346.994 164.894 347.012 165.015 347.012 165.171C347.012 165.318 346.994 165.44 346.96 165.535C346.934 165.63 346.864 165.678 346.752 165.678ZM346.749 165.678V164.677H353.808L353.054 165.223V162.493C353.054 161.904 352.984 161.44 352.846 161.102C352.716 160.764 352.486 160.526 352.157 160.387C351.836 160.248 351.398 160.179 350.844 160.179C350.48 160.179 350.12 160.205 349.765 160.257C349.409 160.3 349.132 160.365 348.933 160.452L349.609 159.776C349.557 159.984 349.505 160.248 349.453 160.569C349.401 160.881 349.357 161.219 349.323 161.583C349.288 161.938 349.271 162.294 349.271 162.649C349.271 163.013 349.288 163.373 349.323 163.728C349.357 164.083 349.396 164.391 349.44 164.651C349.483 164.902 349.518 165.08 349.544 165.184L348.491 165.483C348.456 165.37 348.413 165.175 348.361 164.898C348.309 164.621 348.261 164.287 348.218 163.897C348.183 163.507 348.166 163.091 348.166 162.649C348.166 162.224 348.187 161.813 348.231 161.414C348.274 161.007 348.322 160.638 348.374 160.309C348.434 159.98 348.491 159.715 348.543 159.516C348.733 159.438 349.037 159.36 349.453 159.282C349.877 159.204 350.341 159.165 350.844 159.165C351.58 159.165 352.196 159.273 352.69 159.49C353.184 159.707 353.552 160.058 353.795 160.543C354.037 161.028 354.159 161.678 354.159 162.493V165.678H346.749ZM346.749 165.678C346.636 165.678 346.567 165.63 346.541 165.535C346.506 165.44 346.489 165.318 346.489 165.171C346.489 165.015 346.506 164.894 346.541 164.807C346.567 164.72 346.636 164.677 346.749 164.677V165.678Z" fill="#7B91B0"/>
<rect x="339.467" y="18.6343" width="24.8455" height="125.406" rx="4" fill="#FFCF00"/>
<rect x="308.408" y="81.3372" width="24.8455" height="62.7028" rx="4" fill="#4AB58E"/>
<path d="M258.671 165.678V164.677H260.075V165.678H258.671ZM255.135 168.902C254.442 168.902 253.813 168.772 253.25 168.512C252.695 168.26 252.253 167.905 251.924 167.446C251.603 166.995 251.443 166.479 251.443 165.899C251.443 165.717 251.456 165.478 251.482 165.184C251.517 164.88 251.556 164.547 251.599 164.183C251.651 163.819 251.707 163.45 251.768 163.078C251.829 162.696 251.885 162.337 251.937 161.999L253.029 162.168C252.934 162.757 252.851 163.307 252.782 163.819C252.713 164.321 252.656 164.75 252.613 165.106C252.578 165.461 252.561 165.725 252.561 165.899C252.561 166.289 252.665 166.631 252.873 166.926C253.09 167.229 253.393 167.467 253.783 167.641C254.173 167.814 254.624 167.901 255.135 167.901C255.646 167.901 256.084 167.818 256.448 167.654C256.812 167.498 257.089 167.272 257.28 166.978C257.471 166.692 257.566 166.358 257.566 165.977V156.37H258.671V165.977C258.671 166.583 258.511 167.103 258.19 167.537C257.878 167.979 257.453 168.317 256.916 168.551C256.387 168.785 255.794 168.902 255.135 168.902ZM260.075 165.678V164.677C260.188 164.677 260.257 164.72 260.283 164.807C260.318 164.893 260.335 165.015 260.335 165.171C260.335 165.318 260.318 165.439 260.283 165.535C260.257 165.63 260.188 165.678 260.075 165.678ZM260.076 165.678V164.677H262.117L261.571 165.119V159.178H262.689V165.678H260.076ZM260.076 165.678C259.964 165.678 259.894 165.63 259.868 165.535C259.834 165.439 259.816 165.318 259.816 165.171C259.816 165.015 259.834 164.893 259.868 164.807C259.894 164.72 259.964 164.677 260.076 164.677V165.678ZM260.596 168.07V166.861H261.714V168.07H260.596ZM262.377 168.07V166.861H263.495V168.07H262.377ZM266.072 165.678V164.677H267.736V165.678H266.072ZM263.901 168.603C263.789 168.603 263.672 168.594 263.55 168.577C263.42 168.568 263.295 168.559 263.173 168.551L263.277 167.55C263.399 167.558 263.516 167.567 263.628 167.576C263.732 167.593 263.823 167.602 263.901 167.602C264.3 167.602 264.621 167.45 264.863 167.147C265.106 166.843 265.227 166.423 265.227 165.886V159.178H266.345V165.886C266.345 166.423 266.241 166.895 266.033 167.303C265.825 167.719 265.535 168.039 265.162 168.265C264.798 168.49 264.378 168.603 263.901 168.603ZM267.736 165.678V164.677C267.849 164.677 267.918 164.72 267.944 164.807C267.979 164.893 267.996 165.015 267.996 165.171C267.996 165.318 267.979 165.439 267.944 165.535C267.918 165.63 267.849 165.678 267.736 165.678ZM267.731 165.678V164.677H269.668L269.135 165.119V159.178H270.24V165.678H267.731ZM267.731 165.678C267.619 165.678 267.549 165.63 267.523 165.535C267.489 165.439 267.471 165.318 267.471 165.171C267.471 165.015 267.489 164.893 267.523 164.807C267.549 164.72 267.619 164.677 267.731 164.677V165.678ZM269.135 168.083V166.874H270.253V168.083H269.135ZM272.521 165.678V156.37H273.626V165.678H272.521ZM272.443 155.486C272.305 155.312 272.196 155.143 272.118 154.979C272.04 154.805 272.001 154.628 272.001 154.446C272.001 154.186 272.066 153.956 272.196 153.757C272.326 153.549 272.5 153.388 272.716 153.276C272.933 153.154 273.167 153.094 273.418 153.094C273.557 153.094 273.696 153.115 273.834 153.159C273.982 153.193 274.107 153.245 274.211 153.315L273.86 153.939C273.791 153.895 273.722 153.869 273.652 153.861C273.592 153.843 273.527 153.835 273.457 153.835C273.258 153.835 273.098 153.891 272.976 154.004C272.864 154.116 272.807 154.264 272.807 154.446C272.807 154.55 272.829 154.654 272.872 154.758C272.924 154.862 272.998 154.974 273.093 155.096L272.443 155.486ZM271.754 155.499V154.771H274.393V155.499H271.754Z" fill="#7B91B0"/>
<rect x="262.086" y="43.9175" width="24.8455" height="100.122" rx="4" fill="#FFCF00"/>
<rect x="234.135" y="59.0876" width="24.8455" height="84.9522" rx="4" fill="#4AB58E"/>
<path d="M180.847 165.678V164.677H182.251V165.678H180.847ZM177.714 168.603C177.402 168.603 177.073 168.577 176.726 168.525C176.388 168.482 176.016 168.417 175.608 168.33L175.777 167.433C176.237 167.494 176.618 167.537 176.921 167.563C177.233 167.589 177.498 167.602 177.714 167.602C178.416 167.602 178.928 167.468 179.248 167.199C179.569 166.93 179.729 166.54 179.729 166.029V159.841L180.236 160.179H178.117C177.641 160.179 177.268 160.24 176.999 160.361C176.739 160.474 176.557 160.69 176.453 161.011C176.349 161.332 176.297 161.804 176.297 162.428C176.297 163.052 176.345 163.524 176.44 163.845C176.544 164.166 176.731 164.387 176.999 164.508C177.268 164.621 177.641 164.677 178.117 164.677H179.729V165.678H178.117C177.372 165.678 176.783 165.565 176.349 165.34C175.925 165.106 175.621 164.751 175.439 164.274C175.266 163.789 175.179 163.173 175.179 162.428C175.179 161.691 175.266 161.08 175.439 160.595C175.621 160.11 175.925 159.754 176.349 159.529C176.783 159.295 177.372 159.178 178.117 159.178H180.847V166.016C180.847 166.562 180.722 167.03 180.47 167.42C180.219 167.81 179.859 168.105 179.391 168.304C178.923 168.503 178.364 168.603 177.714 168.603ZM182.251 165.678V164.677C182.364 164.677 182.433 164.72 182.459 164.807C182.494 164.894 182.511 165.015 182.511 165.171C182.511 165.318 182.494 165.44 182.459 165.535C182.433 165.63 182.364 165.678 182.251 165.678ZM182.251 165.678V164.677H184.292L183.746 165.119V159.178H184.864V165.678H182.251ZM182.251 165.678C182.138 165.678 182.069 165.63 182.043 165.535C182.008 165.44 181.991 165.318 181.991 165.171C181.991 165.015 182.008 164.894 182.043 164.807C182.069 164.72 182.138 164.677 182.251 164.677V165.678ZM182.771 168.07V166.861H183.889V168.07H182.771ZM184.552 168.07V166.861H185.67V168.07H184.552ZM188.247 165.678V164.677H189.82V165.678H188.247ZM187.142 165.678V156.37H188.247V165.678H187.142ZM189.82 165.678V164.677C189.933 164.677 190.002 164.72 190.028 164.807C190.063 164.894 190.08 165.015 190.08 165.171C190.08 165.318 190.063 165.44 190.028 165.535C190.002 165.63 189.933 165.678 189.82 165.678ZM189.817 165.678V164.677H196.876L196.122 165.223V162.493C196.122 161.904 196.053 161.44 195.914 161.102C195.784 160.764 195.555 160.526 195.225 160.387C194.905 160.248 194.467 160.179 193.912 160.179C193.548 160.179 193.189 160.205 192.833 160.257C192.478 160.3 192.201 160.365 192.001 160.452L192.677 159.776C192.625 159.984 192.573 160.248 192.521 160.569C192.469 160.881 192.426 161.219 192.391 161.583C192.357 161.938 192.339 162.294 192.339 162.649C192.339 163.013 192.357 163.373 192.391 163.728C192.426 164.083 192.465 164.391 192.508 164.651C192.552 164.902 192.586 165.08 192.612 165.184L191.559 165.483C191.525 165.37 191.481 165.175 191.429 164.898C191.377 164.621 191.33 164.287 191.286 163.897C191.252 163.507 191.234 163.091 191.234 162.649C191.234 162.224 191.256 161.813 191.299 161.414C191.343 161.007 191.39 160.638 191.442 160.309C191.503 159.98 191.559 159.715 191.611 159.516C191.802 159.438 192.105 159.36 192.521 159.282C192.946 159.204 193.41 159.165 193.912 159.165C194.649 159.165 195.264 159.273 195.758 159.49C196.252 159.707 196.621 160.058 196.863 160.543C197.106 161.028 197.227 161.678 197.227 162.493V165.678H189.817ZM189.817 165.678C189.705 165.678 189.635 165.63 189.609 165.535C189.575 165.44 189.557 165.318 189.557 165.171C189.557 165.015 189.575 164.894 189.609 164.807C189.635 164.72 189.705 164.677 189.817 164.677V165.678Z" fill="#7B91B0"/>
<rect x="187.324" y="0.430176" width="24.8455" height="143.61" rx="4" fill="#FFCF00"/>
<rect x="156.268" y="40.8835" width="24.8455" height="103.156" rx="4" fill="#4AB58E"/>
<path d="M102.482 165.678V164.677H103.886V165.678H102.482ZM99.3491 168.603C99.0371 168.603 98.7078 168.577 98.3611 168.525C98.0231 168.482 97.6505 168.417 97.2431 168.33L97.4121 167.433C97.8715 167.494 98.2528 167.537 98.5561 167.563C98.8681 167.589 99.1325 167.602 99.3491 167.602C100.051 167.602 100.562 167.468 100.883 167.199C101.204 166.93 101.364 166.54 101.364 166.029V159.841L101.871 160.179H99.7521C99.2755 160.179 98.9028 160.24 98.6341 160.361C98.3741 160.474 98.1921 160.69 98.0881 161.011C97.9841 161.332 97.9321 161.804 97.9321 162.428C97.9321 163.052 97.9798 163.524 98.0751 163.845C98.1791 164.166 98.3655 164.387 98.6341 164.508C98.9028 164.621 99.2755 164.677 99.7521 164.677H101.364V165.678H99.7521C99.0068 165.678 98.4175 165.565 97.9841 165.34C97.5595 165.106 97.2561 164.751 97.0741 164.274C96.9008 163.789 96.8141 163.173 96.8141 162.428C96.8141 161.691 96.9008 161.08 97.0741 160.595C97.2561 160.11 97.5595 159.754 97.9841 159.529C98.4175 159.295 99.0068 159.178 99.7521 159.178H102.482V166.016C102.482 166.562 102.356 167.03 102.105 167.42C101.854 167.81 101.494 168.105 101.026 168.304C100.558 168.503 99.9991 168.603 99.3491 168.603ZM103.886 165.678V164.677C103.999 164.677 104.068 164.72 104.094 164.807C104.129 164.894 104.146 165.015 104.146 165.171C104.146 165.318 104.129 165.44 104.094 165.535C104.068 165.63 103.999 165.678 103.886 165.678ZM106.499 165.678V164.677H107.929V165.678H106.499ZM107.929 165.678V164.677C108.042 164.677 108.111 164.72 108.137 164.807C108.172 164.894 108.189 165.015 108.189 165.171C108.189 165.318 108.172 165.44 108.137 165.535C108.111 165.63 108.042 165.678 107.929 165.678ZM103.886 165.678V164.677H105.927L105.381 165.119V159.178H106.499V165.678H103.886ZM103.886 165.678C103.773 165.678 103.704 165.63 103.678 165.535C103.643 165.44 103.626 165.318 103.626 165.171C103.626 165.015 103.643 164.894 103.678 164.807C103.704 164.72 103.773 164.677 103.886 164.677V165.678ZM104.406 168.07V166.861H105.524V168.07H104.406ZM106.187 168.07V166.861H107.305V168.07H106.187ZM107.923 165.678V164.677H109.86L109.327 165.119V159.178H110.432V165.678H107.923ZM107.923 165.678C107.81 165.678 107.741 165.63 107.715 165.535C107.68 165.44 107.663 165.318 107.663 165.171C107.663 165.015 107.68 164.894 107.715 164.807C107.741 164.72 107.81 164.677 107.923 164.677V165.678ZM109.327 158.008V156.799H110.445V158.008H109.327ZM117.666 165.678V164.677H119.07V165.678H117.666ZM114.533 168.603C114.221 168.603 113.891 168.577 113.545 168.525C113.207 168.482 112.834 168.417 112.427 168.33L112.596 167.433C113.055 167.494 113.436 167.537 113.74 167.563C114.052 167.589 114.316 167.602 114.533 167.602C115.235 167.602 115.746 167.468 116.067 167.199C116.387 166.93 116.548 166.54 116.548 166.029V159.841L117.055 160.179H114.936C114.459 160.179 114.086 160.24 113.818 160.361C113.558 160.474 113.376 160.69 113.272 161.011C113.168 161.332 113.116 161.804 113.116 162.428C113.116 163.052 113.163 163.524 113.259 163.845C113.363 164.166 113.549 164.387 113.818 164.508C114.086 164.621 114.459 164.677 114.936 164.677H116.548V165.678H114.936C114.19 165.678 113.601 165.565 113.168 165.34C112.743 165.106 112.44 164.751 112.258 164.274C112.084 163.789 111.998 163.173 111.998 162.428C111.998 161.691 112.084 161.08 112.258 160.595C112.44 160.11 112.743 159.754 113.168 159.529C113.601 159.295 114.19 159.178 114.936 159.178H117.666V166.016C117.666 166.562 117.54 167.03 117.289 167.42C117.037 167.81 116.678 168.105 116.21 168.304C115.742 168.503 115.183 168.603 114.533 168.603ZM119.07 165.678V164.677C119.182 164.677 119.252 164.72 119.278 164.807C119.312 164.894 119.33 165.015 119.33 165.171C119.33 165.318 119.312 165.44 119.278 165.535C119.252 165.63 119.182 165.678 119.07 165.678ZM119.07 165.678V164.677H121.111L120.565 165.119V159.178H121.683V165.678H119.07ZM119.07 165.678C118.957 165.678 118.888 165.63 118.862 165.535C118.827 165.44 118.81 165.318 118.81 165.171C118.81 165.015 118.827 164.894 118.862 164.807C118.888 164.72 118.957 164.677 119.07 164.677V165.678ZM119.59 168.07V166.861H120.708V168.07H119.59ZM121.371 168.07V166.861H122.489V168.07H121.371Z" fill="#7B91B0"/>
<rect x="109.457" y="0.430176" width="24.8455" height="143.61" rx="4" fill="#FFCF00"/>
<rect x="78.4004" y="40.8835" width="24.8455" height="103.156" rx="4" fill="#4AB58E"/>
<path d="M24.5134 165.678V164.677H25.9174V165.678H24.5134ZM21.3804 168.603C21.0684 168.603 20.739 168.577 20.3924 168.525C20.0544 168.482 19.6817 168.417 19.2744 168.33L19.4434 167.433C19.9027 167.494 20.284 167.537 20.5874 167.563C20.8994 167.589 21.1637 167.602 21.3804 167.602C22.0824 167.602 22.5937 167.468 22.9144 167.199C23.235 166.93 23.3954 166.54 23.3954 166.029V159.841L23.9024 160.179H21.7834C21.3067 160.179 20.934 160.24 20.6654 160.361C20.4054 160.474 20.2234 160.69 20.1194 161.011C20.0154 161.332 19.9634 161.804 19.9634 162.428C19.9634 163.052 20.011 163.524 20.1064 163.845C20.2104 164.166 20.3967 164.387 20.6654 164.508C20.934 164.621 21.3067 164.677 21.7834 164.677H23.3954V165.678H21.7834C21.038 165.678 20.4487 165.565 20.0154 165.34C19.5907 165.106 19.2874 164.751 19.1054 164.274C18.932 163.789 18.8454 163.173 18.8454 162.428C18.8454 161.691 18.932 161.08 19.1054 160.595C19.2874 160.11 19.5907 159.754 20.0154 159.529C20.4487 159.295 21.038 159.178 21.7834 159.178H24.5134V166.016C24.5134 166.562 24.3877 167.03 24.1364 167.42C23.885 167.81 23.5254 168.105 23.0574 168.304C22.5894 168.503 22.0304 168.603 21.3804 168.603ZM25.9174 165.678V164.677C26.03 164.677 26.0994 164.72 26.1254 164.807C26.16 164.894 26.1774 165.015 26.1774 165.171C26.1774 165.318 26.16 165.44 26.1254 165.535C26.0994 165.63 26.03 165.678 25.9174 165.678ZM28.5302 165.678V164.677H29.9602V165.678H28.5302ZM29.9602 165.678V164.677C30.0728 164.677 30.1422 164.72 30.1682 164.807C30.2028 164.894 30.2202 165.015 30.2202 165.171C30.2202 165.318 30.2028 165.44 30.1682 165.535C30.1422 165.63 30.0728 165.678 29.9602 165.678ZM25.9172 165.678V164.677H27.9582L27.4122 165.119V159.178H28.5302V165.678H25.9172ZM25.9172 165.678C25.8045 165.678 25.7352 165.63 25.7092 165.535C25.6745 165.44 25.6572 165.318 25.6572 165.171C25.6572 165.015 25.6745 164.894 25.7092 164.807C25.7352 164.72 25.8045 164.677 25.9172 164.677V165.678ZM26.4372 168.07V166.861H27.5552V168.07H26.4372ZM28.2182 168.07V166.861H29.3362V168.07H28.2182ZM31.5143 165.678V156.37H32.6323V165.678H31.5143ZM29.9543 165.678V164.677H31.5143V165.678H29.9543ZM29.9543 165.678C29.8416 165.678 29.7723 165.63 29.7463 165.535C29.7116 165.44 29.6943 165.318 29.6943 165.171C29.6943 165.015 29.7116 164.894 29.7463 164.807C29.7723 164.72 29.8416 164.677 29.9543 164.677V165.678ZM39.7985 165.678V164.677H41.2025V165.678H39.7985ZM36.6655 168.603C36.3535 168.603 36.0242 168.577 35.6775 168.525C35.3395 168.482 34.9669 168.417 34.5595 168.33L34.7285 167.433C35.1879 167.494 35.5692 167.537 35.8725 167.563C36.1845 167.589 36.4489 167.602 36.6655 167.602C37.3675 167.602 37.8789 167.468 38.1995 167.199C38.5202 166.93 38.6805 166.54 38.6805 166.029V159.841L39.1875 160.179H37.0685C36.5919 160.179 36.2192 160.24 35.9505 160.361C35.6905 160.474 35.5085 160.69 35.4045 161.011C35.3005 161.332 35.2485 161.804 35.2485 162.428C35.2485 163.052 35.2962 163.524 35.3915 163.845C35.4955 164.166 35.6819 164.387 35.9505 164.508C36.2192 164.621 36.5919 164.677 37.0685 164.677H38.6805V165.678H37.0685C36.3232 165.678 35.7339 165.565 35.3005 165.34C34.8759 165.106 34.5725 164.751 34.3905 164.274C34.2172 163.789 34.1305 163.173 34.1305 162.428C34.1305 161.691 34.2172 161.08 34.3905 160.595C34.5725 160.11 34.8759 159.754 35.3005 159.529C35.7339 159.295 36.3232 159.178 37.0685 159.178H39.7985V166.016C39.7985 166.562 39.6729 167.03 39.4215 167.42C39.1702 167.81 38.8105 168.105 38.3425 168.304C37.8745 168.503 37.3155 168.603 36.6655 168.603ZM41.2025 165.678V164.677C41.3152 164.677 41.3845 164.72 41.4105 164.807C41.4452 164.894 41.4625 165.015 41.4625 165.171C41.4625 165.318 41.4452 165.44 41.4105 165.535C41.3845 165.63 41.3152 165.678 41.2025 165.678ZM41.2023 165.678V164.677H43.2433L42.6973 165.119V159.178H43.8153V165.678H41.2023ZM41.2023 165.678C41.0897 165.678 41.0203 165.63 40.9943 165.535C40.9597 165.44 40.9423 165.318 40.9423 165.171C40.9423 165.015 40.9597 164.894 40.9943 164.807C41.0203 164.72 41.0897 164.677 41.2023 164.677V165.678ZM41.7223 168.07V166.861H42.8403V168.07H41.7223ZM43.5033 168.07V166.861H44.6213V168.07H43.5033Z" fill="#7B91B0"/>
<rect x="31.5898" y="0.430176" width="24.8455" height="143.61" rx="4" fill="#FFCF00"/>
<rect x="0.533203" y="40.8835" width="24.8455" height="103.156" rx="4" fill="#4AB58E"/>
</svg>
