<svg width="446" height="378" viewBox="0 0 446 378" fill="none" xmlns="http://www.w3.org/2000/svg">
<path d="M267.74 29.3687V4.56885C248.772 9.29481 231.361 17.6226 214.281 29.3458L267.74 29.3687Z" fill="#359A9C"/>
<path d="M406.103 38.3044H275.191V201.121H406.103V38.3044Z" fill="#359A9C"/>
<path d="M267.74 38.3044H202.021C187.334 49.3164 172.258 60.466 154.663 66.8208C148.779 68.9544 142.827 70.8241 136.828 72.5562V201.121H267.74V38.3044Z" fill="#359A9C"/>
<path d="M431.998 64.3545C427.043 55.4341 420.832 47.275 413.557 40.1282V201.121H427.019C447.715 159.631 454.492 105.248 431.998 64.3545Z" fill="#359A9C"/>
<path d="M129.388 74.6553C122.256 76.6168 115.067 78.4636 107.878 80.3907C51.5461 95.4748 16.6203 146.199 23.0881 201.121H129.388V74.6553Z" fill="#359A9C"/>
<path d="M413.557 210.056V223.466C415.213 221.248 416.796 218.954 418.307 216.583C419.658 214.461 420.963 212.27 422.245 210.045L413.557 210.056Z" fill="#359A9C"/>
<path d="M406.103 210.056H275.191V278.721C286.078 278.858 296.873 279.73 307.885 278.526C344.036 274.58 381.079 259.759 406.103 232.436V210.056Z" fill="#359A9C"/>
<path d="M275.191 29.3686H401.043C375.504 10.3042 342.387 0.829276 311.044 0.0722035C299.025 -0.283251 287.003 0.674473 275.191 2.92843V29.3686Z" fill="#359A9C"/>
<path d="M267.74 210.056H136.828V307.787C159.528 308.178 182.331 301.639 203.852 294.321C220.954 288.517 238.194 282.506 256.258 279.799C260.051 279.245 263.874 278.916 267.705 278.812L267.74 210.056Z" fill="#359A9C"/>
<path d="M129.388 210.056H24.5078C32.7728 250.204 64.665 286.807 104.776 301.88C112.689 304.842 120.97 306.698 129.388 307.397V210.056Z" fill="#359A9C"/>
<g opacity="0.7">
<path d="M267.74 29.3687V4.56885C248.772 9.29481 231.361 17.6226 214.281 29.3458L267.74 29.3687Z" fill="white"/>
<path d="M406.103 38.3044H275.191V201.121H406.103V38.3044Z" fill="white"/>
<path d="M267.74 38.3044H202.021C187.334 49.3164 172.258 60.466 154.663 66.8208C148.779 68.9544 142.827 70.8241 136.828 72.5562V201.121H267.74V38.3044Z" fill="white"/>
<path d="M431.998 64.3545C427.043 55.4341 420.832 47.275 413.557 40.1282V201.121H427.019C447.715 159.631 454.492 105.248 431.998 64.3545Z" fill="white"/>
<path d="M129.388 74.6553C122.256 76.6168 115.067 78.4636 107.878 80.3907C51.5461 95.4748 16.6203 146.199 23.0881 201.121H129.388V74.6553Z" fill="white"/>
<path d="M413.557 210.056V223.466C415.213 221.248 416.796 218.954 418.307 216.583C419.658 214.461 420.963 212.27 422.245 210.045L413.557 210.056Z" fill="white"/>
<path d="M406.103 210.056H275.191V278.721C286.078 278.858 296.873 279.73 307.885 278.526C344.036 274.58 381.079 259.759 406.103 232.436V210.056Z" fill="white"/>
<path d="M275.191 29.3686H401.043C375.504 10.3042 342.387 0.829276 311.044 0.0722035C299.025 -0.283251 287.003 0.674473 275.191 2.92843V29.3686Z" fill="white"/>
<path d="M267.74 210.056H136.828V307.787C159.528 308.178 182.331 301.639 203.852 294.321C220.954 288.517 238.194 282.506 256.258 279.799C260.051 279.245 263.874 278.916 267.705 278.812L267.74 210.056Z" fill="white"/>
<path d="M129.388 210.056H24.5078C32.7728 250.204 64.665 286.807 104.776 301.88C112.689 304.842 120.97 306.698 129.388 307.397V210.056Z" fill="white"/>
</g>
<path d="M431.791 237.449H426.938H207.756H202.902V247.176H207.756V346.054H426.938V247.176H431.791V237.449Z" fill="#359A9C"/>
<path opacity="0.5" d="M431.791 237.449H426.938H207.756H202.902V247.176H207.756V346.054H426.938V247.176H431.791V237.449Z" fill="white"/>
<path d="M213.617 289.113H273.407V257.11H213.617V289.113ZM214.831 258.326H272.193V287.897H214.831V258.326Z" fill="white"/>
<path d="M287.865 289.113H347.643V257.11H287.865V289.113ZM289.079 258.326H346.43V287.897H289.079V258.326Z" fill="white"/>
<path d="M362.1 257.11V289.113H421.877V257.11H362.1ZM420.664 287.897H363.313V258.326H420.664V287.897Z" fill="white"/>
<path d="M213.617 332.071H273.407V300.056H213.617V332.071ZM214.831 301.272H272.193V330.855H214.831V301.272Z" fill="white"/>
<path d="M287.865 332.071H347.643V300.056H287.865V332.071ZM289.079 301.272H346.43V330.855H289.079V301.272Z" fill="white"/>
<path d="M362.1 332.071H421.877V300.056H362.1V332.071ZM363.313 301.272H420.664V330.855H363.313V301.272Z" fill="white"/>
<path d="M244.147 277.161C249.508 277.161 253.854 275.528 253.854 273.513C253.854 271.498 249.508 269.865 244.147 269.865C238.786 269.865 234.439 271.498 234.439 273.513C234.439 275.528 238.786 277.161 244.147 277.161Z" fill="white"/>
<path d="M318.028 277.161C323.389 277.161 327.735 275.528 327.735 273.513C327.735 271.498 323.389 269.865 318.028 269.865C312.666 269.865 308.32 271.498 308.32 273.513C308.32 275.528 312.666 277.161 318.028 277.161Z" fill="white"/>
<path d="M394.061 277.161C399.422 277.161 403.768 275.528 403.768 273.513C403.768 271.498 399.422 269.865 394.061 269.865C388.7 269.865 384.354 271.498 384.354 273.513C384.354 275.528 388.7 277.161 394.061 277.161Z" fill="white"/>
<path d="M244.147 312.823C238.79 312.823 234.451 314.452 234.451 316.471C234.451 318.49 238.79 320.119 244.147 320.119C249.504 320.119 253.854 318.49 253.854 316.471C253.854 314.452 249.516 312.823 244.147 312.823Z" fill="white"/>
<path d="M318.028 312.823C312.671 312.823 308.332 314.452 308.332 316.471C308.332 318.49 312.671 320.119 318.028 320.119C323.385 320.119 327.735 318.49 327.735 316.471C327.735 314.452 323.397 312.823 318.028 312.823Z" fill="white"/>
<path d="M394.061 312.823C388.703 312.823 384.354 314.452 384.354 316.471C384.354 318.49 388.703 320.119 394.061 320.119C399.418 320.119 403.768 318.49 403.768 316.471C403.768 314.452 399.418 312.823 394.061 312.823Z" fill="white"/>
<path d="M119.498 228.96C115.079 235.522 108.92 244.067 105.635 250.927C106.883 246.407 108.108 242.14 109.218 238.309C110.901 235.005 115.411 226.632 120.665 221.103C127.271 214.014 130.098 209.471 126.538 209.07C124.077 208.795 116.865 218.419 112.343 227.985C113.328 224.716 114.106 222.25 114.575 220.759C114.793 220.105 114.999 219.371 115.205 218.602C119.886 212.051 124.145 205.209 127.957 198.115C134.631 185.612 136.783 173.82 132.33 178.902C128.232 183.57 121.1 206.776 115.445 217.707C115.915 215.826 116.373 213.739 116.773 211.685C117.575 209.701 118.628 207.682 119.223 205.847C120.15 203.036 120.963 200.18 121.616 197.289C122.691 192.78 123.236 188.161 123.241 183.524C123.355 178.079 121.874 172.72 118.983 168.108C118.216 166.961 113.534 159.941 112.114 163.519C111.931 164.118 111.896 164.751 112.011 165.366C112.698 171.342 114.862 176.837 116.201 182.653C118.204 191.359 116.876 205.984 116.201 212.201C115.949 213.176 115.629 214.404 115.251 215.815C116.178 204.975 111.496 192.139 107.158 189.902C101.789 187.126 107.055 198.024 111.198 207.533C113.166 211.698 114.089 216.281 113.889 220.885C113.042 224.016 112.068 227.526 111.061 231.082C110.867 231.576 110.672 232.057 110.489 232.539C110.953 230.218 111.145 227.85 111.061 225.485C110.66 219.267 103.632 206.822 98.9613 208.577C94.2908 210.332 102.201 216.904 106.425 224.544C108.584 228.734 109.407 233.486 108.783 238.16C108.783 238.435 108.692 238.71 108.657 238.986C108.176 240.603 107.696 242.175 107.226 243.654C106.082 247.096 105.109 250.399 104.135 253.588C105.331 248.965 105.855 244.194 105.692 239.422C105.109 230.302 99.7855 221.699 95.3897 220.529C90.994 219.359 99.3849 234.214 102.201 242.565C103.732 247.442 103.992 252.631 102.956 257.637C101.594 262.157 100.312 266.607 98.9956 271.333C99.3677 265.158 99.2375 258.962 98.6064 252.808C97.7479 242.668 91.738 236.187 87.5827 236.451C83.4273 236.715 87.7658 242.473 93.7413 254.804C96.8955 261.279 98.3006 268.469 97.8166 275.658C97.2785 277.654 96.6718 279.696 96.1682 281.829C95.5271 284.261 95.0234 286.899 94.577 289.606C93.9703 287.197 93.0774 283.664 92.0357 279.764C90.8225 275.449 89.9423 271.047 89.4028 266.596C88.8419 261.423 87.4797 254.976 82.4199 252.28C82.0776 252.038 81.6863 251.875 81.2738 251.802C80.8613 251.729 80.4377 251.748 80.0333 251.857C79.6289 251.967 79.2536 252.164 78.934 252.436C78.6145 252.707 78.3585 253.046 78.1844 253.428C77.7094 254.534 77.6011 255.765 77.8754 256.938C78.5476 260.453 79.7033 263.858 81.3095 267.055C80.3076 268.962 79.852 271.11 79.9931 273.26C79.9931 274.075 80.0618 274.878 80.119 275.669C79.6726 274.855 79.249 274.098 78.8484 273.375C78.1238 272.16 77.2295 271.056 76.1926 270.095C76.4512 268.194 76.5812 266.278 76.5818 264.359C76.5818 261.836 73.6398 255.435 70.9841 260.184C69.9309 262.076 70.1255 265.816 70.0225 268.294C69.3013 268.97 69.0838 270.37 69.6905 272.584C69.0885 278.331 69.3897 284.137 70.5834 289.79L69.6791 288.184C68.3784 281.55 67.6128 274.821 67.3896 268.064C66.9546 256.926 68.7175 247.749 65.6954 244.308C62.6733 240.867 60.9677 252.969 62.2612 266.103C62.8756 272.125 64.4768 278.004 67.0004 283.504C64.0241 278.147 61.0821 272.687 58.3004 267.445C57.1557 264.623 54.3168 257.029 55.0151 249.321C55.8965 239.594 56.5375 231.644 52.8515 226.173C49.1655 220.701 48.3985 224.246 50.2072 235.648C51.4435 243.482 52.7599 253.944 55.038 261.205C52.8744 257.041 50.8482 253.083 49.0396 249.493C48.0093 245.926 45.6054 236.726 45.6054 229.098C45.6054 219.405 44.5637 214.186 41.7018 216.285C39.71 217.776 40.9921 229.74 44.1973 239.812C42.6977 236.749 41.5645 234.397 40.912 233.009C40.6143 232.379 40.2824 231.713 39.9046 231.002C38.8815 223.017 37.3521 215.105 35.3257 207.315C31.6969 193.55 25.2406 183.524 25.4352 190.269C25.6183 196.486 36.2186 218.327 39.5268 230.188C38.5882 228.49 37.5007 226.655 36.4017 224.877C35.6347 222.881 35.028 220.69 34.2153 218.935C32.9675 216.251 31.6282 213.601 30.1286 211.043C27.8444 207.002 25.0934 203.244 21.9323 199.847C18.3041 195.789 13.5679 192.886 8.31 191.497C6.95922 191.176 -1.23706 189.203 0.15951 192.873C0.426908 193.429 0.81863 193.916 1.30424 194.296C5.88317 198.196 11.1947 200.731 16.1858 204.069C23.5807 209.058 32.5669 220.655 36.2758 225.68L38.0387 228.983C31.342 220.426 19.1735 214.243 14.4801 215.574C8.66487 217.214 19.9405 221.585 29.4418 225.703C33.7183 227.4 37.5149 230.122 40.4999 233.629C42.0109 236.485 43.6937 239.72 45.3764 243.012C45.571 243.505 45.7542 243.987 45.9602 244.457C44.7154 242.445 43.2401 240.586 41.5645 238.917C36.9855 234.65 23.4205 230.36 21.2111 234.833C19.0018 239.307 29.2243 238.699 37.535 241.395C42.0138 242.957 45.8978 245.875 48.6503 249.745L49.1197 250.445C49.8752 251.959 50.5849 253.427 51.2603 254.838C52.8172 258.119 54.3053 261.205 55.7706 264.21C53.499 259.995 50.6303 256.131 47.2538 252.739C40.6143 246.476 30.8612 243.826 26.8203 246.006C22.7794 248.185 39.0689 253.278 46.8073 257.477C51.2483 259.992 54.9725 263.606 57.625 267.972C59.7085 272.205 61.8033 276.346 64.0584 280.694C60.0992 275.927 55.7618 271.488 51.0886 267.422C43.5563 260.608 34.7419 259.989 31.8915 263.006C29.0411 266.022 36.127 267.284 48.8793 272.182C55.5891 274.763 61.5086 279.058 66.0503 284.64C67.0118 286.463 67.9963 288.333 69.0495 290.272C70.3094 292.601 71.6888 294.864 73.182 297.051C71.0985 295.697 68.0307 293.724 64.6194 291.591C60.794 289.269 57.1542 286.654 53.733 283.768C49.7951 280.326 44.4034 276.587 38.8514 278.032C38.4391 278.095 38.0452 278.246 37.6975 278.477C37.3498 278.708 37.0567 279.012 36.8386 279.368C36.6205 279.725 36.4828 280.124 36.435 280.539C36.3872 280.955 36.4305 281.375 36.562 281.772C36.9663 282.906 37.725 283.88 38.7255 284.548C43.9455 288.608 50.9627 290.558 57.0412 292.944C62.6119 295.143 68.3212 296.971 74.1321 298.416C75.5744 300.492 77.0855 302.534 78.5851 304.495L75.8606 304.576C72.6325 304.668 58.0715 298.06 50.6765 295.927C43.2816 293.793 36.3674 297.831 44.1172 302.006C51.867 306.182 72.9416 305.253 72.9416 305.253L79.0201 305.103C80.451 306.939 81.859 308.671 83.1755 310.265H54.3053V318.295H60.029L64.6079 346.834H103.059L107.638 318.318H113.362V310.288H94.2221C94.0675 306.822 94.1593 303.349 94.4969 299.896C95.772 298.594 97.1889 297.44 98.7209 296.454C107.123 290.639 121.364 290.157 125.153 278.961C126.069 276.254 125.038 272.79 121.81 272.939C119.521 273.054 117.037 275.084 115.594 276.759C110.786 282.322 107.169 288.092 100.919 292.302C100.633 292.497 96.6947 295.64 94.7372 297.59C94.9547 295.766 95.2295 293.816 95.5844 291.717C97.0947 289.033 98.8173 286.474 100.736 284.066C105.853 277.711 113.637 273.983 119.166 267.915C120.86 266.057 123.092 259.381 117.918 261.033C115.629 261.778 112.904 265.265 111.107 266.871C106.024 271.46 100.804 276.346 97.4846 282.38C97.622 281.783 97.7708 281.233 97.9082 280.579C101.481 274.852 105.5 269.417 109.928 264.325C117.277 255.94 124.809 250.457 124.935 245.88C125.061 241.303 115.583 248.977 107.535 259.484C103.885 264.304 101.054 269.695 99.1559 275.44C100.633 269.487 102.201 263.487 103.735 257.729C104.788 254.861 107.913 247.405 113.671 242.232C120.94 235.728 126.824 230.36 127.866 223.879C128.907 217.398 125.954 219.382 119.498 228.96ZM78.8484 302.74C77.7647 301.257 76.62 299.636 75.4142 297.877C74.6935 294.881 74.2149 291.831 73.9833 288.758C73.8265 286.126 73.9454 283.484 74.3381 280.877C76.289 283.3 78.3637 285.62 80.554 287.828C80.5019 290.126 80.222 292.412 79.7184 294.654C79.684 294.986 78.9514 299.976 78.8484 302.74ZM85.0757 310.288C83.599 308.717 81.9849 306.847 80.2335 304.553C80.2775 302.733 80.5271 300.925 80.9776 299.162C81.6784 296.382 82.6843 293.689 83.9768 291.132C86.6898 293.713 88.6816 295.434 88.6816 295.434L93.2605 299.448C92.9057 303.463 92.6996 307.214 92.5737 310.265L85.0757 310.288ZM93.3178 298.749L91.2687 296.948C90.124 295.915 88.0635 291.923 85.8198 287.335C86.7837 285.399 87.6323 283.407 88.3611 281.37C90.7879 285.878 92.94 289.4 94.2107 291.27C93.9016 293.77 93.5582 296.294 93.3178 298.749Z" fill="#359A9C"/>
<path opacity="0.5" d="M119.498 228.96C115.079 235.522 108.92 244.067 105.635 250.927C106.883 246.407 108.108 242.14 109.218 238.309C110.901 235.005 115.411 226.632 120.665 221.103C127.271 214.014 130.098 209.471 126.538 209.07C124.077 208.795 116.865 218.419 112.343 227.985C113.328 224.716 114.106 222.25 114.575 220.759C114.793 220.105 114.999 219.371 115.205 218.602C119.886 212.051 124.145 205.209 127.957 198.115C134.631 185.612 136.783 173.82 132.33 178.902C128.232 183.57 121.1 206.776 115.445 217.707C115.915 215.826 116.373 213.739 116.773 211.685C117.575 209.701 118.628 207.682 119.223 205.847C120.15 203.036 120.963 200.18 121.616 197.289C122.691 192.78 123.236 188.161 123.241 183.524C123.355 178.079 121.874 172.72 118.983 168.108C118.216 166.961 113.534 159.941 112.114 163.519C111.931 164.118 111.896 164.751 112.011 165.366C112.698 171.342 114.862 176.837 116.201 182.653C118.204 191.359 116.876 205.984 116.201 212.201C115.949 213.176 115.629 214.404 115.251 215.815C116.178 204.975 111.496 192.139 107.158 189.902C101.789 187.126 107.055 198.024 111.198 207.533C113.166 211.698 114.089 216.281 113.889 220.885C113.042 224.016 112.068 227.526 111.061 231.082C110.867 231.576 110.672 232.057 110.489 232.539C110.953 230.218 111.145 227.85 111.061 225.485C110.66 219.267 103.632 206.822 98.9613 208.577C94.2908 210.332 102.201 216.904 106.425 224.544C108.584 228.734 109.407 233.486 108.783 238.16C108.783 238.435 108.692 238.71 108.657 238.986C108.176 240.603 107.696 242.175 107.226 243.654C106.082 247.096 105.109 250.399 104.135 253.588C105.331 248.965 105.855 244.194 105.692 239.422C105.109 230.302 99.7855 221.699 95.3897 220.529C90.994 219.359 99.3849 234.214 102.201 242.565C103.732 247.442 103.992 252.631 102.956 257.637C101.594 262.157 100.312 266.607 98.9956 271.333C99.3677 265.158 99.2375 258.962 98.6064 252.808C97.7479 242.668 91.738 236.187 87.5827 236.451C83.4273 236.715 87.7658 242.473 93.7413 254.804C96.8955 261.279 98.3006 268.469 97.8166 275.658C97.2785 277.654 96.6718 279.696 96.1682 281.829C95.5271 284.261 95.0234 286.899 94.577 289.606C93.9703 287.197 93.0774 283.664 92.0357 279.764C90.8225 275.449 89.9423 271.047 89.4028 266.596C88.8419 261.423 87.4797 254.976 82.4199 252.28C82.0776 252.038 81.6863 251.875 81.2738 251.802C80.8613 251.729 80.4377 251.748 80.0333 251.857C79.6289 251.967 79.2536 252.164 78.934 252.436C78.6145 252.707 78.3585 253.046 78.1844 253.428C77.7094 254.534 77.6011 255.765 77.8754 256.938C78.5476 260.453 79.7033 263.858 81.3095 267.055C80.3076 268.962 79.852 271.11 79.9931 273.26C79.9931 274.075 80.0618 274.878 80.119 275.669C79.6726 274.855 79.249 274.098 78.8484 273.375C78.1238 272.16 77.2295 271.056 76.1926 270.095C76.4512 268.194 76.5812 266.278 76.5818 264.359C76.5818 261.836 73.6398 255.435 70.9841 260.184C69.9309 262.076 70.1255 265.816 70.0225 268.294C69.3013 268.97 69.0838 270.37 69.6905 272.584C69.0885 278.331 69.3897 284.137 70.5834 289.79L69.6791 288.184C68.3784 281.55 67.6128 274.821 67.3896 268.064C66.9546 256.926 68.7175 247.749 65.6954 244.308C62.6733 240.867 60.9677 252.969 62.2612 266.103C62.8756 272.125 64.4768 278.004 67.0004 283.504C64.0241 278.147 61.0821 272.687 58.3004 267.445C57.1557 264.623 54.3168 257.029 55.0151 249.321C55.8965 239.594 56.5375 231.644 52.8515 226.173C49.1655 220.701 48.3985 224.246 50.2072 235.648C51.4435 243.482 52.7599 253.944 55.038 261.205C52.8744 257.041 50.8482 253.083 49.0396 249.493C48.0093 245.926 45.6054 236.726 45.6054 229.098C45.6054 219.405 44.5637 214.186 41.7018 216.285C39.71 217.776 40.9921 229.74 44.1973 239.812C42.6977 236.749 41.5645 234.397 40.912 233.009C40.6143 232.379 40.2824 231.713 39.9046 231.002C38.8815 223.017 37.3521 215.105 35.3257 207.315C31.6969 193.55 25.2406 183.524 25.4352 190.269C25.6183 196.486 36.2186 218.327 39.5268 230.188C38.5882 228.49 37.5007 226.655 36.4017 224.877C35.6347 222.881 35.028 220.69 34.2153 218.935C32.9675 216.251 31.6282 213.601 30.1286 211.043C27.8444 207.002 25.0934 203.244 21.9323 199.847C18.3041 195.789 13.5679 192.886 8.31 191.497C6.95922 191.176 -1.23706 189.203 0.15951 192.873C0.426908 193.429 0.81863 193.916 1.30424 194.296C5.88317 198.196 11.1947 200.731 16.1858 204.069C23.5807 209.058 32.5669 220.655 36.2758 225.68L38.0387 228.983C31.342 220.426 19.1735 214.243 14.4801 215.574C8.66487 217.214 19.9405 221.585 29.4418 225.703C33.7183 227.4 37.5149 230.122 40.4999 233.629C42.0109 236.485 43.6937 239.72 45.3764 243.012C45.571 243.505 45.7542 243.987 45.9602 244.457C44.7154 242.445 43.2401 240.586 41.5645 238.917C36.9855 234.65 23.4205 230.36 21.2111 234.833C19.0018 239.307 29.2243 238.699 37.535 241.395C42.0138 242.957 45.8978 245.875 48.6503 249.745L49.1197 250.445C49.8752 251.959 50.5849 253.427 51.2603 254.838C52.8172 258.119 54.3053 261.205 55.7706 264.21C53.499 259.995 50.6303 256.131 47.2538 252.739C40.6143 246.476 30.8612 243.826 26.8203 246.006C22.7794 248.185 39.0689 253.278 46.8073 257.477C51.2483 259.992 54.9725 263.606 57.625 267.972C59.7085 272.205 61.8033 276.346 64.0584 280.694C60.0992 275.927 55.7618 271.488 51.0886 267.422C43.5563 260.608 34.7419 259.989 31.8915 263.006C29.0411 266.022 36.127 267.284 48.8793 272.182C55.5891 274.763 61.5086 279.058 66.0503 284.64C67.0118 286.463 67.9963 288.333 69.0495 290.272C70.3094 292.601 71.6888 294.864 73.182 297.051C71.0985 295.697 68.0307 293.724 64.6194 291.591C60.794 289.269 57.1542 286.654 53.733 283.768C49.7951 280.326 44.4034 276.587 38.8514 278.032C38.4391 278.095 38.0452 278.246 37.6975 278.477C37.3498 278.708 37.0567 279.012 36.8386 279.368C36.6205 279.725 36.4828 280.124 36.435 280.539C36.3872 280.955 36.4305 281.375 36.562 281.772C36.9663 282.906 37.725 283.88 38.7255 284.548C43.9455 288.608 50.9627 290.558 57.0412 292.944C62.6119 295.143 68.3212 296.971 74.1321 298.416C75.5744 300.492 77.0855 302.534 78.5851 304.495L75.8606 304.576C72.6325 304.668 58.0715 298.06 50.6765 295.927C43.2816 293.793 36.3674 297.831 44.1172 302.006C51.867 306.182 72.9416 305.253 72.9416 305.253L79.0201 305.103C80.451 306.939 81.859 308.671 83.1755 310.265H54.3053V318.295H60.029L64.6079 346.834H103.059L107.638 318.318H113.362V310.288H94.2221C94.0675 306.822 94.1593 303.349 94.4969 299.896C95.772 298.594 97.1889 297.44 98.7209 296.454C107.123 290.639 121.364 290.157 125.153 278.961C126.069 276.254 125.038 272.79 121.81 272.939C119.521 273.054 117.037 275.084 115.594 276.759C110.786 282.322 107.169 288.092 100.919 292.302C100.633 292.497 96.6947 295.64 94.7372 297.59C94.9547 295.766 95.2295 293.816 95.5844 291.717C97.0947 289.033 98.8173 286.474 100.736 284.066C105.853 277.711 113.637 273.983 119.166 267.915C120.86 266.057 123.092 259.381 117.918 261.033C115.629 261.778 112.904 265.265 111.107 266.871C106.024 271.46 100.804 276.346 97.4846 282.38C97.622 281.783 97.7708 281.233 97.9082 280.579C101.481 274.852 105.5 269.417 109.928 264.325C117.277 255.94 124.809 250.457 124.935 245.88C125.061 241.303 115.583 248.977 107.535 259.484C103.885 264.304 101.054 269.695 99.1559 275.44C100.633 269.487 102.201 263.487 103.735 257.729C104.788 254.861 107.913 247.405 113.671 242.232C120.94 235.728 126.824 230.36 127.866 223.879C128.907 217.398 125.954 219.382 119.498 228.96ZM78.8484 302.74C77.7647 301.257 76.62 299.636 75.4142 297.877C74.6935 294.881 74.2149 291.831 73.9833 288.758C73.8265 286.126 73.9454 283.484 74.3381 280.877C76.289 283.3 78.3637 285.62 80.554 287.828C80.5019 290.126 80.222 292.412 79.7184 294.654C79.684 294.986 78.9514 299.976 78.8484 302.74ZM85.0757 310.288C83.599 308.717 81.9849 306.847 80.2335 304.553C80.2775 302.733 80.5271 300.925 80.9776 299.162C81.6784 296.382 82.6843 293.689 83.9768 291.132C86.6898 293.713 88.6816 295.434 88.6816 295.434L93.2605 299.448C92.9057 303.463 92.6996 307.214 92.5737 310.265L85.0757 310.288ZM93.3178 298.749L91.2687 296.948C90.124 295.915 88.0635 291.923 85.8198 287.335C86.7837 285.399 87.6323 283.407 88.3611 281.37C90.7879 285.878 92.94 289.4 94.2107 291.27C93.9016 293.77 93.5582 296.294 93.3178 298.749Z" fill="white"/>
<path d="M125.943 375.855C152.483 375.855 173.998 371.187 173.998 365.428C173.998 359.67 152.483 355.001 125.943 355.001C99.4021 355.001 77.8867 359.67 77.8867 365.428C77.8867 371.187 99.4021 375.855 125.943 375.855Z" fill="#359A9C"/>
<path opacity="0.5" d="M125.943 375.855C152.483 375.855 173.998 371.187 173.998 365.428C173.998 359.67 152.483 355.001 125.943 355.001C99.4021 355.001 77.8867 359.67 77.8867 365.428C77.8867 371.187 99.4021 375.855 125.943 375.855Z" fill="white"/>
<path d="M300.308 375.855C326.848 375.855 348.364 371.187 348.364 365.428C348.364 359.67 326.848 355.001 300.308 355.001C273.767 355.001 252.252 359.67 252.252 365.428C252.252 371.187 273.767 375.855 300.308 375.855Z" fill="#359A9C"/>
<path opacity="0.5" d="M300.308 375.855C326.848 375.855 348.364 371.187 348.364 365.428C348.364 359.67 326.848 355.001 300.308 355.001C273.767 355.001 252.252 359.67 252.252 365.428C252.252 371.187 273.767 375.855 300.308 375.855Z" fill="white"/>
<path d="M219.651 175.059C221.587 176.274 223.242 177.889 224.504 179.797C225.947 182.423 231.991 184.132 231.991 184.132H234.223L235.139 194.651C232.838 194.726 230.543 194.949 228.27 195.317C226.931 195.613 225.566 195.786 224.195 195.833C224.195 195.833 217.109 186.897 215.93 185.188C214.751 183.479 214.625 179.934 215.152 179.269C215.678 178.604 219.651 175.059 219.651 175.059Z" fill="white" stroke="#263238" stroke-width="0.75" stroke-linecap="round" stroke-linejoin="round"/>
<path d="M210.206 192.942C210.206 192.942 206.268 194.261 207.973 195.317C208.85 195.707 209.827 195.816 210.768 195.627C211.709 195.438 212.569 194.961 213.228 194.261C213.88 193.206 211.808 192.414 210.206 192.942Z" fill="white" stroke="#263238" stroke-width="0.75" stroke-linecap="round" stroke-linejoin="round"/>
<path d="M205.88 180.852C205.88 180.852 217.556 176.642 218.083 177.032C218.609 177.422 219.525 180.978 219.525 180.978C219.525 180.978 227.653 185.842 228.317 187.688C228.843 190.555 228.843 193.494 228.317 196.36C227.916 197.026 225.695 197.806 224.882 198.07C224.063 198.273 223.206 198.273 222.387 198.07C221.998 197.943 215.69 193.481 215.69 193.481C215.69 193.481 209.268 194.135 207.826 194.135C206.383 194.135 204.93 194.009 204.93 194.009L205.88 180.852Z" fill="white" stroke="#263238" stroke-width="0.75" stroke-linecap="round" stroke-linejoin="round"/>
<path d="M220.439 185.807C220.439 185.807 224.767 188.182 225.694 189.489C226.621 190.797 227.525 196.464 227.525 196.464" stroke="#263238" stroke-width="0.75" stroke-linecap="round" stroke-linejoin="round"/>
<path d="M218.609 188.216C218.609 188.216 223.726 190.969 224.241 192.288C224.731 193.971 225.114 195.684 225.386 197.416" stroke="#263238" stroke-width="0.75" stroke-linecap="round" stroke-linejoin="round"/>
<path d="M221.23 177.56C221.23 177.56 215.586 183.869 214.27 184.534C212.953 185.199 212.702 184.396 211.98 183.869C211.259 183.341 216.182 176.252 216.056 175.724C216.743 175.216 217.581 174.952 218.435 174.975C219.29 174.998 220.112 175.306 220.772 175.851" fill="white"/>
<path d="M221.23 177.56C221.23 177.56 215.586 183.869 214.27 184.534C212.953 185.199 212.702 184.396 211.98 183.869C211.259 183.341 216.182 176.252 216.056 175.724C216.743 175.216 217.581 174.952 218.435 174.975C219.29 174.998 220.112 175.306 220.772 175.851" stroke="#263238" stroke-width="0.75" stroke-linecap="round" stroke-linejoin="round"/>
<path d="M212.955 191.543L212.749 192.254C212.334 193.511 212.091 194.82 212.027 196.142C212.291 196.67 213.87 197.198 214.397 196.406C214.924 195.615 215.965 191.68 215.702 191.153C215.439 190.625 214.408 188.342 212.955 191.543Z" fill="white" stroke="#263238" stroke-width="0.75" stroke-linecap="round" stroke-linejoin="round"/>
<path d="M217.944 190.969C217.532 191.485 215.655 197.152 216.112 197.852C216.57 198.551 218.471 198.781 218.997 197.989C219.524 197.198 221.355 192.254 220.829 191.107C220.302 189.96 219.821 188.732 217.944 190.969Z" fill="white" stroke="#263238" stroke-width="0.75" stroke-linecap="round" stroke-linejoin="round"/>
<path d="M221.229 192.151L221.034 192.609C220.462 193.974 218.825 198.092 219.26 198.861C219.695 199.63 222.271 200.008 222.797 198.735C223.324 197.462 225.167 192.552 223.942 191.371C223.75 191.142 223.496 190.973 223.21 190.886C222.925 190.799 222.62 190.796 222.333 190.879C222.046 190.961 221.789 191.125 221.593 191.351C221.397 191.577 221.271 191.854 221.229 192.151Z" fill="white" stroke="#263238" stroke-width="0.75" stroke-linecap="round" stroke-linejoin="round"/>
<path d="M130.922 81.5835C130.922 81.5835 131.608 85.8163 130.819 87.5025C130.029 89.1887 128.85 92.7217 128.85 92.7217L146.272 108.207C146.272 108.207 151.584 101.497 152.568 100.178C153.553 98.8586 154.858 97.115 154.858 97.115C154.858 97.115 146.295 91.6893 144.555 87.7434C142.815 83.7974 143.674 78.7732 139.976 77.9817C136.279 77.1902 132.009 79.2206 130.922 81.5835Z" fill="white" stroke="#263238" stroke-width="0.75" stroke-linecap="round" stroke-linejoin="round"/>
<path d="M164.086 55.4531C164.086 55.4531 171.366 55.3499 169.89 48.3527C168.413 41.3555 151.391 39.8643 148.243 43.122C145.095 46.3798 145.587 47.7104 145.587 47.7104C145.587 47.7104 130.923 47.3204 127.18 55.304C123.436 63.2877 125.119 73.6573 127.58 79.0715C130.041 84.4857 134.174 85.0822 136.337 84.3939C138.501 83.7057 140.069 82.421 140.069 80.448C140.069 78.475 141.454 73.7491 143.126 74.9305C144.797 76.112 146.56 76.502 149.525 73.6458C152.49 70.7896 156.702 67.2336 155.134 64.3774C153.566 61.5212 150.898 61.418 152.375 60.1332C153.852 58.8485 162.22 57.8391 162.998 56.9788C163.432 56.525 163.798 56.0112 164.086 55.4531Z" fill="#263238" stroke="#263238" stroke-width="0.75" stroke-linecap="round" stroke-linejoin="round"/>
<path d="M163.73 51.2549C163.73 51.2549 164.761 53.3311 154.962 55.912C145.163 58.4929 128.633 59.0091 128.141 65.2148" stroke="white" stroke-width="0.75" stroke-linecap="round" stroke-linejoin="round"/>
<path d="M144.67 63.1501C144.67 63.1501 132.811 66.7634 130.223 70.9044C127.636 75.0453 131.265 78.6472 131.265 78.6472" stroke="white" stroke-width="0.75" stroke-linecap="round" stroke-linejoin="round"/>
<path d="M164.085 55.4531C164.085 55.4531 166.844 64.8133 166.844 66.6945C166.844 68.5757 164.875 70.434 165.756 72.5102C166.638 74.5864 169.591 78.6241 169.591 79.9088C169.591 81.1936 165.264 82.4668 165.264 82.4668C165.264 82.4668 161.624 96.2318 160.834 97.9524C160.044 99.673 157.4 99.9254 154.24 99.0995C151.081 98.2736 142.736 93.8688 140.503 90.4276C138.271 86.9863 139.908 81.1477 139.908 81.1477C139.908 81.1477 135.329 79.0829 134.402 74.747C133.475 70.411 136.863 67.5433 139.817 68.5298C140.647 68.7759 141.416 69.1928 142.077 69.7537C142.737 70.3146 143.273 71.0073 143.651 71.7875C143.651 71.7875 143.949 72.8658 144.796 72.579C145.643 72.2922 146.467 70.5028 147.257 70.3996C148.047 70.2963 153.656 68.3348 152.981 66.1668C152.306 63.9989 145.3 63.8727 145.792 61.4294C146.284 58.9861 164.085 55.4531 164.085 55.4531Z" fill="white" stroke="#263238" stroke-width="0.75" stroke-linecap="round" stroke-linejoin="round"/>
<path d="M155.327 80.4939L152.477 82.4669" stroke="#263238" stroke-width="0.75" stroke-linecap="round" stroke-linejoin="round"/>
<path d="M154.24 81.7786C154.24 81.7786 155.133 84.1415 158.819 84.933L154.24 81.7786Z" fill="white"/>
<path d="M154.24 81.7786C154.24 81.7786 155.133 84.1415 158.819 84.933" stroke="#263238" stroke-width="0.75" stroke-linecap="round" stroke-linejoin="round"/>
<path d="M154.343 82.4668C154.343 82.4668 152.671 87.0551 154.732 88.0875C156.792 89.1198 157.685 84.8412 157.685 84.8412L154.343 82.4668Z" fill="black"/>
<path d="M165.458 73.2558C165.343 75.6532 164.737 77.5688 164.107 77.5344C163.478 77.5 163.077 75.5385 163.203 73.1411C163.329 70.7437 163.924 68.8396 164.554 68.8625C165.183 68.8855 165.584 70.8584 165.458 73.2558Z" fill="white" stroke="#263238" stroke-width="0.75" stroke-linecap="round" stroke-linejoin="round"/>
<path d="M163.204 70.8354H143.125" stroke="#263238" stroke-width="0.75" stroke-linecap="round" stroke-linejoin="round"/>
<path d="M161.818 68.1742C161.968 67.6363 162.242 67.1413 162.618 66.7289C162.994 66.3164 163.461 65.9982 163.982 65.7997C165.665 65.3065 165.951 66.2012 165.951 66.2012" fill="white"/>
<path d="M161.818 68.1742C161.968 67.6363 162.242 67.1413 162.618 66.7289C162.994 66.3164 163.461 65.9982 163.982 65.7997C165.665 65.3065 165.951 66.2012 165.951 66.2012" stroke="#263238" stroke-width="0.75" stroke-linecap="round" stroke-linejoin="round"/>
<path d="M93.5589 235.281L154.573 233.445C154.573 233.445 158.374 275.773 157.458 276.702C156.542 277.631 96.0544 280.143 96.0544 280.143C96.0544 280.143 91.3724 280.476 90.7085 278.376C90.0445 276.277 93.5589 235.281 93.5589 235.281Z" fill="white" stroke="#263238" stroke-width="0.75" stroke-linecap="round" stroke-linejoin="round"/>
<path d="M93.5589 235.281C93.5589 235.281 87.8353 277.218 88.8312 278.411C89.8271 279.604 94.5549 280.464 96.0545 280.12C97.4282 279.868 93.5589 235.281 93.5589 235.281Z" fill="white" stroke="#263238" stroke-width="0.75" stroke-linecap="round" stroke-linejoin="round"/>
<path d="M111.531 350.195C108.177 352.248 106.552 355.713 107.341 358.477C108.131 361.242 108.383 361.505 110.489 361.918C112.596 362.331 122.028 360.863 132.239 359.154C142.45 357.445 143.927 357.055 144.831 355.609C145.736 354.164 147.327 352.719 137.219 351.021C127.111 349.323 126.195 347.465 126.195 347.465C126.195 347.465 116.911 346.903 111.531 350.195Z" fill="#359A9C" stroke="#263238" stroke-width="0.75" stroke-linecap="round" stroke-linejoin="round"/>
<path d="M144.555 352.925C143.869 354.336 141.717 356.871 134.951 357.685C127.797 358.546 114.85 359.842 108.016 360.427C108.485 361.402 109.057 361.574 110.488 361.895C112.583 362.285 122.027 360.84 132.238 359.131C142.449 357.422 143.926 357.032 144.83 355.586C145.414 354.715 146.204 353.843 144.555 352.925Z" fill="#263238" stroke="#263238" stroke-width="0.75" stroke-linecap="round" stroke-linejoin="round"/>
<path d="M129.641 353.74C129.641 353.74 140.138 358.741 145.919 359.922C151.7 361.104 153.131 361.241 152.478 363.077C151.826 364.912 151.688 365.451 142.897 367.55C134.105 369.649 124.524 367.286 120.322 366.495C116.121 365.704 114.816 366.896 112.985 366.105C111.153 365.314 111.668 361.368 111.668 361.368L129.641 353.74Z" fill="#359A9C" stroke="#263238" stroke-width="0.75" stroke-linecap="round" stroke-linejoin="round"/>
<path d="M142.897 367.55C150.28 365.784 151.551 365.13 152.157 363.868C144.144 367.31 133.521 365.887 125.416 364.958C120.196 364.35 115.217 363.811 111.68 363.524C111.661 364.034 111.775 364.539 112.01 364.992C112.244 365.444 112.592 365.828 113.019 366.105C114.851 366.897 116.167 365.715 120.357 366.495C124.546 367.275 134.105 369.65 142.897 367.55Z" fill="#263238" stroke="#263238" stroke-width="0.75" stroke-linecap="round" stroke-linejoin="round"/>
<path d="M117.838 257.11C117.838 257.11 115.995 272.09 112.32 278.537C108.646 284.984 103.666 289.446 102.876 298.783C102.086 308.12 104.708 346.249 104.971 349.541C105.234 352.833 103.826 353.877 105.234 355.976C106.117 357.264 107.08 358.494 108.119 359.658L112.458 355.85C112.458 355.85 115.606 345.721 114.816 326.393C114.026 307.065 114.163 294.057 117.575 281.164C120.986 268.271 121.638 264.864 120.059 259.863C118.479 254.861 117.838 257.11 117.838 257.11Z" fill="#263238" stroke="#263238" stroke-width="0.75" stroke-linecap="round" stroke-linejoin="round"/>
<path d="M109.573 226.047C109.573 226.047 113.9 234.225 114.884 236.37C115.869 238.515 118.124 263.396 116.361 271.677C114.598 279.959 107.73 294.034 108.348 306.388C108.966 318.742 109.493 351.491 109.493 351.881C109.098 353.834 109.098 355.847 109.493 357.8C110.145 361.345 112.114 362.388 112.114 362.388C115.455 360.83 118.92 359.556 122.474 358.58C128.907 356.733 130.739 354.107 130.739 354.107C130.177 352.403 129.52 350.734 128.77 349.105C127.854 347.27 126.286 344.379 126.549 343.45C126.812 342.521 128.518 312.295 131.929 302.304C135.341 292.313 137.298 281.795 140.194 272.584C143.09 263.373 149.993 238.699 149.993 232.39V224.636L109.058 223.844L109.573 226.047Z" fill="#263238" stroke="#263238" stroke-width="0.75" stroke-linecap="round" stroke-linejoin="round"/>
<path d="M112.949 284.961C111.804 288.482 110.534 292.428 109.572 295.56C107.283 303.016 109.572 344.884 109.572 344.884C109.823 347.936 109.895 351 109.79 354.061C109.572 357.858 109.79 359.36 110.728 360.381" stroke="white" stroke-width="0.75" stroke-linecap="round" stroke-linejoin="round"/>
<path d="M115.869 276.059C115.869 276.059 115.022 278.594 113.889 282.07" stroke="white" stroke-width="0.75" stroke-linecap="round" stroke-linejoin="round"/>
<path d="M127.579 89.1772C127.579 89.1772 132.158 90.7488 139.026 96.7709C145.895 102.793 152.901 108.506 151.424 110.536C149.947 112.566 147.188 119.713 147.188 119.713C147.188 119.713 144.636 115.468 137.057 109.389C129.479 103.309 123.664 97.8492 123.664 97.8492C123.664 97.8492 126.789 90.462 127.579 89.1772Z" fill="white" stroke="#263238" stroke-width="0.75" stroke-linecap="round" stroke-linejoin="round"/>
<path d="M121.478 98.8357C121.478 98.8357 106.814 109.286 104.307 119.345C101.8 129.405 100.758 134.338 100.965 153.563C101.171 172.788 102.338 184.924 102.338 185.807C102.338 186.69 98.4805 222.399 98.4805 222.789C98.4805 223.179 105.349 229.499 124.557 229.889C137.594 229.973 150.614 228.952 163.478 226.838L155.11 157.612C155.11 157.612 151.859 128.121 148.517 122.603C145.174 117.086 121.478 98.8357 121.478 98.8357Z" fill="#359A9C" stroke="#263238" stroke-width="0.75" stroke-linecap="round" stroke-linejoin="round"/>
<path d="M129.938 194.789C129.938 194.789 142.14 197.255 150.543 194.192" stroke="#263238" stroke-width="0.75" stroke-linecap="round" stroke-linejoin="round"/>
<path d="M129.938 198.425C129.938 198.425 142.14 200.891 150.543 197.84" stroke="#263238" stroke-width="0.75" stroke-linecap="round" stroke-linejoin="round"/>
<path d="M203.773 178.879L206.795 180.324L204.952 193.997L201.941 193.47L203.773 178.879Z" fill="white" stroke="#263238" stroke-width="0.75" stroke-linecap="round" stroke-linejoin="round"/>
<path d="M134.493 116.822C132.775 117.365 131.237 118.364 130.04 119.712C128.071 122.007 117.448 135.221 118.226 141.014C119.005 146.806 132.822 167.959 137.4 174.543C143.038 182.887 151.157 189.237 160.604 192.69C172.155 196.899 202.204 194.8 202.204 194.8L203.795 178.477C203.795 178.477 187.402 173.224 176.115 169.805C169.838 167.945 163.698 165.645 157.742 162.923C157.742 162.923 155.121 156.476 153.278 155.432C151.435 154.389 151.183 153.723 151.183 153.723C151.183 153.723 147.646 134.395 145.803 128.075C143.96 121.754 141.476 120.194 141.476 120.194" fill="#359A9C"/>
<path d="M134.493 116.822C132.775 117.365 131.237 118.364 130.04 119.712C128.071 122.007 117.448 135.221 118.226 141.014C119.005 146.806 132.822 167.959 137.4 174.543C143.038 182.887 151.157 189.237 160.604 192.69C172.155 196.899 202.204 194.8 202.204 194.8L203.795 178.477C203.795 178.477 187.402 173.224 176.115 169.805C169.838 167.945 163.698 165.645 157.742 162.923C157.742 162.923 155.121 156.476 153.278 155.432C151.435 154.389 151.183 153.723 151.183 153.723C151.183 153.723 147.646 134.395 145.803 128.075C143.96 121.754 141.476 120.194 141.476 120.194" stroke="#263238" stroke-width="0.75" stroke-linecap="round" stroke-linejoin="round"/>
<path d="M287.888 347.144C283.208 349.852 278.342 352.225 273.327 354.244C266.63 356.745 265.051 357.685 266.367 359.108C267.683 360.53 279.096 361.608 285.518 360.255C291.94 358.901 294.447 358.03 297.332 358.156C300.217 358.282 304.2 359.073 305.597 357.1C306.994 355.127 307.566 354.737 306.513 351.445C305.46 348.153 287.888 347.144 287.888 347.144Z" fill="#359A9C" stroke="#263238" stroke-width="0.75" stroke-linecap="round" stroke-linejoin="round"/>
<path d="M285.518 360.289C291.951 358.982 294.447 358.064 297.331 358.19C300.216 358.316 304.2 359.108 305.596 357.135C306.627 355.724 307.188 355.116 307.039 353.694C302.368 353.304 293.359 354.783 282.622 357.135C277.187 358.461 271.552 358.749 266.012 357.984C265.949 358.188 265.949 358.407 266.013 358.612C266.076 358.817 266.199 358.997 266.366 359.131C267.683 360.553 279.096 361.608 285.518 360.289Z" fill="#263238" stroke="#263238" stroke-width="0.75" stroke-linecap="round" stroke-linejoin="round"/>
<path d="M312.684 355.827C310.055 358.675 307.253 361.357 304.293 363.857C299.954 367.401 292.479 372.276 293.269 374.375C294.059 376.475 299.428 378.448 310.715 375.523C317.938 373.544 324.771 370.343 330.919 366.059C332.18 365.825 333.305 365.12 334.067 364.086C334.994 362.503 333.941 360.014 333.941 360.014L312.684 355.827Z" fill="#359A9C" stroke="#263238" stroke-width="0.75" stroke-linecap="round" stroke-linejoin="round"/>
<path d="M310.714 375.545C317.938 373.567 324.771 370.366 330.919 366.082C332.18 365.848 333.305 365.143 334.067 364.109C334.567 362.897 334.567 361.536 334.067 360.324C317.743 372.701 302.472 375.236 294.391 375.603C296.52 377.071 301.763 377.84 310.714 375.545Z" fill="#263238" stroke="#263238" stroke-width="0.75" stroke-linecap="round" stroke-linejoin="round"/>
<path d="M293.086 202.646C293.086 202.646 286.137 203.575 281.146 201.729C276.155 199.882 271.439 198.448 271.439 198.448C271.439 198.448 268.68 234.34 271.702 248.805C274.724 263.269 282.726 280.923 282.852 284.961C283.012 289.818 283.582 294.653 284.557 299.414C285.473 303.096 289.938 331.532 290.201 334.652C290.376 336.226 290.376 337.815 290.201 339.39C290.201 339.39 287.053 340.445 287.053 341.363V348.062C289.649 349.429 292.376 350.532 295.192 351.354C300.046 352.799 306.868 353.98 306.868 353.98C307.454 351.331 307.89 348.65 308.173 345.951C308.173 344.116 307.028 339.252 307.028 336.614C307.028 333.975 307.692 302.431 307.692 302.431C307.692 302.431 314.114 329.387 314.114 338.323C314.114 347.259 313.988 350.161 313.988 350.161C313.988 350.161 311.104 349.243 311.104 351.216C311.104 353.189 310.966 357.915 310.966 357.915C310.966 357.915 321.2 360.542 326.054 361.987C328.948 362.862 332.006 363.043 334.983 362.515C334.983 362.515 337.604 352.524 337.341 349.243C337.078 345.962 333.804 343.186 333.804 341.351C333.804 339.516 335.509 321.369 333.014 305.585C330.518 289.801 323.959 282.575 323.696 274.821C323.432 267.066 324.841 239.192 325.012 234.673C325.184 230.153 329.729 220.736 330.392 216.526C331.056 212.316 330.518 199.836 330.518 199.836C330.518 199.836 301.099 204.092 293.086 202.646Z" fill="#263238" stroke="#263238" stroke-width="0.75" stroke-linecap="round" stroke-linejoin="round"/>
<path d="M280.539 220.667L287.625 225.267" stroke="white" stroke-width="0.75" stroke-linecap="round" stroke-linejoin="round"/>
<path d="M306.111 298.405C307.096 300.963 307.702 302.442 307.702 302.442" stroke="white" stroke-width="0.75" stroke-linecap="round" stroke-linejoin="round"/>
<path d="M285.266 224.085C285.266 224.085 289.982 251.822 295.625 269.177C298.522 278.078 301.624 286.612 303.959 292.795" stroke="white" stroke-width="0.75" stroke-linecap="round" stroke-linejoin="round"/>
<path d="M231.99 182.297C232.116 182.687 232.769 197.026 232.769 197.026L270.43 193.584L269.652 175.048L231.99 182.297Z" fill="#263238" stroke="#263238" stroke-width="0.75" stroke-linecap="round" stroke-linejoin="round"/>
<path d="M305.86 107.198C305.86 107.198 297.332 110.215 295.626 112.325C293.921 114.436 283.813 150.053 280.493 160.572C277.173 171.09 276.166 202.91 276.166 202.91C278.001 203.591 279.889 204.12 281.81 204.493C283.7 204.813 285.617 204.944 287.533 204.883C287.533 204.883 298.557 167.672 303.937 154.928C309.317 142.184 318.361 123.899 321.784 116.799C325.206 109.699 328.206 108.379 327.816 104.961C327.427 101.543 325.847 100.224 323.878 99.9599C321.909 99.6961 305.86 107.198 305.86 107.198Z" fill="white" stroke="#263238" stroke-width="0.75" stroke-linecap="round" stroke-linejoin="round"/>
<path d="M306.924 106.154C306.924 106.154 298.396 109.171 296.69 111.281C294.984 113.392 284.888 149.009 281.637 159.528C278.386 170.046 277.275 201.866 277.275 201.866C279.111 202.547 280.998 203.076 282.919 203.449C284.81 203.762 286.727 203.893 288.643 203.839C288.643 203.839 299.666 166.628 305.047 153.873C310.427 141.117 319.482 122.901 322.893 115.744C326.304 108.586 329.315 107.336 328.926 103.917C328.536 100.499 326.957 99.1798 324.988 98.916C323.019 98.6522 306.924 106.154 306.924 106.154Z" fill="#359A9C" stroke="#263238" stroke-width="0.75" stroke-linecap="round" stroke-linejoin="round"/>
<path d="M318.451 110.479C313.103 119.646 308.413 129.183 304.417 139.018C299.037 152.955 294.71 165.401 289.192 183.983C285.876 195.457 284.765 207.458 285.918 219.348C285.918 219.348 288.54 223.821 304.028 224.349C319.516 224.877 338.931 219.876 338.931 219.876C338.931 219.876 336.298 204.092 336.034 194.766C335.771 185.44 343.258 152.691 346.406 144.145C349.554 135.6 356.376 127.054 349.84 118.772C343.303 110.49 327.666 101.153 327.666 101.153C327.666 101.153 320.157 107.588 318.451 110.479Z" fill="#263238" stroke="#263238" stroke-width="0.75" stroke-linecap="round" stroke-linejoin="round"/>
<path d="M300.742 110.352C300.742 110.352 296.678 115.48 293.004 126.412C289.329 137.343 282.507 166.387 279.359 178.741C276.211 191.095 274.631 218.579 274.631 218.579C274.631 218.579 272.925 218.453 269.388 218.453C267.058 218.384 264.771 217.8 262.691 216.744C262.691 216.744 265.187 189.788 267.419 177.17C269.651 164.552 276.211 142.058 277.39 133.248C278.569 124.439 278.958 122.213 280.538 121.02C282.117 119.827 294.446 112.348 296.942 110.639C299.437 108.93 300.742 110.352 300.742 110.352Z" fill="#263238" stroke="#263238" stroke-width="0.75" stroke-linecap="round" stroke-linejoin="round"/>
<path d="M331.708 104.043C331.708 104.043 324.232 118.898 322.264 121.663C321.122 123.241 320.111 124.909 319.241 126.652L312.682 129.153L315.304 133.363C315.304 133.363 302.059 157.13 298.648 165.045C295.236 172.96 291.779 181.483 291.779 181.483" stroke="white" stroke-width="0.75" stroke-linecap="round" stroke-linejoin="round"/>
<path d="M277.802 170.976C277.561 173.602 277.516 174.646 277.516 174.646" stroke="white" stroke-width="0.75" stroke-linecap="round" stroke-linejoin="round"/>
<path d="M294.057 114.952L286.708 126.262L288.414 128.889L284.338 133.89C284.338 133.89 280.011 151.9 278.832 161.627C278.603 163.519 278.409 165.171 278.26 166.605" stroke="white" stroke-width="0.75" stroke-linecap="round" stroke-linejoin="round"/>
<path d="M295.501 110.089L294.059 117.051L301.534 112.062L295.501 110.089Z" fill="white" stroke="#263238" stroke-width="0.75" stroke-linecap="round" stroke-linejoin="round"/>
<path d="M301.796 104.571C301.659 104.961 295.5 110.089 295.5 110.089L302.449 112.979L303.891 107.324L301.796 104.571Z" fill="white" stroke="#263238" stroke-width="0.75" stroke-linecap="round" stroke-linejoin="round"/>
<path d="M299.301 52.1038C296.339 53.9525 294.005 56.6556 292.604 59.858C290.246 65.2493 288.415 67.4861 288.941 69.1952C289.319 70.3514 289.58 71.5427 289.72 72.7512C289.72 73.1412 284.213 78.4063 284.076 79.9778C283.939 81.5493 287.625 84.4514 287.625 84.4514C287.625 84.4514 288.014 93.5248 288.014 94.3163C288.014 95.1078 288.277 99.1799 292.089 100.224C294.682 100.823 297.381 100.779 299.953 100.098L302.449 112.979C302.449 112.979 319.906 102.197 321.738 101.279C323.569 100.361 325.801 99.1799 325.939 97.7346C326.076 96.2892 324.886 88.2597 324.886 88.2597C324.886 88.2597 334.204 79.714 334.044 69.7229C333.883 59.7318 328.572 53.4229 318.853 50.452C309.134 47.481 299.301 52.1038 299.301 52.1038Z" fill="white" stroke="#263238" stroke-width="0.75" stroke-linecap="round" stroke-linejoin="round"/>
<path d="M334.066 69.7227C333.94 59.7317 328.56 53.4227 318.853 50.3944C309.145 47.3661 299.301 52.1036 299.301 52.1036C298.533 52.5642 297.813 53.0982 297.148 53.698C300.354 53.1245 305.631 52.723 309.409 55.1319C315.132 58.814 311.503 62.4961 309.534 64.4691C307.566 66.4421 307.176 67.2221 308.619 69.0574C310.061 70.8927 312.82 70.8927 312.156 72.6019C311.492 74.311 309.534 76.6855 311.114 77.3393C312.694 77.9931 314.125 76.5478 314.789 74.5748C315.453 72.6019 318.715 72.6019 320.032 76.6855C320.509 78.221 320.499 79.8668 320.005 81.397C319.511 82.9271 318.557 84.2665 317.273 85.2312C316.216 86.0158 314.909 86.387 313.598 86.2751C315.852 87.422 318.23 88.3071 320.684 88.9133C322.108 89.0326 323.543 88.9203 324.931 88.5807C324.931 88.3742 324.931 88.248 324.931 88.248C324.931 88.248 334.203 79.7138 334.066 69.7227Z" fill="#263238" stroke="#263238" stroke-width="0.75" stroke-linecap="round" stroke-linejoin="round"/>
<path d="M295.89 74.8502C295.89 75.8711 295.569 76.697 295.168 76.697C294.768 76.697 294.447 75.8711 294.447 74.8502C294.447 73.8293 294.768 73.0149 295.168 73.0149C295.569 73.0149 295.89 73.8408 295.89 74.8502Z" fill="black"/>
<path d="M292.479 69.3327C292.479 69.3327 293.005 67.4859 295.913 67.6235C298.82 67.7612 298.935 69.8603 298.935 69.8603" fill="white"/>
<path d="M292.479 69.3327C292.479 69.3327 293.005 67.4859 295.913 67.6235C298.82 67.7612 298.935 69.8603 298.935 69.8603" stroke="#263238" stroke-width="0.75" stroke-linecap="round" stroke-linejoin="round"/>
<path d="M287.625 84.4514C288.427 84.7416 289.287 84.8337 290.132 84.7199C290.977 84.6061 291.782 84.2897 292.479 83.7975C294.574 82.0884 292.868 80.6316 292.868 80.6316" fill="white"/>
<path d="M287.625 84.4514C288.427 84.7416 289.287 84.8337 290.132 84.7199C290.977 84.6061 291.782 84.2897 292.479 83.7975C294.574 82.0884 292.868 80.6316 292.868 80.6316" stroke="#263238" stroke-width="0.75" stroke-linecap="round" stroke-linejoin="round"/>
<path d="M288.151 86.5506C288.151 86.5506 295.1 83.1093 298.248 83.0061C301.396 82.9029 304.681 88.3056 303.388 92.8939C302.094 97.4822 300.64 99.7764 296.176 101.577C291.711 103.378 287.51 103.023 286.732 99.9943C285.953 96.966 289.479 92.6415 291.185 91.8501C292.89 91.0586 294.207 90.9324 293.944 92.3777C293.68 93.823 292.89 94.8669 296.176 94.213C299.461 93.5592 301.293 92.6415 301.419 89.0856C301.545 85.5297 300.274 84.222 296.84 84.7496C293.405 85.2773 288.311 88.0303 288.311 88.0303L288.151 86.5506Z" fill="#263238" stroke="#263238" stroke-width="0.75" stroke-linecap="round" stroke-linejoin="round"/>
<path d="M290.898 89.3149C290.898 89.3149 296.416 89.051 298.385 86.8142L290.898 89.3149Z" fill="white"/>
<path d="M290.898 89.3149C290.898 89.3149 296.416 89.051 298.385 86.8142" stroke="#263238" stroke-width="0.75" stroke-linecap="round" stroke-linejoin="round"/>
<path d="M313.084 86.1604C313.092 87.2399 312.86 88.3076 312.405 89.2858C311.949 90.2641 311.282 91.1283 310.451 91.8155" fill="white"/>
<path d="M313.084 86.1604C313.092 87.2399 312.86 88.3076 312.405 89.2858C311.949 90.2641 311.282 91.1283 310.451 91.8155" stroke="#263238" stroke-width="0.75" stroke-linecap="round" stroke-linejoin="round"/>
<path d="M302.449 112.979L306.261 121.789C306.261 121.789 320.685 111.006 324.233 106.796C327.782 102.587 330.529 100.488 328.561 97.6199C326.592 94.7522 323.707 97.0922 323.18 97.356C322.654 97.6199 302.449 112.979 302.449 112.979Z" fill="white" stroke="#263238" stroke-width="0.75" stroke-linecap="round" stroke-linejoin="round"/>
<path d="M273.624 190.682C271.99 185.356 270.679 179.936 269.698 174.451C268.908 169.415 268.553 164.288 268.553 164.288C262.215 163.709 256.019 162.065 250.226 159.424C241.572 155.226 239.729 153.689 239.729 153.689C239.729 153.689 251.405 191.818 253.774 199.836C256.144 207.854 256.659 209.563 256.659 209.563C260.404 211.422 264.37 212.794 268.461 213.647C271.71 214.254 275.002 214.603 278.306 214.691L273.624 190.682Z" fill="white" stroke="#263238" stroke-width="0.75" stroke-linecap="round" stroke-linejoin="round"/>
<path d="M286.708 190.682C283.933 190.165 281.238 189.282 278.695 188.055C276.786 186.946 274.704 186.171 272.536 185.761H272.01L273.578 190.625C271.642 191.054 269.665 191.277 267.682 191.29C264.534 191.29 257.964 190.235 257.712 190.625C257.468 191.568 257.379 192.544 257.449 193.515C257.449 194.445 262.165 200.1 264.924 202.073C267.682 204.046 270.167 205.353 272.662 205.353C275.158 205.353 288.539 203.518 288.539 203.518L286.708 190.682Z" fill="white" stroke="#263238" stroke-width="0.75" stroke-linecap="round" stroke-linejoin="round"/>
<path d="M324.885 139.408C324.885 139.408 325.537 154.136 325.938 164.781C326.339 175.426 326.991 176.355 326.991 176.355C326.991 176.355 297.594 187.402 293.13 188.319C288.665 189.237 285.266 190.292 285.266 190.292L287.235 204.619C296.854 205.433 306.541 204.544 315.853 201.993C330.162 197.783 352.198 193.573 352.599 191.611C352.999 189.65 352.599 183.72 352.599 182.435C352.599 181.15 352.198 152.852 352.198 140.234C352.198 127.616 353.114 124.714 351.546 122.087C349.977 119.46 341.964 118.141 337.374 120.768" fill="#263238"/>
<path d="M324.885 139.408C324.885 139.408 325.537 154.136 325.938 164.781C326.339 175.426 326.991 176.355 326.991 176.355C326.991 176.355 297.594 187.402 293.13 188.319C288.665 189.237 285.266 190.292 285.266 190.292L287.235 204.619C296.854 205.433 306.541 204.544 315.853 201.992C330.162 197.783 352.198 193.573 352.599 191.611C352.999 189.65 352.599 183.72 352.599 182.435C352.599 181.15 352.198 152.852 352.198 140.234C352.198 127.616 353.114 124.714 351.546 122.087C349.977 119.46 341.964 118.141 337.374 120.768" stroke="#263238" stroke-width="0.75" stroke-linecap="round" stroke-linejoin="round"/>
<path d="M302.689 184.809L326.992 176.355L324.84 143.904" stroke="white" stroke-width="0.75" stroke-linecap="round" stroke-linejoin="round"/>
<path d="M295.867 187.184L299.382 185.968" stroke="white" stroke-width="0.75" stroke-linecap="round" stroke-linejoin="round"/>
<path d="M333.266 127.547C333.266 127.547 342.423 116.076 351.524 122.053" stroke="white" stroke-width="0.75" stroke-linecap="round" stroke-linejoin="round"/>
<path d="M257.965 192.001C257.965 192.001 264.009 196.074 268.073 196.739" stroke="#263238" stroke-width="0.75" stroke-linecap="round" stroke-linejoin="round"/>
<path d="M259.018 195.947C260.799 197.518 262.84 198.764 265.05 199.629L267.809 200.409" stroke="#263238" stroke-width="0.75" stroke-linecap="round" stroke-linejoin="round"/>
<path d="M265.611 202.52C267.173 203.094 268.806 203.449 270.465 203.576" stroke="#263238" stroke-width="0.75" stroke-linecap="round" stroke-linejoin="round"/>
<path d="M154.183 153.287C154.183 153.287 152.374 134.762 150.245 121.708C149.1 114.493 144.739 108.345 140.183 102.839C136.417 98.2506 130.727 94.0523 127.591 89.1772C126.503 87.5025 120.803 99.6157 120.791 99.6271C119.646 102.208 133.211 110.387 135.043 112.245C137.447 114.654 139.622 117.499 141.808 120.091C142.804 121.238 145.426 125.608 146.925 125.976L149.352 126.583L147.532 132.055L154.183 153.287Z" fill="#359A9C" stroke="#263238" stroke-width="0.75" stroke-linecap="round" stroke-linejoin="round"/>
</svg>
