<svg width="230" height="31" viewBox="0 0 230 31" fill="none" xmlns="http://www.w3.org/2000/svg">
<path d="M71.6973 16.6899V22.479H67.9121V5.67432H73.8418C78.0762 5.67432 80.1934 7.45947 80.1934 11.0298C80.1934 12.7173 79.584 14.0845 78.3652 15.1313C77.1543 16.1704 75.5332 16.6899 73.502 16.6899H71.6973ZM71.6973 8.58057V13.8188H73.1855C75.2012 13.8188 76.209 12.936 76.209 11.1704C76.209 9.44385 75.2012 8.58057 73.1855 8.58057H71.6973ZM90.1191 13.8188C89.6738 13.5767 89.1543 13.4556 88.5605 13.4556C87.7559 13.4556 87.127 13.7524 86.6738 14.3462C86.2207 14.9321 85.9941 15.7329 85.9941 16.7485V22.479H82.291V10.479H85.9941V12.7056H86.041C86.627 11.0806 87.6816 10.2681 89.2051 10.2681C89.5957 10.2681 89.9004 10.3149 90.1191 10.4087V13.8188ZM97.4785 22.772C95.4785 22.772 93.9043 22.2134 92.7559 21.0962C91.6152 19.9712 91.0449 18.4478 91.0449 16.5259C91.0449 14.5415 91.6387 12.9907 92.8262 11.8735C94.0137 10.7485 95.6191 10.186 97.6426 10.186C99.6348 10.186 101.197 10.7485 102.33 11.8735C103.463 12.9907 104.029 14.4712 104.029 16.3149C104.029 18.3071 103.443 19.8813 102.271 21.0376C101.107 22.1938 99.5098 22.772 97.4785 22.772ZM97.5723 13.022C96.6973 13.022 96.0176 13.3228 95.5332 13.9243C95.0488 14.5259 94.8066 15.3774 94.8066 16.479C94.8066 18.7837 95.7363 19.936 97.5957 19.936C99.3691 19.936 100.256 18.7524 100.256 16.3853C100.256 14.1431 99.3613 13.022 97.5723 13.022ZM115.525 22.0454C114.689 22.5298 113.482 22.772 111.904 22.772C110.061 22.772 108.568 22.2134 107.428 21.0962C106.287 19.979 105.717 18.5376 105.717 16.772C105.717 14.7329 106.326 13.1274 107.545 11.9556C108.771 10.7759 110.408 10.186 112.455 10.186C113.869 10.186 114.893 10.3735 115.525 10.7485V13.8892C114.752 13.311 113.889 13.022 112.936 13.022C111.873 13.022 111.029 13.3345 110.404 13.9595C109.787 14.5767 109.479 15.4321 109.479 16.5259C109.479 17.5884 109.775 18.4243 110.369 19.0337C110.963 19.6353 111.779 19.936 112.818 19.936C113.74 19.936 114.643 19.647 115.525 19.0688V22.0454ZM129.365 22.479H125.674V20.6509H125.615C124.701 22.0649 123.479 22.772 121.947 22.772C119.166 22.772 117.775 21.0884 117.775 17.7212V10.479H121.467V17.3931C121.467 19.0884 122.139 19.936 123.482 19.936C124.146 19.936 124.678 19.7056 125.076 19.2446C125.475 18.7759 125.674 18.1431 125.674 17.3462V10.479H129.365V22.479ZM140.322 13.8188C139.877 13.5767 139.357 13.4556 138.764 13.4556C137.959 13.4556 137.33 13.7524 136.877 14.3462C136.424 14.9321 136.197 15.7329 136.197 16.7485V22.479H132.494V10.479H136.197V12.7056H136.244C136.83 11.0806 137.885 10.2681 139.408 10.2681C139.799 10.2681 140.104 10.3149 140.322 10.4087V13.8188ZM152.744 17.5337H144.916C145.041 19.2759 146.139 20.147 148.209 20.147C149.529 20.147 150.689 19.8345 151.689 19.2095V21.8813C150.58 22.4751 149.139 22.772 147.365 22.772C145.428 22.772 143.924 22.2368 142.854 21.1665C141.783 20.0884 141.248 18.5884 141.248 16.6665C141.248 14.6743 141.826 13.0962 142.982 11.9321C144.139 10.7681 145.561 10.186 147.248 10.186C148.998 10.186 150.35 10.7056 151.303 11.7446C152.264 12.7837 152.744 14.1938 152.744 15.9751V17.5337ZM149.311 15.2603C149.311 13.5415 148.615 12.6821 147.225 12.6821C146.631 12.6821 146.115 12.9282 145.678 13.4204C145.248 13.9126 144.986 14.5259 144.893 15.2603H149.311ZM165.318 22.479H155.311V5.67432H159.096V19.4087H165.318V22.479ZM169.104 8.58057C168.479 8.58057 167.967 8.39697 167.568 8.02979C167.17 7.65479 166.971 7.19775 166.971 6.65869C166.971 6.104 167.17 5.65088 167.568 5.29932C167.967 4.94775 168.479 4.77197 169.104 4.77197C169.736 4.77197 170.248 4.94775 170.639 5.29932C171.037 5.65088 171.236 6.104 171.236 6.65869C171.236 7.22119 171.037 7.68213 170.639 8.0415C170.248 8.40088 169.736 8.58057 169.104 8.58057ZM170.932 22.479H167.229V10.479H170.932V22.479ZM185.639 22.479H181.947V15.811C181.947 13.9517 181.283 13.022 179.955 13.022C179.314 13.022 178.787 13.2681 178.373 13.7603C177.959 14.2524 177.752 14.8774 177.752 15.6353V22.479H174.049V10.479H177.752V12.3774H177.799C178.682 10.9165 179.967 10.186 181.654 10.186C184.311 10.186 185.639 11.8345 185.639 15.1313V22.479ZM200.604 22.479H196.162L192.33 16.5259H192.283V22.479H188.58V4.71338H192.283V16.022H192.33L195.904 10.479H200.299L195.998 16.1157L200.604 22.479ZM212.439 17.5337H204.611C204.736 19.2759 205.834 20.147 207.904 20.147C209.225 20.147 210.385 19.8345 211.385 19.2095V21.8813C210.275 22.4751 208.834 22.772 207.061 22.772C205.123 22.772 203.619 22.2368 202.549 21.1665C201.479 20.0884 200.943 18.5884 200.943 16.6665C200.943 14.6743 201.521 13.0962 202.678 11.9321C203.834 10.7681 205.256 10.186 206.943 10.186C208.693 10.186 210.045 10.7056 210.998 11.7446C211.959 12.7837 212.439 14.1938 212.439 15.9751V17.5337ZM209.006 15.2603C209.006 13.5415 208.311 12.6821 206.92 12.6821C206.326 12.6821 205.811 12.9282 205.373 13.4204C204.943 13.9126 204.682 14.5259 204.588 15.2603H209.006ZM222.471 13.8188C222.025 13.5767 221.506 13.4556 220.912 13.4556C220.107 13.4556 219.479 13.7524 219.025 14.3462C218.572 14.9321 218.346 15.7329 218.346 16.7485V22.479H214.643V10.479H218.346V12.7056H218.393C218.979 11.0806 220.033 10.2681 221.557 10.2681C221.947 10.2681 222.252 10.3149 222.471 10.4087V13.8188Z" fill="#023058"/>
<g clip-path="url(#clip0_56_2)">
<path d="M44.3512 26.5158C46.5951 26.5021 48.7415 25.5734 50.3183 23.9339L55.4642 18.5833C57.041 16.9439 57.9189 14.728 57.9048 12.4231C57.8756 7.62338 54.0638 3.7556 49.391 3.78409C47.1471 3.79777 45.0007 4.72654 43.4239 6.366L39.8645 10.067C39.8644 10.0669 39.8645 10.0671 39.8645 10.067L29.4935 20.8505C28.7404 21.6335 27.7153 22.077 26.6436 22.0835C24.8494 22.0945 23.3209 20.9026 22.7834 19.2437L19.5103 22.6469C21.0276 25.055 23.6721 26.6419 26.6713 26.6236C28.9152 26.6099 31.0616 25.6812 32.6384 24.0417L46.5688 9.5572C47.3219 8.77419 48.347 8.33065 49.4187 8.32411C51.6504 8.31051 53.4709 10.1577 53.4848 12.45C53.4916 13.5508 53.0723 14.6091 52.3192 15.3922L47.1734 20.7427C46.4203 21.5257 45.3952 21.9692 44.3235 21.9758C42.5292 21.9867 41.0008 20.7948 40.4633 19.1358L37.1902 22.539C38.7075 24.9472 41.3519 26.5341 44.3512 26.5158Z" fill="#E8630A"/>
<path d="M28.8886 9.66509C29.6417 8.88208 30.6668 8.43854 31.7385 8.432C33.5325 8.42106 35.0608 9.61263 35.5985 11.2713L38.8715 7.86813C37.3541 5.46034 34.7098 3.8737 31.7108 3.89198C29.4669 3.90566 27.3205 4.83443 25.7437 6.47389L11.8132 20.9583C11.0602 21.7413 10.0351 22.1849 8.96336 22.1914C6.73164 22.205 4.91122 20.3578 4.89724 18.0655C4.89053 16.9647 5.30981 15.9064 6.06287 15.1234L11.2087 9.77288C11.9618 8.98987 12.9869 8.54633 14.0586 8.53979C15.8528 8.52886 17.3811 9.72065 17.9187 11.3795L21.1917 7.97623C19.6744 5.5682 17.03 3.98149 14.0309 3.99977C11.787 4.01345 9.64056 4.94222 8.0638 6.58169L2.91793 11.9322C1.34117 13.5717 0.463216 15.7876 0.477268 18.0925C0.506531 22.8921 4.31824 26.7599 8.99104 26.7315C11.235 26.7178 13.3814 25.789 14.9582 24.1496L28.8886 9.66509Z" fill="#035397"/>
</g>
<defs>
<clipPath id="clip0_56_2">
<rect width="57.4607" height="22.7005" fill="white" transform="translate(57.9902 26.4326) rotate(179.651)"/>
</clipPath>
</defs>
</svg>
