<svg width="105" height="105" viewBox="0 0 105 105" fill="none" xmlns="http://www.w3.org/2000/svg">
<path d="M94.7085 53.4585C92.7919 65.646 89.0627 69.2085 82.4585 77.396C75.8543 84.3335 66.3544 95.9168 52.896 95.271C40.7085 93.3543 37.146 89.6252 28.9585 83.021C22.021 76.4168 10.4377 66.9169 11.0835 53.4585C13.0002 41.271 16.7294 37.7085 23.3335 29.521C29.9377 22.5835 39.4377 11.0002 52.896 11.646C65.0835 13.5627 68.646 17.2918 76.8335 23.896C83.771 30.5002 95.3544 40.0002 94.7085 53.4585Z" fill="#3765AF"/>
<path d="M28.5413 58.8337H23.708L23.0413 61.3337H18.708L23.8747 46.167H28.4997L33.6663 61.3337H29.2288L28.5413 58.8337ZM27.6455 55.5628L26.1247 50.1045L24.6247 55.5628H27.6455ZM31.9163 56.3128L35.958 56.0212C36.0622 56.7503 36.2288 57.292 36.4997 57.667C36.9372 58.2712 37.5622 58.5837 38.3747 58.5837C38.9788 58.5837 39.4372 58.4378 39.7705 58.1045C40.083 57.792 40.2705 57.417 40.2705 57.0212C40.2705 56.6253 40.1247 56.2712 39.7913 55.9587C39.4788 55.6462 38.7497 55.3545 37.6247 55.0837C35.7705 54.6253 34.4372 54.0003 33.6455 53.2503C32.8538 52.5003 32.458 51.5003 32.458 50.3337C32.458 49.5628 32.6663 48.8128 33.0622 48.1253C33.4788 47.4378 34.083 46.8962 34.8955 46.5003C35.708 46.1045 36.833 45.917 38.2705 45.917C40.0205 45.917 41.3747 46.2712 42.2705 47.0003C43.1872 47.7295 43.7288 48.8545 43.8955 50.4378L39.8955 50.7087C39.7913 50.0212 39.583 49.5212 39.2288 49.2087C38.8955 48.8962 38.4163 48.7503 37.833 48.7503C37.333 48.7503 36.958 48.8545 36.708 49.0837C36.458 49.3128 36.333 49.6045 36.333 49.917C36.333 50.167 36.4372 50.3753 36.6455 50.5628C36.8538 50.7712 37.333 50.9378 38.0622 51.1045C39.9163 51.542 41.2288 52.0003 42.0413 52.4587C42.833 52.917 43.4372 53.4587 43.7913 54.1462C44.1455 54.8128 44.333 55.5628 44.333 56.3962C44.333 57.3545 44.083 58.2503 43.583 59.0837C43.083 59.8962 42.4163 60.5212 41.5413 60.9378C40.6663 61.3545 39.5622 61.5628 38.2288 61.5628C35.8955 61.5628 34.2705 61.0628 33.3955 60.0628C32.5622 59.1045 32.0413 57.8545 31.9163 56.3128ZM44.1663 46.167H51.208C52.7497 46.167 53.8955 46.5628 54.6663 47.3753C55.4163 48.167 55.8122 49.3337 55.8122 50.8128C55.8122 52.3545 55.3955 53.542 54.5622 54.3962C53.7288 55.2503 52.458 55.6878 50.7497 55.6878H48.4372V61.3337H44.1663V46.167ZM48.4163 52.6253H49.458C50.2705 52.6253 50.8538 52.4795 51.1872 52.1462C51.4997 51.8337 51.6872 51.417 51.6872 50.9587C51.6872 50.5003 51.5413 50.0628 51.2497 49.7503C50.958 49.4378 50.4372 49.2503 49.6455 49.2503H48.4372V52.6253H48.4163Z" fill="white"/>
<path d="M57.5 61.167V48.2295H59.2292V50.0628C60.0625 48.6462 61.2708 47.9378 62.8333 47.9378C63.5208 47.9378 64.1458 48.0628 64.7083 48.3545C65.2708 48.6462 65.7083 49.0003 66 49.4587C66.2917 49.917 66.4792 50.4378 66.6042 51.0628C66.6875 51.4587 66.7083 52.1878 66.7083 53.1878V61.1253H64.7917V53.2712C64.7917 52.3753 64.7083 51.7087 64.5625 51.2712C64.4167 50.8337 64.1458 50.4795 63.7708 50.2087C63.3958 49.9378 62.9375 49.8128 62.4167 49.8128C61.6042 49.8128 60.8958 50.1253 60.2917 50.7087C59.7083 51.292 59.3958 52.417 59.3958 54.0837V61.1462L57.5 61.167ZM77.3958 57.0003L79.375 57.292C79.0625 58.6253 78.4792 59.6462 77.6458 60.3753C76.7917 61.1045 75.7083 61.4795 74.3958 61.4795C72.75 61.4795 71.4375 60.8962 70.4583 59.7295C69.5 58.5628 69 56.9378 69 54.8337C69 52.6462 69.5 50.9795 70.4583 49.7712C71.4375 48.5837 72.7083 47.9587 74.2708 47.9587C75.7917 47.9587 77.0208 48.542 77.9792 49.7295C78.9375 50.917 79.4167 52.5628 79.4167 54.6878C79.4167 54.8128 79.4167 55.0003 79.3958 55.2712H70.9375C71.0208 56.6878 71.3542 57.7712 72 58.542C72.625 59.292 73.4167 59.6878 74.375 59.6878C75.0833 59.6878 75.6875 59.4795 76.1875 59.0628C76.7083 58.6045 77.1042 57.917 77.3958 57.0003ZM71.0833 53.4587H77.4167C77.3333 52.3753 77.1042 51.5628 76.6875 51.0003C76.0833 50.167 75.2917 49.7295 74.3125 49.7295C73.4375 49.7295 72.7083 50.0628 72.0833 50.7295C71.4792 51.417 71.1667 52.3337 71.0833 53.4587ZM85.9792 59.2087L86.2708 61.1462C85.7292 61.2712 85.25 61.3337 84.8333 61.3337C84.125 61.3337 83.6042 61.2087 83.2292 60.9587C82.8542 60.7087 82.5833 60.3753 82.4167 59.9795C82.2708 59.5837 82.1875 58.7087 82.1875 57.3962V49.9587H76.0417V48.2503H82.1667V45.042L84.0833 43.7295V48.2503H86.0208V49.9587H84.0833V57.5003C84.0833 58.1253 84.125 58.5212 84.1875 58.6878C84.2708 58.8545 84.3542 59.0003 84.5 59.1253C84.6458 59.2295 84.875 59.2712 85.1458 59.2712C85.3542 59.292 85.6458 59.2712 85.9792 59.2087Z" fill="white"/>
<path d="M54.6452 57.8125C55.4785 57.8125 56.1869 58.5208 56.1869 59.375C56.1869 60.2292 55.4993 60.9375 54.6452 60.9375C53.8118 60.9375 53.1035 60.2292 53.1035 59.375C53.1035 58.5208 53.791 57.8125 54.6452 57.8125Z" fill="white"/>
</svg>
