<svg width="106" height="105" viewBox="0 0 106 105" fill="none" xmlns="http://www.w3.org/2000/svg">
<path d="M94.2994 83.125C93.8619 82.6875 93.4244 82.25 92.5494 81.8125C92.5494 81.8125 92.1119 81.375 91.6744 81.375C91.2369 80.9375 90.7994 80.9375 90.3619 80.5C89.9244 80.5 89.9244 80.0625 89.0494 79.625C88.6119 79.1875 88.1744 78.75 88.1744 78.3125C87.7369 77.875 87.7369 77 87.2994 76.125C86.8619 75.25 86.8619 74.375 86.8619 73.0625C86.4244 73.5 85.9869 74.375 85.9869 75.6875C85.9869 77 85.9869 78.3125 86.8619 79.625C87.2994 80.9375 88.1744 81.8125 89.4869 82.25C90.7994 82.6875 91.6744 83.125 92.1119 83.5625C92.9869 84 93.4244 84.4375 93.4244 84.875C93.4244 85.3125 93.4244 86.1875 92.5494 86.625C91.6744 87.0625 90.3619 87.9375 88.6119 88.375C85.9869 89.25 84.2369 90.125 83.3619 90.5625C82.4869 91 80.7369 92.3125 78.5494 94.0625C77.2369 95.375 75.4869 95.8125 74.1744 95.8125C72.4244 95.8125 71.1119 95.375 70.2369 94.0625C69.3619 92.75 68.9244 91 69.3619 88.8125C70.2369 84.4375 69.7994 80.9375 69.3619 78.75C68.9244 77 68.4869 75.25 68.9244 73.5C69.3619 72.1875 69.7994 71.3125 70.2369 70.875C71.1119 70.4375 71.5494 71.3125 72.4244 72.625C72.4244 72.625 72.8619 73.0625 72.8619 73.5C73.2994 73.9375 73.2994 74.375 73.2994 74.375C73.2994 74.375 73.7369 74.8125 74.1744 75.25C74.6119 75.6875 75.0494 75.6875 75.4869 76.125C75.9244 76.125 76.3619 76.5625 77.2369 76.5625C78.5494 76.5625 79.4244 76.5625 80.2994 75.6875C81.1744 75.25 82.0494 74.375 82.4869 73.9375C82.9244 73.5 83.3619 72.625 83.7994 72.1875C84.2369 71.75 84.6744 71.3125 85.1119 71.3125C85.5494 71.3125 85.9869 70.875 85.9869 70C86.4244 69.125 86.4244 68.25 86.4244 66.9375C86.4244 65.625 86.4244 64.3125 85.9869 62.5625C85.5494 59.5 84.2369 56 82.9244 52.5C81.1744 49 79.4244 45.9375 77.6744 43.75C74.1744 40.25 71.9869 36.3125 70.6744 32.375C69.3619 28 68.9244 24.5 68.9244 21C68.9244 18.8125 68.4869 16.1875 67.1744 13.125C65.8619 10.5 64.5494 8.3125 62.3619 6.5625C61.0494 5.6875 59.7369 4.8125 57.5494 4.375C57.1119 4.375 55.3619 4.375 53.6119 4.375C51.4244 4.375 49.6744 4.8125 48.3619 5.6875C45.2994 7 43.5494 8.75 42.6744 10.9375C41.3619 13.125 40.9244 15.75 41.3619 18.8125C41.3619 25.8125 41.7994 31.0625 42.2369 35C41.3619 36.75 39.1744 40.25 35.6744 45.5C34.7994 46.375 34.3619 47.25 33.4869 48.125C32.6119 49.4375 32.1744 50.3125 31.7369 51.1875C31.2994 52.0625 30.8619 53.375 29.9869 55.125C29.5494 56.875 28.6744 58.1875 28.6744 59.0625C28.2369 59.5 28.2369 60.375 27.3619 61.25C26.9244 62.125 26.4869 63 26.0494 63.875C25.6119 64.75 25.6119 65.625 25.6119 66.5C25.6119 67.375 25.6119 67.8125 25.6119 68.6875C25.6119 69.5625 26.0494 70 26.4869 69.5625C28.2369 68.25 29.9869 69.125 32.6119 71.75C34.3619 73.5 37.4244 77.875 41.3619 84.4375C41.7994 84.875 42.2369 85.75 42.2369 86.1875C42.6744 87.0625 43.1119 87.9375 43.1119 88.8125C43.5494 90.125 43.5494 91 43.5494 91.875C43.5494 92.75 43.1119 93.625 42.2369 94.5C41.3619 95.375 40.4869 95.8125 38.7369 95.8125C37.8619 95.8125 36.9869 95.8125 35.6744 95.8125C34.3619 95.375 33.0494 95.375 31.2994 94.5C29.5494 94.0625 28.2369 93.625 27.3619 93.1875C26.0494 92.75 24.2994 92.75 22.1119 92.3125C19.9244 91.875 18.1744 91.4375 17.7369 91.4375C16.4244 91 15.9869 90.5625 15.9869 90.125C15.9869 89.6875 15.9869 88.8125 16.8619 87.5C17.2994 86.1875 17.7369 85.3125 17.7369 84.875C17.7369 84.4375 17.7369 84 17.7369 83.5625C18.1744 83.125 18.1744 83.125 18.1744 82.6875C18.1744 82.6875 17.7369 82.25 17.7369 81.8125C17.7369 81.375 17.2994 80.9375 17.2994 80.9375C16.8619 79.625 16.4244 78.3125 16.8619 77.875C17.2994 77.4375 17.7369 77.4375 19.0494 77.4375C20.7994 77.4375 22.1119 77.4375 23.4244 76.5625C25.1744 75.25 26.0494 73.5 25.1744 70.875C25.1744 72.1875 25.1744 73.0625 24.7369 73.5C24.2994 74.375 23.4244 74.8125 22.5494 75.6875C22.1119 76.125 20.7994 76.125 19.4869 76.125C18.1744 76.125 16.8619 76.5625 16.4244 77C15.9869 77.4375 15.9869 77.875 15.9869 78.3125C15.9869 78.75 15.9869 79.625 16.4244 80.0625C16.4244 80.5 16.8619 81.375 16.8619 82.25C16.8619 83.125 17.2994 84 16.8619 84.4375C16.8619 84.875 16.4244 85.75 15.9869 87.5C15.5494 88.8125 15.1119 90.125 15.5494 91C15.5494 91.4375 15.9869 91.875 16.4244 91.875C16.8619 92.3125 17.2994 92.3125 18.1744 92.75C19.0494 92.75 19.4869 93.1875 20.3619 93.1875C20.7994 93.1875 21.6744 93.625 22.9869 93.625C24.2994 93.625 25.1744 94.0625 25.6119 94.0625C27.7994 94.5 30.4244 95.375 33.0494 96.25C36.1119 97.125 37.8619 98 38.7369 98C39.6119 98 40.4869 98 41.3619 97.5625C42.2369 97.125 43.1119 96.6875 43.5494 96.25C43.9869 95.8125 45.2994 95.375 46.1744 94.5C47.4869 94.0625 48.7994 93.625 50.5494 93.625C51.4244 93.625 52.2994 93.625 53.6119 93.625C54.9244 93.625 55.7994 93.625 56.6744 93.625C59.7369 93.625 61.9244 93.625 63.6744 93.625C64.5494 93.625 65.4244 93.625 66.2994 94.0625C66.7369 94.5 67.1744 94.5 67.6119 94.9375C67.6119 95.375 68.0494 95.8125 68.4869 96.25C68.9244 96.6875 69.3619 97.125 70.2369 97.5625C71.5494 98 73.2994 98.4375 75.0494 98.4375C76.7994 98.4375 78.1119 98 78.5494 97.5625C79.4244 96.6875 80.7369 95.375 82.4869 94.0625C84.2369 92.75 85.5494 91.875 86.8619 91C87.2994 91 87.7369 90.5625 88.1744 90.125C89.0494 89.6875 89.4869 89.6875 89.9244 89.25C90.3619 88.8125 90.7994 88.8125 91.6744 88.375C92.1119 87.9375 92.9869 87.5 93.4244 87.5C93.8619 87.0625 94.2994 87.0625 94.7369 86.625C95.1744 86.1875 95.6119 85.75 95.6119 85.3125C95.6119 84.875 95.6119 84.4375 95.6119 84C95.1744 84 94.7369 83.5625 94.2994 83.125ZM66.2994 32.375C66.7369 32.375 66.7369 32.375 66.2994 32.375C66.7369 32.8125 66.7369 32.8125 67.1744 32.8125C67.1744 32.8125 67.1744 33.25 67.6119 33.25L68.0494 33.6875C68.0494 33.6875 68.4869 34.125 68.9244 34.125C69.3619 34.125 69.3619 34.125 69.7994 34.5625L70.2369 35C70.2369 35.4375 70.2369 35.875 70.2369 35.875C70.2369 36.3125 69.7994 36.3125 69.3619 36.3125C68.9244 36.3125 68.0494 35.4375 67.1744 34.5625C65.8619 33.6875 65.8619 32.8125 66.2994 32.375ZM59.7369 11.8125C59.7369 11.375 60.1744 11.375 60.1744 11.375V10.9375C60.1744 10.5 60.1744 10.5 60.1744 10.0625C60.1744 9.625 60.6119 9.625 60.6119 9.625C61.0494 9.625 61.4869 10.0625 61.9244 10.5C61.9244 10.5 62.3619 10.5 62.3619 10.9375C62.7994 10.9375 62.7994 11.375 62.7994 11.375C62.7994 11.375 62.7994 11.375 62.7994 11.8125L62.3619 12.25C61.9244 12.25 61.9244 12.25 61.4869 12.25C61.0494 12.25 61.0494 12.25 61.0494 12.25C60.6119 12.25 60.6119 12.6875 60.1744 12.6875C59.7369 12.6875 59.7369 13.125 59.7369 13.125H59.2994V12.6875C59.7369 12.25 59.7369 12.25 59.7369 11.8125ZM34.3619 51.1875C34.7994 50.75 34.7994 50.75 34.7994 50.3125C34.7994 50.3125 34.7994 49.875 35.2369 49.4375C35.2369 49 35.2369 49 35.6744 49C35.6744 49 35.6744 49 36.1119 49C36.1119 49 36.1119 49 36.1119 49.4375C36.1119 49.4375 36.1119 49.4375 36.1119 49.875V50.3125C36.1119 50.75 35.6744 51.1875 35.6744 51.1875C35.2369 51.625 35.2369 51.625 35.2369 51.625C34.3619 51.625 34.3619 51.625 34.3619 51.1875ZM68.9244 83.5625C68.9244 84.875 68.4869 86.1875 68.0494 88.375C67.6119 90.5625 67.6119 91.875 67.1744 92.3125C66.2994 92.3125 65.8619 91.875 65.8619 91.4375C65.8619 91 65.8619 90.125 66.2994 89.6875C67.1744 87.5 67.6119 85.75 67.6119 84.875C67.6119 83.125 67.6119 82.25 67.1744 82.25C66.7369 81.8125 66.2994 82.6875 65.4244 84C63.6744 86.625 60.6119 87.9375 56.2369 88.375C51.8619 88.8125 49.2369 88.375 47.4869 86.625C47.0494 86.1875 46.6119 86.1875 46.6119 86.625C46.1744 86.625 46.1744 87.0625 45.7369 87.0625C45.7369 87.0625 45.7369 87.0625 45.7369 87.5L46.1744 87.9375C46.6119 88.375 46.6119 88.375 46.6119 88.8125C47.9244 91 47.9244 92.75 46.1744 93.625C46.1744 91.875 46.1744 91 45.7369 90.125C45.2994 89.25 44.8619 88.375 44.4244 87.5C43.5494 86.625 43.1119 85.75 43.1119 85.3125C43.9869 85.3125 44.8619 84.875 45.2994 84C45.7369 83.125 46.1744 82.6875 46.1744 81.8125C46.1744 80.9375 45.7369 80.5 45.2994 79.625C44.8619 79.1875 43.5494 77.875 40.4869 75.6875C37.4244 72.625 35.6744 70.875 34.7994 70C34.7994 70 34.3619 69.5625 33.4869 69.125C32.6119 68.6875 32.1744 68.25 32.1744 67.8125C30.4244 64.3125 30.4244 61.25 31.7369 59.0625V58.625C31.7369 58.625 31.7369 59.0625 31.7369 59.5C31.7369 60.375 31.2994 61.25 31.7369 62.5625C31.7369 64.75 32.6119 66.5 33.4869 67.375C34.3619 68.25 34.7994 68.25 34.7994 67.375C34.7994 66.9375 35.2369 66.0625 35.2369 64.3125C35.2369 62.5625 35.2369 61.25 35.2369 60.8125C35.6744 58.625 36.5494 56.4375 37.8619 53.375C39.1744 50.3125 40.4869 49 40.9244 48.5625C40.4869 47.6875 40.0494 46.375 40.4869 45.0625C40.9244 43.75 40.9244 42.875 41.7994 42C42.2369 41.125 42.6744 40.25 43.5494 39.375C43.9869 38.0625 44.4244 37.1875 44.4244 36.3125C44.4244 35.875 44.4244 35.875 44.4244 35.875C44.4244 35.4375 44.8619 35.875 45.7369 37.1875C47.0494 39.375 48.3619 40.6875 49.2369 41.125C50.1119 41.5625 50.9869 41.5625 51.8619 41.125C52.7369 40.6875 54.0494 39.8125 55.3619 38.9375C56.6744 38.0625 57.9869 37.1875 58.8619 36.75C58.8619 36.75 59.2994 36.75 59.2994 36.3125C59.7369 36.3125 59.7369 36.3125 59.7369 35.875C59.7369 35.875 60.1744 35.875 60.1744 35.4375C60.1744 35.4375 60.6119 35.4375 60.6119 35C60.6119 35 60.6119 35 61.0494 34.5625C61.0494 34.5625 61.0494 34.5625 61.0494 34.125C61.0494 34.125 61.0494 34.125 61.0494 33.6875C61.0494 33.25 61.0494 33.25 60.6119 33.25C60.1744 33.25 60.1744 33.25 59.7369 33.25C59.2994 33.25 58.8619 33.6875 58.4244 33.6875C57.9869 35 57.1119 35 56.6744 35.4375C56.2369 35.875 55.3619 35.875 54.9244 36.3125C54.4869 36.75 53.6119 36.75 53.1744 37.1875C52.2994 37.1875 51.8619 37.625 51.4244 37.625C50.1119 37.625 48.7994 37.1875 47.9244 36.3125C47.4869 35.875 47.0494 35.4375 47.0494 35.4375C47.0494 35.4375 47.0494 35.4375 47.4869 35.4375C49.2369 35.875 50.5494 35.875 51.4244 35.4375C52.2994 35.4375 53.6119 35 54.9244 34.125C55.3619 34.125 56.2369 33.6875 57.1119 33.25C58.4244 32.8125 59.2994 32.375 60.1744 31.9375C60.6119 31.9375 61.0494 31.5 61.0494 31.5C61.0494 31.0625 61.0494 31.0625 61.0494 31.0625C61.0494 31.0625 61.0494 30.625 60.6119 30.625C60.1744 30.625 59.7369 30.625 59.7369 31.0625C59.7369 31.5 59.2994 31.5 58.4244 31.9375C57.9869 32.375 57.5494 32.375 56.6744 32.8125C56.2369 32.8125 55.7994 33.25 54.9244 33.25C54.0494 33.25 53.6119 33.6875 53.6119 33.6875C51.8619 34.125 50.1119 34.5625 48.3619 34.5625C47.4869 34.5625 47.0494 34.5625 46.6119 34.125C46.1744 34.125 45.7369 33.6875 45.7369 33.25C45.7369 32.8125 45.2994 32.8125 44.8619 32.375C44.8619 31.9375 44.4244 31.5 43.9869 31.0625C43.5494 31.0625 43.5494 30.625 43.5494 30.1875C43.5494 29.75 43.9869 29.3125 44.4244 28.875C44.4244 28.875 44.8619 28.4375 45.2994 28.4375C46.1744 28 46.6119 27.5625 46.6119 27.125C47.4869 26.25 47.9244 25.8125 48.7994 25.375C48.7994 25.375 48.7994 24.9375 48.7994 24.0625C48.7994 23.625 48.7994 22.75 48.3619 21.875C47.9244 21 47.4869 20.5625 47.0494 20.5625C46.1744 20.5625 45.7369 20.5625 45.2994 21.4375C44.8619 22.3125 44.4244 22.75 44.4244 23.625C44.4244 24.5 44.4244 24.9375 44.8619 25.375C45.2994 25.8125 45.7369 26.25 45.7369 26.25C46.1744 26.25 46.1744 26.25 46.1744 26.6875C46.1744 27.125 45.7369 27.125 45.2994 27.5625C44.8619 27.5625 44.8619 27.5625 44.4244 26.6875C44.4244 26.25 43.9869 25.375 43.9869 24.5C43.9869 23.625 43.9869 23.1875 43.9869 22.75C43.9869 21.875 43.9869 20.5625 44.4244 19.6875C44.8619 18.8125 45.7369 18.375 46.6119 18.375C47.4869 18.375 48.3619 18.8125 48.7994 20.125C49.2369 21.4375 49.6744 22.75 49.6744 24.9375C49.6744 25.375 50.1119 25.375 50.5494 25.375C50.9869 25.375 51.4244 25.375 52.2994 25.375C53.1744 25.375 53.6119 25.8125 54.0494 25.8125C54.0494 25.8125 54.0494 25.375 54.0494 24.9375C53.6119 20.5625 54.9244 18.375 58.8619 17.9375C59.2994 17.9375 59.7369 18.375 60.1744 18.375C60.6119 18.375 61.0494 18.8125 61.4869 19.25C61.9244 19.6875 62.3619 20.125 62.7994 21C63.2369 21.875 63.2369 22.75 63.6744 23.625V25.375C63.6744 26.6875 63.2369 27.125 62.7994 27.125C61.9244 27.5625 61.4869 27.5625 61.0494 27.125C60.6119 26.6875 60.6119 26.25 61.0494 25.8125C61.4869 24.9375 61.4869 24.0625 61.0494 22.75C60.6119 21.4375 59.7369 21 58.4244 21C57.5494 21 57.1119 21.4375 56.6744 22.3125C56.2369 23.1875 56.2369 24.0625 56.2369 24.9375C56.2369 25.8125 56.6744 26.25 56.6744 26.25C56.6744 26.25 57.5494 26.6875 58.4244 27.125C59.2994 27.5625 60.1744 28 60.6119 28C61.9244 28.4375 62.7994 28.875 62.7994 29.3125C62.7994 29.75 62.7994 30.625 62.3619 31.9375C61.9244 33.25 61.9244 34.125 61.9244 34.5625C61.9244 35.4375 62.3619 35.875 62.7994 36.75C63.2369 37.1875 63.6744 38.0625 64.1119 38.5C64.5494 38.9375 64.9869 39.8125 65.8619 41.5625C66.2994 42.875 67.1744 44.625 67.6119 46.8125C67.6119 46.8125 67.6119 46.8125 68.0494 47.25C68.4869 47.25 68.4869 47.6875 68.9244 48.125C69.3619 48.5625 69.3619 49 69.7994 49.4375C70.2369 49.875 70.2369 50.75 70.6744 51.625C71.1119 52.5 71.5494 53.8125 71.5494 55.125C71.9869 56.875 71.9869 58.625 71.9869 60.8125C71.9869 63 71.9869 64.3125 72.4244 65.1875C72.8619 66.0625 73.2994 66.5 74.6119 66.0625C75.9244 66.0625 76.7994 65.1875 77.2369 63.875C78.5494 59.9375 77.2369 55.125 74.6119 49.4375C73.2994 47.25 72.4244 45.9375 71.5494 45.0625C72.8619 45.9375 74.1744 47.25 75.4869 49C76.7994 50.75 77.6744 52.9375 78.1119 54.25C78.1119 54.25 78.1119 54.6875 78.5494 55.5625C78.5494 56.4375 78.9869 56.875 78.9869 56.875C78.9869 56.875 78.9869 57.3125 78.9869 57.75C78.9869 58.1875 78.9869 58.625 78.9869 59.0625C78.9869 59.0625 78.9869 59.5 78.9869 59.9375C78.9869 60.375 78.9869 60.8125 78.9869 61.25C78.9869 61.6875 78.9869 61.6875 78.9869 62.5625C78.9869 63 78.9869 63.4375 78.5494 63.875C78.5494 64.3125 78.1119 64.75 78.1119 65.1875C79.8619 66.0625 81.1744 66.9375 81.1744 67.375C80.2994 66.9375 79.4244 66.5 78.1119 66.0625C76.7994 66.0625 75.4869 66.0625 74.1744 66.5C72.8619 66.9375 72.4244 67.8125 72.4244 69.125C71.1119 69.125 70.2369 69.5625 69.7994 70C68.9244 70.875 68.4869 72.1875 68.4869 73.5C68.4869 75.25 68.4869 76.5625 68.9244 78.75C68.9244 81.375 68.9244 82.6875 68.9244 83.5625ZM46.6119 22.75C46.1744 22.3125 46.6119 21.875 46.6119 21.875C46.6119 21.875 47.0494 22.3125 47.0494 22.75C47.0494 23.1875 47.4869 23.625 47.0494 24.5C46.6119 24.5 46.6119 24.0625 46.6119 23.625C47.4869 23.1875 47.0494 22.75 46.6119 22.75ZM60.1744 23.625C59.7369 24.0625 59.7369 24.0625 59.7369 24.0625C59.7369 23.1875 59.2994 22.75 58.8619 22.3125C58.4244 22.3125 58.8619 21.875 59.2994 21.875H59.7369L60.1744 22.3125C60.1744 22.75 60.1744 23.1875 60.1744 23.625Z" fill="url(#paint0_linear_153_3563)"/>
<path d="M48.3623 26.6875C48.3623 27.125 48.3623 27.125 48.3623 26.6875C48.3623 27.125 48.7998 26.6875 48.7998 26.25C48.7998 25.8125 49.2373 25.8125 49.6748 25.8125H49.2373C48.3623 25.8125 48.3623 26.25 48.3623 26.6875Z" fill="url(#paint1_linear_153_3563)"/>
<path d="M52.7373 26.25C53.1748 25.8125 53.1748 26.25 53.6123 26.25C54.0498 26.6875 54.0498 26.6875 54.0498 26.6875C54.0498 26.6875 54.4873 26.25 54.0498 26.25C54.0498 25.8125 53.6123 25.8125 52.7373 26.25Z" fill="url(#paint2_linear_153_3563)"/>
<defs>
<linearGradient id="paint0_linear_153_3563" x1="15.3289" y1="51.3354" x2="95.086" y2="51.3354" gradientUnits="userSpaceOnUse">
<stop stop-color="#1245C6"/>
<stop offset="1" stop-color="#9909B7"/>
</linearGradient>
<linearGradient id="paint1_linear_153_3563" x1="48.1694" y1="26.4434" x2="49.6897" y2="26.4434" gradientUnits="userSpaceOnUse">
<stop stop-color="#1245C6"/>
<stop offset="1" stop-color="#9909B7"/>
</linearGradient>
<linearGradient id="paint2_linear_153_3563" x1="52.7294" y1="26.2325" x2="54.4589" y2="26.2325" gradientUnits="userSpaceOnUse">
<stop stop-color="#1245C6"/>
<stop offset="1" stop-color="#9909B7"/>
</linearGradient>
</defs>
</svg>
