<svg width="211" height="45" viewBox="0 0 211 45" fill="none" xmlns="http://www.w3.org/2000/svg">
<path d="M0.125 0H21.5321C21.5309 7.13571 21.5321 14.2714 21.5309 21.4071C14.3964 21.4071 7.26071 21.4071 0.125 21.4071V0Z" fill="#F25022"/>
<path d="M21.5321 0H23.7179C23.7179 7.13571 23.7166 14.2714 23.7191 21.4071C30.8536 21.4071 37.9893 21.4059 45.1237 21.4071C45.1263 14.2714 45.125 7.13571 45.125 0H210.854V16.6487C209.326 16.6539 207.799 16.6371 206.273 16.659C206.238 14.7266 206.269 12.7941 206.256 10.863C204.728 11.3233 203.21 11.8131 201.675 12.2503C201.638 13.716 201.672 15.183 201.656 16.6487C199.398 16.6474 197.14 16.6513 194.882 16.6461C194.911 15.4916 194.803 14.328 194.969 13.1799C195.106 12.2747 195.631 11.3696 196.513 11.0199C197.625 10.5634 198.868 10.8669 199.925 11.3323C199.919 10.0093 199.935 8.68629 199.916 7.36457C197.692 6.75257 195.142 6.87214 193.169 8.15657C191.896 8.97171 190.973 10.2754 190.557 11.7206C190.066 13.3213 190.317 15.012 190.238 16.6551C189.167 16.6474 188.098 16.6371 187.029 16.6616C187.041 17.8984 187.036 19.1353 187.032 20.3709C188.105 20.3927 189.18 20.367 190.254 20.3876C190.245 25.5921 190.251 30.7954 190.251 36C191.794 36 193.338 36 194.881 36C194.881 30.7941 194.88 25.5883 194.882 20.3824C197.14 20.3786 199.399 20.3799 201.658 20.3811C201.665 23.6996 201.652 27.0167 201.663 30.3339C201.684 31.8793 201.947 33.5314 202.971 34.7516C203.857 35.8316 205.263 36.3253 206.621 36.4256C208.052 36.5271 209.531 36.3523 210.854 35.7776V45H45.125C45.125 37.8643 45.125 30.7286 45.125 23.5929C37.9893 23.5929 30.8536 23.5916 23.7191 23.5941C23.7166 30.7286 23.7191 37.8643 23.7179 45H21.5321C21.5321 37.8643 21.5334 30.7299 21.5321 23.5941C14.3964 23.5903 7.26071 23.5941 0.125 23.5916V21.4071C7.26071 21.4071 14.3964 21.4071 21.5309 21.4071C21.5321 14.2714 21.5309 7.13571 21.5321 0Z" fill="#FEFEFE"/>
<path d="M23.7181 0H45.1252C45.1252 7.13571 45.1265 14.2714 45.124 21.4071C37.9895 21.4059 30.8538 21.4071 23.7194 21.4071C23.7168 14.2714 23.7181 7.13571 23.7181 0Z" fill="#80BA01"/>
<path d="M193.169 8.15586C195.142 6.87143 197.692 6.75186 199.916 7.36386C199.935 8.68557 199.919 10.0086 199.925 11.3316C198.868 10.8661 197.625 10.5627 196.513 11.0191C195.631 11.3689 195.106 12.274 194.969 13.1791C194.803 14.3273 194.911 15.4909 194.882 16.6454C197.14 16.6506 199.398 16.6467 201.656 16.648C201.672 15.1823 201.638 13.7153 201.675 12.2496C203.21 11.8124 204.728 11.3226 206.256 10.8623C206.269 12.7934 206.238 14.7259 206.273 16.6583C207.799 16.6364 209.326 16.6531 210.854 16.648V20.4074C209.321 20.3444 207.787 20.3907 206.255 20.3856C206.261 22.5469 206.256 24.7081 206.257 26.8707C206.282 28.0677 206.193 29.2711 206.333 30.4643C206.418 31.1676 206.674 31.9467 207.333 32.3106C208.438 32.929 209.839 32.659 210.854 31.9801V35.7769C209.531 36.3516 208.052 36.5264 206.621 36.4249C205.263 36.3246 203.857 35.8309 202.971 34.7509C201.947 33.5307 201.684 31.8786 201.663 30.3331C201.652 27.016 201.665 23.6989 201.658 20.3804C199.399 20.3791 197.14 20.3779 194.882 20.3817C194.88 25.5876 194.881 30.7934 194.881 35.9993C193.338 35.9993 191.794 35.9993 190.251 35.9993C190.251 30.7947 190.245 25.5914 190.254 20.3869C189.18 20.3663 188.105 20.392 187.032 20.3701C187.036 19.1346 187.041 17.8977 187.029 16.6609C188.098 16.6364 189.167 16.6467 190.238 16.6544C190.317 15.0113 190.066 13.3206 190.557 11.7199C190.973 10.2747 191.896 8.971 193.169 8.15586Z" fill="#777777"/>
<path d="M94.0422 8.4273C94.9756 8.28587 95.9862 8.60473 96.6046 9.33502C97.3298 10.1347 97.4635 11.4076 96.926 12.3423C96.332 13.3966 95.0026 13.8864 93.8442 13.6332C92.642 13.4172 91.6405 12.2999 91.6945 11.054C91.6598 9.74259 92.7565 8.57387 94.0422 8.4273Z" fill="#777777"/>
<path d="M58.5611 9.00066C60.8059 9.00066 63.0495 9.00066 65.2943 9.00066C67.3901 14.3222 69.5012 19.6387 71.5995 24.9602C72.1356 26.2909 72.6371 27.6371 73.1989 28.9575C75.8951 22.3078 78.6298 15.6748 81.3053 9.01609C83.4641 8.98138 85.6241 9.00838 87.7841 9.00324C87.7789 18.0019 87.7815 27.0007 87.7828 35.9994C86.2245 35.9955 84.6675 36.0122 83.1105 35.9904C83.1272 29.3497 83.1092 22.7089 83.1182 16.0669C83.1208 15.7687 83.1105 15.4704 83.0899 15.1721C82.9986 15.3109 82.9176 15.4549 82.8469 15.6041C80.1713 22.4017 77.4443 29.18 74.7842 35.9839C73.6759 36.0238 72.5663 35.9865 71.4568 36.0045C68.6963 29.2069 65.9706 22.3939 63.2243 15.5912C63.1523 15.4498 63.0752 15.3122 62.9916 15.1798C62.9351 18.0894 62.9826 21.0015 62.9672 23.9111C62.9685 27.9405 62.9646 31.9699 62.9685 35.9994C61.4989 36.0032 60.0293 35.9994 58.5611 36.0007C58.5598 27.0007 58.5585 18.0007 58.5611 9.00066Z" fill="#777777"/>
<path d="M106.784 16.6303C109.019 15.9939 111.428 16.0196 113.662 16.6509C114.122 16.7794 114.568 16.9582 114.982 17.2012C114.956 18.6759 114.982 20.1519 114.968 21.6279C113.475 20.4874 111.581 19.7649 109.684 20.004C108.177 20.1403 106.739 20.922 105.838 22.1396C104.68 23.649 104.412 25.6534 104.611 27.4997C104.761 28.9449 105.358 30.3887 106.482 31.3466C107.65 32.3842 109.286 32.7519 110.814 32.6362C112.323 32.4626 113.748 31.8236 114.968 30.9313C114.981 32.3289 114.961 33.7264 114.978 35.124C113.086 36.2503 110.816 36.5409 108.65 36.4342C106.433 36.3172 104.223 35.4776 102.619 33.9193C100.875 32.2389 99.9289 29.8423 99.817 27.4419C99.7039 24.9463 100.212 22.3427 101.648 20.2586C102.851 18.4804 104.734 17.2217 106.784 16.6303Z" fill="#777777"/>
<path d="M138.152 16.2983C140.374 16.0155 142.717 16.1415 144.78 17.08C146.569 17.8875 148.02 19.3802 148.823 21.1673C149.681 23.0702 149.889 25.207 149.744 27.2706C149.601 29.2853 148.969 31.3039 147.709 32.9046C146.419 34.6043 144.475 35.7563 142.393 36.1845C140.614 36.5548 138.752 36.5535 136.973 36.1793C134.844 35.7242 132.873 34.4886 131.624 32.6912C130.159 30.6083 129.742 27.9598 129.928 25.4642C130.054 23.3466 130.713 21.2123 132.065 19.5512C133.546 17.6907 135.818 16.5927 138.152 16.2983Z" fill="#777777"/>
<path d="M157.357 16.336C159.498 15.9593 161.739 16.2357 163.765 17.0033C163.768 18.4227 163.765 19.8409 163.767 21.259C162.351 20.2857 160.622 19.7624 158.904 19.8229C158.039 19.8563 157.087 20.2227 156.693 21.0456C156.379 21.8594 156.596 22.9266 157.364 23.4139C158.676 24.292 160.242 24.6649 161.603 25.4517C162.674 26.0534 163.713 26.8403 164.255 27.9743C165.275 30.0983 164.843 32.905 163.05 34.489C161.339 36.0884 158.874 36.5307 156.608 36.4459C154.998 36.3417 153.381 36.0242 151.901 35.3659C151.907 33.8732 151.892 32.3817 151.908 30.8903C153.153 31.7942 154.589 32.4409 156.109 32.7032C157.167 32.8754 158.318 32.8832 159.304 32.41C160.248 31.9407 160.417 30.5997 159.857 29.7794C159.332 29.1469 158.562 28.7984 157.836 28.4564C156.471 27.8432 155.038 27.3302 153.84 26.4109C152.997 25.7539 152.36 24.8282 152.11 23.7842C151.74 22.2452 151.856 20.5107 152.751 19.1659C153.773 17.5986 155.548 16.6587 157.357 16.336Z" fill="#777777"/>
<path d="M175.053 16.2916C177.363 16.0049 179.817 16.1605 181.925 17.225C183.764 18.1443 185.19 19.8055 185.902 21.7263C186.459 23.1959 186.654 24.7825 186.622 26.3472C186.626 28.6846 185.994 31.0838 184.527 32.9378C183.154 34.7326 181.053 35.8988 178.836 36.2652C176.667 36.6162 174.375 36.5249 172.314 35.7136C170.226 34.892 168.491 33.2155 167.611 31.1506C166.695 29.0459 166.598 26.6776 166.884 24.4289C167.183 22.1802 168.201 19.9816 169.937 18.4863C171.359 17.2379 173.19 16.5308 175.053 16.2916Z" fill="#777777"/>
<path d="M125.335 16.9461C126.613 16.1786 128.236 16.1143 129.631 16.5836C129.625 18.1277 129.631 19.6719 129.628 21.216C128.715 20.6246 127.576 20.3713 126.498 20.4806C125.184 20.6297 124.143 21.639 123.603 22.7961C123.016 24.0214 122.906 25.4074 122.943 26.7471C122.943 29.8316 122.944 32.916 122.943 36.0004C121.421 36.0004 119.9 36.0004 118.379 36.0004C118.375 29.5539 118.384 23.106 118.375 16.6594C119.899 16.6401 121.422 16.6479 122.946 16.6556C122.939 17.7626 122.946 18.8696 122.942 19.9779C123.437 18.7731 124.174 17.6031 125.335 16.9461Z" fill="#777777"/>
<path d="M92.1152 16.6553C93.6504 16.6489 95.1868 16.6334 96.7219 16.663C96.7039 23.1083 96.7207 29.5549 96.7142 36.0002C95.1817 36.0002 93.6491 36.0002 92.1178 36.0002C92.1139 29.5523 92.1191 23.1044 92.1152 16.6553Z" fill="#777777"/>
<path d="M139.532 19.9727C140.923 19.8815 142.404 20.2749 143.405 21.2867C144.474 22.3385 144.888 23.8646 145.003 25.32C145.085 26.913 145.019 28.5729 144.351 30.0489C143.909 31.044 143.099 31.8849 142.076 32.2835C140.881 32.7425 139.537 32.7695 138.303 32.4493C137.047 32.1189 135.981 31.2112 135.401 30.0553C134.655 28.5665 134.543 26.8449 134.698 25.212C134.838 23.727 135.355 22.1996 136.486 21.1749C137.306 20.4086 138.425 20.0345 139.532 19.9727Z" fill="#FEFEFE"/>
<path d="M176.302 19.9756C177.61 19.8843 179.006 20.1864 180.011 21.0697C180.938 21.8386 181.451 22.9906 181.687 24.1503C181.951 25.5106 181.949 26.9184 181.725 28.2851C181.548 29.3034 181.195 30.3191 180.528 31.1253C179.856 31.9353 178.855 32.429 177.823 32.5807C176.715 32.7466 175.547 32.6669 174.511 32.2207C173.392 31.7476 172.526 30.7794 172.069 29.666C171.52 28.3391 171.411 26.8696 171.52 25.4501C171.626 24.0757 172.015 22.6653 172.923 21.5969C173.751 20.5991 175.021 20.0476 176.302 19.9756Z" fill="#FEFEFE"/>
<path d="M206.255 20.3866C207.788 20.3917 209.321 20.3455 210.854 20.4085V31.9812C209.84 32.66 208.438 32.93 207.334 32.3116C206.674 31.9477 206.418 31.1686 206.333 30.4653C206.193 29.2722 206.282 28.0687 206.258 26.8717C206.256 24.7092 206.261 22.5479 206.255 20.3866Z" fill="#FEFEFE"/>
<path d="M0.125 23.5918C7.26071 23.5944 14.3964 23.5905 21.5321 23.5944C21.5334 30.7301 21.5321 37.8645 21.5321 45.0002H0.125V23.5918Z" fill="#02A4EF"/>
<path d="M23.7191 23.5954C30.8535 23.5928 37.9892 23.5941 45.1249 23.5941C45.1249 30.7298 45.1249 37.8655 45.1249 45.0012H23.7178C23.7191 37.8655 23.7165 30.7298 23.7191 23.5954Z" fill="#FFB902"/>
</svg>
