<svg width="119" height="75" viewBox="0 0 119 75" fill="none" xmlns="http://www.w3.org/2000/svg">
<path d="M58.9205 73.2108C58.5427 73.2108 58.167 73.1116 57.8363 72.9188L54.3845 70.8624C53.8693 70.5719 54.1211 70.4692 54.2908 70.4095C54.9784 70.1693 55.1176 70.1138 55.8515 69.6948C55.9278 69.6516 56.0293 69.668 56.1082 69.7146L58.7598 71.2999C58.8561 71.3536 58.9917 71.3536 59.0799 71.2999L69.4179 65.2918C69.5141 65.2366 69.5757 65.125 69.5757 65.0101V52.9974C69.5757 52.8799 69.5139 52.7702 69.4153 52.7105L59.0817 46.7076C58.9865 46.6514 58.8594 46.6514 58.7632 46.7076L48.4322 52.7123C48.3318 52.7702 48.2682 52.8835 48.2682 52.9974V65.0101C48.2682 65.125 48.3316 65.234 48.4312 65.2884L51.2632 66.936C52.7998 67.7096 53.7404 66.7984 53.7404 65.883V54.0222C53.7404 53.8546 53.8745 53.7223 54.0408 53.7223H55.3518C55.5158 53.7223 55.6514 53.8546 55.6514 54.0222V65.883C55.6514 67.948 54.5346 69.1323 52.5904 69.1323C51.9929 69.1323 51.5225 69.1322 50.2092 68.4806L47.4983 66.9091C46.8289 66.5193 46.4141 65.7905 46.4141 65.0101V52.9974C46.4141 52.217 46.8286 51.4882 47.4983 51.1002L57.8363 45.0851C58.4904 44.7125 59.3599 44.7125 60.0089 45.0851L70.3461 51.1002C71.0155 51.49 71.4319 52.217 71.4319 52.9974V65.0101C71.4319 65.7905 71.0155 66.5167 70.3461 66.9091L60.0089 72.919C59.6785 73.1116 59.3035 73.2108 58.9205 73.2108Z" fill="#699F63"/>
<path d="M62.1141 64.9346C57.5902 64.9346 56.6426 62.8439 56.6426 61.09C56.6426 60.9232 56.7756 60.7901 56.9415 60.7901H58.278C58.4273 60.7901 58.5518 60.8982 58.5751 61.0452C58.7769 62.4152 59.3786 63.1068 62.1143 63.1068C64.2921 63.1068 65.2193 62.6107 65.2193 61.4472C65.2193 60.7765 64.9567 60.2786 61.5719 59.9448C58.7435 59.6632 56.994 59.0339 56.994 56.7553C56.994 54.6549 58.7521 53.4023 61.7 53.4023C65.0118 53.4023 66.6506 54.5598 66.8581 57.0429C66.8659 57.1284 66.8359 57.2107 66.7792 57.2746C66.7225 57.3342 66.6436 57.3705 66.5603 57.3705H65.2185C65.0796 57.3705 64.9567 57.2712 64.9285 57.1354C64.6065 55.6937 63.8238 55.2331 61.7 55.2331C59.3222 55.2331 59.0458 56.0671 59.0458 56.692C59.0458 57.4492 59.3721 57.6696 62.5824 58.0974C65.7594 58.5201 67.2685 59.1191 67.2685 61.3672C67.268 63.6354 65.3898 64.9346 62.1141 64.9346Z" fill="#699F63"/>
<path d="M77.0207 52.3367C77.0207 53.4404 76.1246 54.3428 75.0284 54.3428C73.9424 54.3428 73.0361 53.4511 73.0361 52.3367C73.0361 51.2009 73.9641 50.3301 75.0284 50.3301C76.1039 50.3301 77.0207 51.2009 77.0207 52.3367ZM73.3578 52.3309C73.3578 53.2653 74.1061 54.0191 75.023 54.0191C75.9509 54.0191 76.6996 53.2494 76.6996 52.3309C76.6996 51.3971 75.9408 50.654 75.023 50.654C74.1165 50.6542 73.3578 51.3861 73.3578 52.3309ZM74.2798 51.2113H75.0499C75.3133 51.2113 75.8301 51.2113 75.8301 51.8059C75.8301 52.2199 75.5667 52.3046 75.4078 52.3578C75.7142 52.3791 75.7349 52.5808 75.7768 52.8674C75.7983 53.0478 75.8301 53.3557 75.8927 53.4618H75.4189C75.4078 53.356 75.334 52.7825 75.334 52.751C75.3032 52.6233 75.2603 52.56 75.1024 52.56H74.7127V53.4618H74.2801V51.2113H74.2798ZM74.7021 52.1983H75.0496C75.3338 52.1983 75.3871 51.9969 75.3871 51.8802C75.3871 51.5719 75.1759 51.5719 75.06 51.5719H74.7021V52.1983Z" fill="#699F63"/>
<path d="M26.9081 26.2114C26.9081 25.7317 26.6574 25.2909 26.2462 25.0532L15.2859 18.702C15.1006 18.5923 14.8928 18.5352 14.6824 18.5264C14.6635 18.5264 14.5846 18.5264 14.5691 18.5264C14.3597 18.535 14.1519 18.592 13.9638 18.702L3.00354 25.0532C2.59493 25.2909 2.34082 25.7317 2.34082 26.2114L2.36489 43.3135C2.36489 43.5511 2.48754 43.7726 2.69534 43.8891C2.89873 44.0118 3.15026 44.0118 3.35288 43.8891L9.86668 40.1333C10.2786 39.8871 10.5294 39.4522 10.5294 38.9769V30.9868C10.5294 30.5105 10.7799 30.0696 11.1903 29.833L13.9638 28.2245C14.1706 28.1044 14.3965 28.0455 14.6273 28.0455C14.853 28.0455 15.0848 28.1044 15.2856 28.2245L18.0584 29.833C18.4688 30.0698 18.7203 30.5107 18.7203 30.9868V38.9769C18.7203 39.4522 18.9744 39.8897 19.3838 40.1333L25.8958 43.8891C26.1 44.0118 26.3551 44.0118 26.5577 43.8891C26.7596 43.7724 26.8866 43.5511 26.8866 43.3135L26.9081 26.2114Z" fill="#333333"/>
<path d="M79.645 2.7025C79.4398 2.58759 79.1895 2.59019 78.9869 2.70979C78.7848 2.82965 78.6603 3.04826 78.6603 3.28459V20.2212C78.6603 20.3877 78.5718 20.542 78.429 20.6253C78.2856 20.7087 78.1089 20.7087 77.9653 20.6253L75.2202 19.0328C74.8106 18.7952 74.3068 18.7957 73.8974 19.0333L62.9327 25.4049C62.5228 25.643 62.2705 26.0831 62.2705 26.5592V39.3049C62.2705 39.7812 62.5228 40.221 62.9324 40.4597L73.8966 46.8359C74.3065 47.0741 74.8111 47.0741 75.221 46.8359L86.1867 40.4597C86.5964 40.2213 86.8487 39.7812 86.8487 39.3049V7.53282C86.8487 7.04974 86.5891 6.60391 86.1696 6.36836L79.645 2.7025ZM78.6277 35.1171C78.6277 35.2359 78.5646 35.3461 78.4621 35.4053L74.6975 37.5904C74.5953 37.6495 74.4693 37.6495 74.3671 37.5904L70.6024 35.4053C70.5 35.3461 70.4368 35.2359 70.4368 35.1171V30.7399C70.4368 30.6211 70.5 30.5109 70.6022 30.4512L74.3668 28.2617C74.4693 28.202 74.5956 28.202 74.698 28.2617L78.4626 30.4512C78.5649 30.5109 78.628 30.6211 78.628 30.7399L78.6277 35.1171Z" fill="#333333"/>
<path d="M116.155 30.6253C116.563 30.3869 116.814 29.9476 116.814 29.4726V26.3839C116.814 25.9089 116.563 25.4693 116.155 25.2309L105.261 18.862C104.851 18.622 104.345 18.6217 103.934 18.8601L92.9735 25.2317C92.5638 25.4698 92.3115 25.9097 92.3115 26.386V39.1283C92.3115 39.6075 92.5669 40.0497 92.9802 40.2865L103.873 46.5361C104.274 46.767 104.767 46.7696 105.171 46.5434L111.759 42.8562C111.968 42.7392 112.099 42.5182 112.1 42.278C112.101 42.0378 111.974 41.8152 111.767 41.6954L100.737 35.3207C100.531 35.2019 100.405 34.9809 100.405 34.7422V30.7489C100.405 30.5107 100.531 30.2903 100.736 30.1714L104.169 28.1787C104.373 28.0598 104.625 28.0598 104.83 28.1787L108.264 30.1714C108.469 30.2903 108.596 30.5107 108.596 30.7489V33.8907C108.596 34.1294 108.722 34.3498 108.927 34.4687C109.132 34.588 109.385 34.587 109.59 34.4674L116.155 30.6253Z" fill="#333333"/>
<path d="M104.435 30.0285C104.514 29.9827 104.611 29.9827 104.689 30.0285L106.793 31.2506C106.872 31.2964 106.92 31.3806 106.92 31.4723V33.9185C106.92 34.0102 106.872 34.0944 106.793 34.1402L104.689 35.3623C104.611 35.4081 104.514 35.4081 104.435 35.3623L102.333 34.1402C102.254 34.0944 102.206 34.0102 102.206 33.9185V31.4723C102.206 31.3806 102.254 31.2964 102.333 31.2506L104.435 30.0285Z" fill="#699F63"/>
<path d="M45.2484 18.9267C44.8411 18.6898 44.3391 18.6898 43.932 18.9267L33.029 25.262C32.6211 25.4989 32.3701 25.9363 32.3701 26.4106V39.0911C32.3701 39.5648 32.6211 40.0023 33.0284 40.2397L43.9315 46.5803C44.3391 46.8171 44.8411 46.8171 45.2489 46.5803L56.1494 40.2397C56.5568 40.0026 56.8075 39.5648 56.8075 39.0911V26.41C56.8075 25.9363 56.5565 25.4989 56.1489 25.262L45.2484 18.9267Z" fill="url(#paint0_linear_153_3529)"/>
<mask id="mask0_153_3529" style="mask-type:luminance" maskUnits="userSpaceOnUse" x="32" y="18" width="25" height="29">
<path d="M45.2484 18.9267C44.8411 18.6898 44.3391 18.6898 43.932 18.9267L33.029 25.262C32.6211 25.4989 32.3701 25.9363 32.3701 26.4106V39.0911C32.3701 39.5648 32.6211 40.0023 33.0284 40.2397L43.9315 46.5803C44.3391 46.8171 44.8411 46.8171 45.2489 46.5803L56.1494 40.2397C56.5568 40.0026 56.8075 39.5648 56.8075 39.0911V26.41C56.8075 25.9363 56.5565 25.4989 56.1489 25.262L45.2484 18.9267Z" fill="white"/>
</mask>
<g mask="url(#mask0_153_3529)">
<path d="M56.17 25.2624L45.2364 18.9271C45.1285 18.8643 45.0131 18.8195 44.8943 18.79L32.6182 39.9353C32.724 40.0551 32.848 40.1596 32.9856 40.2399L43.9376 46.5804C44.2479 46.7607 44.6166 46.8029 44.9549 46.7086L56.4632 25.4894C56.3758 25.4024 56.2777 25.325 56.17 25.2624Z" fill="url(#paint1_linear_153_3529)"/>
</g>
<mask id="mask1_153_3529" style="mask-type:luminance" maskUnits="userSpaceOnUse" x="32" y="18" width="25" height="29">
<path d="M45.2484 18.9267C44.8411 18.6898 44.3391 18.6898 43.932 18.9267L33.029 25.262C32.6211 25.4989 32.3701 25.9363 32.3701 26.4106V39.0911C32.3701 39.5648 32.6211 40.0023 33.0284 40.2397L43.9315 46.5803C44.3391 46.8171 44.8411 46.8171 45.2489 46.5803L56.1494 40.2397C56.5568 40.0026 56.8075 39.5648 56.8075 39.0911V26.41C56.8075 25.9363 56.5565 25.4989 56.1489 25.262L45.2484 18.9267Z" fill="white"/>
</mask>
<g mask="url(#mask1_153_3529)">
<path d="M56.1766 40.2392C56.4943 40.0542 56.7314 39.7465 56.8212 39.3955L44.8356 18.7776C44.5228 18.7148 44.1908 18.7625 43.909 18.9264L33.0488 25.2237L44.7808 46.7447C44.9482 46.7217 45.1123 46.667 45.2623 46.58L56.1766 40.2392Z" fill="url(#paint2_linear_153_3529)"/>
<path d="M56.1761 40.2392L45.2618 46.5798C45.1118 46.6671 44.9477 46.7215 44.7803 46.7444L44.9976 47.1431L57.1203 40.0774V39.9109L56.8207 39.3955C56.7309 39.7465 56.4938 40.054 56.1761 40.2392Z" fill="url(#paint3_linear_153_3529)"/>
<path d="M56.1761 40.2392L45.2618 46.5798C45.1118 46.6671 44.9477 46.7215 44.7803 46.7444L44.9976 47.1431L57.1203 40.0774V39.9109L56.8207 39.3955C56.7309 39.7465 56.4938 40.054 56.1761 40.2392Z" fill="url(#paint4_linear_153_3529)"/>
</g>
<defs>
<linearGradient id="paint0_linear_153_3529" x1="49.0218" y1="23.6449" x2="39.0617" y2="43.8239" gradientUnits="userSpaceOnUse">
<stop stop-color="#41873F"/>
<stop offset="0.3288" stop-color="#418B3D"/>
<stop offset="0.6352" stop-color="#419637"/>
<stop offset="0.9319" stop-color="#3FA92D"/>
<stop offset="1" stop-color="#3FAE2A"/>
</linearGradient>
<linearGradient id="paint1_linear_153_3529" x1="42.9288" y1="34.2342" x2="70.7019" y2="13.855" gradientUnits="userSpaceOnUse">
<stop offset="0.1376" stop-color="#41873F"/>
<stop offset="0.4032" stop-color="#54A044"/>
<stop offset="0.7136" stop-color="#66B848"/>
<stop offset="0.9081" stop-color="#6CC04A"/>
</linearGradient>
<linearGradient id="paint2_linear_153_3529" x1="31.9843" y1="32.7478" x2="57.1931" y2="32.7478" gradientUnits="userSpaceOnUse">
<stop offset="0.0919" stop-color="#6CC04A"/>
<stop offset="0.2864" stop-color="#66B848"/>
<stop offset="0.5968" stop-color="#54A044"/>
<stop offset="0.8624" stop-color="#41873F"/>
</linearGradient>
<linearGradient id="paint3_linear_153_3529" x1="31.9838" y1="43.2693" x2="57.1926" y2="43.2693" gradientUnits="userSpaceOnUse">
<stop offset="0.0919" stop-color="#6CC04A"/>
<stop offset="0.2864" stop-color="#66B848"/>
<stop offset="0.5968" stop-color="#54A044"/>
<stop offset="0.8624" stop-color="#41873F"/>
</linearGradient>
<linearGradient id="paint4_linear_153_3529" x1="60.8652" y1="23.0445" x2="45.1444" y2="54.8945" gradientUnits="userSpaceOnUse">
<stop stop-color="#41873F"/>
<stop offset="0.3288" stop-color="#418B3D"/>
<stop offset="0.6352" stop-color="#419637"/>
<stop offset="0.9319" stop-color="#3FA92D"/>
<stop offset="1" stop-color="#3FAE2A"/>
</linearGradient>
</defs>
</svg>
