<svg width="200" height="200" viewBox="0 0 200 200" fill="none" xmlns="http://www.w3.org/2000/svg">
<path d="M171.875 53.125H28.125C21.2214 53.125 15.625 58.7216 15.625 65.625V153.125C15.625 160.028 21.2214 165.625 28.125 165.625H171.875C178.778 165.625 184.375 160.028 184.375 153.125V65.625C184.375 58.7216 178.778 53.125 171.875 53.125Z" fill="#57A4FF"/>
<path d="M171.875 53.125H165.625C168.94 53.125 172.12 54.4419 174.464 56.7863C176.808 59.1303 178.125 62.3097 178.125 65.625V153.125C178.125 156.44 176.808 159.62 174.464 161.964C172.12 164.308 168.94 165.625 165.625 165.625H171.875C175.19 165.625 178.37 164.308 180.714 161.964C183.058 159.62 184.375 156.44 184.375 153.125V65.625C184.375 62.3097 183.058 59.1303 180.714 56.7863C178.37 54.4419 175.19 53.125 171.875 53.125Z" fill="#2488FF"/>
<path d="M184.375 165.625V178.125C184.375 181.44 183.058 184.62 180.714 186.964C178.37 189.308 175.19 190.625 171.875 190.625H178.125C181.44 190.625 184.62 189.308 186.964 186.964C189.308 184.62 190.625 181.44 190.625 178.125V165.625H184.375Z" fill="#004FAC"/>
<path d="M171.875 65.625H28.125V153.125H171.875V65.625Z" fill="#FFCD00"/>
<path d="M21.875 190.625H178.125C181.44 190.625 184.62 189.308 186.964 186.964C189.308 184.62 190.625 181.44 190.625 178.125V165.625H9.375V178.125C9.375 181.44 10.692 184.62 13.0362 186.964C15.3804 189.308 18.5598 190.625 21.875 190.625Z" fill="#005ECE"/>
<path d="M159.375 28.125H40.625V153.125H159.375V28.125Z" fill="#FFDAAA"/>
<path d="M46.875 153.125H159.375V40.625C159.375 70.4619 147.522 99.0766 126.424 120.174C105.327 141.272 76.7119 153.125 46.875 153.125Z" fill="#FFC477"/>
<path d="M84.375 171.875C84.375 173.532 85.0334 175.122 86.2056 176.294C87.3778 177.467 88.9675 178.125 90.625 178.125H109.375C111.032 178.125 112.622 177.467 113.794 176.294C114.967 175.122 115.625 173.532 115.625 171.875V165.625H84.375V171.875Z" fill="#FFCD00"/>
<path d="M153.125 9.375H46.875C45.2175 9.375 43.6278 10.0335 42.4556 11.2056C41.2834 12.3777 40.625 13.9674 40.625 15.625V28.125H159.375V15.625C159.375 13.9674 158.717 12.3777 157.544 11.2056C156.372 10.0335 154.783 9.375 153.125 9.375Z" fill="#005ECE"/>
<path d="M116.237 81.9879L128.125 73.3504L140.012 81.9879L135.472 68.0129L147.359 59.3754H132.666L128.125 45.4004L123.584 59.3754H108.891L120.778 68.0129L116.237 81.9879Z" fill="#FF9811"/>
<path d="M71.875 134.375V103.125V96.875H53.125V140.625H71.875V134.375Z" fill="#006DF0"/>
<path d="M76.65 134.375C77.6197 134.375 78.5763 134.601 79.4438 135.034L83.0562 136.841C83.9237 137.274 84.8803 137.5 85.85 137.5H117.188C118.431 137.5 119.623 137.006 120.502 136.127C121.381 135.248 121.875 134.056 121.875 132.812C121.875 131.569 121.381 130.377 120.502 129.498C119.623 128.619 118.431 128.125 117.188 128.125C118.431 128.125 119.623 127.631 120.502 126.752C121.381 125.873 121.875 124.681 121.875 123.438C121.875 122.194 121.381 121.002 120.502 120.123C119.623 119.244 118.431 118.75 117.188 118.75C118.431 118.75 119.623 118.256 120.502 117.377C121.381 116.498 121.875 115.306 121.875 114.062C121.875 112.819 121.381 111.627 120.502 110.748C119.623 109.869 118.431 109.375 117.188 109.375C118.431 109.375 119.623 108.881 120.502 108.002C121.381 107.123 121.875 105.931 121.875 104.688C121.875 103.444 121.381 102.252 120.502 101.373C119.623 100.494 118.431 100 117.188 100H100V87.5C100 85.8425 99.3416 84.2528 98.1694 83.0806C96.9972 81.9084 95.4075 81.25 93.75 81.25C92.9212 81.25 92.1263 81.5794 91.5403 82.1653C90.9544 82.7513 90.625 83.5463 90.625 84.375V90.625C90.625 93.9403 89.3081 97.1197 86.9637 99.4637C84.6197 101.808 81.4403 103.125 78.125 103.125H71.875V134.375H76.65Z" fill="#FFBCAB"/>
<path d="M56.25 15.625H50V21.875H56.25V15.625Z" fill="#D80027"/>
<path d="M68.75 15.625H62.5V21.875H68.75V15.625Z" fill="#FF9811"/>
<path d="M81.25 15.625H75V21.875H81.25V15.625Z" fill="#5EAC24"/>
<path d="M59.375 50H96.875C97.7038 50 98.4987 49.6706 99.0847 49.0847C99.6706 48.4987 100 47.7037 100 46.875C100 46.0463 99.6706 45.2513 99.0847 44.6653C98.4987 44.0794 97.7038 43.75 96.875 43.75H59.375C58.5463 43.75 57.7513 44.0794 57.1653 44.6653C56.5794 45.2513 56.25 46.0463 56.25 46.875C56.25 47.7037 56.5794 48.4987 57.1653 49.0847C57.7513 49.6706 58.5463 50 59.375 50Z" fill="#FF6243"/>
<path d="M59.375 62.5H90.625C91.4538 62.5 92.2487 62.1706 92.8347 61.5847C93.4206 60.9987 93.75 60.2037 93.75 59.375C93.75 58.5463 93.4206 57.7513 92.8347 57.1653C92.2487 56.5794 91.4538 56.25 90.625 56.25H59.375C58.5463 56.25 57.7513 56.5794 57.1653 57.1653C56.5794 57.7513 56.25 58.5463 56.25 59.375C56.25 60.2037 56.5794 60.9987 57.1653 61.5847C57.7513 62.1706 58.5463 62.5 59.375 62.5Z" fill="#FF6243"/>
<path d="M59.375 75H84.375C85.2038 75 85.9987 74.6706 86.5847 74.0847C87.1706 73.4987 87.5 72.7037 87.5 71.875C87.5 71.0463 87.1706 70.2513 86.5847 69.6653C85.9987 69.0794 85.2038 68.75 84.375 68.75H59.375C58.5463 68.75 57.7513 69.0794 57.1653 69.6653C56.5794 70.2513 56.25 71.0463 56.25 71.875C56.25 72.7037 56.5794 73.4987 57.1653 74.0847C57.7513 74.6706 58.5463 75 59.375 75Z" fill="#FF6243"/>
<path d="M117.187 109.375H112.5V112.5H121.591C121.271 111.587 120.675 110.796 119.887 110.237C119.098 109.677 118.155 109.376 117.187 109.375Z" fill="#FF9478"/>
<path d="M112.5 121.875H121.591C121.271 120.962 120.675 120.171 119.887 119.612C119.098 119.052 118.155 118.751 117.187 118.75H112.5V121.875Z" fill="#FF9478"/>
<path d="M112.5 131.25H121.591C121.271 130.337 120.675 129.546 119.887 128.987C119.098 128.427 118.155 128.126 117.187 128.125H112.5V131.25Z" fill="#FF9478"/>
</svg>
