<svg width="156" height="200" viewBox="0 0 156 200" fill="none" xmlns="http://www.w3.org/2000/svg">
<path fill-rule="evenodd" clip-rule="evenodd" d="M72.5515 20.5038H64.4671C61.0693 20.5038 61.0693 15.2314 64.4671 15.2314H72.5515C75.9492 15.2314 75.9492 20.5038 72.5515 20.5038ZM141.444 160.516H94.2269L103.131 194.61H117.425C120.823 194.61 120.823 200 117.425 200H38.5737C35.0588 200 35.0588 194.61 38.5737 194.61H52.8678L63.4126 160.516H14.4378C7.05643 160.516 0.963867 154.423 0.963867 147.042V63.2689C0.963867 55.8875 6.8221 49.9121 14.0863 49.6778V16.403C14.0863 7.38137 21.4677 0 30.4894 0H125.51C134.532 0 141.913 7.38137 141.913 16.403V49.6778C149.177 49.9121 155.035 55.8875 155.035 63.2689V147.042C155.035 154.423 148.943 160.516 141.444 160.516ZM88.7202 160.516H69.0365L58.4917 194.61H97.6247L88.7202 160.516ZM14.0863 55.0674C9.75121 55.3017 6.23628 58.8166 6.23628 63.2689V133.685H149.646V63.2689C149.646 58.8166 146.248 55.3017 141.913 55.0674V106.737C141.913 115.759 134.532 123.14 125.51 123.14H30.4894C21.4677 123.14 14.0863 115.759 14.0863 106.737V55.0674ZM6.23628 139.074V147.042C6.23628 151.494 9.98554 155.243 14.4378 155.243H141.444C146.014 155.243 149.646 151.494 149.646 147.042V139.074H6.23628ZM136.523 52.4897V35.618H19.4759V106.737C19.4759 112.83 24.3968 117.75 30.4894 117.75H125.51C131.602 117.75 136.523 112.83 136.523 106.737V52.4897ZM77.941 185.94C73.3716 185.94 69.6223 182.191 69.6223 177.622C69.6223 172.935 73.3716 169.186 77.941 169.186C82.6276 169.186 86.3769 172.935 86.3769 177.622C86.3769 182.191 82.6276 185.94 77.941 185.94ZM77.941 174.575C76.3007 174.575 74.8947 175.864 74.8947 177.622C74.8947 179.262 76.3007 180.668 77.941 180.668C79.6985 180.668 80.9873 179.262 80.9873 177.622C80.9873 175.864 79.6985 174.575 77.941 174.575ZM133.008 149.736C130.665 149.736 125.627 150.674 125.627 147.159C125.627 143.527 130.665 144.464 133.008 144.464C136.406 144.464 136.406 149.736 133.008 149.736ZM30.4894 5.27241C24.3968 5.27241 19.4759 10.3105 19.4759 16.403V30.3456H136.523V16.403C136.523 10.3105 131.602 5.27241 125.51 5.27241H30.4894ZM125.51 20.5038H106.178C102.663 20.5038 102.663 15.2314 106.178 15.2314H125.51C128.908 15.2314 128.908 20.5038 125.51 20.5038ZM56.2656 74.751H28.849C25.3341 74.751 25.3341 69.4786 28.849 69.4786H56.2656C59.6633 69.4786 59.6633 74.751 56.2656 74.751ZM56.2656 86.9361H28.849C25.3341 86.9361 25.3341 81.6637 28.849 81.6637H56.2656C59.6633 81.6637 59.6633 86.9361 56.2656 86.9361ZM56.2656 99.1213H28.849C25.3341 99.1213 25.3341 93.8489 28.849 93.8489H56.2656C59.6633 93.8489 59.6633 99.1213 56.2656 99.1213ZM56.2656 111.306H28.849C25.3341 111.306 25.3341 106.034 28.849 106.034H56.2656C59.6633 106.034 59.6633 111.306 56.2656 111.306ZM101.96 109.549H96.8045C93.9926 109.549 91.6493 107.206 91.6493 104.394V101.816C87.9 100.644 84.3851 98.6526 81.5731 95.9578C80.05 96.8951 78.5268 97.9496 76.6522 97.9496C72.7858 97.9496 71.2626 93.8489 69.6223 91.0369C68.2164 88.4593 69.0365 85.2958 71.497 83.7727L73.8403 82.4839C72.9029 78.7346 72.9029 74.751 73.8403 70.8846L71.497 69.5958C69.0365 68.1898 68.2164 65.0264 69.6223 62.5659C71.2626 59.6368 72.7858 55.536 76.6522 55.536C78.5268 55.536 80.05 56.5905 81.5731 57.5278C84.3851 54.833 87.9 52.8412 91.6493 51.6696V48.9748C91.6493 46.1629 93.8754 43.8196 96.8045 43.8196H101.843C104.772 43.8196 107.115 46.1629 107.115 49.092V51.6696C110.864 52.8412 114.262 54.833 117.191 57.5278C118.714 56.5905 120.237 55.4189 121.995 55.4189C125.979 55.4189 127.384 59.6368 129.142 62.4487C130.548 65.0264 129.728 68.1898 127.15 69.5958L124.924 70.8846C125.744 74.751 125.744 78.7346 124.924 82.4839L127.267 83.8899C129.728 85.2958 130.548 88.4593 129.142 90.9197C127.502 93.8489 125.979 97.9496 121.995 97.9496C120.237 97.9496 118.714 96.8951 117.191 95.9578C114.262 98.6526 110.864 100.644 107.115 101.816V104.394C107.115 107.323 104.772 109.549 101.96 109.549ZM82.0418 89.9824C84.7366 89.9824 86.1425 95.2548 94.8127 97.1295C97.7418 97.7153 96.9217 102.05 96.9217 104.394L101.843 104.277C101.843 102.05 101.022 97.7153 103.834 97.1295C113.676 94.9033 114.496 88.225 118.011 90.3339L122.112 92.6772L124.455 88.3421C115.785 83.4212 120.237 85.7645 120.237 76.7428C120.237 67.7212 115.785 70.0644 124.455 65.0264L121.995 60.8084C120.003 61.9801 116.723 64.792 114.731 62.5659C107.935 55.1845 101.843 57.8793 101.843 53.7786V49.092L96.9217 49.2091C96.9217 51.4353 97.7418 55.6532 94.8127 56.3562C85.0881 58.4651 84.2679 65.1435 80.6358 63.1517L76.6522 60.8084L74.3089 65.0264C82.8619 70.0644 78.5268 67.7212 78.5268 76.7428C78.5268 85.7645 82.8619 83.4212 74.1918 88.4593L76.7694 92.5601C77.941 91.8571 80.5186 89.9824 82.0418 89.9824ZM99.3821 91.7399C91.0635 91.7399 84.2679 85.0615 84.2679 76.7428C84.2679 68.4241 91.0635 61.7458 99.3821 61.7458C107.701 61.7458 114.379 68.4241 114.379 76.7428C114.379 85.0615 107.701 91.7399 99.3821 91.7399ZM99.3821 67.0182C93.9926 67.0182 89.6575 71.3533 89.6575 76.7428C89.6575 82.1324 93.9926 86.4675 99.3821 86.4675C104.655 86.4675 109.107 82.1324 109.107 76.7428C109.107 71.3533 104.655 67.0182 99.3821 67.0182ZM53.5708 62.8002C51.2275 62.8002 49.9387 59.8711 51.6961 58.2308L57.4372 52.4897L51.6961 46.6315C49.2357 44.1711 52.985 40.4218 55.4454 42.8823L63.0611 50.498C64.1156 51.5524 64.1156 53.3099 63.0611 54.3644L55.4454 61.9801C54.8596 62.4487 54.2738 62.8002 53.5708 62.8002ZM36.4647 62.8002C35.7618 62.8002 35.0588 62.4487 34.5901 61.9801L26.9744 54.3644C25.9199 53.3099 25.9199 51.5524 26.9744 50.498L34.5901 42.8823C37.0506 40.4218 40.7998 44.1711 38.3394 46.6315L32.5983 52.4897L38.3394 58.2308C39.9797 59.8711 38.6909 62.8002 36.4647 62.8002ZM42.9088 63.0346C41.2685 63.0346 39.8625 61.3943 40.3312 59.6368L44.5491 44.2882C45.3693 40.8905 50.5245 42.2964 49.5872 45.577L45.4864 61.0428C45.1349 62.2144 44.0804 63.0346 42.9088 63.0346ZM38.4565 20.5038H30.4894C26.9744 20.5038 26.9744 15.2314 30.4894 15.2314H38.4565C41.8543 15.2314 41.8543 20.5038 38.4565 20.5038ZM55.4454 20.5038H47.4782C44.0804 20.5038 44.0804 15.2314 47.4782 15.2314H55.4454C58.9604 15.2314 58.9604 20.5038 55.4454 20.5038Z" fill="#000002"/>
<path fill-rule="evenodd" clip-rule="evenodd" d="M72.5512 20.5039H64.4668C61.069 20.5039 61.069 15.2315 64.4668 15.2315H72.5512C75.9489 15.2315 75.9489 20.5039 72.5512 20.5039ZM19.4756 30.3457H136.523V16.4031C136.523 10.3105 131.602 5.27246 125.51 5.27246H30.4891C24.3965 5.27246 19.4756 10.3105 19.4756 16.4031V30.3457ZM125.51 20.5039H106.177C102.662 20.5039 102.662 15.2315 106.177 15.2315H125.51C128.907 15.2315 128.907 20.5039 125.51 20.5039ZM38.4563 20.5039H30.4891C26.9741 20.5039 26.9741 15.2315 30.4891 15.2315H38.4563C41.854 15.2315 41.854 20.5039 38.4563 20.5039ZM55.4451 20.5039H47.4779C44.0802 20.5039 44.0802 15.2315 47.4779 15.2315H55.4451C58.9601 15.2315 58.9601 20.5039 55.4451 20.5039Z" fill="url(#paint0_linear_157_5125)"/>
<path fill-rule="evenodd" clip-rule="evenodd" d="M96.9213 49.209C96.9213 51.4351 97.7415 55.653 94.8124 56.356C85.0877 58.465 84.2676 65.1434 80.6355 63.1516L76.6519 60.8083L74.3086 65.0262C82.8616 70.0643 78.5265 67.721 78.5265 76.7426C78.5265 85.7643 82.8616 83.421 74.1914 88.4591L76.769 92.5599C77.9407 91.8569 80.5183 89.9823 82.0414 89.9823C84.7362 89.9823 86.1422 95.2547 94.8124 97.1293C97.7415 97.7151 96.9213 102.05 96.9213 104.393L101.842 104.276C101.842 102.05 101.022 97.7151 103.834 97.1293C113.676 94.9032 114.496 88.2248 118.011 90.3337L122.112 92.677L124.455 88.3419C115.785 83.421 120.237 85.7643 120.237 76.7426C120.237 67.721 115.785 70.0643 124.455 65.0262L121.995 60.8083C120.003 61.9799 116.722 64.7919 114.73 62.5657C107.935 55.1844 101.842 57.8791 101.842 53.7784V49.0918L96.9213 49.209ZM84.2676 76.7426C84.2676 68.424 91.0631 61.7456 99.3818 61.7456C107.7 61.7456 114.379 68.424 114.379 76.7426C114.379 85.0613 107.7 91.7397 99.3818 91.7397C91.0631 91.7397 84.2676 85.0613 84.2676 76.7426Z" fill="url(#paint1_linear_157_5125)"/>
<path fill-rule="evenodd" clip-rule="evenodd" d="M80.9871 177.621C80.9871 175.864 79.6983 174.575 77.9408 174.575C76.3005 174.575 74.8945 175.864 74.8945 177.621C74.8945 179.262 76.3005 180.668 77.9408 180.668C79.6983 180.668 80.9871 179.262 80.9871 177.621Z" fill="url(#paint2_linear_157_5125)"/>
<path fill-rule="evenodd" clip-rule="evenodd" d="M77.9405 169.186C82.6271 169.186 86.3764 172.935 86.3764 177.622C86.3764 182.191 82.6271 185.94 77.9405 185.94C73.3711 185.94 69.6219 182.191 69.6219 177.622C69.6219 172.935 73.3711 169.186 77.9405 169.186ZM88.7197 160.516H69.036L58.4912 194.611H97.6242L88.7197 160.516Z" fill="url(#paint3_linear_157_5125)"/>
<defs>
<linearGradient id="paint0_linear_157_5125" x1="77.98" y1="5.32551" x2="77.98" y2="30.3545" gradientUnits="userSpaceOnUse">
<stop stop-color="#336699"/>
<stop offset="1" stop-color="#00CCFF"/>
</linearGradient>
<linearGradient id="paint1_linear_157_5125" x1="99.3549" y1="104.358" x2="99.3549" y2="49.0895" gradientUnits="userSpaceOnUse">
<stop stop-color="#FFFF00"/>
<stop offset="1" stop-color="#FFCC00"/>
</linearGradient>
<linearGradient id="paint2_linear_157_5125" x1="77.9796" y1="180.635" x2="77.9796" y2="174.522" gradientUnits="userSpaceOnUse">
<stop stop-color="#E6E6E6"/>
<stop offset="1" stop-color="#CCCCCC"/>
</linearGradient>
<linearGradient id="paint3_linear_157_5125" x1="78.0563" y1="194.634" x2="78.0563" y2="160.521" gradientUnits="userSpaceOnUse">
<stop stop-color="#AFAFAF"/>
<stop offset="1" stop-color="#9C9C9C"/>
</linearGradient>
</defs>
</svg>
