<svg width="79" height="30" viewBox="0 0 79 30" fill="none" xmlns="http://www.w3.org/2000/svg">
<g clip-path="url(#clip0_433_1652)">
<path d="M18.8501 0C15.804 0 12.8827 1.21005 10.7288 3.36396L3.69941 10.3934C1.5455 12.5473 0.335449 15.4686 0.335449 18.5147C0.335449 24.8579 5.47759 30 11.8207 30C14.8668 30 17.7881 28.7899 19.942 26.636L24.8043 21.7737L38.9715 7.6066C40.0002 6.57791 41.3954 6 42.8502 6C45.2858 6 47.3506 7.58741 48.0665 9.78407L52.5377 5.31296C50.498 2.11834 46.9215 0 42.8502 0C39.8041 0 36.8827 1.21005 34.7288 3.36396L15.6994 22.3934C14.6707 23.4221 13.2755 24 11.8207 24C8.79129 24 6.33545 21.5442 6.33545 18.5147C6.33545 17.0599 6.91336 15.6647 7.94205 14.636L14.9714 7.6066C16.0001 6.57791 17.3953 6 18.8501 6C21.2858 6 23.3506 7.58748 24.0665 9.78421L28.5377 5.31307C26.498 2.1184 22.9215 0 18.8501 0Z" fill="#035397"/>
<path d="M39.6993 22.3934C38.6706 23.4221 37.2754 24 35.8206 24C33.3853 24 31.3206 22.413 30.6045 20.2167L26.1335 24.6877C28.1733 27.8819 31.7496 30 35.8206 30C38.8667 30 41.788 28.7899 43.9419 26.636L62.9713 7.6066C64 6.57791 65.3952 6 66.85 6C69.8795 6 72.3353 8.45584 72.3353 11.4853C72.3353 12.9401 71.7574 14.3353 70.7287 15.364L63.6993 22.3934C62.6706 23.4221 61.2754 24 59.8206 24C57.3851 24 55.3203 22.4127 54.6043 20.2162L50.1333 24.6873C52.173 27.8818 55.7494 30 59.8206 30C62.8667 30 65.788 28.7899 67.9419 26.636L74.9713 19.6066C77.1252 17.4527 78.3353 14.5314 78.3353 11.4853C78.3353 5.14214 73.1932 0 66.85 0C63.8039 0 60.8826 1.21005 58.7287 3.36396L39.6993 22.3934Z" fill="#035397"/>
</g>
<defs>
<clipPath id="clip0_433_1652">
<rect width="78" height="30" fill="#035397" transform="translate(0.335449)"/>
</clipPath>
</defs>
</svg>
