<svg width="71" height="60" viewBox="0 0 71 60" fill="none" xmlns="http://www.w3.org/2000/svg">
<path d="M57.6665 0H12.6665C9.3513 0 6.17187 1.31696 3.82767 3.66117C1.48346 6.00537 0.166504 9.18479 0.166504 12.5V47.5C0.166504 50.8152 1.48346 53.9946 3.82767 56.3388C6.17187 58.683 9.3513 60 12.6665 60H57.6665C60.9817 60 64.1611 58.683 66.5053 56.3388C68.8495 53.9946 70.1665 50.8152 70.1665 47.5V12.5C70.1665 9.18479 68.8495 6.00537 66.5053 3.66117C64.1611 1.31696 60.9817 0 57.6665 0ZM65.1665 47.5C65.1665 49.4891 64.3763 51.3968 62.9698 52.8033C61.5633 54.2098 59.6556 55 57.6665 55H12.6665C10.6774 55 8.76973 54.2098 7.3632 52.8033C5.95668 51.3968 5.1665 49.4891 5.1665 47.5V12.5C5.1665 10.5109 5.95668 8.60322 7.3632 7.1967C8.76973 5.79018 10.6774 5 12.6665 5H57.6665C59.6556 5 61.5633 5.79018 62.9698 7.1967C64.3763 8.60322 65.1665 10.5109 65.1665 12.5V47.5Z" fill="#035397"/>
<path d="M22.6665 25C24.1499 25 25.5999 24.5601 26.8333 23.736C28.0666 22.9119 29.0279 21.7406 29.5956 20.3701C30.1633 18.9997 30.3118 17.4917 30.0224 16.0368C29.733 14.582 29.0187 13.2456 27.9698 12.1967C26.9209 11.1478 25.5845 10.4335 24.1297 10.1441C22.6748 9.85472 21.1668 10.0032 19.7964 10.5709C18.4259 11.1386 17.2546 12.0999 16.4305 13.3332C15.6064 14.5666 15.1665 16.0166 15.1665 17.5C15.1665 19.4891 15.9567 21.3968 17.3632 22.8033C18.7697 24.2098 20.6774 25 22.6665 25ZM22.6665 15C23.161 15 23.6443 15.1466 24.0554 15.4213C24.4666 15.696 24.787 16.0865 24.9762 16.5433C25.1654 17.0001 25.2149 17.5028 25.1185 17.9877C25.022 18.4727 24.7839 18.9181 24.4343 19.2678C24.0846 19.6174 23.6392 19.8555 23.1542 19.952C22.6693 20.0484 22.1666 19.9989 21.7098 19.8097C21.253 19.6205 20.8625 19.3001 20.5878 18.8889C20.3131 18.4778 20.1665 17.9945 20.1665 17.5C20.1665 16.837 20.4299 16.2011 20.8987 15.7322C21.3676 15.2634 22.0035 15 22.6665 15Z" fill="#035397"/>
<path d="M22.6665 27.5C19.3513 27.5 16.1719 28.817 13.8277 31.1612C11.4835 33.5054 10.1665 36.6848 10.1665 40V42.5C10.1665 44.4891 10.9567 46.3968 12.3632 47.8033C13.7697 49.2098 15.6774 50 17.6665 50H27.6665C29.6556 50 31.5633 49.2098 32.9698 47.8033C34.3763 46.3968 35.1665 44.4891 35.1665 42.5V40C35.1665 36.6848 33.8495 33.5054 31.5053 31.1612C29.1611 28.817 25.9817 27.5 22.6665 27.5ZM30.1665 42.5C30.1665 43.163 29.9031 43.7989 29.4343 44.2678C28.9654 44.7366 28.3295 45 27.6665 45H17.6665C17.0035 45 16.3676 44.7366 15.8987 44.2678C15.4299 43.7989 15.1665 43.163 15.1665 42.5V40C15.1665 38.0109 15.9567 36.1032 17.3632 34.6967C18.7697 33.2902 20.6774 32.5 22.6665 32.5C24.6556 32.5 26.5633 33.2902 27.9698 34.6967C29.3763 36.1032 30.1665 38.0109 30.1665 40V42.5Z" fill="#035397"/>
<path d="M57.6665 15H42.6665C42.0035 15 41.3676 15.2634 40.8987 15.7322C40.4299 16.2011 40.1665 16.837 40.1665 17.5C40.1665 18.163 40.4299 18.7989 40.8987 19.2678C41.3676 19.7366 42.0035 20 42.6665 20H57.6665C58.3295 20 58.9654 19.7366 59.4343 19.2678C59.9031 18.7989 60.1665 18.163 60.1665 17.5C60.1665 16.837 59.9031 16.2011 59.4343 15.7322C58.9654 15.2634 58.3295 15 57.6665 15Z" fill="#035397"/>
<path d="M57.6665 27.5H42.6665C42.0035 27.5 41.3676 27.7634 40.8987 28.2322C40.4299 28.7011 40.1665 29.337 40.1665 30C40.1665 30.663 40.4299 31.2989 40.8987 31.7678C41.3676 32.2366 42.0035 32.5 42.6665 32.5H57.6665C58.3295 32.5 58.9654 32.2366 59.4343 31.7678C59.9031 31.2989 60.1665 30.663 60.1665 30C60.1665 29.337 59.9031 28.7011 59.4343 28.2322C58.9654 27.7634 58.3295 27.5 57.6665 27.5Z" fill="#035397"/>
<path d="M57.6665 40H42.6665C42.0035 40 41.3676 40.2634 40.8987 40.7322C40.4299 41.2011 40.1665 41.837 40.1665 42.5C40.1665 43.163 40.4299 43.7989 40.8987 44.2678C41.3676 44.7366 42.0035 45 42.6665 45H57.6665C58.3295 45 58.9654 44.7366 59.4343 44.2678C59.9031 43.7989 60.1665 43.163 60.1665 42.5C60.1665 41.837 59.9031 41.2011 59.4343 40.7322C58.9654 40.2634 58.3295 40 57.6665 40Z" fill="#035397"/>
</svg>
