<svg width="69" height="66" viewBox="0 0 69 66" fill="none" xmlns="http://www.w3.org/2000/svg">
<path d="M68.0836 16.1844H60.0708V48.2882H68.0836V16.1844Z" fill="#035397"/>
<path d="M67.6802 50.3219L63.8789 59.718L60.0776 50.3219H67.6802Z" fill="#035397"/>
<path d="M66.6174 10.4735H61.5311C60.7232 10.4735 60.0684 11.1284 60.0684 11.9362V14.152H68.0801V11.9362C68.0801 11.1284 67.4252 10.4735 66.6174 10.4735Z" fill="#035397"/>
<path d="M47.082 4.60364H38.1411V3.08601C38.1411 1.60933 36.944 0.412231 35.4674 0.412231H17.9206C16.4439 0.412231 15.2468 1.60933 15.2468 3.08601V4.60364H6.30596C3.15062 4.60364 0.583496 7.1708 0.583496 10.3261V59.8654C0.583496 63.0207 3.15062 65.5878 6.30596 65.5878H47.082C50.2373 65.5878 52.8045 63.0207 52.8045 59.8654V10.3261C52.8045 7.1708 50.2373 4.60364 47.082 4.60364ZM48.5126 59.8654C48.5126 60.654 47.8707 61.296 47.082 61.296H6.30596C5.5173 61.296 4.87531 60.654 4.87531 59.8654V10.3261C4.87531 9.53744 5.5173 8.89549 6.30596 8.89549H47.082C47.8707 8.89549 48.5126 9.53744 48.5126 10.3261V59.8654Z" fill="#035397"/>
<path d="M40.6099 15.5275H12.7778C11.5923 15.5275 10.6318 16.488 10.6318 17.6734C10.6318 18.8588 11.5923 19.8193 12.7778 19.8193H40.6099C41.7953 19.8193 42.7558 18.8588 42.7558 17.6734C42.7558 16.488 41.7953 15.5275 40.6099 15.5275Z" fill="#035397"/>
<path d="M40.6099 27.1421H12.7778C11.5923 27.1421 10.6318 28.1026 10.6318 29.288C10.6318 30.4734 11.5923 31.4339 12.7778 31.4339H40.6099C41.7953 31.4339 42.7558 30.4734 42.7558 29.288C42.7558 28.1026 41.7953 27.1421 40.6099 27.1421Z" fill="#035397"/>
<path d="M40.6099 38.7568H12.7778C11.5923 38.7568 10.6318 39.7173 10.6318 40.9028C10.6318 42.0882 11.5923 43.0487 12.7778 43.0487H40.6099C41.7953 43.0487 42.7558 42.0882 42.7558 40.9028C42.7558 39.7173 41.7953 38.7568 40.6099 38.7568Z" fill="#035397"/>
<path d="M40.6099 50.3715H12.7778C11.5923 50.3715 10.6318 51.332 10.6318 52.5174C10.6318 53.7028 11.5923 54.6633 12.7778 54.6633H40.6099C41.7953 54.6633 42.7558 53.7028 42.7558 52.5174C42.7558 51.332 41.7953 50.3715 40.6099 50.3715Z" fill="#035397"/>
</svg>
