<svg width="67" height="68" viewBox="0 0 67 68" fill="none" xmlns="http://www.w3.org/2000/svg">
<path d="M40.167 44.0001C41.1114 44.0001 41.9309 43.6529 42.6253 42.9584C43.3198 42.264 43.667 41.4445 43.667 40.5001C43.667 39.5556 43.3198 38.7362 42.6253 38.0418C41.9309 37.3473 41.1114 37.0001 40.167 37.0001C39.2225 37.0001 38.4031 37.3473 37.7087 38.0418C37.0142 38.7362 36.667 39.5556 36.667 40.5001C36.667 41.4445 37.0142 42.264 37.7087 42.9584C38.4031 43.6529 39.2225 44.0001 40.167 44.0001ZM37.667 33.3334H42.667C42.667 31.7223 42.8337 30.5417 43.167 29.7917C43.5003 29.0417 44.2781 28.0556 45.5003 26.8334C47.167 25.1667 48.2781 23.8195 48.8337 22.7917C49.3892 21.764 49.667 20.5556 49.667 19.1667C49.667 16.6667 48.792 14.6251 47.042 13.0417C45.292 11.4584 43.0003 10.6667 40.167 10.6667C37.8892 10.6667 35.9031 11.3056 34.2087 12.5834C32.5142 13.8612 31.3337 15.5556 30.667 17.6667L35.167 19.5001C35.667 18.1112 36.3475 17.0695 37.2087 16.3751C38.0698 15.6806 39.0559 15.3334 40.167 15.3334C41.5003 15.3334 42.5837 15.7084 43.417 16.4584C44.2503 17.2084 44.667 18.2223 44.667 19.5001C44.667 20.2779 44.4448 21.014 44.0003 21.7084C43.5559 22.4029 42.7781 23.2779 41.667 24.3334C39.8337 25.9445 38.7087 27.2084 38.292 28.1251C37.8753 29.0417 37.667 30.7779 37.667 33.3334ZM20.167 54.0001C18.3337 54.0001 16.7642 53.3473 15.4587 52.0418C14.1531 50.7362 13.5003 49.1668 13.5003 47.3334V7.33342C13.5003 5.50008 14.1531 3.93064 15.4587 2.62508C16.7642 1.31953 18.3337 0.666748 20.167 0.666748H60.167C62.0003 0.666748 63.5698 1.31953 64.8753 2.62508C66.1809 3.93064 66.8337 5.50008 66.8337 7.33342V47.3334C66.8337 49.1668 66.1809 50.7362 64.8753 52.0418C63.5698 53.3473 62.0003 54.0001 60.167 54.0001H20.167ZM20.167 47.3334H60.167V7.33342H20.167V47.3334ZM6.83366 67.3334C5.00033 67.3334 3.43088 66.6806 2.12533 65.3751C0.81977 64.0695 0.166992 62.5001 0.166992 60.6668V14.0001H6.83366V60.6668H53.5003V67.3334H6.83366Z" fill="#035397"/>
</svg>
