<svg width="74" height="74" viewBox="0 0 74 74" fill="none" xmlns="http://www.w3.org/2000/svg">
<path d="M21.9997 61.9999V45.3332L35.333 53.6666L21.9997 61.9999ZM40.333 30.3332C37.5552 30.3332 35.1941 29.361 33.2497 27.4166C31.3052 25.4721 30.333 23.111 30.333 20.3333C30.333 17.5555 31.3052 15.1944 33.2497 13.2499C35.1941 11.3055 37.5552 10.3333 40.333 10.3333H44.4997V15.3333H40.333C38.9441 15.3333 37.7636 15.8194 36.7913 16.7916C35.8191 17.7638 35.333 18.9444 35.333 20.3333C35.333 21.7221 35.8191 22.9027 36.7913 23.8749C37.7636 24.8471 38.9441 25.3333 40.333 25.3333H44.4997V30.3332H40.333ZM49.4997 30.3332V25.3333H53.6663C55.0552 25.3333 56.2358 24.8471 57.208 23.8749C58.1802 22.9027 58.6663 21.7221 58.6663 20.3333C58.6663 18.9444 58.1802 17.7638 57.208 16.7916C56.2358 15.8194 55.0552 15.3333 53.6663 15.3333H49.4997V10.3333H53.6663C56.4441 10.3333 58.8052 11.3055 60.7497 13.2499C62.6941 15.1944 63.6663 17.5555 63.6663 20.3333C63.6663 23.111 62.6941 25.4721 60.7497 27.4166C58.8052 29.361 56.4441 30.3332 53.6663 30.3332H49.4997ZM40.333 22.8333V17.8333H53.6663V22.8333H40.333ZM50.6663 43.6666V36.9999H66.9997V6.99992H26.9997V36.9999H20.333V6.99992C20.333 5.16658 20.9858 3.59714 22.2913 2.29159C23.5969 0.98603 25.1663 0.333252 26.9997 0.333252H66.9997C68.833 0.333252 70.4025 0.98603 71.708 2.29159C73.0136 3.59714 73.6663 5.16658 73.6663 6.99992V36.9999C73.6663 38.8332 73.0136 40.4027 71.708 41.7082C70.4025 43.0138 68.833 43.6666 66.9997 43.6666H50.6663ZM6.99967 73.6666C5.16634 73.6666 3.5969 73.0138 2.29134 71.7082C0.985786 70.4027 0.333008 68.8332 0.333008 66.9999V40.3332C0.333008 38.4999 0.985786 36.9305 2.29134 35.6249C3.5969 34.3194 5.16634 33.6666 6.99967 33.6666H46.9997C48.833 33.6666 50.4025 34.3194 51.708 35.6249C53.0136 36.9305 53.6663 38.4999 53.6663 40.3332V66.9999C53.6663 68.8332 53.0136 70.4027 51.708 71.7082C50.4025 73.0138 48.833 73.6666 46.9997 73.6666H6.99967ZM6.99967 66.9999H46.9997V40.3332H6.99967V66.9999Z" fill="#035397"/>
</svg>
