<svg width="1920" height="827" viewBox="0 0 1920 827" fill="none" xmlns="http://www.w3.org/2000/svg">
<g clip-path="url(#clip0_6_8)">
<path opacity="0.08" d="M1920 0.757996H0V823.968H1920V0.757996Z" fill="#51ADFB"/>
<path d="M0 827C5.03773 826.791 10.0606 826.584 15.0688 826.378H1904.85C1909.88 826.584 1914.93 826.791 1920 827V826.378H1904.85C1169.49 796.303 750.441 796.139 15.0688 826.378H0V827Z" fill="white"/>
<path d="M0 0C5.03773 0.238323 10.0606 0.475036 15.0688 0.71014H1904.85C1909.88 0.475028 1914.93 0.238314 1920 0V0.71014H1904.85C1169.5 35.0437 750.441 35.2313 15.0688 0.71014H0V0Z" fill="white"/>
</g>
<defs>
<clipPath id="clip0_6_8">
<rect width="1920" height="827" fill="white"/>
</clipPath>
</defs>
</svg>
