<svg width="101" height="100" viewBox="0 0 101 100" fill="none" xmlns="http://www.w3.org/2000/svg">
<g clip-path="url(#clip0_383_3728)">
<path d="M50.5187 0H50.4813C22.8774 0 0.5 22.3774 0.5 49.9813V50.0187C0.5 77.6226 22.8774 100 50.4813 100H50.5187C78.1226 100 100.5 77.6226 100.5 50.0187V49.9813C100.5 22.3774 78.1226 0 50.5187 0Z" fill="#B0E2F2"/>
<path d="M96.1112 49.9814C96.1112 24.7797 75.6812 4.34961 50.4795 4.34961C25.2777 4.34961 4.84766 24.7797 4.84766 49.9814C4.84766 75.1832 25.2777 95.6132 50.4795 95.6132C75.6812 95.6132 96.1112 75.1832 96.1112 49.9814Z" fill="#56CCF1"/>
<path fill-rule="evenodd" clip-rule="evenodd" d="M73.9147 67.3792V34.7583L32.8573 34.0459H30.2702C26.1832 34.0459 22.8086 37.458 22.8086 41.6949V67.3792H73.9147Z" fill="#69B0EE"/>
<path d="M72.8655 66.3294V35.7707L32.858 35.0583H30.2708C28.5085 35.0583 26.8962 35.8082 25.7339 37.0081C24.5715 38.2079 23.8591 39.8577 23.8591 41.695V66.3294H72.8655ZM74.9652 34.7584V67.3793C74.9652 67.9417 74.4778 68.3917 73.9154 68.3917H22.8092C22.2468 68.3917 21.7969 67.9417 21.7969 67.3793V41.695C21.7969 39.2953 22.7343 37.1206 24.2716 35.5458C25.8089 33.971 27.9086 32.9961 30.2708 32.9961H32.858L73.8404 33.7085C73.8779 33.7085 73.8779 33.7085 73.9154 33.7085C74.4778 33.7085 74.9652 34.1959 74.9652 34.7584Z" fill="#5C546A"/>
<path fill-rule="evenodd" clip-rule="evenodd" d="M42.868 71.4287H18.4961C18.4961 75.7782 22.7331 79.3402 27.9449 79.3402H68.7773C73.9892 79.3402 78.2261 75.7782 78.2261 71.4287H53.8542V74.5783H42.868V71.4287Z" fill="#A7A8AE"/>
<path fill-rule="evenodd" clip-rule="evenodd" d="M63.9016 46.7194V59.8803H32.8555V23.2098C32.8555 21.785 33.9803 20.6602 35.4052 20.6602H61.3519C62.7392 20.6602 63.9016 21.785 63.9016 23.2098V46.7194Z" fill="#F5F5F5"/>
<path fill-rule="evenodd" clip-rule="evenodd" d="M71.6629 50.994V47.9944C74.0251 47.5069 76.1249 46.2696 77.6997 44.5073L80.2869 46.0071L82.4991 42.1826L79.8744 40.6828C80.6243 38.4331 80.6243 35.9584 79.8744 33.7087L82.4991 32.2089L80.2869 28.3843L77.6997 29.8842C76.1249 28.1594 74.0251 26.8845 71.6629 26.3971V23.3975H67.2385V26.3971C64.8388 26.8845 62.7391 28.1594 61.2017 29.8842L58.6146 28.3843L56.4023 32.2089L58.9895 33.7087C58.2396 35.9584 58.2396 38.4331 58.9895 40.6828L56.4023 42.1826L58.6146 46.0071L61.2017 44.5073C62.7391 46.2696 64.8388 47.5069 67.2385 47.9944V50.994H71.6629ZM69.4507 43.5324C65.9636 43.5324 63.114 40.6828 63.114 37.1957C63.114 33.7087 65.9636 30.8965 69.4507 30.8965C72.9378 30.8965 75.7499 33.7087 75.7499 37.1957C75.7499 40.6828 72.9378 43.5324 69.4507 43.5324Z" fill="#454A6D"/>
<path fill-rule="evenodd" clip-rule="evenodd" d="M41.9288 26.3972C41.3663 26.3972 40.8789 25.9473 40.8789 25.3848C40.8789 24.7849 41.3663 24.335 41.9288 24.335H54.8272C55.3896 24.335 55.8395 24.7849 55.8395 25.3848C55.8395 25.9473 55.3896 26.3972 54.8272 26.3972H41.9288Z" fill="#DDDDDD"/>
<path fill-rule="evenodd" clip-rule="evenodd" d="M38.1061 31.3839C37.5437 31.3839 37.0938 30.8965 37.0938 30.334C37.0938 29.7716 37.5437 29.2842 38.1061 29.2842H54.829C55.3915 29.2842 55.8414 29.7716 55.8414 30.334C55.8414 30.8965 55.3915 31.3839 54.829 31.3839H38.1061Z" fill="#DDDDDD"/>
<path fill-rule="evenodd" clip-rule="evenodd" d="M38.1061 36.3328C37.5437 36.3328 37.0938 35.8828 37.0938 35.2829C37.0938 34.7205 37.5437 34.2705 38.1061 34.2705H54.829C55.3915 34.2705 55.8414 34.7205 55.8414 35.2829C55.8414 35.8828 55.3915 36.3328 54.829 36.3328H38.1061Z" fill="#DDDDDD"/>
<path fill-rule="evenodd" clip-rule="evenodd" d="M38.1061 41.2829C37.5437 41.2829 37.0938 40.833 37.0938 40.2706C37.0938 39.6706 37.5437 39.2207 38.1061 39.2207H54.829C55.3915 39.2207 55.8414 39.6706 55.8414 40.2706C55.8414 40.833 55.3915 41.2829 54.829 41.2829H38.1061Z" fill="#DDDDDD"/>
<path fill-rule="evenodd" clip-rule="evenodd" d="M38.1061 46.2697C37.5437 46.2697 37.0938 45.7822 37.0938 45.2198C37.0938 44.6574 37.5437 44.1699 38.1061 44.1699H54.829C55.3915 44.1699 55.8414 44.6574 55.8414 45.2198C55.8414 45.7822 55.3915 46.2697 54.829 46.2697H38.1061Z" fill="#DDDDDD"/>
<path fill-rule="evenodd" clip-rule="evenodd" d="M38.1061 51.2185C37.5437 51.2185 37.0938 50.7685 37.0938 50.1686C37.0938 49.6062 37.5437 49.1562 38.1061 49.1562H58.2036C58.766 49.1562 59.2535 49.6062 59.2535 50.1686C59.2535 50.7685 58.766 51.2185 58.2036 51.2185H38.1061Z" fill="#DDDDDD"/>
<path fill-rule="evenodd" clip-rule="evenodd" d="M38.1061 56.1687C37.5437 56.1687 37.0938 55.7187 37.0938 55.1563C37.0938 54.5939 37.5437 54.1064 38.1061 54.1064H58.2036C58.766 54.1064 59.2535 54.5939 59.2535 55.1563C59.2535 55.7187 58.766 56.1687 58.2036 56.1687H38.1061Z" fill="#DDDDDD"/>
<path fill-rule="evenodd" clip-rule="evenodd" d="M69.4539 43.5324C65.9668 43.5324 63.1172 40.6828 63.1172 37.1957C63.1172 33.7086 65.9668 30.8965 69.4539 30.8965C72.941 30.8965 75.7531 33.7086 75.7531 37.1957C75.7531 40.6828 72.941 43.5324 69.4539 43.5324Z" fill="white"/>
</g>
<defs>
<clipPath id="clip0_383_3728">
<rect width="100" height="100" fill="white" transform="translate(0.5)"/>
</clipPath>
</defs>
</svg>
