<svg width="100" height="100" viewBox="0 0 100 100" fill="none" xmlns="http://www.w3.org/2000/svg">
<g clip-path="url(#clip0_385_3748)">
<path d="M50 100C77.6142 100 100 77.6142 100 50C100 22.3858 77.6142 0 50 0C22.3858 0 0 22.3858 0 50C0 77.6142 22.3858 100 50 100Z" fill="#035397"/>
<path fill-rule="evenodd" clip-rule="evenodd" d="M19.2109 70.5352V78.0378C19.2109 80.2237 20.9869 81.9997 23.1728 81.9997C25.3587 81.9997 27.1347 80.2237 27.1347 78.0378V70.5352H19.2113H19.2109Z" fill="#FEFEFE"/>
<path fill-rule="evenodd" clip-rule="evenodd" d="M28.7088 69.8416V78.0384C28.7088 79.5887 28.0675 80.9934 27.0352 82.0003H68.3483C69.9713 82.0003 71.2879 80.6833 71.2879 79.0603V21.9619C71.2879 20.4098 71.9299 19.0058 72.9615 18H31.6484C30.0254 18 28.7088 19.317 28.7088 20.9396V69.8413V69.8416ZM59.8399 71H40.1568C39.1207 71 39.1207 69.4261 40.1568 69.4261H59.8399C60.8745 69.4261 60.8745 71 59.8399 71ZM63.321 61.6831H36.6813C35.6452 61.6831 35.6452 60.1092 36.6813 60.1092H63.321C64.3556 60.1092 64.3556 61.6831 63.321 61.6831ZM63.321 52.3715H36.6813C35.6452 52.3715 35.6452 50.7976 36.6813 50.7976H63.321C64.3556 50.7976 64.3556 52.3715 63.321 52.3715ZM56.7634 45.9016C52.1898 45.9016 48.474 42.1801 48.474 37.6118C48.474 33.0435 52.1951 29.322 56.7634 29.322C61.3372 29.322 65.0531 33.0435 65.0531 37.6118C65.0531 42.1801 61.3316 45.9016 56.7634 45.9016ZM44.8837 43.0546H36.6813C35.6441 43.0546 35.6441 41.4807 36.6813 41.4807H44.889C45.9277 41.4807 45.9255 43.0546 44.8833 43.0546H44.8837ZM44.8837 33.7429H36.6813C35.6441 33.7429 35.6441 32.169 36.6813 32.169H44.889C45.9277 32.169 45.9255 33.7429 44.8833 33.7429H44.8837Z" fill="#FEFEFE"/>
<path fill-rule="evenodd" clip-rule="evenodd" d="M59.0469 38.1582C59.7223 39.3885 59.2858 41.2568 57.5615 41.754C57.5536 42.318 57.44 42.8738 56.7628 42.8738C56.1084 42.8738 55.9801 42.3585 55.9651 41.8148C53.8636 41.3847 53.3458 38.9438 54.5934 38.7702C55.571 38.634 55.3663 39.7272 55.8121 40.0924C56.5539 40.7007 58.2969 40.0744 57.6703 38.9014C57.245 38.1053 55.3779 38.6937 54.4903 37.0763C53.8029 35.8241 54.2851 33.9645 55.9689 33.4658C55.9723 33.3491 55.976 33.2378 55.976 33.1361C55.976 32.1 57.5499 32.1 57.5499 33.1361C57.5499 33.2194 57.5525 33.3094 57.5555 33.4031C59.6739 33.8329 60.1877 36.2719 58.9382 36.4534C57.9564 36.5963 58.1855 35.5226 57.7194 35.1311C57.4175 34.8773 55.7686 34.608 55.7686 35.8853C55.7686 37.3545 58.0314 36.3079 59.0473 38.1582H59.0469ZM50.0469 37.6114C50.0469 41.3164 53.0578 44.3273 56.7628 44.3273C60.4678 44.3273 63.4787 41.3164 63.4787 37.6114C63.4787 33.9064 60.4678 30.8955 56.7628 30.8955C53.0578 30.8955 50.0469 33.9064 50.0469 37.6114Z" fill="#FEFEFE"/>
<path fill-rule="evenodd" clip-rule="evenodd" d="M72.8672 21.9619V29.4645H80.791V21.9619C80.791 19.7749 79.0142 17.9985 76.8235 18C74.6402 18.003 72.8672 19.7779 72.8672 21.9619Z" fill="#FEFEFE"/>
</g>
<defs>
<clipPath id="clip0_385_3748">
<rect width="100" height="100" fill="white"/>
</clipPath>
</defs>
</svg>
