<svg width="91" height="91" viewBox="0 0 91 91" fill="none" xmlns="http://www.w3.org/2000/svg">
<path d="M38 4.33013C42.641 1.65064 48.359 1.65063 53 4.33013L77.4042 18.4199C82.0452 21.0994 84.9042 26.0513 84.9042 31.4103V59.5897C84.9042 64.9487 82.0452 69.9006 77.4042 72.5801L53 86.6699C48.359 89.3494 42.641 89.3494 38 86.6699L13.5958 72.5801C8.95483 69.9006 6.09584 64.9487 6.09584 59.5897V31.4103C6.09584 26.0513 8.95483 21.0994 13.5958 18.4199L38 4.33013Z" fill="#FFE7FB"/>
<path fill-rule="evenodd" clip-rule="evenodd" d="M30.3333 39.7369L42.9472 47.0195C43.083 47.0979 43.2254 47.1546 43.3704 47.1905V61.3148L31.233 54.1318C30.6754 53.8018 30.3333 53.202 30.3333 52.5541V39.7369ZM59.6667 39.5433V52.5541C59.6667 53.202 59.3247 53.8018 58.7671 54.1318L46.6297 61.3148V47.0668C46.6592 47.052 46.6885 47.0363 46.7176 47.0195L59.6667 39.5433Z" fill="#900078"/>
<path opacity="0.3" fill-rule="evenodd" clip-rule="evenodd" d="M30.7296 36.2023C30.8836 36.0077 31.0781 35.8433 31.3048 35.7225L44.1382 28.8872C44.6769 28.6003 45.3231 28.6003 45.8619 28.8872L58.6952 35.7225C58.87 35.8156 59.0256 35.9346 59.1583 36.0734L45.0879 44.197C44.9954 44.2504 44.9101 44.3115 44.8323 44.3791C44.7546 44.3115 44.6693 44.2504 44.5768 44.197L30.7296 36.2023Z" fill="#900078"/>
</svg>
