<svg width="91" height="91" viewBox="0 0 91 91" fill="none" xmlns="http://www.w3.org/2000/svg">
<path d="M38 4.33013C42.641 1.65064 48.359 1.65063 53 4.33013L77.4042 18.4199C82.0452 21.0994 84.9042 26.0513 84.9042 31.4103V59.5897C84.9042 64.9487 82.0452 69.9006 77.4042 72.5801L53 86.6699C48.359 89.3494 42.641 89.3494 38 86.6699L13.5958 72.5801C8.95483 69.9006 6.09584 64.9487 6.09584 59.5897V31.4103C6.09584 26.0513 8.95483 21.0994 13.5958 18.4199L38 4.33013Z" fill="#DDF9F0"/>
<rect x="30.6667" y="29.6666" width="13.4167" height="13.4167" rx="1.5" fill="#00CB8E"/>
<path opacity="0.3" fill-rule="evenodd" clip-rule="evenodd" d="M47.9167 31.1666C47.9167 30.3382 48.5883 29.6666 49.4167 29.6666H59.8334C60.6618 29.6666 61.3334 30.3382 61.3334 31.1666V41.5833C61.3334 42.4117 60.6618 43.0833 59.8334 43.0833H49.4167C48.5883 43.0833 47.9167 42.4117 47.9167 41.5833V31.1666ZM30.6667 48.4166C30.6667 47.5882 31.3383 46.9166 32.1667 46.9166H42.5834C43.4118 46.9166 44.0834 47.5882 44.0834 48.4166V58.8333C44.0834 59.6617 43.4118 60.3333 42.5834 60.3333H32.1667C31.3383 60.3333 30.6667 59.6617 30.6667 58.8333V48.4166ZM49.4167 46.9166C48.5883 46.9166 47.9167 47.5882 47.9167 48.4166V58.8333C47.9167 59.6617 48.5883 60.3333 49.4167 60.3333H59.8334C60.6618 60.3333 61.3334 59.6617 61.3334 58.8333V48.4166C61.3334 47.5882 60.6618 46.9166 59.8334 46.9166H49.4167Z" fill="#00CB8E"/>
</svg>
