<svg width="101" height="100" viewBox="0 0 101 100" fill="none" xmlns="http://www.w3.org/2000/svg">
<path d="M50.4813 99.9625C78.0851 99.9625 100.463 77.5851 100.463 49.9813C100.463 22.3774 78.0851 0 50.4813 0C22.8774 0 0.5 22.3774 0.5 49.9813C0.5 77.5851 22.8774 99.9625 50.4813 99.9625Z" fill="#1D81CE"/>
<path fill-rule="evenodd" clip-rule="evenodd" d="M44.3306 67.7168H31.4697C31.5822 67.4919 31.6572 67.2669 31.6947 67.0044C31.6947 66.7045 31.7322 66.4045 31.7322 66.1045C31.7322 60.6677 27.2702 56.2433 21.8334 56.2433C21.5334 56.2433 21.196 56.2433 20.896 56.2808C20.6335 56.2808 20.4086 56.3558 20.1836 56.4682V44.8822C20.4086 44.9947 20.6335 45.0697 20.896 45.1072C21.196 45.1447 21.5334 45.1447 21.8334 45.1447C27.2702 45.1447 31.7322 40.7202 31.7322 35.2459C31.7322 34.9459 31.6947 34.646 31.6947 34.346C31.6572 34.121 31.5822 33.8586 31.4697 33.6336H60.9785C60.866 33.8586 60.791 34.121 60.7535 34.346C60.7535 34.646 60.716 34.9459 60.716 35.2459C60.716 40.7202 65.178 45.1447 70.6148 45.1447C70.9148 45.1447 71.2522 45.1447 71.5522 45.1072C71.8146 45.0697 72.0396 44.9947 72.2646 44.8822V47.6568C69.4899 46.082 66.3028 45.1821 62.8908 45.1821C52.4671 45.1821 43.9931 53.6561 43.9931 64.0798C43.9931 65.3171 44.1056 66.5545 44.3306 67.7168ZM62.8908 82.0025C53.0295 82.0025 44.968 73.9411 44.968 64.0798C44.968 54.2185 53.0295 46.1945 62.8908 46.1945C72.752 46.1945 80.776 54.2185 80.776 64.0798C80.776 73.9411 72.752 82.0025 62.8908 82.0025ZM57.304 55.9808L58.4288 55.6058L58.5038 55.6433C58.7663 55.6808 59.0287 56.0183 59.2162 56.1683L62.8158 59.7678L59.7786 60.7427L57.304 55.9808ZM56.2541 68.3543C56.854 68.3543 57.4539 68.2418 58.0539 68.0543L61.5409 66.9294L61.9534 72.5912C61.9534 72.8912 62.1409 73.1537 62.3658 73.3411C62.5908 73.4911 62.8533 73.5286 63.1157 73.5286C63.2282 73.5286 63.3782 73.5286 63.4907 73.4911L64.728 73.0787C65.7029 72.7787 65.8904 71.9163 66.0779 71.0539C66.0779 70.9039 66.1154 70.7915 66.1529 70.6415L67.3152 65.0922L76.0516 62.2425C76.3141 62.1675 76.4641 61.9051 76.3891 61.6426C75.9016 60.1053 74.8518 58.9054 73.4269 58.193C72.0396 57.4431 70.4273 57.3306 68.9275 57.8181L63.9031 59.4304L60.0786 55.6058L59.9286 55.4934C59.5162 55.0434 59.0662 54.631 58.4288 54.631C58.2788 54.631 58.1289 54.6685 58.0164 54.706L57.0415 55.0059C56.7415 55.1184 56.4791 55.3434 56.3666 55.6058C56.2541 55.8683 56.2916 56.1683 56.4041 56.3932L58.8038 61.0427L55.3167 62.1675L53.4044 59.8803C52.842 59.1679 52.1296 58.5305 51.1547 58.8304L50.1049 59.1679C49.5424 59.3554 49.2425 59.9928 49.4299 60.5552L50.5923 64.2298C51.3797 66.667 53.6669 68.3543 56.2541 68.3543ZM61.4659 65.9171L57.7539 67.1169C55.1667 67.9418 52.3921 66.517 51.5672 63.9298L50.3298 60.1428L51.4922 59.8053C51.9421 59.6553 52.3921 60.1803 52.6545 60.5177L54.7543 63.0674C54.9043 63.2174 55.1292 63.2924 55.3167 63.2174L69.2275 58.7555C70.4648 58.343 71.8146 58.4555 72.977 59.0554C73.8769 59.5054 74.5893 60.2178 75.0392 61.0802L75.2642 61.4551L67.5402 63.9673L67.8776 62.2425C67.9526 61.9801 67.7651 61.7176 67.5027 61.6426C67.2402 61.6051 66.9777 61.7551 66.9028 62.055L66.3778 64.5672V64.6047L65.1405 70.454C65.1405 70.604 65.103 70.7165 65.0655 70.8664C64.9905 71.3164 64.9155 71.9538 64.4281 72.1413L62.9283 72.5912L62.3283 63.8923C62.3283 63.6298 62.0659 63.4049 61.8034 63.4424C61.5409 63.4424 61.316 63.7048 61.3535 63.9673L61.4659 65.9171ZM50.4048 23.4724H42.0809C40.581 23.4724 39.3437 22.235 39.3437 20.7352H53.1045C53.1045 22.235 51.8671 23.4724 50.4048 23.4724ZM55.6167 29.2841V21.7851C55.6167 20.6602 54.7168 19.7603 53.5919 19.7603H38.8563C37.7314 19.7603 36.8315 20.6602 36.8315 21.7851V29.2841H37.4314C39.1187 29.2841 40.4686 30.634 40.4686 32.3213V32.6587H31.4322V32.3213C31.4322 30.634 32.8195 29.2841 34.5068 29.2841H35.0692V21.7851C35.0692 19.6853 36.794 17.998 38.8563 17.998H53.5919C55.6542 17.998 57.3789 19.6853 57.3789 21.7851V29.2841H57.9414C59.6287 29.2841 61.016 30.634 61.016 32.3213V32.6587H51.9796V32.3213C51.9796 30.634 53.3295 29.2841 55.0167 29.2841H55.6167ZM21.8334 44.1323C21.5709 44.1323 21.271 44.1323 21.0085 44.0948C20.5585 44.0573 20.1836 43.6823 20.1836 43.2324V37.1956C20.1836 35.2459 21.7959 33.6336 23.7456 33.6336H29.8199C30.2698 33.6336 30.6448 34.0085 30.6823 34.4585C30.7198 34.721 30.7198 34.9834 30.7198 35.2459C30.7198 40.1578 26.7453 44.1323 21.8334 44.1323ZM70.6148 44.1323C65.7029 44.1323 61.7284 40.1578 61.7284 35.2459C61.7284 34.9834 61.7284 34.721 61.7659 34.4585C61.8034 34.0085 62.1783 33.6336 62.6283 33.6336H68.7025C70.6523 33.6336 72.2646 35.2459 72.2646 37.1956V43.2324C72.2646 43.6823 71.9271 44.0573 71.4772 44.0948C71.1772 44.1323 70.9148 44.1323 70.6148 44.1323ZM29.8199 67.7168H23.7456C21.7959 67.7168 20.1836 66.142 20.1836 64.1923V58.118C20.1836 57.6681 20.5585 57.2931 21.0085 57.2556C21.271 57.2556 21.5709 57.2181 21.8334 57.2181C26.7453 57.2181 30.7198 61.2301 30.7198 66.1045C30.7198 66.367 30.7198 66.667 30.6823 66.9294C30.6448 67.3794 30.2698 67.7168 29.8199 67.7168Z" fill="white"/>
</svg>
