<svg width="51" height="45" viewBox="0 0 51 45" fill="none" xmlns="http://www.w3.org/2000/svg">
<path d="M47.4844 26.6364C46.5104 31.8246 43.7552 36.3851 39.8854 39.6539C35.9948 42.9383 30.9792 44.9153 25.5104 44.9153C20.3698 44.9153 15.6302 43.1684 11.849 40.2344C7.98958 37.2376 5.13021 33.0013 3.86458 28.1165L6.65625 27.3895C7.75521 31.6415 10.2448 35.3339 13.6094 37.9437C16.8958 40.4959 21.0208 42.0126 25.5052 42.0126C30.2812 42.0126 34.6458 40.2919 38.026 37.4416C41.2604 34.7115 43.599 30.9407 44.5312 26.6416H41.5521L46.026 21.171L50.5 26.6364H47.4844ZM32.4531 14.2413C32.4271 14.2151 32.4062 14.1995 32.3854 14.1838C32.3646 14.1681 32.3385 14.1576 32.3177 14.1472L32.3125 14.1419C32.2969 14.1315 32.276 14.1262 32.25 14.121C32.2292 14.121 32.2031 14.121 32.1719 14.121C32.1406 14.121 32.1094 14.121 32.0833 14.1262C32.0573 14.1315 32.0365 14.1367 32.0208 14.1472L32.0104 14.1524C31.9948 14.1628 31.974 14.1733 31.9531 14.1838C31.9323 14.1995 31.9115 14.2151 31.8854 14.2413L30.6771 15.4547C30.5521 15.5802 30.3958 15.6482 30.2344 15.6639C30.0729 15.6795 29.9062 15.6377 29.7656 15.5383C29.7031 15.4965 29.6302 15.4547 29.5573 15.4128C29.4688 15.3605 29.3958 15.3187 29.3333 15.2873L29.3229 15.2821C29.25 15.2402 29.1719 15.1984 29.0938 15.1618C29.0156 15.1199 28.9323 15.0833 28.8542 15.0519L28.849 15.0467C28.776 15.0101 28.6927 14.9735 28.6042 14.9369C28.5156 14.9003 28.4323 14.8689 28.349 14.8375L28.3333 14.8323C28.2292 14.7904 28.099 14.7486 27.9635 14.7015L27.8281 14.644C27.6823 14.5969 27.5625 14.5028 27.4844 14.3877C27.3958 14.2674 27.349 14.1158 27.349 13.9641V12.1075C27.349 12.0761 27.349 12.0447 27.3438 12.0185V12.0133C27.3385 11.9924 27.3333 11.9715 27.3281 11.9506C27.3177 11.9296 27.3073 11.9035 27.2917 11.8826C27.276 11.8616 27.2604 11.8407 27.2396 11.8198C27.2188 11.7989 27.1979 11.7832 27.1771 11.7675C27.1562 11.7518 27.1354 11.7414 27.1094 11.7309C27.0885 11.7204 27.0677 11.7152 27.0417 11.71C27.0156 11.7047 26.9896 11.7047 26.9531 11.7047H24.6354C24.6042 11.7047 24.5781 11.7047 24.5521 11.71C24.5312 11.7152 24.5104 11.7204 24.4896 11.7309L24.4792 11.7361C24.4583 11.7466 24.4375 11.757 24.4219 11.7675C24.401 11.7832 24.375 11.7989 24.3542 11.825C24.3333 11.846 24.3177 11.8669 24.3021 11.8878C24.2865 11.9087 24.276 11.9296 24.2656 11.9558C24.2552 11.9767 24.25 11.9976 24.2448 12.0185C24.2396 12.0447 24.2396 12.0708 24.2396 12.1075V13.802C24.2396 13.9746 24.1771 14.1367 24.0729 14.2622C23.9687 14.3877 23.8177 14.4819 23.651 14.508C23.5104 14.5394 23.3802 14.576 23.2604 14.6126L23.1458 14.644C22.9844 14.6911 22.8177 14.7538 22.651 14.8166L22.6354 14.8218C22.625 14.8271 22.6146 14.8271 22.599 14.8323C22.5104 14.8637 22.4219 14.9055 22.3281 14.9473C22.2656 14.9735 22.2083 14.9996 22.1458 15.0258C21.9844 15.099 21.8333 15.1775 21.6979 15.2507C21.5573 15.3291 21.401 15.3553 21.2552 15.3344C21.1042 15.3134 20.9583 15.2455 20.849 15.1304C20.4323 14.6806 19.9427 14.2308 19.5052 13.7915C19.4844 13.7706 19.4583 13.7497 19.4375 13.734L19.4271 13.7288C19.4167 13.7235 19.4062 13.7183 19.401 13.7131C19.3906 13.7078 19.3854 13.7078 19.375 13.7026C19.3646 13.6974 19.3438 13.6921 19.3281 13.6869C19.3073 13.6817 19.276 13.6817 19.25 13.6817C19.2188 13.6817 19.1927 13.6817 19.1667 13.6869H19.1615C19.1406 13.6921 19.1198 13.6974 19.1042 13.7026L19.099 13.7078C19.0781 13.7183 19.0573 13.7288 19.0365 13.7444C19.0104 13.7654 18.9844 13.7863 18.9531 13.8177L17.3438 15.4442C17.3177 15.4703 17.2917 15.4965 17.276 15.5174C17.2604 15.5383 17.25 15.5593 17.2396 15.5802L17.2344 15.5906C17.2292 15.6063 17.224 15.6272 17.2187 15.6482C17.2135 15.6743 17.2135 15.7005 17.2135 15.7318C17.2135 15.7946 17.224 15.8417 17.2396 15.8835C17.2604 15.9254 17.2917 15.9724 17.3385 16.0195L18.5469 17.2329C18.6719 17.3584 18.7396 17.5153 18.7552 17.6774C18.7708 17.8395 18.7292 18.0069 18.6302 18.1481C18.5885 18.2161 18.5469 18.2841 18.5052 18.3573C18.4531 18.4462 18.4115 18.5194 18.3802 18.5822L18.375 18.5927C18.3333 18.6659 18.2917 18.7443 18.2552 18.8228C18.2135 18.9012 18.1823 18.9849 18.1458 19.0634L18.1406 19.0686C18.1042 19.1418 18.0677 19.2255 18.0312 19.3144C17.9948 19.4033 17.9635 19.487 17.9323 19.5707L17.9271 19.5864C17.8854 19.691 17.8437 19.8217 17.7969 19.9577L17.75 20.0937C17.7031 20.2453 17.6094 20.3656 17.4896 20.4493C17.3698 20.5382 17.2188 20.5853 17.0677 20.5853H15.2188C15.1823 20.5853 15.1562 20.5853 15.1302 20.5905C15.1094 20.5957 15.0833 20.601 15.0625 20.6114C15.0417 20.6219 15.0156 20.6324 14.9948 20.648C14.974 20.6637 14.9531 20.6794 14.9323 20.7003C14.9115 20.7213 14.8958 20.7422 14.8802 20.7631C14.8646 20.784 14.8542 20.8049 14.8438 20.8259C14.8333 20.852 14.8281 20.8729 14.8229 20.8991C14.8177 20.9252 14.8177 20.9514 14.8177 20.988V23.3153C14.8177 23.3676 14.8281 23.4199 14.8438 23.4566C14.8542 23.4775 14.8646 23.5036 14.8854 23.5298C14.901 23.5559 14.9219 23.5768 14.9427 23.5978C14.9635 23.6187 14.9844 23.6344 15.0052 23.6501C15.026 23.6658 15.0469 23.6762 15.0729 23.6867C15.0937 23.6971 15.1146 23.7024 15.1354 23.7076H15.1406C15.1667 23.7128 15.1927 23.7128 15.224 23.7128H16.9115C17.0833 23.7128 17.2448 23.7756 17.3698 23.8802C17.4948 23.9848 17.5885 24.1365 17.6146 24.3038C17.6458 24.445 17.6823 24.5758 17.7188 24.6961L17.75 24.8059C17.7708 24.8791 17.7969 24.9628 17.8281 25.0465C17.8646 25.1458 17.8906 25.2243 17.9219 25.2975C17.9531 25.3812 17.9896 25.4596 18.0208 25.5486C18.0521 25.6322 18.0937 25.7159 18.1302 25.8101C18.1823 25.9303 18.2344 26.0402 18.2865 26.1395L18.3698 26.3069C18.4375 26.4429 18.4583 26.5946 18.4375 26.7358C18.4167 26.8874 18.3437 27.0234 18.2344 27.1332C17.8229 27.515 17.2865 28.0433 16.9115 28.4564C16.8854 28.4826 16.8646 28.5035 16.849 28.5244C16.8385 28.5401 16.8281 28.5506 16.8281 28.561C16.8229 28.5715 16.8229 28.5767 16.8177 28.5872C16.8125 28.5977 16.8073 28.6133 16.8021 28.6343L16.7969 28.6447C16.7917 28.6656 16.7917 28.6866 16.7917 28.7127C16.7917 28.7441 16.7917 28.7702 16.7969 28.7964V28.8016C16.8021 28.8225 16.8073 28.8382 16.8125 28.8591L16.8177 28.8696C16.8229 28.8853 16.8385 28.9062 16.8542 28.9271C16.875 28.9533 16.8958 28.9847 16.9271 29.0161L18.5208 30.6426C18.5469 30.6635 18.5729 30.6844 18.5938 30.7001C18.6146 30.7158 18.6406 30.7263 18.6615 30.7367C18.6875 30.7472 18.7083 30.7524 18.7344 30.7576C18.7604 30.7629 18.7917 30.7629 18.8229 30.7629C18.8594 30.7629 18.8906 30.7629 18.9167 30.7576H18.9219C18.9427 30.7524 18.9635 30.7472 18.9792 30.7419C19 30.7315 19.026 30.721 19.0521 30.7053C19.0729 30.6896 19.0938 30.674 19.1198 30.653L20.3073 29.4397C20.4271 29.3142 20.5885 29.2409 20.75 29.2253C20.9167 29.2096 21.0833 29.2514 21.224 29.3508C21.2917 29.3926 21.3594 29.4345 21.4323 29.4763C21.5208 29.5286 21.5937 29.5704 21.6562 29.6018L21.6667 29.607C21.8177 29.696 21.974 29.7692 22.1354 29.8372L22.151 29.8424C22.224 29.879 22.3021 29.9104 22.3854 29.947C22.474 29.9836 22.5573 30.015 22.6406 30.0464L22.6562 30.0516C22.7604 30.0934 22.8906 30.1405 23.026 30.1823L23.1562 30.2294C23.3073 30.2765 23.4271 30.3706 23.5104 30.4909C23.599 30.6112 23.6458 30.7629 23.6458 30.9145V32.7712C23.6458 32.834 23.6562 32.8863 23.6719 32.9333C23.6823 32.9542 23.6927 32.9752 23.7083 32.9961C23.724 33.017 23.7396 33.0379 23.7604 33.0588C23.8021 33.1007 23.8438 33.1268 23.8854 33.1478C23.9323 33.1687 23.9844 33.1739 24.0417 33.1739H26.3594C26.4115 33.1739 26.4635 33.1634 26.5 33.1478C26.5208 33.1373 26.5469 33.1268 26.5729 33.1059C26.5938 33.0902 26.6198 33.0745 26.6406 33.0484C26.6615 33.0275 26.6771 33.0065 26.6927 32.9856C26.7083 32.9647 26.7188 32.9438 26.7292 32.9176C26.7396 32.8967 26.7448 32.8758 26.75 32.8549C26.7552 32.8287 26.7552 32.8026 26.7552 32.766V31.0714C26.7552 30.8989 26.8177 30.7367 26.9219 30.6112C27.026 30.4857 27.1771 30.3915 27.3438 30.3602C27.4844 30.3288 27.6146 30.2922 27.7344 30.2556L27.8437 30.2242C28.0052 30.1771 28.1719 30.1143 28.3385 30.0516C28.5 29.9888 28.6667 29.9156 28.8437 29.8372C28.9635 29.7849 29.0729 29.7326 29.1719 29.6803L29.3385 29.5966C29.474 29.5286 29.625 29.5077 29.7656 29.5286C29.9167 29.5495 30.0521 29.6227 30.1615 29.7326C30.5417 30.1457 31.0677 30.6844 31.4792 31.061C31.5052 31.0871 31.526 31.108 31.5469 31.1237C31.5625 31.1342 31.5729 31.1447 31.5833 31.1447C31.5937 31.1499 31.599 31.1499 31.6094 31.1551C31.6198 31.1604 31.6354 31.1656 31.6562 31.1708C31.6823 31.176 31.7083 31.176 31.7448 31.176C31.776 31.176 31.8073 31.176 31.8333 31.1708C31.8542 31.1656 31.8698 31.1604 31.8802 31.1551L31.8906 31.1499C31.9062 31.1394 31.9271 31.129 31.9427 31.1185C31.9635 31.1028 31.9844 31.0819 32.0052 31.0662C32.0052 31.0662 33.5052 29.5809 33.6458 29.4397C33.6667 29.4135 33.6875 29.3874 33.7031 29.3665C33.7188 29.3455 33.7292 29.3194 33.7396 29.2985C33.75 29.2723 33.7552 29.2514 33.7604 29.2253C33.7656 29.1991 33.7656 29.1677 33.7656 29.1363C33.7656 29.0736 33.7552 29.0161 33.7396 28.9794C33.7292 28.9585 33.7188 28.9324 33.7031 28.9062C33.6875 28.8853 33.6719 28.8644 33.651 28.8382L32.4427 27.6458C32.3177 27.5255 32.2448 27.3634 32.2292 27.2012C32.2135 27.0339 32.2552 26.8665 32.3542 26.7253C32.3958 26.6573 32.4375 26.5893 32.4792 26.5161C32.526 26.4377 32.5677 26.3592 32.6042 26.2912L32.6094 26.2808C32.6979 26.1291 32.7708 25.9722 32.8385 25.8101L32.8437 25.7944C32.8802 25.7211 32.9115 25.6427 32.9479 25.559C32.9844 25.4701 33.0156 25.3864 33.0469 25.3027L33.0521 25.2871C33.0938 25.1825 33.1354 25.0517 33.1823 24.9157L33.2292 24.7797C33.276 24.6281 33.3698 24.5078 33.4896 24.4241C33.6094 24.3352 33.7604 24.2881 33.9115 24.2881H35.7604C35.8229 24.2881 35.875 24.2777 35.9219 24.262C35.9427 24.2515 35.9635 24.2411 35.9844 24.2254C36.0052 24.2097 36.026 24.194 36.0469 24.1731C36.0677 24.1521 36.0833 24.1312 36.099 24.1103C36.1146 24.0894 36.125 24.0685 36.1354 24.0423C36.1458 24.0214 36.151 24.0005 36.1562 23.9796C36.1615 23.9534 36.1615 23.9273 36.1615 23.8906V21.5633C36.1615 21.5319 36.1615 21.5058 36.1562 21.4796C36.151 21.4587 36.1458 21.4378 36.1406 21.4169L36.1354 21.4064C36.125 21.3855 36.1146 21.3646 36.099 21.3436L36.0937 21.3332C36.0781 21.3123 36.0625 21.2966 36.0417 21.2756C36.0208 21.2547 36 21.239 35.9792 21.2233C35.9583 21.2077 35.9375 21.1972 35.9115 21.1867C35.8906 21.1763 35.8698 21.171 35.849 21.1658C35.8229 21.1606 35.7969 21.1606 35.7604 21.1606H34.0729C33.8958 21.1606 33.7344 21.0926 33.6094 20.988C33.4844 20.8782 33.3958 20.7317 33.3646 20.5644C33.3229 20.4022 33.2812 20.2401 33.2344 20.078C33.2135 20.01 33.1875 19.9263 33.1562 19.8322C33.125 19.7433 33.0938 19.6596 33.0625 19.5759L33.0573 19.5602C33.0521 19.5497 33.0469 19.5341 33.0469 19.5184C32.9948 19.3824 32.9323 19.2412 32.875 19.1052L32.8542 19.0581C32.7865 18.9012 32.7135 18.7548 32.6302 18.6083L32.625 18.5979C32.5521 18.4567 32.526 18.305 32.5469 18.1586C32.5677 18.0069 32.6354 17.8605 32.75 17.7506C33.1927 17.3008 33.6354 16.8458 34.0833 16.4013C34.1094 16.3751 34.1302 16.3542 34.1458 16.3333L34.151 16.3228C34.1562 16.3124 34.1615 16.3019 34.1667 16.2967C34.1719 16.2862 34.1719 16.281 34.1771 16.2705C34.1823 16.2601 34.1875 16.2444 34.1927 16.2235C34.1979 16.2025 34.1979 16.1712 34.1979 16.145C34.1979 16.1136 34.1979 16.0875 34.1927 16.0613V16.0561C34.1875 16.0352 34.1823 16.0195 34.1771 15.9986L34.1719 15.9933C34.1615 15.9724 34.151 15.9515 34.1354 15.9306C34.1146 15.9044 34.0938 15.8783 34.0625 15.8469L32.4531 14.2413ZM32.875 12.8135C32.9844 12.8606 33.0885 12.9129 33.1875 12.9809C33.2865 13.0489 33.3802 13.1273 33.4688 13.2162L35.099 14.8532C35.1875 14.9421 35.2656 15.0363 35.3333 15.1356C35.401 15.235 35.4583 15.3396 35.5 15.4494V15.4547C35.5469 15.5645 35.5833 15.6743 35.6042 15.7946C35.6302 15.9149 35.6406 16.0352 35.6406 16.1555C35.6406 16.2758 35.6302 16.4013 35.6042 16.5216C35.5781 16.6419 35.5417 16.7569 35.4948 16.8668C35.4479 16.9766 35.3906 17.076 35.3177 17.1753C35.25 17.2747 35.1719 17.3636 35.0833 17.4473L34.1458 18.4096C34.1562 18.4358 34.1719 18.4619 34.1823 18.4828C34.2552 18.6397 34.3229 18.8019 34.3854 18.9588L34.4062 19.0111C34.4219 19.032 34.4271 19.0581 34.4323 19.0843V19.0947C34.4635 19.1784 34.4948 19.2673 34.526 19.3562C34.5573 19.4504 34.5937 19.555 34.625 19.6648C34.6302 19.6857 34.6406 19.7066 34.6458 19.7276H35.7865C35.9062 19.7276 36.026 19.738 36.1458 19.7642C36.2656 19.7851 36.3802 19.8217 36.4896 19.8688C36.599 19.9158 36.7031 19.9681 36.8021 20.0414C36.901 20.1094 36.9896 20.1878 37.0781 20.2715L37.0938 20.2872L37.1042 20.3029C37.1823 20.3865 37.2604 20.4807 37.3229 20.5748C37.3906 20.6742 37.4427 20.7788 37.4844 20.8834C37.5312 20.9932 37.5625 21.1083 37.5885 21.2233C37.6094 21.3384 37.625 21.4535 37.625 21.5738V23.9011C37.625 24.0266 37.6146 24.1469 37.5885 24.262C37.5677 24.377 37.5312 24.4921 37.4896 24.6019C37.4427 24.7118 37.3906 24.8164 37.3229 24.9157C37.2552 25.0151 37.1771 25.1092 37.0885 25.1981C37 25.2871 36.9062 25.3655 36.8073 25.4335C36.7083 25.5015 36.6042 25.559 36.4948 25.6009C36.3854 25.6427 36.276 25.6793 36.1562 25.7002C36.0365 25.7211 35.9167 25.7368 35.7917 25.7368H34.4531C34.4427 25.7682 34.4323 25.7944 34.4219 25.8258C34.3594 25.9879 34.2865 26.1552 34.2135 26.3226C34.1771 26.4011 34.1406 26.4952 34.099 26.5684C34.0312 26.7096 33.9688 26.8456 33.8958 26.9816L33.8698 27.0287C34.151 27.3058 34.4375 27.583 34.7135 27.8654C34.7969 27.9544 34.8698 28.0433 34.9323 28.1426C35 28.242 35.0521 28.3466 35.0937 28.4564C35.1354 28.561 35.1667 28.6761 35.1927 28.7912C35.2135 28.9114 35.224 29.0317 35.224 29.1468C35.224 29.2671 35.2135 29.3874 35.1927 29.5024C35.1719 29.6175 35.1406 29.7326 35.0937 29.8372C35.0521 29.9418 35 30.0464 34.9375 30.1457C34.8802 30.2399 34.8073 30.334 34.7292 30.4177C34.7083 30.4491 34.6927 30.47 34.6615 30.4857L33.0677 32.0651C32.9844 32.1541 32.8906 32.2377 32.7865 32.3057C32.6875 32.3737 32.5833 32.4312 32.474 32.4783H32.4688C32.3646 32.5254 32.25 32.5568 32.1354 32.5829C32.0156 32.6091 31.8906 32.6195 31.7656 32.6195C31.6458 32.6195 31.5208 32.6091 31.401 32.5829C31.2812 32.5568 31.1667 32.5202 31.0521 32.4731C30.9427 32.426 30.8333 32.3685 30.7344 32.2953C30.6406 32.2273 30.5469 32.1488 30.4635 32.0651L29.5208 31.1185L29.4427 31.1551C29.2656 31.2336 29.0729 31.312 28.8698 31.3957L28.8542 31.4009C28.7604 31.4375 28.6667 31.4689 28.5729 31.5055C28.4635 31.5421 28.3594 31.5788 28.2656 31.6049L28.2083 31.6258V32.7712C28.2083 32.8915 28.1979 33.0118 28.1719 33.1321C28.151 33.2523 28.1146 33.3674 28.0677 33.4772C28.0208 33.5871 27.9687 33.6917 27.8958 33.791C27.8281 33.8904 27.75 33.9793 27.6667 34.0682L27.6406 34.0944C27.5573 34.1728 27.4635 34.2461 27.3698 34.3088C27.2708 34.3716 27.1719 34.4291 27.0677 34.4762C26.9583 34.5232 26.8438 34.5546 26.7292 34.5808C26.6146 34.6017 26.5 34.6174 26.3802 34.6174H24.0625C23.8073 34.6174 23.5729 34.5703 23.3542 34.4814C23.1354 34.3925 22.9427 34.2565 22.7656 34.0787C22.6771 33.9898 22.599 33.8956 22.5312 33.7963C22.4635 33.6969 22.4062 33.5923 22.3646 33.4825C22.3229 33.3726 22.2865 33.2628 22.2656 33.1425C22.2448 33.0222 22.2292 32.9019 22.2292 32.7764V31.4323C22.1979 31.4219 22.1719 31.4114 22.1406 31.4009C21.974 31.3382 21.8125 31.2649 21.6458 31.1917C21.5625 31.1551 21.4844 31.1185 21.4062 31.0767C21.2656 31.0087 21.125 30.9459 20.9896 30.8727L20.9427 30.857C20.6667 31.1394 20.3906 31.4271 20.1094 31.7043C20.0208 31.788 19.9323 31.8612 19.8333 31.9239C19.7344 31.9919 19.6302 32.0442 19.5208 32.0861C19.4167 32.1279 19.3021 32.1593 19.1875 32.1854C19.0677 32.2064 18.9479 32.2168 18.8333 32.2168C18.7188 32.2168 18.5938 32.2064 18.4792 32.1854C18.3646 32.1645 18.25 32.1331 18.1458 32.0861C18.0417 32.0442 17.9375 31.9919 17.8385 31.9292L17.8229 31.9187C17.7292 31.8612 17.6458 31.7932 17.5677 31.72C17.5365 31.699 17.5156 31.6834 17.5 31.652L15.9167 30.0411C15.8281 29.9522 15.75 29.8581 15.6823 29.7587C15.6146 29.6593 15.5573 29.5547 15.5156 29.4449V29.4397C15.4687 29.3299 15.4323 29.22 15.4115 29.105C15.3854 28.9847 15.375 28.8644 15.375 28.7389C15.375 28.6186 15.3854 28.493 15.4115 28.3728C15.4375 28.2525 15.474 28.1374 15.5208 28.0276C15.5677 27.9177 15.625 27.8184 15.6979 27.719C15.7656 27.6249 15.8438 27.5307 15.9271 27.4523L16.8698 26.5056L16.8333 26.4272C16.7917 26.3331 16.75 26.2389 16.7135 26.15L16.7083 26.1395C16.6719 26.0454 16.6302 25.9513 16.5938 25.8519L16.5885 25.8362C16.5521 25.7421 16.5208 25.6479 16.4844 25.5538C16.4479 25.444 16.4115 25.3394 16.3854 25.2452C16.3802 25.2243 16.375 25.2086 16.3698 25.1877H15.2292C15.1094 25.1877 14.9896 25.1772 14.8698 25.1511C14.75 25.1302 14.6354 25.0935 14.526 25.0465C14.4167 24.9994 14.3125 24.9419 14.2135 24.8739C14.1146 24.8059 14.026 24.7274 13.9375 24.6438L13.9219 24.6281C13.8385 24.5392 13.7656 24.445 13.6979 24.3457C13.6354 24.2463 13.5781 24.1469 13.5312 24.0423C13.4844 23.9325 13.4531 23.8174 13.4271 23.7024C13.4062 23.5873 13.3906 23.4722 13.3906 23.352V21.0246C13.3906 20.8991 13.401 20.7788 13.4271 20.6637C13.4479 20.5487 13.4844 20.4336 13.526 20.3238C13.5729 20.214 13.625 20.1094 13.6927 20.01C13.7604 19.9106 13.8385 19.8165 13.9271 19.7276C14.1042 19.5497 14.3021 19.4138 14.5208 19.3249C14.6302 19.283 14.7396 19.2464 14.8594 19.2255C14.9792 19.2046 15.099 19.1889 15.224 19.1889H16.5625C16.5729 19.1575 16.5833 19.1313 16.5938 19.1C16.6562 18.9326 16.7292 18.7705 16.8021 18.6031C16.8385 18.5194 16.875 18.441 16.9167 18.3573C16.9844 18.2161 17.0521 18.0749 17.1198 17.9389L17.1458 17.8918L16.3385 17.0812C16.2552 16.9975 16.1771 16.9034 16.1094 16.804C16.0417 16.7046 15.9844 16.6 15.9323 16.4902C15.8854 16.3804 15.849 16.2653 15.8229 16.145C15.7969 16.0247 15.7865 15.9044 15.7865 15.7841C15.7865 15.6639 15.7969 15.5383 15.8229 15.418C15.849 15.2978 15.8854 15.1827 15.9323 15.0729C15.9792 14.9578 16.0365 14.8532 16.1042 14.7591C16.1719 14.6597 16.25 14.5708 16.3385 14.4819C16.875 13.9432 17.4271 13.347 17.9792 12.8344C18.0625 12.7507 18.1562 12.6723 18.25 12.6095C18.349 12.5415 18.4531 12.484 18.5625 12.4422H18.5677C18.6771 12.3951 18.7865 12.3585 18.9062 12.3376C19.026 12.3114 19.1458 12.301 19.2656 12.301C19.3854 12.301 19.5104 12.3114 19.6302 12.3376C19.75 12.3637 19.8646 12.4003 19.974 12.4474C20.0833 12.4945 20.1875 12.5572 20.2812 12.6252L20.2917 12.6357C20.3854 12.7037 20.4688 12.7769 20.5521 12.8606L21.5104 13.802C21.5312 13.7915 21.5521 13.7811 21.5885 13.7654L21.651 13.734C21.7969 13.6712 21.9479 13.6032 22.099 13.5405C22.1354 13.5143 22.1615 13.5091 22.1979 13.5039C22.2812 13.4725 22.3698 13.4411 22.4583 13.4097C22.5677 13.3731 22.6719 13.3365 22.7656 13.3104L22.8229 13.2894V12.1336C22.8229 12.0133 22.8333 11.893 22.8594 11.7727C22.8802 11.6524 22.9167 11.5374 22.9635 11.4276C23.0104 11.3177 23.0625 11.2131 23.1354 11.1138C23.2031 11.0144 23.2812 10.9255 23.3646 10.8366L23.3854 10.8209C23.474 10.7372 23.5677 10.664 23.6615 10.596C23.7604 10.5332 23.8594 10.4757 23.9635 10.4286C24.0729 10.3816 24.1875 10.3502 24.3021 10.324C24.4167 10.3031 24.5312 10.2874 24.651 10.2874H26.9687C27.0937 10.2874 27.2135 10.2979 27.3281 10.324C27.4427 10.3449 27.5573 10.3816 27.6667 10.4234C27.776 10.4652 27.8802 10.5228 27.9792 10.5908C28.0781 10.6587 28.1719 10.7372 28.2656 10.8261L28.2708 10.8313C28.3594 10.9202 28.4375 11.0144 28.5052 11.1138C28.5729 11.2131 28.6302 11.3177 28.6719 11.4276C28.7135 11.5374 28.75 11.6472 28.7708 11.7675C28.7917 11.8878 28.8073 12.0081 28.8073 12.1336V13.4777C28.8385 13.4882 28.8646 13.4986 28.8958 13.5091C28.9948 13.5457 29.0937 13.5823 29.1927 13.6294L29.2031 13.6346C29.3021 13.6765 29.3958 13.7183 29.4896 13.7654L29.6406 13.8386C29.7812 13.9066 29.9167 13.9693 30.0521 14.0426L30.099 14.0687L30.9062 13.2581C30.9896 13.1744 31.0833 13.0959 31.1823 13.0279C31.2812 12.9599 31.3854 12.9024 31.4948 12.8501C31.6042 12.803 31.7187 12.7664 31.8385 12.7403C31.9583 12.7141 32.0781 12.7037 32.2031 12.7037C32.3229 12.7037 32.4479 12.7141 32.5625 12.7403C32.6406 12.756 32.7187 12.7769 32.7969 12.803C32.8177 12.7978 32.8438 12.803 32.875 12.8135ZM25.5 17.1492C25.6719 17.1492 25.849 17.1596 26.0312 17.1753C26.2083 17.191 26.3802 17.2172 26.5469 17.2538C26.7135 17.2852 26.8802 17.3322 27.0521 17.3845C27.2187 17.4368 27.3854 17.4996 27.5469 17.5676L27.5573 17.5728C27.7135 17.6408 27.8698 17.714 28.0156 17.7977C28.1615 17.8761 28.3021 17.9651 28.4375 18.0644L28.4427 18.0697C28.724 18.2579 28.9688 18.4671 29.2031 18.6973L29.2083 18.7025C29.3281 18.8228 29.4375 18.9483 29.5417 19.0738C29.6458 19.2046 29.7448 19.3405 29.8385 19.4765L29.849 19.4922C29.9375 19.6334 30.026 19.7694 30.099 19.9106C30.1823 20.0571 30.2552 20.2087 30.3281 20.3656C30.3333 20.3761 30.3385 20.3865 30.3437 20.397C30.349 20.4075 30.3542 20.4232 30.3542 20.4336C30.4844 20.7474 30.5781 21.0612 30.6354 21.375C30.6667 21.5424 30.6927 21.715 30.7135 21.8928C30.7292 22.0706 30.7396 22.2484 30.7396 22.4262C30.7396 22.5988 30.7292 22.7767 30.7135 22.9597C30.6979 23.1375 30.6719 23.3101 30.6354 23.4775C30.6042 23.6448 30.5573 23.8122 30.5052 23.9848C30.4531 24.1521 30.3906 24.3195 30.3229 24.4816L30.3177 24.4921C30.1823 24.8007 30.0208 25.0988 29.8333 25.376L29.8281 25.3864C29.7344 25.5276 29.6354 25.6584 29.5365 25.7839C29.4323 25.9094 29.3229 26.0349 29.2031 26.1552L29.1979 26.15C29.0781 26.2703 28.9531 26.3801 28.8281 26.4847C28.6979 26.5946 28.5625 26.6887 28.4271 26.7828L28.4115 26.7933C28.2708 26.8822 28.1354 26.9711 27.9948 27.0443C27.849 27.128 27.6979 27.2012 27.5417 27.2745L27.5365 27.2797C27.5156 27.2901 27.4948 27.3006 27.4687 27.3058C27.1562 27.4366 26.849 27.5255 26.5312 27.5883C26.3646 27.6196 26.1927 27.6458 26.0156 27.6667C25.8385 27.6824 25.6615 27.6929 25.4844 27.6929C25.3125 27.6929 25.1354 27.6824 24.9531 27.6667C24.776 27.651 24.6042 27.6249 24.4375 27.5883C24.2708 27.5569 24.1042 27.5098 23.9323 27.4575C23.7656 27.4052 23.599 27.3425 23.4375 27.2745L23.4271 27.2692C23.1198 27.1332 22.8229 26.9711 22.5469 26.7828L22.5365 26.7776C22.3958 26.6835 22.2656 26.5841 22.1406 26.4847C22.0156 26.3801 21.8906 26.2703 21.7708 26.15L21.7656 26.1448C21.6458 26.0245 21.5365 25.899 21.4323 25.7734C21.3281 25.6427 21.2292 25.5067 21.1354 25.3707L21.125 25.355C20.9427 25.0779 20.7812 24.785 20.6458 24.4816L20.6406 24.4764C20.6302 24.4555 20.6198 24.4346 20.6146 24.4084C20.5521 24.2567 20.4948 24.1051 20.4531 23.9534C20.4062 23.7965 20.3646 23.6344 20.3385 23.4722C20.3073 23.3049 20.2812 23.1323 20.2604 22.9545C20.2448 22.7767 20.2344 22.5988 20.2344 22.421C20.2344 22.2484 20.2448 22.0706 20.2604 21.8876C20.276 21.7097 20.3021 21.5371 20.3385 21.3698C20.3698 21.2024 20.4167 21.0351 20.4688 20.8625C20.5208 20.6951 20.5833 20.5278 20.651 20.3656L20.6562 20.3552C20.724 20.2035 20.7969 20.0518 20.875 19.9054C20.9583 19.7537 21.0469 19.6125 21.1406 19.4713L21.1458 19.4608C21.3333 19.1784 21.5417 18.9326 21.7708 18.6973L21.776 18.692C21.8958 18.5717 22.0208 18.4619 22.1458 18.3573C22.276 18.2527 22.4115 18.1533 22.5469 18.0592L22.5625 18.0487C22.7031 17.9598 22.8385 17.8709 22.9792 17.7977C23.125 17.714 23.276 17.6408 23.4323 17.5676L23.4375 17.5623C23.4583 17.5519 23.4792 17.5414 23.5052 17.5362C23.6562 17.4734 23.8021 17.4211 23.9583 17.3741C24.1198 17.327 24.276 17.2852 24.4427 17.2538C24.6094 17.2224 24.7812 17.1962 24.9583 17.1753C25.151 17.1596 25.3229 17.1492 25.5 17.1492ZM26.224 18.6554C26.1094 18.6345 26 18.6188 25.8854 18.6083C25.7656 18.5979 25.6354 18.5874 25.5 18.5874C25.3646 18.5874 25.2344 18.5927 25.1094 18.6083C24.9844 18.6188 24.8542 18.6397 24.7292 18.6659C24.6042 18.692 24.4844 18.7182 24.375 18.7548C24.2708 18.7862 24.1667 18.8228 24.0625 18.8646C24.0521 18.8698 24.0365 18.8751 24.026 18.8803L24.0156 18.8855C23.901 18.9378 23.7865 18.9901 23.6771 19.0477L23.6667 19.0529C23.5573 19.1104 23.4531 19.1732 23.3542 19.2412L23.349 19.2464C23.25 19.3144 23.1562 19.3824 23.0625 19.4556C22.9635 19.5341 22.875 19.6125 22.7865 19.6962C22.7031 19.7799 22.625 19.8688 22.5469 19.9629L22.5365 19.9734C22.4635 20.0623 22.3958 20.1564 22.3281 20.2558L22.3229 20.2663C22.2604 20.3604 22.1979 20.465 22.1406 20.5748C22.0781 20.6899 22.026 20.8049 21.974 20.9252V20.9305C21.9271 21.0455 21.8854 21.1606 21.849 21.2756C21.8125 21.3959 21.7812 21.5162 21.7604 21.6417C21.7344 21.7725 21.7187 21.898 21.7031 22.0288C21.6927 22.1491 21.6875 22.2798 21.6875 22.4158C21.6875 22.5518 21.6927 22.6825 21.7083 22.808C21.7188 22.9336 21.7396 23.0643 21.7656 23.1898C21.7917 23.3153 21.8177 23.4304 21.8542 23.5455C21.8854 23.6553 21.9219 23.7599 21.9635 23.8697C21.9687 23.8802 21.974 23.8959 21.9792 23.9063L21.9844 23.9168C22.0365 24.0319 22.0885 24.1469 22.1458 24.2567L22.151 24.2672C22.2083 24.3718 22.2708 24.4816 22.3385 24.581L22.3437 24.5862C22.4115 24.6856 22.4792 24.7797 22.5573 24.8739C22.6354 24.968 22.7135 25.0569 22.8021 25.1458C22.8906 25.2348 22.9844 25.3184 23.0781 25.3917C23.1719 25.4649 23.2656 25.5381 23.3646 25.6009L23.375 25.6061C23.4687 25.6688 23.5729 25.7316 23.6823 25.7891C23.7969 25.8519 23.9115 25.9042 24.0312 25.9565L24.0365 25.9617C24.151 26.0088 24.2656 26.0506 24.3802 26.0872C24.5 26.1239 24.6198 26.1552 24.7448 26.1762C24.875 26.2023 25 26.218 25.1302 26.2337C25.25 26.2441 25.3802 26.2494 25.5156 26.2494C25.651 26.2494 25.7812 26.2442 25.9062 26.2285C26.0312 26.218 26.1615 26.1971 26.2865 26.1709C26.4115 26.1448 26.5312 26.1186 26.6406 26.082C26.7448 26.0506 26.849 26.014 26.9479 25.9722C26.9635 25.9617 26.974 25.9617 26.9844 25.9565L26.9948 25.9513C27.1094 25.899 27.224 25.8467 27.3333 25.7891L27.3438 25.7839C27.4479 25.7264 27.5573 25.6636 27.6562 25.5956L27.6615 25.5904C27.7604 25.5224 27.8542 25.4544 27.9479 25.3812C28.0469 25.3027 28.1354 25.2243 28.224 25.1406C28.3073 25.0569 28.3854 24.968 28.4635 24.8739L28.474 24.8634C28.5469 24.7745 28.6146 24.6804 28.6823 24.581H28.6875C28.75 24.4869 28.8125 24.3823 28.8698 24.2724C28.9323 24.1574 28.9844 24.0423 29.0365 23.922L29.0417 23.9168C29.0885 23.8017 29.1302 23.6867 29.1667 23.5716C29.2031 23.4513 29.2344 23.331 29.2552 23.2055C29.2812 23.0748 29.2969 22.9492 29.3125 22.8185C29.3229 22.6982 29.3281 22.5675 29.3281 22.4315C29.3281 22.2955 29.3229 22.1647 29.3073 22.0392C29.2969 21.9137 29.276 21.783 29.25 21.6574C29.224 21.5319 29.1979 21.4116 29.1615 21.3018C29.1302 21.1972 29.0937 21.0926 29.0521 20.988C29.0417 20.9723 29.0417 20.9618 29.0365 20.9514L29.0312 20.9409C28.9792 20.8259 28.9271 20.7108 28.8698 20.601L28.8646 20.5905C28.8073 20.4807 28.7448 20.3761 28.6771 20.2767L28.6719 20.2715C28.6042 20.1721 28.5365 20.078 28.4583 19.9838C28.3802 19.8897 28.3021 19.8008 28.2135 19.7119C28.125 19.623 28.0312 19.5393 27.9375 19.4661C27.8438 19.3928 27.75 19.3196 27.651 19.2569L27.6406 19.2516C27.5469 19.1836 27.4427 19.1261 27.3333 19.0686C27.2188 19.0058 27.1042 18.9535 26.9844 18.9012L26.9792 18.896C26.8646 18.8489 26.75 18.8071 26.6354 18.7705C26.5156 18.7339 26.3958 18.7025 26.2708 18.6816C26.2552 18.6711 26.2396 18.6659 26.224 18.6554ZM3.53646 18.2789C4.5 13.1378 7.21354 8.61381 11.026 5.35552C14.9323 2.01355 19.9896 0 25.5104 0C30.3646 0 34.8542 1.55331 38.5208 4.19446C42.2812 6.9036 45.1771 10.7581 46.6927 15.2507L45.3229 15.7162L43.9531 16.1816C43.9167 16.0666 43.875 15.9515 43.8333 15.8417C42.4844 12.0813 40.0156 8.84916 36.8333 6.55842C33.6406 4.26245 29.7292 2.91311 25.5052 2.91311C20.6875 2.91311 16.2812 4.66516 12.8906 7.56258C9.70312 10.2874 7.40104 14.0269 6.47917 18.2841H9.44271L4.97396 23.7494L0.5 18.2789H3.53646Z" fill="#E8630A"/>
</svg>
