<svg width="51" height="50" viewBox="0 0 51 50" fill="none" xmlns="http://www.w3.org/2000/svg">
<g clip-path="url(#clip0_359_3522)">
<path d="M25.4996 49.9992C39.3065 49.9992 50.4992 38.8065 50.4992 24.9996C50.4992 11.1927 39.3065 0 25.4996 0C11.6927 0 0.5 11.1927 0.5 24.9996C0.5 38.8065 11.6927 49.9992 25.4996 49.9992Z" fill="#0AE88F"/>
<path d="M50.4993 25.0003C50.4993 23.5929 50.3812 22.2132 50.1576 20.8691L35.4115 6.12305H13.1035V7.23271H11.7344V42.5851L18.0067 48.8573C20.3724 49.5995 22.8891 50.0003 25.4994 50.0003C39.3064 50.0003 50.4993 38.8074 50.4993 25.0003Z" fill="#0AE88F"/>
<path d="M13.1055 41.4754H41.9421V12.6517L35.4134 6.12305H13.1055V41.4754Z" fill="#C8C6CC"/>
<path d="M41.9398 12.6518L35.4111 6.12305H26.1523V41.4755H41.9398V12.6518Z" fill="#AEADB3"/>
<path d="M11.7344 42.5848H40.571V13.761L34.0423 7.23242H11.7344V42.5848Z" fill="white"/>
<path d="M40.5707 13.761L34.042 7.23242H26.1523V42.5848H40.5707V13.761Z" fill="white"/>
<path d="M34.043 13.761H40.5717L34.043 7.23242V13.761Z" fill="#E1E1E3"/>
<path d="M35.8721 17.5742H16.4336V20.6024H35.8721V17.5742Z" fill="#00E8F2"/>
<path d="M35.8716 17.5742H26.1523V20.6024H35.8716V17.5742Z" fill="#00D9E0"/>
<path d="M35.8721 17.5742H16.4336V19.7606H35.8721V17.5742Z" fill="#0AE88F"/>
<path d="M35.8716 17.5742H26.1523V19.7606H35.8716V17.5742Z" fill="#0AE88F"/>
<path d="M35.8721 32.0586H16.4336V35.0868H35.8721V32.0586Z" fill="#00E8F2"/>
<path d="M35.8716 32.0586H26.1523V35.0868H35.8716V32.0586Z" fill="#00D9E0"/>
<path d="M35.8721 32.0586H16.4336V34.245H35.8721V32.0586Z" fill="#0AE88F"/>
<path d="M35.8716 32.0586H26.1523V34.245H35.8716V32.0586Z" fill="#0AE88F"/>
<path d="M35.8721 24.8174H16.4336V27.8456H35.8721V24.8174Z" fill="#00E8F2"/>
<path d="M35.8716 24.8174H26.1523V27.8456H35.8716V24.8174Z" fill="#00D9E0"/>
<path d="M35.8721 24.8174H16.4336V27.0038H35.8721V24.8174Z" fill="#0AE88F"/>
<path d="M35.8716 24.8174H26.1523V27.0038H35.8716V24.8174Z" fill="#0AE88F"/>
</g>
<defs>
<clipPath id="clip0_359_3522">
<rect width="50" height="50" fill="white" transform="translate(0.5)"/>
</clipPath>
</defs>
</svg>
