<svg width="498" height="332" viewBox="0 0 498 332" fill="none" xmlns="http://www.w3.org/2000/svg">
<path d="M447.358 225.617H327.34C325.196 225.617 323.449 223.87 323.449 221.726V46.9145C323.449 44.7698 325.196 43.0234 327.34 43.0234H447.358C449.503 43.0234 451.249 44.7698 451.249 46.9145V221.726C451.249 223.87 449.503 225.617 447.358 225.617ZM327.347 43.1894C325.295 43.1894 323.622 44.8627 323.622 46.9145V221.726C323.622 223.778 325.295 225.451 327.347 225.451H447.365C449.417 225.451 451.09 223.778 451.09 221.726V46.9145C451.09 44.8627 449.417 43.1894 447.365 43.1894H327.347Z" fill="#E0E0E0"/>
<path d="M308.968 225.617H188.95C186.805 225.617 185.059 223.87 185.059 221.726V46.9145C185.059 44.7698 186.805 43.0234 188.95 43.0234H308.968C311.112 43.0234 312.859 44.7698 312.859 46.9145V221.726C312.859 223.87 311.112 225.617 308.968 225.617ZM188.95 43.1894C186.898 43.1894 185.225 44.8627 185.225 46.9145V221.726C185.225 223.778 186.898 225.451 188.95 225.451H308.968C311.019 225.451 312.693 223.778 312.693 221.726V46.9145C312.693 44.8627 311.019 43.1894 308.968 43.1894H188.95Z" fill="#E0E0E0"/>
<path d="M170.656 225.617H50.6449C48.5002 225.617 46.7539 223.87 46.7539 221.726V46.9145C46.7539 44.7698 48.5002 43.0234 50.6449 43.0234H170.663C172.808 43.0234 174.554 44.7698 174.554 46.9145V221.726C174.554 223.87 172.808 225.617 170.663 225.617H170.656ZM50.6449 43.1894C48.5932 43.1894 46.9199 44.8627 46.9199 46.9145V221.726C46.9199 223.778 48.5932 225.451 50.6449 225.451H170.663C172.715 225.451 174.388 223.778 174.388 221.726V46.9145C174.388 44.8627 172.715 43.1894 170.663 43.1894H50.6449Z" fill="#E0E0E0"/>
<path d="M498 266.167H0V266.247H498V266.167Z" fill="#E0E0E0"/>
<path d="M471.013 285.675H434.008V285.954H471.013V285.675Z" fill="#EBEBEB"/>
<path d="M338.417 288.702H328.703V288.981H338.417V288.702Z" fill="#EBEBEB"/>
<path d="M75.2333 277.175H26.9805V277.454H75.2333V277.175Z" fill="#EBEBEB"/>
<path d="M92.2657 277.175H85.1875V277.454H92.2657V277.175Z" fill="#EBEBEB"/>
<path d="M219.915 281.896H115.262V282.174H219.915V281.896Z" fill="#EBEBEB"/>
<path d="M415.568 258.599C417.268 256.5 420.554 255.106 424.167 254.429C423.881 255.458 424.094 256.414 424.704 256.646C425.388 256.905 426.298 256.175 426.743 255.013C426.869 254.688 426.935 254.362 426.969 254.05C430.607 253.751 434.246 254.17 436.676 255.338C436.676 255.338 434.299 257.483 431.603 263.12C431.524 263.12 431.437 263.12 431.351 263.12C429.605 263.14 428.204 263.977 428.21 264.999C428.217 265.743 428.981 266.381 430.07 266.659C429.93 267.018 429.784 267.39 429.645 267.768C427.082 274.714 420.236 269.694 420.295 264.94C420.295 264.94 411.75 263.3 415.561 258.599H415.568Z" fill="#E6E6E6"/>
<path d="M407.141 249.633C405.043 247.369 401.192 246.021 397.028 245.523C397.427 246.679 397.261 247.781 396.577 248.093C395.82 248.438 394.724 247.675 394.127 246.386C393.961 246.021 393.854 245.656 393.801 245.311C389.631 245.244 385.515 245.995 382.832 247.509C382.832 247.509 385.701 249.773 389.193 255.994C389.286 255.988 389.379 255.975 389.479 255.968C391.464 255.855 393.131 256.712 393.197 257.874C393.244 258.723 392.42 259.5 391.205 259.905C391.391 260.304 391.584 260.715 391.769 261.14C395.216 268.863 402.639 262.628 402.214 257.216C402.214 257.216 411.836 254.706 407.141 249.633Z" fill="#E6E6E6"/>
<path d="M402.05 247.94C402.939 243.597 406.671 239.062 411.419 235.35C411.79 237.07 412.82 238.299 413.889 238.172C415.077 238.04 415.854 236.28 415.622 234.248C415.555 233.677 415.409 233.146 415.217 232.681C420.296 229.494 425.92 227.343 430.343 227.203C430.343 227.203 428.503 232.13 428.849 242.382C428.729 242.442 428.603 242.502 428.483 242.561C425.954 243.909 424.546 246.2 425.336 247.681C425.914 248.763 427.501 249.108 429.3 248.69C429.366 249.321 429.44 249.965 429.526 250.629C431.046 262.694 417.268 260.562 413.756 253.59C413.756 253.59 400.058 257.674 402.05 247.94Z" fill="#EBEBEB"/>
<path d="M411.729 275.51C409.425 262.688 412.871 248.93 420.952 238.711L421.344 239.016C413.349 249.122 409.936 262.734 412.22 275.417L411.729 275.503V275.51Z" fill="#E0E0E0"/>
<path d="M411.352 271.139C411.352 271.139 411.299 271.139 411.279 271.126C411.206 271.099 411.146 271.046 411.12 270.967C409.493 266.199 403.995 255.92 394.838 251.166C394.719 251.1 394.666 250.954 394.732 250.828C394.798 250.708 394.945 250.662 395.071 250.721C404.167 255.442 409.705 265.529 411.478 270.489C413.278 269.187 423.563 261.764 428.722 258.464C428.835 258.391 428.994 258.424 429.068 258.537C429.141 258.649 429.107 258.809 428.994 258.882C423.37 262.487 411.624 271.007 411.505 271.093C411.458 271.126 411.412 271.139 411.359 271.139H411.352Z" fill="#E0E0E0"/>
<path d="M426.134 279.539H397.137L397.15 274.227H426.1L426.134 279.539Z" fill="#E0E0E0"/>
<path d="M399.234 277.807L403.77 296.658H420.449L424.493 277.807H399.234Z" fill="#E0E0E0"/>
<path d="M401.336 273.305H398.76C398.667 273.305 398.594 273.232 398.594 273.139C398.594 273.046 398.667 272.973 398.76 272.973H401.336C401.429 272.973 401.502 273.046 401.502 273.139C401.502 273.232 401.429 273.305 401.336 273.305Z" fill="#E0E0E0"/>
<path d="M409.576 273.305H402.518C402.425 273.305 402.352 273.232 402.352 273.139C402.352 273.046 402.425 272.973 402.518 272.973H409.576C409.669 272.973 409.742 273.046 409.742 273.139C409.742 273.232 409.669 273.305 409.576 273.305Z" fill="#E0E0E0"/>
<path d="M345.773 56.4551H344.578V149.661H345.773V56.4551Z" fill="#E0E0E0"/>
<path d="M420.176 56.4551H418.98V149.661H420.176V56.4551Z" fill="#E0E0E0"/>
<path d="M424.853 62.3199H339.894L338.102 58.1367H426.646L424.853 62.3199Z" fill="#F0F0F0"/>
<path d="M424.853 68.0621H339.894L338.102 63.8789H426.646L424.853 68.0621Z" fill="#F0F0F0"/>
<path d="M424.853 73.8062H339.894L338.102 69.623H426.646L424.853 73.8062Z" fill="#F0F0F0"/>
<path d="M424.853 79.5484H339.894L338.102 75.3652H426.646L424.853 79.5484Z" fill="#F0F0F0"/>
<path d="M424.853 85.2926H339.894L338.102 81.1094H426.646L424.853 85.2926Z" fill="#F0F0F0"/>
<path d="M424.853 91.0367H339.894L338.102 86.8535H426.646L424.853 91.0367Z" fill="#F0F0F0"/>
<path d="M424.853 96.7789H339.894L338.102 92.5957H426.646L424.853 96.7789Z" fill="#F0F0F0"/>
<path d="M424.853 102.525H339.894L338.102 98.3418H426.646L424.853 102.525Z" fill="#F0F0F0"/>
<path d="M424.853 108.259H339.894L338.102 104.076H426.646L424.853 108.259Z" fill="#F0F0F0"/>
<path d="M424.853 114.005H339.894L338.102 109.822H426.646L424.853 114.005Z" fill="#F0F0F0"/>
<path d="M424.853 119.75H339.894L338.102 115.566H426.646L424.853 119.75Z" fill="#F0F0F0"/>
<path d="M424.853 125.492H339.894L338.102 121.309H426.646L424.853 125.492Z" fill="#F0F0F0"/>
<path d="M424.853 131.236H339.894L338.102 127.053H426.646L424.853 131.236Z" fill="#F0F0F0"/>
<path d="M424.853 136.978H339.894L338.102 132.795H426.646L424.853 136.978Z" fill="#F0F0F0"/>
<path d="M424.853 142.722H339.894L338.102 138.539H426.646L424.853 142.722Z" fill="#F0F0F0"/>
<path d="M424.853 148.466H339.894L338.102 144.283H426.646L424.853 148.466Z" fill="#F0F0F0"/>
<path d="M426.646 148.465H338.102V150.855H426.646V148.465Z" fill="#E0E0E0"/>
<path d="M429.735 52.8965H335.016V58.4741H429.735V52.8965Z" fill="#E0E0E0"/>
<path d="M335.986 109.044C335.455 109.044 335.023 108.612 335.023 108.081V75.5448C335.023 75.0136 335.455 74.582 335.986 74.582C336.517 74.582 336.949 75.0136 336.949 75.5448V108.081C336.949 108.612 336.517 109.044 335.986 109.044Z" fill="#E0E0E0"/>
<path d="M336.338 57.3574H335.641V76.6798H336.338V57.3574Z" fill="#E0E0E0"/>
<path d="M308.863 102.641L280.295 108.261C279.032 108.51 278.209 109.735 278.458 110.998L285.935 149.007C286.184 150.27 287.409 151.092 288.672 150.844L317.241 145.223C318.504 144.975 319.326 143.75 319.078 142.487L311.6 104.477C311.352 103.214 310.126 102.392 308.863 102.641Z" fill="#E6E6E6"/>
<path d="M287.122 116.56L305.69 112.907C306.328 112.782 306.946 113.202 307.07 113.834L307.171 114.348C307.297 114.987 306.877 115.604 306.245 115.728L287.677 119.381C287.038 119.507 286.421 119.087 286.297 118.455L286.196 117.94C286.07 117.302 286.49 116.685 287.122 116.56Z" fill="#F0F0F0"/>
<path d="M288.548 123.795L307.116 120.142C307.754 120.016 308.371 120.436 308.496 121.068L308.597 121.583C308.723 122.221 308.303 122.838 307.671 122.963L289.103 126.616C288.464 126.741 287.847 126.321 287.723 125.689L287.621 125.175C287.496 124.536 287.916 123.919 288.548 123.795Z" fill="#F0F0F0"/>
<path d="M289.962 131.027L308.53 127.374C309.168 127.248 309.786 127.668 309.91 128.3L310.011 128.815C310.137 129.454 309.717 130.071 309.085 130.195L290.517 133.848C289.878 133.974 289.261 133.554 289.137 132.922L289.035 132.407C288.91 131.769 289.33 131.151 289.962 131.027Z" fill="#F0F0F0"/>
<path d="M291.391 138.261L300.083 136.552C300.721 136.426 301.338 136.846 301.463 137.478L301.564 137.993C301.69 138.631 301.27 139.248 300.638 139.373L291.946 141.082C291.308 141.208 290.691 140.788 290.566 140.156L290.465 139.641C290.34 139.003 290.76 138.386 291.391 138.261Z" fill="#F0F0F0"/>
<path d="M96.4359 36.2018L70.5881 43.4527C68.2225 44.1163 66.8427 46.5721 67.5063 48.9377L77.5083 84.5927C78.1719 86.9584 80.6277 88.3382 82.9934 87.6745L108.841 80.4237C111.207 79.76 112.587 77.3043 111.923 74.9386L101.921 39.2837C101.257 36.918 98.8016 35.5382 96.4359 36.2018Z" fill="#E6E6E6"/>
<path d="M96.4108 49.7628L77.666 55.0217C76.856 55.2475 76.0127 54.776 75.7869 53.9659C75.5612 53.1559 76.0326 52.3126 76.8427 52.0868L95.5874 46.8279C96.3975 46.6022 97.2408 47.0736 97.4665 47.8837C97.6923 48.6938 97.2208 49.5371 96.4108 49.7628Z" fill="#F0F0F0"/>
<path d="M98.5162 57.2726L79.7715 62.5315C78.9614 62.7572 78.1182 62.2858 77.8924 61.4757C77.6666 60.6656 78.1381 59.8223 78.9481 59.5966L97.6929 54.3377C98.5029 54.1119 99.3462 54.5834 99.572 55.3935C99.7977 56.2035 99.3263 57.0468 98.5162 57.2726Z" fill="#F0F0F0"/>
<path d="M100.618 64.7902L81.8731 70.049C81.063 70.2748 80.2197 69.8034 79.994 68.9933C79.7682 68.1832 80.2396 67.3399 81.0497 67.1142L99.7944 61.8553C100.605 61.6295 101.448 62.101 101.674 62.911C101.899 63.7211 101.428 64.5644 100.618 64.7902Z" fill="#F0F0F0"/>
<path d="M92.4723 75.173L83.9864 77.5567C83.1763 77.7825 82.333 77.3111 82.1072 76.501C81.8815 75.6909 82.3529 74.8476 83.163 74.6219L91.6489 72.2381C92.459 72.0123 93.3023 72.4838 93.528 73.2939C93.7538 74.1039 93.2824 74.9472 92.4723 75.173Z" fill="#F0F0F0"/>
<path d="M467.063 119.114L450.479 115.179C449.226 114.882 447.97 115.656 447.673 116.908L442.31 139.507C442.013 140.76 442.787 142.016 444.039 142.313L460.624 146.249C461.876 146.546 463.132 145.772 463.429 144.519L468.792 121.92C469.09 120.668 468.315 119.412 467.063 119.114Z" fill="#E6E6E6"/>
<path d="M462.671 126.263L451.171 123.534C450.673 123.415 450.367 122.917 450.487 122.419C450.606 121.921 451.104 121.615 451.602 121.735L463.103 124.464C463.601 124.583 463.906 125.081 463.787 125.579C463.667 126.077 463.169 126.383 462.671 126.263Z" fill="#F0F0F0"/>
<path d="M461.581 130.871L450.081 128.142C449.583 128.022 449.277 127.524 449.397 127.026C449.517 126.528 450.015 126.223 450.513 126.342L462.013 129.071C462.511 129.191 462.816 129.689 462.697 130.187C462.577 130.685 462.079 130.99 461.581 130.871Z" fill="#F0F0F0"/>
<path d="M460.488 135.478L448.987 132.749C448.489 132.63 448.184 132.132 448.303 131.634C448.423 131.136 448.921 130.83 449.419 130.95L460.919 133.679C461.417 133.798 461.723 134.296 461.603 134.794C461.484 135.292 460.986 135.598 460.488 135.478Z" fill="#F0F0F0"/>
<path d="M453.095 138.599L447.89 137.364C447.392 137.245 447.086 136.747 447.206 136.249C447.325 135.751 447.823 135.445 448.321 135.565L453.527 136.8C454.025 136.92 454.33 137.418 454.211 137.916C454.091 138.414 453.593 138.719 453.095 138.599Z" fill="#F0F0F0"/>
<path d="M41.0384 178.355L28.6105 183.625C27.4255 184.128 26.8722 185.496 27.3748 186.681L34.6618 203.865C35.1643 205.05 36.5323 205.603 37.7174 205.1L50.1452 199.83C51.3302 199.328 51.8835 197.96 51.381 196.775L44.094 179.591C43.5914 178.406 42.2234 177.853 41.0384 178.355Z" fill="#E6E6E6"/>
<path d="M41.9536 185.172L32.8502 189.03C32.4584 189.196 32.0002 189.01 31.8342 188.618C31.6682 188.226 31.8542 187.768 32.2459 187.602L41.3494 183.744C41.7411 183.578 42.1993 183.764 42.3653 184.156C42.5313 184.548 42.3454 185.006 41.9536 185.172Z" fill="#F0F0F0"/>
<path d="M43.4966 188.817L34.3931 192.674C34.0014 192.84 33.5432 192.654 33.3772 192.263C33.2112 191.871 33.3971 191.413 33.7889 191.247L42.8923 187.389C43.2841 187.223 43.7422 187.409 43.9082 187.801C44.0742 188.192 43.8883 188.651 43.4966 188.817Z" fill="#F0F0F0"/>
<path d="M45.0473 192.469L35.9439 196.327C35.5521 196.493 35.094 196.307 34.928 195.915C34.762 195.523 34.9479 195.065 35.3397 194.899L44.4431 191.041C44.8349 190.875 45.293 191.061 45.459 191.453C45.625 191.845 45.4391 192.303 45.0473 192.469Z" fill="#F0F0F0"/>
<path d="M41.6142 198.225L37.4908 199.971C37.099 200.137 36.6409 199.951 36.4749 199.559C36.3089 199.168 36.4948 198.709 36.8865 198.543L41.01 196.797C41.4017 196.631 41.8599 196.817 42.0259 197.209C42.1919 197.601 42.006 198.059 41.6142 198.225Z" fill="#F0F0F0"/>
<path d="M474.81 297.73C474.81 299.981 373.709 301.807 248.997 301.807C124.284 301.807 23.1836 299.981 23.1836 297.73C23.1836 295.479 124.284 293.653 248.997 293.653C373.709 293.653 474.81 295.479 474.81 297.73Z" fill="#F5F5F5"/>
<path d="M261.657 47.5547H92.8085C90.0838 47.5547 87.875 49.7635 87.875 52.4882V291.694C87.875 294.419 90.0838 296.628 92.8085 296.628H261.657C264.382 296.628 266.591 294.419 266.591 291.694V52.4882C266.591 49.7635 264.382 47.5547 261.657 47.5547Z" fill="#035397"/>
<path opacity="0.3" d="M260.105 72.3945H94.3711V287.311H260.105V72.3945Z" fill="black"/>
<path d="M260.402 56.7051H94.668V280.752H260.402V56.7051Z" fill="white"/>
<path d="M241.338 78H113.73V84.8923H241.338V78Z" fill="#E0E0E0"/>
<path d="M241.033 260.586H113.426V267.478H241.033V260.586Z" fill="#E0E0E0"/>
<path d="M211.228 164.785H118.68V165.449H211.228V164.785Z" fill="#263238"/>
<path d="M211.228 174.506H118.68V175.17H211.228V174.506Z" fill="#263238"/>
<path d="M240.558 178.982H223.055V161.479H240.558V178.982ZM223.719 178.318H239.894V162.143H223.719V178.318Z" fill="#263238"/>
<path d="M233.973 176.917L224.75 170.052L227.147 166.838L233.329 171.439L241.821 161.307L244.896 163.883L233.973 176.917Z" fill="#035397"/>
<path d="M211.228 134.021H118.68V134.685H211.228V134.021Z" fill="#263238"/>
<path d="M211.228 143.742H118.68V144.406H211.228V143.742Z" fill="#263238"/>
<path d="M240.558 148.216H223.055V130.713H240.558V148.216ZM223.719 147.552H239.894V131.377H223.719V147.552Z" fill="#263238"/>
<path d="M233.973 146.152L224.75 139.286L227.147 136.072L233.329 140.674L241.821 130.541L244.896 133.117L233.973 146.152Z" fill="#035397"/>
<path d="M211.228 103.258H118.68V103.922H211.228V103.258Z" fill="#263238"/>
<path d="M211.228 112.979H118.68V113.643H211.228V112.979Z" fill="#263238"/>
<path d="M240.558 117.454H223.055V99.9512H240.558V117.454ZM223.719 116.79H239.894V100.615H223.719V116.79Z" fill="#263238"/>
<path d="M233.973 115.39L224.75 108.524L227.147 105.31L233.329 109.912L241.821 99.7793L244.896 102.356L233.973 115.39Z" fill="#035397"/>
<path d="M211.228 195.021H118.68V195.685H211.228V195.021Z" fill="#263238"/>
<path d="M211.228 204.742H118.68V205.406H211.228V204.742Z" fill="#263238"/>
<path d="M240.558 209.22H223.055V191.717H240.558V209.22ZM223.719 208.556H239.894V192.381H223.719V208.556Z" fill="#263238"/>
<path d="M211.228 225.256H118.68V225.92H211.228V225.256Z" fill="#263238"/>
<path d="M211.228 234.977H118.68V235.641H211.228V234.977Z" fill="#263238"/>
<path d="M240.558 239.45H223.055V221.947H240.558V239.45ZM223.719 238.786H239.894V222.611H223.719V238.786Z" fill="#263238"/>
<path d="M205.575 43.2422H148.883V64.623H205.575V43.2422Z" fill="#263238"/>
<path d="M195.184 45.4004H162.031L158.332 29.1191H199.719L195.184 45.4004Z" fill="#263238"/>
<path opacity="0.3" d="M196.339 29.1191C196.299 29.2187 191.923 43.0565 192.029 43.0565H195.794L199.778 29.1191H196.339Z" fill="black"/>
<path opacity="0.3" d="M201.914 43.2441C201.914 43.2441 201.642 64.6249 201.914 64.6249H205.573V43.2441H201.914Z" fill="black"/>
<path d="M425.649 80.5898H408.139C403.65 80.5898 400.012 84.2286 400.012 88.7172V98.5311C400.012 103.02 403.65 106.658 408.139 106.658H412.123L412.761 111.194L417.594 106.658H425.655C430.144 106.658 433.783 103.02 433.783 98.5311V88.7172C433.783 84.2286 430.144 80.5898 425.655 80.5898H425.649Z" fill="#035397"/>
<path d="M422.023 93.6561C422.023 94.8114 422.96 95.7477 424.115 95.7477C425.27 95.7477 426.207 94.8114 426.207 93.6561C426.207 92.5007 425.27 91.5645 424.115 91.5645C422.96 91.5645 422.023 92.5007 422.023 93.6561Z" fill="white"/>
<path d="M414.895 93.6561C414.895 94.8114 415.831 95.7477 416.986 95.7477C418.141 95.7477 419.078 94.8114 419.078 93.6561C419.078 92.5007 418.141 91.5645 416.986 91.5645C415.831 91.5645 414.895 92.5007 414.895 93.6561Z" fill="white"/>
<path d="M407.578 93.6561C407.578 94.8114 408.514 95.7477 409.67 95.7477C410.825 95.7477 411.761 94.8114 411.761 93.6561C411.761 92.5007 410.825 91.5645 409.67 91.5645C408.514 91.5645 407.578 92.5007 407.578 93.6561Z" fill="white"/>
<path d="M426.102 79.0352H414.993C414.674 79.0352 414.674 79.5332 414.993 79.5332H426.102C426.42 79.5332 426.42 79.0352 426.102 79.0352Z" fill="#035397"/>
<path d="M413.604 79.0352H412.674C412.541 79.0352 412.422 79.148 412.422 79.2875C412.422 79.4269 412.528 79.5398 412.674 79.5398H413.604C413.737 79.5398 413.856 79.4269 413.856 79.2875C413.856 79.148 413.75 79.0352 413.604 79.0352Z" fill="#035397"/>
<path d="M43.5098 81.3516H60.402C64.7313 81.3516 68.2438 84.8641 68.2438 89.1934V98.662C68.2438 102.991 64.7313 106.504 60.402 106.504H56.5574L55.9465 110.88L51.2852 106.504H43.5098C39.1805 106.504 35.668 102.991 35.668 98.662V89.1934C35.668 84.8641 39.1805 81.3516 43.5098 81.3516Z" fill="#035397"/>
<path d="M47.0098 93.9561C47.0098 95.0716 46.1067 95.9746 44.9912 95.9746C43.8757 95.9746 42.9727 95.0716 42.9727 93.9561C42.9727 92.8405 43.8757 91.9375 44.9912 91.9375C46.1067 91.9375 47.0098 92.8405 47.0098 93.9561Z" fill="white"/>
<path d="M53.8887 93.9561C53.8887 95.0716 52.9856 95.9746 51.8701 95.9746C50.7546 95.9746 49.8516 95.0716 49.8516 93.9561C49.8516 92.8405 50.7546 91.9375 51.8701 91.9375C52.9856 91.9375 53.8887 92.8405 53.8887 93.9561Z" fill="white"/>
<path d="M60.9473 93.9561C60.9473 95.0716 60.0442 95.9746 58.9287 95.9746C57.8132 95.9746 56.9102 95.0716 56.9102 93.9561C56.9102 92.8405 57.8132 91.9375 58.9287 91.9375C60.0442 91.9375 60.9473 92.8405 60.9473 93.9561Z" fill="white"/>
<path d="M43.0789 80.3359H53.7958C54.1146 80.3359 54.1146 79.8379 53.7958 79.8379H43.0789C42.7602 79.8379 42.7602 80.3359 43.0789 80.3359Z" fill="#035397"/>
<path d="M55.1351 80.3367H56.0315C56.1643 80.3367 56.2838 80.2238 56.2838 80.0843C56.2838 79.9449 56.1776 79.832 56.0315 79.832H55.1351C55.0023 79.832 54.8828 79.9449 54.8828 80.0843C54.8828 80.2238 54.9891 80.3367 55.1351 80.3367Z" fill="#035397"/>
<path d="M313.41 74.251C321.602 68.1891 323.329 56.6339 317.267 48.4418C311.206 40.2496 299.65 38.5227 291.458 44.5846C283.266 50.6464 281.539 62.2016 287.601 70.3938C293.663 78.5859 305.218 80.3129 313.41 74.251Z" fill="#035397"/>
<path opacity="0.3" d="M313.41 74.251C321.602 68.1891 323.329 56.6339 317.267 48.4418C311.206 40.2496 299.65 38.5227 291.458 44.5846C283.266 50.6464 281.539 62.2016 287.601 70.3938C293.663 78.5859 305.218 80.3129 313.41 74.251Z" fill="black"/>
<path d="M314.32 71.6579C307.009 78.7561 295.323 78.5834 288.224 71.2728C281.126 63.9622 281.299 52.2758 288.61 45.1776C295.92 38.0794 307.607 38.2521 314.705 45.5627C321.803 52.8734 321.63 64.5598 314.32 71.6579Z" fill="#035397"/>
<path d="M313.739 67.6327C318.818 60.8579 317.444 51.2481 310.669 46.1688C303.894 41.0895 294.284 42.464 289.205 49.2389C284.125 56.0137 285.5 65.6235 292.275 70.7028C299.05 75.7821 308.659 74.4076 313.739 67.6327Z" fill="white"/>
<path d="M294.105 69.2997L296.143 66.2851C296.203 66.325 296.263 66.3648 296.323 66.4047L294.357 69.4723C294.271 69.4192 294.185 69.3595 294.105 69.3063V69.2997ZM290.041 64.8974C289.988 64.8111 289.942 64.7181 289.895 64.6318L293.102 62.9187C293.135 62.9851 293.169 63.0448 293.209 63.1046L290.041 64.8974ZM300.001 71.471L300.4 67.8522L300.625 67.8721L300.293 71.4975C300.194 71.4909 300.101 71.4776 300.001 71.471ZM288.335 58.8483C288.335 58.7487 288.335 58.6491 288.328 58.5495L291.967 58.5163V58.7355L288.335 58.855V58.8483ZM306.23 70.6543L304.902 67.2612L305.107 67.1815L306.555 70.5215L306.469 70.5547C306.409 70.5812 306.316 70.6144 306.223 70.6543H306.23ZM289.643 52.7063C289.689 52.6134 289.729 52.5271 289.776 52.4341L293.016 54.0875C292.983 54.1539 292.95 54.2136 292.923 54.28L289.643 52.7063ZM308.653 64.6251C308.7 64.572 308.739 64.5189 308.786 64.4658L311.595 66.7765C311.528 66.8562 311.462 66.9359 311.389 67.0155L308.647 64.6185L308.653 64.6251ZM295.818 50.794L293.66 47.8658L293.899 47.6931L296.011 50.6612L295.825 50.794H295.818ZM310.712 60.588L310.758 60.3689L314.317 61.1325C314.297 61.2321 314.277 61.3251 314.251 61.4247L310.712 60.588ZM300.015 49.0411L299.45 45.4422C299.55 45.4289 299.643 45.4156 299.742 45.4023L300.24 49.0079L300.015 49.0411ZM310.665 56.0463C310.645 55.9799 310.632 55.9068 310.612 55.8404L314.111 54.8378C314.138 54.9374 314.164 55.037 314.191 55.1366L310.665 56.0463ZM304.543 49.4395L305.718 45.9933C305.818 46.0265 305.917 46.0597 306.01 46.0995L304.736 49.5125C304.669 49.4859 304.603 49.466 304.536 49.4395H304.543ZM308.514 52.049L308.368 51.8896L311.01 49.3863C311.077 49.4594 311.15 49.5324 311.216 49.6055L308.514 52.049Z" fill="black"/>
<path d="M301.263 59.3459C301.263 59.3459 301.237 59.3459 301.217 59.3459C301.117 59.3326 301.024 59.2728 300.978 59.1865L297.319 52.8918C297.226 52.7324 297.279 52.5332 297.439 52.4403C297.598 52.3473 297.797 52.4004 297.89 52.5598L301.336 58.4893L306.954 53.0246C307.087 52.8984 307.292 52.8984 307.425 53.0246C307.558 53.1508 307.551 53.3632 307.425 53.496L301.502 59.2529C301.443 59.3127 301.356 59.3459 301.27 59.3459H301.263Z" fill="black"/>
<path d="M302.329 59.2994C301.911 59.7775 301.187 59.8239 300.716 59.4056C300.238 58.9873 300.191 58.2635 300.61 57.7921C301.028 57.314 301.752 57.2675 302.223 57.6859C302.701 58.1042 302.748 58.8279 302.329 59.2994Z" fill="black"/>
<path opacity="0.3" d="M291.229 48.5518C297.305 42.6554 307.012 42.8015 312.909 48.8771C314.356 50.3711 315.438 52.0842 316.156 53.9036C315.472 51.6194 314.257 49.4681 312.484 47.6354C306.587 41.5598 296.88 41.4138 290.804 47.3167C286.222 51.7655 285.021 58.3789 287.232 63.9698C285.645 58.6645 286.979 52.6818 291.229 48.5584V48.5518Z" fill="black"/>
<path d="M46.341 289.272C46.341 288.993 43.4127 260.819 49.8801 236.855L50.7035 237.068C44.2892 260.879 47.1643 288.9 47.1643 289.185L46.341 289.265V289.272Z" fill="#263238"/>
<path d="M53.356 242.93C53.356 242.93 44.4517 259.463 46.2312 278.945C46.2312 278.945 49.9364 255.008 53.356 242.93Z" fill="#035397"/>
<path d="M35.6602 234.75C35.6602 234.75 48.6546 253.023 46.4037 276.363C46.3904 276.389 41.3374 247.047 35.6602 234.75Z" fill="#035397"/>
<path d="M46.3447 281.992C46.3447 281.992 49.1534 257.862 34.2267 250.896C34.1869 250.896 42.1482 256.78 46.3447 281.992Z" fill="#035397"/>
<path d="M47.8818 237.225L47.6095 237.272C47.2178 237.345 46.9588 237.717 47.0319 238.109C47.0319 238.135 47.0451 238.155 47.0518 238.182L47.3838 239.383C47.49 239.769 47.8818 239.994 48.2669 239.888C48.3864 239.855 48.4927 239.795 48.579 239.709L49.0239 239.277C49.316 238.998 49.7742 239.012 50.0531 239.304C50.1195 239.377 50.1726 239.456 50.2058 239.549L50.81 241.203C50.9428 241.575 51.3545 241.774 51.733 241.634C51.7795 241.621 51.8193 241.595 51.8658 241.575L53.2535 240.751C53.5922 240.545 53.7051 240.107 53.4992 239.762C53.4727 239.715 53.4395 239.669 53.3996 239.629L53.1739 239.397C52.9016 239.105 52.9149 238.64 53.2071 238.367C53.3332 238.248 53.4992 238.182 53.6785 238.175H54.887C55.2854 238.168 55.5975 237.836 55.5908 237.438C55.5908 237.405 55.5908 237.378 55.5842 237.345L55.4514 236.309C55.3983 235.917 55.0397 235.638 54.6479 235.685C54.5683 235.698 54.4886 235.718 54.4155 235.751L54.3359 235.791C53.9707 235.957 53.5391 235.798 53.3731 235.433C53.2867 235.247 53.2867 235.034 53.3598 234.848L53.7582 233.939C53.9175 233.573 53.7515 233.148 53.3863 232.996C53.3266 232.969 53.2602 232.949 53.1871 232.943L51.9056 232.77C51.5139 232.71 51.1487 232.982 51.0889 233.374C51.0889 233.407 51.0823 233.434 51.0823 233.467C51.0623 233.866 50.7237 234.178 50.3187 234.158C50.073 234.144 49.8472 234.012 49.7211 233.799L49.5551 233.5C49.3559 233.155 48.911 233.029 48.5657 233.228C48.5192 233.255 48.4727 233.288 48.4329 233.321L47.4834 234.211C47.1912 234.49 47.1779 234.948 47.4568 235.24C47.4635 235.253 47.4767 235.26 47.4834 235.267L48.247 235.97C48.5391 236.249 48.5524 236.707 48.2735 237C48.1739 237.106 48.0411 237.179 47.8951 237.212L47.8818 237.225Z" fill="#035397"/>
<path d="M49.0678 275.783L50.1103 267.722H41.0201L42.056 275.783C37.7068 277.277 34.7918 281.367 34.7852 285.968C34.8648 288.458 35.4691 290.909 36.5514 293.153C37.6005 295.357 39.8382 296.758 42.2817 296.738H48.8952C51.3387 296.758 53.5697 295.357 54.6122 293.153C55.7012 290.909 56.312 288.465 56.3917 285.968C56.3917 281.354 53.4502 277.257 49.0744 275.783H49.0678Z" fill="#035397"/>
<path d="M397.518 206.046L392.75 205.734C392.75 205.734 389.41 181.246 389.092 180.27C388.654 178.49 385.978 164.838 384.922 161.352L385.433 161.273C384.869 159.48 385.347 157.541 387.199 156.937C389.052 156.333 391.588 157.329 392.166 159.108C393.355 162.727 395.626 176.465 395.964 178.112C395.964 178.152 395.964 178.191 395.964 178.225C397.047 185.389 397.518 206.046 397.518 206.046Z" fill="#B97964"/>
<path d="M397.518 206.047C397.518 208.271 395.532 209.427 394.098 209.579H386.535L386.097 209.473C385.964 209.433 385.885 209.3 385.924 209.161C385.938 209.115 385.964 209.068 385.997 209.035L387.359 207.919C388.859 206.684 390.904 206.279 392.75 205.748L397.518 206.047Z" fill="#B97964"/>
<path d="M387.845 149.413C387.155 149.752 386.637 149.852 386.145 150.363C381.099 155.569 385.515 169.028 385.515 169.028L395.023 168.132C395.023 168.132 395.966 156.664 394.89 153.085C393.748 149.334 391.55 146.95 387.845 149.42V149.413Z" fill="#035397"/>
<path d="M419.781 280.838L420.618 289.649L427.251 290.373L427.922 280.898L419.781 280.838Z" fill="#E4897B"/>
<path d="M419.185 288.121C419.172 287.776 419.478 287.497 419.816 287.51L421.828 287.59C422.339 287.597 422.857 288.546 423.149 288.964C424.424 290.79 425.407 290.12 426.841 288.44C427.738 288.347 427.97 289.396 428.036 289.681L429.637 295.943C429.776 296.468 429.471 297.005 428.959 297.145C428.867 297.171 428.774 297.185 428.681 297.178C425.945 297.138 424.657 297.125 421.25 297.072L410.846 296.926C408.01 296.886 407.459 293.964 408.634 293.712C413.9 292.603 417.645 291.076 419.285 289.542C419.517 289.343 419.199 288.752 419.172 288.108L419.185 288.121Z" fill="#035397"/>
<path d="M420.111 291.62C420.058 291.62 419.998 291.594 419.972 291.541C419.586 290.896 418.922 290.452 418.192 290.339C418.099 290.325 418.039 290.239 418.053 290.146C418.066 290.053 418.146 289.993 418.245 290.007C419.069 290.133 419.825 290.644 420.257 291.368C420.304 291.448 420.277 291.547 420.197 291.594C420.171 291.607 420.144 291.62 420.111 291.62Z" fill="white"/>
<path d="M418.615 292.49C418.562 292.49 418.502 292.464 418.475 292.411C418.09 291.767 417.426 291.322 416.696 291.209C416.603 291.196 416.543 291.109 416.557 291.016C416.57 290.923 416.656 290.864 416.749 290.877C417.572 291.003 418.329 291.514 418.761 292.238C418.807 292.318 418.781 292.417 418.701 292.464C418.675 292.477 418.648 292.49 418.615 292.49Z" fill="white"/>
<path d="M416.775 293.367C416.722 293.367 416.662 293.341 416.636 293.288C416.251 292.644 415.587 292.199 414.856 292.086C414.763 292.073 414.703 291.986 414.717 291.893C414.73 291.8 414.816 291.741 414.909 291.754C415.733 291.88 416.483 292.391 416.921 293.115C416.968 293.195 416.941 293.294 416.861 293.341C416.835 293.354 416.808 293.367 416.775 293.367Z" fill="white"/>
<path d="M389.206 159.504C391.689 163.893 397.008 169.776 411.191 178.82L428.68 165.082C422.804 157.917 419.756 153.827 412.585 138.356C411.901 136.829 409.949 135.016 408.349 134.611C407.027 134.299 405.633 134.511 404.464 135.209C403.17 135.986 401.755 136.875 400.381 137.858C397.247 139.969 394.265 142.307 391.457 144.857C389.498 146.702 387.539 148.814 386.145 150.361C386.145 150.361 386.145 150.607 386.257 151.178C386.749 154.106 387.751 156.928 389.206 159.504Z" fill="#035397"/>
<path d="M378.447 118.183C375.433 121.45 375.201 125.155 375.811 127.639C377.013 130.905 378.706 133.017 380.347 136.078L384.736 114.166C382.763 115.082 381.734 114.883 378.454 118.183H378.447Z" fill="#263238"/>
<path d="M382.483 115.355C385.577 112.878 389.408 113.974 391.692 114.831C394.282 116.165 396.168 118.562 396.885 121.424C397.489 124.113 398.226 127.374 396.931 129.173C396.214 130.209 395.099 130.886 393.87 131.052L377.961 121.982C378.891 119.425 380.451 117.148 382.483 115.355Z" fill="#263238"/>
<path d="M397.018 151.862C398.466 152.214 398.585 149.398 399.449 148.156C401.852 141.948 399.967 138.13 399.967 138.13C397.669 137.406 397.105 136.47 395.797 133.29C395.757 133.197 395.704 133.11 395.651 133.031C395.405 132.652 395.053 132.353 394.641 132.187C393.526 131.696 392.231 132.227 391.746 133.363L389.203 136.278L389.263 136.43C390.232 138.004 391.036 139.199 391.62 140.162C391.667 140.288 391.766 140.401 391.833 140.514C391.879 140.64 391.965 140.766 392.038 140.879C392.782 142.24 391.726 144.133 391.122 145.162C390.777 145.826 392.131 150.673 397.018 151.855V151.862Z" fill="#B97964"/>
<path d="M395.093 122.692C396.354 128.947 397.025 131.557 394.867 135.647C391.613 141.796 383.951 142.234 380.876 136.543C378.154 131.411 376.521 122.068 381.667 117.799C386.813 113.529 393.811 116.431 395.086 122.692H395.093Z" fill="#B97964"/>
<path d="M399.018 127.355C398.699 128.849 397.79 130.024 396.807 130.655C395.333 131.598 393.686 129.274 393.719 127.468C393.752 125.841 395.021 124.347 396.674 124.141C398.307 123.942 399.377 125.642 399.011 127.355H399.018Z" fill="#B97964"/>
<path opacity="0.2" d="M395.534 128.329C395.461 128.329 395.394 128.276 395.375 128.203C395.222 127.565 395.321 126.875 395.653 126.31C395.985 125.739 396.543 125.321 397.167 125.155C397.254 125.135 397.347 125.181 397.373 125.274C397.4 125.361 397.347 125.454 397.254 125.48C396.709 125.626 396.231 125.992 395.939 126.483C395.647 126.974 395.56 127.579 395.693 128.13C395.713 128.216 395.66 128.309 395.574 128.329C395.56 128.329 395.547 128.329 395.534 128.329Z" fill="black"/>
<path d="M387.694 127.322C387.866 127.979 387.694 128.63 387.295 128.769C386.903 128.909 386.439 128.497 386.266 127.84C386.093 127.183 386.266 126.532 386.664 126.392C387.056 126.253 387.521 126.665 387.694 127.322Z" fill="#263238"/>
<path d="M381.728 129.315C381.894 129.952 381.714 130.583 381.316 130.723C380.924 130.862 380.466 130.464 380.3 129.826C380.134 129.189 380.313 128.558 380.712 128.418C381.103 128.279 381.562 128.677 381.728 129.315Z" fill="#263238"/>
<path d="M388.244 124.647C388.171 124.68 388.085 124.687 388.005 124.647C386.797 124.089 385.847 124.747 385.834 124.753C385.695 124.853 385.509 124.813 385.422 124.667C385.336 124.521 385.383 124.315 385.522 124.215C385.569 124.182 386.764 123.352 388.264 124.049C388.41 124.116 388.477 124.308 388.404 124.474C388.371 124.554 388.311 124.614 388.238 124.647H388.244Z" fill="#263238"/>
<path d="M378.75 126.918C378.684 126.918 378.617 126.892 378.571 126.832C378.471 126.713 378.485 126.513 378.598 126.387C379.733 125.139 380.948 125.391 380.995 125.405C381.141 125.438 381.22 125.604 381.181 125.77C381.141 125.942 380.988 126.049 380.849 126.022C380.802 126.009 379.859 125.829 378.956 126.825C378.896 126.892 378.823 126.925 378.75 126.918Z" fill="#263238"/>
<path d="M383.253 128.465C383.253 128.465 383.027 131.074 382.409 132.861C382.303 133.173 382.529 133.498 382.854 133.511C383.691 133.538 384.481 132.993 384.481 132.993L383.246 128.471L383.253 128.465Z" fill="#A24E3F"/>
<path d="M386.9 126.34L385.406 126.473C385.406 126.473 386.495 127.263 386.9 126.34Z" fill="#263238"/>
<path d="M380.857 128.379L379.363 128.512C379.363 128.512 380.452 129.302 380.857 128.379Z" fill="#263238"/>
<path d="M385.273 134.598C385.911 135.049 386.86 136.052 386.86 136.052C386.967 135.979 387.073 135.906 387.173 135.833C388.587 134.824 388.919 133.881 388.852 133.15C388.819 132.752 388.66 132.407 388.501 132.154C388.315 131.855 388.122 131.689 388.122 131.689C387.684 132.679 386.435 133.721 385.752 134.252C385.466 134.478 385.273 134.604 385.273 134.604V134.598Z" fill="#263238"/>
<path d="M385.75 134.247L386.228 134.665C387.556 133.709 388.366 132.859 388.506 132.148C388.32 131.85 388.127 131.684 388.127 131.684C387.689 132.673 386.441 133.715 385.757 134.247H385.75Z" fill="white"/>
<path d="M387.18 135.833C388.594 134.824 388.926 133.881 388.86 133.15C388.389 133.516 387.864 134.007 387.505 134.585C387.227 135.03 387.16 135.461 387.173 135.833H387.18Z" fill="#DE5753"/>
<path d="M393.307 124.726C393.307 124.726 388.878 121.526 387.988 118.073C387.988 118.073 374.794 118.319 378.426 129.009C378.426 129.009 373.573 120.178 383.486 116.127C393.4 112.077 398.572 125.125 394.987 130.988C394.96 130.941 396.049 126.738 393.307 124.72V124.726Z" fill="#263238"/>
<path d="M402.391 113.789C402.789 116.677 400.804 119.38 397.949 119.818C395.1 120.256 392.464 118.271 392.066 115.382C391.694 112.667 393.427 110.084 396.07 109.44C399.018 108.869 401.84 110.807 402.391 113.789Z" fill="#263238"/>
<path d="M379.131 118.627C378.075 120.267 377.557 122.206 377.657 124.152C377.962 125.506 380.001 126.038 380.001 126.038L381.561 122.545L382.145 125.135C385.691 123.84 387.358 121.37 387.969 118.242L385.113 115.068C385.113 115.068 380.107 117.273 379.137 118.627H379.131Z" fill="#263238"/>
<path d="M397.324 118.157C397.968 119.551 399.13 120.68 400.524 121.278C399.893 121.49 399.196 121.49 398.572 121.278C398.718 121.802 398.95 122.3 399.263 122.739C397.51 121.856 396.202 120.122 395.816 118.17L397.324 118.15V118.157Z" fill="#263238"/>
<path d="M409.398 177.957L427.639 163.787L409.398 177.957Z" fill="#035397"/>
<path d="M461.902 271.782L467.819 278.269L473.595 274.863L468.489 266.915L461.902 271.782Z" fill="#E4897B"/>
<path d="M465.766 277.944C465.547 277.678 465.627 277.266 465.906 277.067L467.552 275.879C467.964 275.567 468.94 275.998 469.425 276.151C471.523 276.815 471.908 275.673 472.048 273.448C472.705 272.818 473.515 273.515 473.741 273.694L478.741 277.678C479.166 278.01 479.245 278.621 478.92 279.053C478.86 279.132 478.794 279.199 478.721 279.252C476.53 280.912 475.487 281.702 472.758 283.767L464.405 290.095C462.128 291.821 459.95 289.836 460.733 288.913C464.259 284.77 466.324 281.237 466.716 278.999C466.776 278.694 466.178 278.422 465.773 277.93L465.766 277.944Z" fill="#035397"/>
<path d="M466.22 280.342C466.16 280.342 466.107 280.308 466.073 280.255C466.027 280.176 466.054 280.076 466.14 280.029C466.87 279.618 467.773 279.558 468.55 279.863C468.636 279.897 468.676 279.996 468.643 280.076C468.61 280.162 468.51 280.202 468.431 280.169C467.747 279.897 466.95 279.95 466.306 280.315C466.279 280.328 466.253 280.335 466.226 280.335L466.22 280.342Z" fill="white"/>
<path d="M465.548 281.955C465.488 281.955 465.435 281.922 465.402 281.869C465.355 281.789 465.382 281.689 465.468 281.643C466.198 281.231 467.101 281.171 467.878 281.477C467.965 281.51 468.004 281.61 467.971 281.689C467.938 281.776 467.845 281.815 467.759 281.782C467.075 281.51 466.278 281.563 465.634 281.928C465.607 281.942 465.581 281.948 465.554 281.948L465.548 281.955Z" fill="white"/>
<path d="M464.614 283.794C464.554 283.794 464.501 283.761 464.468 283.707C464.421 283.628 464.448 283.528 464.534 283.482C465.265 283.07 466.168 283.01 466.945 283.316C467.031 283.349 467.071 283.448 467.038 283.528C467.004 283.614 466.905 283.654 466.825 283.621C466.141 283.349 465.344 283.402 464.7 283.767C464.674 283.78 464.647 283.787 464.621 283.787L464.614 283.794Z" fill="white"/>
<path d="M411.191 178.82C411.191 178.82 416.477 246.256 416.517 246.635L419.823 286.103H428.402C428.402 286.103 428.462 283.832 428.907 280.837C432.825 254.596 428.807 246.11 428.807 246.11C428.807 246.11 432.253 195.447 433.462 191.629C433.581 191.231 429.478 162.194 411.191 178.82Z" fill="#263238"/>
<path d="M411.059 178.735L411.298 179.127C414.837 183.915 421.537 189.007 425.036 193.377L426.258 196.132C426.258 196.132 453.335 177.195 436.762 169.048C436.071 168.709 429.418 165.17 429.418 165.17C425.029 164.094 411.059 178.729 411.059 178.729V178.735Z" fill="#263238"/>
<path d="M447.119 197.806C447.225 206.55 448.221 229.239 449.403 237.898C449.403 237.898 456.203 243.25 459.702 248.635L470.312 269.504L463.533 273.986L441.727 252.473C436.814 247.486 435.034 244.073 433.467 239.691C429.629 228.987 428.886 215.973 427.192 205.521C426.415 200.674 422.989 184.931 424.178 180.21C425.778 173.815 427.564 163.357 434.921 168.098C442.132 171.431 446.395 173.503 447.119 197.819V197.806Z" fill="#263238"/>
<path opacity="0.2" d="M430.193 226.698L423.925 185.849L416.773 183.465L422.358 188.671L430.193 226.698Z" fill="black"/>
<path opacity="0.2" d="M395.6 161.484C395.6 161.484 407.479 167.268 411.257 165.13C415.036 162.992 414.345 155.761 414.272 154.353C414.206 152.972 414.02 151.478 414.02 151.478L414.909 151.372L413.044 140.369C413.044 140.369 410.022 160.402 409.392 160.402C408.761 160.402 395.594 161.491 395.594 161.491L395.6 161.484Z" fill="black"/>
<path d="M412.317 144.521C413.267 148.611 413.061 156.3 412.935 159.361C412.895 160.802 412.344 162.176 411.381 163.232C410.206 164.48 408.937 165.124 405 164.022C401.633 163.079 386.727 159.129 386.727 159.129L387.676 155.291C387.676 155.291 395.385 156.28 405.405 157.422C405.285 152.475 405.471 145.749 405.883 144.135C406.574 141.486 411.109 139.341 412.317 144.527V144.521Z" fill="#B97964"/>
<path d="M405.246 135.409C403.121 137.003 402.855 150.94 402.855 150.94H413.287C413.287 150.94 413.725 141.233 412.802 138.882C411.368 135.084 407.63 133.623 405.252 135.409H405.246Z" fill="#035397"/>
<path d="M389.208 155.31L385.463 153.437C385.045 153.231 384.6 153.105 384.135 153.072L381.858 152.906C380.948 152.846 380.158 153.55 380.098 154.48V154.499L379.985 156.551C379.959 157.368 380.503 158.085 381.287 158.258L383.611 158.769C383.611 158.769 387.621 160.402 388.823 158.371L389.222 155.316L389.208 155.31Z" fill="#B97964"/>
<path d="M380.961 155.169C380.895 154.758 379.553 154.519 378.737 154.399C377.92 154.273 375.722 154.187 375.257 153.801C374.792 153.41 374.872 152.593 375.33 152.6C375.795 152.606 377.263 152.586 378.418 152.693C379.573 152.799 381.804 152.812 382.289 152.932C382.767 153.058 380.961 155.169 380.961 155.169Z" fill="#B97964"/>
<path d="M309.86 179.626L321.5 186.053L333.83 168.77L338.717 177.601C338.717 177.601 326.931 195.27 322.509 195.522C318.087 195.774 306.5 183.47 306.5 183.47L309.86 179.626Z" fill="#E4897B"/>
<path d="M310.456 180.162C310.456 180.162 311.24 177.985 310.403 176.265C309.566 174.545 309.361 172.951 308.65 171.716C307.94 170.481 307.574 172.367 307.581 173.41C307.588 174.452 307.588 175.634 306.804 175.514C306.021 175.395 300.676 171.139 299.573 171.099C298.464 171.059 299.115 172.015 299.115 172.015C299.115 172.015 297.787 171.019 297.249 171.431C297.11 171.537 296.957 172.015 297.495 172.566C298.69 173.801 301.34 176.271 301.34 176.271C301.193 176.125 297.707 173.317 297.13 172.965C296.373 172.507 295.782 172.673 295.53 173.117C295.171 173.755 299.374 177.387 299.44 177.659C299.44 177.659 297.09 175.488 296.2 175.787C295.31 176.086 296.711 177.533 298.192 178.576C299.547 179.532 301.964 181.756 303.438 182.593C305.257 183.622 306.705 183.907 308.292 182.759C309.879 181.61 310.456 180.162 310.456 180.162Z" fill="#E4897B"/>
<path opacity="0.3" d="M302.324 174.897C302.284 174.897 302.244 174.884 302.211 174.851C301.255 173.941 300.246 173.058 299.217 172.241C299.144 172.181 299.13 172.082 299.19 172.009C299.25 171.936 299.356 171.929 299.422 171.982C300.465 172.805 301.481 173.695 302.444 174.612C302.51 174.671 302.51 174.778 302.444 174.844C302.41 174.877 302.364 174.897 302.324 174.897Z" fill="black"/>
<path opacity="0.3" d="M300.328 178.701C300.328 178.701 300.282 178.701 300.262 178.688C300.176 178.654 300.136 178.555 300.176 178.469C300.86 176.868 302.048 175.461 303.502 174.505C303.575 174.451 303.682 174.478 303.735 174.551C303.788 174.631 303.761 174.73 303.688 174.783C302.281 175.7 301.145 177.061 300.481 178.601C300.455 178.661 300.395 178.701 300.328 178.701Z" fill="black"/>
<path opacity="0.3" d="M307.432 180.353C307.392 180.353 307.352 180.34 307.325 180.313C306.768 179.835 306.376 179.152 306.256 178.428C306.13 177.704 306.27 176.927 306.635 176.29C306.681 176.21 306.781 176.183 306.861 176.23C306.94 176.276 306.967 176.376 306.92 176.456C306.595 177.027 306.469 177.724 306.582 178.375C306.695 179.025 307.047 179.643 307.545 180.068C307.618 180.128 307.624 180.234 307.565 180.3C307.531 180.34 307.485 180.36 307.438 180.36L307.432 180.353Z" fill="black"/>
<path d="M350.813 158.75C350.94 159.926 350.88 160.955 350.488 161.479C350.083 162.017 349.386 162.389 348.629 162.641C349.3 163.929 350.986 164.965 350.986 164.965H355.72C355.72 164.965 357.859 165.443 358.675 164.979C359.346 164.6 360.056 164.242 360.694 163.81C361.019 163.591 361.325 163.332 361.623 163.06C360.627 162.475 359.718 161.685 359.399 160.649C358.576 157.973 359.459 148.83 359.459 148.83L349.472 152.934C349.472 152.934 349.552 153.159 349.665 153.538C349.983 154.594 350.621 156.851 350.813 158.73V158.75Z" fill="#E4897B"/>
<path d="M344.819 133.83C345.091 133.485 344.334 125.656 357.807 129.554C367.807 132.442 364.029 140.284 364.029 140.284L352.588 132.024L344.812 133.83H344.819Z" fill="#263238"/>
<path opacity="0.2" d="M357.805 153.486C357.805 153.486 355.66 157.948 350.727 157.795C350.534 155.909 349.89 153.658 349.578 152.603C349.95 152.463 350.189 152.377 350.189 152.377L357.805 153.486Z" fill="black"/>
<path d="M345.084 132.23C345.084 132.23 342.175 140.457 346.046 144.574C349.918 148.691 352.932 132.921 352.932 132.921L345.077 132.23H345.084Z" fill="#263238"/>
<path d="M357.813 153.797C354.765 156.094 351.319 156.659 348.417 155.085C346.551 154.082 345.024 152.363 344.294 150.172C344.194 149.886 344.114 149.587 344.041 149.282C342.82 143.684 343.849 134.494 349.971 132.144C354.327 130.437 359.247 132.589 360.947 136.951C361.438 138.186 361.624 139.528 361.498 140.856C361.013 147.037 361.372 151.108 357.819 153.79L357.813 153.797Z" fill="#E4897B"/>
<path d="M353.118 142.469C353.151 143.113 352.752 143.637 352.321 143.631C351.889 143.624 351.564 143.086 351.57 142.436C351.577 141.785 351.942 141.267 352.367 141.274C352.786 141.28 353.124 141.811 353.118 142.469Z" fill="#263238"/>
<path d="M346.907 142.469C346.94 143.113 346.535 143.637 346.11 143.631C345.685 143.624 345.353 143.08 345.359 142.436C345.366 141.785 345.731 141.267 346.156 141.274C346.575 141.28 346.913 141.851 346.907 142.469Z" fill="#263238"/>
<path d="M348.161 142.576C347.53 144.11 346.687 145.544 345.664 146.846C346.355 147.364 347.238 147.543 348.081 147.344L348.161 142.576Z" fill="#DE5753"/>
<path d="M344.289 139.814C344.382 139.867 344.502 139.867 344.601 139.814C345.239 139.415 346.029 139.335 346.733 139.608C346.879 139.681 347.058 139.621 347.124 139.475C347.198 139.329 347.138 139.15 346.992 139.083C346.109 138.718 345.106 138.804 344.302 139.309C344.163 139.389 344.11 139.568 344.19 139.707C344.216 139.754 344.249 139.787 344.289 139.814Z" fill="#263238"/>
<path d="M353.232 140.144C353.292 140.144 353.352 140.124 353.398 140.091C353.511 139.971 353.498 139.785 353.378 139.673C352.681 139.015 351.705 138.75 350.769 138.942C350.609 138.982 350.516 139.148 350.563 139.301C350.609 139.453 350.769 139.546 350.928 139.507C351.672 139.374 352.435 139.593 352.986 140.111C353.059 140.157 353.152 140.164 353.239 140.137L353.232 140.144Z" fill="#263238"/>
<path d="M357.104 133.041L356.586 135.743C357.449 136.281 357.921 137.324 357.436 138.373C356.4 140.604 357.462 144.249 359.122 145.79C359.122 145.79 359.242 144.8 360.065 145.093C360.889 145.385 360.098 149.548 359.222 152.104C359.222 152.104 361.128 150.83 362.894 145.498C364.527 140.564 364.966 136.388 364.069 134.376L357.104 133.041Z" fill="#263238"/>
<path d="M364.1 145.995C363.382 147.383 362.147 148.432 360.66 148.91C358.688 149.527 357.632 147.774 358.124 145.875C358.575 144.189 360.136 141.785 362.147 142.011C364.159 142.243 364.956 144.275 364.1 145.988V145.995Z" fill="#E4897B"/>
<path d="M345.082 132.23C344.736 132.874 345.832 135.251 348.329 136.386C350.825 137.528 348.169 134.998 348.169 134.998C348.169 134.998 353.182 136.718 353.322 136.074C353.455 135.43 351.908 134.494 351.908 134.494C351.908 134.494 356.084 136.459 359.464 135.623C362.85 134.786 356.682 129.182 352.751 129.295C348.82 129.408 346.131 130.271 345.088 132.216L345.082 132.23Z" fill="#263238"/>
<path opacity="0.1" d="M359.618 146.353L359.293 146.294C359.492 145.205 360.189 144.229 361.159 143.684C361.723 143.365 362.268 143.352 362.606 143.651L362.387 143.903C362.115 143.664 361.657 143.79 361.318 143.976C360.435 144.474 359.798 145.364 359.618 146.36V146.353Z" fill="black"/>
<path d="M350.177 149.547C350.681 149.561 351.179 149.454 351.617 149.209C352.149 148.917 352.547 148.445 352.852 147.927C353.018 147.648 352.587 147.403 352.421 147.675C352.155 148.12 351.817 148.518 351.365 148.777C350.993 148.983 350.595 149.056 350.177 149.049C349.858 149.043 349.858 149.541 350.177 149.547Z" fill="#263238"/>
<path d="M375.164 296.876H377.774L372.947 240.496H370.344L375.164 296.876Z" fill="#035397"/>
<path opacity="0.6" d="M375.164 296.876H377.774L372.947 240.496H370.344L375.164 296.876Z" fill="white"/>
<path d="M348.473 296.876H345.863L350.691 240.496H353.3L348.473 296.876Z" fill="#035397"/>
<path opacity="0.6" d="M348.473 296.876H345.863L350.691 240.496H353.3L348.473 296.876Z" fill="white"/>
<path d="M364.056 240.501H310.684C312.928 234.943 317.012 231.537 321.427 231.537H360.47L364.063 240.501H364.056Z" fill="#263238"/>
<path d="M339.512 296.876H342.122L337.301 240.496H334.691L339.512 296.876Z" fill="#035397"/>
<path opacity="0.6" d="M339.512 296.876H342.122L337.301 240.496H334.691L339.512 296.876Z" fill="white"/>
<path d="M312.82 296.876H310.211L315.038 240.496H317.648L312.82 296.876Z" fill="#035397"/>
<path opacity="0.6" d="M312.82 296.876H310.211L315.038 240.496H317.648L312.82 296.876Z" fill="white"/>
<path d="M376.418 240.501H347.082C349.638 234.943 354.273 231.537 359.3 231.537H369.685C374.704 231.537 377.181 234.432 376.424 240.501H376.418Z" fill="#263238"/>
<path opacity="0.5" d="M376.418 240.501H347.082C349.638 234.943 354.273 231.537 359.3 231.537H369.685C374.704 231.537 377.181 234.432 376.424 240.501H376.418Z" fill="black"/>
<path d="M302.674 276.305L300.536 289.943L295.615 289.279L294.102 275.475L302.674 276.305Z" fill="#E4897B"/>
<path d="M293.034 286.139C292.955 285.302 293.014 284.605 293.997 284.552L295.385 284.479C295.909 284.479 296.281 284.797 296.706 285.069C299.887 287.095 301.188 284.479 302.423 284.479C304.01 284.479 302.988 289.127 303.061 289.366L304.794 294.757C304.946 295.209 304.641 296.178 304.117 296.311C304.024 296.331 303.924 296.344 303.831 296.344H285.478C282.556 296.344 282.523 293.064 283.725 292.832C289.13 291.809 291.261 290.189 293.048 289C293.048 289 293.16 287.42 293.048 286.139H293.034Z" fill="#263238"/>
<path opacity="0.4" d="M285.473 296.344H303.826C303.925 296.344 304.018 296.337 304.111 296.311C304.47 296.224 304.722 295.746 304.802 295.308V294.896H283.129C283.414 295.66 284.145 296.337 285.473 296.337V296.344Z" fill="white"/>
<path d="M290.165 290.998C290.391 291.184 290.597 291.397 290.783 291.623C290.802 291.649 290.829 291.676 290.849 291.702C290.836 291.682 290.842 291.696 290.849 291.702L290.882 291.749C290.929 291.808 290.968 291.868 291.008 291.928C291.088 292.047 291.161 292.174 291.234 292.3C291.294 292.413 291.466 292.459 291.573 292.386C291.692 292.313 291.725 292.167 291.659 292.047C291.367 291.51 290.975 291.032 290.51 290.64C290.411 290.553 290.251 290.534 290.158 290.64C290.072 290.733 290.052 290.905 290.158 290.992L290.165 290.998Z" fill="#035397"/>
<path d="M291.852 290.055C292.058 290.234 292.251 290.427 292.424 290.64C292.443 290.666 292.463 290.693 292.483 290.713L292.51 290.746C292.51 290.746 292.536 290.786 292.516 290.759C292.556 290.812 292.596 290.865 292.636 290.918C292.716 291.031 292.789 291.144 292.862 291.264C292.928 291.377 293.088 291.423 293.2 291.35C293.313 291.277 293.36 291.131 293.287 291.011C292.995 290.52 292.629 290.075 292.198 289.703C292.098 289.617 291.939 289.597 291.846 289.703C291.76 289.796 291.74 289.962 291.846 290.055H291.852Z" fill="#035397"/>
<path d="M293.101 289.279C293.201 289.326 293.294 289.385 293.387 289.445C293.407 289.458 293.433 289.478 293.453 289.492C293.48 289.512 293.407 289.458 293.447 289.485L293.48 289.512C293.52 289.545 293.56 289.585 293.599 289.618C293.639 289.651 293.672 289.691 293.712 289.731C293.726 289.751 293.746 289.771 293.759 289.784C293.765 289.797 293.779 289.81 293.785 289.817L293.765 289.79L293.785 289.81C293.845 289.897 293.905 289.983 293.951 290.076C294.011 290.189 294.184 290.235 294.29 290.162C294.41 290.089 294.443 289.943 294.376 289.824C294.157 289.399 293.785 289.047 293.354 288.828C293.234 288.768 293.082 288.794 293.015 288.914C292.955 289.027 292.982 289.193 293.101 289.253V289.279Z" fill="#035397"/>
<path d="M293.229 287.599C293.355 287.599 293.481 287.605 293.601 287.619C293.627 287.619 293.654 287.619 293.68 287.625C293.734 287.625 293.667 287.625 293.72 287.625C293.78 287.632 293.846 287.645 293.906 287.658C294.139 287.705 294.371 287.771 294.597 287.858C294.716 287.904 294.876 287.804 294.902 287.685C294.935 287.545 294.856 287.426 294.73 287.379C294.251 287.2 293.74 287.107 293.229 287.101C293.096 287.101 292.977 287.213 292.977 287.353C292.977 287.492 293.083 287.599 293.229 287.605V287.599Z" fill="#035397"/>
<g opacity="0.3">
<path d="M298.396 287.765C298.423 288.249 298.609 288.774 299.073 289C299.359 289.139 299.704 289.133 300.029 289.126C301.006 289.099 301.975 289.073 302.951 289.046L302.964 289.02C303.117 287.751 303.529 284.657 302.32 284.657C301.371 284.657 300.375 286.437 298.383 285.912C298.396 286.583 298.369 287.439 298.383 287.765H298.396Z" fill="black"/>
</g>
<path d="M334.547 211.576C334.547 211.576 313.186 214.524 300.909 219.83C296.646 221.669 294.129 225.447 293.571 229.537C290.849 251.695 293.054 278.62 293.054 278.62L303.312 280.015C303.312 280.015 308.777 254.783 308.651 236.961C319.853 233.8 348.942 235.859 352.369 226.576C354.042 221.769 354.487 216.616 353.657 211.589L334.54 211.576H334.547Z" fill="#035397"/>
<path opacity="0.3" d="M330.356 215.998C330.356 215.998 314.566 230.739 315.284 235.772C313.046 236.004 310.835 236.403 308.657 236.967C308.657 238.7 308.737 240.812 308.544 242.531C301.884 232.598 302.515 223.056 330.363 216.005L330.356 215.998Z" fill="black"/>
<path d="M334.55 274.531L336.894 288.137L332.021 289.086L326.164 276.497L334.55 274.531Z" fill="#E4897B"/>
<path d="M328.701 286.523C328.429 285.726 328.322 285.036 329.265 284.757L330.593 284.358C331.105 284.232 331.543 284.458 332.014 284.617C335.58 285.839 336.231 282.991 337.433 282.698C338.973 282.327 339.073 287.081 339.205 287.3L342.154 292.134C342.406 292.539 342.34 293.555 341.855 293.801C341.768 293.847 341.675 293.88 341.583 293.9C338.847 294.564 337.552 294.876 334.152 295.7L323.747 298.216C320.912 298.9 320.109 295.726 321.218 295.215C326.231 292.951 327.924 290.872 329.378 289.299C329.378 289.299 329.119 287.738 328.701 286.516V286.523Z" fill="#263238"/>
<path opacity="0.4" d="M323.748 298.229L334.153 295.712C337.552 294.889 338.847 294.577 341.583 293.913C341.676 293.893 341.769 293.86 341.855 293.813C342.18 293.647 342.313 293.123 342.287 292.678L342.18 292.279L321.125 297.379C321.583 298.049 322.453 298.541 323.741 298.229H323.748Z" fill="white"/>
<path d="M327.061 291.922C327.32 292.054 327.572 292.207 327.805 292.38C327.805 292.38 327.845 292.413 327.825 292.4C327.805 292.386 327.858 292.426 327.858 292.426C327.885 292.446 327.911 292.473 327.938 292.493C327.991 292.539 328.044 292.586 328.097 292.632C328.203 292.732 328.303 292.831 328.402 292.944C328.489 293.044 328.668 293.037 328.754 292.944C328.847 292.838 328.847 292.698 328.754 292.592C328.349 292.141 327.851 291.769 327.307 291.497C327.187 291.437 327.035 291.463 326.968 291.583C326.909 291.696 326.935 291.862 327.055 291.922H327.061Z" fill="#035397"/>
<path d="M328.483 290.614C328.722 290.74 328.955 290.886 329.174 291.045L329.213 291.072C329.213 291.072 329.253 291.105 329.233 291.085C329.213 291.065 329.26 291.105 329.26 291.105L329.293 291.131C329.346 291.171 329.399 291.218 329.453 291.264C329.552 291.351 329.652 291.45 329.745 291.543C329.838 291.636 330.004 291.643 330.097 291.543C330.19 291.444 330.196 291.291 330.097 291.191C329.698 290.786 329.233 290.441 328.729 290.175C328.616 290.116 328.45 290.142 328.39 290.262C328.33 290.374 328.357 290.54 328.476 290.6L328.483 290.614Z" fill="#035397"/>
<path d="M329.51 289.565C329.617 289.591 329.723 289.618 329.823 289.665C329.829 289.665 329.849 289.678 329.856 289.678C329.816 289.658 329.836 289.678 329.856 289.678C329.882 289.691 329.902 289.698 329.929 289.711C329.975 289.738 330.022 289.757 330.068 289.791C330.115 289.817 330.155 289.844 330.194 289.87C330.214 289.884 330.241 289.904 330.261 289.917C330.234 289.897 330.307 289.95 330.261 289.917L330.287 289.937C330.374 290.003 330.447 290.083 330.52 290.163C330.606 290.262 330.785 290.255 330.872 290.163C330.971 290.056 330.965 289.917 330.872 289.811C330.553 289.445 330.108 289.2 329.643 289.087C329.517 289.06 329.364 289.127 329.338 289.259C329.311 289.386 329.378 289.532 329.51 289.565Z" fill="#035397"/>
<path d="M329.245 287.898C329.491 287.845 329.67 287.818 329.922 287.805C330.175 287.792 330.4 287.805 330.639 287.832C330.772 287.845 330.892 287.705 330.892 287.579C330.885 287.433 330.779 287.347 330.639 287.327C330.128 287.261 329.617 287.294 329.112 287.407C328.986 287.433 328.9 287.586 328.939 287.712C328.979 287.845 329.112 287.918 329.245 287.885V287.898Z" fill="#035397"/>
<g opacity="0.3">
<path d="M334.3 286.842C334.44 287.307 334.745 287.772 335.25 287.885C335.562 287.951 335.894 287.865 336.206 287.779C337.149 287.526 338.085 287.267 339.028 287.015V286.989C338.882 285.72 338.557 282.613 337.381 282.898C336.458 283.124 335.907 285.083 333.855 285.05C334.028 285.7 334.201 286.537 334.294 286.849L334.3 286.842Z" fill="black"/>
</g>
<path d="M348.382 211.623C348.382 211.623 308.323 218.549 309.777 230.521C311.869 247.791 326.603 283.076 326.603 283.076L338.694 278.747C338.694 278.747 330.945 247.353 328.289 234.75C338.581 234.75 359.836 235.859 363.262 226.583C364.929 221.855 365.267 216.762 364.238 211.862L348.389 211.623H348.382Z" fill="#035397"/>
<path d="M341.924 161.3C345.476 163.896 345.921 171.187 334.932 186.877L326.207 177.654C328.465 173.663 330.43 171.711 333.783 166.957C338.352 160.297 341.917 161.293 341.917 161.293L341.924 161.3Z" fill="#263238"/>
<path opacity="0.3" d="M333.559 212.076C333.559 212.076 340.451 220.901 351.48 222.288C362.509 223.676 364.607 220.954 364.607 220.954C364.607 220.954 364.66 216.658 364.826 216.877C364.999 217.096 334.694 210.814 334.694 210.814L333.559 212.083V212.076Z" fill="black"/>
<path d="M341.816 161.161C344.644 160.955 355.966 159.693 367.493 162.031L366.377 202.86C366.377 202.86 366.948 217.88 366.377 219.241C354.272 224.188 339.16 216.983 331.504 212.043C331.584 212.242 333.615 206.837 333.615 206.837C335.03 193.823 337.281 173.531 339.419 161.818C339.479 161.526 341.537 161.187 341.822 161.168L341.816 161.161Z" fill="#263238"/>
<path opacity="0.2" d="M366.225 186.829L365.588 186.916L363.297 175.688L364.359 188.29L366.371 188.616L366.225 186.829Z" fill="black"/>
<path opacity="0.2" d="M336.129 185.143L337.942 171.1L333.832 185.714L334.934 186.883L336.129 185.143Z" fill="black"/>
<path d="M334.215 180.435C334.202 183.237 336.154 185.442 338.65 185.449L338.677 185.874C338.657 186.405 339.062 186.85 339.593 186.889L348.225 186.923C348.77 186.923 349.215 186.478 349.215 185.933L349.261 174.738C349.215 174.353 348.876 174.074 348.491 174.101L339.487 174.074C339.102 174.034 338.757 174.3 338.69 174.679V175.462C336.194 175.449 334.235 177.64 334.222 180.442L334.215 180.435ZM335.815 180.435C335.828 178.563 337.13 176.929 338.677 176.929L338.65 183.961C337.097 183.955 335.809 182.308 335.822 180.429L335.815 180.435Z" fill="#035397"/>
<path d="M365.975 183.052L366.367 190.589L352.064 182.408L348.113 187.103C348.113 187.103 365.762 203.085 371.32 203.264C379.434 203.523 375.364 181.479 375.364 181.479L365.975 183.052Z" fill="#E4897B"/>
<path d="M367.489 162.029C367.489 162.029 372.031 162.866 373.12 168.556C374.129 173.795 376.951 185.442 376.951 185.442L365.584 186.916L363.293 173.291L367.483 162.029H367.489Z" fill="#263238"/>
<path d="M348.953 178.238C348.953 178.238 343.064 175.582 342.758 175.98C342.453 176.378 341.862 177.833 342.273 178.848C342.273 178.848 341.404 180.064 342.26 181.139L342.891 181.744C342.891 181.744 341.384 182.222 342.532 183.981C343.681 185.747 346.669 187.016 348.356 187.447C350.042 187.879 352.791 186.471 352.738 186.172C352.685 185.874 351.788 179.346 351.33 177.706C350.872 176.066 349.445 175.07 349.259 175.07L348.96 178.224L348.953 178.238Z" fill="#E4897B"/>
<path d="M282.695 296.397H249.27V213.529H250.598V295.082H281.367V213.529H282.695V296.397Z" fill="#263238"/>
<path d="M406.248 209.578H237.16V213.529H406.248V209.578Z" fill="#035397"/>
<path opacity="0.2" d="M406.248 209.578H237.16V213.529H406.248V209.578Z" fill="black"/>
<path opacity="0.2" d="M406.25 209.578H355.812V213.529H406.25V209.578Z" fill="black"/>
<path d="M403.801 297.26H370.375V213.529H371.703V295.932H402.473V213.529H403.801V297.26Z" fill="#263238"/>
<path d="M280.245 209.754H303.372C303.771 209.754 304.09 209.488 304.09 209.17C304.09 209.11 304.076 209.05 304.056 208.99L293.771 185.405C293.512 184.734 292.735 184.27 291.859 184.27H268.718C268.327 184.27 268.008 184.522 268.008 184.841C268.008 184.907 268.021 184.973 268.048 185.033L278.333 208.618C278.599 209.289 279.369 209.747 280.245 209.754Z" fill="#263238"/>
<path opacity="0.7" d="M268.71 184.27H291.851C292.727 184.27 293.504 184.734 293.763 185.405L304.049 208.99C304.075 209.05 304.082 209.11 304.082 209.17C304.082 209.488 303.763 209.754 303.365 209.754H280.238C279.361 209.747 278.591 209.289 278.325 208.618L268.04 185.033C268.013 184.973 268 184.907 268 184.841C268 184.529 268.319 184.27 268.71 184.27Z" fill="white"/>
<path d="M283.046 197.536C283.544 198.665 284.56 199.449 285.317 199.289C286.074 199.13 286.273 198.101 285.788 196.965C285.304 195.83 284.281 195.073 283.524 195.232C282.767 195.391 282.541 196.381 283.053 197.543L283.046 197.536Z" fill="white"/>
<path opacity="0.3" d="M291.714 184.27H291.853C292.73 184.27 293.506 184.734 293.765 185.405L304.051 208.99C304.077 209.05 304.084 209.11 304.084 209.17C304.084 209.488 303.765 209.754 303.367 209.754H302.623L291.707 184.27H291.714Z" fill="black"/>
<path d="M326.018 209.757H301.941V208.137H324.391C325.288 208.137 326.011 208.86 326.011 209.757H326.018Z" fill="#263238"/>
<path opacity="0.7" d="M326.018 209.757H301.941V208.137H324.391C325.288 208.137 326.011 208.86 326.011 209.757H326.018Z" fill="white"/>
<path d="M92.1321 138.026C92.1321 138.026 101.083 159.234 102.232 159.341C103.374 159.447 118.015 153.743 118.015 153.743L120.292 156.313C120.292 156.313 112.63 166.565 100.492 169.818C98.3139 170.403 95.5583 167.933 92.9355 164.56C92.4242 163.902 91.9196 163.212 91.4149 162.495C88.7125 158.491 86.2955 154.307 84.1641 149.972L92.1321 138.02V138.026Z" fill="#035397"/>
<path opacity="0.6" d="M92.1321 138.026C92.1321 138.026 101.083 159.234 102.232 159.341C103.374 159.447 118.015 153.743 118.015 153.743L120.292 156.313C120.292 156.313 112.63 166.565 100.492 169.818C98.3139 170.403 95.5583 167.933 92.9355 164.56C92.4242 163.902 91.9196 163.212 91.4149 162.495C88.7125 158.491 86.2955 154.307 84.1641 149.972L92.1321 138.02V138.026Z" fill="white"/>
<path opacity="0.2" d="M93.8719 143.564C94.4363 146.068 95.7643 149.819 96.8068 152.482C97.1454 153.345 97.2915 154.275 97.1388 155.191C96.6873 157.821 94.4164 158.664 93.6594 160.755C93.2345 161.984 92.9888 163.265 92.9357 164.56C92.4244 163.903 91.9198 163.212 91.4151 162.495L90.293 158.073L93.8719 143.564Z" fill="black"/>
<path d="M68.6999 292.879L74.158 292.633L76.1832 278.424L67.8633 278.709L68.6999 292.879Z" fill="#B97964"/>
<path d="M74.8215 290.144H72.876C72.4377 290.144 72.0327 290.363 71.7671 290.721C70.6449 292.248 69.8016 291.671 68.5865 290.237C67.8096 290.144 67.6038 291.033 67.5374 291.272L66.0832 296.558C65.9571 296.996 66.2094 297.461 66.6543 297.587C66.734 297.607 66.8136 297.62 66.8933 297.62H82.2848C84.735 297.62 85.2396 295.15 84.2304 294.924C79.6952 293.922 76.4815 292.587 75.0804 291.266C74.8215 291.033 75.0871 290.861 74.8082 290.144H74.8215Z" fill="#263238"/>
<path d="M78.6238 291.91C78.8297 291.764 78.9492 291.525 78.9558 291.273C78.9757 291.14 78.9093 291.007 78.7965 290.927C78.1856 290.496 75.7553 291.631 75.4831 291.764C75.4499 291.777 75.43 291.797 75.4167 291.83C75.3968 291.884 75.4233 291.95 75.4831 291.97C76.0807 292.109 76.6916 292.189 77.3025 292.202C77.7606 292.249 78.2254 292.143 78.6238 291.903V291.91ZM78.6437 291.12C78.6902 291.153 78.7168 291.206 78.7101 291.266C78.6969 291.445 78.6105 291.618 78.4711 291.731C77.92 292.143 76.5853 291.963 75.8682 291.83C76.8775 291.386 78.3117 290.888 78.6437 291.12Z" fill="#035397"/>
<path d="M75.5734 291.996C76.3038 291.691 77.831 290.496 77.7514 289.858C77.7381 289.726 77.6451 289.566 77.3131 289.52C75.9785 289.367 75.4074 291.757 75.4074 291.857C75.3942 291.897 75.4074 291.943 75.4406 291.97C75.4672 291.977 75.4938 291.977 75.5137 291.97L75.5734 291.99V291.996ZM77.2666 289.719C77.5123 289.745 77.5123 289.832 77.5123 289.865C77.5787 290.25 76.4698 291.246 75.6797 291.664C75.8457 291.107 76.3304 289.712 77.1737 289.712H77.26L77.2666 289.719Z" fill="#035397"/>
<path d="M74.1094 293.132C74.1094 293.132 74.0497 293.125 74.0231 293.105C73.9434 293.059 73.9235 292.952 73.97 292.879C74.3551 292.262 75.0191 291.837 75.7362 291.744C75.8292 291.731 75.9089 291.797 75.9222 291.883C75.9354 291.976 75.869 292.056 75.7827 292.069C75.1586 292.156 74.5875 292.521 74.2489 293.052C74.2157 293.105 74.1626 293.132 74.1094 293.132Z" fill="#035397"/>
<path d="M75.3204 294.041C75.3204 294.041 75.2606 294.035 75.2341 294.015C75.1544 293.968 75.1345 293.862 75.1809 293.789C75.5661 293.172 76.2301 292.747 76.9472 292.647C77.0335 292.64 77.1198 292.7 77.1331 292.786C77.1464 292.873 77.08 292.959 76.9937 292.972C76.3695 293.059 75.7985 293.424 75.4598 293.962C75.4266 294.015 75.3735 294.041 75.3204 294.041Z" fill="#035397"/>
<path d="M76.8165 294.806C76.8165 294.806 76.7567 294.799 76.7302 294.779C76.6505 294.733 76.6306 294.627 76.677 294.554C77.0622 293.936 77.7262 293.511 78.4433 293.412C78.5296 293.405 78.6159 293.465 78.6292 293.551C78.6425 293.644 78.5761 293.724 78.4898 293.737C77.8656 293.823 77.2946 294.189 76.9559 294.726C76.9227 294.779 76.8696 294.806 76.8165 294.806Z" fill="#035397"/>
<path opacity="0.3" d="M75.0802 286.173L74.8213 287.999L68.4004 287.886L68.3008 286.173H75.0802Z" fill="black"/>
<path d="M91.4511 291.471L97.3806 290.72L98.6887 277.327L90.5547 277.102L91.4511 291.471Z" fill="#B97964"/>
<path d="M97.6887 289.605H95.7431C95.3049 289.605 94.8999 289.825 94.6343 290.183C93.5121 291.71 92.6688 291.133 91.4537 289.698C90.6768 289.605 90.471 290.495 90.4046 290.734L88.9504 296.02C88.8243 296.458 89.0766 296.923 89.5215 297.049C89.6011 297.069 89.6808 297.082 89.7605 297.082H105.152C107.602 297.082 108.107 294.612 107.098 294.386C102.562 293.384 99.3487 292.049 97.9476 290.728C97.6887 290.495 97.9543 290.323 97.6754 289.605H97.6887Z" fill="#263238"/>
<path d="M101.897 291.105C102.103 290.959 102.223 290.72 102.229 290.468C102.249 290.335 102.183 290.202 102.07 290.123C101.459 289.691 99.0288 290.827 98.7565 290.959C98.7233 290.973 98.7034 290.993 98.6901 291.026C98.6702 291.079 98.6968 291.145 98.7565 291.165C99.3541 291.305 99.965 291.384 100.576 291.398C101.034 291.444 101.499 291.338 101.897 291.099V291.105ZM101.917 290.315C101.964 290.349 101.99 290.402 101.984 290.461C101.97 290.641 101.884 290.813 101.745 290.926C101.193 291.338 99.8588 291.159 99.1417 291.026C100.151 290.581 101.585 290.083 101.917 290.315Z" fill="#035397"/>
<path d="M98.8469 291.192C99.5773 290.886 101.104 289.691 101.025 289.054C101.012 288.921 100.919 288.762 100.587 288.715C99.2519 288.562 98.6809 290.953 98.6809 291.052C98.6676 291.092 98.6809 291.139 98.7141 291.165C98.7406 291.172 98.7672 291.172 98.7871 291.165L98.8469 291.185V291.192ZM100.54 288.914C100.786 288.941 100.786 289.027 100.786 289.06C100.859 289.445 99.7433 290.441 98.9531 290.86C99.1191 290.302 99.6038 288.908 100.447 288.908H100.533L100.54 288.914Z" fill="#035397"/>
<path d="M97.3829 292.327C97.3829 292.327 97.3231 292.32 97.2966 292.3C97.2169 292.254 97.197 292.147 97.2434 292.074C97.6286 291.457 98.2926 291.032 99.0097 290.932C99.096 290.919 99.1823 290.985 99.1956 291.072C99.2089 291.165 99.1425 291.244 99.0562 291.258C98.432 291.344 97.861 291.709 97.5223 292.247C97.4891 292.3 97.436 292.327 97.3829 292.327Z" fill="#035397"/>
<path d="M98.5899 293.237C98.5899 293.237 98.5302 293.23 98.5036 293.21C98.4239 293.164 98.404 293.057 98.4505 292.984C98.8356 292.367 99.4996 291.942 100.217 291.842C100.303 291.836 100.389 291.895 100.403 291.982C100.416 292.068 100.35 292.154 100.263 292.168C99.639 292.254 99.068 292.619 98.7294 293.157C98.6962 293.21 98.643 293.237 98.5899 293.237Z" fill="#035397"/>
<path d="M100.094 294.001C100.094 294.001 100.034 293.995 100.008 293.975C99.9278 293.928 99.9079 293.822 99.9544 293.749C100.34 293.132 101.004 292.707 101.721 292.607C101.807 292.6 101.893 292.66 101.907 292.746C101.92 292.839 101.853 292.919 101.767 292.932C101.143 293.019 100.572 293.384 100.233 293.922C100.2 293.975 100.147 294.001 100.094 294.001Z" fill="#035397"/>
<path opacity="0.3" d="M97.9068 285.368L97.7275 287.201L91.1871 287.161L91.0742 285.368H97.9068Z" fill="black"/>
<path d="M63.0169 156.878C66.4697 151.493 61.6689 146.155 61.7752 139.873C61.8814 133.592 64.5773 127.37 64.9159 121.095C65.0753 118.081 65.4936 115.02 66.7751 112.251C68.0566 109.475 70.4205 106.534 73.3885 105.398L88.375 111.806C90.7189 122.729 90.6061 129.747 90.3073 136.52C90.0018 143.319 89.5038 149.867 87.9434 157.629C87.7442 158.605 87.5185 159.621 86.8744 160.411C86.0045 161.48 84.5437 161.925 83.1825 162.317C79.7032 163.306 76.2039 164.309 72.5917 164.674C68.9796 165.039 68.3222 164.654 65.0686 163.153C63.9664 162.649 62.2931 161.606 62.1404 160.457C62.0142 159.481 62.479 157.735 63.0169 156.898V156.878Z" fill="#263238"/>
<path d="M78.8871 179.255L94.1193 179.314C94.1193 179.314 99.4379 206.1 99.1259 236.133C99.75 253.762 99.252 286.185 99.252 286.185H89.3451C89.3451 286.185 83.0371 259.851 85.5603 238.988C84.644 235.389 83.4156 229.161 82.6919 225.98C80.6733 217.408 79.1461 208.73 78.1368 199.985C76.3971 183.591 78.8871 179.248 78.8871 179.248V179.255Z" fill="#263238"/>
<path opacity="0.2" d="M80.235 189.773C80.235 189.773 85.7262 214.434 82.6918 225.988C80.6732 217.416 79.146 208.737 78.1367 199.992L80.235 189.773Z" fill="black"/>
<path d="M66.0829 172.244C64.7549 178.194 59.5425 185.464 58.4934 193.074C56.694 206.075 64.5093 222.243 66.5544 237.502C63.4668 260.065 68.2011 287.422 67.5703 286.831H77.5104C77.8092 284.825 79.8543 254.255 80.8636 236.141C81.7201 220.291 83.0946 180.425 83.0946 180.425L66.0829 172.244Z" fill="#263238"/>
<path d="M92.9556 159.103C92.192 164.356 93.3275 175.584 95.532 183.326C96.3155 186.082 74.0383 185.71 61.5352 181.58L65.7117 168.645C65.6984 167.576 63.6334 159.92 63.5803 158.798C63.328 153.34 62.7171 147.902 61.7609 142.523C61.7211 142.291 61.6879 142.052 61.6746 141.82C61.4688 138.898 61.3957 136.634 63.9388 135.538C64.6161 135.246 67.1327 134.701 67.9096 134.648C68.9786 134.569 70.2269 134.409 71.3823 134.376C72.5376 134.343 72.5708 134.19 73.6399 134.19C76.5615 134.137 80.426 134.549 83.3276 134.881L83.9717 134.967C85.0607 135.107 86.1629 135.286 87.232 135.472C87.232 135.472 89.9344 135.857 91.4816 137.152C93.022 138.446 96.5479 151.813 95.9304 155.299C95.3925 158.327 92.9623 159.117 92.9623 159.117L92.9556 159.103Z" fill="#035397"/>
<path opacity="0.6" d="M92.9556 159.103C92.192 164.356 93.3275 175.584 95.532 183.326C96.3155 186.082 74.0383 185.71 61.5352 181.58L65.7117 168.645C65.6984 167.576 63.6334 159.92 63.5803 158.798C63.328 153.34 62.7171 147.902 61.7609 142.523C61.7211 142.291 61.6879 142.052 61.6746 141.82C61.4688 138.898 61.3957 136.634 63.9388 135.538C64.6161 135.246 67.1327 134.701 67.9096 134.648C68.9786 134.569 70.2269 134.409 71.3823 134.376C72.5376 134.343 72.5708 134.19 73.6399 134.19C76.5615 134.137 80.426 134.549 83.3276 134.881L83.9717 134.967C85.0607 135.107 86.1629 135.286 87.232 135.472C87.232 135.472 89.9344 135.857 91.4816 137.152C93.022 138.446 96.5479 151.813 95.9304 155.299C95.3925 158.327 92.9623 159.117 92.9623 159.117L92.9556 159.103Z" fill="white"/>
<path opacity="0.2" d="M64.3233 172.935L62.9688 177.138C62.9688 177.138 78.1279 174.475 85.7307 167.676C91.1423 162.835 90.2924 160.797 90.2924 160.797L84.1636 161.388L64.3233 172.928V172.935Z" fill="black"/>
<path opacity="0.2" d="M67.8851 149.583L68.1773 164.138C65.8865 165.592 65.1694 166.488 64.8175 164.397L63.5625 158.48L67.8785 149.576L67.8851 149.583Z" fill="black"/>
<path d="M67.8817 149.581C67.8817 149.581 62.1381 163.797 63.174 164.455C64.2098 165.112 80.7368 160.59 80.7368 160.59L83.924 164.807C83.3662 167.264 54.2631 182.263 51.9391 169.315C50.5248 161.454 59.3228 140.325 59.3228 140.325C61.5405 136.381 64.6148 134.495 65.83 135.617C69.0039 138.552 67.8817 149.575 67.8817 149.575V149.581Z" fill="#035397"/>
<path opacity="0.6" d="M67.8817 149.581C67.8817 149.581 62.1381 163.797 63.174 164.455C64.2098 165.112 80.7368 160.59 80.7368 160.59L83.924 164.807C83.3662 167.264 54.2631 182.263 51.9391 169.315C50.5248 161.454 59.3228 140.325 59.3228 140.325C61.5405 136.381 64.6148 134.495 65.83 135.617C69.0039 138.552 67.8817 149.575 67.8817 149.575V149.581Z" fill="white"/>
<path d="M83.9215 164.807C85.8737 164.96 85.9467 162.018 86.9626 161.906C87.5536 161.846 88.1313 161.7 88.6824 161.467C88.6824 161.467 88.0383 163.233 88.6824 163.094C89.3265 162.955 91.3915 162.848 91.8961 161.162C92.4074 159.475 90.5681 155.876 90.1498 155.372C89.7315 154.867 87.5337 155.026 87.5337 155.026C87.5337 155.026 89.8975 154.416 91.1989 154.236C92.5004 154.057 92.7461 152.57 90.9333 152.902C90.1897 153.034 84.3133 153.081 83.6758 153.685C83.0384 154.289 80.6812 160.232 80.6812 160.232C79.8047 160.737 82.0291 165.717 83.9348 164.807H83.9215Z" fill="#B97964"/>
<g opacity="0.3">
<path d="M87.5052 154.841C86.9009 154.801 86.2967 154.841 85.7057 154.954C85.6194 154.981 85.5663 155.067 85.5862 155.16C85.6061 155.24 85.6792 155.293 85.7588 155.279C86.3166 155.167 86.8943 155.127 87.4653 155.167C87.6778 155.167 87.7177 154.854 87.5052 154.841Z" fill="black"/>
<path d="M90.5312 156.621C90.7171 156.721 90.9096 156.449 90.7237 156.349C89.6215 155.765 88.4661 156.09 87.3506 156.462C87.1514 156.528 87.2909 156.827 87.4901 156.767C88.4661 156.442 89.5485 156.123 90.5245 156.621H90.5312Z" fill="black"/>
<path d="M91.3951 158.074C90.4456 157.51 89.2769 157.457 88.2809 157.941C88.2013 157.988 88.1813 158.094 88.2278 158.174C88.2677 158.234 88.3407 158.267 88.4137 158.247C89.3035 157.815 90.3526 157.855 91.2025 158.346C91.3818 158.453 91.5744 158.187 91.3885 158.074H91.3951Z" fill="black"/>
<path d="M89.8172 160.546C89.9035 160.373 89.9699 160.194 90.0164 160.001C90.0629 159.795 89.7508 159.682 89.7043 159.888C89.5649 160.519 89.1731 161.07 88.6154 161.402C88.4295 161.508 88.5689 161.807 88.7482 161.708H88.7283C89.0802 161.508 89.3657 161.236 89.5915 160.918C89.6114 160.918 89.6313 160.931 89.6579 160.918C90.0031 160.798 90.3883 160.898 90.6273 161.176C90.7667 161.336 91.0191 161.123 90.8796 160.964C90.6074 160.652 90.209 160.512 89.8106 160.559L89.8172 160.546Z" fill="black"/>
</g>
<path d="M100.308 165.092C99.6378 164.833 99.2793 163.976 99.505 163.173L105.494 139.05C105.84 137.914 106.749 137.144 107.765 137.131L123.455 137.456C123.628 137.436 123.801 137.456 123.96 137.523C124.631 137.782 124.989 138.638 124.764 139.442L118.768 163.565C118.422 164.7 117.513 165.47 116.497 165.484L100.806 165.158C100.64 165.172 100.468 165.152 100.308 165.092Z" fill="#263238"/>
<path d="M120.875 150.159C120.563 150.132 119.255 150.783 118.637 150.351C118.02 149.919 118.598 149.568 118.598 149.568C119.726 149.289 120.968 147.874 121.659 148.279C122.349 148.684 123.485 149.196 123.319 149.833C123.133 150.431 122.9 151.008 122.635 151.573C122.814 151.858 122.841 152.217 122.701 152.522C122.562 152.881 122.25 153.14 121.871 153.213C122.084 153.432 122.197 153.731 122.177 154.036C122.123 154.528 120.842 155.165 120.842 155.165C120.842 155.165 121.094 155.929 120.795 156.227C120.291 156.639 119.627 156.792 118.996 156.639C118.246 156.46 117.728 156.201 117.781 155.444C117.834 154.687 119.189 154.687 119.189 154.687C119.189 154.687 116.639 153.917 117.183 153.432C117.721 152.947 119.753 153.007 119.753 153.007C119.753 153.007 116.307 152.323 116.851 151.619C117.396 150.909 120.835 151.108 120.835 151.108C120.835 151.108 121.181 150.185 120.875 150.159Z" fill="#B97964"/>
<path d="M120.319 136.536L111.673 136.383L110.93 138.295L119.721 138.468L120.319 136.536Z" fill="#263238"/>
<path d="M114.66 136.673V135.133H118.797L117.854 136.912L114.66 136.673Z" fill="#263238"/>
<path d="M81.1324 108.946C81.1324 108.946 85.9331 117.598 86.1589 120.293C87.9982 121.861 89.3062 118.687 89.2332 114.43C89.1801 110.951 87.3607 107.193 84.3528 105.838C80.1298 103.939 81.1258 108.946 81.1258 108.946H81.1324Z" fill="#263238"/>
<path d="M80.2288 133.959C79.4254 133.156 79.6179 132.186 79.7706 131.017C79.8769 130.121 80.169 129.185 80.5143 128.275L79.3125 126.974L73.0709 121.117C73.3697 125.168 73.8677 132.133 70.7734 134.45L83.821 142.744L82.6126 134.802C82.6126 134.802 81.4107 134.623 80.2288 133.959Z" fill="#B97964"/>
<path opacity="0.2" d="M79.7311 131.368C78.0379 130.445 76.1588 128.805 76.3049 126.846C76.3713 126.023 76.524 125.239 76.6966 124.734L80.2225 129.064C79.9702 129.794 79.8905 130.272 79.7245 131.361L79.7311 131.368Z" fill="black"/>
<path d="M71.1282 114.655C71.9184 120.824 72.1242 123.44 75.4376 126.574C80.4176 131.282 87.7482 129.369 88.7973 123.194C89.7402 117.63 88.2926 108.48 82.1174 106.103C76.0418 103.759 70.3381 108.493 71.1282 114.662V114.655Z" fill="#B97964"/>
<path d="M79.5118 116.834C79.5118 117.412 79.8505 117.91 80.2555 117.936C80.6605 117.963 80.9859 117.518 80.9793 116.933C80.9793 116.356 80.6406 115.858 80.2356 115.831C79.8305 115.805 79.5052 116.25 79.5118 116.834Z" fill="#263238"/>
<path d="M85.4 116.383C85.3735 116.947 85.6789 117.445 86.0773 117.491C86.4824 117.545 86.8276 117.126 86.8542 116.569C86.8808 116.004 86.5753 115.506 86.1769 115.46C85.7719 115.407 85.4266 115.825 85.4 116.383Z" fill="#263238"/>
<path d="M77.865 114.834C77.9447 114.834 78.0244 114.814 78.0841 114.755C78.9938 113.832 80.0828 114.091 80.0961 114.091C80.2554 114.131 80.4148 114.031 80.4413 113.872C80.4679 113.706 80.3617 113.54 80.1957 113.5C80.1359 113.486 78.7747 113.161 77.6393 114.31C77.5264 114.423 77.533 114.615 77.6525 114.741C77.7123 114.801 77.7853 114.834 77.8584 114.841L77.865 114.834Z" fill="#263238"/>
<path d="M87.4583 113.574C87.5314 113.547 87.5911 113.501 87.6243 113.434C87.6974 113.288 87.6243 113.109 87.4716 113.036C85.9112 112.286 84.6961 112.936 84.643 112.963C84.4969 113.043 84.457 113.222 84.55 113.361C84.643 113.501 84.8355 113.554 84.975 113.474C85.0215 113.448 85.971 112.956 87.2127 113.554C87.2923 113.594 87.3786 113.594 87.4583 113.574Z" fill="#263238"/>
<path d="M69.4324 119.768C70.2093 121.01 71.4244 121.767 72.5267 121.999C74.18 122.351 74.9304 119.689 74.3128 118.068C73.7551 116.608 72.1084 115.691 70.528 116.07C68.9676 116.442 68.5493 118.354 69.4324 119.768Z" fill="#B97964"/>
<path d="M83.6406 115.898C83.6406 115.898 84.6897 118.183 85.8385 119.584C86.0377 119.829 85.9314 120.201 85.6393 120.321C84.8823 120.633 83.9793 120.407 83.9793 120.407L83.6406 115.898Z" fill="#C15854"/>
<path d="M80.1172 115.811L81.5514 115.545C81.5514 115.545 80.7281 116.567 80.1172 115.811Z" fill="#263238"/>
<path d="M85.9727 115.457L87.4202 115.271C86.7163 116.042 86.1519 115.71 85.9727 115.457Z" fill="#263238"/>
<path d="M69.4537 111.277C68.6171 112.492 70.2837 116.012 70.2837 116.012C70.2837 116.012 73.2518 115.128 73.4111 119.597C74.5067 119.776 75.7351 115.607 75.5559 111.41C75.3367 109.04 70.9344 109.133 69.4471 111.277H69.4537Z" fill="#263238"/>
<path opacity="0.2" d="M72.1579 120.474C72.1579 120.474 72.1314 120.474 72.1181 120.474C71.1088 120.235 70.6506 119.704 70.4382 119.299C70.2323 118.9 70.1858 118.455 70.312 118.123C70.5178 117.605 71.1486 117.214 71.7662 117.453C71.8525 117.486 71.8923 117.579 71.8591 117.665C71.8259 117.751 71.733 117.791 71.6466 117.758C71.2217 117.592 70.7635 117.884 70.6174 118.243C70.5444 118.422 70.5311 118.761 70.7303 119.139C70.9096 119.485 71.308 119.936 72.1911 120.142C72.2774 120.162 72.3372 120.255 72.3173 120.341C72.2974 120.421 72.231 120.467 72.1579 120.467V120.474Z" fill="black"/>
<path d="M84.5565 122.429C84.0917 123.113 83.5207 124.441 83.5207 124.441C83.3879 124.414 83.2617 124.381 83.1355 124.348C81.3892 123.896 80.7252 123.113 80.5194 122.376C80.4065 121.971 80.4397 121.579 80.5061 121.273C80.5791 120.915 80.7119 120.676 80.7119 120.676C81.4955 121.466 83.0957 122.01 83.9589 122.269C84.3175 122.382 84.5499 122.429 84.5499 122.429H84.5565Z" fill="#263238"/>
<path d="M83.9645 122.264L83.6458 122.848C81.9991 122.423 80.8968 121.898 80.5117 121.268C80.5848 120.909 80.7176 120.67 80.7176 120.67C81.5011 121.46 83.1013 122.005 83.9645 122.264Z" fill="white"/>
<path d="M83.1357 124.343C81.3894 123.892 80.7254 123.108 80.5195 122.371C81.1105 122.55 81.8011 122.823 82.3655 123.254C82.7971 123.58 83.0162 123.971 83.1423 124.343H83.1357Z" fill="#DC5753"/>
<path d="M86.9502 107.836C85.6421 105.114 80.3102 102.584 74.1748 105.213C68.6371 107.577 67.0368 115.645 71.0407 115.95C75.0447 116.255 79.7657 112.338 79.7657 112.338L86.9502 107.843V107.836Z" fill="#263238"/>
</svg>
