<svg width="1773" height="939" viewBox="0 0 1773 939" fill="none" xmlns="http://www.w3.org/2000/svg">
<path opacity="0.8" d="M1613.93 871.264C1617.64 871.264 1620.64 868.809 1620.64 865.78C1620.64 862.752 1617.64 860.296 1613.93 860.296C1610.22 860.296 1607.22 862.752 1607.22 865.78C1607.22 868.809 1610.22 871.264 1613.93 871.264Z" fill="#F2F2FF"/>
<path opacity="0.8" d="M1661.38 894.969H1651.92V887.237C1651.92 886.112 1650.8 885.194 1649.42 885.194C1648.05 885.194 1646.92 886.112 1646.92 887.237V894.969H1637.46C1636.09 894.969 1634.96 895.888 1634.96 897.012C1634.96 898.136 1636.09 899.055 1637.46 899.055H1646.92V906.787C1646.92 907.912 1648.05 908.83 1649.42 908.83C1650.8 908.83 1651.92 907.912 1651.92 906.787V899.055H1661.38C1662.76 899.055 1663.88 898.136 1663.88 897.012C1663.9 895.874 1662.77 894.969 1661.38 894.969Z" fill="#F2F2FF"/>
<path opacity="0.8" d="M88.4812 317.915C106.183 317.915 120.534 303.573 120.534 285.881C120.534 268.189 106.183 253.846 88.4812 253.846C70.7791 253.846 56.4287 268.189 56.4287 285.881C56.4287 303.573 70.7791 317.915 88.4812 317.915Z" fill="#F1F8FE"/>
<path opacity="0.8" d="M1696.05 501.069C1713.75 501.069 1728.11 486.727 1728.11 469.035C1728.11 451.343 1713.75 437 1696.05 437C1678.35 437 1664 451.343 1664 469.035C1664 486.727 1678.35 501.069 1696.05 501.069Z" fill="#F1F8FE"/>
<path opacity="0.8" d="M694.357 335.114C698.063 335.114 701.067 332.112 701.067 328.408C701.067 324.705 698.063 321.703 694.357 321.703C690.652 321.703 687.648 324.705 687.648 328.408C687.648 332.112 690.652 335.114 694.357 335.114Z" fill="#F2F2FF"/>
<path opacity="0.8" d="M396.325 229.02C403.634 229.02 409.559 223.099 409.559 215.794C409.559 208.49 403.634 202.568 396.325 202.568C389.017 202.568 383.092 208.49 383.092 215.794C383.092 223.099 389.017 229.02 396.325 229.02Z" fill="#F2F2FF"/>
<path opacity="0.8" d="M989.233 68.452C996.542 68.452 1002.47 62.531 1002.47 55.226C1002.47 47.922 996.542 42 989.233 42C981.925 42 976 47.922 976 55.226C976 62.531 981.925 68.452 989.233 68.452Z" fill="#F2F2FF"/>
<path opacity="0.8" d="M741.807 364.097H732.348V354.642C732.348 353.268 731.224 352.145 729.849 352.145C728.473 352.145 727.349 353.268 727.349 354.642V364.097H717.89C716.514 364.097 715.391 365.22 715.391 366.595C715.391 367.969 716.514 369.092 717.89 369.092H727.349V378.547C727.349 379.921 728.473 381.044 729.849 381.044C731.224 381.044 732.348 379.921 732.348 378.547V369.092H741.807C743.183 369.092 744.307 367.969 744.307 366.595C744.323 365.203 743.2 364.097 741.807 364.097Z" fill="#F2F2FF"/>
<path opacity="0.8" d="M1008.05 938.346C1025.75 938.346 1040.1 924.004 1040.1 906.312C1040.1 888.62 1025.75 874.278 1008.05 874.278C990.35 874.278 976 888.62 976 906.312C976 924.004 990.35 938.346 1008.05 938.346Z" fill="#F1F8FE"/>
<path opacity="0.8" d="M1315.9 849.452C1323.21 849.452 1329.13 843.531 1329.13 836.226C1329.13 828.921 1323.21 823 1315.9 823C1308.59 823 1302.66 828.921 1302.66 836.226C1302.66 843.531 1308.59 849.452 1315.9 849.452Z" fill="#F1F8FE"/>
<g opacity="0.12">
<path d="M866.812 779.103C877.187 779.103 885.597 770.698 885.597 760.329C885.597 749.96 877.187 741.554 866.812 741.554C856.437 741.554 848.026 749.96 848.026 760.329C848.026 770.698 856.437 779.103 866.812 779.103Z" fill="#F2F2FF"/>
<path d="M866.812 779.103C877.187 779.103 885.597 770.698 885.597 760.329C885.597 749.96 877.187 741.554 866.812 741.554C856.437 741.554 848.026 749.96 848.026 760.329C848.026 770.698 856.437 779.103 866.812 779.103Z" fill="#F2F2FF"/>
<path d="M866.812 779.103C877.187 779.103 885.597 770.698 885.597 760.329C885.597 749.96 877.187 741.554 866.812 741.554C856.437 741.554 848.026 749.96 848.026 760.329C848.026 770.698 856.437 779.103 866.812 779.103Z" fill="#F2F2FF"/>
<path d="M866.812 779.103C877.187 779.103 885.597 770.698 885.597 760.329C885.597 749.96 877.187 741.554 866.812 741.554C856.437 741.554 848.026 749.96 848.026 760.329C848.026 770.698 856.437 779.103 866.812 779.103Z" fill="#F2F2FF"/>
</g>
<path opacity="0.8" d="M41.4991 478.911C64.0366 478.911 82.3069 460.651 82.3069 438.127C82.3069 415.602 64.0366 397.342 41.4991 397.342C18.9616 397.342 0.691406 415.602 0.691406 438.127C0.691406 460.651 18.9616 478.911 41.4991 478.911Z" fill="#F2F2FF"/>
<path opacity="0.8" d="M1731.81 136.569C1754.35 136.569 1772.62 118.309 1772.62 95.785C1772.62 73.26 1754.35 55 1731.81 55C1709.27 55 1691 73.26 1691 95.785C1691 118.309 1709.27 136.569 1731.81 136.569Z" fill="#F2F2FF"/>
</svg>
