<svg width="89" height="53" viewBox="0 0 89 53" fill="none" xmlns="http://www.w3.org/2000/svg">
<path d="M4.41033 0.953031C5.37813 0.641884 6.41492 1.17421 6.72607 2.14201L15.7083 30.0807C16.0195 31.0485 15.4871 32.0853 14.5193 32.3964L12.7835 32.9545C11.8157 33.2657 10.7789 32.7333 10.4678 31.7655L1.4855 3.82685C1.17435 2.85904 1.70668 1.82225 2.67448 1.5111L4.41033 0.953031Z" fill="#000636"/>
<path d="M55.6846 49.3202C55.4702 48.3265 56.1019 47.3471 57.0956 47.1326L85.7821 40.9409C86.7758 40.7265 87.7552 41.3581 87.9697 42.3518L88.3544 44.1342C88.5688 45.1279 87.9372 46.1073 86.9434 46.3218L58.257 52.5134C57.2632 52.7279 56.2838 52.0962 56.0693 51.1025L55.6846 49.3202Z" fill="#000636"/>
<path d="M51.1433 7.7815C51.8607 8.19571 52.1065 9.11309 51.6923 9.83053L35.9966 37.0165C35.5824 37.7339 34.665 37.9797 33.9475 37.5655L32.6607 36.8226C31.9433 36.4084 31.6975 35.491 32.1117 34.7736L47.8074 7.58761C48.2216 6.87017 49.139 6.62436 49.8565 7.03857L51.1433 7.7815Z" fill="#000636"/>
</svg>
