<svg width="1920" height="673" viewBox="0 0 1920 673" fill="none" xmlns="http://www.w3.org/2000/svg">
<path d="M1858.81 208.859C1858.81 206.368 1860.83 204.349 1863.33 204.349C1865.83 204.349 1867.85 206.368 1867.85 208.859C1867.85 211.349 1865.83 213.368 1863.33 213.368C1860.83 213.368 1858.81 211.349 1858.81 208.859ZM1813.39 208.859C1813.39 206.368 1815.41 204.349 1817.91 204.349C1820.41 204.349 1822.43 206.368 1822.43 208.859C1822.43 211.349 1820.41 213.368 1817.91 213.368C1815.41 213.368 1813.39 211.349 1813.39 208.859ZM1767.97 208.859C1767.97 206.368 1770 204.349 1772.49 204.349C1774.99 204.349 1777.02 206.368 1777.02 208.859C1777.02 211.349 1774.99 213.368 1772.49 213.368C1770 213.368 1767.97 211.349 1767.97 208.859ZM1858.81 167.983C1858.81 165.492 1860.83 163.473 1863.33 163.473C1865.83 163.473 1867.85 165.492 1867.85 167.983C1867.85 170.473 1865.83 172.493 1863.33 172.493C1860.83 172.493 1858.81 170.473 1858.81 167.983ZM1813.39 167.983C1813.39 165.492 1815.41 163.473 1817.91 163.473C1820.41 163.473 1822.43 165.492 1822.43 167.983C1822.43 170.473 1820.41 172.493 1817.91 172.493C1815.41 172.493 1813.39 170.473 1813.39 167.983ZM1767.97 167.983C1767.97 165.492 1770 163.473 1772.49 163.473C1774.99 163.473 1777.02 165.492 1777.02 167.983C1777.02 170.473 1774.99 172.493 1772.49 172.493C1770 172.493 1767.97 170.473 1767.97 167.983ZM1858.81 127.119C1858.81 124.629 1860.83 122.61 1863.33 122.61C1865.83 122.61 1867.85 124.629 1867.85 127.119C1867.85 129.61 1865.83 131.629 1863.33 131.629C1860.83 131.629 1858.81 129.61 1858.81 127.119ZM1813.39 127.119C1813.39 124.629 1815.41 122.61 1817.91 122.61C1820.41 122.61 1822.43 124.629 1822.43 127.119C1822.43 129.61 1820.41 131.629 1817.91 131.629C1815.41 131.629 1813.39 129.61 1813.39 127.119ZM1767.97 127.119C1767.97 124.629 1770 122.61 1772.49 122.61C1774.99 122.61 1777.02 124.629 1777.02 127.119C1777.02 129.61 1774.99 131.629 1772.49 131.629C1770 131.629 1767.97 129.61 1767.97 127.119ZM1858.81 86.2497C1858.81 83.7592 1860.83 81.74 1863.33 81.74C1865.83 81.74 1867.85 83.7592 1867.85 86.2497C1867.85 88.7402 1865.83 90.7588 1863.33 90.7588C1860.83 90.7588 1858.81 88.7402 1858.81 86.2497ZM1813.39 86.2497C1813.39 83.7592 1815.41 81.74 1817.91 81.74C1820.41 81.74 1822.43 83.7592 1822.43 86.2497C1822.43 88.7402 1820.41 90.7588 1817.91 90.7588C1815.41 90.7588 1813.39 88.7402 1813.39 86.2497ZM1767.97 86.2497C1767.97 83.7592 1770 81.74 1772.49 81.74C1774.99 81.74 1777.02 83.7592 1777.02 86.2497C1777.02 88.7402 1774.99 90.7588 1772.49 90.7588C1770 90.7588 1767.97 88.7402 1767.97 86.2497ZM1858.81 45.3797C1858.81 42.8892 1860.83 40.8705 1863.33 40.8705C1865.83 40.8705 1867.85 42.8892 1867.85 45.3797C1867.85 47.8701 1865.83 49.8893 1863.33 49.8893C1860.83 49.8893 1858.81 47.8701 1858.81 45.3797ZM1813.39 45.3797C1813.39 42.8892 1815.41 40.8705 1817.91 40.8705C1820.41 40.8705 1822.43 42.8892 1822.43 45.3797C1822.43 47.8701 1820.41 49.8893 1817.91 49.8893C1815.41 49.8893 1813.39 47.8701 1813.39 45.3797ZM1767.97 45.3797C1767.97 42.8892 1770 40.8705 1772.49 40.8705C1774.99 40.8705 1777.02 42.8892 1777.02 45.3797C1777.02 47.8701 1774.99 49.8893 1772.49 49.8893C1770 49.8893 1767.97 47.8701 1767.97 45.3797ZM1858.81 4.51016C1858.81 2.01968 1860.83 0.000488281 1863.33 0.000488281C1865.83 0.000488281 1867.85 2.01968 1867.85 4.51016C1867.85 7.00064 1865.83 9.01983 1863.33 9.01983C1860.83 9.01983 1858.81 7.00064 1858.81 4.51016ZM1813.39 4.51016C1813.39 2.01968 1815.41 0.000488281 1817.91 0.000488281C1820.41 0.000488281 1822.43 2.01968 1822.43 4.51016C1822.43 7.00064 1820.41 9.01983 1817.91 9.01983C1815.41 9.01983 1813.39 7.00064 1813.39 4.51016ZM1767.97 4.51016C1767.97 2.01968 1770 0.000488281 1772.49 0.000488281C1774.99 0.000488281 1777.02 2.01968 1777.02 4.51016C1777.02 7.00064 1774.99 9.01983 1772.49 9.01983C1770 9.01983 1767.97 7.00064 1767.97 4.51016Z" fill="#000636"/>
<rect x="32.0964" y="480.77" width="283.979" height="71.2731" fill="#E54E0F"/>
<path d="M524.214 513.361C524.214 510.361 526.64 507.929 529.634 507.929C532.627 507.929 535.053 510.361 535.053 513.361C535.053 516.36 532.627 518.792 529.634 518.792C526.64 518.792 524.214 516.36 524.214 513.361ZM494.503 513.361C494.503 510.361 496.929 507.929 499.923 507.929C502.916 507.929 505.342 510.361 505.342 513.361C505.342 516.36 502.916 518.792 499.923 518.792C496.929 518.792 494.503 516.36 494.503 513.361ZM464.792 513.361C464.792 510.361 467.218 507.929 470.211 507.929C473.205 507.929 475.631 510.361 475.631 513.361C475.631 516.36 473.205 518.792 470.211 518.792C467.218 518.792 464.792 516.36 464.792 513.361ZM435.087 513.361C435.087 510.361 437.513 507.929 440.506 507.929C443.5 507.929 445.926 510.361 445.926 513.361C445.926 516.36 443.5 518.792 440.506 518.792C437.513 518.792 435.087 516.36 435.087 513.361ZM405.375 513.361C405.375 510.361 407.802 507.929 410.795 507.929C413.789 507.929 416.215 510.361 416.215 513.361C416.215 516.36 413.789 518.792 410.795 518.792C407.802 518.792 405.375 516.36 405.375 513.361ZM375.665 513.361C375.665 510.361 378.091 507.929 381.084 507.929C384.077 507.929 386.504 510.361 386.504 513.361C386.504 516.36 384.077 518.792 381.084 518.792C378.091 518.792 375.665 516.36 375.665 513.361ZM345.96 513.361C345.96 510.361 348.386 507.929 351.379 507.929C354.373 507.929 356.799 510.361 356.799 513.361C356.799 516.36 354.373 518.792 351.379 518.792C348.386 518.792 345.96 516.36 345.96 513.361ZM316.248 513.361C316.248 510.361 318.675 507.929 321.668 507.929C324.661 507.929 327.088 510.361 327.088 513.361C327.088 516.36 324.661 518.792 321.668 518.792C318.675 518.792 316.248 516.36 316.248 513.361ZM286.537 513.361C286.537 510.361 288.964 507.929 291.957 507.929C294.95 507.929 297.377 510.361 297.377 513.361C297.377 516.36 294.95 518.792 291.957 518.792C288.964 518.792 286.537 516.36 286.537 513.361ZM256.832 513.361C256.832 510.361 259.259 507.929 262.252 507.929C265.245 507.929 267.672 510.361 267.672 513.361C267.672 516.36 265.245 518.792 262.252 518.792C259.259 518.792 256.832 516.36 256.832 513.361ZM227.121 513.361C227.121 510.361 229.548 507.929 232.541 507.929C235.534 507.929 237.96 510.361 237.96 513.361C237.96 516.36 235.534 518.792 232.541 518.792C229.548 518.792 227.121 516.36 227.121 513.361ZM524.214 480.375C524.214 477.375 526.64 474.944 529.634 474.944C532.627 474.944 535.053 477.375 535.053 480.375C535.053 483.375 532.627 485.807 529.634 485.807C526.64 485.807 524.214 483.375 524.214 480.375ZM494.503 480.375C494.503 477.375 496.929 474.944 499.923 474.944C502.916 474.944 505.342 477.375 505.342 480.375C505.342 483.375 502.916 485.807 499.923 485.807C496.929 485.807 494.503 483.375 494.503 480.375ZM464.792 480.375C464.792 477.375 467.218 474.944 470.211 474.944C473.205 474.944 475.631 477.375 475.631 480.375C475.631 483.375 473.205 485.807 470.211 485.807C467.218 485.807 464.792 483.375 464.792 480.375ZM435.087 480.375C435.087 477.375 437.513 474.944 440.506 474.944C443.5 474.944 445.926 477.375 445.926 480.375C445.926 483.375 443.5 485.807 440.506 485.807C437.513 485.807 435.087 483.375 435.087 480.375ZM405.375 480.375C405.375 477.375 407.802 474.944 410.795 474.944C413.789 474.944 416.215 477.375 416.215 480.375C416.215 483.375 413.789 485.807 410.795 485.807C407.802 485.807 405.375 483.375 405.375 480.375ZM375.665 480.375C375.665 477.375 378.091 474.944 381.084 474.944C384.077 474.944 386.504 477.375 386.504 480.375C386.504 483.375 384.077 485.807 381.084 485.807C378.091 485.807 375.665 483.375 375.665 480.375ZM345.96 480.375C345.96 477.375 348.386 474.944 351.379 474.944C354.373 474.944 356.799 477.375 356.799 480.375C356.799 483.375 354.373 485.807 351.379 485.807C348.386 485.807 345.96 483.375 345.96 480.375ZM316.248 480.375C316.248 477.375 318.675 474.944 321.668 474.944C324.661 474.944 327.088 477.375 327.088 480.375C327.088 483.375 324.661 485.807 321.668 485.807C318.675 485.807 316.248 483.375 316.248 480.375ZM286.537 480.375C286.537 477.375 288.964 474.944 291.957 474.944C294.95 474.944 297.377 477.375 297.377 480.375C297.377 483.375 294.95 485.807 291.957 485.807C288.964 485.807 286.537 483.375 286.537 480.375ZM256.832 480.375C256.832 477.375 259.259 474.944 262.252 474.944C265.245 474.944 267.672 477.375 267.672 480.375C267.672 483.375 265.245 485.807 262.252 485.807C259.259 485.807 256.832 483.375 256.832 480.375ZM227.121 480.375C227.121 477.375 229.548 474.944 232.541 474.944C235.534 474.944 237.96 477.375 237.96 480.375C237.96 483.375 235.534 485.807 232.541 485.807C229.548 485.807 227.121 483.375 227.121 480.375ZM524.214 447.39C524.214 444.39 526.64 441.958 529.634 441.958C532.627 441.958 535.053 444.39 535.053 447.39C535.053 450.389 532.627 452.821 529.634 452.821C526.64 452.821 524.214 450.389 524.214 447.39ZM494.503 447.39C494.503 444.39 496.929 441.958 499.923 441.958C502.916 441.958 505.342 444.39 505.342 447.39C505.342 450.389 502.916 452.821 499.923 452.821C496.929 452.821 494.503 450.389 494.503 447.39ZM464.792 447.39C464.792 444.39 467.218 441.958 470.211 441.958C473.205 441.958 475.631 444.39 475.631 447.39C475.631 450.389 473.205 452.821 470.211 452.821C467.218 452.821 464.792 450.389 464.792 447.39ZM435.087 447.39C435.087 444.39 437.513 441.958 440.506 441.958C443.5 441.958 445.926 444.39 445.926 447.39C445.926 450.389 443.5 452.821 440.506 452.821C437.513 452.821 435.087 450.389 435.087 447.39ZM405.375 447.39C405.375 444.39 407.802 441.958 410.795 441.958C413.789 441.958 416.215 444.39 416.215 447.39C416.215 450.389 413.789 452.821 410.795 452.821C407.802 452.821 405.375 450.389 405.375 447.39ZM375.665 447.39C375.665 444.39 378.091 441.958 381.084 441.958C384.077 441.958 386.504 444.39 386.504 447.39C386.504 450.389 384.077 452.821 381.084 452.821C378.091 452.821 375.665 450.389 375.665 447.39ZM345.96 447.39C345.96 444.39 348.386 441.958 351.379 441.958C354.373 441.958 356.799 444.39 356.799 447.39C356.799 450.389 354.373 452.821 351.379 452.821C348.386 452.821 345.96 450.389 345.96 447.39ZM316.248 447.39C316.248 444.39 318.675 441.958 321.668 441.958C324.661 441.958 327.088 444.39 327.088 447.39C327.088 450.389 324.661 452.821 321.668 452.821C318.675 452.821 316.248 450.389 316.248 447.39ZM286.537 447.39C286.537 444.39 288.964 441.958 291.957 441.958C294.95 441.958 297.377 444.39 297.377 447.39C297.377 450.389 294.95 452.821 291.957 452.821C288.964 452.821 286.537 450.389 286.537 447.39ZM256.832 447.39C256.832 444.39 259.259 441.958 262.252 441.958C265.245 441.958 267.672 444.39 267.672 447.39C267.672 450.389 265.245 452.821 262.252 452.821C259.259 452.821 256.832 450.389 256.832 447.39ZM227.121 447.39C227.121 444.39 229.548 441.958 232.541 441.958C235.534 441.958 237.96 444.39 237.96 447.39C237.96 450.389 235.534 452.821 232.541 452.821C229.548 452.821 227.121 450.389 227.121 447.39Z" fill="#000636"/>
<circle cx="163.141" cy="119.258" r="36.7569" transform="rotate(-27.3709 163.141 119.258)" stroke="#FFAD60" stroke-width="3.64706"/>
<circle cx="201.263" cy="146.645" r="38.7438" transform="rotate(-27.3709 201.263 146.645)" stroke="#FFAD60" stroke-width="1.21569"/>
<g filter="url(#filter0_d_1_6)">
<path d="M1672.63 421.13L1729.51 420.603L1734.07 377.721L1775.98 376.826L1786.99 327.876L1837.98 326.696" stroke="#000636" stroke-width="4" shape-rendering="crispEdges"/>
</g>
<g filter="url(#filter1_d_1_6)">
<path d="M1672.63 421.13L1729.51 420.603L1734.07 377.721L1775.98 376.826L1786.99 327.876L1837.98 326.696" stroke="#000636" stroke-width="4" shape-rendering="crispEdges"/>
</g>
<g filter="url(#filter2_d_1_6)">
<path d="M1672.63 421.13L1729.51 420.603L1734.07 377.721L1775.98 376.826L1786.99 327.876L1837.98 326.696" stroke="#000636" stroke-width="4" shape-rendering="crispEdges"/>
</g>
<defs>
<filter id="filter0_d_1_6" x="1669.61" y="324.696" width="171.418" height="104.434" filterUnits="userSpaceOnUse" color-interpolation-filters="sRGB">
<feFlood flood-opacity="0" result="BackgroundImageFix"/>
<feColorMatrix in="SourceAlpha" type="matrix" values="0 0 0 0 0 0 0 0 0 0 0 0 0 0 0 0 0 0 127 0" result="hardAlpha"/>
<feOffset dy="3"/>
<feGaussianBlur stdDeviation="1.5"/>
<feComposite in2="hardAlpha" operator="out"/>
<feColorMatrix type="matrix" values="0 0 0 0 0 0 0 0 0 0 0 0 0 0 0 0 0 0 0.160784 0"/>
<feBlend mode="normal" in2="BackgroundImageFix" result="effect1_dropShadow_1_6"/>
<feBlend mode="normal" in="SourceGraphic" in2="effect1_dropShadow_1_6" result="shape"/>
</filter>
<filter id="filter1_d_1_6" x="1669.61" y="324.696" width="171.418" height="104.434" filterUnits="userSpaceOnUse" color-interpolation-filters="sRGB">
<feFlood flood-opacity="0" result="BackgroundImageFix"/>
<feColorMatrix in="SourceAlpha" type="matrix" values="0 0 0 0 0 0 0 0 0 0 0 0 0 0 0 0 0 0 127 0" result="hardAlpha"/>
<feOffset dy="3"/>
<feGaussianBlur stdDeviation="1.5"/>
<feComposite in2="hardAlpha" operator="out"/>
<feColorMatrix type="matrix" values="0 0 0 0 0 0 0 0 0 0 0 0 0 0 0 0 0 0 0.160784 0"/>
<feBlend mode="normal" in2="BackgroundImageFix" result="effect1_dropShadow_1_6"/>
<feBlend mode="normal" in="SourceGraphic" in2="effect1_dropShadow_1_6" result="shape"/>
</filter>
<filter id="filter2_d_1_6" x="1669.61" y="324.696" width="171.418" height="104.434" filterUnits="userSpaceOnUse" color-interpolation-filters="sRGB">
<feFlood flood-opacity="0" result="BackgroundImageFix"/>
<feColorMatrix in="SourceAlpha" type="matrix" values="0 0 0 0 0 0 0 0 0 0 0 0 0 0 0 0 0 0 127 0" result="hardAlpha"/>
<feOffset dy="3"/>
<feGaussianBlur stdDeviation="1.5"/>
<feComposite in2="hardAlpha" operator="out"/>
<feColorMatrix type="matrix" values="0 0 0 0 0 0 0 0 0 0 0 0 0 0 0 0 0 0 0.160784 0"/>
<feBlend mode="normal" in2="BackgroundImageFix" result="effect1_dropShadow_1_6"/>
<feBlend mode="normal" in="SourceGraphic" in2="effect1_dropShadow_1_6" result="shape"/>
</filter>
</defs>
</svg>
