<svg width="532" height="475" viewBox="0 0 532 475" fill="none" xmlns="http://www.w3.org/2000/svg">
<g clip-path="url(#clip0_1_3)">
<g opacity="0.427575">
<path d="M9.96694 0.51498C5.37168 1.88263 1.21407 6.02465 0.251249 10.2057C-1.63062 18.2553 7.38484 26.3049 16.4003 24.6246C23.1838 23.3742 28.4355 17.2003 27.779 11.378C27.2976 7.27507 23.8402 3.0549 19.4638 1.14019C16.7942 0.00700244 12.6803 -0.266532 9.96694 0.51498Z" fill="#B0B0B0"/>
<path d="M65.9853 0.514966C59.3769 2.46875 54.9129 8.9553 56.2696 14.6603C57.3637 19.3103 62.2216 23.6477 67.3858 24.6246C75.8761 26.2267 84.6727 19.0759 83.7974 11.378C83.316 7.27505 79.8586 3.05488 75.4822 1.14018C72.8126 0.00698885 68.6987 -0.266546 65.9853 0.514966Z" fill="#B0B0B0"/>
<path d="M122.004 0.51498C117.408 1.88263 113.251 6.02465 112.288 10.2057C110.406 18.2553 119.422 26.3049 128.437 24.6246C135.221 23.3742 140.472 17.2003 139.816 11.378C139.334 7.27507 135.877 3.0549 131.501 1.14019C128.831 0.00700244 124.717 -0.266532 122.004 0.51498Z" fill="#B0B0B0"/>
<path d="M178.022 0.51498C173.427 1.88263 169.269 6.02465 168.306 10.2057C166.425 18.2553 175.44 26.3049 184.455 24.6246C191.239 23.3742 196.491 17.2003 195.834 11.378C195.353 7.27507 191.895 3.0549 187.519 1.14019C184.849 0.00700244 180.736 -0.266532 178.022 0.51498Z" fill="#B0B0B0"/>
<path d="M234.04 0.51498C229.445 1.88263 225.288 6.02465 224.325 10.2057C222.443 18.2553 231.458 26.3049 240.474 24.6246C247.257 23.3742 252.509 17.2003 251.853 11.378C251.371 7.27507 247.914 3.0549 243.537 1.14019C240.868 0.00700244 236.754 -0.266532 234.04 0.51498Z" fill="#B0B0B0"/>
<path d="M290.059 0.51498C285.464 1.88263 281.306 6.02465 280.343 10.2057C278.461 18.2553 287.477 26.3049 296.492 24.6246C303.276 23.3742 308.527 17.2003 307.871 11.378C307.39 7.27507 303.932 3.0549 299.556 1.14019C296.886 0.00700244 292.772 -0.266532 290.059 0.51498Z" fill="#B0B0B0"/>
<path d="M346.077 0.51498C341.482 1.88263 337.324 6.02465 336.362 10.2057C334.48 18.2553 343.495 26.3049 352.511 24.6246C359.294 23.3742 364.546 17.2003 363.889 11.378C363.408 7.27507 359.951 3.0549 355.574 1.14019C352.905 0.00700244 348.791 -0.266532 346.077 0.51498Z" fill="#B0B0B0"/>
<path d="M402.096 0.51498C397.5 1.88263 393.343 6.02465 392.38 10.2057C390.498 18.2553 399.514 26.3049 408.529 24.6246C415.312 23.3742 420.564 17.2003 419.908 11.378C419.426 7.27507 415.969 3.0549 411.592 1.14019C408.923 0.00700244 404.809 -0.266532 402.096 0.51498Z" fill="#B0B0B0"/>
<path d="M458.114 0.514955C453.519 1.8826 449.361 6.02462 448.398 10.2057C447.304 14.7776 449.799 19.7401 454.613 22.6708C459.296 25.5624 464.635 25.6015 469.362 22.7881C477.108 18.1771 478.158 9.58051 471.681 3.8364C467.961 0.475896 462.622 -0.813615 458.114 0.514955Z" fill="#B0B0B0"/>
<path d="M514.132 0.514955C509.537 1.8826 505.38 6.02462 504.417 10.2057C503.323 14.7776 505.817 19.7401 510.631 22.6708C515.314 25.5624 520.653 25.6015 525.38 22.7881C533.126 18.1771 534.177 9.58051 527.699 3.8364C523.979 0.475896 518.64 -0.813615 514.132 0.514955Z" fill="#B0B0B0"/>
<path d="M9.96694 50.5317C5.37168 51.8994 1.21407 56.0414 0.251249 60.2225C-1.63062 68.272 7.38484 76.3216 16.4003 74.6414C23.1838 73.3909 28.4355 67.217 27.779 61.3947C27.2976 57.2918 23.8402 53.0716 19.4638 51.1569C16.7942 50.0237 12.6803 49.7502 9.96694 50.5317Z" fill="#B0B0B0"/>
<path d="M65.9853 50.5317C59.3769 52.4855 54.9129 58.9721 56.2696 64.6771C57.3637 69.3271 62.2216 73.6645 67.3858 74.6414C75.8761 76.2435 84.6727 69.0926 83.7974 61.3947C83.316 57.2918 79.8586 53.0716 75.4822 51.1569C72.8126 50.0237 68.6987 49.7502 65.9853 50.5317Z" fill="#B0B0B0"/>
<path d="M122.004 50.5317C117.408 51.8994 113.251 56.0414 112.288 60.2225C110.406 68.272 119.422 76.3216 128.437 74.6414C135.221 73.3909 140.472 67.217 139.816 61.3947C139.334 57.2918 135.877 53.0716 131.501 51.1569C128.831 50.0237 124.717 49.7502 122.004 50.5317Z" fill="#B0B0B0"/>
<path d="M178.022 50.5317C173.427 51.8994 169.269 56.0414 168.306 60.2225C166.425 68.272 175.44 76.3216 184.455 74.6414C191.239 73.3909 196.491 67.217 195.834 61.3947C195.353 57.2918 191.895 53.0716 187.519 51.1569C184.849 50.0237 180.736 49.7502 178.022 50.5317Z" fill="#B0B0B0"/>
<path d="M234.04 50.5317C229.445 51.8994 225.288 56.0414 224.325 60.2225C222.443 68.272 231.458 76.3216 240.474 74.6414C247.257 73.3909 252.509 67.217 251.853 61.3947C251.371 57.2918 247.914 53.0716 243.537 51.1569C240.868 50.0237 236.754 49.7502 234.04 50.5317Z" fill="#B0B0B0"/>
<path d="M290.059 50.5317C285.464 51.8994 281.306 56.0414 280.343 60.2225C278.461 68.272 287.477 76.3216 296.492 74.6414C303.276 73.3909 308.527 67.217 307.871 61.3947C307.39 57.2918 303.932 53.0716 299.556 51.1569C296.886 50.0237 292.772 49.7502 290.059 50.5317Z" fill="#B0B0B0"/>
<path d="M346.077 50.5317C341.482 51.8994 337.324 56.0414 336.362 60.2225C334.48 68.272 343.495 76.3216 352.511 74.6414C359.294 73.3909 364.546 67.217 363.889 61.3947C363.408 57.2918 359.951 53.0716 355.574 51.1569C352.905 50.0237 348.791 49.7502 346.077 50.5317Z" fill="#B0B0B0"/>
<path d="M402.096 50.5317C397.5 51.8994 393.343 56.0414 392.38 60.2225C390.498 68.272 399.514 76.3216 408.529 74.6414C415.312 73.3909 420.564 67.217 419.908 61.3947C419.426 57.2918 415.969 53.0716 411.592 51.1569C408.923 50.0237 404.809 49.7502 402.096 50.5317Z" fill="#B0B0B0"/>
<path d="M458.114 50.5317C453.519 51.8994 449.361 56.0414 448.398 60.2225C447.304 64.7943 449.799 69.7569 454.613 72.6876C459.296 75.5792 464.635 75.6183 469.362 72.8048C477.108 68.1939 478.158 59.5973 471.681 53.8532C467.961 50.4927 462.622 49.2031 458.114 50.5317Z" fill="#B0B0B0"/>
<path d="M514.132 50.5317C509.537 51.8994 505.38 56.0414 504.417 60.2225C503.323 64.7943 505.817 69.7569 510.631 72.6876C515.314 75.5792 520.653 75.6183 525.38 72.8048C533.126 68.1939 534.177 59.5973 527.699 53.8532C523.979 50.4927 518.64 49.2031 514.132 50.5317Z" fill="#B0B0B0"/>
<path d="M9.96694 100.548C5.37168 101.916 1.21407 106.058 0.251249 110.239C-1.63062 118.289 7.38484 126.338 16.4003 124.658C23.1838 123.408 28.4355 117.234 27.779 111.412C27.2976 107.309 23.8402 103.088 19.4638 101.174C16.7942 100.041 12.6803 99.767 9.96694 100.548Z" fill="#B0B0B0"/>
<path d="M65.9853 100.548C61.39 101.916 57.2324 106.058 56.2696 110.239C54.3878 118.289 63.4032 126.338 72.4187 124.658C79.2021 123.408 84.4539 117.234 83.7974 111.412C83.316 107.309 79.8586 103.088 75.4822 101.174C72.8125 100.041 68.6987 99.767 65.9853 100.548Z" fill="#B0B0B0"/>
<path d="M122.004 100.548C117.408 101.916 113.251 106.058 112.288 110.239C110.406 118.289 119.422 126.338 128.437 124.658C135.221 123.408 140.472 117.234 139.816 111.412C139.334 107.309 135.877 103.088 131.501 101.174C128.831 100.041 124.717 99.767 122.004 100.548Z" fill="#B0B0B0"/>
<path d="M178.022 100.548C173.427 101.916 169.269 106.058 168.306 110.239C166.425 118.289 175.44 126.338 184.455 124.658C191.239 123.408 196.491 117.234 195.834 111.412C195.353 107.309 191.895 103.088 187.519 101.174C184.849 100.041 180.736 99.767 178.022 100.548Z" fill="#B0B0B0"/>
<path d="M234.04 100.548C229.445 101.916 225.288 106.058 224.325 110.239C222.443 118.289 231.458 126.338 240.474 124.658C247.257 123.408 252.509 117.234 251.853 111.412C251.371 107.309 247.914 103.088 243.537 101.174C240.868 100.041 236.754 99.767 234.04 100.548Z" fill="#B0B0B0"/>
<path d="M290.059 100.548C285.464 101.916 281.306 106.058 280.343 110.239C278.461 118.289 287.477 126.338 296.492 124.658C303.276 123.408 308.527 117.234 307.871 111.412C307.39 107.309 303.932 103.088 299.556 101.174C296.886 100.041 292.772 99.767 290.059 100.548Z" fill="#B0B0B0"/>
<path d="M346.077 100.548C341.482 101.916 337.324 106.058 336.362 110.239C334.48 118.289 343.495 126.338 352.511 124.658C359.294 123.408 364.546 117.234 363.889 111.412C363.408 107.309 359.951 103.088 355.574 101.174C352.905 100.041 348.791 99.767 346.077 100.548Z" fill="#B0B0B0"/>
<path d="M402.096 100.548C397.5 101.916 393.343 106.058 392.38 110.239C390.498 118.289 399.514 126.338 408.529 124.658C415.312 123.408 420.564 117.234 419.908 111.412C419.426 107.309 415.969 103.088 411.592 101.174C408.923 100.041 404.809 99.767 402.096 100.548Z" fill="#B0B0B0"/>
<path d="M458.114 100.548C453.519 101.916 449.361 106.058 448.398 110.239C446.516 118.289 455.532 126.338 464.547 124.658C471.331 123.408 476.583 117.234 475.926 111.412C475.445 107.309 471.987 103.088 467.611 101.174C464.941 100.041 460.827 99.767 458.114 100.548Z" fill="#B0B0B0"/>
<path d="M514.132 100.548C509.537 101.916 505.38 106.058 504.417 110.239C502.535 118.289 511.55 126.338 520.566 124.658C527.349 123.408 532.601 117.234 531.945 111.412C531.463 107.309 528.006 103.088 523.629 101.174C520.96 100.041 516.846 99.767 514.132 100.548Z" fill="#B0B0B0"/>
<path d="M9.96694 150.565C5.37168 151.933 1.21407 156.075 0.251249 160.256C-1.63062 168.306 7.38484 176.355 16.4003 174.675C23.1838 173.425 28.4355 167.251 27.779 161.428C27.2976 157.325 23.8402 153.105 19.4638 151.191C16.7942 150.057 12.6803 149.784 9.96694 150.565Z" fill="#B0B0B0"/>
<path d="M65.9853 150.565C61.39 151.933 57.2324 156.075 56.2696 160.256C54.3878 168.306 63.4032 176.355 72.4187 174.675C79.2021 173.425 84.4539 167.251 83.7974 161.428C83.316 157.325 79.8586 153.105 75.4822 151.191C72.8125 150.057 68.6987 149.784 65.9853 150.565Z" fill="#B0B0B0"/>
<path d="M122.004 150.565C117.408 151.933 113.251 156.075 112.288 160.256C110.406 168.306 119.422 176.355 128.437 174.675C135.221 173.425 140.472 167.251 139.816 161.428C139.334 157.325 135.877 153.105 131.501 151.191C128.831 150.057 124.717 149.784 122.004 150.565Z" fill="#B0B0B0"/>
<path d="M178.022 150.565C173.427 151.933 169.269 156.075 168.306 160.256C166.425 168.306 175.44 176.355 184.455 174.675C191.239 173.425 196.491 167.251 195.834 161.428C195.353 157.325 191.895 153.105 187.519 151.191C184.849 150.057 180.736 149.784 178.022 150.565Z" fill="#B0B0B0"/>
<path d="M234.04 150.565C229.445 151.933 225.288 156.075 224.325 160.256C222.443 168.306 231.458 176.355 240.474 174.675C247.257 173.425 252.509 167.251 251.853 161.428C251.371 157.325 247.914 153.105 243.537 151.191C240.868 150.057 236.754 149.784 234.04 150.565Z" fill="#B0B0B0"/>
<path d="M290.059 150.565C285.464 151.933 281.306 156.075 280.343 160.256C278.461 168.306 287.477 176.355 296.492 174.675C303.276 173.425 308.527 167.251 307.871 161.428C307.39 157.325 303.932 153.105 299.556 151.191C296.886 150.057 292.772 149.784 290.059 150.565Z" fill="#B0B0B0"/>
<path d="M346.077 150.565C341.482 151.933 337.324 156.075 336.362 160.256C334.48 168.306 343.495 176.355 352.511 174.675C359.294 173.425 364.546 167.251 363.889 161.428C363.408 157.325 359.951 153.105 355.574 151.191C352.905 150.057 348.791 149.784 346.077 150.565Z" fill="#B0B0B0"/>
<path d="M402.096 150.565C397.5 151.933 393.343 156.075 392.38 160.256C390.498 168.306 399.514 176.355 408.529 174.675C415.312 173.425 420.564 167.251 419.908 161.428C419.426 157.325 415.969 153.105 411.592 151.191C408.923 150.057 404.809 149.784 402.096 150.565Z" fill="#B0B0B0"/>
<path d="M458.114 150.565C453.519 151.933 449.361 156.075 448.398 160.256C446.516 168.306 455.532 176.355 464.547 174.675C471.331 173.425 476.583 167.251 475.926 161.428C475.445 157.325 471.987 153.105 467.611 151.191C464.941 150.057 460.827 149.784 458.114 150.565Z" fill="#B0B0B0"/>
<path d="M514.132 150.565C509.537 151.933 505.38 156.075 504.417 160.256C502.535 168.306 511.55 176.355 520.566 174.675C527.349 173.425 532.601 167.251 531.945 161.428C531.463 157.325 528.006 153.105 523.629 151.191C520.96 150.057 516.846 149.784 514.132 150.565Z" fill="#B0B0B0"/>
<path d="M9.96694 200.582C5.37168 201.95 1.21407 206.092 0.251249 210.273C-1.63062 218.322 7.38484 226.372 16.4003 224.692C23.1838 223.441 28.4355 217.267 27.779 211.445C27.2976 207.342 23.8402 203.122 19.4638 201.207C16.7942 200.074 12.6803 199.801 9.96694 200.582Z" fill="#B0B0B0"/>
<path d="M65.9853 200.582C61.39 201.95 57.2324 206.092 56.2696 210.273C54.3878 218.322 63.4032 226.372 72.4187 224.692C79.2021 223.441 84.4539 217.267 83.7974 211.445C83.316 207.342 79.8586 203.122 75.4822 201.207C72.8125 200.074 68.6987 199.801 65.9853 200.582Z" fill="#B0B0B0"/>
<path d="M122.004 200.582C117.408 201.95 113.251 206.092 112.288 210.273C110.406 218.322 119.422 226.372 128.437 224.692C135.221 223.441 140.472 217.267 139.816 211.445C139.334 207.342 135.877 203.122 131.501 201.207C128.831 200.074 124.717 199.801 122.004 200.582Z" fill="#B0B0B0"/>
<path d="M178.022 200.582C173.427 201.95 169.269 206.092 168.306 210.273C166.425 218.322 175.44 226.372 184.455 224.692C191.239 223.441 196.491 217.267 195.834 211.445C195.353 207.342 191.895 203.122 187.519 201.207C184.849 200.074 180.736 199.801 178.022 200.582Z" fill="#B0B0B0"/>
<path d="M234.04 200.582C229.445 201.95 225.288 206.092 224.325 210.273C222.443 218.322 231.458 226.372 240.474 224.692C247.257 223.441 252.509 217.267 251.853 211.445C251.371 207.342 247.914 203.122 243.537 201.207C240.868 200.074 236.754 199.801 234.04 200.582Z" fill="#B0B0B0"/>
<path d="M290.059 200.582C285.464 201.95 281.306 206.092 280.343 210.273C278.461 218.322 287.477 226.372 296.492 224.692C303.276 223.441 308.527 217.267 307.871 211.445C307.39 207.342 303.932 203.122 299.556 201.207C296.886 200.074 292.772 199.801 290.059 200.582Z" fill="#B0B0B0"/>
<path d="M346.077 200.582C341.482 201.95 337.324 206.092 336.362 210.273C334.48 218.322 343.495 226.372 352.511 224.692C359.294 223.441 364.546 217.267 363.889 211.445C363.408 207.342 359.951 203.122 355.574 201.207C352.905 200.074 348.791 199.801 346.077 200.582Z" fill="#B0B0B0"/>
<path d="M402.096 200.582C397.5 201.95 393.343 206.092 392.38 210.273C390.498 218.322 399.514 226.372 408.529 224.692C415.312 223.441 420.564 217.267 419.908 211.445C419.426 207.342 415.969 203.122 411.592 201.207C408.923 200.074 404.809 199.801 402.096 200.582Z" fill="#B0B0B0"/>
<path d="M458.114 200.582C453.519 201.95 449.361 206.092 448.398 210.273C446.516 218.322 455.532 226.372 464.547 224.692C471.331 223.441 476.583 217.267 475.926 211.445C475.445 207.342 471.987 203.122 467.611 201.207C464.941 200.074 460.827 199.801 458.114 200.582Z" fill="#B0B0B0"/>
<path d="M514.132 200.582C509.537 201.95 505.38 206.092 504.417 210.273C502.535 218.322 511.55 226.372 520.566 224.692C527.349 223.441 532.601 217.267 531.945 211.445C531.463 207.342 528.006 203.122 523.629 201.207C520.96 200.074 516.846 199.801 514.132 200.582Z" fill="#B0B0B0"/>
<path d="M9.96694 250.599C5.37168 251.967 1.21407 256.109 0.251249 260.29C-1.63062 268.339 7.38484 276.389 16.4003 274.709C23.1838 273.458 28.4355 267.284 27.779 261.462C27.2976 257.359 23.8402 253.139 19.4638 251.224C16.7942 250.091 12.6803 249.817 9.96694 250.599Z" fill="#B0B0B0"/>
<path d="M65.9853 250.599C61.39 251.967 57.2324 256.109 56.2696 260.29C54.3878 268.339 63.4032 276.389 72.4187 274.709C79.2021 273.458 84.4539 267.284 83.7974 261.462C83.316 257.359 79.8586 253.139 75.4822 251.224C72.8125 250.091 68.6987 249.817 65.9853 250.599Z" fill="#B0B0B0"/>
<path d="M122.004 250.599C117.408 251.967 113.251 256.109 112.288 260.29C110.406 268.339 119.422 276.389 128.437 274.709C135.221 273.458 140.472 267.284 139.816 261.462C139.334 257.359 135.877 253.139 131.501 251.224C128.831 250.091 124.717 249.817 122.004 250.599Z" fill="#B0B0B0"/>
<path d="M178.022 250.599C173.427 251.967 169.269 256.109 168.306 260.29C166.425 268.339 175.44 276.389 184.455 274.709C191.239 273.458 196.491 267.284 195.834 261.462C195.353 257.359 191.895 253.139 187.519 251.224C184.849 250.091 180.736 249.817 178.022 250.599Z" fill="#B0B0B0"/>
<path d="M234.04 250.599C229.445 251.967 225.288 256.109 224.325 260.29C222.443 268.339 231.458 276.389 240.474 274.709C247.257 273.458 252.509 267.284 251.853 261.462C251.371 257.359 247.914 253.139 243.537 251.224C240.868 250.091 236.754 249.817 234.04 250.599Z" fill="#B0B0B0"/>
<path d="M290.059 250.599C285.464 251.967 281.306 256.109 280.343 260.29C278.461 268.339 287.477 276.389 296.492 274.709C303.276 273.458 308.527 267.284 307.871 261.462C307.39 257.359 303.932 253.139 299.556 251.224C296.886 250.091 292.772 249.817 290.059 250.599Z" fill="#B0B0B0"/>
<path d="M346.077 250.599C341.482 251.967 337.324 256.109 336.362 260.29C334.48 268.339 343.495 276.389 352.511 274.709C359.294 273.458 364.546 267.284 363.889 261.462C363.408 257.359 359.951 253.139 355.574 251.224C352.905 250.091 348.791 249.817 346.077 250.599Z" fill="#B0B0B0"/>
<path d="M402.096 250.599C397.5 251.967 393.343 256.109 392.38 260.29C390.498 268.339 399.514 276.389 408.529 274.709C415.312 273.458 420.564 267.284 419.908 261.462C419.426 257.359 415.969 253.139 411.592 251.224C408.923 250.091 404.809 249.817 402.096 250.599Z" fill="#B0B0B0"/>
<path d="M458.114 250.599C453.519 251.967 449.361 256.109 448.398 260.29C446.516 268.339 455.532 276.389 464.547 274.709C471.331 273.458 476.583 267.284 475.926 261.462C475.445 257.359 471.987 253.139 467.611 251.224C464.941 250.091 460.827 249.817 458.114 250.599Z" fill="#B0B0B0"/>
<path d="M514.132 250.599C509.537 251.967 505.38 256.109 504.417 260.29C502.535 268.339 511.55 276.389 520.566 274.709C527.349 273.458 532.601 267.284 531.945 261.462C531.463 257.359 528.006 253.139 523.629 251.224C520.96 250.091 516.846 249.817 514.132 250.599Z" fill="#B0B0B0"/>
<path d="M9.96694 300.616C5.37168 301.983 1.21407 306.125 0.251249 310.306C-1.63062 318.356 7.38484 326.406 16.4003 324.725C23.1838 323.475 28.4355 317.301 27.779 311.479C27.2976 307.376 23.8402 303.156 19.4638 301.241C16.7942 300.108 12.6803 299.834 9.96694 300.616Z" fill="#B0B0B0"/>
<path d="M65.9853 300.616C61.39 301.983 57.2324 306.125 56.2696 310.306C54.3878 318.356 63.4032 326.406 72.4187 324.725C79.2021 323.475 84.4539 317.301 83.7974 311.479C83.316 307.376 79.8586 303.156 75.4822 301.241C72.8125 300.108 68.6987 299.834 65.9853 300.616Z" fill="#B0B0B0"/>
<path d="M122.004 300.616C117.408 301.983 113.251 306.125 112.288 310.306C111.194 314.878 113.688 319.841 118.503 322.772C123.185 325.663 128.525 325.702 133.251 322.889C140.997 318.278 142.048 309.681 135.571 303.937C131.851 300.577 126.511 299.287 122.004 300.616Z" fill="#B0B0B0"/>
<path d="M178.022 300.616C173.427 301.983 169.269 306.125 168.306 310.306C167.212 314.878 169.707 319.841 174.521 322.772C179.204 325.663 184.543 325.702 189.27 322.889C197.016 318.278 198.066 309.681 191.589 303.937C187.869 300.577 182.53 299.287 178.022 300.616Z" fill="#B0B0B0"/>
<path d="M234.041 300.616C227.432 302.569 222.968 309.056 224.325 314.761C225.419 319.411 230.277 323.748 235.485 324.725C243.931 326.327 252.728 319.177 251.853 311.479C251.371 307.376 247.914 303.156 243.537 301.241C240.868 300.108 236.754 299.834 234.041 300.616Z" fill="#B0B0B0"/>
<path d="M290.059 300.616C283.45 302.569 278.986 309.056 280.343 314.761C281.437 319.411 286.295 323.748 291.503 324.725C299.95 326.327 308.746 319.177 307.871 311.479C307.39 307.376 303.932 303.156 299.556 301.241C296.886 300.108 292.772 299.834 290.059 300.616Z" fill="#B0B0B0"/>
<path d="M346.077 300.616C339.469 302.569 335.005 309.056 336.362 314.761C337.456 319.411 342.314 323.748 347.522 324.725C355.968 326.327 364.765 319.177 363.889 311.479C363.408 307.376 359.951 303.156 355.574 301.241C352.905 300.108 348.791 299.834 346.077 300.616Z" fill="#B0B0B0"/>
<path d="M402.096 300.616C395.487 302.569 391.023 309.056 392.38 314.761C393.474 319.411 398.332 323.748 403.54 324.725C411.986 326.327 420.783 319.177 419.908 311.479C419.426 307.376 415.969 303.156 411.592 301.241C408.923 300.108 404.809 299.834 402.096 300.616Z" fill="#B0B0B0"/>
<path d="M458.114 300.616C453.519 301.983 449.361 306.125 448.398 310.306C446.516 318.356 455.532 326.406 464.547 324.725C471.331 323.475 476.583 317.301 475.926 311.479C475.445 307.376 471.987 303.156 467.611 301.241C464.941 300.108 460.827 299.834 458.114 300.616Z" fill="#B0B0B0"/>
<path d="M514.132 300.616C509.537 301.983 505.38 306.125 504.417 310.306C502.535 318.356 511.55 326.406 520.566 324.725C527.349 323.475 532.601 317.301 531.945 311.479C531.463 307.376 528.006 303.156 523.629 301.241C520.96 300.108 516.846 299.834 514.132 300.616Z" fill="#B0B0B0"/>
<path d="M9.96694 350.632C5.37168 352 1.21407 356.142 0.251249 360.323C-1.63062 368.373 7.38484 376.422 16.4003 374.742C23.1838 373.492 28.4355 367.318 27.779 361.495C27.2976 357.393 23.8402 353.172 19.4638 351.258C16.7942 350.124 12.6803 349.851 9.96694 350.632Z" fill="#B0B0B0"/>
<path d="M65.9853 350.632C61.39 352 57.2324 356.142 56.2696 360.323C54.3878 368.373 63.4032 376.422 72.4187 374.742C79.2021 373.492 84.4539 367.318 83.7974 361.495C83.316 357.393 79.8586 353.172 75.4822 351.258C72.8125 350.124 68.6987 349.851 65.9853 350.632Z" fill="#B0B0B0"/>
<path d="M122.004 350.632C117.408 352 113.251 356.142 112.288 360.323C111.194 364.895 113.688 369.858 118.503 372.788C123.185 375.68 128.525 375.719 133.251 372.906C140.997 368.295 142.048 359.698 135.571 353.954C131.851 350.593 126.511 349.304 122.004 350.632Z" fill="#B0B0B0"/>
<path d="M178.022 350.632C173.427 352 169.269 356.142 168.306 360.323C167.212 364.895 169.707 369.858 174.521 372.788C179.204 375.68 184.543 375.719 189.27 372.906C197.016 368.295 198.066 359.698 191.589 353.954C187.869 350.593 182.53 349.304 178.022 350.632Z" fill="#B0B0B0"/>
<path d="M234.041 350.632C227.432 352.586 222.968 359.073 224.325 364.778C225.419 369.428 230.277 373.765 235.485 374.742C243.931 376.344 252.728 369.193 251.853 361.495C251.371 357.393 247.914 353.172 243.537 351.258C240.868 350.124 236.754 349.851 234.041 350.632Z" fill="#B0B0B0"/>
<path d="M290.059 350.632C283.45 352.586 278.986 359.073 280.343 364.778C281.437 369.428 286.295 373.765 291.503 374.742C299.95 376.344 308.746 369.193 307.871 361.495C307.39 357.393 303.932 353.172 299.556 351.258C296.886 350.124 292.772 349.851 290.059 350.632Z" fill="#B0B0B0"/>
<path d="M346.077 350.632C339.469 352.586 335.005 359.073 336.362 364.778C337.456 369.428 342.314 373.765 347.522 374.742C355.968 376.344 364.765 369.193 363.889 361.495C363.408 357.393 359.951 353.172 355.574 351.258C352.905 350.124 348.791 349.851 346.077 350.632Z" fill="#B0B0B0"/>
<path d="M402.096 350.632C395.487 352.586 391.023 359.073 392.38 364.778C393.474 369.428 398.332 373.765 403.54 374.742C411.986 376.344 420.783 369.193 419.908 361.495C419.426 357.393 415.969 353.172 411.592 351.258C408.923 350.124 404.809 349.851 402.096 350.632Z" fill="#B0B0B0"/>
<path d="M458.114 350.632C453.519 352 449.361 356.142 448.398 360.323C446.516 368.373 455.532 376.422 464.547 374.742C471.331 373.492 476.583 367.318 475.926 361.495C475.445 357.393 471.987 353.172 467.611 351.258C464.941 350.124 460.827 349.851 458.114 350.632Z" fill="#B0B0B0"/>
<path d="M514.132 350.632C509.537 352 505.38 356.142 504.417 360.323C502.535 368.373 511.55 376.422 520.566 374.742C527.349 373.492 532.601 367.318 531.945 361.495C531.463 357.393 528.006 353.172 523.629 351.258C520.96 350.124 516.846 349.851 514.132 350.632Z" fill="#B0B0B0"/>
<path d="M9.96694 400.649C5.37168 402.017 1.21407 406.159 0.251249 410.34C-1.63062 418.39 7.38484 426.439 16.4003 424.759C23.1838 423.508 28.4355 417.335 27.779 411.512C27.2976 407.409 23.8402 403.189 19.4638 401.274C16.7942 400.141 12.6803 399.868 9.96694 400.649Z" fill="#B0B0B0"/>
<path d="M65.9853 400.649C61.39 402.017 57.2324 406.159 56.2696 410.34C54.3878 418.39 63.4032 426.439 72.4187 424.759C79.2021 423.508 84.4539 417.335 83.7974 411.512C83.316 407.409 79.8586 403.189 75.4822 401.274C72.8125 400.141 68.6987 399.868 65.9853 400.649Z" fill="#B0B0B0"/>
<path d="M122.004 400.649C117.408 402.017 113.251 406.159 112.288 410.34C111.194 414.912 113.688 419.874 118.503 422.805C123.185 425.697 128.525 425.736 133.251 422.922C140.997 418.311 142.048 409.715 135.571 403.971C131.851 400.61 126.511 399.321 122.004 400.649Z" fill="#B0B0B0"/>
<path d="M178.022 400.649C173.427 402.017 169.269 406.159 168.306 410.34C167.212 414.912 169.707 419.874 174.521 422.805C179.204 425.697 184.543 425.736 189.27 422.922C197.016 418.311 198.066 409.715 191.589 403.971C187.869 400.61 182.53 399.321 178.022 400.649Z" fill="#B0B0B0"/>
<path d="M234.04 400.649C229.445 402.017 225.288 406.159 224.325 410.34C222.443 418.39 231.458 426.439 240.474 424.759C247.257 423.508 252.509 417.335 251.853 411.512C251.371 407.409 247.914 403.189 243.537 401.274C240.868 400.141 236.754 399.868 234.04 400.649Z" fill="#B0B0B0"/>
<path d="M290.059 400.649C285.464 402.017 281.306 406.159 280.343 410.34C278.461 418.39 287.477 426.439 296.492 424.759C303.276 423.508 308.527 417.335 307.871 411.512C307.39 407.409 303.932 403.189 299.556 401.274C296.886 400.141 292.772 399.868 290.059 400.649Z" fill="#B0B0B0"/>
<path d="M346.077 400.649C341.482 402.017 337.324 406.159 336.362 410.34C334.48 418.39 343.495 426.439 352.511 424.759C359.294 423.508 364.546 417.335 363.889 411.512C363.408 407.409 359.951 403.189 355.574 401.274C352.905 400.141 348.791 399.868 346.077 400.649Z" fill="#B0B0B0"/>
<path d="M402.096 400.649C397.5 402.017 393.343 406.159 392.38 410.34C390.498 418.39 399.514 426.439 408.529 424.759C415.312 423.508 420.564 417.335 419.908 411.512C419.426 407.409 415.969 403.189 411.592 401.274C408.923 400.141 404.809 399.868 402.096 400.649Z" fill="#B0B0B0"/>
<path d="M458.114 400.649C453.519 402.017 449.361 406.159 448.398 410.34C446.516 418.39 455.532 426.439 464.547 424.759C471.331 423.508 476.583 417.335 475.926 411.512C475.445 407.409 471.987 403.189 467.611 401.274C464.941 400.141 460.827 399.868 458.114 400.649Z" fill="#B0B0B0"/>
<path d="M514.132 400.649C509.537 402.017 505.38 406.159 504.417 410.34C502.535 418.39 511.55 426.439 520.566 424.759C527.349 423.508 532.601 417.335 531.945 411.512C531.463 407.409 528.006 403.189 523.629 401.274C520.96 400.141 516.846 399.868 514.132 400.649Z" fill="#B0B0B0"/>
<path d="M9.96694 450.666C5.37168 452.034 1.21407 456.176 0.251249 460.357C-1.63062 468.406 7.38484 476.456 16.4003 474.776C23.1838 473.525 28.4355 467.351 27.779 461.529C27.2976 457.426 23.8402 453.206 19.4638 451.291C16.7942 450.158 12.6803 449.885 9.96694 450.666Z" fill="#B0B0B0"/>
<path d="M65.9853 450.666C61.39 452.034 57.2324 456.176 56.2696 460.357C54.3878 468.406 63.4032 476.456 72.4187 474.776C79.2021 473.525 84.4539 467.351 83.7974 461.529C83.316 457.426 79.8586 453.206 75.4822 451.291C72.8125 450.158 68.6987 449.885 65.9853 450.666Z" fill="#B0B0B0"/>
<path d="M122.004 450.666C117.408 452.034 113.251 456.176 112.288 460.357C110.406 468.406 119.422 476.456 128.437 474.776C135.221 473.525 140.472 467.351 139.816 461.529C139.334 457.426 135.877 453.206 131.501 451.291C128.831 450.158 124.717 449.885 122.004 450.666Z" fill="#B0B0B0"/>
<path d="M178.022 450.666C173.427 452.034 169.269 456.176 168.306 460.357C166.425 468.406 175.44 476.456 184.455 474.776C191.239 473.525 196.491 467.351 195.834 461.529C195.353 457.426 191.895 453.206 187.519 451.291C184.849 450.158 180.736 449.885 178.022 450.666Z" fill="#B0B0B0"/>
<path d="M234.04 450.666C229.445 452.034 225.288 456.176 224.325 460.357C222.443 468.406 231.458 476.456 240.474 474.776C247.257 473.525 252.509 467.351 251.853 461.529C251.371 457.426 247.914 453.206 243.537 451.291C240.868 450.158 236.754 449.885 234.04 450.666Z" fill="#B0B0B0"/>
<path d="M290.059 450.666C285.464 452.034 281.306 456.176 280.343 460.357C278.461 468.406 287.477 476.456 296.492 474.776C303.276 473.525 308.527 467.351 307.871 461.529C307.39 457.426 303.932 453.206 299.556 451.291C296.886 450.158 292.772 449.885 290.059 450.666Z" fill="#B0B0B0"/>
<path d="M346.077 450.666C341.482 452.034 337.324 456.176 336.362 460.357C334.48 468.406 343.495 476.456 352.511 474.776C359.294 473.525 364.546 467.351 363.889 461.529C363.408 457.426 359.951 453.206 355.574 451.291C352.905 450.158 348.791 449.885 346.077 450.666Z" fill="#B0B0B0"/>
<path d="M402.096 450.666C397.5 452.034 393.343 456.176 392.38 460.357C390.498 468.406 399.514 476.456 408.529 474.776C415.312 473.525 420.564 467.351 419.908 461.529C419.426 457.426 415.969 453.206 411.592 451.291C408.923 450.158 404.809 449.885 402.096 450.666Z" fill="#B0B0B0"/>
<path d="M458.114 450.666C453.519 452.034 449.361 456.176 448.398 460.357C446.516 468.406 455.532 476.456 464.547 474.776C471.331 473.525 476.583 467.351 475.926 461.529C475.445 457.426 471.987 453.206 467.611 451.291C464.941 450.158 460.827 449.885 458.114 450.666Z" fill="#B0B0B0"/>
<path d="M514.132 450.666C509.537 452.034 505.38 456.176 504.417 460.357C502.535 468.406 511.55 476.456 520.566 474.776C527.349 473.525 532.601 467.351 531.945 461.529C531.463 457.426 528.006 453.206 523.629 451.291C520.96 450.158 516.846 449.885 514.132 450.666Z" fill="#B0B0B0"/>
</g>
</g>
<defs>
<clipPath id="clip0_1_3">
<rect width="532" height="475" fill="white"/>
</clipPath>
</defs>
</svg>
