<svg width="59" height="58" viewBox="0 0 59 58" fill="none" xmlns="http://www.w3.org/2000/svg">
<path d="M29.4999 55.6666C44.2275 55.6666 56.1666 43.7275 56.1666 28.9999C56.1666 14.2723 44.2275 2.33325 29.4999 2.33325C14.7723 2.33325 2.83325 14.2723 2.83325 28.9999C2.83325 43.7275 14.7723 55.6666 29.4999 55.6666Z" stroke="white" stroke-width="4" stroke-linecap="round" stroke-linejoin="round"/>
<path d="M22.8333 20.9075C22.8333 19.6347 22.8333 18.9983 23.0992 18.6431C23.331 18.3335 23.6858 18.1397 24.0716 18.1122C24.5143 18.0806 25.0496 18.4247 26.1202 19.113L38.7085 27.2054C39.6375 27.8026 40.102 28.1013 40.2624 28.481C40.4026 28.8127 40.4026 29.1871 40.2624 29.5189C40.102 29.8986 39.6375 30.1972 38.7085 30.7944L26.1202 38.8869C25.0496 39.5751 24.5143 39.9193 24.0716 39.8876C23.6858 39.8601 23.331 39.6664 23.0992 39.3568C22.8333 39.0015 22.8333 38.3651 22.8333 37.0924V20.9075Z" stroke="white" stroke-width="4" stroke-linecap="round" stroke-linejoin="round"/>
</svg>
