<svg width="1427" height="852" viewBox="0 0 1427 852" fill="none" xmlns="http://www.w3.org/2000/svg">
<g clip-path="url(#clip0_125_412)">
<path d="M0 0H1427V852H0V0Z" fill="white"/>
<g opacity="0.427575">
<path d="M2.39806 724.139C1.29243 724.507 0.292106 725.623 0.0604509 726.75C-0.392329 728.919 1.7768 731.088 3.94594 730.636C5.57805 730.299 6.84162 728.635 6.68368 727.066C6.56785 725.96 5.736 724.823 4.68302 724.307C4.0407 724.002 3.05091 723.928 2.39806 724.139Z" fill="#D0D7D6"/>
<path d="M15.8761 724.139C14.2861 724.665 13.2121 726.413 13.5385 727.951C13.8018 729.204 14.9706 730.372 16.2131 730.636C18.2559 731.067 20.3723 729.14 20.1618 727.066C20.0459 725.96 19.2141 724.823 18.1611 724.307C17.5188 724.002 16.529 723.928 15.8761 724.139Z" fill="#D0D7D6"/>
<path d="M29.3544 724.139C28.2487 724.507 27.2484 725.623 27.0167 726.75C26.564 728.919 28.7331 731.088 30.9022 730.636C32.5344 730.299 33.7979 728.635 33.64 727.066C33.5241 725.96 32.6923 724.823 31.6393 724.307C30.997 724.002 30.0072 723.928 29.3544 724.139Z" fill="#D0D7D6"/>
<path d="M42.8324 724.139C41.7268 724.507 40.7264 725.623 40.4948 726.75C40.042 728.919 42.2111 731.088 44.3803 730.636C46.0124 730.299 47.276 728.635 47.118 727.066C47.0022 725.96 46.1703 724.823 45.1173 724.307C44.475 724.002 43.4852 723.928 42.8324 724.139Z" fill="#D0D7D6"/>
<path d="M56.3104 724.139C55.2048 724.507 54.2045 725.623 53.9728 726.75C53.52 728.919 55.6892 731.088 57.8583 730.636C59.4904 730.299 60.754 728.635 60.596 727.066C60.4802 725.96 59.6484 724.823 58.5954 724.307C57.9531 724.002 56.9633 723.928 56.3104 724.139Z" fill="#D0D7D6"/>
<path d="M69.7887 724.139C68.6831 724.507 67.6827 725.623 67.4511 726.75C66.9983 728.919 69.1674 731.088 71.3366 730.636C72.9687 730.299 74.2323 728.635 74.0743 727.066C73.9585 725.96 73.1266 724.823 72.0736 724.307C71.4313 724.002 70.4415 723.928 69.7887 724.139Z" fill="#D0D7D6"/>
<path d="M83.2667 724.139C82.1611 724.507 81.1608 725.623 80.9291 726.75C80.4763 728.919 82.6455 731.088 84.8146 730.636C86.4467 730.299 87.7103 728.635 87.5523 727.066C87.4365 725.96 86.6047 724.823 85.5517 724.307C84.9094 724.002 83.9196 723.928 83.2667 724.139Z" fill="#D0D7D6"/>
<path d="M96.7447 724.139C95.6391 724.507 94.6388 725.623 94.4071 726.75C93.9544 728.919 96.1235 731.088 98.2926 730.636C99.9247 730.299 101.188 728.635 101.03 727.066C100.915 725.96 100.083 724.823 99.0297 724.307C98.3874 724.002 97.3976 723.928 96.7447 724.139Z" fill="#D0D7D6"/>
<path d="M110.223 724.139C109.117 724.507 108.117 725.624 107.885 726.75C107.622 727.982 108.222 729.32 109.381 730.109C110.507 730.888 111.792 730.899 112.929 730.141C114.793 728.898 115.046 726.582 113.487 725.034C112.592 724.128 111.307 723.781 110.223 724.139Z" fill="#D0D7D6"/>
<path d="M123.701 724.139C122.595 724.507 121.595 725.624 121.363 726.75C121.1 727.982 121.7 729.32 122.859 730.109C123.985 730.888 125.27 730.899 126.407 730.141C128.271 728.898 128.524 726.582 126.965 725.034C126.07 724.128 124.785 723.781 123.701 724.139Z" fill="#D0D7D6"/>
<path d="M2.39806 737.617C1.29243 737.985 0.292106 739.102 0.0604509 740.228C-0.392329 742.398 1.7768 744.567 3.94594 744.114C5.57805 743.777 6.84162 742.113 6.68368 740.544C6.56785 739.439 5.736 738.301 4.68302 737.785C4.0407 737.48 3.05091 737.406 2.39806 737.617Z" fill="#D0D7D6"/>
<path d="M15.8761 737.617C14.2861 738.144 13.2121 739.891 13.5385 741.429C13.8018 742.682 14.9706 743.851 16.2131 744.114C18.2559 744.546 20.3723 742.619 20.1618 740.544C20.0459 739.439 19.2141 738.301 18.1611 737.786C17.5188 737.48 16.529 737.406 15.8761 737.617Z" fill="#D0D7D6"/>
<path d="M29.3544 737.617C28.2487 737.985 27.2484 739.102 27.0167 740.228C26.564 742.398 28.7331 744.567 30.9022 744.114C32.5344 743.777 33.7979 742.113 33.64 740.544C33.5241 739.439 32.6923 738.301 31.6393 737.785C30.997 737.48 30.0072 737.406 29.3544 737.617Z" fill="#D0D7D6"/>
<path d="M42.8324 737.617C41.7268 737.985 40.7264 739.102 40.4948 740.228C40.042 742.398 42.2111 744.567 44.3803 744.114C46.0124 743.777 47.276 742.113 47.118 740.544C47.0022 739.439 46.1703 738.301 45.1173 737.785C44.475 737.48 43.4852 737.406 42.8324 737.617Z" fill="#D0D7D6"/>
<path d="M56.3104 737.617C55.2048 737.985 54.2045 739.102 53.9728 740.228C53.52 742.398 55.6892 744.567 57.8583 744.114C59.4904 743.777 60.754 742.113 60.596 740.544C60.4802 739.439 59.6484 738.301 58.5954 737.785C57.9531 737.48 56.9633 737.406 56.3104 737.617Z" fill="#D0D7D6"/>
<path d="M69.7887 737.617C68.6831 737.985 67.6827 739.102 67.4511 740.228C66.9983 742.398 69.1674 744.567 71.3366 744.114C72.9687 743.777 74.2323 742.113 74.0743 740.544C73.9585 739.439 73.1266 738.301 72.0736 737.785C71.4313 737.48 70.4415 737.406 69.7887 737.617Z" fill="#D0D7D6"/>
<path d="M83.2667 737.617C82.1611 737.985 81.1608 739.102 80.9291 740.228C80.4763 742.398 82.6455 744.567 84.8146 744.114C86.4467 743.777 87.7103 742.113 87.5523 740.544C87.4365 739.439 86.6047 738.301 85.5517 737.785C84.9094 737.48 83.9196 737.406 83.2667 737.617Z" fill="#D0D7D6"/>
<path d="M96.7447 737.617C95.6391 737.985 94.6388 739.102 94.4071 740.228C93.9544 742.398 96.1235 744.567 98.2926 744.114C99.9247 743.777 101.188 742.113 101.03 740.544C100.915 739.439 100.083 738.301 99.0297 737.785C98.3874 737.48 97.3976 737.406 96.7447 737.617Z" fill="#D0D7D6"/>
<path d="M110.223 737.617C109.117 737.985 108.117 739.102 107.885 740.228C107.622 741.46 108.222 742.798 109.381 743.587C110.507 744.366 111.792 744.377 112.929 743.619C114.793 742.376 115.046 740.06 113.487 738.512C112.592 737.606 111.307 737.259 110.223 737.617Z" fill="#D0D7D6"/>
<path d="M123.701 737.617C122.595 737.985 121.595 739.102 121.363 740.228C121.1 741.46 121.7 742.798 122.859 743.587C123.985 744.366 125.27 744.377 126.407 743.619C128.271 742.376 128.524 740.06 126.965 738.512C126.07 737.606 124.785 737.259 123.701 737.617Z" fill="#D0D7D6"/>
<path d="M2.39806 751.095C1.29243 751.464 0.292106 752.58 0.0604509 753.707C-0.392329 755.876 1.7768 758.045 3.94594 757.592C5.57805 757.255 6.84162 755.591 6.68368 754.023C6.56785 752.917 5.736 751.78 4.68302 751.264C4.0407 750.958 3.05091 750.885 2.39806 751.095Z" fill="#D0D7D6"/>
<path d="M15.8761 751.095C14.7705 751.464 13.7701 752.58 13.5385 753.707C13.0857 755.876 15.2548 758.045 17.424 757.592C19.0561 757.255 20.3197 755.591 20.1617 754.023C20.0459 752.917 19.214 751.78 18.161 751.264C17.5187 750.958 16.5289 750.885 15.8761 751.095Z" fill="#D0D7D6"/>
<path d="M29.3544 751.095C28.2487 751.464 27.2484 752.58 27.0167 753.707C26.564 755.876 28.7331 758.045 30.9022 757.592C32.5344 757.255 33.7979 755.591 33.64 754.023C33.5241 752.917 32.6923 751.78 31.6393 751.264C30.997 750.958 30.0072 750.885 29.3544 751.095Z" fill="#D0D7D6"/>
<path d="M42.8324 751.095C41.7268 751.464 40.7264 752.58 40.4948 753.707C40.042 755.876 42.2111 758.045 44.3803 757.592C46.0124 757.255 47.276 755.591 47.118 754.023C47.0022 752.917 46.1703 751.78 45.1173 751.264C44.475 750.958 43.4852 750.885 42.8324 751.095Z" fill="#D0D7D6"/>
<path d="M56.3104 751.095C55.2048 751.464 54.2045 752.58 53.9728 753.707C53.52 755.876 55.6892 758.045 57.8583 757.592C59.4904 757.255 60.754 755.591 60.596 754.023C60.4802 752.917 59.6484 751.78 58.5954 751.264C57.9531 750.958 56.9633 750.885 56.3104 751.095Z" fill="#D0D7D6"/>
<path d="M69.7887 751.095C68.6831 751.464 67.6827 752.58 67.4511 753.707C66.9983 755.876 69.1674 758.045 71.3366 757.592C72.9687 757.255 74.2323 755.591 74.0743 754.023C73.9585 752.917 73.1266 751.78 72.0736 751.264C71.4313 750.958 70.4415 750.885 69.7887 751.095Z" fill="#D0D7D6"/>
<path d="M83.2667 751.095C82.1611 751.464 81.1608 752.58 80.9291 753.707C80.4763 755.876 82.6455 758.045 84.8146 757.592C86.4467 757.255 87.7103 755.591 87.5523 754.023C87.4365 752.917 86.6047 751.78 85.5517 751.264C84.9094 750.958 83.9196 750.885 83.2667 751.095Z" fill="#D0D7D6"/>
<path d="M96.7447 751.095C95.6391 751.464 94.6388 752.58 94.4071 753.707C93.9544 755.876 96.1235 758.045 98.2926 757.592C99.9247 757.255 101.188 755.591 101.03 754.023C100.915 752.917 100.083 751.78 99.0297 751.264C98.3874 750.958 97.3976 750.885 96.7447 751.095Z" fill="#D0D7D6"/>
<path d="M110.223 751.095C109.117 751.464 108.117 752.58 107.885 753.707C107.433 755.876 109.602 758.045 111.771 757.592C113.403 757.255 114.667 755.591 114.509 754.023C114.393 752.917 113.561 751.78 112.508 751.264C111.866 750.958 110.876 750.885 110.223 751.095Z" fill="#D0D7D6"/>
<path d="M123.701 751.095C122.595 751.464 121.595 752.58 121.363 753.707C120.911 755.876 123.08 758.045 125.249 757.592C126.881 757.255 128.145 755.591 127.987 754.023C127.871 752.917 127.039 751.78 125.986 751.264C125.344 750.958 124.354 750.885 123.701 751.095Z" fill="#D0D7D6"/>
<path d="M2.39806 764.573C1.29243 764.942 0.292106 766.058 0.0604509 767.185C-0.392329 769.354 1.7768 771.523 3.94594 771.07C5.57805 770.733 6.84162 769.07 6.68368 767.501C6.56785 766.395 5.736 765.258 4.68302 764.742C4.0407 764.437 3.05091 764.363 2.39806 764.573Z" fill="#D0D7D6"/>
<path d="M15.8761 764.573C14.7705 764.942 13.7701 766.058 13.5385 767.185C13.0857 769.354 15.2548 771.523 17.424 771.07C19.0561 770.733 20.3197 769.07 20.1617 767.501C20.0459 766.395 19.214 765.258 18.161 764.742C17.5187 764.437 16.5289 764.363 15.8761 764.573Z" fill="#D0D7D6"/>
<path d="M29.3544 764.573C28.2487 764.942 27.2484 766.058 27.0167 767.185C26.564 769.354 28.7331 771.523 30.9022 771.07C32.5344 770.733 33.7979 769.07 33.64 767.501C33.5241 766.395 32.6923 765.258 31.6393 764.742C30.997 764.437 30.0072 764.363 29.3544 764.573Z" fill="#D0D7D6"/>
<path d="M42.8324 764.573C41.7268 764.942 40.7264 766.058 40.4948 767.185C40.042 769.354 42.2111 771.523 44.3803 771.07C46.0124 770.733 47.276 769.07 47.118 767.501C47.0022 766.395 46.1703 765.258 45.1173 764.742C44.475 764.437 43.4852 764.363 42.8324 764.573Z" fill="#D0D7D6"/>
<path d="M56.3104 764.573C55.2048 764.942 54.2045 766.058 53.9728 767.185C53.52 769.354 55.6892 771.523 57.8583 771.07C59.4904 770.733 60.754 769.07 60.596 767.501C60.4802 766.395 59.6484 765.258 58.5954 764.742C57.9531 764.437 56.9633 764.363 56.3104 764.573Z" fill="#D0D7D6"/>
<path d="M69.7887 764.573C68.6831 764.942 67.6827 766.058 67.4511 767.185C66.9983 769.354 69.1674 771.523 71.3366 771.07C72.9687 770.733 74.2323 769.07 74.0743 767.501C73.9585 766.395 73.1266 765.258 72.0736 764.742C71.4313 764.437 70.4415 764.363 69.7887 764.573Z" fill="#D0D7D6"/>
<path d="M83.2667 764.573C82.1611 764.942 81.1608 766.058 80.9291 767.185C80.4763 769.354 82.6455 771.523 84.8146 771.07C86.4467 770.733 87.7103 769.07 87.5523 767.501C87.4365 766.395 86.6047 765.258 85.5517 764.742C84.9094 764.437 83.9196 764.363 83.2667 764.573Z" fill="#D0D7D6"/>
<path d="M96.7447 764.573C95.6391 764.942 94.6388 766.058 94.4071 767.185C93.9544 769.354 96.1235 771.523 98.2926 771.07C99.9247 770.733 101.188 769.07 101.03 767.501C100.915 766.395 100.083 765.258 99.0297 764.742C98.3874 764.437 97.3976 764.363 96.7447 764.573Z" fill="#D0D7D6"/>
<path d="M110.223 764.573C109.117 764.942 108.117 766.058 107.885 767.185C107.433 769.354 109.602 771.523 111.771 771.07C113.403 770.733 114.667 769.07 114.509 767.501C114.393 766.395 113.561 765.258 112.508 764.742C111.866 764.437 110.876 764.363 110.223 764.573Z" fill="#D0D7D6"/>
<path d="M123.701 764.573C122.595 764.942 121.595 766.058 121.363 767.185C120.911 769.354 123.08 771.523 125.249 771.07C126.881 770.733 128.145 769.07 127.987 767.501C127.871 766.395 127.039 765.258 125.986 764.742C125.344 764.437 124.354 764.363 123.701 764.573Z" fill="#D0D7D6"/>
<path d="M2.39806 778.052C1.29243 778.42 0.292106 779.536 0.0604509 780.663C-0.392329 782.832 1.7768 785.001 3.94594 784.548C5.57805 784.211 6.84162 782.548 6.68368 780.979C6.56785 779.873 5.736 778.736 4.68302 778.22C4.0407 777.915 3.05091 777.841 2.39806 778.052Z" fill="#D0D7D6"/>
<path d="M15.8761 778.052C14.7705 778.42 13.7701 779.536 13.5385 780.663C13.0857 782.832 15.2548 785.001 17.424 784.548C19.0561 784.211 20.3197 782.548 20.1617 780.979C20.0459 779.873 19.214 778.736 18.161 778.22C17.5187 777.915 16.5289 777.841 15.8761 778.052Z" fill="#D0D7D6"/>
<path d="M29.3544 778.052C28.2487 778.42 27.2484 779.536 27.0167 780.663C26.564 782.832 28.7331 785.001 30.9022 784.548C32.5344 784.211 33.7979 782.548 33.64 780.979C33.5241 779.873 32.6923 778.736 31.6393 778.22C30.997 777.915 30.0072 777.841 29.3544 778.052Z" fill="#D0D7D6"/>
<path d="M42.8324 778.052C41.7268 778.42 40.7264 779.536 40.4948 780.663C40.042 782.832 42.2111 785.001 44.3803 784.548C46.0124 784.211 47.276 782.548 47.118 780.979C47.0022 779.873 46.1703 778.736 45.1173 778.22C44.475 777.915 43.4852 777.841 42.8324 778.052Z" fill="#D0D7D6"/>
<path d="M56.3104 778.052C55.2048 778.42 54.2045 779.536 53.9728 780.663C53.52 782.832 55.6892 785.001 57.8583 784.548C59.4904 784.211 60.754 782.548 60.596 780.979C60.4802 779.873 59.6484 778.736 58.5954 778.22C57.9531 777.915 56.9633 777.841 56.3104 778.052Z" fill="#D0D7D6"/>
<path d="M69.7887 778.052C68.6831 778.42 67.6827 779.536 67.4511 780.663C66.9983 782.832 69.1674 785.001 71.3366 784.548C72.9687 784.211 74.2323 782.548 74.0743 780.979C73.9585 779.873 73.1266 778.736 72.0736 778.22C71.4313 777.915 70.4415 777.841 69.7887 778.052Z" fill="#D0D7D6"/>
<path d="M83.2667 778.052C82.1611 778.42 81.1608 779.536 80.9291 780.663C80.4763 782.832 82.6455 785.001 84.8146 784.548C86.4467 784.211 87.7103 782.548 87.5523 780.979C87.4365 779.873 86.6047 778.736 85.5517 778.22C84.9094 777.915 83.9196 777.841 83.2667 778.052Z" fill="#D0D7D6"/>
<path d="M96.7447 778.052C95.6391 778.42 94.6388 779.536 94.4071 780.663C93.9544 782.832 96.1235 785.001 98.2926 784.548C99.9247 784.211 101.188 782.548 101.03 780.979C100.915 779.873 100.083 778.736 99.0297 778.22C98.3874 777.915 97.3976 777.841 96.7447 778.052Z" fill="#D0D7D6"/>
<path d="M110.223 778.052C109.117 778.42 108.117 779.536 107.885 780.663C107.433 782.832 109.602 785.001 111.771 784.548C113.403 784.211 114.667 782.548 114.509 780.979C114.393 779.873 113.561 778.736 112.508 778.22C111.866 777.915 110.876 777.841 110.223 778.052Z" fill="#D0D7D6"/>
<path d="M123.701 778.052C122.595 778.42 121.595 779.536 121.363 780.663C120.911 782.832 123.08 785.001 125.249 784.548C126.881 784.211 128.145 782.548 127.987 780.979C127.871 779.873 127.039 778.736 125.986 778.22C125.344 777.915 124.354 777.841 123.701 778.052Z" fill="#D0D7D6"/>
<path d="M2.39806 791.53C1.29243 791.898 0.292106 793.014 0.0604509 794.141C-0.392329 796.31 1.7768 798.479 3.94594 798.027C5.57805 797.69 6.84162 796.026 6.68368 794.457C6.56785 793.351 5.736 792.214 4.68302 791.698C4.0407 791.393 3.05091 791.319 2.39806 791.53Z" fill="#D0D7D6"/>
<path d="M15.8761 791.53C14.7705 791.898 13.7701 793.014 13.5385 794.141C13.0857 796.31 15.2548 798.479 17.424 798.027C19.0561 797.69 20.3197 796.026 20.1617 794.457C20.0459 793.351 19.214 792.214 18.161 791.698C17.5187 791.393 16.5289 791.319 15.8761 791.53Z" fill="#D0D7D6"/>
<path d="M29.3544 791.53C28.2487 791.898 27.2484 793.014 27.0167 794.141C26.564 796.31 28.7331 798.479 30.9022 798.027C32.5344 797.69 33.7979 796.026 33.64 794.457C33.5241 793.351 32.6923 792.214 31.6393 791.698C30.997 791.393 30.0072 791.319 29.3544 791.53Z" fill="#D0D7D6"/>
<path d="M42.8324 791.53C41.7268 791.898 40.7264 793.014 40.4948 794.141C40.042 796.31 42.2111 798.479 44.3803 798.027C46.0124 797.69 47.276 796.026 47.118 794.457C47.0022 793.351 46.1703 792.214 45.1173 791.698C44.475 791.393 43.4852 791.319 42.8324 791.53Z" fill="#D0D7D6"/>
<path d="M56.3104 791.53C55.2048 791.898 54.2045 793.014 53.9728 794.141C53.52 796.31 55.6892 798.479 57.8583 798.027C59.4904 797.69 60.754 796.026 60.596 794.457C60.4802 793.351 59.6484 792.214 58.5954 791.698C57.9531 791.393 56.9633 791.319 56.3104 791.53Z" fill="#D0D7D6"/>
<path d="M69.7887 791.53C68.6831 791.898 67.6827 793.014 67.4511 794.141C66.9983 796.31 69.1674 798.479 71.3366 798.027C72.9687 797.69 74.2323 796.026 74.0743 794.457C73.9585 793.351 73.1266 792.214 72.0736 791.698C71.4313 791.393 70.4415 791.319 69.7887 791.53Z" fill="#D0D7D6"/>
<path d="M83.2667 791.53C82.1611 791.898 81.1608 793.014 80.9291 794.141C80.4763 796.31 82.6455 798.479 84.8146 798.027C86.4467 797.69 87.7103 796.026 87.5523 794.457C87.4365 793.351 86.6047 792.214 85.5517 791.698C84.9094 791.393 83.9196 791.319 83.2667 791.53Z" fill="#D0D7D6"/>
<path d="M96.7447 791.53C95.6391 791.898 94.6388 793.014 94.4071 794.141C93.9544 796.31 96.1235 798.479 98.2926 798.027C99.9247 797.69 101.188 796.026 101.03 794.457C100.915 793.351 100.083 792.214 99.0297 791.698C98.3874 791.393 97.3976 791.319 96.7447 791.53Z" fill="#D0D7D6"/>
<path d="M110.223 791.53C109.117 791.898 108.117 793.014 107.885 794.141C107.433 796.31 109.602 798.479 111.771 798.027C113.403 797.69 114.667 796.026 114.509 794.457C114.393 793.351 113.561 792.214 112.508 791.698C111.866 791.393 110.876 791.319 110.223 791.53Z" fill="#D0D7D6"/>
<path d="M123.701 791.53C122.595 791.898 121.595 793.014 121.363 794.141C120.911 796.31 123.08 798.479 125.249 798.027C126.881 797.69 128.145 796.026 127.987 794.457C127.871 793.351 127.039 792.214 125.986 791.698C125.344 791.393 124.354 791.319 123.701 791.53Z" fill="#D0D7D6"/>
<path d="M2.39806 805.008C1.29243 805.377 0.292106 806.493 0.0604509 807.619C-0.392329 809.789 1.7768 811.958 3.94594 811.505C5.57805 811.168 6.84162 809.504 6.68368 807.935C6.56785 806.83 5.736 805.692 4.68302 805.177C4.0407 804.871 3.05091 804.797 2.39806 805.008Z" fill="#D0D7D6"/>
<path d="M15.8761 805.008C14.7705 805.377 13.7701 806.493 13.5385 807.619C13.0857 809.789 15.2548 811.958 17.424 811.505C19.0561 811.168 20.3197 809.504 20.1617 807.935C20.0459 806.83 19.214 805.692 18.161 805.177C17.5187 804.871 16.5289 804.797 15.8761 805.008Z" fill="#D0D7D6"/>
<path d="M29.3543 805.008C28.2486 805.377 27.2483 806.493 27.0166 807.619C26.7534 808.851 27.3536 810.189 28.5119 810.978C29.6386 811.758 30.9232 811.768 32.0604 811.01C33.9242 809.767 34.1769 807.451 32.6185 805.903C31.7235 804.997 30.4388 804.65 29.3543 805.008Z" fill="#D0D7D6"/>
<path d="M42.8323 805.008C41.7267 805.377 40.7263 806.493 40.4947 807.619C40.2314 808.851 40.8316 810.189 41.9899 810.978C43.1166 811.758 44.4012 811.768 45.5384 811.01C47.4022 809.767 47.6549 807.451 46.0965 805.903C45.2015 804.997 43.9168 804.65 42.8323 805.008Z" fill="#D0D7D6"/>
<path d="M56.3105 805.008C54.7205 805.534 53.6464 807.282 53.9729 808.82C54.2361 810.073 55.4049 811.242 56.6579 811.505C58.6902 811.937 60.8067 810.01 60.5961 807.935C60.4803 806.83 59.6484 805.692 58.5954 805.176C57.9531 804.871 56.9633 804.797 56.3105 805.008Z" fill="#D0D7D6"/>
<path d="M69.7885 805.008C68.1985 805.534 67.1245 807.282 67.4509 808.82C67.7141 810.073 68.8829 811.242 70.136 811.505C72.1682 811.937 74.2847 810.01 74.0741 807.935C73.9583 806.83 73.1264 805.692 72.0735 805.176C71.4311 804.871 70.4413 804.797 69.7885 805.008Z" fill="#D0D7D6"/>
<path d="M83.2668 805.008C81.6768 805.534 80.6027 807.282 80.9292 808.82C81.1924 810.073 82.3612 811.242 83.6142 811.505C85.6465 811.937 87.763 810.01 87.5524 807.935C87.4366 806.83 86.6047 805.692 85.5517 805.176C84.9094 804.871 83.9196 804.797 83.2668 805.008Z" fill="#D0D7D6"/>
<path d="M96.7448 805.008C95.1548 805.534 94.0808 807.282 94.4072 808.82C94.6704 810.073 95.8392 811.242 97.0923 811.505C99.1245 811.937 101.241 810.01 101.03 807.935C100.915 806.83 100.083 805.692 99.0297 805.176C98.3874 804.871 97.3976 804.797 96.7448 805.008Z" fill="#D0D7D6"/>
<path d="M110.223 805.008C109.117 805.377 108.117 806.493 107.885 807.619C107.433 809.789 109.602 811.958 111.771 811.505C113.403 811.168 114.667 809.504 114.509 807.935C114.393 806.83 113.561 805.692 112.508 805.177C111.866 804.871 110.876 804.797 110.223 805.008Z" fill="#D0D7D6"/>
<path d="M123.701 805.008C122.595 805.377 121.595 806.493 121.363 807.619C120.911 809.789 123.08 811.958 125.249 811.505C126.881 811.168 128.145 809.504 127.987 807.935C127.871 806.83 127.039 805.692 125.986 805.177C125.344 804.871 124.354 804.797 123.701 805.008Z" fill="#D0D7D6"/>
<path d="M2.39806 818.486C1.29243 818.855 0.292106 819.971 0.0604509 821.098C-0.392329 823.267 1.7768 825.436 3.94594 824.983C5.57805 824.646 6.84162 822.983 6.68368 821.414C6.56785 820.308 5.736 819.171 4.68302 818.655C4.0407 818.349 3.05091 818.276 2.39806 818.486Z" fill="#D0D7D6"/>
<path d="M15.8761 818.486C14.7705 818.855 13.7701 819.971 13.5385 821.098C13.0857 823.267 15.2548 825.436 17.424 824.983C19.0561 824.646 20.3197 822.983 20.1617 821.414C20.0459 820.308 19.214 819.171 18.161 818.655C17.5187 818.349 16.5289 818.276 15.8761 818.486Z" fill="#D0D7D6"/>
<path d="M29.3543 818.486C28.2486 818.855 27.2483 819.971 27.0166 821.098C26.7534 822.33 27.3536 823.667 28.5119 824.457C29.6386 825.236 30.9232 825.246 32.0604 824.488C33.9242 823.246 34.1769 820.929 32.6185 819.381C31.7235 818.476 30.4388 818.128 29.3543 818.486Z" fill="#D0D7D6"/>
<path d="M42.8323 818.486C41.7267 818.855 40.7263 819.971 40.4947 821.098C40.2314 822.33 40.8316 823.667 41.9899 824.457C43.1166 825.236 44.4012 825.246 45.5384 824.488C47.4022 823.246 47.6549 820.929 46.0965 819.381C45.2015 818.476 43.9168 818.128 42.8323 818.486Z" fill="#D0D7D6"/>
<path d="M56.3105 818.486C54.7205 819.013 53.6464 820.761 53.9729 822.298C54.2361 823.551 55.4049 824.72 56.6579 824.983C58.6902 825.415 60.8067 823.488 60.5961 821.413C60.4803 820.308 59.6484 819.171 58.5954 818.655C57.9531 818.349 56.9633 818.276 56.3105 818.486Z" fill="#D0D7D6"/>
<path d="M69.7885 818.486C68.1985 819.013 67.1245 820.761 67.4509 822.298C67.7141 823.551 68.8829 824.72 70.136 824.983C72.1682 825.415 74.2847 823.488 74.0741 821.413C73.9583 820.308 73.1264 819.171 72.0735 818.655C71.4311 818.349 70.4413 818.276 69.7885 818.486Z" fill="#D0D7D6"/>
<path d="M83.2668 818.486C81.6768 819.013 80.6027 820.761 80.9292 822.298C81.1924 823.551 82.3612 824.72 83.6142 824.983C85.6465 825.415 87.763 823.488 87.5524 821.413C87.4366 820.308 86.6047 819.171 85.5517 818.655C84.9094 818.349 83.9196 818.276 83.2668 818.486Z" fill="#D0D7D6"/>
<path d="M96.7448 818.486C95.1548 819.013 94.0808 820.761 94.4072 822.298C94.6704 823.551 95.8392 824.72 97.0923 824.983C99.1245 825.415 101.241 823.488 101.03 821.413C100.915 820.308 100.083 819.171 99.0297 818.655C98.3874 818.349 97.3976 818.276 96.7448 818.486Z" fill="#D0D7D6"/>
<path d="M110.223 818.486C109.117 818.855 108.117 819.971 107.885 821.098C107.433 823.267 109.602 825.436 111.771 824.983C113.403 824.646 114.667 822.983 114.509 821.414C114.393 820.308 113.561 819.171 112.508 818.655C111.866 818.349 110.876 818.276 110.223 818.486Z" fill="#D0D7D6"/>
<path d="M123.701 818.486C122.595 818.855 121.595 819.971 121.363 821.098C120.911 823.267 123.08 825.436 125.249 824.983C126.881 824.646 128.145 822.983 127.987 821.414C127.871 820.308 127.039 819.171 125.986 818.655C125.344 818.349 124.354 818.276 123.701 818.486Z" fill="#D0D7D6"/>
<path d="M2.39806 831.964C1.29243 832.333 0.292106 833.449 0.0604509 834.576C-0.392329 836.745 1.7768 838.914 3.94594 838.461C5.57805 838.124 6.84162 836.461 6.68368 834.892C6.56785 833.786 5.736 832.649 4.68302 832.133C4.0407 831.827 3.05091 831.754 2.39806 831.964Z" fill="#D0D7D6"/>
<path d="M15.8761 831.964C14.7705 832.333 13.7701 833.449 13.5385 834.576C13.0857 836.745 15.2548 838.914 17.424 838.461C19.0561 838.124 20.3197 836.461 20.1617 834.892C20.0459 833.786 19.214 832.649 18.161 832.133C17.5187 831.827 16.5289 831.754 15.8761 831.964Z" fill="#D0D7D6"/>
<path d="M29.3543 831.965C28.2486 832.333 27.2483 833.449 27.0166 834.576C26.7534 835.808 27.3536 837.145 28.5119 837.935C29.6386 838.714 30.9232 838.725 32.0604 837.967C33.9242 836.724 34.1769 834.407 32.6185 832.86C31.7235 831.954 30.4388 831.606 29.3543 831.965Z" fill="#D0D7D6"/>
<path d="M42.8323 831.965C41.7267 832.333 40.7263 833.449 40.4947 834.576C40.2314 835.808 40.8316 837.145 41.9899 837.935C43.1166 838.714 44.4012 838.725 45.5384 837.967C47.4022 836.724 47.6549 834.407 46.0965 832.86C45.2015 831.954 43.9168 831.606 42.8323 831.965Z" fill="#D0D7D6"/>
<path d="M56.3104 831.964C55.2048 832.333 54.2045 833.449 53.9728 834.576C53.52 836.745 55.6892 838.914 57.8583 838.461C59.4904 838.124 60.754 836.461 60.596 834.892C60.4802 833.786 59.6484 832.649 58.5954 832.133C57.9531 831.827 56.9633 831.754 56.3104 831.964Z" fill="#D0D7D6"/>
<path d="M69.7887 831.964C68.6831 832.333 67.6827 833.449 67.4511 834.576C66.9983 836.745 69.1674 838.914 71.3366 838.461C72.9687 838.124 74.2323 836.461 74.0743 834.892C73.9585 833.786 73.1266 832.649 72.0736 832.133C71.4313 831.827 70.4415 831.754 69.7887 831.964Z" fill="#D0D7D6"/>
<path d="M83.2667 831.964C82.1611 832.333 81.1608 833.449 80.9291 834.576C80.4763 836.745 82.6455 838.914 84.8146 838.461C86.4467 838.124 87.7103 836.461 87.5523 834.892C87.4365 833.786 86.6047 832.649 85.5517 832.133C84.9094 831.827 83.9196 831.754 83.2667 831.964Z" fill="#D0D7D6"/>
<path d="M96.7447 831.964C95.6391 832.333 94.6388 833.449 94.4071 834.576C93.9544 836.745 96.1235 838.914 98.2926 838.461C99.9247 838.124 101.188 836.461 101.03 834.892C100.915 833.786 100.083 832.649 99.0297 832.133C98.3874 831.827 97.3976 831.754 96.7447 831.964Z" fill="#D0D7D6"/>
<path d="M110.223 831.964C109.117 832.333 108.117 833.449 107.885 834.576C107.433 836.745 109.602 838.914 111.771 838.461C113.403 838.124 114.667 836.461 114.509 834.892C114.393 833.786 113.561 832.649 112.508 832.133C111.866 831.827 110.876 831.754 110.223 831.964Z" fill="#D0D7D6"/>
<path d="M123.701 831.964C122.595 832.333 121.595 833.449 121.363 834.576C120.911 836.745 123.08 838.914 125.249 838.461C126.881 838.124 128.145 836.461 127.987 834.892C127.871 833.786 127.039 832.649 125.986 832.133C125.344 831.827 124.354 831.754 123.701 831.964Z" fill="#D0D7D6"/>
<path d="M2.39806 845.443C1.29243 845.811 0.292106 846.927 0.0604509 848.054C-0.392329 850.223 1.7768 852.392 3.94594 851.94C5.57805 851.603 6.84162 849.939 6.68368 848.37C6.56785 847.264 5.736 846.127 4.68302 845.611C4.0407 845.306 3.05091 845.232 2.39806 845.443Z" fill="#D0D7D6"/>
<path d="M15.8761 845.443C14.7705 845.811 13.7701 846.927 13.5385 848.054C13.0857 850.223 15.2548 852.392 17.424 851.94C19.0561 851.603 20.3197 849.939 20.1617 848.37C20.0459 847.264 19.214 846.127 18.161 845.611C17.5187 845.306 16.5289 845.232 15.8761 845.443Z" fill="#D0D7D6"/>
<path d="M29.3544 845.443C28.2487 845.811 27.2484 846.927 27.0167 848.054C26.564 850.223 28.7331 852.392 30.9022 851.94C32.5344 851.603 33.7979 849.939 33.64 848.37C33.5241 847.264 32.6923 846.127 31.6393 845.611C30.997 845.306 30.0072 845.232 29.3544 845.443Z" fill="#D0D7D6"/>
<path d="M42.8324 845.443C41.7268 845.811 40.7264 846.927 40.4948 848.054C40.042 850.223 42.2111 852.392 44.3803 851.94C46.0124 851.603 47.276 849.939 47.118 848.37C47.0022 847.264 46.1703 846.127 45.1173 845.611C44.475 845.306 43.4852 845.232 42.8324 845.443Z" fill="#D0D7D6"/>
<path d="M56.3104 845.443C55.2048 845.811 54.2045 846.927 53.9728 848.054C53.52 850.223 55.6892 852.392 57.8583 851.94C59.4904 851.603 60.754 849.939 60.596 848.37C60.4802 847.264 59.6484 846.127 58.5954 845.611C57.9531 845.306 56.9633 845.232 56.3104 845.443Z" fill="#D0D7D6"/>
<path d="M69.7887 845.443C68.6831 845.811 67.6827 846.927 67.4511 848.054C66.9983 850.223 69.1674 852.392 71.3366 851.94C72.9687 851.603 74.2323 849.939 74.0743 848.37C73.9585 847.264 73.1266 846.127 72.0736 845.611C71.4313 845.306 70.4415 845.232 69.7887 845.443Z" fill="#D0D7D6"/>
<path d="M83.2667 845.443C82.1611 845.811 81.1608 846.927 80.9291 848.054C80.4763 850.223 82.6455 852.392 84.8146 851.94C86.4467 851.603 87.7103 849.939 87.5523 848.37C87.4365 847.264 86.6047 846.127 85.5517 845.611C84.9094 845.306 83.9196 845.232 83.2667 845.443Z" fill="#D0D7D6"/>
<path d="M96.7447 845.443C95.6391 845.811 94.6388 846.927 94.4071 848.054C93.9544 850.223 96.1235 852.392 98.2926 851.94C99.9247 851.603 101.188 849.939 101.03 848.37C100.915 847.264 100.083 846.127 99.0297 845.611C98.3874 845.306 97.3976 845.232 96.7447 845.443Z" fill="#D0D7D6"/>
<path d="M110.223 845.443C109.117 845.811 108.117 846.927 107.885 848.054C107.433 850.223 109.602 852.392 111.771 851.94C113.403 851.603 114.667 849.939 114.509 848.37C114.393 847.264 113.561 846.127 112.508 845.611C111.866 845.306 110.876 845.232 110.223 845.443Z" fill="#D0D7D6"/>
<path d="M123.701 845.443C122.595 845.811 121.595 846.927 121.363 848.054C120.911 850.223 123.08 852.392 125.249 851.94C126.881 851.603 128.145 849.939 127.987 848.37C127.871 847.264 127.039 846.127 125.986 845.611C125.344 845.306 124.354 845.232 123.701 845.443Z" fill="#D0D7D6"/>
</g>
<g opacity="0.427575">
<path d="M1301.4 0.138844C1300.29 0.506844 1299.29 1.62287 1299.06 2.74987C1298.61 4.91887 1300.78 7.08785 1302.95 6.63585C1304.58 6.29885 1305.84 4.63485 1305.68 3.06585C1305.57 1.95985 1304.74 0.822874 1303.68 0.306874C1303.04 0.00187358 1302.05 -0.0721562 1301.4 0.138844Z" fill="#D0D7D6"/>
<path d="M1314.88 0.138844C1313.29 0.664844 1312.21 2.41286 1312.54 3.95086C1312.8 5.20386 1313.97 6.37185 1315.21 6.63585C1317.26 7.06685 1319.37 5.13985 1319.16 3.06585C1319.05 1.95985 1318.21 0.822874 1317.16 0.306874C1316.52 0.00187358 1315.53 -0.0721562 1314.88 0.138844Z" fill="#D0D7D6"/>
<path d="M1328.35 0.138844C1327.25 0.506844 1326.25 1.62287 1326.02 2.74987C1325.56 4.91887 1327.73 7.08785 1329.9 6.63585C1331.53 6.29885 1332.8 4.63485 1332.64 3.06585C1332.52 1.95985 1331.69 0.822874 1330.64 0.306874C1330 0.00187358 1329.01 -0.0721562 1328.35 0.138844Z" fill="#D0D7D6"/>
<path d="M1341.83 0.138844C1340.73 0.506844 1339.73 1.62287 1339.49 2.74987C1339.04 4.91887 1341.21 7.08785 1343.38 6.63585C1345.01 6.29885 1346.28 4.63485 1346.12 3.06585C1346 1.95985 1345.17 0.822874 1344.12 0.306874C1343.47 0.00187358 1342.49 -0.0721562 1341.83 0.138844Z" fill="#D0D7D6"/>
<path d="M1355.31 0.138844C1354.2 0.506844 1353.2 1.62287 1352.97 2.74987C1352.52 4.91887 1354.69 7.08785 1356.86 6.63585C1358.49 6.29885 1359.75 4.63485 1359.6 3.06585C1359.48 1.95985 1358.65 0.822874 1357.6 0.306874C1356.95 0.00187358 1355.96 -0.0721562 1355.31 0.138844Z" fill="#D0D7D6"/>
<path d="M1368.79 0.138844C1367.68 0.506844 1366.68 1.62287 1366.45 2.74987C1366 4.91887 1368.17 7.08785 1370.34 6.63585C1371.97 6.29885 1373.23 4.63485 1373.07 3.06585C1372.96 1.95985 1372.13 0.822874 1371.07 0.306874C1370.43 0.00187358 1369.44 -0.0721562 1368.79 0.138844Z" fill="#D0D7D6"/>
<path d="M1382.27 0.138844C1381.16 0.506844 1380.16 1.62287 1379.93 2.74987C1379.48 4.91887 1381.65 7.08785 1383.81 6.63585C1385.45 6.29885 1386.71 4.63485 1386.55 3.06585C1386.44 1.95985 1385.6 0.822874 1384.55 0.306874C1383.91 0.00187358 1382.92 -0.0721562 1382.27 0.138844Z" fill="#D0D7D6"/>
<path d="M1395.74 0.138844C1394.64 0.506844 1393.64 1.62287 1393.41 2.74987C1392.95 4.91887 1395.12 7.08785 1397.29 6.63585C1398.92 6.29885 1400.19 4.63485 1400.03 3.06585C1399.92 1.95985 1399.08 0.822874 1398.03 0.306874C1397.39 0.00187358 1396.4 -0.0721562 1395.74 0.138844Z" fill="#D0D7D6"/>
<path d="M1409.22 0.138831C1408.12 0.506831 1407.12 1.62385 1406.89 2.74985C1406.62 3.98185 1407.22 5.31986 1408.38 6.10886C1409.51 6.88786 1410.79 6.89884 1411.93 6.14084C1413.79 4.89784 1414.05 2.58185 1412.49 1.03385C1411.59 0.12785 1410.31 -0.219169 1409.22 0.138831Z" fill="#D0D7D6"/>
<path d="M1422.7 0.138831C1421.59 0.506831 1420.59 1.62385 1420.36 2.74985C1420.1 3.98185 1420.7 5.31986 1421.86 6.10886C1422.98 6.88786 1424.27 6.89884 1425.41 6.14084C1427.27 4.89784 1427.52 2.58185 1425.96 1.03385C1425.07 0.12785 1423.78 -0.219169 1422.7 0.138831Z" fill="#D0D7D6"/>
<path d="M1301.4 13.6169C1300.29 13.9849 1299.29 15.1019 1299.06 16.2279C1298.61 18.3979 1300.78 20.5669 1302.95 20.1139C1304.58 19.7769 1305.84 18.1129 1305.68 16.5439C1305.57 15.4389 1304.74 14.3009 1303.68 13.7849C1303.04 13.4799 1302.05 13.4059 1301.4 13.6169Z" fill="#D0D7D6"/>
<path d="M1314.88 13.6168C1313.29 14.1438 1312.21 15.8908 1312.54 17.4288C1312.8 18.6818 1313.97 19.8508 1315.21 20.1138C1317.26 20.5458 1319.37 18.6188 1319.16 16.5438C1319.05 15.4388 1318.21 14.3008 1317.16 13.7858C1316.52 13.4798 1315.53 13.4058 1314.88 13.6168Z" fill="#D0D7D6"/>
<path d="M1328.35 13.6169C1327.25 13.9849 1326.25 15.1019 1326.02 16.2279C1325.56 18.3979 1327.73 20.5669 1329.9 20.1139C1331.53 19.7769 1332.8 18.1129 1332.64 16.5439C1332.52 15.4389 1331.69 14.3009 1330.64 13.7849C1330 13.4799 1329.01 13.4059 1328.35 13.6169Z" fill="#D0D7D6"/>
<path d="M1341.83 13.6169C1340.73 13.9849 1339.73 15.1019 1339.49 16.2279C1339.04 18.3979 1341.21 20.5669 1343.38 20.1139C1345.01 19.7769 1346.28 18.1129 1346.12 16.5439C1346 15.4389 1345.17 14.3009 1344.12 13.7849C1343.47 13.4799 1342.49 13.4059 1341.83 13.6169Z" fill="#D0D7D6"/>
<path d="M1355.31 13.6169C1354.2 13.9849 1353.2 15.1019 1352.97 16.2279C1352.52 18.3979 1354.69 20.5669 1356.86 20.1139C1358.49 19.7769 1359.75 18.1129 1359.6 16.5439C1359.48 15.4389 1358.65 14.3009 1357.6 13.7849C1356.95 13.4799 1355.96 13.4059 1355.31 13.6169Z" fill="#D0D7D6"/>
<path d="M1368.79 13.6169C1367.68 13.9849 1366.68 15.1019 1366.45 16.2279C1366 18.3979 1368.17 20.5669 1370.34 20.1139C1371.97 19.7769 1373.23 18.1129 1373.07 16.5439C1372.96 15.4389 1372.13 14.3009 1371.07 13.7849C1370.43 13.4799 1369.44 13.4059 1368.79 13.6169Z" fill="#D0D7D6"/>
<path d="M1382.27 13.6169C1381.16 13.9849 1380.16 15.1019 1379.93 16.2279C1379.48 18.3979 1381.65 20.5669 1383.81 20.1139C1385.45 19.7769 1386.71 18.1129 1386.55 16.5439C1386.44 15.4389 1385.6 14.3009 1384.55 13.7849C1383.91 13.4799 1382.92 13.4059 1382.27 13.6169Z" fill="#D0D7D6"/>
<path d="M1395.74 13.6169C1394.64 13.9849 1393.64 15.1019 1393.41 16.2279C1392.95 18.3979 1395.12 20.5669 1397.29 20.1139C1398.92 19.7769 1400.19 18.1129 1400.03 16.5439C1399.92 15.4389 1399.08 14.3009 1398.03 13.7849C1397.39 13.4799 1396.4 13.4059 1395.74 13.6169Z" fill="#D0D7D6"/>
<path d="M1409.22 13.6169C1408.12 13.9849 1407.12 15.1019 1406.89 16.2279C1406.62 17.4599 1407.22 18.7978 1408.38 19.5868C1409.51 20.3658 1410.79 20.3769 1411.93 19.6189C1413.79 18.3759 1414.05 16.0599 1412.49 14.5119C1411.59 13.6059 1410.31 13.2589 1409.22 13.6169Z" fill="#D0D7D6"/>
<path d="M1422.7 13.6169C1421.59 13.9849 1420.59 15.1019 1420.36 16.2279C1420.1 17.4599 1420.7 18.7978 1421.86 19.5868C1422.98 20.3658 1424.27 20.3769 1425.41 19.6189C1427.27 18.3759 1427.52 16.0599 1425.96 14.5119C1425.07 13.6059 1423.78 13.2589 1422.7 13.6169Z" fill="#D0D7D6"/>
<path d="M1301.4 27.0949C1300.29 27.4639 1299.29 28.5799 1299.06 29.7069C1298.61 31.8759 1300.78 34.0449 1302.95 33.5919C1304.58 33.2549 1305.84 31.5909 1305.68 30.0229C1305.57 28.9169 1304.74 27.7799 1303.68 27.2639C1303.04 26.9579 1302.05 26.8849 1301.4 27.0949Z" fill="#D0D7D6"/>
<path d="M1314.88 27.0949C1313.77 27.4639 1312.77 28.5799 1312.54 29.7069C1312.09 31.8759 1314.25 34.0449 1316.42 33.5919C1318.06 33.2549 1319.32 31.5909 1319.16 30.0229C1319.05 28.9169 1318.21 27.7799 1317.16 27.2639C1316.52 26.9579 1315.53 26.8849 1314.88 27.0949Z" fill="#D0D7D6"/>
<path d="M1328.35 27.0949C1327.25 27.4639 1326.25 28.5799 1326.02 29.7069C1325.56 31.8759 1327.73 34.0449 1329.9 33.5919C1331.53 33.2549 1332.8 31.5909 1332.64 30.0229C1332.52 28.9169 1331.69 27.7799 1330.64 27.2639C1330 26.9579 1329.01 26.8849 1328.35 27.0949Z" fill="#D0D7D6"/>
<path d="M1341.83 27.0949C1340.73 27.4639 1339.73 28.5799 1339.49 29.7069C1339.04 31.8759 1341.21 34.0449 1343.38 33.5919C1345.01 33.2549 1346.28 31.5909 1346.12 30.0229C1346 28.9169 1345.17 27.7799 1344.12 27.2639C1343.47 26.9579 1342.49 26.8849 1341.83 27.0949Z" fill="#D0D7D6"/>
<path d="M1355.31 27.0949C1354.2 27.4639 1353.2 28.5799 1352.97 29.7069C1352.52 31.8759 1354.69 34.0449 1356.86 33.5919C1358.49 33.2549 1359.75 31.5909 1359.6 30.0229C1359.48 28.9169 1358.65 27.7799 1357.6 27.2639C1356.95 26.9579 1355.96 26.8849 1355.31 27.0949Z" fill="#D0D7D6"/>
<path d="M1368.79 27.0949C1367.68 27.4639 1366.68 28.5799 1366.45 29.7069C1366 31.8759 1368.17 34.0449 1370.34 33.5919C1371.97 33.2549 1373.23 31.5909 1373.07 30.0229C1372.96 28.9169 1372.13 27.7799 1371.07 27.2639C1370.43 26.9579 1369.44 26.8849 1368.79 27.0949Z" fill="#D0D7D6"/>
<path d="M1382.27 27.0949C1381.16 27.4639 1380.16 28.5799 1379.93 29.7069C1379.48 31.8759 1381.65 34.0449 1383.81 33.5919C1385.45 33.2549 1386.71 31.5909 1386.55 30.0229C1386.44 28.9169 1385.6 27.7799 1384.55 27.2639C1383.91 26.9579 1382.92 26.8849 1382.27 27.0949Z" fill="#D0D7D6"/>
<path d="M1395.74 27.0949C1394.64 27.4639 1393.64 28.5799 1393.41 29.7069C1392.95 31.8759 1395.12 34.0449 1397.29 33.5919C1398.92 33.2549 1400.19 31.5909 1400.03 30.0229C1399.92 28.9169 1399.08 27.7799 1398.03 27.2639C1397.39 26.9579 1396.4 26.8849 1395.74 27.0949Z" fill="#D0D7D6"/>
<path d="M1409.22 27.0949C1408.12 27.4639 1407.12 28.5799 1406.88 29.7069C1406.43 31.8759 1408.6 34.0449 1410.77 33.5919C1412.4 33.2549 1413.67 31.5909 1413.51 30.0229C1413.39 28.9169 1412.56 27.7799 1411.51 27.2639C1410.87 26.9579 1409.88 26.8849 1409.22 27.0949Z" fill="#D0D7D6"/>
<path d="M1422.7 27.0949C1421.59 27.4639 1420.59 28.5799 1420.36 29.7069C1419.91 31.8759 1422.08 34.0449 1424.25 33.5919C1425.88 33.2549 1427.14 31.5909 1426.99 30.0229C1426.87 28.9169 1426.04 27.7799 1424.99 27.2639C1424.34 26.9579 1423.35 26.8849 1422.7 27.0949Z" fill="#D0D7D6"/>
<path d="M1301.4 40.5729C1300.29 40.9419 1299.29 42.0579 1299.06 43.1849C1298.61 45.3539 1300.78 47.5229 1302.95 47.0699C1304.58 46.7329 1305.84 45.0699 1305.68 43.5009C1305.57 42.3949 1304.74 41.2579 1303.68 40.7419C1303.04 40.4369 1302.05 40.3629 1301.4 40.5729Z" fill="#D0D7D6"/>
<path d="M1314.88 40.5729C1313.77 40.9419 1312.77 42.0579 1312.54 43.1849C1312.09 45.3539 1314.25 47.5229 1316.42 47.0699C1318.06 46.7329 1319.32 45.0699 1319.16 43.5009C1319.05 42.3949 1318.21 41.2579 1317.16 40.7419C1316.52 40.4369 1315.53 40.3629 1314.88 40.5729Z" fill="#D0D7D6"/>
<path d="M1328.35 40.5729C1327.25 40.9419 1326.25 42.0579 1326.02 43.1849C1325.56 45.3539 1327.73 47.5229 1329.9 47.0699C1331.53 46.7329 1332.8 45.0699 1332.64 43.5009C1332.52 42.3949 1331.69 41.2579 1330.64 40.7419C1330 40.4369 1329.01 40.3629 1328.35 40.5729Z" fill="#D0D7D6"/>
<path d="M1341.83 40.5729C1340.73 40.9419 1339.73 42.0579 1339.49 43.1849C1339.04 45.3539 1341.21 47.5229 1343.38 47.0699C1345.01 46.7329 1346.28 45.0699 1346.12 43.5009C1346 42.3949 1345.17 41.2579 1344.12 40.7419C1343.47 40.4369 1342.49 40.3629 1341.83 40.5729Z" fill="#D0D7D6"/>
<path d="M1355.31 40.5729C1354.2 40.9419 1353.2 42.0579 1352.97 43.1849C1352.52 45.3539 1354.69 47.5229 1356.86 47.0699C1358.49 46.7329 1359.75 45.0699 1359.6 43.5009C1359.48 42.3949 1358.65 41.2579 1357.6 40.7419C1356.95 40.4369 1355.96 40.3629 1355.31 40.5729Z" fill="#D0D7D6"/>
<path d="M1368.79 40.5729C1367.68 40.9419 1366.68 42.0579 1366.45 43.1849C1366 45.3539 1368.17 47.5229 1370.34 47.0699C1371.97 46.7329 1373.23 45.0699 1373.07 43.5009C1372.96 42.3949 1372.13 41.2579 1371.07 40.7419C1370.43 40.4369 1369.44 40.3629 1368.79 40.5729Z" fill="#D0D7D6"/>
<path d="M1382.27 40.5729C1381.16 40.9419 1380.16 42.0579 1379.93 43.1849C1379.48 45.3539 1381.65 47.5229 1383.81 47.0699C1385.45 46.7329 1386.71 45.0699 1386.55 43.5009C1386.44 42.3949 1385.6 41.2579 1384.55 40.7419C1383.91 40.4369 1382.92 40.3629 1382.27 40.5729Z" fill="#D0D7D6"/>
<path d="M1395.74 40.5729C1394.64 40.9419 1393.64 42.0579 1393.41 43.1849C1392.95 45.3539 1395.12 47.5229 1397.29 47.0699C1398.92 46.7329 1400.19 45.0699 1400.03 43.5009C1399.92 42.3949 1399.08 41.2579 1398.03 40.7419C1397.39 40.4369 1396.4 40.3629 1395.74 40.5729Z" fill="#D0D7D6"/>
<path d="M1409.22 40.5729C1408.12 40.9419 1407.12 42.0579 1406.88 43.1849C1406.43 45.3539 1408.6 47.5229 1410.77 47.0699C1412.4 46.7329 1413.67 45.0699 1413.51 43.5009C1413.39 42.3949 1412.56 41.2579 1411.51 40.7419C1410.87 40.4369 1409.88 40.3629 1409.22 40.5729Z" fill="#D0D7D6"/>
<path d="M1422.7 40.5729C1421.59 40.9419 1420.59 42.0579 1420.36 43.1849C1419.91 45.3539 1422.08 47.5229 1424.25 47.0699C1425.88 46.7329 1427.14 45.0699 1426.99 43.5009C1426.87 42.3949 1426.04 41.2579 1424.99 40.7419C1424.34 40.4369 1423.35 40.3629 1422.7 40.5729Z" fill="#D0D7D6"/>
<path d="M1301.4 54.0519C1300.29 54.4199 1299.29 55.536 1299.06 56.663C1298.61 58.832 1300.78 61.0009 1302.95 60.5479C1304.58 60.2109 1305.84 58.548 1305.68 56.979C1305.57 55.873 1304.74 54.7359 1303.68 54.2199C1303.04 53.9149 1302.05 53.8409 1301.4 54.0519Z" fill="#D0D7D6"/>
<path d="M1314.88 54.0519C1313.77 54.4199 1312.77 55.536 1312.54 56.663C1312.09 58.832 1314.25 61.0009 1316.42 60.5479C1318.06 60.2109 1319.32 58.548 1319.16 56.979C1319.05 55.873 1318.21 54.7359 1317.16 54.2199C1316.52 53.9149 1315.53 53.8409 1314.88 54.0519Z" fill="#D0D7D6"/>
<path d="M1328.35 54.0519C1327.25 54.4199 1326.25 55.536 1326.02 56.663C1325.56 58.832 1327.73 61.0009 1329.9 60.5479C1331.53 60.2109 1332.8 58.548 1332.64 56.979C1332.52 55.873 1331.69 54.7359 1330.64 54.2199C1330 53.9149 1329.01 53.8409 1328.35 54.0519Z" fill="#D0D7D6"/>
<path d="M1341.83 54.0519C1340.73 54.4199 1339.73 55.536 1339.49 56.663C1339.04 58.832 1341.21 61.0009 1343.38 60.5479C1345.01 60.2109 1346.28 58.548 1346.12 56.979C1346 55.873 1345.17 54.7359 1344.12 54.2199C1343.47 53.9149 1342.49 53.8409 1341.83 54.0519Z" fill="#D0D7D6"/>
<path d="M1355.31 54.0519C1354.2 54.4199 1353.2 55.536 1352.97 56.663C1352.52 58.832 1354.69 61.0009 1356.86 60.5479C1358.49 60.2109 1359.75 58.548 1359.6 56.979C1359.48 55.873 1358.65 54.7359 1357.6 54.2199C1356.95 53.9149 1355.96 53.8409 1355.31 54.0519Z" fill="#D0D7D6"/>
<path d="M1368.79 54.0519C1367.68 54.4199 1366.68 55.536 1366.45 56.663C1366 58.832 1368.17 61.0009 1370.34 60.5479C1371.97 60.2109 1373.23 58.548 1373.07 56.979C1372.96 55.873 1372.13 54.7359 1371.07 54.2199C1370.43 53.9149 1369.44 53.8409 1368.79 54.0519Z" fill="#D0D7D6"/>
<path d="M1382.27 54.0519C1381.16 54.4199 1380.16 55.536 1379.93 56.663C1379.48 58.832 1381.65 61.0009 1383.81 60.5479C1385.45 60.2109 1386.71 58.548 1386.55 56.979C1386.44 55.873 1385.6 54.7359 1384.55 54.2199C1383.91 53.9149 1382.92 53.8409 1382.27 54.0519Z" fill="#D0D7D6"/>
<path d="M1395.74 54.0519C1394.64 54.4199 1393.64 55.536 1393.41 56.663C1392.95 58.832 1395.12 61.0009 1397.29 60.5479C1398.92 60.2109 1400.19 58.548 1400.03 56.979C1399.92 55.873 1399.08 54.7359 1398.03 54.2199C1397.39 53.9149 1396.4 53.8409 1395.74 54.0519Z" fill="#D0D7D6"/>
<path d="M1409.22 54.0519C1408.12 54.4199 1407.12 55.536 1406.88 56.663C1406.43 58.832 1408.6 61.0009 1410.77 60.5479C1412.4 60.2109 1413.67 58.548 1413.51 56.979C1413.39 55.873 1412.56 54.7359 1411.51 54.2199C1410.87 53.9149 1409.88 53.8409 1409.22 54.0519Z" fill="#D0D7D6"/>
<path d="M1422.7 54.0519C1421.59 54.4199 1420.59 55.536 1420.36 56.663C1419.91 58.832 1422.08 61.0009 1424.25 60.5479C1425.88 60.2109 1427.14 58.548 1426.99 56.979C1426.87 55.873 1426.04 54.7359 1424.99 54.2199C1424.34 53.9149 1423.35 53.8409 1422.7 54.0519Z" fill="#D0D7D6"/>
<path d="M1301.4 67.53C1300.29 67.898 1299.29 69.0139 1299.06 70.1409C1298.61 72.3099 1300.78 74.4789 1302.95 74.0269C1304.58 73.6899 1305.84 72.0259 1305.68 70.4569C1305.57 69.3509 1304.74 68.2139 1303.68 67.6979C1303.04 67.3929 1302.05 67.319 1301.4 67.53Z" fill="#D0D7D6"/>
<path d="M1314.88 67.53C1313.77 67.898 1312.77 69.0139 1312.54 70.1409C1312.09 72.3099 1314.25 74.4789 1316.42 74.0269C1318.06 73.6899 1319.32 72.0259 1319.16 70.4569C1319.05 69.3509 1318.21 68.2139 1317.16 67.6979C1316.52 67.3929 1315.53 67.319 1314.88 67.53Z" fill="#D0D7D6"/>
<path d="M1328.35 67.53C1327.25 67.898 1326.25 69.0139 1326.02 70.1409C1325.56 72.3099 1327.73 74.4789 1329.9 74.0269C1331.53 73.6899 1332.8 72.0259 1332.64 70.4569C1332.52 69.3509 1331.69 68.2139 1330.64 67.6979C1330 67.3929 1329.01 67.319 1328.35 67.53Z" fill="#D0D7D6"/>
<path d="M1341.83 67.53C1340.73 67.898 1339.73 69.0139 1339.49 70.1409C1339.04 72.3099 1341.21 74.4789 1343.38 74.0269C1345.01 73.6899 1346.28 72.0259 1346.12 70.4569C1346 69.3509 1345.17 68.2139 1344.12 67.6979C1343.47 67.3929 1342.49 67.319 1341.83 67.53Z" fill="#D0D7D6"/>
<path d="M1355.31 67.53C1354.2 67.898 1353.2 69.0139 1352.97 70.1409C1352.52 72.3099 1354.69 74.4789 1356.86 74.0269C1358.49 73.6899 1359.75 72.0259 1359.6 70.4569C1359.48 69.3509 1358.65 68.2139 1357.6 67.6979C1356.95 67.3929 1355.96 67.319 1355.31 67.53Z" fill="#D0D7D6"/>
<path d="M1368.79 67.53C1367.68 67.898 1366.68 69.0139 1366.45 70.1409C1366 72.3099 1368.17 74.4789 1370.34 74.0269C1371.97 73.6899 1373.23 72.0259 1373.07 70.4569C1372.96 69.3509 1372.13 68.2139 1371.07 67.6979C1370.43 67.3929 1369.44 67.319 1368.79 67.53Z" fill="#D0D7D6"/>
<path d="M1382.27 67.53C1381.16 67.898 1380.16 69.0139 1379.93 70.1409C1379.48 72.3099 1381.65 74.4789 1383.81 74.0269C1385.45 73.6899 1386.71 72.0259 1386.55 70.4569C1386.44 69.3509 1385.6 68.2139 1384.55 67.6979C1383.91 67.3929 1382.92 67.319 1382.27 67.53Z" fill="#D0D7D6"/>
<path d="M1395.74 67.53C1394.64 67.898 1393.64 69.0139 1393.41 70.1409C1392.95 72.3099 1395.12 74.4789 1397.29 74.0269C1398.92 73.6899 1400.19 72.0259 1400.03 70.4569C1399.92 69.3509 1399.08 68.2139 1398.03 67.6979C1397.39 67.3929 1396.4 67.319 1395.74 67.53Z" fill="#D0D7D6"/>
<path d="M1409.22 67.53C1408.12 67.898 1407.12 69.0139 1406.88 70.1409C1406.43 72.3099 1408.6 74.4789 1410.77 74.0269C1412.4 73.6899 1413.67 72.0259 1413.51 70.4569C1413.39 69.3509 1412.56 68.2139 1411.51 67.6979C1410.87 67.3929 1409.88 67.319 1409.22 67.53Z" fill="#D0D7D6"/>
<path d="M1422.7 67.53C1421.59 67.898 1420.59 69.0139 1420.36 70.1409C1419.91 72.3099 1422.08 74.4789 1424.25 74.0269C1425.88 73.6899 1427.14 72.0259 1426.99 70.4569C1426.87 69.3509 1426.04 68.2139 1424.99 67.6979C1424.34 67.3929 1423.35 67.319 1422.7 67.53Z" fill="#D0D7D6"/>
<path d="M1301.4 81.0079C1300.29 81.3769 1299.29 82.493 1299.06 83.619C1298.61 85.789 1300.78 87.9579 1302.95 87.5049C1304.58 87.1679 1305.84 85.5039 1305.68 83.9349C1305.57 82.8299 1304.74 81.6919 1303.68 81.1769C1303.04 80.8709 1302.05 80.7969 1301.4 81.0079Z" fill="#D0D7D6"/>
<path d="M1314.88 81.0079C1313.77 81.3769 1312.77 82.493 1312.54 83.619C1312.09 85.789 1314.25 87.9579 1316.42 87.5049C1318.06 87.1679 1319.32 85.5039 1319.16 83.9349C1319.05 82.8299 1318.21 81.6919 1317.16 81.1769C1316.52 80.8709 1315.53 80.7969 1314.88 81.0079Z" fill="#D0D7D6"/>
<path d="M1328.35 81.008C1327.25 81.377 1326.25 82.493 1326.02 83.619C1325.75 84.851 1326.35 86.189 1327.51 86.978C1328.64 87.758 1329.92 87.768 1331.06 87.01C1332.92 85.767 1333.18 83.451 1331.62 81.903C1330.72 80.997 1329.44 80.65 1328.35 81.008Z" fill="#D0D7D6"/>
<path d="M1341.83 81.008C1340.73 81.377 1339.73 82.493 1339.49 83.619C1339.23 84.851 1339.83 86.189 1340.99 86.978C1342.12 87.758 1343.4 87.768 1344.54 87.01C1346.4 85.767 1346.65 83.451 1345.1 81.903C1344.2 80.997 1342.92 80.65 1341.83 81.008Z" fill="#D0D7D6"/>
<path d="M1355.31 81.0077C1353.72 81.5337 1352.65 83.2818 1352.97 84.8198C1353.24 86.0728 1354.4 87.2417 1355.66 87.5047C1357.69 87.9367 1359.81 86.0097 1359.6 83.9347C1359.48 82.8297 1358.65 81.6918 1357.6 81.1758C1356.95 80.8708 1355.96 80.7967 1355.31 81.0077Z" fill="#D0D7D6"/>
<path d="M1368.79 81.0077C1367.2 81.5337 1366.12 83.2818 1366.45 84.8198C1366.71 86.0728 1367.88 87.2417 1369.14 87.5047C1371.17 87.9367 1373.28 86.0097 1373.07 83.9347C1372.96 82.8297 1372.13 81.6918 1371.07 81.1758C1370.43 80.8708 1369.44 80.7967 1368.79 81.0077Z" fill="#D0D7D6"/>
<path d="M1382.27 81.0077C1380.68 81.5337 1379.6 83.2818 1379.93 84.8198C1380.19 86.0728 1381.36 87.2417 1382.61 87.5047C1384.65 87.9367 1386.76 86.0097 1386.55 83.9347C1386.44 82.8297 1385.6 81.6918 1384.55 81.1758C1383.91 80.8708 1382.92 80.7967 1382.27 81.0077Z" fill="#D0D7D6"/>
<path d="M1395.74 81.0077C1394.15 81.5337 1393.08 83.2818 1393.41 84.8198C1393.67 86.0728 1394.84 87.2417 1396.09 87.5047C1398.12 87.9367 1400.24 86.0097 1400.03 83.9347C1399.91 82.8297 1399.08 81.6918 1398.03 81.1758C1397.39 80.8708 1396.4 80.7967 1395.74 81.0077Z" fill="#D0D7D6"/>
<path d="M1409.22 81.0079C1408.12 81.3769 1407.12 82.493 1406.88 83.619C1406.43 85.789 1408.6 87.9579 1410.77 87.5049C1412.4 87.1679 1413.67 85.5039 1413.51 83.9349C1413.39 82.8299 1412.56 81.6919 1411.51 81.1769C1410.87 80.8709 1409.88 80.7969 1409.22 81.0079Z" fill="#D0D7D6"/>
<path d="M1422.7 81.0079C1421.59 81.3769 1420.59 82.493 1420.36 83.619C1419.91 85.789 1422.08 87.9579 1424.25 87.5049C1425.88 87.1679 1427.14 85.5039 1426.99 83.9349C1426.87 82.8299 1426.04 81.6919 1424.99 81.1769C1424.34 80.8709 1423.35 80.7969 1422.7 81.0079Z" fill="#D0D7D6"/>
<path d="M1301.4 94.4858C1300.29 94.8548 1299.29 95.9708 1299.06 97.0978C1298.61 99.2668 1300.78 101.436 1302.95 100.983C1304.58 100.646 1305.84 98.9827 1305.68 97.4137C1305.57 96.3077 1304.74 95.1708 1303.68 94.6548C1303.04 94.3488 1302.05 94.2758 1301.4 94.4858Z" fill="#D0D7D6"/>
<path d="M1314.88 94.4858C1313.77 94.8548 1312.77 95.9708 1312.54 97.0978C1312.09 99.2668 1314.25 101.436 1316.42 100.983C1318.06 100.646 1319.32 98.9827 1319.16 97.4137C1319.05 96.3077 1318.21 95.1708 1317.16 94.6548C1316.52 94.3488 1315.53 94.2758 1314.88 94.4858Z" fill="#D0D7D6"/>
<path d="M1328.35 94.4859C1327.25 94.8549 1326.25 95.9709 1326.02 97.0979C1325.75 98.3299 1326.35 99.6668 1327.51 100.457C1328.64 101.236 1329.92 101.246 1331.06 100.488C1332.92 99.2458 1333.18 96.9288 1331.62 95.3808C1330.72 94.4758 1329.44 94.1279 1328.35 94.4859Z" fill="#D0D7D6"/>
<path d="M1341.83 94.4859C1340.73 94.8549 1339.73 95.9709 1339.49 97.0979C1339.23 98.3299 1339.83 99.6668 1340.99 100.457C1342.12 101.236 1343.4 101.246 1344.54 100.488C1346.4 99.2458 1346.65 96.9288 1345.1 95.3808C1344.2 94.4758 1342.92 94.1279 1341.83 94.4859Z" fill="#D0D7D6"/>
<path d="M1355.31 94.4858C1353.72 95.0128 1352.65 96.7607 1352.97 98.2977C1353.24 99.5507 1354.4 100.72 1355.66 100.983C1357.69 101.415 1359.81 99.4878 1359.6 97.4128C1359.48 96.3078 1358.65 95.1708 1357.6 94.6548C1356.95 94.3488 1355.96 94.2758 1355.31 94.4858Z" fill="#D0D7D6"/>
<path d="M1368.79 94.4858C1367.2 95.0128 1366.12 96.7607 1366.45 98.2977C1366.71 99.5507 1367.88 100.72 1369.14 100.983C1371.17 101.415 1373.28 99.4878 1373.07 97.4128C1372.96 96.3078 1372.13 95.1708 1371.07 94.6548C1370.43 94.3488 1369.44 94.2758 1368.79 94.4858Z" fill="#D0D7D6"/>
<path d="M1382.27 94.4858C1380.68 95.0128 1379.6 96.7607 1379.93 98.2977C1380.19 99.5507 1381.36 100.72 1382.61 100.983C1384.65 101.415 1386.76 99.4878 1386.55 97.4128C1386.44 96.3078 1385.6 95.1708 1384.55 94.6548C1383.91 94.3488 1382.92 94.2758 1382.27 94.4858Z" fill="#D0D7D6"/>
<path d="M1395.74 94.4858C1394.15 95.0128 1393.08 96.7607 1393.41 98.2977C1393.67 99.5507 1394.84 100.72 1396.09 100.983C1398.12 101.415 1400.24 99.4878 1400.03 97.4128C1399.91 96.3078 1399.08 95.1708 1398.03 94.6548C1397.39 94.3488 1396.4 94.2758 1395.74 94.4858Z" fill="#D0D7D6"/>
<path d="M1409.22 94.4858C1408.12 94.8548 1407.12 95.9708 1406.88 97.0978C1406.43 99.2668 1408.6 101.436 1410.77 100.983C1412.4 100.646 1413.67 98.9827 1413.51 97.4137C1413.39 96.3077 1412.56 95.1708 1411.51 94.6548C1410.87 94.3488 1409.88 94.2758 1409.22 94.4858Z" fill="#D0D7D6"/>
<path d="M1422.7 94.4858C1421.59 94.8548 1420.59 95.9708 1420.36 97.0978C1419.91 99.2668 1422.08 101.436 1424.25 100.983C1425.88 100.646 1427.14 98.9827 1426.99 97.4137C1426.87 96.3077 1426.04 95.1708 1424.99 94.6548C1424.34 94.3488 1423.35 94.2758 1422.7 94.4858Z" fill="#D0D7D6"/>
<path d="M1301.4 107.964C1300.29 108.333 1299.29 109.449 1299.06 110.576C1298.61 112.745 1300.78 114.914 1302.95 114.461C1304.58 114.124 1305.84 112.461 1305.68 110.892C1305.57 109.786 1304.74 108.649 1303.68 108.133C1303.04 107.827 1302.05 107.754 1301.4 107.964Z" fill="#D0D7D6"/>
<path d="M1314.88 107.964C1313.77 108.333 1312.77 109.449 1312.54 110.576C1312.09 112.745 1314.25 114.914 1316.42 114.461C1318.06 114.124 1319.32 112.461 1319.16 110.892C1319.05 109.786 1318.21 108.649 1317.16 108.133C1316.52 107.827 1315.53 107.754 1314.88 107.964Z" fill="#D0D7D6"/>
<path d="M1328.35 107.965C1327.25 108.333 1326.25 109.449 1326.02 110.576C1325.75 111.808 1326.35 113.145 1327.51 113.935C1328.64 114.714 1329.92 114.725 1331.06 113.967C1332.92 112.724 1333.18 110.407 1331.62 108.86C1330.72 107.954 1329.44 107.606 1328.35 107.965Z" fill="#D0D7D6"/>
<path d="M1341.83 107.965C1340.73 108.333 1339.73 109.449 1339.49 110.576C1339.23 111.808 1339.83 113.145 1340.99 113.935C1342.12 114.714 1343.4 114.725 1344.54 113.967C1346.4 112.724 1346.65 110.407 1345.1 108.86C1344.2 107.954 1342.92 107.606 1341.83 107.965Z" fill="#D0D7D6"/>
<path d="M1355.31 107.964C1354.2 108.333 1353.2 109.449 1352.97 110.576C1352.52 112.745 1354.69 114.914 1356.86 114.461C1358.49 114.124 1359.75 112.461 1359.6 110.892C1359.48 109.786 1358.65 108.649 1357.6 108.133C1356.95 107.827 1355.96 107.754 1355.31 107.964Z" fill="#D0D7D6"/>
<path d="M1368.79 107.964C1367.68 108.333 1366.68 109.449 1366.45 110.576C1366 112.745 1368.17 114.914 1370.34 114.461C1371.97 114.124 1373.23 112.461 1373.07 110.892C1372.96 109.786 1372.13 108.649 1371.07 108.133C1370.43 107.827 1369.44 107.754 1368.79 107.964Z" fill="#D0D7D6"/>
<path d="M1382.27 107.964C1381.16 108.333 1380.16 109.449 1379.93 110.576C1379.48 112.745 1381.65 114.914 1383.81 114.461C1385.45 114.124 1386.71 112.461 1386.55 110.892C1386.44 109.786 1385.6 108.649 1384.55 108.133C1383.91 107.827 1382.92 107.754 1382.27 107.964Z" fill="#D0D7D6"/>
<path d="M1395.74 107.964C1394.64 108.333 1393.64 109.449 1393.41 110.576C1392.95 112.745 1395.12 114.914 1397.29 114.461C1398.92 114.124 1400.19 112.461 1400.03 110.892C1399.92 109.786 1399.08 108.649 1398.03 108.133C1397.39 107.827 1396.4 107.754 1395.74 107.964Z" fill="#D0D7D6"/>
<path d="M1409.22 107.964C1408.12 108.333 1407.12 109.449 1406.88 110.576C1406.43 112.745 1408.6 114.914 1410.77 114.461C1412.4 114.124 1413.67 112.461 1413.51 110.892C1413.39 109.786 1412.56 108.649 1411.51 108.133C1410.87 107.827 1409.88 107.754 1409.22 107.964Z" fill="#D0D7D6"/>
<path d="M1422.7 107.964C1421.59 108.333 1420.59 109.449 1420.36 110.576C1419.91 112.745 1422.08 114.914 1424.25 114.461C1425.88 114.124 1427.14 112.461 1426.99 110.892C1426.87 109.786 1426.04 108.649 1424.99 108.133C1424.34 107.827 1423.35 107.754 1422.7 107.964Z" fill="#D0D7D6"/>
<path d="M1301.4 121.443C1300.29 121.811 1299.29 122.927 1299.06 124.054C1298.61 126.223 1300.78 128.392 1302.95 127.94C1304.58 127.603 1305.84 125.939 1305.68 124.37C1305.57 123.264 1304.74 122.127 1303.68 121.611C1303.04 121.306 1302.05 121.232 1301.4 121.443Z" fill="#D0D7D6"/>
<path d="M1314.88 121.443C1313.77 121.811 1312.77 122.927 1312.54 124.054C1312.09 126.223 1314.25 128.392 1316.42 127.94C1318.06 127.603 1319.32 125.939 1319.16 124.37C1319.05 123.264 1318.21 122.127 1317.16 121.611C1316.52 121.306 1315.53 121.232 1314.88 121.443Z" fill="#D0D7D6"/>
<path d="M1328.35 121.443C1327.25 121.811 1326.25 122.927 1326.02 124.054C1325.56 126.223 1327.73 128.392 1329.9 127.94C1331.53 127.603 1332.8 125.939 1332.64 124.37C1332.52 123.264 1331.69 122.127 1330.64 121.611C1330 121.306 1329.01 121.232 1328.35 121.443Z" fill="#D0D7D6"/>
<path d="M1341.83 121.443C1340.73 121.811 1339.73 122.927 1339.49 124.054C1339.04 126.223 1341.21 128.392 1343.38 127.94C1345.01 127.603 1346.28 125.939 1346.12 124.37C1346 123.264 1345.17 122.127 1344.12 121.611C1343.47 121.306 1342.49 121.232 1341.83 121.443Z" fill="#D0D7D6"/>
<path d="M1355.31 121.443C1354.2 121.811 1353.2 122.927 1352.97 124.054C1352.52 126.223 1354.69 128.392 1356.86 127.94C1358.49 127.603 1359.75 125.939 1359.6 124.37C1359.48 123.264 1358.65 122.127 1357.6 121.611C1356.95 121.306 1355.96 121.232 1355.31 121.443Z" fill="#D0D7D6"/>
<path d="M1368.79 121.443C1367.68 121.811 1366.68 122.927 1366.45 124.054C1366 126.223 1368.17 128.392 1370.34 127.94C1371.97 127.603 1373.23 125.939 1373.07 124.37C1372.96 123.264 1372.13 122.127 1371.07 121.611C1370.43 121.306 1369.44 121.232 1368.79 121.443Z" fill="#D0D7D6"/>
<path d="M1382.27 121.443C1381.16 121.811 1380.16 122.927 1379.93 124.054C1379.48 126.223 1381.65 128.392 1383.81 127.94C1385.45 127.603 1386.71 125.939 1386.55 124.37C1386.44 123.264 1385.6 122.127 1384.55 121.611C1383.91 121.306 1382.92 121.232 1382.27 121.443Z" fill="#D0D7D6"/>
<path d="M1395.74 121.443C1394.64 121.811 1393.64 122.927 1393.41 124.054C1392.95 126.223 1395.12 128.392 1397.29 127.94C1398.92 127.603 1400.19 125.939 1400.03 124.37C1399.92 123.264 1399.08 122.127 1398.03 121.611C1397.39 121.306 1396.4 121.232 1395.74 121.443Z" fill="#D0D7D6"/>
<path d="M1409.22 121.443C1408.12 121.811 1407.12 122.927 1406.88 124.054C1406.43 126.223 1408.6 128.392 1410.77 127.94C1412.4 127.603 1413.67 125.939 1413.51 124.37C1413.39 123.264 1412.56 122.127 1411.51 121.611C1410.87 121.306 1409.88 121.232 1409.22 121.443Z" fill="#D0D7D6"/>
<path d="M1422.7 121.443C1421.59 121.811 1420.59 122.927 1420.36 124.054C1419.91 126.223 1422.08 128.392 1424.25 127.94C1425.88 127.603 1427.14 125.939 1426.99 124.37C1426.87 123.264 1426.04 122.127 1424.99 121.611C1424.34 121.306 1423.35 121.232 1422.7 121.443Z" fill="#D0D7D6"/>
</g>
</g>
<defs>
<clipPath id="clip0_125_412">
<rect width="1427" height="852" fill="white"/>
</clipPath>
</defs>
</svg>
