<svg width="1427" height="852" viewBox="0 0 1427 852" fill="none" xmlns="http://www.w3.org/2000/svg">
<g clip-path="url(#clip0_2_2)">
<path d="M0 0H1427V852H0V0Z" fill="#FBFBFB"/>
<g opacity="0.427575">
<path d="M1297.4 720.139C1296.29 720.507 1295.29 721.624 1295.06 722.75C1294.61 724.919 1296.78 727.088 1298.95 726.636C1300.58 726.299 1301.84 724.635 1301.68 723.066C1301.57 721.96 1300.74 720.823 1299.68 720.307C1299.04 720.002 1298.05 719.928 1297.4 720.139Z" fill="white"/>
<path d="M1310.88 720.139C1309.29 720.665 1308.21 722.413 1308.54 723.951C1308.8 725.204 1309.97 726.372 1311.21 726.636C1313.26 727.067 1315.37 725.14 1315.16 723.066C1315.05 721.96 1314.21 720.823 1313.16 720.307C1312.52 720.002 1311.53 719.928 1310.88 720.139Z" fill="white"/>
<path d="M1324.35 720.139C1323.25 720.507 1322.25 721.624 1322.02 722.75C1321.56 724.919 1323.73 727.088 1325.9 726.636C1327.53 726.299 1328.8 724.635 1328.64 723.066C1328.52 721.96 1327.69 720.823 1326.64 720.307C1326 720.002 1325.01 719.928 1324.35 720.139Z" fill="white"/>
<path d="M1337.83 720.139C1336.73 720.507 1335.73 721.624 1335.49 722.75C1335.04 724.919 1337.21 727.088 1339.38 726.636C1341.01 726.299 1342.28 724.635 1342.12 723.066C1342 721.96 1341.17 720.823 1340.12 720.307C1339.48 720.002 1338.49 719.928 1337.83 720.139Z" fill="white"/>
<path d="M1351.31 720.139C1350.2 720.507 1349.2 721.624 1348.97 722.75C1348.52 724.919 1350.69 727.088 1352.86 726.636C1354.49 726.299 1355.75 724.635 1355.6 723.066C1355.48 721.96 1354.65 720.823 1353.6 720.307C1352.95 720.002 1351.96 719.928 1351.31 720.139Z" fill="white"/>
<path d="M1364.79 720.139C1363.68 720.507 1362.68 721.624 1362.45 722.75C1362 724.919 1364.17 727.088 1366.34 726.636C1367.97 726.299 1369.23 724.635 1369.07 723.066C1368.96 721.96 1368.13 720.823 1367.07 720.307C1366.43 720.002 1365.44 719.928 1364.79 720.139Z" fill="white"/>
<path d="M1378.27 720.139C1377.16 720.507 1376.16 721.624 1375.93 722.75C1375.48 724.919 1377.65 727.088 1379.81 726.636C1381.45 726.299 1382.71 724.635 1382.55 723.066C1382.44 721.96 1381.6 720.823 1380.55 720.307C1379.91 720.002 1378.92 719.928 1378.27 720.139Z" fill="white"/>
<path d="M1391.74 720.139C1390.64 720.507 1389.64 721.624 1389.41 722.75C1388.95 724.919 1391.12 727.088 1393.29 726.636C1394.92 726.299 1396.19 724.635 1396.03 723.066C1395.91 721.96 1395.08 720.823 1394.03 720.307C1393.39 720.002 1392.4 719.928 1391.74 720.139Z" fill="white"/>
<path d="M1405.22 720.139C1404.12 720.507 1403.12 721.624 1402.89 722.75C1402.62 723.982 1403.22 725.32 1404.38 726.109C1405.51 726.888 1406.79 726.899 1407.93 726.141C1409.79 724.898 1410.05 722.582 1408.49 721.034C1407.59 720.128 1406.31 719.781 1405.22 720.139Z" fill="white"/>
<path d="M1418.7 720.139C1417.6 720.507 1416.59 721.624 1416.36 722.75C1416.1 723.982 1416.7 725.32 1417.86 726.109C1418.99 726.888 1420.27 726.899 1421.41 726.141C1423.27 724.898 1423.52 722.582 1421.97 721.034C1421.07 720.128 1419.79 719.781 1418.7 720.139Z" fill="white"/>
<path d="M1297.4 733.617C1296.29 733.985 1295.29 735.102 1295.06 736.228C1294.61 738.398 1296.78 740.567 1298.95 740.114C1300.58 739.777 1301.84 738.113 1301.68 736.544C1301.57 735.439 1300.74 734.301 1299.68 733.785C1299.04 733.48 1298.05 733.406 1297.4 733.617Z" fill="white"/>
<path d="M1310.88 733.617C1309.29 734.143 1308.21 735.891 1308.54 737.429C1308.8 738.682 1309.97 739.851 1311.21 740.114C1313.26 740.546 1315.37 738.619 1315.16 736.544C1315.05 735.439 1314.21 734.301 1313.16 733.785C1312.52 733.48 1311.53 733.406 1310.88 733.617Z" fill="white"/>
<path d="M1324.35 733.617C1323.25 733.985 1322.25 735.102 1322.02 736.228C1321.56 738.398 1323.73 740.567 1325.9 740.114C1327.53 739.777 1328.8 738.113 1328.64 736.544C1328.52 735.439 1327.69 734.301 1326.64 733.785C1326 733.48 1325.01 733.406 1324.35 733.617Z" fill="white"/>
<path d="M1337.83 733.617C1336.73 733.985 1335.73 735.102 1335.49 736.228C1335.04 738.398 1337.21 740.567 1339.38 740.114C1341.01 739.777 1342.28 738.113 1342.12 736.544C1342 735.439 1341.17 734.301 1340.12 733.785C1339.48 733.48 1338.49 733.406 1337.83 733.617Z" fill="white"/>
<path d="M1351.31 733.617C1350.2 733.985 1349.2 735.102 1348.97 736.228C1348.52 738.398 1350.69 740.567 1352.86 740.114C1354.49 739.777 1355.75 738.113 1355.6 736.544C1355.48 735.439 1354.65 734.301 1353.6 733.785C1352.95 733.48 1351.96 733.406 1351.31 733.617Z" fill="white"/>
<path d="M1364.79 733.617C1363.68 733.985 1362.68 735.102 1362.45 736.228C1362 738.398 1364.17 740.567 1366.34 740.114C1367.97 739.777 1369.23 738.113 1369.07 736.544C1368.96 735.439 1368.13 734.301 1367.07 733.785C1366.43 733.48 1365.44 733.406 1364.79 733.617Z" fill="white"/>
<path d="M1378.27 733.617C1377.16 733.985 1376.16 735.102 1375.93 736.228C1375.48 738.398 1377.65 740.567 1379.81 740.114C1381.45 739.777 1382.71 738.113 1382.55 736.544C1382.44 735.439 1381.6 734.301 1380.55 733.785C1379.91 733.48 1378.92 733.406 1378.27 733.617Z" fill="white"/>
<path d="M1391.74 733.617C1390.64 733.985 1389.64 735.102 1389.41 736.228C1388.95 738.398 1391.12 740.567 1393.29 740.114C1394.92 739.777 1396.19 738.113 1396.03 736.544C1395.91 735.439 1395.08 734.301 1394.03 733.785C1393.39 733.48 1392.4 733.406 1391.74 733.617Z" fill="white"/>
<path d="M1405.22 733.617C1404.12 733.986 1403.12 735.102 1402.89 736.228C1402.62 737.46 1403.22 738.798 1404.38 739.587C1405.51 740.367 1406.79 740.377 1407.93 739.619C1409.79 738.376 1410.05 736.06 1408.49 734.512C1407.59 733.606 1406.31 733.259 1405.22 733.617Z" fill="white"/>
<path d="M1418.7 733.617C1417.6 733.986 1416.59 735.102 1416.36 736.228C1416.1 737.46 1416.7 738.798 1417.86 739.587C1418.99 740.367 1420.27 740.377 1421.41 739.619C1423.27 738.376 1423.52 736.06 1421.97 734.512C1421.07 733.606 1419.79 733.259 1418.7 733.617Z" fill="white"/>
<path d="M1297.4 747.095C1296.29 747.464 1295.29 748.58 1295.06 749.707C1294.61 751.876 1296.78 754.045 1298.95 753.592C1300.58 753.255 1301.84 751.591 1301.68 750.023C1301.57 748.917 1300.74 747.78 1299.68 747.264C1299.04 746.958 1298.05 746.885 1297.4 747.095Z" fill="white"/>
<path d="M1310.88 747.095C1309.77 747.464 1308.77 748.58 1308.54 749.707C1308.09 751.876 1310.25 754.045 1312.42 753.592C1314.06 753.255 1315.32 751.591 1315.16 750.023C1315.05 748.917 1314.21 747.78 1313.16 747.264C1312.52 746.958 1311.53 746.885 1310.88 747.095Z" fill="white"/>
<path d="M1324.35 747.095C1323.25 747.464 1322.25 748.58 1322.02 749.707C1321.56 751.876 1323.73 754.045 1325.9 753.592C1327.53 753.255 1328.8 751.591 1328.64 750.023C1328.52 748.917 1327.69 747.78 1326.64 747.264C1326 746.958 1325.01 746.885 1324.35 747.095Z" fill="white"/>
<path d="M1337.83 747.095C1336.73 747.464 1335.73 748.58 1335.49 749.707C1335.04 751.876 1337.21 754.045 1339.38 753.592C1341.01 753.255 1342.28 751.591 1342.12 750.023C1342 748.917 1341.17 747.78 1340.12 747.264C1339.48 746.958 1338.49 746.885 1337.83 747.095Z" fill="white"/>
<path d="M1351.31 747.095C1350.2 747.464 1349.2 748.58 1348.97 749.707C1348.52 751.876 1350.69 754.045 1352.86 753.592C1354.49 753.255 1355.75 751.591 1355.6 750.023C1355.48 748.917 1354.65 747.78 1353.6 747.264C1352.95 746.958 1351.96 746.885 1351.31 747.095Z" fill="white"/>
<path d="M1364.79 747.095C1363.68 747.464 1362.68 748.58 1362.45 749.707C1362 751.876 1364.17 754.045 1366.34 753.592C1367.97 753.255 1369.23 751.591 1369.07 750.023C1368.96 748.917 1368.13 747.78 1367.07 747.264C1366.43 746.958 1365.44 746.885 1364.79 747.095Z" fill="white"/>
<path d="M1378.27 747.095C1377.16 747.464 1376.16 748.58 1375.93 749.707C1375.48 751.876 1377.65 754.045 1379.81 753.592C1381.45 753.255 1382.71 751.591 1382.55 750.023C1382.44 748.917 1381.6 747.78 1380.55 747.264C1379.91 746.958 1378.92 746.885 1378.27 747.095Z" fill="white"/>
<path d="M1391.74 747.095C1390.64 747.464 1389.64 748.58 1389.41 749.707C1388.95 751.876 1391.12 754.045 1393.29 753.592C1394.92 753.255 1396.19 751.591 1396.03 750.023C1395.91 748.917 1395.08 747.78 1394.03 747.264C1393.39 746.958 1392.4 746.885 1391.74 747.095Z" fill="white"/>
<path d="M1405.22 747.095C1404.12 747.464 1403.12 748.58 1402.89 749.707C1402.43 751.876 1404.6 754.045 1406.77 753.592C1408.4 753.255 1409.67 751.591 1409.51 750.023C1409.39 748.917 1408.56 747.78 1407.51 747.264C1406.87 746.958 1405.88 746.885 1405.22 747.095Z" fill="white"/>
<path d="M1418.7 747.095C1417.6 747.464 1416.6 748.58 1416.36 749.707C1415.91 751.876 1418.08 754.045 1420.25 753.592C1421.88 753.255 1423.14 751.591 1422.99 750.023C1422.87 748.917 1422.04 747.78 1420.99 747.264C1420.34 746.958 1419.35 746.885 1418.7 747.095Z" fill="white"/>
<path d="M1297.4 760.573C1296.29 760.942 1295.29 762.058 1295.06 763.185C1294.61 765.354 1296.78 767.523 1298.95 767.07C1300.58 766.733 1301.84 765.07 1301.68 763.501C1301.57 762.395 1300.74 761.258 1299.68 760.742C1299.04 760.436 1298.05 760.363 1297.4 760.573Z" fill="white"/>
<path d="M1310.88 760.573C1309.77 760.942 1308.77 762.058 1308.54 763.185C1308.09 765.354 1310.25 767.523 1312.42 767.07C1314.06 766.733 1315.32 765.07 1315.16 763.501C1315.05 762.395 1314.21 761.258 1313.16 760.742C1312.52 760.436 1311.53 760.363 1310.88 760.573Z" fill="white"/>
<path d="M1324.35 760.573C1323.25 760.942 1322.25 762.058 1322.02 763.185C1321.56 765.354 1323.73 767.523 1325.9 767.07C1327.53 766.733 1328.8 765.07 1328.64 763.501C1328.52 762.395 1327.69 761.258 1326.64 760.742C1326 760.436 1325.01 760.363 1324.35 760.573Z" fill="white"/>
<path d="M1337.83 760.573C1336.73 760.942 1335.73 762.058 1335.49 763.185C1335.04 765.354 1337.21 767.523 1339.38 767.07C1341.01 766.733 1342.28 765.07 1342.12 763.501C1342 762.395 1341.17 761.258 1340.12 760.742C1339.48 760.436 1338.49 760.363 1337.83 760.573Z" fill="white"/>
<path d="M1351.31 760.573C1350.2 760.942 1349.2 762.058 1348.97 763.185C1348.52 765.354 1350.69 767.523 1352.86 767.07C1354.49 766.733 1355.75 765.07 1355.6 763.501C1355.48 762.395 1354.65 761.258 1353.6 760.742C1352.95 760.436 1351.96 760.363 1351.31 760.573Z" fill="white"/>
<path d="M1364.79 760.573C1363.68 760.942 1362.68 762.058 1362.45 763.185C1362 765.354 1364.17 767.523 1366.34 767.07C1367.97 766.733 1369.23 765.07 1369.07 763.501C1368.96 762.395 1368.13 761.258 1367.07 760.742C1366.43 760.436 1365.44 760.363 1364.79 760.573Z" fill="white"/>
<path d="M1378.27 760.573C1377.16 760.942 1376.16 762.058 1375.93 763.185C1375.48 765.354 1377.65 767.523 1379.81 767.07C1381.45 766.733 1382.71 765.07 1382.55 763.501C1382.44 762.395 1381.6 761.258 1380.55 760.742C1379.91 760.436 1378.92 760.363 1378.27 760.573Z" fill="white"/>
<path d="M1391.74 760.573C1390.64 760.942 1389.64 762.058 1389.41 763.185C1388.95 765.354 1391.12 767.523 1393.29 767.07C1394.92 766.733 1396.19 765.07 1396.03 763.501C1395.91 762.395 1395.08 761.258 1394.03 760.742C1393.39 760.436 1392.4 760.363 1391.74 760.573Z" fill="white"/>
<path d="M1405.22 760.573C1404.12 760.942 1403.12 762.058 1402.89 763.185C1402.43 765.354 1404.6 767.523 1406.77 767.07C1408.4 766.733 1409.67 765.07 1409.51 763.501C1409.39 762.395 1408.56 761.258 1407.51 760.742C1406.87 760.436 1405.88 760.363 1405.22 760.573Z" fill="white"/>
<path d="M1418.7 760.573C1417.6 760.942 1416.6 762.058 1416.36 763.185C1415.91 765.354 1418.08 767.523 1420.25 767.07C1421.88 766.733 1423.14 765.07 1422.99 763.501C1422.87 762.395 1422.04 761.258 1420.99 760.742C1420.34 760.436 1419.35 760.363 1418.7 760.573Z" fill="white"/>
<path d="M1297.4 774.052C1296.29 774.42 1295.29 775.536 1295.06 776.663C1294.61 778.832 1296.78 781.001 1298.95 780.549C1300.58 780.212 1301.84 778.548 1301.68 776.979C1301.57 775.873 1300.74 774.736 1299.68 774.22C1299.04 773.915 1298.05 773.841 1297.4 774.052Z" fill="white"/>
<path d="M1310.88 774.052C1309.77 774.42 1308.77 775.536 1308.54 776.663C1308.09 778.832 1310.25 781.001 1312.42 780.549C1314.06 780.212 1315.32 778.548 1315.16 776.979C1315.05 775.873 1314.21 774.736 1313.16 774.22C1312.52 773.915 1311.53 773.841 1310.88 774.052Z" fill="white"/>
<path d="M1324.35 774.052C1323.25 774.42 1322.25 775.536 1322.02 776.663C1321.56 778.832 1323.73 781.001 1325.9 780.549C1327.53 780.212 1328.8 778.548 1328.64 776.979C1328.52 775.873 1327.69 774.736 1326.64 774.22C1326 773.915 1325.01 773.841 1324.35 774.052Z" fill="white"/>
<path d="M1337.83 774.052C1336.73 774.42 1335.73 775.536 1335.49 776.663C1335.04 778.832 1337.21 781.001 1339.38 780.549C1341.01 780.212 1342.28 778.548 1342.12 776.979C1342 775.873 1341.17 774.736 1340.12 774.22C1339.48 773.915 1338.49 773.841 1337.83 774.052Z" fill="white"/>
<path d="M1351.31 774.052C1350.2 774.42 1349.2 775.536 1348.97 776.663C1348.52 778.832 1350.69 781.001 1352.86 780.549C1354.49 780.212 1355.75 778.548 1355.6 776.979C1355.48 775.873 1354.65 774.736 1353.6 774.22C1352.95 773.915 1351.96 773.841 1351.31 774.052Z" fill="white"/>
<path d="M1364.79 774.052C1363.68 774.42 1362.68 775.536 1362.45 776.663C1362 778.832 1364.17 781.001 1366.34 780.549C1367.97 780.212 1369.23 778.548 1369.07 776.979C1368.96 775.873 1368.13 774.736 1367.07 774.22C1366.43 773.915 1365.44 773.841 1364.79 774.052Z" fill="white"/>
<path d="M1378.27 774.052C1377.16 774.42 1376.16 775.536 1375.93 776.663C1375.48 778.832 1377.65 781.001 1379.81 780.549C1381.45 780.212 1382.71 778.548 1382.55 776.979C1382.44 775.873 1381.6 774.736 1380.55 774.22C1379.91 773.915 1378.92 773.841 1378.27 774.052Z" fill="white"/>
<path d="M1391.74 774.052C1390.64 774.42 1389.64 775.536 1389.41 776.663C1388.95 778.832 1391.12 781.001 1393.29 780.549C1394.92 780.212 1396.19 778.548 1396.03 776.979C1395.91 775.873 1395.08 774.736 1394.03 774.22C1393.39 773.915 1392.4 773.841 1391.74 774.052Z" fill="white"/>
<path d="M1405.22 774.052C1404.12 774.42 1403.12 775.536 1402.89 776.663C1402.43 778.832 1404.6 781.001 1406.77 780.549C1408.4 780.212 1409.67 778.548 1409.51 776.979C1409.39 775.873 1408.56 774.736 1407.51 774.22C1406.87 773.915 1405.88 773.841 1405.22 774.052Z" fill="white"/>
<path d="M1418.7 774.052C1417.6 774.42 1416.6 775.536 1416.36 776.663C1415.91 778.832 1418.08 781.001 1420.25 780.549C1421.88 780.212 1423.14 778.548 1422.99 776.979C1422.87 775.873 1422.04 774.736 1420.99 774.22C1420.34 773.915 1419.35 773.841 1418.7 774.052Z" fill="white"/>
<path d="M1297.4 787.53C1296.29 787.898 1295.29 789.014 1295.06 790.141C1294.61 792.31 1296.78 794.479 1298.95 794.027C1300.58 793.69 1301.84 792.026 1301.68 790.457C1301.57 789.351 1300.74 788.214 1299.68 787.698C1299.04 787.393 1298.05 787.319 1297.4 787.53Z" fill="white"/>
<path d="M1310.88 787.53C1309.77 787.898 1308.77 789.014 1308.54 790.141C1308.09 792.31 1310.25 794.479 1312.42 794.027C1314.06 793.69 1315.32 792.026 1315.16 790.457C1315.05 789.351 1314.21 788.214 1313.16 787.698C1312.52 787.393 1311.53 787.319 1310.88 787.53Z" fill="white"/>
<path d="M1324.35 787.53C1323.25 787.898 1322.25 789.014 1322.02 790.141C1321.56 792.31 1323.73 794.479 1325.9 794.027C1327.53 793.69 1328.8 792.026 1328.64 790.457C1328.52 789.351 1327.69 788.214 1326.64 787.698C1326 787.393 1325.01 787.319 1324.35 787.53Z" fill="white"/>
<path d="M1337.83 787.53C1336.73 787.898 1335.73 789.014 1335.49 790.141C1335.04 792.31 1337.21 794.479 1339.38 794.027C1341.01 793.69 1342.28 792.026 1342.12 790.457C1342 789.351 1341.17 788.214 1340.12 787.698C1339.48 787.393 1338.49 787.319 1337.83 787.53Z" fill="white"/>
<path d="M1351.31 787.53C1350.2 787.898 1349.2 789.014 1348.97 790.141C1348.52 792.31 1350.69 794.479 1352.86 794.027C1354.49 793.69 1355.75 792.026 1355.6 790.457C1355.48 789.351 1354.65 788.214 1353.6 787.698C1352.95 787.393 1351.96 787.319 1351.31 787.53Z" fill="white"/>
<path d="M1364.79 787.53C1363.68 787.898 1362.68 789.014 1362.45 790.141C1362 792.31 1364.17 794.479 1366.34 794.027C1367.97 793.69 1369.23 792.026 1369.07 790.457C1368.96 789.351 1368.13 788.214 1367.07 787.698C1366.43 787.393 1365.44 787.319 1364.79 787.53Z" fill="white"/>
<path d="M1378.27 787.53C1377.16 787.898 1376.16 789.014 1375.93 790.141C1375.48 792.31 1377.65 794.479 1379.81 794.027C1381.45 793.69 1382.71 792.026 1382.55 790.457C1382.44 789.351 1381.6 788.214 1380.55 787.698C1379.91 787.393 1378.92 787.319 1378.27 787.53Z" fill="white"/>
<path d="M1391.74 787.53C1390.64 787.898 1389.64 789.014 1389.41 790.141C1388.95 792.31 1391.12 794.479 1393.29 794.027C1394.92 793.69 1396.19 792.026 1396.03 790.457C1395.91 789.351 1395.08 788.214 1394.03 787.698C1393.39 787.393 1392.4 787.319 1391.74 787.53Z" fill="white"/>
<path d="M1405.22 787.53C1404.12 787.898 1403.12 789.014 1402.89 790.141C1402.43 792.31 1404.6 794.479 1406.77 794.027C1408.4 793.69 1409.67 792.026 1409.51 790.457C1409.39 789.351 1408.56 788.214 1407.51 787.698C1406.87 787.393 1405.88 787.319 1405.22 787.53Z" fill="white"/>
<path d="M1418.7 787.53C1417.6 787.898 1416.6 789.014 1416.36 790.141C1415.91 792.31 1418.08 794.479 1420.25 794.027C1421.88 793.69 1423.14 792.026 1422.99 790.457C1422.87 789.351 1422.04 788.214 1420.99 787.698C1420.34 787.393 1419.35 787.319 1418.7 787.53Z" fill="white"/>
<path d="M1297.4 801.008C1296.29 801.377 1295.29 802.493 1295.06 803.619C1294.61 805.789 1296.78 807.958 1298.95 807.505C1300.58 807.168 1301.84 805.504 1301.68 803.935C1301.57 802.83 1300.74 801.692 1299.68 801.177C1299.04 800.871 1298.05 800.797 1297.4 801.008Z" fill="white"/>
<path d="M1310.88 801.008C1309.77 801.377 1308.77 802.493 1308.54 803.619C1308.09 805.789 1310.25 807.958 1312.42 807.505C1314.06 807.168 1315.32 805.504 1315.16 803.935C1315.05 802.83 1314.21 801.692 1313.16 801.177C1312.52 800.871 1311.53 800.797 1310.88 801.008Z" fill="white"/>
<path d="M1324.35 801.008C1323.25 801.377 1322.25 802.493 1322.02 803.619C1321.75 804.851 1322.35 806.189 1323.51 806.978C1324.64 807.758 1325.92 807.768 1327.06 807.01C1328.92 805.767 1329.18 803.451 1327.62 801.903C1326.72 800.997 1325.44 800.65 1324.35 801.008Z" fill="white"/>
<path d="M1337.83 801.008C1336.73 801.377 1335.73 802.493 1335.49 803.619C1335.23 804.851 1335.83 806.189 1336.99 806.978C1338.12 807.758 1339.4 807.768 1340.54 807.01C1342.4 805.767 1342.65 803.451 1341.1 801.903C1340.2 800.997 1338.92 800.65 1337.83 801.008Z" fill="white"/>
<path d="M1351.31 801.008C1349.72 801.535 1348.65 803.282 1348.97 804.82C1349.24 806.073 1350.4 807.242 1351.66 807.505C1353.69 807.937 1355.81 806.01 1355.6 803.935C1355.48 802.83 1354.65 801.692 1353.6 801.177C1352.95 800.871 1351.96 800.797 1351.31 801.008Z" fill="white"/>
<path d="M1364.79 801.008C1363.2 801.535 1362.12 803.282 1362.45 804.82C1362.71 806.073 1363.88 807.242 1365.14 807.505C1367.17 807.937 1369.28 806.01 1369.07 803.935C1368.96 802.83 1368.13 801.692 1367.07 801.177C1366.43 800.871 1365.44 800.797 1364.79 801.008Z" fill="white"/>
<path d="M1378.27 801.008C1376.68 801.535 1375.6 803.282 1375.93 804.82C1376.19 806.073 1377.36 807.242 1378.61 807.505C1380.65 807.937 1382.76 806.01 1382.55 803.935C1382.44 802.83 1381.6 801.692 1380.55 801.177C1379.91 800.871 1378.92 800.797 1378.27 801.008Z" fill="white"/>
<path d="M1391.74 801.008C1390.15 801.535 1389.08 803.282 1389.41 804.82C1389.67 806.073 1390.84 807.242 1392.09 807.505C1394.12 807.937 1396.24 806.01 1396.03 803.935C1395.91 802.83 1395.08 801.692 1394.03 801.177C1393.39 800.871 1392.4 800.797 1391.74 801.008Z" fill="white"/>
<path d="M1405.22 801.008C1404.12 801.377 1403.12 802.493 1402.89 803.619C1402.43 805.789 1404.6 807.958 1406.77 807.505C1408.4 807.168 1409.67 805.504 1409.51 803.935C1409.39 802.83 1408.56 801.692 1407.51 801.177C1406.87 800.871 1405.88 800.797 1405.22 801.008Z" fill="white"/>
<path d="M1418.7 801.008C1417.6 801.377 1416.6 802.493 1416.36 803.619C1415.91 805.789 1418.08 807.958 1420.25 807.505C1421.88 807.168 1423.14 805.504 1422.99 803.935C1422.87 802.83 1422.04 801.692 1420.99 801.177C1420.34 800.871 1419.35 800.797 1418.7 801.008Z" fill="white"/>
<path d="M1297.4 814.486C1296.29 814.855 1295.29 815.971 1295.06 817.098C1294.61 819.267 1296.78 821.436 1298.95 820.983C1300.58 820.646 1301.84 818.982 1301.68 817.414C1301.57 816.308 1300.74 815.171 1299.68 814.655C1299.04 814.349 1298.05 814.276 1297.4 814.486Z" fill="white"/>
<path d="M1310.88 814.486C1309.77 814.855 1308.77 815.971 1308.54 817.098C1308.09 819.267 1310.25 821.436 1312.42 820.983C1314.06 820.646 1315.32 818.982 1315.16 817.414C1315.05 816.308 1314.21 815.171 1313.16 814.655C1312.52 814.349 1311.53 814.276 1310.88 814.486Z" fill="white"/>
<path d="M1324.35 814.486C1323.25 814.855 1322.25 815.971 1322.02 817.098C1321.75 818.33 1322.35 819.667 1323.51 820.457C1324.64 821.236 1325.92 821.246 1327.06 820.488C1328.92 819.246 1329.18 816.929 1327.62 815.381C1326.72 814.476 1325.44 814.128 1324.35 814.486Z" fill="white"/>
<path d="M1337.83 814.486C1336.73 814.855 1335.73 815.971 1335.49 817.098C1335.23 818.33 1335.83 819.667 1336.99 820.457C1338.12 821.236 1339.4 821.246 1340.54 820.488C1342.4 819.246 1342.65 816.929 1341.1 815.381C1340.2 814.476 1338.92 814.128 1337.83 814.486Z" fill="white"/>
<path d="M1351.31 814.486C1349.72 815.013 1348.65 816.761 1348.97 818.298C1349.24 819.551 1350.4 820.72 1351.66 820.983C1353.69 821.415 1355.81 819.488 1355.6 817.413C1355.48 816.308 1354.65 815.171 1353.6 814.655C1352.95 814.349 1351.96 814.276 1351.31 814.486Z" fill="white"/>
<path d="M1364.79 814.486C1363.2 815.013 1362.12 816.761 1362.45 818.298C1362.71 819.551 1363.88 820.72 1365.14 820.983C1367.17 821.415 1369.28 819.488 1369.07 817.413C1368.96 816.308 1368.13 815.171 1367.07 814.655C1366.43 814.349 1365.44 814.276 1364.79 814.486Z" fill="white"/>
<path d="M1378.27 814.486C1376.68 815.013 1375.6 816.761 1375.93 818.298C1376.19 819.551 1377.36 820.72 1378.61 820.983C1380.65 821.415 1382.76 819.488 1382.55 817.413C1382.44 816.308 1381.6 815.171 1380.55 814.655C1379.91 814.349 1378.92 814.276 1378.27 814.486Z" fill="white"/>
<path d="M1391.74 814.486C1390.15 815.013 1389.08 816.761 1389.41 818.298C1389.67 819.551 1390.84 820.72 1392.09 820.983C1394.12 821.415 1396.24 819.488 1396.03 817.413C1395.91 816.308 1395.08 815.171 1394.03 814.655C1393.39 814.349 1392.4 814.276 1391.74 814.486Z" fill="white"/>
<path d="M1405.22 814.486C1404.12 814.855 1403.12 815.971 1402.89 817.098C1402.43 819.267 1404.6 821.436 1406.77 820.983C1408.4 820.646 1409.67 818.982 1409.51 817.414C1409.39 816.308 1408.56 815.171 1407.51 814.655C1406.87 814.349 1405.88 814.276 1405.22 814.486Z" fill="white"/>
<path d="M1418.7 814.486C1417.6 814.855 1416.6 815.971 1416.36 817.098C1415.91 819.267 1418.08 821.436 1420.25 820.983C1421.88 820.646 1423.14 818.982 1422.99 817.414C1422.87 816.308 1422.04 815.171 1420.99 814.655C1420.34 814.349 1419.35 814.276 1418.7 814.486Z" fill="white"/>
<path d="M1297.4 827.964C1296.29 828.333 1295.29 829.449 1295.06 830.576C1294.61 832.745 1296.78 834.914 1298.95 834.461C1300.58 834.124 1301.84 832.461 1301.68 830.892C1301.57 829.786 1300.74 828.649 1299.68 828.133C1299.04 827.828 1298.05 827.754 1297.4 827.964Z" fill="white"/>
<path d="M1310.88 827.964C1309.77 828.333 1308.77 829.449 1308.54 830.576C1308.09 832.745 1310.25 834.914 1312.42 834.461C1314.06 834.124 1315.32 832.461 1315.16 830.892C1315.05 829.786 1314.21 828.649 1313.16 828.133C1312.52 827.828 1311.53 827.754 1310.88 827.964Z" fill="white"/>
<path d="M1324.35 827.964C1323.25 828.333 1322.25 829.449 1322.02 830.576C1321.75 831.808 1322.35 833.145 1323.51 833.935C1324.64 834.714 1325.92 834.725 1327.06 833.966C1328.92 832.724 1329.18 830.407 1327.62 828.859C1326.72 827.954 1325.44 827.606 1324.35 827.964Z" fill="white"/>
<path d="M1337.83 827.964C1336.73 828.333 1335.73 829.449 1335.49 830.576C1335.23 831.808 1335.83 833.145 1336.99 833.935C1338.12 834.714 1339.4 834.725 1340.54 833.966C1342.4 832.724 1342.65 830.407 1341.1 828.859C1340.2 827.954 1338.92 827.606 1337.83 827.964Z" fill="white"/>
<path d="M1351.31 827.964C1350.2 828.333 1349.2 829.449 1348.97 830.576C1348.52 832.745 1350.69 834.914 1352.86 834.461C1354.49 834.124 1355.75 832.461 1355.6 830.892C1355.48 829.786 1354.65 828.649 1353.6 828.133C1352.95 827.828 1351.96 827.754 1351.31 827.964Z" fill="white"/>
<path d="M1364.79 827.964C1363.68 828.333 1362.68 829.449 1362.45 830.576C1362 832.745 1364.17 834.914 1366.34 834.461C1367.97 834.124 1369.23 832.461 1369.07 830.892C1368.96 829.786 1368.13 828.649 1367.07 828.133C1366.43 827.828 1365.44 827.754 1364.79 827.964Z" fill="white"/>
<path d="M1378.27 827.964C1377.16 828.333 1376.16 829.449 1375.93 830.576C1375.48 832.745 1377.65 834.914 1379.81 834.461C1381.45 834.124 1382.71 832.461 1382.55 830.892C1382.44 829.786 1381.6 828.649 1380.55 828.133C1379.91 827.828 1378.92 827.754 1378.27 827.964Z" fill="white"/>
<path d="M1391.74 827.964C1390.64 828.333 1389.64 829.449 1389.41 830.576C1388.95 832.745 1391.12 834.914 1393.29 834.461C1394.92 834.124 1396.19 832.461 1396.03 830.892C1395.91 829.786 1395.08 828.649 1394.03 828.133C1393.39 827.828 1392.4 827.754 1391.74 827.964Z" fill="white"/>
<path d="M1405.22 827.964C1404.12 828.333 1403.12 829.449 1402.89 830.576C1402.43 832.745 1404.6 834.914 1406.77 834.461C1408.4 834.124 1409.67 832.461 1409.51 830.892C1409.39 829.786 1408.56 828.649 1407.51 828.133C1406.87 827.828 1405.88 827.754 1405.22 827.964Z" fill="white"/>
<path d="M1418.7 827.964C1417.6 828.333 1416.6 829.449 1416.36 830.576C1415.91 832.745 1418.08 834.914 1420.25 834.461C1421.88 834.124 1423.14 832.461 1422.99 830.892C1422.87 829.786 1422.04 828.649 1420.99 828.133C1420.34 827.828 1419.35 827.754 1418.7 827.964Z" fill="white"/>
<path d="M1297.4 841.443C1296.29 841.811 1295.29 842.927 1295.06 844.054C1294.61 846.223 1296.78 848.392 1298.95 847.94C1300.58 847.603 1301.84 845.939 1301.68 844.37C1301.57 843.264 1300.74 842.127 1299.68 841.611C1299.04 841.306 1298.05 841.232 1297.4 841.443Z" fill="white"/>
<path d="M1310.88 841.443C1309.77 841.811 1308.77 842.927 1308.54 844.054C1308.09 846.223 1310.25 848.392 1312.42 847.94C1314.06 847.603 1315.32 845.939 1315.16 844.37C1315.05 843.264 1314.21 842.127 1313.16 841.611C1312.52 841.306 1311.53 841.232 1310.88 841.443Z" fill="white"/>
<path d="M1324.35 841.443C1323.25 841.811 1322.25 842.927 1322.02 844.054C1321.56 846.223 1323.73 848.392 1325.9 847.94C1327.53 847.603 1328.8 845.939 1328.64 844.37C1328.52 843.264 1327.69 842.127 1326.64 841.611C1326 841.306 1325.01 841.232 1324.35 841.443Z" fill="white"/>
<path d="M1337.83 841.443C1336.73 841.811 1335.73 842.927 1335.49 844.054C1335.04 846.223 1337.21 848.392 1339.38 847.94C1341.01 847.603 1342.28 845.939 1342.12 844.37C1342 843.264 1341.17 842.127 1340.12 841.611C1339.48 841.306 1338.49 841.232 1337.83 841.443Z" fill="white"/>
<path d="M1351.31 841.443C1350.2 841.811 1349.2 842.927 1348.97 844.054C1348.52 846.223 1350.69 848.392 1352.86 847.94C1354.49 847.603 1355.75 845.939 1355.6 844.37C1355.48 843.264 1354.65 842.127 1353.6 841.611C1352.95 841.306 1351.96 841.232 1351.31 841.443Z" fill="white"/>
<path d="M1364.79 841.443C1363.68 841.811 1362.68 842.927 1362.45 844.054C1362 846.223 1364.17 848.392 1366.34 847.94C1367.97 847.603 1369.23 845.939 1369.07 844.37C1368.96 843.264 1368.13 842.127 1367.07 841.611C1366.43 841.306 1365.44 841.232 1364.79 841.443Z" fill="white"/>
<path d="M1378.27 841.443C1377.16 841.811 1376.16 842.927 1375.93 844.054C1375.48 846.223 1377.65 848.392 1379.81 847.94C1381.45 847.603 1382.71 845.939 1382.55 844.37C1382.44 843.264 1381.6 842.127 1380.55 841.611C1379.91 841.306 1378.92 841.232 1378.27 841.443Z" fill="white"/>
<path d="M1391.74 841.443C1390.64 841.811 1389.64 842.927 1389.41 844.054C1388.95 846.223 1391.12 848.392 1393.29 847.94C1394.92 847.603 1396.19 845.939 1396.03 844.37C1395.91 843.264 1395.08 842.127 1394.03 841.611C1393.39 841.306 1392.4 841.232 1391.74 841.443Z" fill="white"/>
<path d="M1405.22 841.443C1404.12 841.811 1403.12 842.927 1402.89 844.054C1402.43 846.223 1404.6 848.392 1406.77 847.94C1408.4 847.603 1409.67 845.939 1409.51 844.37C1409.39 843.264 1408.56 842.127 1407.51 841.611C1406.87 841.306 1405.88 841.232 1405.22 841.443Z" fill="white"/>
<path d="M1418.7 841.443C1417.6 841.811 1416.6 842.927 1416.36 844.054C1415.91 846.223 1418.08 848.392 1420.25 847.94C1421.88 847.603 1423.14 845.939 1422.99 844.37C1422.87 843.264 1422.04 842.127 1420.99 841.611C1420.34 841.306 1419.35 841.232 1418.7 841.443Z" fill="white"/>
</g>
<mask id="mask0_2_2" style="mask-type:luminance" maskUnits="userSpaceOnUse" x="1289" y="0" width="136" height="410">
<path d="M1425 0H1289V410H1425V0Z" fill="white"/>
</mask>
<g mask="url(#mask0_2_2)">
<mask id="mask1_2_2" style="mask-type:luminance" maskUnits="userSpaceOnUse" x="1289" y="0" width="136" height="410">
<path d="M1425 0H1289V410H1425V0Z" fill="white"/>
</mask>
<g mask="url(#mask1_2_2)">
<mask id="mask2_2_2" style="mask-type:luminance" maskUnits="userSpaceOnUse" x="1289" y="0" width="136" height="410">
<path d="M1425 0H1289V410H1425V0Z" fill="#E1E6E5"/>
</mask>
<g mask="url(#mask2_2_2)">
<path fill-rule="evenodd" clip-rule="evenodd" d="M1404.86 394.2L1645.91 304.641C1649.62 303.264 1653.74 305.152 1655.12 308.862C1656.5 312.571 1654.61 316.695 1650.9 318.074L1409.85 407.632C1409.03 407.937 1408.18 408.082 1407.36 408.082C1404.45 408.082 1401.71 406.298 1400.64 403.411C1399.26 399.702 1401.15 395.577 1404.86 394.2Z" fill="#E1E6E5"/>
</g>
<mask id="mask3_2_2" style="mask-type:luminance" maskUnits="userSpaceOnUse" x="1289" y="0" width="136" height="410">
<path d="M1425 0H1289V410H1425V0Z" fill="#E1E6E5"/>
</mask>
<g mask="url(#mask3_2_2)">
<path fill-rule="evenodd" clip-rule="evenodd" d="M1370.73 366.061L1629.93 276.503C1633.67 275.211 1637.75 277.196 1639.04 280.934C1640.33 284.675 1638.35 288.754 1634.61 290.046L1375.4 379.605C1374.63 379.873 1373.84 380 1373.07 380C1370.1 380 1367.32 378.138 1366.29 375.173C1365 371.432 1366.98 367.353 1370.73 366.061Z" fill="#E1E6E5"/>
</g>
<mask id="mask4_2_2" style="mask-type:luminance" maskUnits="userSpaceOnUse" x="1289" y="0" width="136" height="410">
<path d="M1425 0H1289V410H1425V0Z" fill="#E1E6E5"/>
</mask>
<g mask="url(#mask4_2_2)">
<path fill-rule="evenodd" clip-rule="evenodd" d="M1343.71 340.511L1606.93 250.953C1609.27 250.157 1611.81 251.409 1612.61 253.749C1613.41 256.09 1612.15 258.635 1609.81 259.431L1346.6 348.99C1346.12 349.152 1345.63 349.23 1345.16 349.23C1343.29 349.23 1341.55 348.056 1340.92 346.192C1340.12 343.851 1341.37 341.308 1343.71 340.511Z" fill="#E1E6E5"/>
</g>
<mask id="mask5_2_2" style="mask-type:luminance" maskUnits="userSpaceOnUse" x="1289" y="0" width="136" height="410">
<path d="M1425 0H1289V410H1425V0Z" fill="#E1E6E5"/>
</mask>
<g mask="url(#mask5_2_2)">
<path fill-rule="evenodd" clip-rule="evenodd" d="M1322.13 312.447L1574.75 222.889C1577.08 222.06 1579.64 223.282 1580.47 225.613C1581.3 227.944 1580.08 230.503 1577.74 231.33L1325.12 320.888C1324.63 321.064 1324.12 321.147 1323.63 321.147C1321.78 321.147 1320.06 320 1319.41 318.164C1318.58 315.833 1319.8 313.273 1322.13 312.447Z" fill="#E1E6E5"/>
</g>
<mask id="mask6_2_2" style="mask-type:luminance" maskUnits="userSpaceOnUse" x="1289" y="0" width="136" height="410">
<path d="M1425 0H1289V410H1425V0Z" fill="#E1E6E5"/>
</mask>
<g mask="url(#mask6_2_2)">
<path fill-rule="evenodd" clip-rule="evenodd" d="M1306.28 286.089L1530.84 196.53C1532.21 195.98 1533.78 196.652 1534.33 198.031C1534.88 199.409 1534.2 200.972 1532.83 201.521L1308.27 291.08C1307.95 291.211 1307.61 291.272 1307.28 291.272C1306.21 291.272 1305.2 290.631 1304.78 289.579C1304.23 288.201 1304.91 286.638 1306.28 286.089Z" fill="#E1E6E5"/>
</g>
<mask id="mask7_2_2" style="mask-type:luminance" maskUnits="userSpaceOnUse" x="1289" y="0" width="136" height="410">
<path d="M1425 0H1289V410H1425V0Z" fill="#E1E6E5"/>
</mask>
<g mask="url(#mask7_2_2)">
<path fill-rule="evenodd" clip-rule="evenodd" d="M1295.29 258.094L1476.1 168.536C1477.43 167.878 1479.04 168.422 1479.7 169.751C1480.35 171.081 1479.81 172.692 1478.48 173.351L1297.67 262.909C1297.29 263.1 1296.88 263.189 1296.48 263.189C1295.49 263.189 1294.54 262.641 1294.07 261.695C1293.41 260.365 1293.96 258.753 1295.29 258.094Z" fill="#E1E6E5"/>
</g>
<mask id="mask8_2_2" style="mask-type:luminance" maskUnits="userSpaceOnUse" x="1289" y="0" width="136" height="410">
<path d="M1425 0H1289V410H1425V0Z" fill="#E1E6E5"/>
</mask>
<g mask="url(#mask8_2_2)">
<path fill-rule="evenodd" clip-rule="evenodd" d="M1290.31 230.111L1440.71 140.552C1441.99 139.793 1443.64 140.211 1444.4 141.486C1445.16 142.761 1444.74 144.41 1443.46 145.17L1293.06 234.728C1292.63 234.985 1292.16 235.106 1291.69 235.106C1290.77 235.106 1289.88 234.638 1289.38 233.794C1288.62 232.519 1289.04 230.87 1290.31 230.111Z" fill="#E1E6E5"/>
</g>
<mask id="mask9_2_2" style="mask-type:luminance" maskUnits="userSpaceOnUse" x="1289" y="0" width="136" height="410">
<path d="M1425 0H1289V410H1425V0Z" fill="#E1E6E5"/>
</mask>
<g mask="url(#mask9_2_2)">
<path fill-rule="evenodd" clip-rule="evenodd" d="M1292.24 205.806C1291.93 206.024 1291.57 206.129 1291.22 206.129C1290.65 206.129 1290.09 205.861 1289.74 205.362C1289.18 204.551 1289.38 203.434 1290.19 202.868L1418.51 113.31C1419.33 112.744 1420.44 112.943 1421.01 113.753C1421.58 114.564 1421.38 115.681 1420.57 116.247L1292.24 205.806Z" fill="#E1E6E5"/>
</g>
<mask id="mask10_2_2" style="mask-type:luminance" maskUnits="userSpaceOnUse" x="1289" y="0" width="136" height="410">
<path d="M1425 0H1289V410H1425V0Z" fill="#E1E6E5"/>
</mask>
<g mask="url(#mask10_2_2)">
<path fill-rule="evenodd" clip-rule="evenodd" d="M1297.08 177.634C1296.75 177.91 1296.34 178.045 1295.94 178.045C1295.42 178.045 1294.91 177.824 1294.56 177.396C1293.93 176.634 1294.03 175.505 1294.8 174.875L1402.99 85.3156C1403.75 84.6846 1404.88 84.7916 1405.51 85.5526C1406.14 86.3146 1406.03 87.4446 1405.27 88.0746L1297.08 177.634Z" fill="#E1E6E5"/>
</g>
<mask id="mask11_2_2" style="mask-type:luminance" maskUnits="userSpaceOnUse" x="1289" y="0" width="136" height="410">
<path d="M1425 0H1289V410H1425V0Z" fill="#E1E6E5"/>
</mask>
<g mask="url(#mask11_2_2)">
<path fill-rule="evenodd" clip-rule="evenodd" d="M1395.94 57.9795C1396.29 58.3295 1396.29 58.8965 1395.94 59.2465L1306.34 148.806C1306.16 148.98 1305.93 149.067 1305.7 149.067C1305.47 149.067 1305.24 148.98 1305.07 148.805C1304.72 148.455 1304.72 147.888 1305.07 147.538L1394.68 57.9795C1395.03 57.6305 1395.59 57.6295 1395.94 57.9795Z" fill="#E1E6E5"/>
</g>
<mask id="mask12_2_2" style="mask-type:luminance" maskUnits="userSpaceOnUse" x="1289" y="0" width="136" height="410">
<path d="M1425 0H1289V410H1425V0Z" fill="#E1E6E5"/>
</mask>
<g mask="url(#mask12_2_2)">
<path fill-rule="evenodd" clip-rule="evenodd" d="M1393.13 29.8548C1393.5 30.1798 1393.54 30.7458 1393.22 31.1188L1318.3 117.094C1318.12 117.297 1317.87 117.401 1317.62 117.401C1317.41 117.401 1317.2 117.329 1317.03 117.181C1316.66 116.856 1316.62 116.29 1316.95 115.917L1391.87 29.9418C1392.19 29.5678 1392.76 29.5308 1393.13 29.8548Z" fill="#E1E6E5"/>
</g>
<mask id="mask13_2_2" style="mask-type:luminance" maskUnits="userSpaceOnUse" x="1289" y="0" width="136" height="410">
<path d="M1425 0H1289V410H1425V0Z" fill="#E1E6E5"/>
</mask>
<g mask="url(#mask13_2_2)">
<path fill-rule="evenodd" clip-rule="evenodd" d="M1330.73 83.4966C1330.64 83.6056 1330.51 83.6626 1330.38 83.6626C1330.28 83.6626 1330.18 83.6296 1330.1 83.5626C1329.91 83.4066 1329.88 83.1246 1330.03 82.9326L1395.49 2.16464C1395.65 1.97364 1395.93 1.94464 1396.12 2.09964C1396.32 2.25564 1396.35 2.53664 1396.19 2.72964L1330.73 83.4966Z" fill="#E1E6E5"/>
</g>
<mask id="mask14_2_2" style="mask-type:luminance" maskUnits="userSpaceOnUse" x="1289" y="0" width="136" height="410">
<path d="M1425 0H1289V410H1425V0Z" fill="#E1E6E5"/>
</mask>
<g mask="url(#mask14_2_2)">
<path fill-rule="evenodd" clip-rule="evenodd" d="M1338.81 48.6729C1338.72 48.7829 1338.6 48.8389 1338.47 48.8389C1338.37 48.8389 1338.27 48.8069 1338.18 48.7399C1337.99 48.5849 1337.96 48.3029 1338.12 48.1099L1374.81 2.71492C1374.96 2.52292 1375.24 2.49192 1375.44 2.64892C1375.63 2.80392 1375.66 3.08592 1375.5 3.27792L1338.81 48.6729Z" fill="#E1E6E5"/>
</g>
</g>
</g>
<mask id="mask15_2_2" style="mask-type:luminance" maskUnits="userSpaceOnUse" x="880" y="435" width="146" height="414">
<path d="M889.34 848.39L1025.31 845.52L1016.66 435.611L880.69 438.481L889.34 848.39Z" fill="white"/>
</mask>
<g mask="url(#mask15_2_2)">
<mask id="mask16_2_2" style="mask-type:luminance" maskUnits="userSpaceOnUse" x="884" y="436" width="138" height="412">
<path d="M885.142 847.047L1021.14 846.953L1020.86 436.953L884.858 437.047L885.142 847.047Z" fill="white"/>
</mask>
<g mask="url(#mask16_2_2)">
<mask id="mask17_2_2" style="mask-type:luminance" maskUnits="userSpaceOnUse" x="884" y="436" width="138" height="412">
<path d="M885.142 847.047L1021.14 846.953L1020.86 436.953L884.858 437.047L885.142 847.047Z" fill="#E1E6E5"/>
</mask>
<g mask="url(#mask17_2_2)">
<path fill-rule="evenodd" clip-rule="evenodd" d="M905.008 452.833L664.022 542.56C660.312 543.939 656.187 542.054 654.807 538.345C653.426 534.637 655.313 530.512 659.021 529.13L900.009 439.405C900.832 439.099 901.674 438.954 902.503 438.953C905.412 438.951 908.149 440.733 909.223 443.619C910.604 447.327 908.717 451.454 905.008 452.833Z" fill="#E1E6E5"/>
</g>
<mask id="mask18_2_2" style="mask-type:luminance" maskUnits="userSpaceOnUse" x="884" y="436" width="138" height="412">
<path d="M885.142 847.047L1021.14 846.953L1020.86 436.953L884.858 437.047L885.142 847.047Z" fill="#E1E6E5"/>
</mask>
<g mask="url(#mask18_2_2)">
<path fill-rule="evenodd" clip-rule="evenodd" d="M939.162 480.949L680.021 570.687C676.28 571.981 672.201 569.999 670.907 566.262C669.613 562.522 671.593 558.442 675.333 557.147L934.474 467.408C935.248 467.139 936.038 467.012 936.813 467.011C939.783 467.009 942.561 468.869 943.588 471.834C944.882 475.574 942.902 479.654 939.162 480.949Z" fill="#E1E6E5"/>
</g>
<mask id="mask19_2_2" style="mask-type:luminance" maskUnits="userSpaceOnUse" x="884" y="436" width="138" height="412">
<path d="M885.142 847.047L1021.14 846.953L1020.86 436.953L884.858 437.047L885.142 847.047Z" fill="#E1E6E5"/>
</mask>
<g mask="url(#mask19_2_2)">
<path fill-rule="evenodd" clip-rule="evenodd" d="M966.193 506.48L703.039 596.221C700.701 597.018 698.155 595.768 697.356 593.429C696.558 591.088 697.809 588.542 700.149 587.745L963.302 498.003C963.781 497.84 964.266 497.762 964.745 497.762C966.609 497.76 968.351 498.933 968.986 500.797C969.783 503.137 968.533 505.681 966.193 506.48Z" fill="#E1E6E5"/>
</g>
<mask id="mask20_2_2" style="mask-type:luminance" maskUnits="userSpaceOnUse" x="884" y="436" width="138" height="412">
<path d="M885.142 847.047L1021.14 846.953L1020.86 436.953L884.858 437.047L885.142 847.047Z" fill="#E1E6E5"/>
</mask>
<g mask="url(#mask20_2_2)">
<path fill-rule="evenodd" clip-rule="evenodd" d="M987.796 534.529L735.237 624.262C732.906 625.093 730.345 623.873 729.518 621.542C728.689 619.212 729.907 616.652 732.238 615.823L984.797 526.09C985.292 525.914 985.797 525.83 986.293 525.83C988.136 525.829 989.864 526.974 990.516 528.81C991.345 531.14 990.127 533.701 987.796 534.529Z" fill="#E1E6E5"/>
</g>
<mask id="mask21_2_2" style="mask-type:luminance" maskUnits="userSpaceOnUse" x="884" y="436" width="138" height="412">
<path d="M885.142 847.047L1021.14 846.953L1020.86 436.953L884.858 437.047L885.142 847.047Z" fill="#E1E6E5"/>
</mask>
<g mask="url(#mask21_2_2)">
<path fill-rule="evenodd" clip-rule="evenodd" d="M1003.66 560.876L779.171 650.591C777.793 651.142 776.23 650.471 775.68 649.092C775.129 647.715 775.8 646.151 777.177 645.601L1001.67 555.886C1001.99 555.755 1002.33 555.694 1002.66 555.694C1003.73 555.693 1004.74 556.333 1005.16 557.385C1005.71 558.762 1005.04 560.326 1003.66 560.876Z" fill="#E1E6E5"/>
</g>
<mask id="mask22_2_2" style="mask-type:luminance" maskUnits="userSpaceOnUse" x="884" y="436" width="138" height="412">
<path d="M885.142 847.047L1021.14 846.953L1020.86 436.953L884.858 437.047L885.142 847.047Z" fill="#E1E6E5"/>
</mask>
<g mask="url(#mask22_2_2)">
<path fill-rule="evenodd" clip-rule="evenodd" d="M1014.68 588.863L833.929 678.547C832.599 679.206 830.988 678.663 830.328 677.334C829.668 676.005 830.211 674.393 831.541 673.733L1012.29 584.05C1012.67 583.859 1013.08 583.769 1013.48 583.769C1014.47 583.768 1015.42 584.316 1015.89 585.261C1016.55 586.591 1016 588.203 1014.68 588.863Z" fill="#E1E6E5"/>
</g>
<mask id="mask23_2_2" style="mask-type:luminance" maskUnits="userSpaceOnUse" x="884" y="436" width="138" height="412">
<path d="M885.142 847.047L1021.14 846.953L1020.86 436.953L884.858 437.047L885.142 847.047Z" fill="#E1E6E5"/>
</mask>
<g mask="url(#mask23_2_2)">
<path fill-rule="evenodd" clip-rule="evenodd" d="M1019.67 616.843L869.333 706.506C868.059 707.266 866.408 706.849 865.649 705.575C864.888 704.3 865.306 702.651 866.579 701.89L1016.92 612.228C1017.35 611.97 1017.82 611.849 1018.29 611.849C1019.2 611.848 1020.1 612.315 1020.6 613.159C1021.36 614.434 1020.94 616.083 1019.67 616.843Z" fill="#E1E6E5"/>
</g>
<mask id="mask24_2_2" style="mask-type:luminance" maskUnits="userSpaceOnUse" x="884" y="436" width="138" height="412">
<path d="M885.142 847.047L1021.14 846.953L1020.86 436.953L884.858 437.047L885.142 847.047Z" fill="#E1E6E5"/>
</mask>
<g mask="url(#mask24_2_2)">
<path fill-rule="evenodd" clip-rule="evenodd" d="M1017.76 641.149C1018.07 640.931 1018.43 640.826 1018.78 640.825C1019.35 640.825 1019.91 641.093 1020.26 641.591C1020.82 642.402 1020.62 643.519 1019.81 644.086L891.55 733.733C890.737 734.299 889.622 734.101 889.055 733.292C888.488 732.481 888.686 731.364 889.497 730.797L1017.76 641.149Z" fill="#E1E6E5"/>
</g>
<mask id="mask25_2_2" style="mask-type:luminance" maskUnits="userSpaceOnUse" x="884" y="436" width="138" height="412">
<path d="M885.142 847.047L1021.14 846.953L1020.86 436.953L884.858 437.047L885.142 847.047Z" fill="#E1E6E5"/>
</mask>
<g mask="url(#mask25_2_2)">
<path fill-rule="evenodd" clip-rule="evenodd" d="M1012.94 669.324C1013.27 669.048 1013.68 668.913 1014.08 668.913C1014.59 668.912 1015.11 669.133 1015.46 669.561C1016.09 670.322 1015.99 671.451 1015.22 672.082L907.096 761.716C906.335 762.348 905.205 762.242 904.574 761.481C903.942 760.72 904.049 759.59 904.81 758.959L1012.94 669.324Z" fill="#E1E6E5"/>
</g>
<mask id="mask26_2_2" style="mask-type:luminance" maskUnits="userSpaceOnUse" x="884" y="436" width="138" height="412">
<path d="M885.142 847.047L1021.14 846.953L1020.86 436.953L884.858 437.047L885.142 847.047Z" fill="#E1E6E5"/>
</mask>
<g mask="url(#mask26_2_2)">
<path fill-rule="evenodd" clip-rule="evenodd" d="M914.16 789.048C913.81 788.698 913.809 788.131 914.159 787.781L1003.7 698.159C1003.88 697.985 1004.11 697.898 1004.34 697.897C1004.56 697.897 1004.79 697.984 1004.97 698.159C1005.32 698.509 1005.32 699.076 1004.97 699.426L915.426 789.047C915.077 789.396 914.51 789.397 914.16 789.048Z" fill="#E1E6E5"/>
</g>
<mask id="mask27_2_2" style="mask-type:luminance" maskUnits="userSpaceOnUse" x="884" y="436" width="138" height="412">
<path d="M885.142 847.047L1021.14 846.953L1020.86 436.953L884.858 437.047L885.142 847.047Z" fill="#E1E6E5"/>
</mask>
<g mask="url(#mask27_2_2)">
<path fill-rule="evenodd" clip-rule="evenodd" d="M916.992 817.17C916.619 816.846 916.579 816.28 916.905 815.906L991.765 729.879C991.942 729.676 992.191 729.572 992.44 729.572C992.649 729.572 992.859 729.643 993.029 729.791C993.401 730.116 993.442 730.682 993.116 731.055L918.256 817.082C917.931 817.457 917.364 817.494 916.992 817.17Z" fill="#E1E6E5"/>
</g>
<mask id="mask28_2_2" style="mask-type:luminance" maskUnits="userSpaceOnUse" x="884" y="436" width="138" height="412">
<path d="M885.142 847.047L1021.14 846.953L1020.86 436.953L884.858 437.047L885.142 847.047Z" fill="#E1E6E5"/>
</mask>
<g mask="url(#mask28_2_2)">
<path fill-rule="evenodd" clip-rule="evenodd" d="M979.354 763.485C979.443 763.376 979.572 763.319 979.702 763.319C979.802 763.319 979.902 763.352 979.984 763.419C980.176 763.575 980.206 763.857 980.051 764.049L914.647 844.862C914.491 845.053 914.206 845.082 914.017 844.928C913.824 844.772 913.795 844.491 913.949 844.298L979.354 763.485Z" fill="#E1E6E5"/>
</g>
<mask id="mask29_2_2" style="mask-type:luminance" maskUnits="userSpaceOnUse" x="884" y="436" width="138" height="412">
<path d="M885.142 847.047L1021.14 846.953L1020.86 436.953L884.858 437.047L885.142 847.047Z" fill="#E1E6E5"/>
</mask>
<g mask="url(#mask29_2_2)">
<path fill-rule="evenodd" clip-rule="evenodd" d="M971.295 798.314C971.383 798.204 971.512 798.148 971.642 798.148C971.741 798.148 971.841 798.18 971.924 798.247C972.117 798.402 972.147 798.684 971.991 798.877L935.333 844.297C935.178 844.49 934.897 844.521 934.704 844.364C934.511 844.209 934.481 843.927 934.637 843.735L971.295 798.314Z" fill="#E1E6E5"/>
</g>
</g>
</g>
<g opacity="0.427575">
<path d="M889.398 1.1388C888.292 1.50734 887.292 2.6235 887.06 3.7502C886.608 5.91934 888.777 8.0885 890.946 7.63572C892.578 7.29876 893.842 5.63504 893.684 4.0661C893.568 2.96046 892.736 1.82323 891.683 1.30727C891.041 1.00191 890.051 0.928206 889.398 1.1388Z" fill="white"/>
<path d="M902.876 1.1388C901.286 1.66529 900.212 3.41325 900.539 4.95061C900.802 6.20366 901.971 7.37247 903.213 7.63572C905.256 8.06744 907.372 6.14048 907.162 4.0661C907.046 2.96047 906.214 1.82323 905.161 1.30727C904.519 1.00191 903.529 0.928207 902.876 1.1388Z" fill="white"/>
<path d="M916.354 1.1388C915.249 1.50734 914.248 2.6235 914.017 3.7502C913.564 5.91934 915.733 8.0885 917.902 7.63572C919.534 7.29876 920.798 5.63504 920.64 4.0661C920.524 2.96046 919.692 1.82323 918.639 1.30727C917.997 1.00191 917.007 0.928206 916.354 1.1388Z" fill="white"/>
<path d="M929.832 1.1388C928.727 1.50734 927.726 2.6235 927.495 3.7502C927.042 5.91934 929.211 8.0885 931.38 7.63572C933.012 7.29876 934.276 5.63504 934.118 4.0661C934.002 2.96046 933.17 1.82323 932.117 1.30727C931.475 1.00191 930.485 0.928206 929.832 1.1388Z" fill="white"/>
<path d="M943.31 1.1388C942.205 1.50734 941.204 2.6235 940.973 3.7502C940.52 5.91934 942.689 8.0885 944.858 7.63572C946.49 7.29876 947.754 5.63504 947.596 4.0661C947.48 2.96046 946.648 1.82323 945.595 1.30727C944.953 1.00191 943.963 0.928206 943.31 1.1388Z" fill="white"/>
<path d="M956.789 1.1388C955.683 1.50734 954.683 2.6235 954.451 3.7502C953.998 5.91934 956.167 8.0885 958.337 7.63572C959.969 7.29876 961.232 5.63504 961.074 4.0661C960.958 2.96046 960.127 1.82323 959.074 1.30727C958.431 1.00191 957.442 0.928206 956.789 1.1388Z" fill="white"/>
<path d="M970.267 1.1388C969.161 1.50734 968.161 2.6235 967.929 3.7502C967.476 5.91934 969.645 8.0885 971.815 7.63572C973.447 7.29876 974.71 5.63504 974.552 4.0661C974.437 2.96046 973.605 1.82323 972.552 1.30727C971.909 1.00191 970.92 0.928206 970.267 1.1388Z" fill="white"/>
<path d="M983.745 1.1388C982.639 1.50734 981.639 2.6235 981.407 3.7502C980.954 5.91934 983.123 8.0885 985.293 7.63572C986.925 7.29876 988.188 5.63504 988.03 4.0661C987.915 2.96046 987.083 1.82323 986.03 1.30727C985.387 1.00191 984.398 0.928206 983.745 1.1388Z" fill="white"/>
<path d="M997.223 1.13877C996.117 1.50732 995.117 2.62348 994.885 3.75017C994.622 4.98216 995.222 6.31946 996.381 7.10919C997.507 7.8884 998.792 7.89894 999.929 7.14079C1001.79 5.89827 1002.05 3.5817 1000.49 2.03381C999.592 1.12824 998.307 0.780756 997.223 1.13877Z" fill="white"/>
<path d="M1010.7 1.13877C1009.6 1.50732 1008.59 2.62348 1008.36 3.75017C1008.1 4.98216 1008.7 6.31946 1009.86 7.10919C1010.99 7.8884 1012.27 7.89894 1013.41 7.14079C1015.27 5.89827 1015.52 3.5817 1013.97 2.03381C1013.07 1.12824 1011.79 0.780756 1010.7 1.13877Z" fill="white"/>
<path d="M889.398 14.6169C888.292 14.9855 887.292 16.1017 887.06 17.2284C886.608 19.3975 888.777 21.5666 890.946 21.1139C892.578 20.7769 893.842 19.1132 893.684 17.5442C893.568 16.4386 892.736 15.3014 891.683 14.7854C891.041 14.4801 890.051 14.4064 889.398 14.6169Z" fill="white"/>
<path d="M902.876 14.617C901.286 15.1435 900.212 16.8914 900.539 18.4288C900.802 19.6818 901.971 20.8507 903.213 21.1139C905.256 21.5456 907.372 19.6187 907.162 17.5443C907.046 16.4387 906.214 15.3014 905.161 14.7855C904.519 14.4801 903.529 14.4064 902.876 14.617Z" fill="white"/>
<path d="M916.354 14.6169C915.249 14.9855 914.248 16.1017 914.017 17.2284C913.564 19.3975 915.733 21.5666 917.902 21.1139C919.534 20.7769 920.798 19.1132 920.64 17.5442C920.524 16.4386 919.692 15.3014 918.639 14.7854C917.997 14.4801 917.007 14.4064 916.354 14.6169Z" fill="white"/>
<path d="M929.832 14.6169C928.727 14.9855 927.726 16.1017 927.495 17.2284C927.042 19.3975 929.211 21.5666 931.38 21.1139C933.012 20.7769 934.276 19.1132 934.118 17.5442C934.002 16.4386 933.17 15.3014 932.117 14.7854C931.475 14.4801 930.485 14.4064 929.832 14.6169Z" fill="white"/>
<path d="M943.31 14.6169C942.205 14.9855 941.204 16.1017 940.973 17.2284C940.52 19.3975 942.689 21.5666 944.858 21.1139C946.49 20.7769 947.754 19.1132 947.596 17.5442C947.48 16.4386 946.648 15.3014 945.595 14.7854C944.953 14.4801 943.963 14.4064 943.31 14.6169Z" fill="white"/>
<path d="M956.789 14.6169C955.683 14.9855 954.683 16.1017 954.451 17.2284C953.998 19.3975 956.167 21.5666 958.337 21.1139C959.969 20.7769 961.232 19.1132 961.074 17.5442C960.958 16.4386 960.127 15.3014 959.074 14.7854C958.431 14.4801 957.442 14.4064 956.789 14.6169Z" fill="white"/>
<path d="M970.267 14.6169C969.161 14.9855 968.161 16.1017 967.929 17.2284C967.476 19.3975 969.645 21.5666 971.815 21.1139C973.447 20.7769 974.71 19.1132 974.552 17.5442C974.437 16.4386 973.605 15.3014 972.552 14.7854C971.909 14.4801 970.92 14.4064 970.267 14.6169Z" fill="white"/>
<path d="M983.745 14.6169C982.639 14.9855 981.639 16.1017 981.407 17.2284C980.954 19.3975 983.123 21.5666 985.293 21.1139C986.925 20.7769 988.188 19.1132 988.03 17.5442C987.915 16.4386 987.083 15.3014 986.03 14.7854C985.387 14.4801 984.398 14.4064 983.745 14.6169Z" fill="white"/>
<path d="M997.223 14.617C996.117 14.9855 995.117 16.1017 994.885 17.2284C994.622 18.4604 995.222 19.7977 996.381 20.5874C997.507 21.3666 998.792 21.3771 999.929 20.619C1001.79 19.3765 1002.05 17.0599 1000.49 15.512C999.592 14.6064 998.307 14.259 997.223 14.617Z" fill="white"/>
<path d="M1010.7 14.617C1009.6 14.9855 1008.59 16.1017 1008.36 17.2284C1008.1 18.4604 1008.7 19.7977 1009.86 20.5874C1010.99 21.3666 1012.27 21.3771 1013.41 20.619C1015.27 19.3765 1015.52 17.0599 1013.97 15.512C1013.07 14.6064 1011.79 14.259 1010.7 14.617Z" fill="white"/>
<path d="M889.398 28.0952C888.292 28.4637 887.292 29.5799 887.06 30.7066C886.608 32.8757 888.777 35.0449 890.946 34.5921C892.578 34.2551 893.842 32.5914 893.684 31.0225C893.568 29.9168 892.736 28.7796 891.683 28.2636C891.041 27.9583 890.051 27.8846 889.398 28.0952Z" fill="white"/>
<path d="M902.876 28.0952C901.77 28.4637 900.77 29.5799 900.538 30.7066C900.086 32.8757 902.255 35.0449 904.424 34.5921C906.056 34.2551 907.32 32.5914 907.162 31.0225C907.046 29.9168 906.214 28.7796 905.161 28.2636C904.519 27.9583 903.529 27.8846 902.876 28.0952Z" fill="white"/>
<path d="M916.354 28.0952C915.249 28.4637 914.248 29.5799 914.017 30.7066C913.564 32.8757 915.733 35.0449 917.902 34.5921C919.534 34.2551 920.798 32.5914 920.64 31.0225C920.524 29.9168 919.692 28.7796 918.639 28.2636C917.997 27.9583 917.007 27.8846 916.354 28.0952Z" fill="white"/>
<path d="M929.832 28.0952C928.727 28.4637 927.726 29.5799 927.495 30.7066C927.042 32.8757 929.211 35.0449 931.38 34.5921C933.012 34.2551 934.276 32.5914 934.118 31.0225C934.002 29.9168 933.17 28.7796 932.117 28.2636C931.475 27.9583 930.485 27.8846 929.832 28.0952Z" fill="white"/>
<path d="M943.31 28.0952C942.205 28.4637 941.204 29.5799 940.973 30.7066C940.52 32.8757 942.689 35.0449 944.858 34.5921C946.49 34.2551 947.754 32.5914 947.596 31.0225C947.48 29.9168 946.648 28.7796 945.595 28.2636C944.953 27.9583 943.963 27.8846 943.31 28.0952Z" fill="white"/>
<path d="M956.789 28.0952C955.683 28.4637 954.683 29.5799 954.451 30.7066C953.998 32.8757 956.167 35.0449 958.337 34.5921C959.969 34.2551 961.232 32.5914 961.074 31.0225C960.958 29.9168 960.127 28.7796 959.074 28.2636C958.431 27.9583 957.442 27.8846 956.789 28.0952Z" fill="white"/>
<path d="M970.267 28.0952C969.161 28.4637 968.161 29.5799 967.929 30.7066C967.476 32.8757 969.645 35.0449 971.815 34.5921C973.447 34.2551 974.71 32.5914 974.552 31.0225C974.437 29.9168 973.605 28.7796 972.552 28.2636C971.909 27.9583 970.92 27.8846 970.267 28.0952Z" fill="white"/>
<path d="M983.745 28.0952C982.639 28.4637 981.639 29.5799 981.407 30.7066C980.954 32.8757 983.123 35.0449 985.293 34.5921C986.925 34.2551 988.188 32.5914 988.03 31.0225C987.915 29.9168 987.083 28.7796 986.03 28.2636C985.387 27.9583 984.398 27.8846 983.745 28.0952Z" fill="white"/>
<path d="M997.223 28.0952C996.117 28.4637 995.117 29.5799 994.885 30.7066C994.433 32.8757 996.602 35.0449 998.771 34.5921C1000.4 34.2551 1001.67 32.5914 1001.51 31.0225C1001.39 29.9168 1000.56 28.7796 999.508 28.2636C998.866 27.9583 997.876 27.8846 997.223 28.0952Z" fill="white"/>
<path d="M1010.7 28.0952C1009.6 28.4637 1008.6 29.5799 1008.36 30.7066C1007.91 32.8757 1010.08 35.0449 1012.25 34.5921C1013.88 34.2551 1015.14 32.5914 1014.99 31.0225C1014.87 29.9168 1014.04 28.7796 1012.99 28.2636C1012.34 27.9583 1011.35 27.8846 1010.7 28.0952Z" fill="white"/>
<path d="M889.398 41.5734C888.292 41.9419 887.292 43.0581 887.06 44.1848C886.608 46.3539 888.777 48.5231 890.946 48.0703C892.578 47.7333 893.842 46.0696 893.684 44.5007C893.568 43.395 892.736 42.2578 891.683 41.7418C891.041 41.4365 890.051 41.3628 889.398 41.5734Z" fill="white"/>
<path d="M902.876 41.5734C901.77 41.9419 900.77 43.0581 900.538 44.1848C900.086 46.3539 902.255 48.5231 904.424 48.0703C906.056 47.7333 907.32 46.0696 907.162 44.5007C907.046 43.395 906.214 42.2578 905.161 41.7418C904.519 41.4365 903.529 41.3628 902.876 41.5734Z" fill="white"/>
<path d="M916.354 41.5734C915.249 41.9419 914.248 43.0581 914.017 44.1848C913.564 46.3539 915.733 48.5231 917.902 48.0703C919.534 47.7333 920.798 46.0696 920.64 44.5007C920.524 43.395 919.692 42.2578 918.639 41.7418C917.997 41.4365 917.007 41.3628 916.354 41.5734Z" fill="white"/>
<path d="M929.832 41.5734C928.727 41.9419 927.726 43.0581 927.495 44.1848C927.042 46.3539 929.211 48.5231 931.38 48.0703C933.012 47.7333 934.276 46.0696 934.118 44.5007C934.002 43.395 933.17 42.2578 932.117 41.7418C931.475 41.4365 930.485 41.3628 929.832 41.5734Z" fill="white"/>
<path d="M943.31 41.5734C942.205 41.9419 941.204 43.0581 940.973 44.1848C940.52 46.3539 942.689 48.5231 944.858 48.0703C946.49 47.7333 947.754 46.0696 947.596 44.5007C947.48 43.395 946.648 42.2578 945.595 41.7418C944.953 41.4365 943.963 41.3628 943.31 41.5734Z" fill="white"/>
<path d="M956.789 41.5734C955.683 41.9419 954.683 43.0581 954.451 44.1848C953.998 46.3539 956.167 48.5231 958.337 48.0703C959.969 47.7333 961.232 46.0696 961.074 44.5007C960.958 43.395 960.127 42.2578 959.074 41.7418C958.431 41.4365 957.442 41.3628 956.789 41.5734Z" fill="white"/>
<path d="M970.267 41.5734C969.161 41.9419 968.161 43.0581 967.929 44.1848C967.476 46.3539 969.645 48.5231 971.815 48.0703C973.447 47.7333 974.71 46.0696 974.552 44.5007C974.437 43.395 973.605 42.2578 972.552 41.7418C971.909 41.4365 970.92 41.3628 970.267 41.5734Z" fill="white"/>
<path d="M983.745 41.5734C982.639 41.9419 981.639 43.0581 981.407 44.1848C980.954 46.3539 983.123 48.5231 985.293 48.0703C986.925 47.7333 988.188 46.0696 988.03 44.5007C987.915 43.395 987.083 42.2578 986.03 41.7418C985.387 41.4365 984.398 41.3628 983.745 41.5734Z" fill="white"/>
<path d="M997.223 41.5734C996.117 41.9419 995.117 43.0581 994.885 44.1848C994.433 46.3539 996.602 48.5231 998.771 48.0703C1000.4 47.7333 1001.67 46.0696 1001.51 44.5007C1001.39 43.395 1000.56 42.2578 999.508 41.7418C998.866 41.4365 997.876 41.3628 997.223 41.5734Z" fill="white"/>
<path d="M1010.7 41.5734C1009.6 41.9419 1008.6 43.0581 1008.36 44.1848C1007.91 46.3539 1010.08 48.5231 1012.25 48.0703C1013.88 47.7333 1015.14 46.0696 1014.99 44.5007C1014.87 43.395 1014.04 42.2578 1012.99 41.7418C1012.34 41.4365 1011.35 41.3628 1010.7 41.5734Z" fill="white"/>
<path d="M889.398 55.0516C888.292 55.4201 887.292 56.5363 887.06 57.663C886.608 59.8321 888.777 62.0013 890.946 61.5485C892.578 61.2115 893.842 59.5478 893.684 57.9789C893.568 56.8732 892.736 55.736 891.683 55.2201C891.041 54.9147 890.051 54.841 889.398 55.0516Z" fill="white"/>
<path d="M902.876 55.0516C901.77 55.4201 900.77 56.5363 900.538 57.663C900.086 59.8321 902.255 62.0013 904.424 61.5485C906.056 61.2115 907.32 59.5478 907.162 57.9789C907.046 56.8732 906.214 55.736 905.161 55.2201C904.519 54.9147 903.529 54.841 902.876 55.0516Z" fill="white"/>
<path d="M916.354 55.0516C915.249 55.4201 914.248 56.5363 914.017 57.663C913.564 59.8321 915.733 62.0013 917.902 61.5485C919.534 61.2115 920.798 59.5478 920.64 57.9789C920.524 56.8732 919.692 55.736 918.639 55.2201C917.997 54.9147 917.007 54.841 916.354 55.0516Z" fill="white"/>
<path d="M929.832 55.0516C928.727 55.4201 927.726 56.5363 927.495 57.663C927.042 59.8321 929.211 62.0013 931.38 61.5485C933.012 61.2115 934.276 59.5478 934.118 57.9789C934.002 56.8732 933.17 55.736 932.117 55.2201C931.475 54.9147 930.485 54.841 929.832 55.0516Z" fill="white"/>
<path d="M943.31 55.0516C942.205 55.4201 941.204 56.5363 940.973 57.663C940.52 59.8321 942.689 62.0013 944.858 61.5485C946.49 61.2115 947.754 59.5478 947.596 57.9789C947.48 56.8732 946.648 55.736 945.595 55.2201C944.953 54.9147 943.963 54.841 943.31 55.0516Z" fill="white"/>
<path d="M956.789 55.0516C955.683 55.4201 954.683 56.5363 954.451 57.663C953.998 59.8321 956.167 62.0013 958.337 61.5485C959.969 61.2115 961.232 59.5478 961.074 57.9789C960.958 56.8732 960.127 55.736 959.074 55.2201C958.431 54.9147 957.442 54.841 956.789 55.0516Z" fill="white"/>
<path d="M970.267 55.0516C969.161 55.4201 968.161 56.5363 967.929 57.663C967.476 59.8321 969.645 62.0013 971.815 61.5485C973.447 61.2115 974.71 59.5478 974.552 57.9789C974.437 56.8732 973.605 55.736 972.552 55.2201C971.909 54.9147 970.92 54.841 970.267 55.0516Z" fill="white"/>
<path d="M983.745 55.0516C982.639 55.4201 981.639 56.5363 981.407 57.663C980.954 59.8321 983.123 62.0013 985.293 61.5485C986.925 61.2115 988.188 59.5478 988.03 57.9789C987.915 56.8732 987.083 55.736 986.03 55.2201C985.387 54.9147 984.398 54.841 983.745 55.0516Z" fill="white"/>
<path d="M997.223 55.0516C996.117 55.4201 995.117 56.5363 994.885 57.663C994.433 59.8321 996.602 62.0013 998.771 61.5485C1000.4 61.2115 1001.67 59.5478 1001.51 57.9789C1001.39 56.8732 1000.56 55.736 999.508 55.2201C998.866 54.9147 997.876 54.841 997.223 55.0516Z" fill="white"/>
<path d="M1010.7 55.0516C1009.6 55.4201 1008.6 56.5363 1008.36 57.663C1007.91 59.8321 1010.08 62.0013 1012.25 61.5485C1013.88 61.2115 1015.14 59.5478 1014.99 57.9789C1014.87 56.8732 1014.04 55.736 1012.99 55.2201C1012.34 54.9147 1011.35 54.841 1010.7 55.0516Z" fill="white"/>
<path d="M889.398 68.5298C888.292 68.8983 887.292 70.0145 887.06 71.1412C886.608 73.3103 888.777 75.4795 890.946 75.0267C892.578 74.6898 893.842 73.026 893.684 71.4571C893.568 70.3515 892.736 69.2142 891.683 68.6983C891.041 68.3929 890.051 68.3192 889.398 68.5298Z" fill="white"/>
<path d="M902.876 68.5298C901.77 68.8983 900.77 70.0145 900.538 71.1412C900.086 73.3103 902.255 75.4795 904.424 75.0267C906.056 74.6898 907.32 73.026 907.162 71.4571C907.046 70.3515 906.214 69.2142 905.161 68.6983C904.519 68.3929 903.529 68.3192 902.876 68.5298Z" fill="white"/>
<path d="M916.354 68.5298C915.249 68.8983 914.248 70.0145 914.017 71.1412C913.564 73.3103 915.733 75.4795 917.902 75.0267C919.534 74.6898 920.798 73.026 920.64 71.4571C920.524 70.3515 919.692 69.2142 918.639 68.6983C917.997 68.3929 917.007 68.3192 916.354 68.5298Z" fill="white"/>
<path d="M929.832 68.5298C928.727 68.8983 927.726 70.0145 927.495 71.1412C927.042 73.3103 929.211 75.4795 931.38 75.0267C933.012 74.6898 934.276 73.026 934.118 71.4571C934.002 70.3515 933.17 69.2142 932.117 68.6983C931.475 68.3929 930.485 68.3192 929.832 68.5298Z" fill="white"/>
<path d="M943.31 68.5298C942.205 68.8983 941.204 70.0145 940.973 71.1412C940.52 73.3103 942.689 75.4795 944.858 75.0267C946.49 74.6898 947.754 73.026 947.596 71.4571C947.48 70.3515 946.648 69.2142 945.595 68.6983C944.953 68.3929 943.963 68.3192 943.31 68.5298Z" fill="white"/>
<path d="M956.789 68.5298C955.683 68.8983 954.683 70.0145 954.451 71.1412C953.998 73.3103 956.167 75.4795 958.337 75.0267C959.969 74.6898 961.232 73.026 961.074 71.4571C960.958 70.3515 960.127 69.2142 959.074 68.6983C958.431 68.3929 957.442 68.3192 956.789 68.5298Z" fill="white"/>
<path d="M970.267 68.5298C969.161 68.8983 968.161 70.0145 967.929 71.1412C967.476 73.3103 969.645 75.4795 971.815 75.0267C973.447 74.6898 974.71 73.026 974.552 71.4571C974.437 70.3515 973.605 69.2142 972.552 68.6983C971.909 68.3929 970.92 68.3192 970.267 68.5298Z" fill="white"/>
<path d="M983.745 68.5298C982.639 68.8983 981.639 70.0145 981.407 71.1412C980.954 73.3103 983.123 75.4795 985.293 75.0267C986.925 74.6898 988.188 73.026 988.03 71.4571C987.915 70.3515 987.083 69.2142 986.03 68.6983C985.387 68.3929 984.398 68.3192 983.745 68.5298Z" fill="white"/>
<path d="M997.223 68.5298C996.117 68.8983 995.117 70.0145 994.885 71.1412C994.433 73.3103 996.602 75.4795 998.771 75.0267C1000.4 74.6898 1001.67 73.026 1001.51 71.4571C1001.39 70.3515 1000.56 69.2142 999.508 68.6983C998.866 68.3929 997.876 68.3192 997.223 68.5298Z" fill="white"/>
<path d="M1010.7 68.5298C1009.6 68.8983 1008.6 70.0145 1008.36 71.1412C1007.91 73.3103 1010.08 75.4795 1012.25 75.0267C1013.88 74.6898 1015.14 73.026 1014.99 71.4571C1014.87 70.3515 1014.04 69.2142 1012.99 68.6983C1012.34 68.3929 1011.35 68.3192 1010.7 68.5298Z" fill="white"/>
<path d="M889.398 82.008C888.292 82.3765 887.292 83.4927 887.06 84.6194C886.608 86.7885 888.777 88.9577 890.946 88.5049C892.578 88.168 893.842 86.5042 893.684 84.9353C893.568 83.8297 892.736 82.6924 891.683 82.1765C891.041 81.8711 890.051 81.7974 889.398 82.008Z" fill="white"/>
<path d="M902.876 82.008C901.77 82.3765 900.77 83.4927 900.538 84.6194C900.086 86.7885 902.255 88.9577 904.424 88.5049C906.056 88.168 907.32 86.5042 907.162 84.9353C907.046 83.8297 906.214 82.6924 905.161 82.1765C904.519 81.8711 903.529 81.7974 902.876 82.008Z" fill="white"/>
<path d="M916.354 82.008C915.249 82.3766 914.248 83.4927 914.017 84.6194C913.753 85.8514 914.354 87.1887 915.512 87.9784C916.639 88.7577 917.923 88.7682 919.06 88.01C920.924 86.7675 921.177 84.451 919.618 82.9031C918.723 81.9975 917.439 81.65 916.354 82.008Z" fill="white"/>
<path d="M929.832 82.008C928.727 82.3766 927.726 83.4927 927.495 84.6194C927.231 85.8514 927.832 87.1887 928.99 87.9784C930.117 88.7577 931.401 88.7682 932.538 88.01C934.402 86.7675 934.655 84.451 933.097 82.9031C932.201 81.9975 930.917 81.65 929.832 82.008Z" fill="white"/>
<path d="M943.31 82.008C941.72 82.5345 940.646 84.2825 940.973 85.8198C941.236 87.0729 942.405 88.2417 943.658 88.505C945.69 88.9367 947.807 87.0097 947.596 84.9353C947.48 83.8297 946.648 82.6925 945.595 82.1765C944.953 81.8712 943.963 81.7974 943.31 82.008Z" fill="white"/>
<path d="M956.788 82.008C955.199 82.5345 954.124 84.2825 954.451 85.8198C954.714 87.0729 955.883 88.2417 957.136 88.505C959.168 88.9367 961.285 87.0097 961.074 84.9353C960.958 83.8297 960.126 82.6925 959.073 82.1765C958.431 81.8712 957.441 81.7974 956.788 82.008Z" fill="white"/>
<path d="M970.267 82.008C968.677 82.5345 967.603 84.2825 967.929 85.8198C968.192 87.0729 969.361 88.2417 970.614 88.505C972.646 88.9367 974.763 87.0097 974.552 84.9353C974.437 83.8297 973.605 82.6925 972.552 82.1765C971.909 81.8712 970.92 81.7974 970.267 82.008Z" fill="white"/>
<path d="M983.745 82.008C982.155 82.5345 981.081 84.2825 981.407 85.8198C981.67 87.0729 982.839 88.2417 984.092 88.505C986.125 88.9367 988.241 87.0097 988.03 84.9353C987.915 83.8297 987.083 82.6925 986.03 82.1765C985.387 81.8712 984.398 81.7974 983.745 82.008Z" fill="white"/>
<path d="M997.223 82.008C996.117 82.3765 995.117 83.4927 994.885 84.6194C994.433 86.7885 996.602 88.9577 998.771 88.5049C1000.4 88.168 1001.67 86.5042 1001.51 84.9353C1001.39 83.8297 1000.56 82.6924 999.508 82.1765C998.866 81.8711 997.876 81.7974 997.223 82.008Z" fill="white"/>
<path d="M1010.7 82.008C1009.6 82.3765 1008.6 83.4927 1008.36 84.6194C1007.91 86.7885 1010.08 88.9577 1012.25 88.5049C1013.88 88.168 1015.14 86.5042 1014.99 84.9353C1014.87 83.8297 1014.04 82.6924 1012.99 82.1765C1012.34 81.8711 1011.35 81.7974 1010.7 82.008Z" fill="white"/>
<path d="M889.398 95.4862C888.292 95.8548 887.292 96.9709 887.06 98.0976C886.608 100.267 888.777 102.436 890.946 101.983C892.578 101.646 893.842 99.9825 893.684 98.4135C893.568 97.3079 892.736 96.1706 891.683 95.6547C891.041 95.3493 890.051 95.2756 889.398 95.4862Z" fill="white"/>
<path d="M902.876 95.4862C901.77 95.8548 900.77 96.9709 900.538 98.0976C900.086 100.267 902.255 102.436 904.424 101.983C906.056 101.646 907.32 99.9825 907.162 98.4135C907.046 97.3079 906.214 96.1706 905.161 95.6547C904.519 95.3493 903.529 95.2756 902.876 95.4862Z" fill="white"/>
<path d="M916.354 95.4862C915.249 95.8548 914.248 96.9709 914.017 98.0976C913.753 99.3296 914.354 100.667 915.512 101.457C916.639 102.236 917.923 102.246 919.06 101.488C920.924 100.246 921.177 97.9292 919.618 96.3813C918.723 95.4757 917.439 95.1282 916.354 95.4862Z" fill="white"/>
<path d="M929.832 95.4862C928.727 95.8548 927.726 96.9709 927.495 98.0976C927.231 99.3296 927.832 100.667 928.99 101.457C930.117 102.236 931.401 102.246 932.538 101.488C934.402 100.246 934.655 97.9292 933.097 96.3813C932.201 95.4757 930.917 95.1282 929.832 95.4862Z" fill="white"/>
<path d="M943.31 95.4862C941.72 96.0127 940.646 97.7606 940.973 99.298C941.236 100.551 942.405 101.72 943.658 101.983C945.69 102.415 947.807 100.488 947.596 98.4135C947.48 97.3079 946.648 96.1706 945.595 95.6547C944.953 95.3493 943.963 95.2756 943.31 95.4862Z" fill="white"/>
<path d="M956.788 95.4862C955.199 96.0127 954.124 97.7606 954.451 99.298C954.714 100.551 955.883 101.72 957.136 101.983C959.168 102.415 961.285 100.488 961.074 98.4135C960.958 97.3079 960.126 96.1706 959.073 95.6547C958.431 95.3493 957.441 95.2756 956.788 95.4862Z" fill="white"/>
<path d="M970.267 95.4862C968.677 96.0127 967.603 97.7606 967.929 99.298C968.192 100.551 969.361 101.72 970.614 101.983C972.646 102.415 974.763 100.488 974.552 98.4135C974.437 97.3079 973.605 96.1706 972.552 95.6547C971.909 95.3493 970.92 95.2756 970.267 95.4862Z" fill="white"/>
<path d="M983.745 95.4862C982.155 96.0127 981.081 97.7606 981.407 99.298C981.67 100.551 982.839 101.72 984.092 101.983C986.125 102.415 988.241 100.488 988.03 98.4135C987.915 97.3079 987.083 96.1706 986.03 95.6547C985.387 95.3493 984.398 95.2756 983.745 95.4862Z" fill="white"/>
<path d="M997.223 95.4862C996.117 95.8548 995.117 96.9709 994.885 98.0976C994.433 100.267 996.602 102.436 998.771 101.983C1000.4 101.646 1001.67 99.9825 1001.51 98.4135C1001.39 97.3079 1000.56 96.1706 999.508 95.6547C998.866 95.3493 997.876 95.2756 997.223 95.4862Z" fill="white"/>
<path d="M1010.7 95.4862C1009.6 95.8548 1008.6 96.9709 1008.36 98.0976C1007.91 100.267 1010.08 102.436 1012.25 101.983C1013.88 101.646 1015.14 99.9825 1014.99 98.4135C1014.87 97.3079 1014.04 96.1706 1012.99 95.6547C1012.34 95.3493 1011.35 95.2756 1010.7 95.4862Z" fill="white"/>
<path d="M889.398 108.964C888.292 109.333 887.292 110.449 887.06 111.576C886.608 113.745 888.777 115.914 890.946 115.461C892.578 115.124 893.842 113.461 893.684 111.892C893.568 110.786 892.736 109.649 891.683 109.133C891.041 108.828 890.051 108.754 889.398 108.964Z" fill="white"/>
<path d="M902.876 108.964C901.77 109.333 900.77 110.449 900.538 111.576C900.086 113.745 902.255 115.914 904.424 115.461C906.056 115.124 907.32 113.461 907.162 111.892C907.046 110.786 906.214 109.649 905.161 109.133C904.519 108.828 903.529 108.754 902.876 108.964Z" fill="white"/>
<path d="M916.354 108.964C915.249 109.333 914.248 110.449 914.017 111.576C913.753 112.808 914.354 114.145 915.512 114.935C916.639 115.714 917.923 115.725 919.06 114.966C920.924 113.724 921.177 111.407 919.618 109.859C918.723 108.954 917.439 108.606 916.354 108.964Z" fill="white"/>
<path d="M929.832 108.964C928.727 109.333 927.726 110.449 927.495 111.576C927.231 112.808 927.832 114.145 928.99 114.935C930.117 115.714 931.401 115.725 932.538 114.966C934.402 113.724 934.655 111.407 933.097 109.859C932.201 108.954 930.917 108.606 929.832 108.964Z" fill="white"/>
<path d="M943.31 108.964C942.205 109.333 941.204 110.449 940.973 111.576C940.52 113.745 942.689 115.914 944.858 115.461C946.49 115.124 947.754 113.461 947.596 111.892C947.48 110.786 946.648 109.649 945.595 109.133C944.953 108.828 943.963 108.754 943.31 108.964Z" fill="white"/>
<path d="M956.789 108.964C955.683 109.333 954.683 110.449 954.451 111.576C953.998 113.745 956.167 115.914 958.337 115.461C959.969 115.124 961.232 113.461 961.074 111.892C960.958 110.786 960.127 109.649 959.074 109.133C958.431 108.828 957.442 108.754 956.789 108.964Z" fill="white"/>
<path d="M970.267 108.964C969.161 109.333 968.161 110.449 967.929 111.576C967.476 113.745 969.645 115.914 971.815 115.461C973.447 115.124 974.71 113.461 974.552 111.892C974.437 110.786 973.605 109.649 972.552 109.133C971.909 108.828 970.92 108.754 970.267 108.964Z" fill="white"/>
<path d="M983.745 108.964C982.639 109.333 981.639 110.449 981.407 111.576C980.954 113.745 983.123 115.914 985.293 115.461C986.925 115.124 988.188 113.461 988.03 111.892C987.915 110.786 987.083 109.649 986.03 109.133C985.387 108.828 984.398 108.754 983.745 108.964Z" fill="white"/>
<path d="M997.223 108.964C996.117 109.333 995.117 110.449 994.885 111.576C994.433 113.745 996.602 115.914 998.771 115.461C1000.4 115.124 1001.67 113.461 1001.51 111.892C1001.39 110.786 1000.56 109.649 999.508 109.133C998.866 108.828 997.876 108.754 997.223 108.964Z" fill="white"/>
<path d="M1010.7 108.964C1009.6 109.333 1008.6 110.449 1008.36 111.576C1007.91 113.745 1010.08 115.914 1012.25 115.461C1013.88 115.124 1015.14 113.461 1014.99 111.892C1014.87 110.786 1014.04 109.649 1012.99 109.133C1012.34 108.828 1011.35 108.754 1010.7 108.964Z" fill="white"/>
<path d="M889.398 122.443C888.292 122.811 887.292 123.927 887.06 125.054C886.608 127.223 888.777 129.392 890.946 128.94C892.578 128.603 893.842 126.939 893.684 125.37C893.568 124.264 892.736 123.127 891.683 122.611C891.041 122.306 890.051 122.232 889.398 122.443Z" fill="white"/>
<path d="M902.876 122.443C901.77 122.811 900.77 123.927 900.538 125.054C900.086 127.223 902.255 129.392 904.424 128.94C906.056 128.603 907.32 126.939 907.162 125.37C907.046 124.264 906.214 123.127 905.161 122.611C904.519 122.306 903.529 122.232 902.876 122.443Z" fill="white"/>
<path d="M916.354 122.443C915.249 122.811 914.248 123.927 914.017 125.054C913.564 127.223 915.733 129.392 917.902 128.94C919.534 128.603 920.798 126.939 920.64 125.37C920.524 124.264 919.692 123.127 918.639 122.611C917.997 122.306 917.007 122.232 916.354 122.443Z" fill="white"/>
<path d="M929.832 122.443C928.727 122.811 927.726 123.927 927.495 125.054C927.042 127.223 929.211 129.392 931.38 128.94C933.012 128.603 934.276 126.939 934.118 125.37C934.002 124.264 933.17 123.127 932.117 122.611C931.475 122.306 930.485 122.232 929.832 122.443Z" fill="white"/>
<path d="M943.31 122.443C942.205 122.811 941.204 123.927 940.973 125.054C940.52 127.223 942.689 129.392 944.858 128.94C946.49 128.603 947.754 126.939 947.596 125.37C947.48 124.264 946.648 123.127 945.595 122.611C944.953 122.306 943.963 122.232 943.31 122.443Z" fill="white"/>
<path d="M956.789 122.443C955.683 122.811 954.683 123.927 954.451 125.054C953.998 127.223 956.167 129.392 958.337 128.94C959.969 128.603 961.232 126.939 961.074 125.37C960.958 124.264 960.127 123.127 959.074 122.611C958.431 122.306 957.442 122.232 956.789 122.443Z" fill="white"/>
<path d="M970.267 122.443C969.161 122.811 968.161 123.927 967.929 125.054C967.476 127.223 969.645 129.392 971.815 128.94C973.447 128.603 974.71 126.939 974.552 125.37C974.437 124.264 973.605 123.127 972.552 122.611C971.909 122.306 970.92 122.232 970.267 122.443Z" fill="white"/>
<path d="M983.745 122.443C982.639 122.811 981.639 123.927 981.407 125.054C980.954 127.223 983.123 129.392 985.293 128.94C986.925 128.603 988.188 126.939 988.03 125.37C987.915 124.264 987.083 123.127 986.03 122.611C985.387 122.306 984.398 122.232 983.745 122.443Z" fill="white"/>
<path d="M997.223 122.443C996.117 122.811 995.117 123.927 994.885 125.054C994.433 127.223 996.602 129.392 998.771 128.94C1000.4 128.603 1001.67 126.939 1001.51 125.37C1001.39 124.264 1000.56 123.127 999.508 122.611C998.866 122.306 997.876 122.232 997.223 122.443Z" fill="white"/>
<path d="M1010.7 122.443C1009.6 122.811 1008.6 123.927 1008.36 125.054C1007.91 127.223 1010.08 129.392 1012.25 128.94C1013.88 128.603 1015.14 126.939 1014.99 125.37C1014.87 124.264 1014.04 123.127 1012.99 122.611C1012.34 122.306 1011.35 122.232 1010.7 122.443Z" fill="white"/>
</g>
</g>
<defs>
<clipPath id="clip0_2_2">
<rect width="1427" height="852" fill="white"/>
</clipPath>
</defs>
</svg>
