<svg width="1427" height="852" viewBox="0 0 1427 852" fill="none" xmlns="http://www.w3.org/2000/svg">
<path d="M0 0H1427V852H0V0Z" fill="#FBFBFB"/>
<rect width="540" height="852" fill="#FB2119"/>
<g opacity="0.427575">
<path d="M412.398 720.139C411.292 720.507 410.292 721.624 410.06 722.75C409.608 724.919 411.777 727.088 413.946 726.636C415.578 726.299 416.842 724.635 416.684 723.066C416.568 721.96 415.736 720.823 414.683 720.307C414.041 720.002 413.051 719.928 412.398 720.139Z" fill="white"/>
<path d="M425.876 720.139C424.286 720.665 423.212 722.413 423.539 723.951C423.802 725.204 424.971 726.372 426.213 726.636C428.256 727.067 430.372 725.14 430.162 723.066C430.046 721.96 429.214 720.823 428.161 720.307C427.519 720.002 426.529 719.928 425.876 720.139Z" fill="white"/>
<path d="M439.354 720.139C438.249 720.507 437.248 721.624 437.017 722.75C436.564 724.919 438.733 727.088 440.902 726.636C442.534 726.299 443.798 724.635 443.64 723.066C443.524 721.96 442.692 720.823 441.639 720.307C440.997 720.002 440.007 719.928 439.354 720.139Z" fill="white"/>
<path d="M452.832 720.139C451.727 720.507 450.726 721.624 450.495 722.75C450.042 724.919 452.211 727.088 454.38 726.636C456.012 726.299 457.276 724.635 457.118 723.066C457.002 721.96 456.17 720.823 455.117 720.307C454.475 720.002 453.485 719.928 452.832 720.139Z" fill="white"/>
<path d="M466.31 720.139C465.205 720.507 464.205 721.624 463.973 722.75C463.52 724.919 465.689 727.088 467.858 726.636C469.49 726.299 470.754 724.635 470.596 723.066C470.48 721.96 469.648 720.823 468.595 720.307C467.953 720.002 466.963 719.928 466.31 720.139Z" fill="white"/>
<path d="M479.789 720.139C478.683 720.507 477.683 721.624 477.451 722.75C476.998 724.919 479.167 727.088 481.337 726.636C482.969 726.299 484.232 724.635 484.074 723.066C483.958 721.96 483.127 720.823 482.074 720.307C481.431 720.002 480.441 719.928 479.789 720.139Z" fill="white"/>
<path d="M493.267 720.139C492.161 720.507 491.161 721.624 490.929 722.75C490.476 724.919 492.645 727.088 494.815 726.636C496.447 726.299 497.71 724.635 497.552 723.066C497.437 721.96 496.605 720.823 495.552 720.307C494.909 720.002 493.92 719.928 493.267 720.139Z" fill="white"/>
<path d="M506.745 720.139C505.639 720.507 504.639 721.624 504.407 722.75C503.954 724.919 506.124 727.088 508.293 726.636C509.925 726.299 511.188 724.635 511.03 723.066C510.915 721.96 510.083 720.823 509.03 720.307C508.387 720.002 507.398 719.928 506.745 720.139Z" fill="white"/>
<path d="M520.223 720.139C519.117 720.507 518.117 721.624 517.885 722.75C517.622 723.982 518.222 725.32 519.381 726.109C520.507 726.888 521.792 726.899 522.929 726.141C524.793 724.898 525.046 722.582 523.487 721.034C522.592 720.128 521.307 719.781 520.223 720.139Z" fill="white"/>
<path d="M533.701 720.139C532.595 720.507 531.595 721.624 531.363 722.75C531.1 723.982 531.7 725.32 532.859 726.109C533.985 726.888 535.27 726.899 536.407 726.141C538.271 724.898 538.524 722.582 536.965 721.034C536.07 720.128 534.786 719.781 533.701 720.139Z" fill="white"/>
<path d="M412.398 733.617C411.292 733.985 410.292 735.102 410.06 736.228C409.608 738.398 411.777 740.567 413.946 740.114C415.578 739.777 416.842 738.113 416.684 736.544C416.568 735.439 415.736 734.301 414.683 733.785C414.041 733.48 413.051 733.406 412.398 733.617Z" fill="white"/>
<path d="M425.876 733.617C424.286 734.143 423.212 735.891 423.539 737.429C423.802 738.682 424.971 739.851 426.213 740.114C428.256 740.546 430.372 738.619 430.162 736.544C430.046 735.439 429.214 734.301 428.161 733.785C427.519 733.48 426.529 733.406 425.876 733.617Z" fill="white"/>
<path d="M439.354 733.617C438.249 733.985 437.248 735.102 437.017 736.228C436.564 738.398 438.733 740.567 440.902 740.114C442.534 739.777 443.798 738.113 443.64 736.544C443.524 735.439 442.692 734.301 441.639 733.785C440.997 733.48 440.007 733.406 439.354 733.617Z" fill="white"/>
<path d="M452.832 733.617C451.727 733.985 450.726 735.102 450.495 736.228C450.042 738.398 452.211 740.567 454.38 740.114C456.012 739.777 457.276 738.113 457.118 736.544C457.002 735.439 456.17 734.301 455.117 733.785C454.475 733.48 453.485 733.406 452.832 733.617Z" fill="white"/>
<path d="M466.31 733.617C465.205 733.985 464.205 735.102 463.973 736.228C463.52 738.398 465.689 740.567 467.858 740.114C469.49 739.777 470.754 738.113 470.596 736.544C470.48 735.439 469.648 734.301 468.595 733.785C467.953 733.48 466.963 733.406 466.31 733.617Z" fill="white"/>
<path d="M479.789 733.617C478.683 733.985 477.683 735.102 477.451 736.228C476.998 738.398 479.167 740.567 481.337 740.114C482.969 739.777 484.232 738.113 484.074 736.544C483.958 735.439 483.127 734.301 482.074 733.785C481.431 733.48 480.441 733.406 479.789 733.617Z" fill="white"/>
<path d="M493.267 733.617C492.161 733.985 491.161 735.102 490.929 736.228C490.476 738.398 492.645 740.567 494.815 740.114C496.447 739.777 497.71 738.113 497.552 736.544C497.437 735.439 496.605 734.301 495.552 733.785C494.909 733.48 493.92 733.406 493.267 733.617Z" fill="white"/>
<path d="M506.745 733.617C505.639 733.985 504.639 735.102 504.407 736.228C503.954 738.398 506.124 740.567 508.293 740.114C509.925 739.777 511.188 738.113 511.03 736.544C510.915 735.439 510.083 734.301 509.03 733.785C508.387 733.48 507.398 733.406 506.745 733.617Z" fill="white"/>
<path d="M520.223 733.617C519.117 733.986 518.117 735.102 517.885 736.228C517.622 737.46 518.222 738.798 519.381 739.587C520.507 740.367 521.792 740.377 522.929 739.619C524.793 738.376 525.046 736.06 523.487 734.512C522.592 733.606 521.307 733.259 520.223 733.617Z" fill="white"/>
<path d="M533.701 733.617C532.595 733.986 531.595 735.102 531.363 736.228C531.1 737.46 531.7 738.798 532.859 739.587C533.985 740.367 535.27 740.377 536.407 739.619C538.271 738.376 538.524 736.06 536.965 734.512C536.07 733.606 534.786 733.259 533.701 733.617Z" fill="white"/>
<path d="M412.398 747.095C411.292 747.464 410.292 748.58 410.06 749.707C409.608 751.876 411.777 754.045 413.946 753.592C415.578 753.255 416.842 751.591 416.684 750.023C416.568 748.917 415.736 747.78 414.683 747.264C414.041 746.958 413.051 746.885 412.398 747.095Z" fill="white"/>
<path d="M425.876 747.095C424.771 747.464 423.77 748.58 423.539 749.707C423.086 751.876 425.255 754.045 427.424 753.592C429.056 753.255 430.32 751.591 430.162 750.023C430.046 748.917 429.214 747.78 428.161 747.264C427.519 746.958 426.529 746.885 425.876 747.095Z" fill="white"/>
<path d="M439.354 747.095C438.249 747.464 437.248 748.58 437.017 749.707C436.564 751.876 438.733 754.045 440.902 753.592C442.534 753.255 443.798 751.591 443.64 750.023C443.524 748.917 442.692 747.78 441.639 747.264C440.997 746.958 440.007 746.885 439.354 747.095Z" fill="white"/>
<path d="M452.832 747.095C451.727 747.464 450.726 748.58 450.495 749.707C450.042 751.876 452.211 754.045 454.38 753.592C456.012 753.255 457.276 751.591 457.118 750.023C457.002 748.917 456.17 747.78 455.117 747.264C454.475 746.958 453.485 746.885 452.832 747.095Z" fill="white"/>
<path d="M466.31 747.095C465.205 747.464 464.205 748.58 463.973 749.707C463.52 751.876 465.689 754.045 467.858 753.592C469.49 753.255 470.754 751.591 470.596 750.023C470.48 748.917 469.648 747.78 468.595 747.264C467.953 746.958 466.963 746.885 466.31 747.095Z" fill="white"/>
<path d="M479.789 747.095C478.683 747.464 477.683 748.58 477.451 749.707C476.998 751.876 479.167 754.045 481.337 753.592C482.969 753.255 484.232 751.591 484.074 750.023C483.958 748.917 483.127 747.78 482.074 747.264C481.431 746.958 480.441 746.885 479.789 747.095Z" fill="white"/>
<path d="M493.267 747.095C492.161 747.464 491.161 748.58 490.929 749.707C490.476 751.876 492.645 754.045 494.815 753.592C496.447 753.255 497.71 751.591 497.552 750.023C497.437 748.917 496.605 747.78 495.552 747.264C494.909 746.958 493.92 746.885 493.267 747.095Z" fill="white"/>
<path d="M506.745 747.095C505.639 747.464 504.639 748.58 504.407 749.707C503.954 751.876 506.124 754.045 508.293 753.592C509.925 753.255 511.188 751.591 511.03 750.023C510.915 748.917 510.083 747.78 509.03 747.264C508.387 746.958 507.398 746.885 506.745 747.095Z" fill="white"/>
<path d="M520.223 747.095C519.117 747.464 518.117 748.58 517.885 749.707C517.433 751.876 519.602 754.045 521.771 753.592C523.403 753.255 524.667 751.591 524.509 750.023C524.393 748.917 523.561 747.78 522.508 747.264C521.866 746.958 520.876 746.885 520.223 747.095Z" fill="white"/>
<path d="M533.701 747.095C532.595 747.464 531.595 748.58 531.363 749.707C530.911 751.876 533.08 754.045 535.249 753.592C536.881 753.255 538.145 751.591 537.987 750.023C537.871 748.917 537.039 747.78 535.986 747.264C535.344 746.958 534.354 746.885 533.701 747.095Z" fill="white"/>
<path d="M412.398 760.573C411.292 760.942 410.292 762.058 410.06 763.185C409.608 765.354 411.777 767.523 413.946 767.07C415.578 766.733 416.842 765.07 416.684 763.501C416.568 762.395 415.736 761.258 414.683 760.742C414.041 760.436 413.051 760.363 412.398 760.573Z" fill="white"/>
<path d="M425.876 760.573C424.771 760.942 423.77 762.058 423.539 763.185C423.086 765.354 425.255 767.523 427.424 767.07C429.056 766.733 430.32 765.07 430.162 763.501C430.046 762.395 429.214 761.258 428.161 760.742C427.519 760.436 426.529 760.363 425.876 760.573Z" fill="white"/>
<path d="M439.354 760.573C438.249 760.942 437.248 762.058 437.017 763.185C436.564 765.354 438.733 767.523 440.902 767.07C442.534 766.733 443.798 765.07 443.64 763.501C443.524 762.395 442.692 761.258 441.639 760.742C440.997 760.436 440.007 760.363 439.354 760.573Z" fill="white"/>
<path d="M452.832 760.573C451.727 760.942 450.726 762.058 450.495 763.185C450.042 765.354 452.211 767.523 454.38 767.07C456.012 766.733 457.276 765.07 457.118 763.501C457.002 762.395 456.17 761.258 455.117 760.742C454.475 760.436 453.485 760.363 452.832 760.573Z" fill="white"/>
<path d="M466.31 760.573C465.205 760.942 464.205 762.058 463.973 763.185C463.52 765.354 465.689 767.523 467.858 767.07C469.49 766.733 470.754 765.07 470.596 763.501C470.48 762.395 469.648 761.258 468.595 760.742C467.953 760.436 466.963 760.363 466.31 760.573Z" fill="white"/>
<path d="M479.789 760.573C478.683 760.942 477.683 762.058 477.451 763.185C476.998 765.354 479.167 767.523 481.337 767.07C482.969 766.733 484.232 765.07 484.074 763.501C483.958 762.395 483.127 761.258 482.074 760.742C481.431 760.436 480.441 760.363 479.789 760.573Z" fill="white"/>
<path d="M493.267 760.573C492.161 760.942 491.161 762.058 490.929 763.185C490.476 765.354 492.645 767.523 494.815 767.07C496.447 766.733 497.71 765.07 497.552 763.501C497.437 762.395 496.605 761.258 495.552 760.742C494.909 760.436 493.92 760.363 493.267 760.573Z" fill="white"/>
<path d="M506.745 760.573C505.639 760.942 504.639 762.058 504.407 763.185C503.954 765.354 506.124 767.523 508.293 767.07C509.925 766.733 511.188 765.07 511.03 763.501C510.915 762.395 510.083 761.258 509.03 760.742C508.387 760.436 507.398 760.363 506.745 760.573Z" fill="white"/>
<path d="M520.223 760.573C519.117 760.942 518.117 762.058 517.885 763.185C517.433 765.354 519.602 767.523 521.771 767.07C523.403 766.733 524.667 765.07 524.509 763.501C524.393 762.395 523.561 761.258 522.508 760.742C521.866 760.436 520.876 760.363 520.223 760.573Z" fill="white"/>
<path d="M533.701 760.573C532.595 760.942 531.595 762.058 531.363 763.185C530.911 765.354 533.08 767.523 535.249 767.07C536.881 766.733 538.145 765.07 537.987 763.501C537.871 762.395 537.039 761.258 535.986 760.742C535.344 760.436 534.354 760.363 533.701 760.573Z" fill="white"/>
<path d="M412.398 774.052C411.292 774.42 410.292 775.536 410.06 776.663C409.608 778.832 411.777 781.001 413.946 780.549C415.578 780.212 416.842 778.548 416.684 776.979C416.568 775.873 415.736 774.736 414.683 774.22C414.041 773.915 413.051 773.841 412.398 774.052Z" fill="white"/>
<path d="M425.876 774.052C424.771 774.42 423.77 775.536 423.539 776.663C423.086 778.832 425.255 781.001 427.424 780.549C429.056 780.212 430.32 778.548 430.162 776.979C430.046 775.873 429.214 774.736 428.161 774.22C427.519 773.915 426.529 773.841 425.876 774.052Z" fill="white"/>
<path d="M439.354 774.052C438.249 774.42 437.248 775.536 437.017 776.663C436.564 778.832 438.733 781.001 440.902 780.549C442.534 780.212 443.798 778.548 443.64 776.979C443.524 775.873 442.692 774.736 441.639 774.22C440.997 773.915 440.007 773.841 439.354 774.052Z" fill="white"/>
<path d="M452.832 774.052C451.727 774.42 450.726 775.536 450.495 776.663C450.042 778.832 452.211 781.001 454.38 780.549C456.012 780.212 457.276 778.548 457.118 776.979C457.002 775.873 456.17 774.736 455.117 774.22C454.475 773.915 453.485 773.841 452.832 774.052Z" fill="white"/>
<path d="M466.31 774.052C465.205 774.42 464.205 775.536 463.973 776.663C463.52 778.832 465.689 781.001 467.858 780.549C469.49 780.212 470.754 778.548 470.596 776.979C470.48 775.873 469.648 774.736 468.595 774.22C467.953 773.915 466.963 773.841 466.31 774.052Z" fill="white"/>
<path d="M479.789 774.052C478.683 774.42 477.683 775.536 477.451 776.663C476.998 778.832 479.167 781.001 481.337 780.549C482.969 780.212 484.232 778.548 484.074 776.979C483.958 775.873 483.127 774.736 482.074 774.22C481.431 773.915 480.441 773.841 479.789 774.052Z" fill="white"/>
<path d="M493.267 774.052C492.161 774.42 491.161 775.536 490.929 776.663C490.476 778.832 492.645 781.001 494.815 780.549C496.447 780.212 497.71 778.548 497.552 776.979C497.437 775.873 496.605 774.736 495.552 774.22C494.909 773.915 493.92 773.841 493.267 774.052Z" fill="white"/>
<path d="M506.745 774.052C505.639 774.42 504.639 775.536 504.407 776.663C503.954 778.832 506.124 781.001 508.293 780.549C509.925 780.212 511.188 778.548 511.03 776.979C510.915 775.873 510.083 774.736 509.03 774.22C508.387 773.915 507.398 773.841 506.745 774.052Z" fill="white"/>
<path d="M520.223 774.052C519.117 774.42 518.117 775.536 517.885 776.663C517.433 778.832 519.602 781.001 521.771 780.549C523.403 780.212 524.667 778.548 524.509 776.979C524.393 775.873 523.561 774.736 522.508 774.22C521.866 773.915 520.876 773.841 520.223 774.052Z" fill="white"/>
<path d="M533.701 774.052C532.595 774.42 531.595 775.536 531.363 776.663C530.911 778.832 533.08 781.001 535.249 780.549C536.881 780.212 538.145 778.548 537.987 776.979C537.871 775.873 537.039 774.736 535.986 774.22C535.344 773.915 534.354 773.841 533.701 774.052Z" fill="white"/>
<path d="M412.398 787.53C411.292 787.898 410.292 789.014 410.06 790.141C409.608 792.31 411.777 794.479 413.946 794.027C415.578 793.69 416.842 792.026 416.684 790.457C416.568 789.351 415.736 788.214 414.683 787.698C414.041 787.393 413.051 787.319 412.398 787.53Z" fill="white"/>
<path d="M425.876 787.53C424.771 787.898 423.77 789.014 423.539 790.141C423.086 792.31 425.255 794.479 427.424 794.027C429.056 793.69 430.32 792.026 430.162 790.457C430.046 789.351 429.214 788.214 428.161 787.698C427.519 787.393 426.529 787.319 425.876 787.53Z" fill="white"/>
<path d="M439.354 787.53C438.249 787.898 437.248 789.014 437.017 790.141C436.564 792.31 438.733 794.479 440.902 794.027C442.534 793.69 443.798 792.026 443.64 790.457C443.524 789.351 442.692 788.214 441.639 787.698C440.997 787.393 440.007 787.319 439.354 787.53Z" fill="white"/>
<path d="M452.832 787.53C451.727 787.898 450.726 789.014 450.495 790.141C450.042 792.31 452.211 794.479 454.38 794.027C456.012 793.69 457.276 792.026 457.118 790.457C457.002 789.351 456.17 788.214 455.117 787.698C454.475 787.393 453.485 787.319 452.832 787.53Z" fill="white"/>
<path d="M466.31 787.53C465.205 787.898 464.205 789.014 463.973 790.141C463.52 792.31 465.689 794.479 467.858 794.027C469.49 793.69 470.754 792.026 470.596 790.457C470.48 789.351 469.648 788.214 468.595 787.698C467.953 787.393 466.963 787.319 466.31 787.53Z" fill="white"/>
<path d="M479.789 787.53C478.683 787.898 477.683 789.014 477.451 790.141C476.998 792.31 479.167 794.479 481.337 794.027C482.969 793.69 484.232 792.026 484.074 790.457C483.958 789.351 483.127 788.214 482.074 787.698C481.431 787.393 480.441 787.319 479.789 787.53Z" fill="white"/>
<path d="M493.267 787.53C492.161 787.898 491.161 789.014 490.929 790.141C490.476 792.31 492.645 794.479 494.815 794.027C496.447 793.69 497.71 792.026 497.552 790.457C497.437 789.351 496.605 788.214 495.552 787.698C494.909 787.393 493.92 787.319 493.267 787.53Z" fill="white"/>
<path d="M506.745 787.53C505.639 787.898 504.639 789.014 504.407 790.141C503.954 792.31 506.124 794.479 508.293 794.027C509.925 793.69 511.188 792.026 511.03 790.457C510.915 789.351 510.083 788.214 509.03 787.698C508.387 787.393 507.398 787.319 506.745 787.53Z" fill="white"/>
<path d="M520.223 787.53C519.117 787.898 518.117 789.014 517.885 790.141C517.433 792.31 519.602 794.479 521.771 794.027C523.403 793.69 524.667 792.026 524.509 790.457C524.393 789.351 523.561 788.214 522.508 787.698C521.866 787.393 520.876 787.319 520.223 787.53Z" fill="white"/>
<path d="M533.701 787.53C532.595 787.898 531.595 789.014 531.363 790.141C530.911 792.31 533.08 794.479 535.249 794.027C536.881 793.69 538.145 792.026 537.987 790.457C537.871 789.351 537.039 788.214 535.986 787.698C535.344 787.393 534.354 787.319 533.701 787.53Z" fill="white"/>
<path d="M412.398 801.008C411.292 801.377 410.292 802.493 410.06 803.619C409.608 805.789 411.777 807.958 413.946 807.505C415.578 807.168 416.842 805.504 416.684 803.935C416.568 802.83 415.736 801.692 414.683 801.177C414.041 800.871 413.051 800.797 412.398 801.008Z" fill="white"/>
<path d="M425.876 801.008C424.771 801.377 423.77 802.493 423.539 803.619C423.086 805.789 425.255 807.958 427.424 807.505C429.056 807.168 430.32 805.504 430.162 803.935C430.046 802.83 429.214 801.692 428.161 801.177C427.519 800.871 426.529 800.797 425.876 801.008Z" fill="white"/>
<path d="M439.354 801.008C438.249 801.377 437.248 802.493 437.017 803.619C436.753 804.851 437.354 806.189 438.512 806.978C439.639 807.758 440.923 807.768 442.06 807.01C443.924 805.767 444.177 803.451 442.618 801.903C441.723 800.997 440.439 800.65 439.354 801.008Z" fill="white"/>
<path d="M452.832 801.008C451.727 801.377 450.726 802.493 450.495 803.619C450.232 804.851 450.832 806.189 451.99 806.978C453.117 807.758 454.401 807.768 455.539 807.01C457.402 805.767 457.655 803.451 456.097 801.903C455.202 800.997 453.917 800.65 452.832 801.008Z" fill="white"/>
<path d="M466.31 801.008C464.72 801.535 463.646 803.282 463.973 804.82C464.236 806.073 465.405 807.242 466.658 807.505C468.69 807.937 470.807 806.01 470.596 803.935C470.48 802.83 469.648 801.692 468.595 801.177C467.953 800.871 466.963 800.797 466.31 801.008Z" fill="white"/>
<path d="M479.789 801.008C478.199 801.535 477.125 803.282 477.451 804.82C477.714 806.073 478.883 807.242 480.136 807.505C482.168 807.937 484.285 806.01 484.074 803.935C483.958 802.83 483.127 801.692 482.074 801.177C481.431 800.871 480.441 800.797 479.789 801.008Z" fill="white"/>
<path d="M493.267 801.008C491.677 801.535 490.603 803.282 490.929 804.82C491.192 806.073 492.361 807.242 493.614 807.505C495.646 807.937 497.763 806.01 497.552 803.935C497.436 802.83 496.605 801.692 495.552 801.177C494.909 800.871 493.92 800.797 493.267 801.008Z" fill="white"/>
<path d="M506.745 801.008C505.155 801.535 504.081 803.282 504.407 804.82C504.67 806.073 505.839 807.242 507.092 807.505C509.125 807.937 511.241 806.01 511.03 803.935C510.915 802.83 510.083 801.692 509.03 801.177C508.387 800.871 507.398 800.797 506.745 801.008Z" fill="white"/>
<path d="M520.223 801.008C519.117 801.377 518.117 802.493 517.885 803.619C517.433 805.789 519.602 807.958 521.771 807.505C523.403 807.168 524.667 805.504 524.509 803.935C524.393 802.83 523.561 801.692 522.508 801.177C521.866 800.871 520.876 800.797 520.223 801.008Z" fill="white"/>
<path d="M533.701 801.008C532.595 801.377 531.595 802.493 531.363 803.619C530.911 805.789 533.08 807.958 535.249 807.505C536.881 807.168 538.145 805.504 537.987 803.935C537.871 802.83 537.039 801.692 535.986 801.177C535.344 800.871 534.354 800.797 533.701 801.008Z" fill="white"/>
<path d="M412.398 814.486C411.292 814.855 410.292 815.971 410.06 817.098C409.608 819.267 411.777 821.436 413.946 820.983C415.578 820.646 416.842 818.982 416.684 817.414C416.568 816.308 415.736 815.171 414.683 814.655C414.041 814.349 413.051 814.276 412.398 814.486Z" fill="white"/>
<path d="M425.876 814.486C424.771 814.855 423.77 815.971 423.539 817.098C423.086 819.267 425.255 821.436 427.424 820.983C429.056 820.646 430.32 818.982 430.162 817.414C430.046 816.308 429.214 815.171 428.161 814.655C427.519 814.349 426.529 814.276 425.876 814.486Z" fill="white"/>
<path d="M439.354 814.486C438.249 814.855 437.248 815.971 437.017 817.098C436.753 818.33 437.354 819.667 438.512 820.457C439.639 821.236 440.923 821.246 442.06 820.488C443.924 819.246 444.177 816.929 442.618 815.381C441.723 814.476 440.439 814.128 439.354 814.486Z" fill="white"/>
<path d="M452.832 814.486C451.727 814.855 450.726 815.971 450.495 817.098C450.232 818.33 450.832 819.667 451.99 820.457C453.117 821.236 454.401 821.246 455.539 820.488C457.402 819.246 457.655 816.929 456.097 815.381C455.202 814.476 453.917 814.128 452.832 814.486Z" fill="white"/>
<path d="M466.31 814.486C464.72 815.013 463.646 816.761 463.973 818.298C464.236 819.551 465.405 820.72 466.658 820.983C468.69 821.415 470.807 819.488 470.596 817.413C470.48 816.308 469.648 815.171 468.595 814.655C467.953 814.349 466.963 814.276 466.31 814.486Z" fill="white"/>
<path d="M479.789 814.486C478.199 815.013 477.125 816.761 477.451 818.298C477.714 819.551 478.883 820.72 480.136 820.983C482.168 821.415 484.285 819.488 484.074 817.413C483.958 816.308 483.127 815.171 482.074 814.655C481.431 814.349 480.441 814.276 479.789 814.486Z" fill="white"/>
<path d="M493.267 814.486C491.677 815.013 490.603 816.761 490.929 818.298C491.192 819.551 492.361 820.72 493.614 820.983C495.646 821.415 497.763 819.488 497.552 817.413C497.436 816.308 496.605 815.171 495.552 814.655C494.909 814.349 493.92 814.276 493.267 814.486Z" fill="white"/>
<path d="M506.745 814.486C505.155 815.013 504.081 816.761 504.407 818.298C504.67 819.551 505.839 820.72 507.092 820.983C509.125 821.415 511.241 819.488 511.03 817.413C510.915 816.308 510.083 815.171 509.03 814.655C508.387 814.349 507.398 814.276 506.745 814.486Z" fill="white"/>
<path d="M520.223 814.486C519.117 814.855 518.117 815.971 517.885 817.098C517.433 819.267 519.602 821.436 521.771 820.983C523.403 820.646 524.667 818.982 524.509 817.414C524.393 816.308 523.561 815.171 522.508 814.655C521.866 814.349 520.876 814.276 520.223 814.486Z" fill="white"/>
<path d="M533.701 814.486C532.595 814.855 531.595 815.971 531.363 817.098C530.911 819.267 533.08 821.436 535.249 820.983C536.881 820.646 538.145 818.982 537.987 817.414C537.871 816.308 537.039 815.171 535.986 814.655C535.344 814.349 534.354 814.276 533.701 814.486Z" fill="white"/>
<path d="M412.398 827.964C411.292 828.333 410.292 829.449 410.06 830.576C409.608 832.745 411.777 834.914 413.946 834.461C415.578 834.124 416.842 832.461 416.684 830.892C416.568 829.786 415.736 828.649 414.683 828.133C414.041 827.828 413.051 827.754 412.398 827.964Z" fill="white"/>
<path d="M425.876 827.964C424.771 828.333 423.77 829.449 423.539 830.576C423.086 832.745 425.255 834.914 427.424 834.461C429.056 834.124 430.32 832.461 430.162 830.892C430.046 829.786 429.214 828.649 428.161 828.133C427.519 827.828 426.529 827.754 425.876 827.964Z" fill="white"/>
<path d="M439.354 827.964C438.249 828.333 437.248 829.449 437.017 830.576C436.753 831.808 437.354 833.145 438.512 833.935C439.639 834.714 440.923 834.725 442.06 833.966C443.924 832.724 444.177 830.407 442.618 828.859C441.723 827.954 440.439 827.606 439.354 827.964Z" fill="white"/>
<path d="M452.832 827.964C451.727 828.333 450.726 829.449 450.495 830.576C450.232 831.808 450.832 833.145 451.99 833.935C453.117 834.714 454.401 834.725 455.539 833.966C457.402 832.724 457.655 830.407 456.097 828.859C455.202 827.954 453.917 827.606 452.832 827.964Z" fill="white"/>
<path d="M466.31 827.964C465.205 828.333 464.205 829.449 463.973 830.576C463.52 832.745 465.689 834.914 467.858 834.461C469.49 834.124 470.754 832.461 470.596 830.892C470.48 829.786 469.648 828.649 468.595 828.133C467.953 827.828 466.963 827.754 466.31 827.964Z" fill="white"/>
<path d="M479.789 827.964C478.683 828.333 477.683 829.449 477.451 830.576C476.998 832.745 479.167 834.914 481.337 834.461C482.969 834.124 484.232 832.461 484.074 830.892C483.958 829.786 483.127 828.649 482.074 828.133C481.431 827.828 480.441 827.754 479.789 827.964Z" fill="white"/>
<path d="M493.267 827.964C492.161 828.333 491.161 829.449 490.929 830.576C490.476 832.745 492.645 834.914 494.815 834.461C496.447 834.124 497.71 832.461 497.552 830.892C497.437 829.786 496.605 828.649 495.552 828.133C494.909 827.828 493.92 827.754 493.267 827.964Z" fill="white"/>
<path d="M506.745 827.964C505.639 828.333 504.639 829.449 504.407 830.576C503.954 832.745 506.124 834.914 508.293 834.461C509.925 834.124 511.188 832.461 511.03 830.892C510.915 829.786 510.083 828.649 509.03 828.133C508.387 827.828 507.398 827.754 506.745 827.964Z" fill="white"/>
<path d="M520.223 827.964C519.117 828.333 518.117 829.449 517.885 830.576C517.433 832.745 519.602 834.914 521.771 834.461C523.403 834.124 524.667 832.461 524.509 830.892C524.393 829.786 523.561 828.649 522.508 828.133C521.866 827.828 520.876 827.754 520.223 827.964Z" fill="white"/>
<path d="M533.701 827.964C532.595 828.333 531.595 829.449 531.363 830.576C530.911 832.745 533.08 834.914 535.249 834.461C536.881 834.124 538.145 832.461 537.987 830.892C537.871 829.786 537.039 828.649 535.986 828.133C535.344 827.828 534.354 827.754 533.701 827.964Z" fill="white"/>
<path d="M412.398 841.443C411.292 841.811 410.292 842.927 410.06 844.054C409.608 846.223 411.777 848.392 413.946 847.94C415.578 847.603 416.842 845.939 416.684 844.37C416.568 843.264 415.736 842.127 414.683 841.611C414.041 841.306 413.051 841.232 412.398 841.443Z" fill="white"/>
<path d="M425.876 841.443C424.771 841.811 423.77 842.927 423.539 844.054C423.086 846.223 425.255 848.392 427.424 847.94C429.056 847.603 430.32 845.939 430.162 844.37C430.046 843.264 429.214 842.127 428.161 841.611C427.519 841.306 426.529 841.232 425.876 841.443Z" fill="white"/>
<path d="M439.354 841.443C438.249 841.811 437.248 842.927 437.017 844.054C436.564 846.223 438.733 848.392 440.902 847.94C442.534 847.603 443.798 845.939 443.64 844.37C443.524 843.264 442.692 842.127 441.639 841.611C440.997 841.306 440.007 841.232 439.354 841.443Z" fill="white"/>
<path d="M452.832 841.443C451.727 841.811 450.726 842.927 450.495 844.054C450.042 846.223 452.211 848.392 454.38 847.94C456.012 847.603 457.276 845.939 457.118 844.37C457.002 843.264 456.17 842.127 455.117 841.611C454.475 841.306 453.485 841.232 452.832 841.443Z" fill="white"/>
<path d="M466.31 841.443C465.205 841.811 464.205 842.927 463.973 844.054C463.52 846.223 465.689 848.392 467.858 847.94C469.49 847.603 470.754 845.939 470.596 844.37C470.48 843.264 469.648 842.127 468.595 841.611C467.953 841.306 466.963 841.232 466.31 841.443Z" fill="white"/>
<path d="M479.789 841.443C478.683 841.811 477.683 842.927 477.451 844.054C476.998 846.223 479.167 848.392 481.337 847.94C482.969 847.603 484.232 845.939 484.074 844.37C483.958 843.264 483.127 842.127 482.074 841.611C481.431 841.306 480.441 841.232 479.789 841.443Z" fill="white"/>
<path d="M493.267 841.443C492.161 841.811 491.161 842.927 490.929 844.054C490.476 846.223 492.645 848.392 494.815 847.94C496.447 847.603 497.71 845.939 497.552 844.37C497.437 843.264 496.605 842.127 495.552 841.611C494.909 841.306 493.92 841.232 493.267 841.443Z" fill="white"/>
<path d="M506.745 841.443C505.639 841.811 504.639 842.927 504.407 844.054C503.954 846.223 506.124 848.392 508.293 847.94C509.925 847.603 511.188 845.939 511.03 844.37C510.915 843.264 510.083 842.127 509.03 841.611C508.387 841.306 507.398 841.232 506.745 841.443Z" fill="white"/>
<path d="M520.223 841.443C519.117 841.811 518.117 842.927 517.885 844.054C517.433 846.223 519.602 848.392 521.771 847.94C523.403 847.603 524.667 845.939 524.509 844.37C524.393 843.264 523.561 842.127 522.508 841.611C521.866 841.306 520.876 841.232 520.223 841.443Z" fill="white"/>
<path d="M533.701 841.443C532.595 841.811 531.595 842.927 531.363 844.054C530.911 846.223 533.08 848.392 535.249 847.94C536.881 847.603 538.145 845.939 537.987 844.37C537.871 843.264 537.039 842.127 535.986 841.611C535.344 841.306 534.354 841.232 533.701 841.443Z" fill="white"/>
</g>
<g clip-path="url(#clip0_114_1900)">
<mask id="mask0_114_1900" style="mask-type:luminance" maskUnits="userSpaceOnUse" x="404" y="0" width="136" height="410">
<path d="M540 0H404V410H540V0Z" fill="white"/>
</mask>
<g mask="url(#mask0_114_1900)">
<mask id="mask1_114_1900" style="mask-type:luminance" maskUnits="userSpaceOnUse" x="404" y="0" width="136" height="410">
<path d="M540 0H404V410H540V0Z" fill="#E1E6E5"/>
</mask>
<g mask="url(#mask1_114_1900)">
<path fill-rule="evenodd" clip-rule="evenodd" d="M519.86 394.2L760.909 304.641C764.62 303.264 768.743 305.152 770.121 308.862C771.499 312.571 769.609 316.695 765.9 318.074L524.85 407.632C524.027 407.937 523.185 408.082 522.356 408.082C519.447 408.082 516.711 406.298 515.639 403.411C514.261 399.702 516.151 395.577 519.86 394.2Z" fill="#E1E6E5"/>
</g>
<mask id="mask2_114_1900" style="mask-type:luminance" maskUnits="userSpaceOnUse" x="404" y="0" width="136" height="410">
<path d="M540 0H404V410H540V0Z" fill="#E1E6E5"/>
</mask>
<g mask="url(#mask2_114_1900)">
<path fill-rule="evenodd" clip-rule="evenodd" d="M485.726 366.061L744.929 276.503C748.671 275.211 752.749 277.196 754.04 280.934C755.332 284.675 753.349 288.754 749.608 290.046L490.405 379.605C489.631 379.873 488.841 380 488.066 380C485.096 380 482.319 378.138 481.294 375.173C480.002 371.432 481.985 367.353 485.726 366.061Z" fill="#E1E6E5"/>
</g>
<mask id="mask3_114_1900" style="mask-type:luminance" maskUnits="userSpaceOnUse" x="404" y="0" width="136" height="410">
<path d="M540 0H404V410H540V0Z" fill="#E1E6E5"/>
</mask>
<g mask="url(#mask3_114_1900)">
<path fill-rule="evenodd" clip-rule="evenodd" d="M458.713 340.511L721.929 250.953C724.268 250.157 726.813 251.409 727.61 253.749C728.407 256.09 727.154 258.635 724.813 259.431L461.598 348.99C461.119 349.152 460.634 349.23 460.155 349.23C458.291 349.23 456.55 348.056 455.916 346.192C455.12 343.851 456.372 341.308 458.713 340.511Z" fill="#E1E6E5"/>
</g>
<mask id="mask4_114_1900" style="mask-type:luminance" maskUnits="userSpaceOnUse" x="404" y="0" width="136" height="410">
<path d="M540 0H404V410H540V0Z" fill="#E1E6E5"/>
</mask>
<g mask="url(#mask4_114_1900)">
<path fill-rule="evenodd" clip-rule="evenodd" d="M437.129 312.447L689.751 222.889C692.082 222.06 694.642 223.282 695.468 225.613C696.295 227.944 695.075 230.503 692.744 231.33L440.122 320.888C439.627 321.064 439.122 321.147 438.626 321.147C436.783 321.147 435.056 320 434.405 318.164C433.578 315.833 434.798 313.273 437.129 312.447Z" fill="#E1E6E5"/>
</g>
<mask id="mask5_114_1900" style="mask-type:luminance" maskUnits="userSpaceOnUse" x="404" y="0" width="136" height="410">
<path d="M540 0H404V410H540V0Z" fill="#E1E6E5"/>
</mask>
<g mask="url(#mask5_114_1900)">
<path fill-rule="evenodd" clip-rule="evenodd" d="M421.283 286.089L645.835 196.53C647.213 195.98 648.776 196.652 649.325 198.031C649.875 199.409 649.203 200.972 647.825 201.521L423.273 291.08C422.947 291.211 422.61 291.272 422.279 291.272C421.212 291.272 420.202 290.631 419.783 289.579C419.233 288.201 419.905 286.638 421.283 286.089Z" fill="#E1E6E5"/>
</g>
<mask id="mask6_114_1900" style="mask-type:luminance" maskUnits="userSpaceOnUse" x="404" y="0" width="136" height="410">
<path d="M540 0H404V410H540V0Z" fill="#E1E6E5"/>
</mask>
<g mask="url(#mask6_114_1900)">
<path fill-rule="evenodd" clip-rule="evenodd" d="M410.287 258.094L591.096 168.536C592.427 167.878 594.037 168.422 594.696 169.751C595.355 171.081 594.811 172.692 593.481 173.351L412.673 262.909C412.289 263.1 411.882 263.189 411.482 263.189C410.492 263.189 409.541 262.641 409.072 261.695C408.414 260.365 408.958 258.753 410.287 258.094Z" fill="#E1E6E5"/>
</g>
<mask id="mask7_114_1900" style="mask-type:luminance" maskUnits="userSpaceOnUse" x="404" y="0" width="136" height="410">
<path d="M540 0H404V410H540V0Z" fill="#E1E6E5"/>
</mask>
<g mask="url(#mask7_114_1900)">
<path fill-rule="evenodd" clip-rule="evenodd" d="M405.312 230.111L555.712 140.552C556.986 139.793 558.637 140.211 559.395 141.486C560.155 142.761 559.736 144.41 558.462 145.17L408.062 234.728C407.631 234.985 407.157 235.106 406.69 235.106C405.774 235.106 404.881 234.638 404.379 233.794C403.619 232.519 404.038 230.87 405.312 230.111Z" fill="#E1E6E5"/>
</g>
<mask id="mask8_114_1900" style="mask-type:luminance" maskUnits="userSpaceOnUse" x="404" y="0" width="136" height="410">
<path d="M540 0H404V410H540V0Z" fill="#E1E6E5"/>
</mask>
<g mask="url(#mask8_114_1900)">
<path fill-rule="evenodd" clip-rule="evenodd" d="M407.238 205.806C406.926 206.024 406.568 206.129 406.215 206.129C405.649 206.129 405.093 205.861 404.744 205.362C404.178 204.551 404.376 203.434 405.188 202.868L533.514 113.31C534.327 112.744 535.442 112.943 536.008 113.753C536.575 114.564 536.376 115.681 535.565 116.247L407.238 205.806Z" fill="#E1E6E5"/>
</g>
<mask id="mask9_114_1900" style="mask-type:luminance" maskUnits="userSpaceOnUse" x="404" y="0" width="136" height="410">
<path d="M540 0H404V410H540V0Z" fill="#E1E6E5"/>
</mask>
<g mask="url(#mask9_114_1900)">
<path fill-rule="evenodd" clip-rule="evenodd" d="M412.081 177.634C411.747 177.91 411.342 178.045 410.94 178.045C410.425 178.045 409.913 177.824 409.559 177.396C408.928 176.634 409.035 175.505 409.797 174.875L517.987 85.3156C518.748 84.6846 519.878 84.7916 520.509 85.5526C521.14 86.3146 521.033 87.4446 520.271 88.0746L412.081 177.634Z" fill="#E1E6E5"/>
</g>
<mask id="mask10_114_1900" style="mask-type:luminance" maskUnits="userSpaceOnUse" x="404" y="0" width="136" height="410">
<path d="M540 0H404V410H540V0Z" fill="#E1E6E5"/>
</mask>
<g mask="url(#mask10_114_1900)">
<path fill-rule="evenodd" clip-rule="evenodd" d="M510.942 57.9795C511.292 58.3295 511.292 58.8965 510.942 59.2465L421.337 148.806C421.162 148.98 420.933 149.067 420.704 149.067C420.475 149.067 420.245 148.98 420.07 148.805C419.721 148.455 419.721 147.888 420.07 147.538L509.676 57.9795C510.025 57.6305 510.592 57.6295 510.942 57.9795Z" fill="#E1E6E5"/>
</g>
<mask id="mask11_114_1900" style="mask-type:luminance" maskUnits="userSpaceOnUse" x="404" y="0" width="136" height="410">
<path d="M540 0H404V410H540V0Z" fill="#E1E6E5"/>
</mask>
<g mask="url(#mask11_114_1900)">
<path fill-rule="evenodd" clip-rule="evenodd" d="M508.13 29.8548C508.502 30.1798 508.542 30.7458 508.216 31.1188L433.296 117.094C433.119 117.297 432.87 117.401 432.621 117.401C432.412 117.401 432.202 117.329 432.032 117.181C431.66 116.856 431.62 116.29 431.946 115.917L506.866 29.9418C507.191 29.5678 507.758 29.5308 508.13 29.8548Z" fill="#E1E6E5"/>
</g>
<mask id="mask12_114_1900" style="mask-type:luminance" maskUnits="userSpaceOnUse" x="404" y="0" width="136" height="410">
<path d="M540 0H404V410H540V0Z" fill="#E1E6E5"/>
</mask>
<g mask="url(#mask12_114_1900)">
<path fill-rule="evenodd" clip-rule="evenodd" d="M445.73 83.4966C445.641 83.6056 445.512 83.6626 445.382 83.6626C445.282 83.6626 445.182 83.6296 445.1 83.5626C444.908 83.4066 444.878 83.1246 445.034 82.9326L510.494 2.16464C510.65 1.97364 510.935 1.94464 511.124 2.09964C511.317 2.25564 511.346 2.53664 511.191 2.72964L445.73 83.4966Z" fill="#E1E6E5"/>
</g>
<mask id="mask13_114_1900" style="mask-type:luminance" maskUnits="userSpaceOnUse" x="404" y="0" width="136" height="410">
<path d="M540 0H404V410H540V0Z" fill="#E1E6E5"/>
</mask>
<g mask="url(#mask13_114_1900)">
<path fill-rule="evenodd" clip-rule="evenodd" d="M453.814 48.6729C453.725 48.7829 453.596 48.8389 453.466 48.8389C453.367 48.8389 453.267 48.8069 453.184 48.7399C452.992 48.5849 452.962 48.3029 453.118 48.1099L489.807 2.71498C489.963 2.52298 490.244 2.49198 490.437 2.64898C490.629 2.80398 490.659 3.08598 490.503 3.27798L453.814 48.6729Z" fill="#E1E6E5"/>
</g>
</g>
</g>
<g clip-path="url(#clip1_114_1900)">
<mask id="mask14_114_1900" style="mask-type:luminance" maskUnits="userSpaceOnUse" x="3" y="437" width="134" height="410">
<path d="M4.31503 846.882L136.702 846.943L135.994 437.119L3.60691 437.057L4.31503 846.882Z" fill="white"/>
</mask>
<g mask="url(#mask14_114_1900)">
<mask id="mask15_114_1900" style="mask-type:luminance" maskUnits="userSpaceOnUse" x="3" y="437" width="135" height="410">
<path d="M4.31189 846.728L137.065 846.935L135.997 437.272L3.24338 437.065L4.31189 846.728Z" fill="#E1E6E5"/>
</mask>
<g mask="url(#mask15_114_1900)">
<path fill-rule="evenodd" clip-rule="evenodd" d="M23.6272 453.32L-210.218 542.01C-213.818 543.373 -217.827 541.49 -219.175 537.798C-220.523 534.108 -218.698 530.01 -215.1 528.644L18.7464 439.955C19.5448 439.653 20.3621 439.51 21.1671 439.511C23.992 439.516 26.6536 441.294 27.7021 444.166C29.0499 447.857 27.2254 451.956 23.6272 453.32Z" fill="#E1E6E5"/>
</g>
<mask id="mask16_114_1900" style="mask-type:luminance" maskUnits="userSpaceOnUse" x="3" y="437" width="135" height="410">
<path d="M4.31189 846.728L137.065 846.935L135.997 437.272L3.24338 437.065L4.31189 846.728Z" fill="#E1E6E5"/>
</mask>
<g mask="url(#mask16_114_1900)">
<path fill-rule="evenodd" clip-rule="evenodd" d="M56.7643 481.467L-194.697 570.099C-198.327 571.378 -202.292 569.398 -203.555 565.68C-204.82 561.96 -202.905 557.908 -199.276 556.629L52.1857 467.996C52.9366 467.73 53.7034 467.605 54.4559 467.607C57.3399 467.611 60.0413 469.466 61.0443 472.415C62.3086 476.136 60.3936 480.188 56.7643 481.467Z" fill="#E1E6E5"/>
</g>
<mask id="mask17_114_1900" style="mask-type:luminance" maskUnits="userSpaceOnUse" x="3" y="437" width="135" height="410">
<path d="M4.31189 846.728L137.065 846.935L135.997 437.272L3.24338 437.065L4.31189 846.728Z" fill="#E1E6E5"/>
</mask>
<g mask="url(#mask17_114_1900)">
<path fill-rule="evenodd" clip-rule="evenodd" d="M82.9807 507.025L-172.368 595.63C-174.637 596.417 -177.111 595.169 -177.891 592.843C-178.671 590.515 -177.461 587.988 -175.19 587.2L80.1574 498.594C80.6221 498.433 81.0929 498.357 81.558 498.357C83.3679 498.36 85.0614 499.53 85.6819 501.383C86.4608 503.711 85.2517 506.236 82.9807 507.025Z" fill="#E1E6E5"/>
</g>
<mask id="mask18_114_1900" style="mask-type:luminance" maskUnits="userSpaceOnUse" x="3" y="437" width="135" height="410">
<path d="M4.31189 846.728L137.065 846.935L135.997 437.272L3.24338 437.065L4.31189 846.728Z" fill="#E1E6E5"/>
</mask>
<g mask="url(#mask18_114_1900)">
<path fill-rule="evenodd" clip-rule="evenodd" d="M103.94 535.054L-141.129 623.693C-143.39 624.514 -145.879 623.295 -146.687 620.977C-147.496 618.658 -146.318 616.116 -144.057 615.298L101.012 526.659C101.492 526.485 101.982 526.403 102.464 526.404C104.253 526.407 105.933 527.55 106.57 529.376C107.379 531.694 106.201 534.237 103.94 535.054Z" fill="#E1E6E5"/>
</g>
<mask id="mask19_114_1900" style="mask-type:luminance" maskUnits="userSpaceOnUse" x="3" y="437" width="135" height="410">
<path d="M4.31189 846.728L137.065 846.935L135.997 437.272L3.24338 437.065L4.31189 846.728Z" fill="#E1E6E5"/>
</mask>
<g mask="url(#mask19_114_1900)">
<path fill-rule="evenodd" clip-rule="evenodd" d="M119.325 561.361L-98.5035 650.083C-99.8403 650.627 -101.36 649.957 -101.897 648.585C-102.434 647.213 -101.786 645.66 -100.449 645.116L117.379 556.395C117.695 556.265 118.022 556.205 118.344 556.205C119.38 556.207 120.362 556.846 120.772 557.893C121.31 559.264 120.661 560.817 119.325 561.361Z" fill="#E1E6E5"/>
</g>
<mask id="mask20_114_1900" style="mask-type:luminance" maskUnits="userSpaceOnUse" x="3" y="437" width="135" height="410">
<path d="M4.31189 846.728L137.065 846.935L135.997 437.272L3.24338 437.065L4.31189 846.728Z" fill="#E1E6E5"/>
</mask>
<g mask="url(#mask20_114_1900)">
<path fill-rule="evenodd" clip-rule="evenodd" d="M130.01 589.262L-45.3739 678.131C-46.6649 678.784 -48.2302 678.24 -48.8737 676.916C-49.5173 675.591 -48.9932 673.988 -47.7031 673.334L127.68 584.466C128.052 584.276 128.447 584.188 128.836 584.189C129.798 584.19 130.723 584.737 131.181 585.68C131.823 587.005 131.299 588.609 130.01 589.262Z" fill="#E1E6E5"/>
</g>
<mask id="mask21_114_1900" style="mask-type:luminance" maskUnits="userSpaceOnUse" x="3" y="437" width="135" height="410">
<path d="M4.31189 846.728L137.065 846.935L135.997 437.272L3.24338 437.065L4.31189 846.728Z" fill="#E1E6E5"/>
</mask>
<g mask="url(#mask21_114_1900)">
<path fill-rule="evenodd" clip-rule="evenodd" d="M134.854 617.181L-11.023 706.157C-12.2587 706.911 -13.8638 706.492 -14.6036 705.221C-15.3453 703.949 -14.9426 702.307 -13.7069 701.552L132.17 612.577C132.588 612.322 133.048 612.202 133.502 612.203C134.392 612.204 135.261 612.672 135.751 613.513C136.492 614.784 136.09 616.426 134.854 617.181Z" fill="#E1E6E5"/>
</g>
<mask id="mask22_114_1900" style="mask-type:luminance" maskUnits="userSpaceOnUse" x="3" y="437" width="135" height="410">
<path d="M4.31189 846.728L137.065 846.935L135.997 437.272L3.24338 437.065L4.31189 846.728Z" fill="#E1E6E5"/>
</mask>
<g mask="url(#mask22_114_1900)">
<path fill-rule="evenodd" clip-rule="evenodd" d="M132.989 641.449C133.292 641.232 133.639 641.128 133.982 641.128C134.532 641.129 135.073 641.397 135.414 641.895C135.966 642.704 135.776 643.817 134.989 644.38L10.5321 733.433C9.74362 733.996 8.65965 733.796 8.1075 732.988C7.55439 732.179 7.74477 731.066 8.53132 730.503L132.989 641.449Z" fill="#E1E6E5"/>
</g>
<mask id="mask23_114_1900" style="mask-type:luminance" maskUnits="userSpaceOnUse" x="3" y="437" width="135" height="410">
<path d="M4.31189 846.728L137.065 846.935L135.997 437.272L3.24338 437.065L4.31189 846.728Z" fill="#E1E6E5"/>
</mask>
<g mask="url(#mask23_114_1900)">
<path fill-rule="evenodd" clip-rule="evenodd" d="M128.308 669.578C128.632 669.304 129.025 669.17 129.416 669.17C129.916 669.171 130.415 669.392 130.76 669.82C131.375 670.581 131.274 671.706 130.535 672.333L25.6171 761.463C24.8791 762.091 23.7805 761.982 23.1651 761.222C22.5498 760.461 22.6508 759.335 23.3897 758.708L128.308 669.578Z" fill="#E1E6E5"/>
</g>
<mask id="mask24_114_1900" style="mask-type:luminance" maskUnits="userSpaceOnUse" x="3" y="437" width="135" height="410">
<path d="M4.31189 846.728L137.065 846.935L135.997 437.272L3.24338 437.065L4.31189 846.728Z" fill="#E1E6E5"/>
</mask>
<g mask="url(#mask24_114_1900)">
<path fill-rule="evenodd" clip-rule="evenodd" d="M32.4672 788.834C32.126 788.484 32.1245 787.918 32.4638 787.57L119.348 698.37C119.518 698.197 119.74 698.11 119.963 698.11C120.185 698.111 120.409 698.198 120.58 698.373C120.92 698.723 120.922 699.288 120.583 699.637L33.6982 788.836C33.3598 789.183 32.8085 789.183 32.4672 788.834Z" fill="#E1E6E5"/>
</g>
<mask id="mask25_114_1900" style="mask-type:luminance" maskUnits="userSpaceOnUse" x="3" y="437" width="135" height="410">
<path d="M4.31189 846.728L137.065 846.935L135.997 437.272L3.24338 437.065L4.31189 846.728Z" fill="#E1E6E5"/>
</mask>
<g mask="url(#mask25_114_1900)">
<path fill-rule="evenodd" clip-rule="evenodd" d="M35.2154 816.99C34.8527 816.665 34.8123 816.101 35.1284 815.729L107.765 730.056C107.937 729.854 108.179 729.75 108.421 729.751C108.624 729.751 108.829 729.823 108.994 729.971C109.357 730.296 109.398 730.861 109.081 731.233L36.4445 816.906C36.1294 817.278 35.5781 817.314 35.2154 816.99Z" fill="#E1E6E5"/>
</g>
<mask id="mask26_114_1900" style="mask-type:luminance" maskUnits="userSpaceOnUse" x="3" y="437" width="135" height="410">
<path d="M4.31189 846.728L137.065 846.935L135.997 437.272L3.24338 437.065L4.31189 846.728Z" fill="#E1E6E5"/>
</mask>
<g mask="url(#mask26_114_1900)">
<path fill-rule="evenodd" clip-rule="evenodd" d="M95.7249 763.64C95.8112 763.531 95.9365 763.474 96.063 763.475C96.1603 763.475 96.2576 763.508 96.3376 763.575C96.5248 763.731 96.5547 764.012 96.4035 764.204L32.9424 844.707C32.7911 844.898 32.514 844.926 32.3297 844.771C32.1415 844.615 32.1126 844.335 32.2628 844.142L95.7249 763.64Z" fill="#E1E6E5"/>
</g>
<mask id="mask27_114_1900" style="mask-type:luminance" maskUnits="userSpaceOnUse" x="3" y="437" width="135" height="410">
<path d="M4.31189 846.728L137.065 846.935L135.997 437.272L3.24338 437.065L4.31189 846.728Z" fill="#E1E6E5"/>
</mask>
<g mask="url(#mask27_114_1900)">
<path fill-rule="evenodd" clip-rule="evenodd" d="M87.904 798.401C87.9903 798.292 88.1157 798.236 88.2421 798.236C88.3384 798.236 88.4358 798.268 88.5167 798.335C88.7039 798.49 88.7338 798.772 88.5826 798.964L53.0142 844.211C52.8629 844.402 52.5897 844.433 52.4015 844.276C52.2143 844.121 52.1844 843.839 52.3356 843.648L87.904 798.401Z" fill="#E1E6E5"/>
</g>
</g>
</g>
<g opacity="0.427575">
<path d="M8.44728 1.1388C7.3746 1.50734 6.40407 2.6235 6.17932 3.7502C5.74003 5.91934 7.84453 8.0885 9.94904 7.63572C11.5325 7.29876 12.7585 5.63504 12.6052 4.0661C12.4928 2.96046 11.6858 1.82323 10.6642 1.30727C10.041 1.00191 9.08068 0.928201 8.44728 1.1388Z" fill="white"/>
<path d="M21.5238 1.13878C19.9812 1.66527 18.9392 3.41323 19.2559 4.95059C19.5113 6.20364 20.6453 7.37245 21.8507 7.6357C23.8327 8.06742 25.8861 6.14046 25.6818 4.06608C25.5694 2.96045 24.7623 1.82321 23.7407 1.30725C23.1175 1.00189 22.1572 0.928183 21.5238 1.13878Z" fill="white"/>
<path d="M34.6004 1.1388C33.5277 1.50734 32.5572 2.6235 32.3324 3.7502C31.8931 5.91934 33.9976 8.0885 36.1021 7.63572C37.6856 7.29876 38.9116 5.63504 38.7583 4.0661C38.6459 2.96046 37.8389 1.82323 36.8173 1.30727C36.1941 1.00191 35.2338 0.928201 34.6004 1.1388Z" fill="white"/>
<path d="M47.6769 1.1388C46.6042 1.50734 45.6337 2.6235 45.409 3.7502C44.9697 5.91934 47.0742 8.0885 49.1787 7.63572C50.7622 7.29876 51.9881 5.63504 51.8349 4.0661C51.7225 2.96046 50.9154 1.82323 49.8938 1.30727C49.2706 1.00191 48.3103 0.928201 47.6769 1.1388Z" fill="white"/>
<path d="M60.7534 1.1388C59.6808 1.50734 58.7102 2.6235 58.4855 3.7502C58.0462 5.91934 60.1507 8.0885 62.2552 7.63572C63.8387 7.29876 65.0646 5.63504 64.9114 4.0661C64.799 2.96046 63.9919 1.82323 62.9703 1.30727C62.3472 1.00191 61.3868 0.928201 60.7534 1.1388Z" fill="white"/>
<path d="M73.83 1.1388C72.7573 1.50734 71.7868 2.6235 71.562 3.7502C71.1227 5.91934 73.2272 8.0885 75.3318 7.63572C76.9152 7.29876 78.1412 5.63504 77.9879 4.0661C77.8755 2.96046 77.0685 1.82323 76.0469 1.30727C75.4237 1.00191 74.4634 0.928201 73.83 1.1388Z" fill="white"/>
<path d="M86.9066 1.1388C85.8339 1.50734 84.8634 2.6235 84.6386 3.7502C84.1993 5.91934 86.3038 8.0885 88.4083 7.63572C89.9918 7.29876 91.2178 5.63504 91.0645 4.0661C90.9521 2.96046 90.1451 1.82323 89.1235 1.30727C88.5003 1.00191 87.54 0.928201 86.9066 1.1388Z" fill="white"/>
<path d="M99.9832 1.1388C98.9105 1.50734 97.94 2.6235 97.7152 3.7502C97.2759 5.91934 99.3804 8.0885 101.485 7.63572C103.068 7.29876 104.294 5.63504 104.141 4.0661C104.029 2.96046 103.222 1.82323 102.2 1.30727C101.577 1.00191 100.617 0.928201 99.9832 1.1388Z" fill="white"/>
<path d="M113.06 1.13882C111.987 1.50737 111.016 2.62353 110.792 3.75022C110.536 4.98221 111.119 6.31951 112.242 7.10925C113.336 7.88846 114.582 7.89899 115.685 7.14084C117.493 5.89832 117.739 3.58175 116.227 2.03386C115.358 1.12829 114.112 0.78081 113.06 1.13882Z" fill="white"/>
<path d="M126.136 1.13882C125.064 1.50737 124.093 2.62353 123.868 3.75022C123.613 4.98221 124.195 6.31951 125.319 7.10925C126.412 7.88846 127.658 7.89899 128.762 7.14084C130.57 5.89832 130.815 3.58175 129.303 2.03386C128.435 1.12829 127.189 0.78081 126.136 1.13882Z" fill="white"/>
<path d="M8.44728 14.6169C7.3746 14.9855 6.40407 16.1017 6.17932 17.2284C5.74003 19.3975 7.84453 21.5666 9.94904 21.1139C11.5325 20.7769 12.7585 19.1132 12.6052 17.5442C12.4928 16.4386 11.6858 15.3014 10.6642 14.7854C10.041 14.4801 9.08068 14.4064 8.44728 14.6169Z" fill="white"/>
<path d="M21.5238 14.6171C19.9812 15.1435 18.9392 16.8915 19.2559 18.4289C19.5113 19.6819 20.6453 20.8507 21.8507 21.114C23.8327 21.5457 25.8861 19.6187 25.6818 17.5444C25.5694 16.4387 24.7623 15.3015 23.7407 14.7855C23.1175 14.4802 22.1572 14.4065 21.5238 14.6171Z" fill="white"/>
<path d="M34.6004 14.6169C33.5277 14.9855 32.5572 16.1017 32.3324 17.2284C31.8931 19.3975 33.9976 21.5666 36.1021 21.1139C37.6856 20.7769 38.9116 19.1132 38.7583 17.5442C38.6459 16.4386 37.8389 15.3014 36.8173 14.7854C36.1941 14.4801 35.2338 14.4064 34.6004 14.6169Z" fill="white"/>
<path d="M47.6769 14.6169C46.6042 14.9855 45.6337 16.1017 45.409 17.2284C44.9697 19.3975 47.0742 21.5666 49.1787 21.1139C50.7622 20.7769 51.9881 19.1132 51.8349 17.5442C51.7225 16.4386 50.9154 15.3014 49.8938 14.7854C49.2706 14.4801 48.3103 14.4064 47.6769 14.6169Z" fill="white"/>
<path d="M60.7534 14.6169C59.6808 14.9855 58.7102 16.1017 58.4855 17.2284C58.0462 19.3975 60.1507 21.5666 62.2552 21.1139C63.8387 20.7769 65.0646 19.1132 64.9114 17.5442C64.799 16.4386 63.9919 15.3014 62.9703 14.7854C62.3472 14.4801 61.3868 14.4064 60.7534 14.6169Z" fill="white"/>
<path d="M73.83 14.6169C72.7573 14.9855 71.7868 16.1017 71.562 17.2284C71.1227 19.3975 73.2272 21.5666 75.3318 21.1139C76.9152 20.7769 78.1412 19.1132 77.9879 17.5442C77.8755 16.4386 77.0685 15.3014 76.0469 14.7854C75.4237 14.4801 74.4634 14.4064 73.83 14.6169Z" fill="white"/>
<path d="M86.9066 14.6169C85.8339 14.9855 84.8634 16.1017 84.6386 17.2284C84.1993 19.3975 86.3038 21.5666 88.4083 21.1139C89.9918 20.7769 91.2178 19.1132 91.0645 17.5442C90.9521 16.4386 90.1451 15.3014 89.1235 14.7854C88.5003 14.4801 87.54 14.4064 86.9066 14.6169Z" fill="white"/>
<path d="M99.9832 14.6169C98.9105 14.9855 97.94 16.1017 97.7152 17.2284C97.2759 19.3975 99.3804 21.5666 101.485 21.1139C103.068 20.7769 104.294 19.1132 104.141 17.5442C104.029 16.4386 103.222 15.3014 102.2 14.7854C101.577 14.4801 100.617 14.4064 99.9832 14.6169Z" fill="white"/>
<path d="M113.06 14.617C111.987 14.9855 111.016 16.1017 110.792 17.2284C110.536 18.4604 111.119 19.7977 112.242 20.5874C113.336 21.3666 114.582 21.3771 115.685 20.619C117.493 19.3765 117.739 17.0599 116.227 15.512C115.358 14.6064 114.112 14.259 113.06 14.617Z" fill="white"/>
<path d="M126.136 14.617C125.064 14.9855 124.093 16.1017 123.868 17.2284C123.613 18.4604 124.195 19.7977 125.319 20.5874C126.412 21.3666 127.658 21.3771 128.762 20.619C130.57 19.3765 130.815 17.0599 129.303 15.512C128.435 14.6064 127.189 14.259 126.136 14.617Z" fill="white"/>
<path d="M8.44728 28.0952C7.3746 28.4638 6.40407 29.5799 6.17932 30.7066C5.74003 32.8758 7.84453 35.0449 9.94904 34.5921C11.5325 34.2552 12.7585 32.5915 12.6052 31.0225C12.4928 29.9169 11.6858 28.7797 10.6642 28.2637C10.041 27.9583 9.08068 27.8846 8.44728 28.0952Z" fill="white"/>
<path d="M21.5238 28.0952C20.4511 28.4638 19.4806 29.5799 19.2558 30.7066C18.8165 32.8758 20.921 35.0449 23.0255 34.5921C24.609 34.2552 25.835 32.5915 25.6817 31.0225C25.5693 29.9169 24.7623 28.7797 23.7407 28.2637C23.1175 27.9583 22.1572 27.8846 21.5238 28.0952Z" fill="white"/>
<path d="M34.6004 28.0952C33.5277 28.4638 32.5572 29.5799 32.3324 30.7066C31.8931 32.8758 33.9976 35.0449 36.1021 34.5921C37.6856 34.2552 38.9116 32.5915 38.7583 31.0225C38.6459 29.9169 37.8389 28.7797 36.8173 28.2637C36.1941 27.9583 35.2338 27.8846 34.6004 28.0952Z" fill="white"/>
<path d="M47.6769 28.0952C46.6042 28.4638 45.6337 29.5799 45.409 30.7066C44.9697 32.8758 47.0742 35.0449 49.1787 34.5921C50.7622 34.2552 51.9881 32.5915 51.8349 31.0225C51.7225 29.9169 50.9154 28.7797 49.8938 28.2637C49.2706 27.9583 48.3103 27.8846 47.6769 28.0952Z" fill="white"/>
<path d="M60.7534 28.0952C59.6808 28.4638 58.7102 29.5799 58.4855 30.7066C58.0462 32.8758 60.1507 35.0449 62.2552 34.5921C63.8387 34.2552 65.0646 32.5915 64.9114 31.0225C64.799 29.9169 63.9919 28.7797 62.9703 28.2637C62.3472 27.9583 61.3868 27.8846 60.7534 28.0952Z" fill="white"/>
<path d="M73.83 28.0952C72.7573 28.4638 71.7868 29.5799 71.562 30.7066C71.1227 32.8758 73.2272 35.0449 75.3318 34.5921C76.9152 34.2552 78.1412 32.5915 77.9879 31.0225C77.8755 29.9169 77.0685 28.7797 76.0469 28.2637C75.4237 27.9583 74.4634 27.8846 73.83 28.0952Z" fill="white"/>
<path d="M86.9066 28.0952C85.8339 28.4638 84.8634 29.5799 84.6386 30.7066C84.1993 32.8758 86.3038 35.0449 88.4083 34.5921C89.9918 34.2552 91.2178 32.5915 91.0645 31.0225C90.9521 29.9169 90.1451 28.7797 89.1235 28.2637C88.5003 27.9583 87.54 27.8846 86.9066 28.0952Z" fill="white"/>
<path d="M99.9832 28.0952C98.9105 28.4638 97.94 29.5799 97.7152 30.7066C97.2759 32.8758 99.3804 35.0449 101.485 34.5921C103.068 34.2552 104.294 32.5915 104.141 31.0225C104.029 29.9169 103.222 28.7797 102.2 28.2637C101.577 27.9583 100.617 27.8846 99.9832 28.0952Z" fill="white"/>
<path d="M113.06 28.0952C111.987 28.4638 111.016 29.5799 110.792 30.7066C110.352 32.8758 112.457 35.0449 114.561 34.5921C116.145 34.2552 117.371 32.5915 117.218 31.0225C117.105 29.9169 116.298 28.7797 115.277 28.2637C114.653 27.9583 113.693 27.8846 113.06 28.0952Z" fill="white"/>
<path d="M126.136 28.0952C125.064 28.4638 124.093 29.5799 123.868 30.7066C123.429 32.8758 125.533 35.0449 127.638 34.5921C129.221 34.2552 130.447 32.5915 130.294 31.0225C130.182 29.9169 129.375 28.7797 128.353 28.2637C127.73 27.9583 126.77 27.8846 126.136 28.0952Z" fill="white"/>
<path d="M8.44728 41.5734C7.3746 41.9419 6.40407 43.0581 6.17932 44.1848C5.74003 46.3539 7.84453 48.5231 9.94904 48.0703C11.5325 47.7333 12.7585 46.0696 12.6052 44.5007C12.4928 43.395 11.6858 42.2578 10.6642 41.7418C10.041 41.4365 9.08068 41.3628 8.44728 41.5734Z" fill="white"/>
<path d="M21.5238 41.5734C20.4511 41.9419 19.4806 43.0581 19.2558 44.1848C18.8165 46.3539 20.921 48.5231 23.0255 48.0703C24.609 47.7333 25.835 46.0696 25.6817 44.5007C25.5693 43.395 24.7623 42.2578 23.7407 41.7418C23.1175 41.4365 22.1572 41.3628 21.5238 41.5734Z" fill="white"/>
<path d="M34.6004 41.5734C33.5277 41.9419 32.5572 43.0581 32.3324 44.1848C31.8931 46.3539 33.9976 48.5231 36.1021 48.0703C37.6856 47.7333 38.9116 46.0696 38.7583 44.5007C38.6459 43.395 37.8389 42.2578 36.8173 41.7418C36.1941 41.4365 35.2338 41.3628 34.6004 41.5734Z" fill="white"/>
<path d="M47.6769 41.5734C46.6042 41.9419 45.6337 43.0581 45.409 44.1848C44.9697 46.3539 47.0742 48.5231 49.1787 48.0703C50.7622 47.7333 51.9881 46.0696 51.8349 44.5007C51.7225 43.395 50.9154 42.2578 49.8938 41.7418C49.2706 41.4365 48.3103 41.3628 47.6769 41.5734Z" fill="white"/>
<path d="M60.7534 41.5734C59.6808 41.9419 58.7102 43.0581 58.4855 44.1848C58.0462 46.3539 60.1507 48.5231 62.2552 48.0703C63.8387 47.7333 65.0646 46.0696 64.9114 44.5007C64.799 43.395 63.9919 42.2578 62.9703 41.7418C62.3472 41.4365 61.3868 41.3628 60.7534 41.5734Z" fill="white"/>
<path d="M73.83 41.5734C72.7573 41.9419 71.7868 43.0581 71.562 44.1848C71.1227 46.3539 73.2272 48.5231 75.3318 48.0703C76.9152 47.7333 78.1412 46.0696 77.9879 44.5007C77.8755 43.395 77.0685 42.2578 76.0469 41.7418C75.4237 41.4365 74.4634 41.3628 73.83 41.5734Z" fill="white"/>
<path d="M86.9066 41.5734C85.8339 41.9419 84.8634 43.0581 84.6386 44.1848C84.1993 46.3539 86.3038 48.5231 88.4083 48.0703C89.9918 47.7333 91.2178 46.0696 91.0645 44.5007C90.9521 43.395 90.1451 42.2578 89.1235 41.7418C88.5003 41.4365 87.54 41.3628 86.9066 41.5734Z" fill="white"/>
<path d="M99.9832 41.5734C98.9105 41.9419 97.94 43.0581 97.7152 44.1848C97.2759 46.3539 99.3804 48.5231 101.485 48.0703C103.068 47.7333 104.294 46.0696 104.141 44.5007C104.029 43.395 103.222 42.2578 102.2 41.7418C101.577 41.4365 100.617 41.3628 99.9832 41.5734Z" fill="white"/>
<path d="M113.06 41.5734C111.987 41.9419 111.016 43.0581 110.792 44.1848C110.352 46.3539 112.457 48.5231 114.561 48.0703C116.145 47.7333 117.371 46.0696 117.218 44.5007C117.105 43.395 116.298 42.2578 115.277 41.7418C114.653 41.4365 113.693 41.3628 113.06 41.5734Z" fill="white"/>
<path d="M126.136 41.5734C125.064 41.9419 124.093 43.0581 123.868 44.1848C123.429 46.3539 125.533 48.5231 127.638 48.0703C129.221 47.7333 130.447 46.0696 130.294 44.5007C130.182 43.395 129.375 42.2578 128.353 41.7418C127.73 41.4365 126.77 41.3628 126.136 41.5734Z" fill="white"/>
<path d="M8.44728 55.0516C7.3746 55.4202 6.40407 56.5364 6.17932 57.663C5.74003 59.8322 7.84453 62.0013 9.94904 61.5486C11.5325 61.2116 12.7585 59.5479 12.6052 57.9789C12.4928 56.8733 11.6858 55.7361 10.6642 55.2201C10.041 54.9148 9.08068 54.841 8.44728 55.0516Z" fill="white"/>
<path d="M21.5238 55.0516C20.4511 55.4202 19.4806 56.5364 19.2558 57.663C18.8165 59.8322 20.921 62.0013 23.0255 61.5486C24.609 61.2116 25.835 59.5479 25.6817 57.9789C25.5693 56.8733 24.7623 55.7361 23.7407 55.2201C23.1175 54.9148 22.1572 54.841 21.5238 55.0516Z" fill="white"/>
<path d="M34.6004 55.0516C33.5277 55.4202 32.5572 56.5364 32.3324 57.663C31.8931 59.8322 33.9976 62.0013 36.1021 61.5486C37.6856 61.2116 38.9116 59.5479 38.7583 57.9789C38.6459 56.8733 37.8389 55.7361 36.8173 55.2201C36.1941 54.9148 35.2338 54.841 34.6004 55.0516Z" fill="white"/>
<path d="M47.6769 55.0516C46.6042 55.4202 45.6337 56.5364 45.409 57.663C44.9697 59.8322 47.0742 62.0013 49.1787 61.5486C50.7622 61.2116 51.9881 59.5479 51.8349 57.9789C51.7225 56.8733 50.9154 55.7361 49.8938 55.2201C49.2706 54.9148 48.3103 54.841 47.6769 55.0516Z" fill="white"/>
<path d="M60.7534 55.0516C59.6808 55.4202 58.7102 56.5364 58.4855 57.663C58.0462 59.8322 60.1507 62.0013 62.2552 61.5486C63.8387 61.2116 65.0646 59.5479 64.9114 57.9789C64.799 56.8733 63.9919 55.7361 62.9703 55.2201C62.3472 54.9148 61.3868 54.841 60.7534 55.0516Z" fill="white"/>
<path d="M73.83 55.0516C72.7573 55.4202 71.7868 56.5364 71.562 57.663C71.1227 59.8322 73.2272 62.0013 75.3318 61.5486C76.9152 61.2116 78.1412 59.5479 77.9879 57.9789C77.8755 56.8733 77.0685 55.7361 76.0469 55.2201C75.4237 54.9148 74.4634 54.841 73.83 55.0516Z" fill="white"/>
<path d="M86.9066 55.0516C85.8339 55.4202 84.8634 56.5364 84.6386 57.663C84.1993 59.8322 86.3038 62.0013 88.4083 61.5486C89.9918 61.2116 91.2178 59.5479 91.0645 57.9789C90.9521 56.8733 90.1451 55.7361 89.1235 55.2201C88.5003 54.9148 87.54 54.841 86.9066 55.0516Z" fill="white"/>
<path d="M99.9832 55.0516C98.9105 55.4202 97.94 56.5364 97.7152 57.663C97.2759 59.8322 99.3804 62.0013 101.485 61.5486C103.068 61.2116 104.294 59.5479 104.141 57.9789C104.029 56.8733 103.222 55.7361 102.2 55.2201C101.577 54.9148 100.617 54.841 99.9832 55.0516Z" fill="white"/>
<path d="M113.06 55.0516C111.987 55.4202 111.016 56.5364 110.792 57.663C110.352 59.8322 112.457 62.0013 114.561 61.5486C116.145 61.2116 117.371 59.5479 117.218 57.9789C117.105 56.8733 116.298 55.7361 115.277 55.2201C114.653 54.9148 113.693 54.841 113.06 55.0516Z" fill="white"/>
<path d="M126.136 55.0516C125.064 55.4202 124.093 56.5364 123.868 57.663C123.429 59.8322 125.533 62.0013 127.638 61.5486C129.221 61.2116 130.447 59.5479 130.294 57.9789C130.182 56.8733 129.375 55.7361 128.353 55.2201C127.73 54.9148 126.77 54.841 126.136 55.0516Z" fill="white"/>
<path d="M8.44728 68.5298C7.3746 68.8983 6.40407 70.0145 6.17932 71.1412C5.74003 73.3103 7.84453 75.4795 9.94904 75.0267C11.5325 74.6898 12.7585 73.026 12.6052 71.4571C12.4928 70.3515 11.6858 69.2142 10.6642 68.6983C10.041 68.3929 9.08068 68.3192 8.44728 68.5298Z" fill="white"/>
<path d="M21.5238 68.5298C20.4511 68.8983 19.4806 70.0145 19.2558 71.1412C18.8165 73.3103 20.921 75.4795 23.0255 75.0267C24.609 74.6898 25.835 73.026 25.6817 71.4571C25.5693 70.3515 24.7623 69.2142 23.7407 68.6983C23.1175 68.3929 22.1572 68.3192 21.5238 68.5298Z" fill="white"/>
<path d="M34.6004 68.5298C33.5277 68.8983 32.5572 70.0145 32.3324 71.1412C31.8931 73.3103 33.9976 75.4795 36.1021 75.0267C37.6856 74.6898 38.9116 73.026 38.7583 71.4571C38.6459 70.3515 37.8389 69.2142 36.8173 68.6983C36.1941 68.3929 35.2338 68.3192 34.6004 68.5298Z" fill="white"/>
<path d="M47.6769 68.5298C46.6042 68.8983 45.6337 70.0145 45.409 71.1412C44.9697 73.3103 47.0742 75.4795 49.1787 75.0267C50.7622 74.6898 51.9881 73.026 51.8349 71.4571C51.7225 70.3515 50.9154 69.2142 49.8938 68.6983C49.2706 68.3929 48.3103 68.3192 47.6769 68.5298Z" fill="white"/>
<path d="M60.7534 68.5298C59.6808 68.8983 58.7102 70.0145 58.4855 71.1412C58.0462 73.3103 60.1507 75.4795 62.2552 75.0267C63.8387 74.6898 65.0646 73.026 64.9114 71.4571C64.799 70.3515 63.9919 69.2142 62.9703 68.6983C62.3472 68.3929 61.3868 68.3192 60.7534 68.5298Z" fill="white"/>
<path d="M73.83 68.5298C72.7573 68.8983 71.7868 70.0145 71.562 71.1412C71.1227 73.3103 73.2272 75.4795 75.3318 75.0267C76.9152 74.6898 78.1412 73.026 77.9879 71.4571C77.8755 70.3515 77.0685 69.2142 76.0469 68.6983C75.4237 68.3929 74.4634 68.3192 73.83 68.5298Z" fill="white"/>
<path d="M86.9066 68.5298C85.8339 68.8983 84.8634 70.0145 84.6386 71.1412C84.1993 73.3103 86.3038 75.4795 88.4083 75.0267C89.9918 74.6898 91.2178 73.026 91.0645 71.4571C90.9521 70.3515 90.1451 69.2142 89.1235 68.6983C88.5003 68.3929 87.54 68.3192 86.9066 68.5298Z" fill="white"/>
<path d="M99.9832 68.5298C98.9105 68.8983 97.94 70.0145 97.7152 71.1412C97.2759 73.3103 99.3804 75.4795 101.485 75.0267C103.068 74.6898 104.294 73.026 104.141 71.4571C104.029 70.3515 103.222 69.2142 102.2 68.6983C101.577 68.3929 100.617 68.3192 99.9832 68.5298Z" fill="white"/>
<path d="M113.06 68.5298C111.987 68.8983 111.016 70.0145 110.792 71.1412C110.352 73.3103 112.457 75.4795 114.561 75.0267C116.145 74.6898 117.371 73.026 117.218 71.4571C117.105 70.3515 116.298 69.2142 115.277 68.6983C114.653 68.3929 113.693 68.3192 113.06 68.5298Z" fill="white"/>
<path d="M126.136 68.5298C125.064 68.8983 124.093 70.0145 123.868 71.1412C123.429 73.3103 125.533 75.4795 127.638 75.0267C129.221 74.6898 130.447 73.026 130.294 71.4571C130.182 70.3515 129.375 69.2142 128.353 68.6983C127.73 68.3929 126.77 68.3192 126.136 68.5298Z" fill="white"/>
<path d="M8.44728 82.0081C7.3746 82.3766 6.40407 83.4928 6.17932 84.6195C5.74003 86.7886 7.84453 88.9578 9.94904 88.505C11.5325 88.168 12.7585 86.5043 12.6052 84.9354C12.4928 83.8297 11.6858 82.6925 10.6642 82.1765C10.041 81.8712 9.08068 81.7975 8.44728 82.0081Z" fill="white"/>
<path d="M21.5238 82.0081C20.4511 82.3766 19.4806 83.4928 19.2558 84.6195C18.8165 86.7886 20.921 88.9578 23.0255 88.505C24.609 88.168 25.835 86.5043 25.6817 84.9354C25.5693 83.8297 24.7623 82.6925 23.7407 82.1765C23.1175 81.8712 22.1572 81.7975 21.5238 82.0081Z" fill="white"/>
<path d="M34.6003 82.008C33.5277 82.3765 32.5571 83.4927 32.3324 84.6194C32.077 85.8514 32.6593 87.1886 33.7831 87.9784C34.8762 88.7576 36.1225 88.7681 37.2259 88.01C39.0341 86.7675 39.2793 84.4509 37.7673 82.903C36.899 81.9974 35.6526 81.6499 34.6003 82.008Z" fill="white"/>
<path d="M47.6769 82.008C46.6042 82.3765 45.6337 83.4927 45.409 84.6194C45.1536 85.8514 45.7359 87.1886 46.8596 87.9784C47.9528 88.7576 49.1991 88.7681 50.3025 88.01C52.1107 86.7675 52.3559 84.4509 50.8439 82.903C49.9755 81.9974 48.7292 81.6499 47.6769 82.008Z" fill="white"/>
<path d="M60.7534 82.008C59.2108 82.5345 58.1688 84.2825 58.4855 85.8198C58.7409 87.0729 59.8749 88.2417 61.0906 88.505C63.0623 88.9367 65.1157 87.0097 64.9114 84.9353C64.799 83.8297 63.9919 82.6925 62.9703 82.1765C62.3472 81.8712 61.3868 81.7974 60.7534 82.008Z" fill="white"/>
<path d="M73.83 82.008C72.2874 82.5345 71.2454 84.2825 71.5621 85.8198C71.8175 87.0729 72.9515 88.2417 74.1672 88.505C76.1389 88.9367 78.1923 87.0097 77.988 84.9353C77.8756 83.8297 77.0685 82.6925 76.0469 82.1765C75.4237 81.8712 74.4634 81.7974 73.83 82.008Z" fill="white"/>
<path d="M86.9066 82.008C85.364 82.5345 84.322 84.2825 84.6387 85.8198C84.8941 87.0729 86.028 88.2417 87.2438 88.505C89.2155 88.9367 91.2689 87.0097 91.0646 84.9353C90.9522 83.8297 90.1451 82.6925 89.1235 82.1765C88.5003 81.8712 87.54 81.7974 86.9066 82.008Z" fill="white"/>
<path d="M99.9831 82.008C98.4405 82.5345 97.3984 84.2825 97.7151 85.8198C97.9705 87.0729 99.1045 88.2417 100.32 88.505C102.292 88.9367 104.345 87.0097 104.141 84.9353C104.029 83.8297 103.222 82.6925 102.2 82.1765C101.577 81.8712 100.616 81.7974 99.9831 82.008Z" fill="white"/>
<path d="M113.06 82.0081C111.987 82.3766 111.016 83.4928 110.792 84.6195C110.352 86.7886 112.457 88.9578 114.561 88.505C116.145 88.168 117.371 86.5043 117.218 84.9354C117.105 83.8297 116.298 82.6925 115.277 82.1765C114.653 81.8712 113.693 81.7975 113.06 82.0081Z" fill="white"/>
<path d="M126.136 82.0081C125.064 82.3766 124.093 83.4928 123.868 84.6195C123.429 86.7886 125.533 88.9578 127.638 88.505C129.221 88.168 130.447 86.5043 130.294 84.9354C130.182 83.8297 129.375 82.6925 128.353 82.1765C127.73 81.8712 126.77 81.7975 126.136 82.0081Z" fill="white"/>
<path d="M8.44728 95.4862C7.3746 95.8548 6.40407 96.9709 6.17932 98.0976C5.74003 100.267 7.84453 102.436 9.94904 101.983C11.5325 101.646 12.7585 99.9825 12.6052 98.4135C12.4928 97.3079 11.6858 96.1706 10.6642 95.6547C10.041 95.3493 9.08068 95.2756 8.44728 95.4862Z" fill="white"/>
<path d="M21.5238 95.4862C20.4511 95.8548 19.4806 96.9709 19.2558 98.0976C18.8165 100.267 20.921 102.436 23.0255 101.983C24.609 101.646 25.835 99.9825 25.6817 98.4135C25.5693 97.3079 24.7623 96.1706 23.7407 95.6547C23.1175 95.3493 22.1572 95.2756 21.5238 95.4862Z" fill="white"/>
<path d="M34.6003 95.4862C33.5277 95.8548 32.5571 96.9709 32.3324 98.0976C32.077 99.3296 32.6593 100.667 33.7831 101.457C34.8762 102.236 36.1225 102.246 37.2259 101.488C39.0341 100.246 39.2793 97.9292 37.7673 96.3813C36.899 95.4757 35.6526 95.1282 34.6003 95.4862Z" fill="white"/>
<path d="M47.6769 95.4862C46.6042 95.8548 45.6337 96.9709 45.409 98.0976C45.1536 99.3296 45.7359 100.667 46.8596 101.457C47.9528 102.236 49.1991 102.246 50.3025 101.488C52.1107 100.246 52.3559 97.9292 50.8439 96.3813C49.9755 95.4757 48.7292 95.1282 47.6769 95.4862Z" fill="white"/>
<path d="M60.7534 95.4862C59.2108 96.0127 58.1688 97.7606 58.4855 99.298C58.7409 100.551 59.8749 101.72 61.0906 101.983C63.0623 102.415 65.1157 100.488 64.9114 98.4135C64.799 97.3079 63.9919 96.1706 62.9703 95.6547C62.3472 95.3493 61.3868 95.2756 60.7534 95.4862Z" fill="white"/>
<path d="M73.83 95.4862C72.2874 96.0127 71.2454 97.7606 71.5621 99.298C71.8175 100.551 72.9515 101.72 74.1672 101.983C76.1389 102.415 78.1923 100.488 77.988 98.4135C77.8756 97.3079 77.0685 96.1706 76.0469 95.6547C75.4237 95.3493 74.4634 95.2756 73.83 95.4862Z" fill="white"/>
<path d="M86.9066 95.4862C85.364 96.0127 84.322 97.7606 84.6387 99.298C84.8941 100.551 86.028 101.72 87.2438 101.983C89.2155 102.415 91.2689 100.488 91.0646 98.4135C90.9522 97.3079 90.1451 96.1706 89.1235 95.6547C88.5003 95.3493 87.54 95.2756 86.9066 95.4862Z" fill="white"/>
<path d="M99.9831 95.4862C98.4405 96.0127 97.3984 97.7606 97.7151 99.298C97.9705 100.551 99.1045 101.72 100.32 101.983C102.292 102.415 104.345 100.488 104.141 98.4135C104.029 97.3079 103.222 96.1706 102.2 95.6547C101.577 95.3493 100.616 95.2756 99.9831 95.4862Z" fill="white"/>
<path d="M113.06 95.4862C111.987 95.8548 111.016 96.9709 110.792 98.0976C110.352 100.267 112.457 102.436 114.561 101.983C116.145 101.646 117.371 99.9825 117.218 98.4135C117.105 97.3079 116.298 96.1706 115.277 95.6547C114.653 95.3493 113.693 95.2756 113.06 95.4862Z" fill="white"/>
<path d="M126.136 95.4862C125.064 95.8548 124.093 96.9709 123.868 98.0976C123.429 100.267 125.533 102.436 127.638 101.983C129.221 101.646 130.447 99.9825 130.294 98.4135C130.182 97.3079 129.375 96.1706 128.353 95.6547C127.73 95.3493 126.77 95.2756 126.136 95.4862Z" fill="white"/>
<path d="M8.44728 108.964C7.3746 109.333 6.40407 110.449 6.17932 111.576C5.74003 113.745 7.84453 115.914 9.94904 115.461C11.5325 115.124 12.7585 113.461 12.6052 111.892C12.4928 110.786 11.6858 109.649 10.6642 109.133C10.041 108.828 9.08068 108.754 8.44728 108.964Z" fill="white"/>
<path d="M21.5238 108.964C20.4511 109.333 19.4806 110.449 19.2558 111.576C18.8165 113.745 20.921 115.914 23.0255 115.461C24.609 115.124 25.835 113.461 25.6817 111.892C25.5693 110.786 24.7623 109.649 23.7407 109.133C23.1175 108.828 22.1572 108.754 21.5238 108.964Z" fill="white"/>
<path d="M34.6003 108.964C33.5277 109.333 32.5571 110.449 32.3324 111.576C32.077 112.808 32.6593 114.145 33.7831 114.935C34.8762 115.714 36.1225 115.725 37.2259 114.966C39.0341 113.724 39.2793 111.407 37.7673 109.859C36.899 108.954 35.6526 108.606 34.6003 108.964Z" fill="white"/>
<path d="M47.6769 108.964C46.6042 109.333 45.6337 110.449 45.409 111.576C45.1536 112.808 45.7359 114.145 46.8596 114.935C47.9528 115.714 49.1991 115.725 50.3025 114.966C52.1107 113.724 52.3559 111.407 50.8439 109.859C49.9755 108.954 48.7292 108.606 47.6769 108.964Z" fill="white"/>
<path d="M60.7534 108.964C59.6808 109.333 58.7102 110.449 58.4855 111.576C58.0462 113.745 60.1507 115.914 62.2552 115.461C63.8387 115.124 65.0646 113.461 64.9114 111.892C64.799 110.786 63.9919 109.649 62.9703 109.133C62.3472 108.828 61.3868 108.754 60.7534 108.964Z" fill="white"/>
<path d="M73.83 108.964C72.7573 109.333 71.7868 110.449 71.562 111.576C71.1227 113.745 73.2272 115.914 75.3318 115.461C76.9152 115.124 78.1412 113.461 77.9879 111.892C77.8755 110.786 77.0685 109.649 76.0469 109.133C75.4237 108.828 74.4634 108.754 73.83 108.964Z" fill="white"/>
<path d="M86.9066 108.964C85.8339 109.333 84.8634 110.449 84.6386 111.576C84.1993 113.745 86.3038 115.914 88.4083 115.461C89.9918 115.124 91.2178 113.461 91.0645 111.892C90.9521 110.786 90.1451 109.649 89.1235 109.133C88.5003 108.828 87.54 108.754 86.9066 108.964Z" fill="white"/>
<path d="M99.9832 108.964C98.9105 109.333 97.94 110.449 97.7152 111.576C97.2759 113.745 99.3804 115.914 101.485 115.461C103.068 115.124 104.294 113.461 104.141 111.892C104.029 110.786 103.222 109.649 102.2 109.133C101.577 108.828 100.617 108.754 99.9832 108.964Z" fill="white"/>
<path d="M113.06 108.964C111.987 109.333 111.016 110.449 110.792 111.576C110.352 113.745 112.457 115.914 114.561 115.461C116.145 115.124 117.371 113.461 117.218 111.892C117.105 110.786 116.298 109.649 115.277 109.133C114.653 108.828 113.693 108.754 113.06 108.964Z" fill="white"/>
<path d="M126.136 108.964C125.064 109.333 124.093 110.449 123.868 111.576C123.429 113.745 125.533 115.914 127.638 115.461C129.221 115.124 130.447 113.461 130.294 111.892C130.182 110.786 129.375 109.649 128.353 109.133C127.73 108.828 126.77 108.754 126.136 108.964Z" fill="white"/>
<path d="M8.44728 122.443C7.3746 122.811 6.40407 123.927 6.17932 125.054C5.74003 127.223 7.84453 129.392 9.94904 128.94C11.5325 128.603 12.7585 126.939 12.6052 125.37C12.4928 124.264 11.6858 123.127 10.6642 122.611C10.041 122.306 9.08068 122.232 8.44728 122.443Z" fill="white"/>
<path d="M21.5238 122.443C20.4511 122.811 19.4806 123.927 19.2558 125.054C18.8165 127.223 20.921 129.392 23.0255 128.94C24.609 128.603 25.835 126.939 25.6817 125.37C25.5693 124.264 24.7623 123.127 23.7407 122.611C23.1175 122.306 22.1572 122.232 21.5238 122.443Z" fill="white"/>
<path d="M34.6004 122.443C33.5277 122.811 32.5572 123.927 32.3324 125.054C31.8931 127.223 33.9976 129.392 36.1021 128.94C37.6856 128.603 38.9116 126.939 38.7583 125.37C38.6459 124.264 37.8389 123.127 36.8173 122.611C36.1941 122.306 35.2338 122.232 34.6004 122.443Z" fill="white"/>
<path d="M47.6769 122.443C46.6042 122.811 45.6337 123.927 45.409 125.054C44.9697 127.223 47.0742 129.392 49.1787 128.94C50.7622 128.603 51.9881 126.939 51.8349 125.37C51.7225 124.264 50.9154 123.127 49.8938 122.611C49.2706 122.306 48.3103 122.232 47.6769 122.443Z" fill="white"/>
<path d="M60.7534 122.443C59.6808 122.811 58.7102 123.927 58.4855 125.054C58.0462 127.223 60.1507 129.392 62.2552 128.94C63.8387 128.603 65.0646 126.939 64.9114 125.37C64.799 124.264 63.9919 123.127 62.9703 122.611C62.3472 122.306 61.3868 122.232 60.7534 122.443Z" fill="white"/>
<path d="M73.83 122.443C72.7573 122.811 71.7868 123.927 71.562 125.054C71.1227 127.223 73.2272 129.392 75.3318 128.94C76.9152 128.603 78.1412 126.939 77.9879 125.37C77.8755 124.264 77.0685 123.127 76.0469 122.611C75.4237 122.306 74.4634 122.232 73.83 122.443Z" fill="white"/>
<path d="M86.9066 122.443C85.8339 122.811 84.8634 123.927 84.6386 125.054C84.1993 127.223 86.3038 129.392 88.4083 128.94C89.9918 128.603 91.2178 126.939 91.0645 125.37C90.9521 124.264 90.1451 123.127 89.1235 122.611C88.5003 122.306 87.54 122.232 86.9066 122.443Z" fill="white"/>
<path d="M99.9832 122.443C98.9105 122.811 97.94 123.927 97.7152 125.054C97.2759 127.223 99.3804 129.392 101.485 128.94C103.068 128.603 104.294 126.939 104.141 125.37C104.029 124.264 103.222 123.127 102.2 122.611C101.577 122.306 100.617 122.232 99.9832 122.443Z" fill="white"/>
<path d="M113.06 122.443C111.987 122.811 111.016 123.927 110.792 125.054C110.352 127.223 112.457 129.392 114.561 128.94C116.145 128.603 117.371 126.939 117.218 125.37C117.105 124.264 116.298 123.127 115.277 122.611C114.653 122.306 113.693 122.232 113.06 122.443Z" fill="white"/>
<path d="M126.136 122.443C125.064 122.811 124.093 123.927 123.868 125.054C123.429 127.223 125.533 129.392 127.638 128.94C129.221 128.603 130.447 126.939 130.294 125.37C130.182 124.264 129.375 123.127 128.353 122.611C127.73 122.306 126.77 122.232 126.136 122.443Z" fill="white"/>
</g>
<defs>
<clipPath id="clip0_114_1900">
<rect width="136" height="410" fill="white" transform="translate(404)"/>
</clipPath>
<clipPath id="clip1_114_1900">
<rect width="131.95" height="409.995" fill="white" transform="matrix(-0.999764 0.0217387 -0.0204632 -0.999791 140.309 845.52)"/>
</clipPath>
</defs>
</svg>
