<svg width="136" height="410" viewBox="0 0 136 410" fill="none" xmlns="http://www.w3.org/2000/svg">
<g clip-path="url(#clip0_1_110)">
<mask id="mask0_1_110" style="mask-type:luminance" maskUnits="userSpaceOnUse" x="0" y="0" width="136" height="410">
<path d="M136 0H0V410H136V0Z" fill="#E1E6E5"/>
</mask>
<g mask="url(#mask0_1_110)">
<path fill-rule="evenodd" clip-rule="evenodd" d="M115.86 394.2L356.909 304.641C360.62 303.264 364.743 305.152 366.121 308.862C367.499 312.571 365.609 316.695 361.9 318.074L120.85 407.632C120.027 407.937 119.185 408.082 118.356 408.082C115.447 408.082 112.711 406.298 111.639 403.411C110.261 399.702 112.151 395.577 115.86 394.2Z" fill="#E1E6E5"/>
</g>
<mask id="mask1_1_110" style="mask-type:luminance" maskUnits="userSpaceOnUse" x="0" y="0" width="136" height="410">
<path d="M136 0H0V410H136V0Z" fill="#E1E6E5"/>
</mask>
<g mask="url(#mask1_1_110)">
<path fill-rule="evenodd" clip-rule="evenodd" d="M81.7257 366.061L340.929 276.503C344.671 275.211 348.749 277.196 350.04 280.934C351.332 284.675 349.349 288.754 345.608 290.046L86.4047 379.605C85.6307 379.873 84.8407 380 84.0657 380C81.0957 380 78.3187 378.138 77.2937 375.173C76.0017 371.432 77.9847 367.353 81.7257 366.061Z" fill="#E1E6E5"/>
</g>
<mask id="mask2_1_110" style="mask-type:luminance" maskUnits="userSpaceOnUse" x="0" y="0" width="136" height="410">
<path d="M136 0H0V410H136V0Z" fill="#E1E6E5"/>
</mask>
<g mask="url(#mask2_1_110)">
<path fill-rule="evenodd" clip-rule="evenodd" d="M54.7131 340.511L317.929 250.953C320.268 250.157 322.813 251.409 323.61 253.749C324.407 256.09 323.154 258.635 320.813 259.431L57.5981 348.99C57.1191 349.152 56.6341 349.23 56.1551 349.23C54.2911 349.23 52.5501 348.056 51.9161 346.192C51.1201 343.851 52.3721 341.308 54.7131 340.511Z" fill="#E1E6E5"/>
</g>
<mask id="mask3_1_110" style="mask-type:luminance" maskUnits="userSpaceOnUse" x="0" y="0" width="136" height="410">
<path d="M136 0H0V410H136V0Z" fill="#E1E6E5"/>
</mask>
<g mask="url(#mask3_1_110)">
<path fill-rule="evenodd" clip-rule="evenodd" d="M33.1291 312.447L285.751 222.889C288.082 222.06 290.642 223.282 291.468 225.613C292.295 227.944 291.075 230.503 288.744 231.33L36.1221 320.888C35.6271 321.064 35.1221 321.147 34.6261 321.147C32.7831 321.147 31.0561 320 30.4051 318.164C29.5781 315.833 30.7981 313.273 33.1291 312.447Z" fill="#E1E6E5"/>
</g>
<mask id="mask4_1_110" style="mask-type:luminance" maskUnits="userSpaceOnUse" x="0" y="0" width="136" height="410">
<path d="M136 0H0V410H136V0Z" fill="#E1E6E5"/>
</mask>
<g mask="url(#mask4_1_110)">
<path fill-rule="evenodd" clip-rule="evenodd" d="M17.2832 286.089L241.835 196.53C243.213 195.98 244.776 196.652 245.325 198.031C245.875 199.409 245.203 200.972 243.825 201.521L19.2732 291.08C18.9472 291.211 18.6102 291.272 18.2792 291.272C17.2122 291.272 16.2022 290.631 15.7832 289.579C15.2332 288.201 15.9052 286.638 17.2832 286.089Z" fill="#E1E6E5"/>
</g>
<mask id="mask5_1_110" style="mask-type:luminance" maskUnits="userSpaceOnUse" x="0" y="0" width="136" height="410">
<path d="M136 0H0V410H136V0Z" fill="#E1E6E5"/>
</mask>
<g mask="url(#mask5_1_110)">
<path fill-rule="evenodd" clip-rule="evenodd" d="M6.28686 258.094L187.096 168.536C188.427 167.878 190.037 168.422 190.696 169.751C191.355 171.081 190.811 172.692 189.481 173.351L8.67286 262.909C8.28886 263.1 7.88186 263.189 7.48186 263.189C6.49186 263.189 5.54086 262.641 5.07186 261.695C4.41386 260.365 4.95786 258.753 6.28686 258.094Z" fill="#E1E6E5"/>
</g>
<mask id="mask6_1_110" style="mask-type:luminance" maskUnits="userSpaceOnUse" x="0" y="0" width="136" height="410">
<path d="M136 0H0V410H136V0Z" fill="#E1E6E5"/>
</mask>
<g mask="url(#mask6_1_110)">
<path fill-rule="evenodd" clip-rule="evenodd" d="M1.31207 230.111L151.712 140.552C152.986 139.793 154.637 140.211 155.395 141.486C156.155 142.761 155.736 144.41 154.462 145.17L4.06207 234.728C3.63107 234.985 3.15707 235.106 2.69007 235.106C1.77407 235.106 0.88107 234.638 0.37907 233.794C-0.38093 232.519 0.03807 230.87 1.31207 230.111Z" fill="#E1E6E5"/>
</g>
<mask id="mask7_1_110" style="mask-type:luminance" maskUnits="userSpaceOnUse" x="0" y="0" width="136" height="410">
<path d="M136 0H0V410H136V0Z" fill="#E1E6E5"/>
</mask>
<g mask="url(#mask7_1_110)">
<path fill-rule="evenodd" clip-rule="evenodd" d="M3.23807 205.806C2.92607 206.024 2.56807 206.129 2.21507 206.129C1.64907 206.129 1.09307 205.861 0.744067 205.362C0.178067 204.551 0.376067 203.434 1.18807 202.868L129.514 113.31C130.327 112.744 131.442 112.943 132.008 113.753C132.575 114.564 132.376 115.681 131.565 116.247L3.23807 205.806Z" fill="#E1E6E5"/>
</g>
<mask id="mask8_1_110" style="mask-type:luminance" maskUnits="userSpaceOnUse" x="0" y="0" width="136" height="410">
<path d="M136 0H0V410H136V0Z" fill="#E1E6E5"/>
</mask>
<g mask="url(#mask8_1_110)">
<path fill-rule="evenodd" clip-rule="evenodd" d="M8.08058 177.634C7.74658 177.91 7.34158 178.045 6.93958 178.045C6.42458 178.045 5.91258 177.824 5.55858 177.396C4.92758 176.634 5.03458 175.505 5.79658 174.875L113.987 85.3156C114.748 84.6846 115.878 84.7916 116.509 85.5526C117.14 86.3146 117.033 87.4446 116.271 88.0746L8.08058 177.634Z" fill="#E1E6E5"/>
</g>
<mask id="mask9_1_110" style="mask-type:luminance" maskUnits="userSpaceOnUse" x="0" y="0" width="136" height="410">
<path d="M136 0H0V410H136V0Z" fill="#E1E6E5"/>
</mask>
<g mask="url(#mask9_1_110)">
<path fill-rule="evenodd" clip-rule="evenodd" d="M106.942 57.9795C107.292 58.3295 107.292 58.8965 106.942 59.2465L17.3366 148.806C17.1616 148.98 16.9326 149.067 16.7036 149.067C16.4746 149.067 16.2446 148.98 16.0696 148.805C15.7206 148.455 15.7206 147.888 16.0696 147.538L105.676 57.9795C106.025 57.6305 106.592 57.6295 106.942 57.9795Z" fill="#E1E6E5"/>
</g>
<mask id="mask10_1_110" style="mask-type:luminance" maskUnits="userSpaceOnUse" x="0" y="0" width="136" height="410">
<path d="M136 0H0V410H136V0Z" fill="#E1E6E5"/>
</mask>
<g mask="url(#mask10_1_110)">
<path fill-rule="evenodd" clip-rule="evenodd" d="M104.13 29.8548C104.502 30.1798 104.542 30.7458 104.216 31.1188L29.2957 117.094C29.1187 117.297 28.8697 117.401 28.6207 117.401C28.4117 117.401 28.2017 117.329 28.0317 117.181C27.6597 116.856 27.6197 116.29 27.9457 115.917L102.866 29.9418C103.191 29.5678 103.758 29.5308 104.13 29.8548Z" fill="#E1E6E5"/>
</g>
<mask id="mask11_1_110" style="mask-type:luminance" maskUnits="userSpaceOnUse" x="0" y="0" width="136" height="410">
<path d="M136 0H0V410H136V0Z" fill="#E1E6E5"/>
</mask>
<g mask="url(#mask11_1_110)">
<path fill-rule="evenodd" clip-rule="evenodd" d="M41.7301 83.4966C41.6411 83.6056 41.5121 83.6626 41.3821 83.6626C41.2821 83.6626 41.1821 83.6296 41.1001 83.5626C40.9081 83.4066 40.8781 83.1246 41.0341 82.9326L106.494 2.16464C106.65 1.97364 106.935 1.94464 107.124 2.09964C107.317 2.25564 107.346 2.53664 107.191 2.72964L41.7301 83.4966Z" fill="#E1E6E5"/>
</g>
<mask id="mask12_1_110" style="mask-type:luminance" maskUnits="userSpaceOnUse" x="0" y="0" width="136" height="410">
<path d="M136 0H0V410H136V0Z" fill="#E1E6E5"/>
</mask>
<g mask="url(#mask12_1_110)">
<path fill-rule="evenodd" clip-rule="evenodd" d="M49.8139 48.6729C49.7249 48.7829 49.5959 48.8389 49.4659 48.8389C49.3669 48.8389 49.2669 48.8069 49.1839 48.7399C48.9919 48.5849 48.9619 48.3029 49.1179 48.1099L85.8069 2.71494C85.9629 2.52294 86.2439 2.49194 86.4369 2.64894C86.6289 2.80394 86.6589 3.08594 86.5029 3.27794L49.8139 48.6729Z" fill="#E1E6E5"/>
</g>
</g>
<defs>
<clipPath id="clip0_1_110">
<rect width="136" height="410" fill="white"/>
</clipPath>
</defs>
</svg>
